<?xml version="1.0" encoding="UTF-8" standalone="no"?>
<!DOCTYPE svg PUBLIC "-//W3C//DTD SVG 1.1//EN"
 "http://www.w3.org/Graphics/SVG/1.1/DTD/svg11.dtd">
<!-- Generated by graphviz version 2.40.1 (20161225.0304)
 -->
<!-- Title: %3 Pages: 1 -->
<svg width="1102pt" height="1072pt"
 viewBox="0.00 0.00 1102.00 1072.00" xmlns="http://www.w3.org/2000/svg" xmlns:xlink="http://www.w3.org/1999/xlink">
<g id="graph0" class="graph" transform="scale(1 1) rotate(0) translate(4 1068)">
<title>%3</title>
<polygon fill="#ffffff" stroke="transparent" points="-4,4 -4,-1068 1098,-1068 1098,4 -4,4"/>
<!-- 701 -->
<g id="node1" class="node">
<title>701</title>
<g id="a_node1"><a xlink:title="/home/shakthi/Projects/CAPSTONE/venv/lib/python3.7/copy.py">
<polygon fill="#0c958f" stroke="#0c958f" points="980,-696 879,-696 879,-644 980,-644 980,-696"/>
<text text-anchor="middle" x="929.5" y="-684" font-family="Arial" font-size="10.00" fill="#ffffff">copy:132:deepcopy</text>
<text text-anchor="middle" x="929.5" y="-673" font-family="Arial" font-size="10.00" fill="#ffffff">26.19%</text>
<text text-anchor="middle" x="929.5" y="-662" font-family="Arial" font-size="10.00" fill="#ffffff">(10.52%)</text>
<text text-anchor="middle" x="929.5" y="-651" font-family="Arial" font-size="10.00" fill="#ffffff">28713821×</text>
</a>
</g>
</g>
<!-- 831 -->
<g id="node2" class="node">
<title>831</title>
<g id="a_node2"><a xlink:title="/home/shakthi/Projects/CAPSTONE/venv/lib/python3.7/copy.py">
<polygon fill="#0c9590" stroke="#0c9590" points="837.5,-604 709.5,-604 709.5,-552 837.5,-552 837.5,-604"/>
<text text-anchor="middle" x="773.5" y="-592" font-family="Arial" font-size="10.00" fill="#ffffff">copy:236:_deepcopy_dict</text>
<text text-anchor="middle" x="773.5" y="-581" font-family="Arial" font-size="10.00" fill="#ffffff">25.88%</text>
<text text-anchor="middle" x="773.5" y="-570" font-family="Arial" font-size="10.00" fill="#ffffff">(2.42%)</text>
<text text-anchor="middle" x="773.5" y="-559" font-family="Arial" font-size="10.00" fill="#ffffff">2126792×</text>
</a>
</g>
</g>
<!-- 701&#45;&gt;831 -->
<g id="edge1" class="edge">
<title>701&#45;&gt;831</title>
<path fill="none" stroke="#0c9590" stroke-width="1.04" d="M878.798,-645.2746C877.3602,-644.8181 875.9259,-644.3916 874.5,-644 854.0515,-638.3842 794.5726,-649.9163 779.5,-635 772.7567,-628.3266 770.204,-618.7176 769.6559,-609.2854"/>
<polygon fill="#0c9590" stroke="#0c9590" stroke-width="1.04" points="771.4383,-609.1435 769.5437,-604.0832 767.8692,-609.2205 771.4383,-609.1435"/>
<text text-anchor="middle" x="796.5" y="-627" font-family="Arial" font-size="10.00" fill="#0c9590">25.88%</text>
<text text-anchor="middle" x="796.5" y="-616" font-family="Arial" font-size="10.00" fill="#0c9590">2083×</text>
</g>
<!-- 910 -->
<g id="node3" class="node">
<title>910</title>
<g id="a_node3"><a xlink:title="/home/shakthi/Projects/CAPSTONE/venv/lib/python3.7/copy.py">
<polygon fill="#0c9590" stroke="#0c9590" points="1094,-604 981,-604 981,-552 1094,-552 1094,-604"/>
<text text-anchor="middle" x="1037.5" y="-592" font-family="Arial" font-size="10.00" fill="#ffffff">copy:268:_reconstruct</text>
<text text-anchor="middle" x="1037.5" y="-581" font-family="Arial" font-size="10.00" fill="#ffffff">25.89%</text>
<text text-anchor="middle" x="1037.5" y="-570" font-family="Arial" font-size="10.00" fill="#ffffff">(2.19%)</text>
<text text-anchor="middle" x="1037.5" y="-559" font-family="Arial" font-size="10.00" fill="#ffffff">2127717×</text>
</a>
</g>
</g>
<!-- 701&#45;&gt;910 -->
<g id="edge2" class="edge">
<title>701&#45;&gt;910</title>
<path fill="none" stroke="#0c9590" stroke-width="1.04" d="M956.2411,-643.7974C966.6934,-633.8813 978.9301,-622.6624 990.5,-613 992.6962,-611.1659 994.9771,-609.3123 997.2976,-607.4657"/>
<polygon fill="#0c9590" stroke="#0c9590" stroke-width="1.04" points="998.6021,-608.7108 1001.5076,-604.1551 996.3953,-605.9045 998.6021,-608.7108"/>
<text text-anchor="middle" x="1007.5" y="-627" font-family="Arial" font-size="10.00" fill="#0c9590">25.89%</text>
<text text-anchor="middle" x="1007.5" y="-616" font-family="Arial" font-size="10.00" fill="#0c9590">2083×</text>
</g>
<!-- 997 -->
<g id="node4" class="node">
<title>997</title>
<g id="a_node4"><a xlink:title="/home/shakthi/Projects/CAPSTONE/venv/lib/python3.7/copy.py">
<polygon fill="#0c958f" stroke="#0c958f" points="972,-604 847,-604 847,-552 972,-552 972,-604"/>
<text text-anchor="middle" x="909.5" y="-592" font-family="Arial" font-size="10.00" fill="#ffffff">copy:210:_deepcopy_list</text>
<text text-anchor="middle" x="909.5" y="-581" font-family="Arial" font-size="10.00" fill="#ffffff">26.18%</text>
<text text-anchor="middle" x="909.5" y="-570" font-family="Arial" font-size="10.00" fill="#ffffff">(0.08%)</text>
<text text-anchor="middle" x="909.5" y="-559" font-family="Arial" font-size="10.00" fill="#ffffff">2088×</text>
</a>
</g>
</g>
<!-- 701&#45;&gt;997 -->
<g id="edge3" class="edge">
<title>701&#45;&gt;997</title>
<path fill="none" stroke="#0c958f" stroke-width="1.05" d="M924.0982,-643.8737C922.0661,-634.1705 919.7118,-623.0751 917.5,-613 917.2502,-611.8623 916.9943,-610.7042 916.7344,-609.5347"/>
<polygon fill="#0c958f" stroke="#0c958f" stroke-width="1.05" points="918.4327,-608.9494 915.5768,-604.3624 914.9489,-609.7291 918.4327,-608.9494"/>
<text text-anchor="middle" x="938.5" y="-627" font-family="Arial" font-size="10.00" fill="#0c958f">26.18%</text>
<text text-anchor="middle" x="938.5" y="-616" font-family="Arial" font-size="10.00" fill="#0c958f">2088×</text>
</g>
<!-- 831&#45;&gt;701 -->
<g id="edge4" class="edge">
<title>831&#45;&gt;701</title>
<path fill="none" stroke="#0c9590" stroke-width="1.04" d="M802.3185,-604.1792C805.4443,-607.1264 808.5567,-610.1087 811.5,-613 821.1429,-622.4726 820.702,-628.4027 832.5,-635 847.8605,-643.5895 855.2262,-638.7897 873.7647,-643.9538"/>
<polygon fill="#0c9590" stroke="#0c9590" stroke-width="1.04" points="873.3303,-645.6879 878.7303,-645.4956 874.389,-642.2785 873.3303,-645.6879"/>
<text text-anchor="middle" x="849.5" y="-627" font-family="Arial" font-size="10.00" fill="#0c9590">25.88%</text>
<text text-anchor="middle" x="849.5" y="-616" font-family="Arial" font-size="10.00" fill="#0c9590">29138×</text>
</g>
<!-- 910&#45;&gt;701 -->
<g id="edge6" class="edge">
<title>910&#45;&gt;701</title>
<path fill="none" stroke="#0c9590" stroke-width="1.04" d="M1035.838,-604.0281C1033.9397,-614.7309 1030.1091,-626.5671 1022.5,-635 1012.6189,-645.951 998.9643,-653.4912 985.159,-658.6773"/>
<polygon fill="#0c9590" stroke="#0c9590" stroke-width="1.04" points="984.2814,-657.0947 980.0728,-660.4834 985.4761,-660.4589 984.2814,-657.0947"/>
<text text-anchor="middle" x="1049.5" y="-627" font-family="Arial" font-size="10.00" fill="#0c9590">25.88%</text>
<text text-anchor="middle" x="1049.5" y="-616" font-family="Arial" font-size="10.00" fill="#0c9590">2083×</text>
</g>
<!-- 997&#45;&gt;701 -->
<g id="edge13" class="edge">
<title>997&#45;&gt;701</title>
<path fill="none" stroke="#0c958f" stroke-width="1.04" d="M877.5945,-604.2016C875.5784,-606.9728 873.8288,-609.9139 872.5,-613 868.6331,-621.9807 867.7262,-626.4668 872.5,-635 873.4638,-636.7228 874.551,-638.3712 875.7409,-639.9474"/>
<polygon fill="#0c958f" stroke="#0c958f" stroke-width="1.04" points="874.4648,-641.2032 879.1164,-643.9527 877.1947,-638.9026 874.4648,-641.2032"/>
<text text-anchor="middle" x="894" y="-627" font-family="Arial" font-size="10.00" fill="#0c958f">26.07%</text>
<text text-anchor="middle" x="894" y="-616" font-family="Arial" font-size="10.00" fill="#0c958f">1063434×</text>
</g>
<!-- 835 -->
<g id="node5" class="node">
<title>835</title>
<g id="a_node5"><a xlink:title="/home/shakthi/Projects/CAPSTONE/venv/lib/python3.7/site&#45;packages/numpy/core/fromnumeric.py">
<polygon fill="#0d4081" stroke="#0d4081" points="419.5,-144 267.5,-144 267.5,-92 419.5,-92 419.5,-144"/>
<text text-anchor="middle" x="343.5" y="-132" font-family="Arial" font-size="10.00" fill="#ffffff">fromnumeric:73:_wrapreduction</text>
<text text-anchor="middle" x="343.5" y="-121" font-family="Arial" font-size="10.00" fill="#ffffff">11.00%</text>
<text text-anchor="middle" x="343.5" y="-110" font-family="Arial" font-size="10.00" fill="#ffffff">(3.30%)</text>
<text text-anchor="middle" x="343.5" y="-99" font-family="Arial" font-size="10.00" fill="#ffffff">7302678×</text>
</a>
</g>
</g>
<!-- 6017 -->
<g id="node6" class="node">
<title>6017</title>
<g id="a_node6"><a xlink:title="~">
<polygon fill="#0d2c7c" stroke="#0d2c7c" points="454,-52 233,-52 233,0 454,0 454,-52"/>
<text text-anchor="middle" x="343.5" y="-40" font-family="Arial" font-size="10.00" fill="#ffffff">~:0:&lt;method &#39;reduce&#39; of &#39;numpy.ufunc&#39; objects&gt;</text>
<text text-anchor="middle" x="343.5" y="-29" font-family="Arial" font-size="10.00" fill="#ffffff">7.14%</text>
<text text-anchor="middle" x="343.5" y="-18" font-family="Arial" font-size="10.00" fill="#ffffff">(7.14%)</text>
<text text-anchor="middle" x="343.5" y="-7" font-family="Arial" font-size="10.00" fill="#ffffff">7845498×</text>
</a>
</g>
</g>
<!-- 835&#45;&gt;6017 -->
<g id="edge5" class="edge">
<title>835&#45;&gt;6017</title>
<path fill="none" stroke="#0d267a" stroke-width=".5" d="M343.5,-91.8826C343.5,-80.6171 343.5,-67.3815 343.5,-55.7404"/>
<polygon fill="#0d267a" stroke="#0d267a" stroke-width=".5" points="344.7251,-55.6827 343.5,-52.1827 342.2751,-55.6828 344.7251,-55.6827"/>
<text text-anchor="middle" x="365" y="-75" font-family="Arial" font-size="10.00" fill="#0d267a">5.79%</text>
<text text-anchor="middle" x="365" y="-64" font-family="Arial" font-size="10.00" fill="#0d267a">6749630×</text>
</g>
<!-- 970 -->
<g id="node7" class="node">
<title>970</title>
<g id="a_node7"><a xlink:title="/home/shakthi/Projects/CAPSTONE/lineage/BaumWelch.py">
<polygon fill="#0aab3b" stroke="#0aab3b" points="360.5,-604 266.5,-604 266.5,-552 360.5,-552 360.5,-604"/>
<text text-anchor="middle" x="313.5" y="-592" font-family="Arial" font-size="10.00" fill="#ffffff">BaumWelch:65:fit</text>
<text text-anchor="middle" x="313.5" y="-581" font-family="Arial" font-size="10.00" fill="#ffffff">42.42%</text>
<text text-anchor="middle" x="313.5" y="-570" font-family="Arial" font-size="10.00" fill="#ffffff">(0.94%)</text>
<text text-anchor="middle" x="313.5" y="-559" font-family="Arial" font-size="10.00" fill="#ffffff">245×</text>
</a>
</g>
</g>
<!-- 1150 -->
<g id="node8" class="node">
<title>1150</title>
<g id="a_node8"><a xlink:title="/home/shakthi/Projects/CAPSTONE/lineage/DownwardRecursion.py">
<polygon fill="#0c5386" stroke="#0c5386" points="660,-512 445,-512 445,-460 660,-460 660,-512"/>
<text text-anchor="middle" x="552.5" y="-500" font-family="Arial" font-size="10.00" fill="#ffffff">DownwardRecursion:22:get_nonroot_gammas</text>
<text text-anchor="middle" x="552.5" y="-489" font-family="Arial" font-size="10.00" fill="#ffffff">14.57%</text>
<text text-anchor="middle" x="552.5" y="-478" font-family="Arial" font-size="10.00" fill="#ffffff">(4.82%)</text>
<text text-anchor="middle" x="552.5" y="-467" font-family="Arial" font-size="10.00" fill="#ffffff">2349×</text>
</a>
</g>
</g>
<!-- 970&#45;&gt;1150 -->
<g id="edge7" class="edge">
<title>970&#45;&gt;1150</title>
<path fill="none" stroke="#0c5386" stroke-width=".58" d="M360.7187,-559.8238C394.9835,-546.634 441.9483,-528.5555 480.8253,-513.5902"/>
<polygon fill="#0c5386" stroke="#0c5386" stroke-width=".58" points="481.4932,-514.7584 484.5617,-512.152 480.5375,-512.2759 481.4932,-514.7584"/>
<text text-anchor="middle" x="478.5" y="-535" font-family="Arial" font-size="10.00" fill="#0c5386">14.57%</text>
<text text-anchor="middle" x="478.5" y="-524" font-family="Arial" font-size="10.00" fill="#0c5386">2349×</text>
</g>
<!-- 2793 -->
<g id="node9" class="node">
<title>2793</title>
<g id="a_node9"><a xlink:title="/home/shakthi/Projects/CAPSTONE/lineage/UpwardRecursion.py">
<polygon fill="#0d2c7c" stroke="#0d2c7c" points="233,-512 0,-512 0,-460 233,-460 233,-512"/>
<text text-anchor="middle" x="116.5" y="-500" font-family="Arial" font-size="10.00" fill="#ffffff">UpwardRecursion:106:get_nonleaf_NF_and_betas</text>
<text text-anchor="middle" x="116.5" y="-489" font-family="Arial" font-size="10.00" fill="#ffffff">7.06%</text>
<text text-anchor="middle" x="116.5" y="-478" font-family="Arial" font-size="10.00" fill="#ffffff">(1.45%)</text>
<text text-anchor="middle" x="116.5" y="-467" font-family="Arial" font-size="10.00" fill="#ffffff">2594×</text>
</a>
</g>
</g>
<!-- 970&#45;&gt;2793 -->
<g id="edge8" class="edge">
<title>970&#45;&gt;2793</title>
<path fill="none" stroke="#0d297b" stroke-width=".5" d="M266.3136,-555.9637C239.1866,-543.2953 204.8556,-527.2625 175.9039,-513.7419"/>
<polygon fill="#0d297b" stroke="#0d297b" stroke-width=".5" points="176.0903,-512.477 172.4007,-512.1059 175.0536,-514.6969 176.0903,-512.477"/>
<text text-anchor="middle" x="252.5" y="-535" font-family="Arial" font-size="10.00" fill="#0d297b">6.38%</text>
<text text-anchor="middle" x="252.5" y="-524" font-family="Arial" font-size="10.00" fill="#0d297b">2349×</text>
</g>
<!-- 4208 -->
<g id="node10" class="node">
<title>4208</title>
<g id="a_node10"><a xlink:title="/home/shakthi/Projects/CAPSTONE/lineage/BaumWelch.py">
<polygon fill="#0d2c7c" stroke="#0d2c7c" points="385,-512 242,-512 242,-460 385,-460 385,-512"/>
<text text-anchor="middle" x="313.5" y="-500" font-family="Arial" font-size="10.00" fill="#ffffff">BaumWelch:44:get_all_zetas</text>
<text text-anchor="middle" x="313.5" y="-489" font-family="Arial" font-size="10.00" fill="#ffffff">7.12%</text>
<text text-anchor="middle" x="313.5" y="-478" font-family="Arial" font-size="10.00" fill="#ffffff">(1.78%)</text>
<text text-anchor="middle" x="313.5" y="-467" font-family="Arial" font-size="10.00" fill="#ffffff">102840×</text>
</a>
</g>
</g>
<!-- 970&#45;&gt;4208 -->
<g id="edge9" class="edge">
<title>970&#45;&gt;4208</title>
<path fill="none" stroke="#0d2c7c" stroke-width=".5" d="M313.5,-551.8826C313.5,-540.6171 313.5,-527.3815 313.5,-515.7404"/>
<polygon fill="#0d2c7c" stroke="#0d2c7c" stroke-width=".5" points="314.7251,-515.6827 313.5,-512.1827 312.2751,-515.6828 314.7251,-515.6827"/>
<text text-anchor="middle" x="330" y="-535" font-family="Arial" font-size="10.00" fill="#0d2c7c">7.12%</text>
<text text-anchor="middle" x="330" y="-524" font-family="Arial" font-size="10.00" fill="#0d2c7c">51420×</text>
</g>
<!-- 6210 -->
<g id="node21" class="node">
<title>6210</title>
<g id="a_node21"><a xlink:title="&lt;__array_function__ internals&gt;">
<polygon fill="#0d2e7c" stroke="#0d2e7c" points="626.5,-420 454.5,-420 454.5,-368 626.5,-368 626.5,-420"/>
<text text-anchor="middle" x="540.5" y="-408" font-family="Arial" font-size="10.00" fill="#ffffff">&lt;__array_function__ internals&gt;:2:all</text>
<text text-anchor="middle" x="540.5" y="-397" font-family="Arial" font-size="10.00" fill="#ffffff">7.54%</text>
<text text-anchor="middle" x="540.5" y="-386" font-family="Arial" font-size="10.00" fill="#ffffff">(0.71%)</text>
<text text-anchor="middle" x="540.5" y="-375" font-family="Arial" font-size="10.00" fill="#ffffff">3587349×</text>
</a>
</g>
</g>
<!-- 1150&#45;&gt;6210 -->
<g id="edge18" class="edge">
<title>1150&#45;&gt;6210</title>
<path fill="none" stroke="#0d1977" stroke-width=".5" d="M549.0934,-459.8826C547.624,-448.6171 545.8976,-435.3815 544.3792,-423.7404"/>
<polygon fill="#0d1977" stroke="#0d1977" stroke-width=".5" points="545.5826,-423.4949 543.9151,-420.1827 543.1532,-423.8118 545.5826,-423.4949"/>
<text text-anchor="middle" x="570" y="-443" font-family="Arial" font-size="10.00" fill="#0d1977">3.01%</text>
<text text-anchor="middle" x="570" y="-432" font-family="Arial" font-size="10.00" fill="#0d1977">1604884×</text>
</g>
<!-- 6305 -->
<g id="node22" class="node">
<title>6305</title>
<g id="a_node22"><a xlink:title="&lt;__array_function__ internals&gt;">
<polygon fill="#0d277a" stroke="#0d277a" points="439,-420 258,-420 258,-368 439,-368 439,-420"/>
<text text-anchor="middle" x="348.5" y="-408" font-family="Arial" font-size="10.00" fill="#ffffff">&lt;__array_function__ internals&gt;:2:sum</text>
<text text-anchor="middle" x="348.5" y="-397" font-family="Arial" font-size="10.00" fill="#ffffff">6.03%</text>
<text text-anchor="middle" x="348.5" y="-386" font-family="Arial" font-size="10.00" fill="#ffffff">(0.51%)</text>
<text text-anchor="middle" x="348.5" y="-375" font-family="Arial" font-size="10.00" fill="#ffffff">2471383×</text>
</a>
</g>
</g>
<!-- 1150&#45;&gt;6305 -->
<g id="edge19" class="edge">
<title>1150&#45;&gt;6305</title>
<path fill="none" stroke="#0d1e78" stroke-width=".5" d="M494.5875,-459.8826C467.9868,-447.8862 436.4325,-433.6558 409.4689,-421.4958"/>
<polygon fill="#0d1e78" stroke="#0d1e78" stroke-width=".5" points="409.8982,-420.3456 406.204,-420.0234 408.891,-422.579 409.8982,-420.3456"/>
<text text-anchor="middle" x="497" y="-443" font-family="Arial" font-size="10.00" fill="#0d1e78">3.98%</text>
<text text-anchor="middle" x="497" y="-432" font-family="Arial" font-size="10.00" fill="#0d1e78">1662429×</text>
</g>
<!-- 2793&#45;&gt;6305 -->
<g id="edge23" class="edge">
<title>2793&#45;&gt;6305</title>
<path fill="none" stroke="#0d0e73" stroke-width=".5" d="M182.3613,-459.8826C212.736,-447.8374 248.7901,-433.5401 279.5366,-421.3476"/>
<polygon fill="#0d0e73" stroke="#0d0e73" stroke-width=".5" points="280.0739,-422.4524 282.8758,-420.0234 279.1707,-420.1749 280.0739,-422.4524"/>
<text text-anchor="middle" x="277" y="-443" font-family="Arial" font-size="10.00" fill="#0d0e73">0.19%</text>
<text text-anchor="middle" x="277" y="-432" font-family="Arial" font-size="10.00" fill="#0d0e73">63670×</text>
</g>
<!-- 4208&#45;&gt;4208 -->
<g id="edge24" class="edge">
<title>4208&#45;&gt;4208</title>
<path fill="none" stroke="#0d277a" stroke-width=".5" d="M385.1953,-492.4688C390.6458,-491.0313 394,-488.875 394,-486 394,-483.8438 392.1133,-482.0918 388.8705,-480.7441"/>
<polygon fill="#0d277a" stroke="#0d277a" stroke-width=".5" points="388.9029,-479.4649 385.1953,-479.5313 388.1351,-481.7915 388.9029,-479.4649"/>
<text text-anchor="middle" x="410.5" y="-489" font-family="Arial" font-size="10.00" fill="#0d277a">6.04%</text>
<text text-anchor="middle" x="410.5" y="-478" font-family="Arial" font-size="10.00" fill="#0d277a">51420×</text>
</g>
<!-- 971 -->
<g id="node11" class="node">
<title>971</title>
<g id="a_node11"><a xlink:title="/home/shakthi/Projects/CAPSTONE/lineage/Analyze.py">
<polygon fill="#0aaf29" stroke="#0aaf29" points="517.5,-880 371.5,-880 371.5,-828 517.5,-828 517.5,-880"/>
<text text-anchor="middle" x="444.5" y="-868" font-family="Arial" font-size="10.00" fill="#ffffff">Analyze:57:run_Analyze_over</text>
<text text-anchor="middle" x="444.5" y="-857" font-family="Arial" font-size="10.00" fill="#ffffff">45.37%</text>
<text text-anchor="middle" x="444.5" y="-846" font-family="Arial" font-size="10.00" fill="#ffffff">(0.00%)</text>
<text text-anchor="middle" x="444.5" y="-835" font-family="Arial" font-size="10.00" fill="#ffffff">1×</text>
</a>
</g>
</g>
<!-- 4300 -->
<g id="node12" class="node">
<title>4300</title>
<g id="a_node12"><a xlink:title="/home/shakthi/Projects/CAPSTONE/lineage/Analyze.py">
<polygon fill="#0aaf29" stroke="#0aaf29" points="464.5,-788 360.5,-788 360.5,-736 464.5,-736 464.5,-788"/>
<text text-anchor="middle" x="412.5" y="-776" font-family="Arial" font-size="10.00" fill="#ffffff">Analyze:44:Analyze</text>
<text text-anchor="middle" x="412.5" y="-765" font-family="Arial" font-size="10.00" fill="#ffffff">45.37%</text>
<text text-anchor="middle" x="412.5" y="-754" font-family="Arial" font-size="10.00" fill="#ffffff">(0.01%)</text>
<text text-anchor="middle" x="412.5" y="-743" font-family="Arial" font-size="10.00" fill="#ffffff">49×</text>
</a>
</g>
</g>
<!-- 971&#45;&gt;4300 -->
<g id="edge10" class="edge">
<title>971&#45;&gt;4300</title>
<path fill="none" stroke="#0aaf29" stroke-width="1.81" d="M435.4157,-827.8826C431.835,-817.5882 427.6822,-805.6488 423.9032,-794.7843"/>
<polygon fill="#0aaf29" stroke="#0aaf29" stroke-width="1.81" points="426.023,-793.7405 421.607,-788.1827 421.5933,-795.2813 426.023,-793.7405"/>
<text text-anchor="middle" x="449.5" y="-811" font-family="Arial" font-size="10.00" fill="#0aaf29">45.37%</text>
<text text-anchor="middle" x="449.5" y="-800" font-family="Arial" font-size="10.00" fill="#0aaf29">49×</text>
</g>
<!-- 4212 -->
<g id="node26" class="node">
<title>4212</title>
<g id="a_node26"><a xlink:title="/home/shakthi/Projects/CAPSTONE/lineage/Analyze.py">
<polygon fill="#0aaf29" stroke="#0aaf29" points="372,-696 255,-696 255,-644 372,-644 372,-696"/>
<text text-anchor="middle" x="313.5" y="-684" font-family="Arial" font-size="10.00" fill="#ffffff">Analyze:12:preAnalyze</text>
<text text-anchor="middle" x="313.5" y="-673" font-family="Arial" font-size="10.00" fill="#ffffff">45.36%</text>
<text text-anchor="middle" x="313.5" y="-662" font-family="Arial" font-size="10.00" fill="#ffffff">(0.00%)</text>
<text text-anchor="middle" x="313.5" y="-651" font-family="Arial" font-size="10.00" fill="#ffffff">245×</text>
</a>
</g>
</g>
<!-- 4300&#45;&gt;4212 -->
<g id="edge27" class="edge">
<title>4300&#45;&gt;4212</title>
<path fill="none" stroke="#0aaf29" stroke-width="1.81" d="M384.3954,-735.8826C372.6907,-725.0055 359.0098,-712.2919 346.8051,-700.9502"/>
<polygon fill="#0aaf29" stroke="#0aaf29" stroke-width="1.81" points="348.1792,-699.0259 341.6749,-696.1827 344.9865,-702.4615 348.1792,-699.0259"/>
<text text-anchor="middle" x="392.5" y="-719" font-family="Arial" font-size="10.00" fill="#0aaf29">45.36%</text>
<text text-anchor="middle" x="392.5" y="-708" font-family="Arial" font-size="10.00" fill="#0aaf29">245×</text>
</g>
<!-- 994 -->
<g id="node13" class="node">
<title>994</title>
<g id="a_node13"><a xlink:title="/home/shakthi/Projects/CAPSTONE/lineage/figures/figure4.py">
<polygon fill="#fc1300" stroke="#fc1300" points="603,-972 428,-972 428,-920 603,-920 603,-972"/>
<text text-anchor="middle" x="515.5" y="-960" font-family="Arial" font-size="10.00" fill="#ffffff">figure4:30:accuracy_increased_cells</text>
<text text-anchor="middle" x="515.5" y="-949" font-family="Arial" font-size="10.00" fill="#ffffff">98.14%</text>
<text text-anchor="middle" x="515.5" y="-938" font-family="Arial" font-size="10.00" fill="#ffffff">(0.01%)</text>
<text text-anchor="middle" x="515.5" y="-927" font-family="Arial" font-size="10.00" fill="#ffffff">1×</text>
</a>
</g>
</g>
<!-- 994&#45;&gt;971 -->
<g id="edge11" class="edge">
<title>994&#45;&gt;971</title>
<path fill="none" stroke="#0aaf29" stroke-width="1.81" d="M495.3442,-919.8826C487.0998,-909.1998 477.4883,-896.7454 468.8553,-885.559"/>
<polygon fill="#0aaf29" stroke="#0aaf29" stroke-width="1.81" points="470.6561,-884.0542 464.7062,-880.1827 466.9432,-886.9196 470.6561,-884.0542"/>
<text text-anchor="middle" x="505.5" y="-903" font-family="Arial" font-size="10.00" fill="#0aaf29">45.37%</text>
<text text-anchor="middle" x="505.5" y="-892" font-family="Arial" font-size="10.00" fill="#0aaf29">1×</text>
</g>
<!-- 1009 -->
<g id="node14" class="node">
<title>1009</title>
<g id="a_node14"><a xlink:title="/home/shakthi/Projects/CAPSTONE/lineage/LineageTree.py">
<polygon fill="#0ab50d" stroke="#0ab50d" points="672.5,-880 552.5,-880 552.5,-828 672.5,-828 672.5,-880"/>
<text text-anchor="middle" x="612.5" y="-868" font-family="Arial" font-size="10.00" fill="#ffffff">LineageTree:26:__init__</text>
<text text-anchor="middle" x="612.5" y="-857" font-family="Arial" font-size="10.00" fill="#ffffff">49.46%</text>
<text text-anchor="middle" x="612.5" y="-846" font-family="Arial" font-size="10.00" fill="#ffffff">(0.02%)</text>
<text text-anchor="middle" x="612.5" y="-835" font-family="Arial" font-size="10.00" fill="#ffffff">2081×</text>
</a>
</g>
</g>
<!-- 994&#45;&gt;1009 -->
<g id="edge12" class="edge">
<title>994&#45;&gt;1009</title>
<path fill="none" stroke="#0ab50d" stroke-width="1.98" d="M543.0368,-919.8826C554.4026,-909.1027 567.6704,-896.5188 579.5471,-885.2543"/>
<polygon fill="#0ab50d" stroke="#0ab50d" stroke-width="1.98" points="581.5014,-886.7775 584.8943,-880.1827 578.1294,-883.2222 581.5014,-886.7775"/>
<text text-anchor="middle" x="593.5" y="-903" font-family="Arial" font-size="10.00" fill="#0ab50d">49.46%</text>
<text text-anchor="middle" x="593.5" y="-892" font-family="Arial" font-size="10.00" fill="#0ab50d">2081×</text>
</g>
<!-- 1010 -->
<g id="node15" class="node">
<title>1010</title>
<g id="a_node15"><a xlink:title="/home/shakthi/Projects/CAPSTONE/lineage/LineageTree.py">
<polygon fill="#0d4d84" stroke="#0d4d84" points="706.5,-788 518.5,-788 518.5,-736 706.5,-736 706.5,-788"/>
<text text-anchor="middle" x="612.5" y="-776" font-family="Arial" font-size="10.00" fill="#ffffff">LineageTree:128:_generate_lineage_list</text>
<text text-anchor="middle" x="612.5" y="-765" font-family="Arial" font-size="10.00" fill="#ffffff">13.48%</text>
<text text-anchor="middle" x="612.5" y="-754" font-family="Arial" font-size="10.00" fill="#ffffff">(0.30%)</text>
<text text-anchor="middle" x="612.5" y="-743" font-family="Arial" font-size="10.00" fill="#ffffff">2081×</text>
</a>
</g>
</g>
<!-- 1009&#45;&gt;1010 -->
<g id="edge14" class="edge">
<title>1009&#45;&gt;1010</title>
<path fill="none" stroke="#0d4d84" stroke-width=".54" d="M612.5,-827.8826C612.5,-816.7142 612.5,-803.6095 612.5,-792.0418"/>
<polygon fill="#0d4d84" stroke="#0d4d84" stroke-width=".54" points="613.7951,-791.8827 612.5,-788.1827 611.2051,-791.8828 613.7951,-791.8827"/>
<text text-anchor="middle" x="629.5" y="-811" font-family="Arial" font-size="10.00" fill="#0d4d84">13.48%</text>
<text text-anchor="middle" x="629.5" y="-800" font-family="Arial" font-size="10.00" fill="#0d4d84">2081×</text>
</g>
<!-- 5686 -->
<g id="node16" class="node">
<title>5686</title>
<g id="a_node16"><a xlink:title="/home/shakthi/Projects/CAPSTONE/lineage/LineageTree.py">
<polygon fill="#0b9f6c" stroke="#0b9f6c" points="873,-788 716,-788 716,-736 873,-736 873,-788"/>
<text text-anchor="middle" x="794.5" y="-776" font-family="Arial" font-size="10.00" fill="#ffffff">LineageTree:161:_prune_lineage</text>
<text text-anchor="middle" x="794.5" y="-765" font-family="Arial" font-size="10.00" fill="#ffffff">33.61%</text>
<text text-anchor="middle" x="794.5" y="-754" font-family="Arial" font-size="10.00" fill="#ffffff">(0.56%)</text>
<text text-anchor="middle" x="794.5" y="-743" font-family="Arial" font-size="10.00" fill="#ffffff">2081×</text>
</a>
</g>
</g>
<!-- 1009&#45;&gt;5686 -->
<g id="edge15" class="edge">
<title>1009&#45;&gt;5686</title>
<path fill="none" stroke="#0b9f6c" stroke-width="1.34" d="M664.1671,-827.8826C687.1272,-816.2763 714.2241,-802.579 737.7466,-790.6885"/>
<polygon fill="#0b9f6c" stroke="#0b9f6c" stroke-width="1.34" points="738.7585,-792.4517 743.019,-788.0234 736.9269,-788.8283 738.7585,-792.4517"/>
<text text-anchor="middle" x="742.5" y="-811" font-family="Arial" font-size="10.00" fill="#0b9f6c">33.61%</text>
<text text-anchor="middle" x="742.5" y="-800" font-family="Arial" font-size="10.00" fill="#0b9f6c">2081×</text>
</g>
<!-- 6420 -->
<g id="node17" class="node">
<title>6420</title>
<g id="a_node17"><a xlink:title="/home/shakthi/Projects/CAPSTONE/lineage/CellVar.py">
<polygon fill="#0d4a84" stroke="#0d4a84" points="689,-696 594,-696 594,-644 689,-644 689,-696"/>
<text text-anchor="middle" x="641.5" y="-684" font-family="Arial" font-size="10.00" fill="#ffffff">CellVar:30:_divide</text>
<text text-anchor="middle" x="641.5" y="-673" font-family="Arial" font-size="10.00" fill="#ffffff">12.98%</text>
<text text-anchor="middle" x="641.5" y="-662" font-family="Arial" font-size="10.00" fill="#ffffff">(0.53%)</text>
<text text-anchor="middle" x="641.5" y="-651" font-family="Arial" font-size="10.00" fill="#ffffff">530655×</text>
</a>
</g>
</g>
<!-- 1010&#45;&gt;6420 -->
<g id="edge16" class="edge">
<title>1010&#45;&gt;6420</title>
<path fill="none" stroke="#0d4a84" stroke-width=".52" d="M620.7327,-735.8826C624.2837,-724.6171 628.4558,-711.3815 632.1253,-699.7404"/>
<polygon fill="#0d4a84" stroke="#0d4a84" stroke-width=".52" points="633.3661,-699.995 633.2467,-696.1827 630.9627,-699.2374 633.3661,-699.995"/>
<text text-anchor="middle" x="649.5" y="-719" font-family="Arial" font-size="10.00" fill="#0d4a84">12.98%</text>
<text text-anchor="middle" x="649.5" y="-708" font-family="Arial" font-size="10.00" fill="#0d4a84">530655×</text>
</g>
<!-- 5686&#45;&gt;701 -->
<g id="edge29" class="edge">
<title>5686&#45;&gt;701</title>
<path fill="none" stroke="#0c958f" stroke-width="1.05" d="M832.8245,-735.8826C849.6404,-724.4228 869.4477,-710.9245 886.7407,-699.1397"/>
<polygon fill="#0c958f" stroke="#0c958f" stroke-width="1.05" points="887.8705,-700.5299 891.0797,-696.1827 885.86,-697.5798 887.8705,-700.5299"/>
<text text-anchor="middle" x="894.5" y="-719" font-family="Arial" font-size="10.00" fill="#0c958f">26.19%</text>
<text text-anchor="middle" x="894.5" y="-708" font-family="Arial" font-size="10.00" fill="#0c958f">2081×</text>
</g>
<!-- 1017 -->
<g id="node18" class="node">
<title>1017</title>
<g id="a_node18"><a xlink:title="/home/shakthi/Projects/CAPSTONE/lineage/LineageTree.py">
<polygon fill="#0d277a" stroke="#0d277a" points="869.5,-696 699.5,-696 699.5,-644 869.5,-644 869.5,-696"/>
<text text-anchor="middle" x="784.5" y="-684" font-family="Arial" font-size="10.00" fill="#ffffff">LineageTree:401:find_two_subtrees</text>
<text text-anchor="middle" x="784.5" y="-673" font-family="Arial" font-size="10.00" fill="#ffffff">6.01%</text>
<text text-anchor="middle" x="784.5" y="-662" font-family="Arial" font-size="10.00" fill="#ffffff">(1.80%)</text>
<text text-anchor="middle" x="784.5" y="-651" font-family="Arial" font-size="10.00" fill="#ffffff">1051087×</text>
</a>
</g>
</g>
<!-- 5686&#45;&gt;1017 -->
<g id="edge30" class="edge">
<title>5686&#45;&gt;1017</title>
<path fill="none" stroke="#0d277a" stroke-width=".5" d="M791.6611,-735.8826C790.4366,-724.6171 788.998,-711.3815 787.7326,-699.7404"/>
<polygon fill="#0d277a" stroke="#0d277a" stroke-width=".5" points="788.9421,-699.5298 787.3459,-696.1827 786.5064,-699.7946 788.9421,-699.5298"/>
<text text-anchor="middle" x="813" y="-719" font-family="Arial" font-size="10.00" fill="#0d277a">6.01%</text>
<text text-anchor="middle" x="813" y="-708" font-family="Arial" font-size="10.00" fill="#0d277a">1051087×</text>
</g>
<!-- 1149 -->
<g id="node19" class="node">
<title>1149</title>
<g id="a_node19"><a xlink:title="/home/shakthi/Projects/CAPSTONE/lineage/CellVar.py">
<polygon fill="#0d4783" stroke="#0d4783" points="698.5,-604 594.5,-604 594.5,-552 698.5,-552 698.5,-604"/>
<text text-anchor="middle" x="646.5" y="-592" font-family="Arial" font-size="10.00" fill="#ffffff">CellVar:120:_double</text>
<text text-anchor="middle" x="646.5" y="-581" font-family="Arial" font-size="10.00" fill="#ffffff">12.29%</text>
<text text-anchor="middle" x="646.5" y="-570" font-family="Arial" font-size="10.00" fill="#ffffff">(1.12%)</text>
<text text-anchor="middle" x="646.5" y="-559" font-family="Arial" font-size="10.00" fill="#ffffff">530655×</text>
</a>
</g>
</g>
<!-- 6420&#45;&gt;1149 -->
<g id="edge39" class="edge">
<title>6420&#45;&gt;1149</title>
<path fill="none" stroke="#0d4783" stroke-width=".5" d="M642.9194,-643.8826C643.5317,-632.6171 644.251,-619.3815 644.8837,-607.7404"/>
<polygon fill="#0d4783" stroke="#0d4783" stroke-width=".5" points="646.1102,-607.7441 645.077,-604.1827 643.6638,-607.6111 646.1102,-607.7441"/>
<text text-anchor="middle" x="664.5" y="-627" font-family="Arial" font-size="10.00" fill="#0d4783">12.29%</text>
<text text-anchor="middle" x="664.5" y="-616" font-family="Arial" font-size="10.00" fill="#0d4783">530655×</text>
</g>
<!-- 5904 -->
<g id="node20" class="node">
<title>5904</title>
<g id="a_node20"><a xlink:title="/home/shakthi/Projects/CAPSTONE/venv/lib/python3.7/site&#45;packages/scipy/stats/_multivariate.py">
<polygon fill="#0d3e81" stroke="#0d3e81" points="787,-512 674,-512 674,-460 787,-460 787,-512"/>
<text text-anchor="middle" x="730.5" y="-500" font-family="Arial" font-size="10.00" fill="#ffffff">_multivariate:3198:rvs</text>
<text text-anchor="middle" x="730.5" y="-489" font-family="Arial" font-size="10.00" fill="#ffffff">10.71%</text>
<text text-anchor="middle" x="730.5" y="-478" font-family="Arial" font-size="10.00" fill="#ffffff">(0.22%)</text>
<text text-anchor="middle" x="730.5" y="-467" font-family="Arial" font-size="10.00" fill="#ffffff">532736×</text>
</a>
</g>
</g>
<!-- 1149&#45;&gt;5904 -->
<g id="edge17" class="edge">
<title>1149&#45;&gt;5904</title>
<path fill="none" stroke="#0d3e80" stroke-width=".5" d="M670.3463,-551.8826C680.8982,-540.3257 693.3432,-526.6956 704.1674,-514.8404"/>
<polygon fill="#0d3e80" stroke="#0d3e80" stroke-width=".5" points="705.1387,-515.5934 706.594,-512.1827 703.3294,-513.9415 705.1387,-515.5934"/>
<text text-anchor="middle" x="717.5" y="-535" font-family="Arial" font-size="10.00" fill="#0d3e80">10.64%</text>
<text text-anchor="middle" x="717.5" y="-524" font-family="Arial" font-size="10.00" fill="#0d3e80">530655×</text>
</g>
<!-- 6346 -->
<g id="node28" class="node">
<title>6346</title>
<g id="a_node28"><a xlink:title="/home/shakthi/Projects/CAPSTONE/venv/lib/python3.7/site&#45;packages/scipy/stats/_multivariate.py">
<polygon fill="#0d287b" stroke="#0d287b" points="829,-420 636,-420 636,-368 829,-368 829,-420"/>
<text text-anchor="middle" x="732.5" y="-408" font-family="Arial" font-size="10.00" fill="#ffffff">_multivariate:3004:_process_parameters</text>
<text text-anchor="middle" x="732.5" y="-397" font-family="Arial" font-size="10.00" fill="#ffffff">6.18%</text>
<text text-anchor="middle" x="732.5" y="-386" font-family="Arial" font-size="10.00" fill="#ffffff">(2.06%)</text>
<text text-anchor="middle" x="732.5" y="-375" font-family="Arial" font-size="10.00" fill="#ffffff">532736×</text>
</a>
</g>
</g>
<!-- 5904&#45;&gt;6346 -->
<g id="edge31" class="edge">
<title>5904&#45;&gt;6346</title>
<path fill="none" stroke="#0d287b" stroke-width=".5" d="M731.0678,-459.8826C731.3127,-448.6171 731.6004,-435.3815 731.8535,-423.7404"/>
<polygon fill="#0d287b" stroke="#0d287b" stroke-width=".5" points="733.0794,-423.7086 731.9308,-420.1827 730.6299,-423.6552 733.0794,-423.7086"/>
<text text-anchor="middle" x="751.5" y="-443" font-family="Arial" font-size="10.00" fill="#0d287b">6.18%</text>
<text text-anchor="middle" x="751.5" y="-432" font-family="Arial" font-size="10.00" fill="#0d287b">532736×</text>
</g>
<!-- 5955 -->
<g id="node29" class="node">
<title>5955</title>
<g id="a_node29"><a xlink:title="~">
<polygon fill="#0c808f" stroke="#0c808f" points="524.5,-328 162.5,-328 162.5,-276 524.5,-276 524.5,-328"/>
<text text-anchor="middle" x="343.5" y="-316" font-family="Arial" font-size="10.00" fill="#ffffff">~:0:&lt;built&#45;in method numpy.core._multiarray_umath.implement_array_function&gt;</text>
<text text-anchor="middle" x="343.5" y="-305" font-family="Arial" font-size="10.00" fill="#ffffff">22.04%</text>
<text text-anchor="middle" x="343.5" y="-294" font-family="Arial" font-size="10.00" fill="#ffffff">(2.27%)</text>
<text text-anchor="middle" x="343.5" y="-283" font-family="Arial" font-size="10.00" fill="#ffffff">10905562×</text>
</a>
</g>
</g>
<!-- 6210&#45;&gt;5955 -->
<g id="edge34" class="edge">
<title>6210&#45;&gt;5955</title>
<path fill="none" stroke="#0d2a7b" stroke-width=".5" d="M484.5747,-367.8826C458.9912,-355.935 428.6629,-341.7715 402.6946,-329.6442"/>
<polygon fill="#0d2a7b" stroke="#0d2a7b" stroke-width=".5" points="402.9136,-328.3945 399.224,-328.0234 401.8769,-330.6143 402.9136,-328.3945"/>
<text text-anchor="middle" x="487" y="-351" font-family="Arial" font-size="10.00" fill="#0d2a7b">6.65%</text>
<text text-anchor="middle" x="487" y="-340" font-family="Arial" font-size="10.00" fill="#0d2a7b">3587349×</text>
</g>
<!-- 6305&#45;&gt;5955 -->
<g id="edge38" class="edge">
<title>6305&#45;&gt;5955</title>
<path fill="none" stroke="#0d247a" stroke-width=".5" d="M347.0806,-367.8826C346.4683,-356.6171 345.749,-343.3815 345.1163,-331.7404"/>
<polygon fill="#0d247a" stroke="#0d247a" stroke-width=".5" points="346.3362,-331.6111 344.923,-328.1827 343.8898,-331.7441 346.3362,-331.6111"/>
<text text-anchor="middle" x="369" y="-351" font-family="Arial" font-size="10.00" fill="#0d247a">5.39%</text>
<text text-anchor="middle" x="369" y="-340" font-family="Arial" font-size="10.00" fill="#0d247a">2471383×</text>
</g>
<!-- 2007 -->
<g id="node23" class="node">
<title>2007</title>
<g id="a_node23"><a xlink:title="~">
<polygon fill="#fc1300" stroke="#fc1300" points="776.5,-972 612.5,-972 612.5,-920 776.5,-920 776.5,-972"/>
<text text-anchor="middle" x="694.5" y="-960" font-family="Arial" font-size="10.00" fill="#ffffff">~:0:&lt;built&#45;in method builtins.eval&gt;</text>
<text text-anchor="middle" x="694.5" y="-949" font-family="Arial" font-size="10.00" fill="#ffffff">98.20%</text>
<text text-anchor="middle" x="694.5" y="-938" font-family="Arial" font-size="10.00" fill="#ffffff">(0.00%)</text>
<text text-anchor="middle" x="694.5" y="-927" font-family="Arial" font-size="10.00" fill="#ffffff">34×</text>
</a>
</g>
</g>
<!-- 2008 -->
<g id="node24" class="node">
<title>2008</title>
<g id="a_node24"><a xlink:title="genFigures.py">
<polygon fill="#ff0000" stroke="#ff0000" points="887,-1064 768,-1064 768,-1012 887,-1012 887,-1064"/>
<text text-anchor="middle" x="827.5" y="-1052" font-family="Arial" font-size="10.00" fill="#ffffff">genFigures:3:&lt;module&gt;</text>
<text text-anchor="middle" x="827.5" y="-1041" font-family="Arial" font-size="10.00" fill="#ffffff">100.00%</text>
<text text-anchor="middle" x="827.5" y="-1030" font-family="Arial" font-size="10.00" fill="#ffffff">(0.00%)</text>
<text text-anchor="middle" x="827.5" y="-1019" font-family="Arial" font-size="10.00" fill="#ffffff">1×</text>
</a>
</g>
</g>
<!-- 2008&#45;&gt;2007 -->
<g id="edge20" class="edge">
<title>2008&#45;&gt;2007</title>
<path fill="none" stroke="#fc1300" stroke-width="3.93" d="M789.7433,-1011.8826C774.4401,-1001.2969 756.6222,-988.9717 740.5649,-977.8644"/>
<polygon fill="#fc1300" stroke="#fc1300" stroke-width="3.93" points="742.4643,-974.9651 732.3511,-972.1827 738.5218,-980.6644 742.4643,-974.9651"/>
<text text-anchor="middle" x="794.5" y="-995" font-family="Arial" font-size="10.00" fill="#fc1300">98.20%</text>
<text text-anchor="middle" x="794.5" y="-984" font-family="Arial" font-size="10.00" fill="#fc1300">1×</text>
</g>
<!-- 2009 -->
<g id="node25" class="node">
<title>2009</title>
<g id="a_node25"><a xlink:title="~">
<polygon fill="#ff0000" stroke="#ff0000" points="953,-972 786,-972 786,-920 953,-920 953,-972"/>
<text text-anchor="middle" x="869.5" y="-960" font-family="Arial" font-size="10.00" fill="#ffffff">~:0:&lt;built&#45;in method builtins.exec&gt;</text>
<text text-anchor="middle" x="869.5" y="-949" font-family="Arial" font-size="10.00" fill="#ffffff">100.00%</text>
<text text-anchor="middle" x="869.5" y="-938" font-family="Arial" font-size="10.00" fill="#ffffff">(0.01%)</text>
<text text-anchor="middle" x="869.5" y="-927" font-family="Arial" font-size="10.00" fill="#ffffff">1548×</text>
</a>
</g>
</g>
<!-- 2008&#45;&gt;2009 -->
<g id="edge21" class="edge">
<title>2008&#45;&gt;2009</title>
<path fill="none" stroke="#0d0e73" stroke-width=".5" d="M824.7162,-1011.9853C824.6759,-1001.8779 825.969,-990.4766 830.5,-981 831.4786,-978.9532 832.6367,-976.973 833.9299,-975.066"/>
<polygon fill="#0d0e73" stroke="#0d0e73" stroke-width=".5" points="834.9974,-975.6809 836.067,-972.1302 833.0167,-974.2389 834.9974,-975.6809"/>
<text text-anchor="middle" x="844.5" y="-995" font-family="Arial" font-size="10.00" fill="#0d0e73">0.29%</text>
<text text-anchor="middle" x="844.5" y="-984" font-family="Arial" font-size="10.00" fill="#0d0e73">1×</text>
</g>
<!-- 2009&#45;&gt;2008 -->
<g id="edge22" class="edge">
<title>2009&#45;&gt;2008</title>
<path fill="none" stroke="#ff0000" stroke-width="4" d="M866.1861,-972.1221C864.2468,-982.1347 861.213,-993.4413 856.5,-1003 856.4542,-1003.0929 856.4081,-1003.1858 856.3617,-1003.2786"/>
<polygon fill="#ff0000" stroke="#ff0000" stroke-width="4" points="853.4293,-1001.3617 851.3418,-1011.7488 859.4512,-1004.9306 853.4293,-1001.3617"/>
<text text-anchor="middle" x="883" y="-995" font-family="Arial" font-size="10.00" fill="#ff0000">100.00%</text>
<text text-anchor="middle" x="883" y="-984" font-family="Arial" font-size="10.00" fill="#ff0000">1×</text>
</g>
<!-- 4212&#45;&gt;970 -->
<g id="edge25" class="edge">
<title>4212&#45;&gt;970</title>
<path fill="none" stroke="#0aab3b" stroke-width="1.7" d="M313.5,-643.8826C313.5,-633.5882 313.5,-621.6488 313.5,-610.7843"/>
<polygon fill="#0aab3b" stroke="#0aab3b" stroke-width="1.7" points="315.7751,-610.6827 313.5,-604.1827 311.2251,-610.6828 315.7751,-610.6827"/>
<text text-anchor="middle" x="330.5" y="-627" font-family="Arial" font-size="10.00" fill="#0aab3b">42.42%</text>
<text text-anchor="middle" x="330.5" y="-616" font-family="Arial" font-size="10.00" fill="#0aab3b">245×</text>
</g>
<!-- 4212&#45;&gt;2793 -->
<g id="edge26" class="edge">
<title>4212&#45;&gt;2793</title>
<path fill="none" stroke="#0d1074" stroke-width=".5" d="M280.1784,-643.7481C265.5702,-631.9257 248.3957,-617.5937 233.5,-604 201.4258,-574.7294 166.6223,-539.0871 143.3866,-514.6841"/>
<polygon fill="#0d1074" stroke="#0d1074" stroke-width=".5" points="144.193,-513.7544 140.8935,-512.0622 142.4176,-515.4427 144.193,-513.7544"/>
<text text-anchor="middle" x="247.5" y="-581" font-family="Arial" font-size="10.00" fill="#0d1074">0.68%</text>
<text text-anchor="middle" x="247.5" y="-570" font-family="Arial" font-size="10.00" fill="#0d1074">245×</text>
</g>
<!-- 5514 -->
<g id="node27" class="node">
<title>5514</title>
<g id="a_node27"><a xlink:title="/home/shakthi/Projects/CAPSTONE/lineage/figures/figure4.py">
<polygon fill="#fc1300" stroke="#fc1300" points="572,-1064 459,-1064 459,-1012 572,-1012 572,-1064"/>
<text text-anchor="middle" x="515.5" y="-1052" font-family="Arial" font-size="10.00" fill="#ffffff">figure4:16:makeFigure</text>
<text text-anchor="middle" x="515.5" y="-1041" font-family="Arial" font-size="10.00" fill="#ffffff">98.20%</text>
<text text-anchor="middle" x="515.5" y="-1030" font-family="Arial" font-size="10.00" fill="#ffffff">(0.00%)</text>
<text text-anchor="middle" x="515.5" y="-1019" font-family="Arial" font-size="10.00" fill="#ffffff">1×</text>
</a>
</g>
</g>
<!-- 5514&#45;&gt;994 -->
<g id="edge28" class="edge">
<title>5514&#45;&gt;994</title>
<path fill="none" stroke="#fc1300" stroke-width="3.93" d="M515.5,-1011.8826C515.5,-1002.6565 515.5,-992.1091 515.5,-982.1983"/>
<polygon fill="#fc1300" stroke="#fc1300" stroke-width="3.93" points="518.9651,-982.0827 515.5,-972.1827 512.0351,-982.0828 518.9651,-982.0827"/>
<text text-anchor="middle" x="532.5" y="-995" font-family="Arial" font-size="10.00" fill="#fc1300">98.14%</text>
<text text-anchor="middle" x="532.5" y="-984" font-family="Arial" font-size="10.00" fill="#fc1300">1×</text>
</g>
<!-- 6212 -->
<g id="node30" class="node">
<title>6212</title>
<g id="a_node30"><a xlink:title="/home/shakthi/Projects/CAPSTONE/venv/lib/python3.7/site&#45;packages/numpy/core/numeric.py">
<polygon fill="#0d267a" stroke="#0d267a" points="564,-236 455,-236 455,-184 564,-184 564,-236"/>
<text text-anchor="middle" x="509.5" y="-224" font-family="Arial" font-size="10.00" fill="#ffffff">numeric:2167:isclose</text>
<text text-anchor="middle" x="509.5" y="-213" font-family="Arial" font-size="10.00" fill="#ffffff">5.69%</text>
<text text-anchor="middle" x="509.5" y="-202" font-family="Arial" font-size="10.00" fill="#ffffff">(0.75%)</text>
<text text-anchor="middle" x="509.5" y="-191" font-family="Arial" font-size="10.00" fill="#ffffff">359664×</text>
</a>
</g>
</g>
<!-- 5955&#45;&gt;6212 -->
<g id="edge32" class="edge">
<title>5955&#45;&gt;6212</title>
<path fill="none" stroke="#0d267a" stroke-width=".5" d="M390.6249,-275.8826C412.0945,-263.9837 437.5298,-249.8871 459.3522,-237.7928"/>
<polygon fill="#0d267a" stroke="#0d267a" stroke-width=".5" points="460.0773,-238.7915 462.5448,-236.0234 458.8896,-236.6486 460.0773,-238.7915"/>
<text text-anchor="middle" x="465.5" y="-259" font-family="Arial" font-size="10.00" fill="#0d267a">5.69%</text>
<text text-anchor="middle" x="465.5" y="-248" font-family="Arial" font-size="10.00" fill="#0d267a">359664×</text>
</g>
<!-- 6282 -->
<g id="node31" class="node">
<title>6282</title>
<g id="a_node31"><a xlink:title="/home/shakthi/Projects/CAPSTONE/venv/lib/python3.7/site&#45;packages/numpy/core/fromnumeric.py">
<polygon fill="#0d277a" stroke="#0d277a" points="397,-236 290,-236 290,-184 397,-184 397,-236"/>
<text text-anchor="middle" x="343.5" y="-224" font-family="Arial" font-size="10.00" fill="#ffffff">fromnumeric:2324:all</text>
<text text-anchor="middle" x="343.5" y="-213" font-family="Arial" font-size="10.00" fill="#ffffff">5.99%</text>
<text text-anchor="middle" x="343.5" y="-202" font-family="Arial" font-size="10.00" fill="#ffffff">(0.87%)</text>
<text text-anchor="middle" x="343.5" y="-191" font-family="Arial" font-size="10.00" fill="#ffffff">3587349×</text>
</a>
</g>
</g>
<!-- 5955&#45;&gt;6282 -->
<g id="edge33" class="edge">
<title>5955&#45;&gt;6282</title>
<path fill="none" stroke="#0d277a" stroke-width=".5" d="M343.5,-275.8826C343.5,-264.6171 343.5,-251.3815 343.5,-239.7404"/>
<polygon fill="#0d277a" stroke="#0d277a" stroke-width=".5" points="344.7251,-239.6827 343.5,-236.1827 342.2751,-239.6828 344.7251,-239.6827"/>
<text text-anchor="middle" x="365" y="-259" font-family="Arial" font-size="10.00" fill="#0d277a">5.99%</text>
<text text-anchor="middle" x="365" y="-248" font-family="Arial" font-size="10.00" fill="#0d277a">3587349×</text>
</g>
<!-- 6212&#45;&gt;6210 -->
<g id="edge35" class="edge">
<title>6212&#45;&gt;6210</title>
<path fill="none" stroke="#0d1575" stroke-width=".5" d="M518.1727,-236.0734C521.8721,-248.106 525.9219,-262.6537 528.5,-276 534.2092,-305.5546 537.311,-339.8318 538.9216,-363.8017"/>
<polygon fill="#0d1575" stroke="#0d1575" stroke-width=".5" points="537.7164,-364.1455 539.1675,-367.5579 540.1612,-363.9854 537.7164,-364.1455"/>
<text text-anchor="middle" x="555.5" y="-305" font-family="Arial" font-size="10.00" fill="#0d1575">1.97%</text>
<text text-anchor="middle" x="555.5" y="-294" font-family="Arial" font-size="10.00" fill="#0d1575">719328×</text>
</g>
<!-- 6282&#45;&gt;835 -->
<g id="edge37" class="edge">
<title>6282&#45;&gt;835</title>
<path fill="none" stroke="#0d2379" stroke-width=".5" d="M343.5,-183.8826C343.5,-172.6171 343.5,-159.3815 343.5,-147.7404"/>
<polygon fill="#0d2379" stroke="#0d2379" stroke-width=".5" points="344.7251,-147.6827 343.5,-144.1827 342.2751,-147.6828 344.7251,-147.6827"/>
<text text-anchor="middle" x="365" y="-167" font-family="Arial" font-size="10.00" fill="#0d2379">5.12%</text>
<text text-anchor="middle" x="365" y="-156" font-family="Arial" font-size="10.00" fill="#0d2379">3587349×</text>
</g>
<!-- 6244 -->
<g id="node32" class="node">
<title>6244</title>
<g id="a_node32"><a xlink:title="&lt;__array_function__ internals&gt;">
<polygon fill="#0d277a" stroke="#0d277a" points="249,-420 56,-420 56,-368 249,-368 249,-420"/>
<text text-anchor="middle" x="152.5" y="-408" font-family="Arial" font-size="10.00" fill="#ffffff">&lt;__array_function__ internals&gt;:2:isclose</text>
<text text-anchor="middle" x="152.5" y="-397" font-family="Arial" font-size="10.00" fill="#ffffff">5.95%</text>
<text text-anchor="middle" x="152.5" y="-386" font-family="Arial" font-size="10.00" fill="#ffffff">(0.08%)</text>
<text text-anchor="middle" x="152.5" y="-375" font-family="Arial" font-size="10.00" fill="#ffffff">359664×</text>
</a>
</g>
</g>
<!-- 6244&#45;&gt;5955 -->
<g id="edge36" class="edge">
<title>6244&#45;&gt;5955</title>
<path fill="none" stroke="#0d267a" stroke-width=".5" d="M206.722,-367.8826C231.5263,-355.935 260.9309,-341.7715 286.1083,-329.6442"/>
<polygon fill="#0d267a" stroke="#0d267a" stroke-width=".5" points="286.8515,-330.6459 289.4732,-328.0234 285.7883,-328.4386 286.8515,-330.6459"/>
<text text-anchor="middle" x="290.5" y="-351" font-family="Arial" font-size="10.00" fill="#0d267a">5.85%</text>
<text text-anchor="middle" x="290.5" y="-340" font-family="Arial" font-size="10.00" fill="#0d267a">359664×</text>
</g>
</g>
</svg>
