<?xml version="1.0" encoding="utf-8" standalone="no"?>
<!DOCTYPE svg PUBLIC "-//W3C//DTD SVG 1.1//EN"
  "http://www.w3.org/Graphics/SVG/1.1/DTD/svg11.dtd">
<svg xmlns:xlink="http://www.w3.org/1999/xlink" width="698.18pt" height="194.214844pt" viewBox="0 0 698.18 194.214844" xmlns="http://www.w3.org/2000/svg" version="1.1">
 <metadata>
  <rdf:RDF xmlns:dc="http://purl.org/dc/elements/1.1/" xmlns:cc="http://creativecommons.org/ns#" xmlns:rdf="http://www.w3.org/1999/02/22-rdf-syntax-ns#">
   <cc:Work>
    <dc:type rdf:resource="http://purl.org/dc/dcmitype/StillImage"/>
    <dc:date>2023-06-20T12:00:08.242598</dc:date>
    <dc:format>image/svg+xml</dc:format>
    <dc:creator>
     <cc:Agent>
      <dc:title>Matplotlib v3.7.1, https://matplotlib.org/</dc:title>
     </cc:Agent>
    </dc:creator>
   </cc:Work>
  </rdf:RDF>
 </metadata>
 <defs>
  <style type="text/css">*{stroke-linejoin: round; stroke-linecap: butt}</style>
 </defs>
 <g id="figure_1">
  <g id="patch_1">
   <path d="M 0 194.214844 
L 698.18 194.214844 
L 698.18 0 
L 0 0 
z
" style="fill: #ffffff"/>
  </g>
  <g id="axes_1">
   <g id="patch_2">
    <path d="M 45.9425 162.645 
L 166.296875 162.645 
L 166.296875 14.625 
L 45.9425 14.625 
z
" style="fill: #ffffff"/>
   </g>
   <g id="matplotlib.axis_1">
    <g id="xtick_1">
     <g id="line2d_1">
      <path d="M 45.9425 162.645 
L 45.9425 14.625 
" clip-path="url(#p16deaf3958)" style="fill: none; stroke: #000000; stroke-opacity: 0.25; stroke-linecap: round"/>
     </g>
     <g id="line2d_2">
      <defs>
       <path id="mca3262f91c" d="M 0 3 
L 0 -3 
" style="stroke: #262626; stroke-width: 0.25"/>
      </defs>
      <g>
       <use xlink:href="#mca3262f91c" x="45.9425" y="162.645" style="fill: #262626; stroke: #262626; stroke-width: 0.25"/>
      </g>
     </g>
     <g id="text_1">
      <text style="fill: #262626; font: 11px 'Arial', 'DejaVu Sans', 'Liberation Sans', 'Bitstream Vera Sans', sans-serif; text-anchor: middle" x="45.9425" y="177.018594" transform="rotate(-0 45.9425 177.018594)">0</text>
     </g>
    </g>
    <g id="xtick_2">
     <g id="line2d_3">
      <path d="M 77.448881 162.645 
L 77.448881 14.625 
" clip-path="url(#p16deaf3958)" style="fill: none; stroke: #000000; stroke-opacity: 0.25; stroke-linecap: round"/>
     </g>
     <g id="line2d_4">
      <g>
       <use xlink:href="#mca3262f91c" x="77.448881" y="162.645" style="fill: #262626; stroke: #262626; stroke-width: 0.25"/>
      </g>
     </g>
     <g id="text_2">
      <text style="fill: #262626; font: 11px 'Arial', 'DejaVu Sans', 'Liberation Sans', 'Bitstream Vera Sans', sans-serif; text-anchor: middle" x="77.448881" y="177.018594" transform="rotate(-0 77.448881 177.018594)">50</text>
     </g>
    </g>
    <g id="xtick_3">
     <g id="line2d_5">
      <path d="M 108.955262 162.645 
L 108.955262 14.625 
" clip-path="url(#p16deaf3958)" style="fill: none; stroke: #000000; stroke-opacity: 0.25; stroke-linecap: round"/>
     </g>
     <g id="line2d_6">
      <g>
       <use xlink:href="#mca3262f91c" x="108.955262" y="162.645" style="fill: #262626; stroke: #262626; stroke-width: 0.25"/>
      </g>
     </g>
     <g id="text_3">
      <text style="fill: #262626; font: 11px 'Arial', 'DejaVu Sans', 'Liberation Sans', 'Bitstream Vera Sans', sans-serif; text-anchor: middle" x="108.955262" y="177.018594" transform="rotate(-0 108.955262 177.018594)">100</text>
     </g>
    </g>
    <g id="xtick_4">
     <g id="line2d_7">
      <path d="M 140.461643 162.645 
L 140.461643 14.625 
" clip-path="url(#p16deaf3958)" style="fill: none; stroke: #000000; stroke-opacity: 0.25; stroke-linecap: round"/>
     </g>
     <g id="line2d_8">
      <g>
       <use xlink:href="#mca3262f91c" x="140.461643" y="162.645" style="fill: #262626; stroke: #262626; stroke-width: 0.25"/>
      </g>
     </g>
     <g id="text_4">
      <text style="fill: #262626; font: 11px 'Arial', 'DejaVu Sans', 'Liberation Sans', 'Bitstream Vera Sans', sans-serif; text-anchor: middle" x="140.461643" y="177.018594" transform="rotate(-0 140.461643 177.018594)">150</text>
     </g>
    </g>
    <g id="text_5">
     <text style="fill: #262626; font: 12px 'Arial', 'DejaVu Sans', 'Liberation Sans', 'Bitstream Vera Sans', sans-serif; text-anchor: middle" x="106.119687" y="191.829844" transform="rotate(-0 106.119687 191.829844)">Time [0.5hr]</text>
    </g>
   </g>
   <g id="matplotlib.axis_2">
    <g id="ytick_1">
     <g id="line2d_9">
      <path d="M 45.9425 162.645 
L 166.296875 162.645 
" clip-path="url(#p16deaf3958)" style="fill: none; stroke: #000000; stroke-opacity: 0.25; stroke-linecap: round"/>
     </g>
     <g id="line2d_10">
      <defs>
       <path id="m109fb86af9" d="M 3 0 
L -3 -0 
" style="stroke: #262626; stroke-width: 0.25"/>
      </defs>
      <g>
       <use xlink:href="#m109fb86af9" x="45.9425" y="162.645" style="fill: #262626; stroke: #262626; stroke-width: 0.25"/>
      </g>
     </g>
     <g id="text_6">
      <text style="fill: #262626; font: 11px 'Arial', 'DejaVu Sans', 'Liberation Sans', 'Bitstream Vera Sans', sans-serif; text-anchor: end" x="39.4425" y="166.581797" transform="rotate(-0 39.4425 166.581797)">0</text>
     </g>
    </g>
    <g id="ytick_2">
     <g id="line2d_11">
      <path d="M 45.9425 136.474562 
L 166.296875 136.474562 
" clip-path="url(#p16deaf3958)" style="fill: none; stroke: #000000; stroke-opacity: 0.25; stroke-linecap: round"/>
     </g>
     <g id="line2d_12">
      <g>
       <use xlink:href="#m109fb86af9" x="45.9425" y="136.474562" style="fill: #262626; stroke: #262626; stroke-width: 0.25"/>
      </g>
     </g>
     <g id="text_7">
      <text style="fill: #262626; font: 11px 'Arial', 'DejaVu Sans', 'Liberation Sans', 'Bitstream Vera Sans', sans-serif; text-anchor: end" x="39.4425" y="140.411358" transform="rotate(-0 39.4425 140.411358)">250</text>
     </g>
    </g>
    <g id="ytick_3">
     <g id="line2d_13">
      <path d="M 45.9425 110.304123 
L 166.296875 110.304123 
" clip-path="url(#p16deaf3958)" style="fill: none; stroke: #000000; stroke-opacity: 0.25; stroke-linecap: round"/>
     </g>
     <g id="line2d_14">
      <g>
       <use xlink:href="#m109fb86af9" x="45.9425" y="110.304123" style="fill: #262626; stroke: #262626; stroke-width: 0.25"/>
      </g>
     </g>
     <g id="text_8">
      <text style="fill: #262626; font: 11px 'Arial', 'DejaVu Sans', 'Liberation Sans', 'Bitstream Vera Sans', sans-serif; text-anchor: end" x="39.4425" y="114.24092" transform="rotate(-0 39.4425 114.24092)">500</text>
     </g>
    </g>
    <g id="ytick_4">
     <g id="line2d_15">
      <path d="M 45.9425 84.133685 
L 166.296875 84.133685 
" clip-path="url(#p16deaf3958)" style="fill: none; stroke: #000000; stroke-opacity: 0.25; stroke-linecap: round"/>
     </g>
     <g id="line2d_16">
      <g>
       <use xlink:href="#m109fb86af9" x="45.9425" y="84.133685" style="fill: #262626; stroke: #262626; stroke-width: 0.25"/>
      </g>
     </g>
     <g id="text_9">
      <text style="fill: #262626; font: 11px 'Arial', 'DejaVu Sans', 'Liberation Sans', 'Bitstream Vera Sans', sans-serif; text-anchor: end" x="39.4425" y="88.070481" transform="rotate(-0 39.4425 88.070481)">750</text>
     </g>
    </g>
    <g id="ytick_5">
     <g id="line2d_17">
      <path d="M 45.9425 57.963246 
L 166.296875 57.963246 
" clip-path="url(#p16deaf3958)" style="fill: none; stroke: #000000; stroke-opacity: 0.25; stroke-linecap: round"/>
     </g>
     <g id="line2d_18">
      <g>
       <use xlink:href="#m109fb86af9" x="45.9425" y="57.963246" style="fill: #262626; stroke: #262626; stroke-width: 0.25"/>
      </g>
     </g>
     <g id="text_10">
      <text style="fill: #262626; font: 11px 'Arial', 'DejaVu Sans', 'Liberation Sans', 'Bitstream Vera Sans', sans-serif; text-anchor: end" x="39.4425" y="61.900043" transform="rotate(-0 39.4425 61.900043)">1000</text>
     </g>
    </g>
    <g id="ytick_6">
     <g id="line2d_19">
      <path d="M 45.9425 31.792808 
L 166.296875 31.792808 
" clip-path="url(#p16deaf3958)" style="fill: none; stroke: #000000; stroke-opacity: 0.25; stroke-linecap: round"/>
     </g>
     <g id="line2d_20">
      <g>
       <use xlink:href="#m109fb86af9" x="45.9425" y="31.792808" style="fill: #262626; stroke: #262626; stroke-width: 0.25"/>
      </g>
     </g>
     <g id="text_11">
      <text style="fill: #262626; font: 11px 'Arial', 'DejaVu Sans', 'Liberation Sans', 'Bitstream Vera Sans', sans-serif; text-anchor: end" x="39.4425" y="35.729605" transform="rotate(-0 39.4425 35.729605)">1250</text>
     </g>
    </g>
    <g id="text_12">
     <text style="fill: #262626; font: 12px 'Arial', 'DejaVu Sans', 'Liberation Sans', 'Bitstream Vera Sans', sans-serif; text-anchor: middle" x="8.589375" y="88.635" transform="rotate(-90 8.589375 88.635)">Cell counts</text>
    </g>
   </g>
   <g id="line2d_21">
    <path d="M 45.9425 162.645 
L 46.572628 127.681294 
L 47.202755 128.100021 
L 47.832883 127.890658 
L 48.46301 128.100021 
L 49.093138 128.937475 
L 49.723266 129.356202 
L 50.353393 131.240474 
L 50.983521 129.774929 
L 51.613649 129.146839 
L 52.243776 128.100021 
L 52.873904 128.518748 
L 53.504031 129.774929 
L 54.134159 130.40302 
L 54.764287 129.984293 
L 55.394414 130.193656 
L 56.024542 130.821747 
L 56.65467 129.565566 
L 57.284797 130.193656 
L 57.914925 130.193656 
L 58.545052 129.774929 
L 59.17518 128.937475 
L 59.805308 127.681294 
L 60.435435 127.471931 
L 61.065563 126.634477 
L 62.955946 124.750205 
L 63.586073 123.912751 
L 64.216201 124.331478 
L 64.846329 124.122115 
L 65.476456 123.284661 
L 66.106584 122.865934 
L 66.736711 121.609752 
L 67.366839 121.609752 
L 67.996967 121.819116 
L 68.627094 120.562935 
L 69.257222 120.562935 
L 69.887349 119.516117 
L 70.517477 119.516117 
L 71.147605 119.306754 
L 71.777732 118.678663 
L 73.037988 116.585028 
L 73.668115 116.585028 
L 74.92837 117.841209 
L 75.558498 117.003755 
L 76.188626 117.422482 
L 77.448881 117.841209 
L 78.079009 116.166301 
L 78.709136 115.328847 
L 79.339264 116.585028 
L 79.969391 115.119484 
L 80.599519 115.538211 
L 81.229647 114.91012 
L 81.859774 114.072666 
L 82.489902 113.444576 
L 83.120029 114.700757 
L 83.750157 113.444576 
L 85.010412 111.769668 
L 86.270668 109.885396 
L 86.900795 109.676033 
L 87.530923 107.582397 
L 88.16105 106.744943 
L 88.791178 107.791761 
L 89.421306 107.16367 
L 90.051433 107.582397 
L 90.681561 108.419851 
L 91.311688 108.210488 
L 92.571944 110.513487 
L 93.202071 110.72285 
L 93.832199 109.047942 
L 94.462327 107.791761 
L 95.092454 108.001124 
L 95.722582 107.582397 
L 96.352709 105.070035 
L 96.982837 103.813854 
L 97.612965 103.395127 
L 98.243092 103.395127 
L 98.87322 103.813854 
L 99.503348 105.070035 
L 100.133475 104.651308 
L 100.763603 103.813854 
L 101.39373 102.557673 
L 102.023858 102.34831 
L 102.653986 101.929583 
L 103.284113 100.673402 
L 103.914241 98.579767 
L 104.544368 99.417221 
L 105.174496 98.998494 
L 105.804624 98.16104 
L 106.434751 96.695495 
L 107.064879 98.78913 
L 108.325134 98.78913 
L 108.955262 100.045311 
L 109.585389 100.882765 
L 110.215517 103.813854 
L 113.366155 105.907489 
L 113.996283 105.907489 
L 114.62641 105.070035 
L 115.256538 105.907489 
L 117.146921 97.114222 
L 117.777048 96.695495 
L 118.407176 97.114222 
L 119.037304 96.276768 
L 119.667431 95.858041 
L 120.927687 93.136315 
L 121.557814 92.298861 
L 122.187942 90.205226 
L 122.818069 88.949045 
L 123.448197 88.530318 
L 124.078325 86.85541 
L 124.708452 83.924321 
L 125.33858 83.505594 
L 126.598835 89.995863 
L 127.228963 88.320955 
L 127.85909 85.389866 
L 128.489218 81.202595 
L 129.119346 80.783868 
L 129.749473 77.434052 
L 130.379601 79.946414 
L 131.009728 79.527687 
L 132.269984 74.502963 
L 132.900111 76.596598 
L 133.530239 73.665509 
L 134.160366 74.084236 
L 134.790494 76.596598 
L 135.420622 79.946414 
L 136.050749 80.783868 
L 136.680877 82.877504 
L 137.941132 81.202595 
L 138.57126 82.04005 
L 139.201387 81.202595 
L 139.831515 78.271506 
L 140.461643 76.596598 
L 141.09177 77.852779 
L 141.721898 80.783868 
L 142.352026 79.527687 
L 142.982153 80.365141 
L 143.612281 80.365141 
L 144.242408 79.527687 
L 144.872536 78.271506 
L 145.502664 78.271506 
L 146.132791 75.759144 
L 146.762919 70.73442 
L 147.393046 70.73442 
L 148.023174 66.54715 
L 148.653302 67.384604 
L 149.283429 65.290969 
L 149.913557 62.778607 
L 150.543685 65.290969 
L 151.80394 54.404066 
L 152.434067 54.404066 
L 153.064195 56.078975 
L 153.694323 51.891704 
L 154.32445 51.472977 
L 155.584705 42.67971 
L 156.214833 40.167348 
L 156.844961 35.980078 
L 157.475088 32.630262 
L 158.105216 31.792808 
L 158.735344 26.768083 
L 159.365471 25.930629 
L 159.995599 26.768083 
L 160.625726 23.836994 
L 161.885982 22.162086 
L 162.516109 19.230997 
L 163.146237 20.068451 
L 163.776365 19.649724 
L 164.406492 14.625 
L 165.666747 14.625 
L 166.296875 17.137362 
L 166.296875 17.137362 
" clip-path="url(#p16deaf3958)" style="fill: none; stroke: #4c72b0; stroke-width: 1.5; stroke-linecap: round"/>
   </g>
   <g id="line2d_22">
    <path d="M 45.9425 162.645 
L 46.572628 140.033741 
L 47.202755 140.452468 
L 47.832883 140.243105 
L 48.46301 139.615014 
L 49.093138 139.196287 
L 49.723266 138.358833 
L 50.353393 138.358833 
L 50.983521 137.312016 
L 51.613649 137.940106 
L 52.243776 137.102652 
L 52.873904 136.683925 
L 53.504031 135.846471 
L 54.134159 134.59029 
L 55.394414 133.752836 
L 56.024542 133.962199 
L 56.65467 133.334109 
L 57.284797 133.334109 
L 57.914925 133.124745 
L 58.545052 133.124745 
L 59.17518 133.334109 
L 59.805308 133.334109 
L 60.435435 134.380926 
L 61.065563 133.543472 
L 61.69569 132.915382 
L 62.325818 133.334109 
L 62.955946 133.334109 
L 63.586073 132.077928 
L 64.846329 132.496655 
L 65.476456 132.077928 
L 66.106584 132.077928 
L 66.736711 131.449837 
L 67.366839 131.240474 
L 67.996967 132.077928 
L 68.627094 131.659201 
L 69.257222 131.03111 
L 69.887349 131.03111 
L 70.517477 131.240474 
L 71.147605 131.03111 
L 71.777732 131.449837 
L 72.40786 131.449837 
L 73.037988 131.659201 
L 73.668115 132.077928 
L 74.298243 131.03111 
L 75.558498 127.890658 
L 76.188626 128.518748 
L 76.818753 128.100021 
L 77.448881 127.471931 
L 78.079009 127.053204 
L 79.339264 127.890658 
L 79.969391 126.84384 
L 80.599519 127.471931 
L 81.229647 125.587659 
L 81.859774 125.587659 
L 82.489902 125.378296 
L 83.750157 124.122115 
L 84.380285 124.750205 
L 85.010412 124.540842 
L 85.64054 123.912751 
L 86.270668 123.494024 
L 86.900795 124.540842 
L 87.530923 124.331478 
L 88.16105 123.912751 
L 88.791178 123.912751 
L 90.051433 121.609752 
L 90.681561 120.562935 
L 91.311688 120.144208 
L 92.571944 118.888027 
L 93.202071 117.841209 
L 93.832199 117.213119 
L 94.462327 117.422482 
L 95.092454 116.585028 
L 96.352709 118.678663 
L 96.982837 117.213119 
L 97.612965 116.166301 
L 98.243092 115.538211 
L 98.87322 114.700757 
L 99.503348 114.91012 
L 100.133475 113.863303 
L 100.763603 114.28203 
L 101.39373 113.863303 
L 102.023858 113.025849 
L 102.653986 112.816485 
L 103.284113 113.653939 
L 103.914241 113.235212 
L 104.544368 113.235212 
L 105.174496 112.188395 
L 105.804624 112.607122 
L 106.434751 111.350941 
L 107.064879 112.397758 
L 107.695007 110.513487 
L 108.325134 109.885396 
L 108.955262 109.047942 
L 109.585389 106.954307 
L 110.215517 106.116853 
L 110.845645 103.813854 
L 111.475772 102.557673 
L 112.1059 101.929583 
L 112.736027 99.835948 
L 113.366155 98.16104 
L 113.996283 98.998494 
L 114.62641 98.16104 
L 115.256538 98.16104 
L 115.886666 97.742313 
L 116.516793 98.998494 
L 117.146921 99.626584 
L 117.777048 100.045311 
L 118.407176 97.532949 
L 119.037304 96.486132 
L 119.667431 96.904859 
L 120.297559 96.067405 
L 120.927687 96.067405 
L 121.557814 96.695495 
L 122.187942 96.904859 
L 122.818069 98.579767 
L 123.448197 98.370403 
L 124.078325 97.323586 
L 125.33858 96.486132 
L 125.968707 97.323586 
L 127.228963 92.508225 
L 127.85909 92.508225 
L 128.489218 92.089498 
L 129.119346 92.926952 
L 129.749473 89.995863 
L 130.379601 91.670771 
L 131.009728 90.41459 
L 131.639856 90.41459 
L 132.269984 90.833317 
L 132.900111 89.577136 
L 133.530239 87.483501 
L 134.160366 86.646047 
L 134.790494 84.552412 
L 135.420622 82.877504 
L 136.680877 77.434052 
L 137.311005 76.177871 
L 138.57126 74.502963 
L 139.201387 72.199965 
L 139.831515 70.943784 
L 140.461643 70.10633 
L 141.09177 71.781238 
L 141.721898 71.781238 
L 142.352026 64.244151 
L 142.982153 63.825424 
L 143.612281 62.569243 
L 144.242408 63.197334 
L 144.872536 64.872242 
L 145.502664 64.453515 
L 146.132791 64.662878 
L 146.762919 64.244151 
L 147.393046 64.662878 
L 148.023174 61.731789 
L 148.653302 63.197334 
L 149.283429 61.103699 
L 149.913557 59.428791 
L 150.543685 62.778607 
L 151.80394 61.103699 
L 152.434067 60.894335 
L 153.064195 63.825424 
L 153.694323 61.103699 
L 154.32445 61.941153 
L 154.954578 62.150516 
L 156.214833 64.662878 
L 156.844961 65.500332 
L 157.475088 67.593967 
L 158.105216 68.431421 
L 158.735344 67.17524 
L 159.365471 67.17524 
L 159.995599 68.222058 
L 161.255854 69.059512 
L 161.885982 69.896966 
L 162.516109 65.290969 
L 163.146237 65.290969 
L 163.776365 67.803331 
L 164.406492 66.965877 
L 165.03662 65.290969 
L 165.666747 61.941153 
L 166.296875 61.941153 
L 166.296875 61.941153 
" clip-path="url(#p16deaf3958)" style="fill: none; stroke: #dd8452; stroke-width: 1.5; stroke-linecap: round"/>
   </g>
   <g id="patch_3">
    <path d="M 45.9425 162.645 
L 45.9425 14.625 
" style="fill: none; stroke: #000000; stroke-width: 0.25; stroke-linejoin: miter; stroke-linecap: square"/>
   </g>
   <g id="patch_4">
    <path d="M 166.296875 162.645 
L 166.296875 14.625 
" style="fill: none; stroke: #000000; stroke-width: 0.25; stroke-linejoin: miter; stroke-linecap: square"/>
   </g>
   <g id="patch_5">
    <path d="M 45.9425 162.645 
L 166.296875 162.645 
" style="fill: none; stroke: #000000; stroke-width: 0.25; stroke-linejoin: miter; stroke-linecap: square"/>
   </g>
   <g id="patch_6">
    <path d="M 45.9425 14.625 
L 166.296875 14.625 
" style="fill: none; stroke: #000000; stroke-width: 0.25; stroke-linejoin: miter; stroke-linecap: square"/>
   </g>
   <g id="text_13">
    <text style="fill: #262626; font: 12px 'Arial', 'DejaVu Sans', 'Liberation Sans', 'Bitstream Vera Sans', sans-serif; text-anchor: middle" x="106.119687" y="8.625" transform="rotate(-0 106.119687 8.625)">Untreated</text>
   </g>
   <g id="legend_1">
    <g id="patch_7">
     <path d="M 52.9425 50.915625 
L 104.951875 50.915625 
Q 106.951875 50.915625 106.951875 48.915625 
L 106.951875 21.625 
Q 106.951875 19.625 104.951875 19.625 
L 52.9425 19.625 
Q 50.9425 19.625 50.9425 21.625 
L 50.9425 48.915625 
Q 50.9425 50.915625 52.9425 50.915625 
z
" style="fill: #ffffff; opacity: 0.8; stroke: #cccccc; stroke-linejoin: miter"/>
    </g>
    <g id="line2d_23">
     <path d="M 54.9425 27.282813 
L 64.9425 27.282813 
L 74.9425 27.282813 
" style="fill: none; stroke: #4c72b0; stroke-width: 1.5; stroke-linecap: round"/>
    </g>
    <g id="text_14">
     <text style="fill: #262626; font: 10px 'Arial', 'DejaVu Sans', 'Liberation Sans', 'Bitstream Vera Sans', sans-serif; text-anchor: start" x="82.9425" y="30.782813" transform="rotate(-0 82.9425 30.782813)">G1</text>
    </g>
    <g id="line2d_24">
     <path d="M 54.9425 41.428125 
L 64.9425 41.428125 
L 74.9425 41.428125 
" style="fill: none; stroke: #dd8452; stroke-width: 1.5; stroke-linecap: round"/>
    </g>
    <g id="text_15">
     <text style="fill: #262626; font: 10px 'Arial', 'DejaVu Sans', 'Liberation Sans', 'Bitstream Vera Sans', sans-serif; text-anchor: start" x="82.9425" y="44.928125" transform="rotate(-0 82.9425 44.928125)">SG2</text>
    </g>
   </g>
  </g>
  <g id="axes_2">
   <g id="patch_8">
    <path d="M 223.236875 162.645 
L 343.59125 162.645 
L 343.59125 14.625 
L 223.236875 14.625 
z
" style="fill: #ffffff"/>
   </g>
   <g id="matplotlib.axis_3">
    <g id="xtick_5">
     <g id="line2d_25">
      <path d="M 223.236875 162.645 
L 223.236875 14.625 
" clip-path="url(#p31fc132732)" style="fill: none; stroke: #000000; stroke-opacity: 0.25; stroke-linecap: round"/>
     </g>
     <g id="line2d_26">
      <g>
       <use xlink:href="#mca3262f91c" x="223.236875" y="162.645" style="fill: #262626; stroke: #262626; stroke-width: 0.25"/>
      </g>
     </g>
     <g id="text_16">
      <text style="fill: #262626; font: 11px 'Arial', 'DejaVu Sans', 'Liberation Sans', 'Bitstream Vera Sans', sans-serif; text-anchor: middle" x="223.236875" y="177.018594" transform="rotate(-0 223.236875 177.018594)">0</text>
     </g>
    </g>
    <g id="xtick_6">
     <g id="line2d_27">
      <path d="M 254.743256 162.645 
L 254.743256 14.625 
" clip-path="url(#p31fc132732)" style="fill: none; stroke: #000000; stroke-opacity: 0.25; stroke-linecap: round"/>
     </g>
     <g id="line2d_28">
      <g>
       <use xlink:href="#mca3262f91c" x="254.743256" y="162.645" style="fill: #262626; stroke: #262626; stroke-width: 0.25"/>
      </g>
     </g>
     <g id="text_17">
      <text style="fill: #262626; font: 11px 'Arial', 'DejaVu Sans', 'Liberation Sans', 'Bitstream Vera Sans', sans-serif; text-anchor: middle" x="254.743256" y="177.018594" transform="rotate(-0 254.743256 177.018594)">50</text>
     </g>
    </g>
    <g id="xtick_7">
     <g id="line2d_29">
      <path d="M 286.249637 162.645 
L 286.249637 14.625 
" clip-path="url(#p31fc132732)" style="fill: none; stroke: #000000; stroke-opacity: 0.25; stroke-linecap: round"/>
     </g>
     <g id="line2d_30">
      <g>
       <use xlink:href="#mca3262f91c" x="286.249637" y="162.645" style="fill: #262626; stroke: #262626; stroke-width: 0.25"/>
      </g>
     </g>
     <g id="text_18">
      <text style="fill: #262626; font: 11px 'Arial', 'DejaVu Sans', 'Liberation Sans', 'Bitstream Vera Sans', sans-serif; text-anchor: middle" x="286.249637" y="177.018594" transform="rotate(-0 286.249637 177.018594)">100</text>
     </g>
    </g>
    <g id="xtick_8">
     <g id="line2d_31">
      <path d="M 317.756018 162.645 
L 317.756018 14.625 
" clip-path="url(#p31fc132732)" style="fill: none; stroke: #000000; stroke-opacity: 0.25; stroke-linecap: round"/>
     </g>
     <g id="line2d_32">
      <g>
       <use xlink:href="#mca3262f91c" x="317.756018" y="162.645" style="fill: #262626; stroke: #262626; stroke-width: 0.25"/>
      </g>
     </g>
     <g id="text_19">
      <text style="fill: #262626; font: 11px 'Arial', 'DejaVu Sans', 'Liberation Sans', 'Bitstream Vera Sans', sans-serif; text-anchor: middle" x="317.756018" y="177.018594" transform="rotate(-0 317.756018 177.018594)">150</text>
     </g>
    </g>
    <g id="text_20">
     <text style="fill: #262626; font: 12px 'Arial', 'DejaVu Sans', 'Liberation Sans', 'Bitstream Vera Sans', sans-serif; text-anchor: middle" x="283.414062" y="191.829844" transform="rotate(-0 283.414062 191.829844)">Time [0.5hr]</text>
    </g>
   </g>
   <g id="matplotlib.axis_4">
    <g id="ytick_7">
     <g id="line2d_33">
      <path d="M 223.236875 162.645 
L 343.59125 162.645 
" clip-path="url(#p31fc132732)" style="fill: none; stroke: #000000; stroke-opacity: 0.25; stroke-linecap: round"/>
     </g>
     <g id="line2d_34">
      <g>
       <use xlink:href="#m109fb86af9" x="223.236875" y="162.645" style="fill: #262626; stroke: #262626; stroke-width: 0.25"/>
      </g>
     </g>
     <g id="text_21">
      <text style="fill: #262626; font: 11px 'Arial', 'DejaVu Sans', 'Liberation Sans', 'Bitstream Vera Sans', sans-serif; text-anchor: end" x="216.736875" y="166.581797" transform="rotate(-0 216.736875 166.581797)">0</text>
     </g>
    </g>
    <g id="ytick_8">
     <g id="line2d_35">
      <path d="M 223.236875 121.64223 
L 343.59125 121.64223 
" clip-path="url(#p31fc132732)" style="fill: none; stroke: #000000; stroke-opacity: 0.25; stroke-linecap: round"/>
     </g>
     <g id="line2d_36">
      <g>
       <use xlink:href="#m109fb86af9" x="223.236875" y="121.64223" style="fill: #262626; stroke: #262626; stroke-width: 0.25"/>
      </g>
     </g>
     <g id="text_22">
      <text style="fill: #262626; font: 11px 'Arial', 'DejaVu Sans', 'Liberation Sans', 'Bitstream Vera Sans', sans-serif; text-anchor: end" x="216.736875" y="125.579027" transform="rotate(-0 216.736875 125.579027)">200</text>
     </g>
    </g>
    <g id="ytick_9">
     <g id="line2d_37">
      <path d="M 223.236875 80.63946 
L 343.59125 80.63946 
" clip-path="url(#p31fc132732)" style="fill: none; stroke: #000000; stroke-opacity: 0.25; stroke-linecap: round"/>
     </g>
     <g id="line2d_38">
      <g>
       <use xlink:href="#m109fb86af9" x="223.236875" y="80.63946" style="fill: #262626; stroke: #262626; stroke-width: 0.25"/>
      </g>
     </g>
     <g id="text_23">
      <text style="fill: #262626; font: 11px 'Arial', 'DejaVu Sans', 'Liberation Sans', 'Bitstream Vera Sans', sans-serif; text-anchor: end" x="216.736875" y="84.576257" transform="rotate(-0 216.736875 84.576257)">400</text>
     </g>
    </g>
    <g id="ytick_10">
     <g id="line2d_39">
      <path d="M 223.236875 39.63669 
L 343.59125 39.63669 
" clip-path="url(#p31fc132732)" style="fill: none; stroke: #000000; stroke-opacity: 0.25; stroke-linecap: round"/>
     </g>
     <g id="line2d_40">
      <g>
       <use xlink:href="#m109fb86af9" x="223.236875" y="39.63669" style="fill: #262626; stroke: #262626; stroke-width: 0.25"/>
      </g>
     </g>
     <g id="text_24">
      <text style="fill: #262626; font: 11px 'Arial', 'DejaVu Sans', 'Liberation Sans', 'Bitstream Vera Sans', sans-serif; text-anchor: end" x="216.736875" y="43.573487" transform="rotate(-0 216.736875 43.573487)">600</text>
     </g>
    </g>
    <g id="text_25">
     <text style="fill: #262626; font: 12px 'Arial', 'DejaVu Sans', 'Liberation Sans', 'Bitstream Vera Sans', sans-serif; text-anchor: middle" x="192.000781" y="88.635" transform="rotate(-90 192.000781 88.635)">Cell counts</text>
    </g>
   </g>
   <g id="line2d_41">
    <path d="M 223.236875 162.645 
L 223.867003 122.052258 
L 224.49713 122.052258 
L 225.127258 122.462285 
L 225.757385 122.462285 
L 226.387513 123.282341 
L 227.017641 122.052258 
L 227.647768 123.282341 
L 228.277896 123.692368 
L 228.908024 122.872313 
L 229.538151 123.692368 
L 230.168279 124.922452 
L 230.798406 125.742507 
L 231.428534 123.282341 
L 232.058662 122.052258 
L 232.688789 121.232202 
L 233.318917 119.592091 
L 233.949045 120.002119 
L 234.579172 119.182064 
L 235.2093 115.901842 
L 235.839427 115.491814 
L 236.469555 115.901842 
L 237.099683 114.261731 
L 237.72981 112.211593 
L 238.359938 112.62162 
L 238.990065 112.62162 
L 240.250321 104.421066 
L 240.880448 102.780956 
L 242.140704 103.601011 
L 242.770831 103.601011 
L 243.400959 103.190983 
L 244.031086 101.550873 
L 244.661214 101.9609 
L 245.291342 100.320789 
L 246.551597 97.860623 
L 247.181724 94.990429 
L 247.811852 95.400457 
L 248.44198 94.170374 
L 249.072107 92.120235 
L 249.702235 92.940291 
L 250.96249 91.30018 
L 251.592618 89.660069 
L 252.222745 89.660069 
L 252.852873 88.429986 
L 253.483001 88.429986 
L 254.113128 86.789875 
L 254.743256 87.199903 
L 255.373384 85.559792 
L 256.003511 84.739737 
L 256.633639 81.869543 
L 257.263766 83.099626 
L 258.524022 82.279571 
L 259.154149 82.689598 
L 259.784277 84.329709 
L 260.414404 84.329709 
L 261.044532 85.149765 
L 261.67466 82.689598 
L 262.304787 81.869543 
L 262.934915 83.919681 
L 264.19517 82.279571 
L 264.825298 82.689598 
L 265.455425 83.509654 
L 266.085553 85.149765 
L 267.345808 83.509654 
L 268.606063 87.609931 
L 269.236191 86.789875 
L 269.866319 86.379848 
L 270.496446 86.789875 
L 271.126574 85.149765 
L 271.756702 84.329709 
L 272.386829 84.329709 
L 273.016957 85.559792 
L 273.647084 87.199903 
L 274.277212 88.019958 
L 274.90734 88.019958 
L 275.537467 90.480125 
L 276.167595 90.480125 
L 276.797723 91.30018 
L 277.42785 93.760346 
L 278.057978 100.320789 
L 278.688105 99.910762 
L 279.318233 100.320789 
L 279.948361 97.860623 
L 280.578488 96.220512 
L 281.208616 94.170374 
L 281.838743 94.170374 
L 282.468871 93.760346 
L 283.098999 91.710208 
L 283.729126 91.710208 
L 284.359254 91.30018 
L 284.989382 89.660069 
L 285.619509 89.660069 
L 286.249637 86.379848 
L 286.879764 86.379848 
L 287.509892 84.739737 
L 288.770147 86.379848 
L 290.030402 84.739737 
L 290.66053 85.559792 
L 291.290658 88.840014 
L 291.920785 91.30018 
L 292.550913 95.400457 
L 293.181041 97.040568 
L 293.811168 99.500734 
L 295.071423 96.220512 
L 295.701551 98.680679 
L 296.331679 96.220512 
L 296.961806 91.30018 
L 298.852189 86.379848 
L 299.482317 83.099626 
L 300.112444 82.279571 
L 300.742572 80.63946 
L 301.3727 79.819404 
L 302.002827 80.63946 
L 302.632955 75.719127 
L 303.263082 75.719127 
L 303.89321 76.129155 
L 304.523338 77.769266 
L 305.153465 75.3091 
L 305.783593 70.388767 
L 306.413721 67.928601 
L 307.043848 67.928601 
L 307.673976 67.108546 
L 308.304103 67.928601 
L 308.934231 66.28849 
L 309.564359 61.368158 
L 310.194486 58.087936 
L 310.824614 58.907992 
L 311.454741 58.087936 
L 312.084869 59.728047 
L 312.714997 55.62777 
L 313.345124 57.267881 
L 313.975252 55.62777 
L 314.60538 56.447825 
L 315.235507 56.447825 
L 315.865635 53.167604 
L 317.12589 49.887382 
L 317.756018 49.887382 
L 318.386145 44.96705 
L 319.016273 42.506884 
L 319.646401 39.226662 
L 320.276528 35.126385 
L 320.906656 37.586551 
L 321.536783 32.666219 
L 322.166911 30.206053 
L 322.797039 30.206053 
L 323.427166 26.105776 
L 324.687421 19.545332 
L 325.317549 17.905222 
L 327.207932 22.825554 
L 328.468187 16.265111 
L 329.098315 17.905222 
L 329.728442 14.625 
L 330.35857 17.905222 
L 330.988698 22.825554 
L 331.618825 26.105776 
L 332.248953 31.846163 
L 332.87908 33.486274 
L 333.509208 28.565942 
L 334.139336 31.026108 
L 335.399591 27.745886 
L 336.029719 27.745886 
L 336.659846 26.925831 
L 337.289974 31.846163 
L 338.550229 30.206053 
L 339.180357 26.925831 
L 339.810484 25.28572 
L 340.440612 22.005499 
L 341.07074 22.005499 
L 341.700867 28.565942 
L 342.330995 28.565942 
L 342.961122 26.925831 
L 343.59125 44.96705 
L 343.59125 44.96705 
" clip-path="url(#p31fc132732)" style="fill: none; stroke: #4c72b0; stroke-width: 1.5; stroke-linecap: round"/>
   </g>
   <g id="line2d_42">
    <path d="M 223.236875 162.645 
L 223.867003 131.482895 
L 224.49713 132.30295 
L 225.127258 132.712978 
L 225.757385 130.662839 
L 226.387513 130.662839 
L 227.017641 130.252812 
L 227.647768 130.662839 
L 228.908024 127.382618 
L 229.538151 127.382618 
L 230.168279 126.152535 
L 230.798406 126.562562 
L 231.428534 125.742507 
L 232.058662 125.742507 
L 232.688789 126.152535 
L 233.318917 125.332479 
L 233.949045 126.152535 
L 234.579172 127.382618 
L 235.2093 127.382618 
L 235.839427 127.792645 
L 237.099683 127.792645 
L 237.72981 126.97259 
L 238.359938 126.97259 
L 238.990065 128.612701 
L 239.620193 129.842784 
L 240.250321 130.662839 
L 240.880448 130.662839 
L 242.140704 131.482895 
L 242.770831 130.662839 
L 243.400959 130.662839 
L 244.031086 130.252812 
L 245.291342 131.072867 
L 245.921469 131.072867 
L 246.551597 132.30295 
L 247.181724 131.892922 
L 247.811852 132.30295 
L 248.44198 133.123006 
L 249.702235 133.123006 
L 250.332363 132.30295 
L 250.96249 133.123006 
L 251.592618 132.30295 
L 252.222745 133.533033 
L 252.852873 134.353089 
L 254.113128 133.533033 
L 254.743256 134.763116 
L 255.373384 132.30295 
L 256.633639 133.943061 
L 257.263766 134.353089 
L 257.893894 133.123006 
L 258.524022 132.712978 
L 259.154149 131.482895 
L 259.784277 132.30295 
L 261.044532 129.842784 
L 261.67466 129.022729 
L 262.304787 129.432756 
L 262.934915 129.022729 
L 263.565043 127.382618 
L 264.19517 127.792645 
L 264.825298 126.152535 
L 265.455425 124.922452 
L 266.085553 124.512424 
L 266.715681 123.282341 
L 267.345808 123.282341 
L 267.975936 123.692368 
L 268.606063 122.462285 
L 269.236191 120.002119 
L 269.866319 119.592091 
L 270.496446 120.002119 
L 271.126574 119.592091 
L 273.016957 120.822175 
L 274.277212 113.441676 
L 275.537467 111.801565 
L 276.167595 110.161454 
L 276.797723 110.161454 
L 277.42785 108.111316 
L 278.057978 106.471205 
L 278.688105 99.500734 
L 279.318233 99.910762 
L 279.948361 99.500734 
L 280.578488 99.910762 
L 281.208616 100.730817 
L 281.838743 100.730817 
L 283.098999 99.910762 
L 283.729126 100.730817 
L 284.359254 101.9609 
L 284.989382 100.730817 
L 285.619509 101.9609 
L 286.249637 101.9609 
L 286.879764 103.190983 
L 287.509892 101.550873 
L 288.14002 99.090706 
L 288.770147 99.090706 
L 289.400275 99.910762 
L 290.030402 99.090706 
L 290.66053 97.450596 
L 291.290658 97.450596 
L 291.920785 92.530263 
L 293.181041 84.739737 
L 294.441296 81.459515 
L 295.071423 81.459515 
L 295.701551 83.099626 
L 296.331679 83.099626 
L 296.961806 83.509654 
L 297.591934 84.329709 
L 298.222062 84.329709 
L 298.852189 86.379848 
L 299.482317 87.199903 
L 300.112444 88.429986 
L 300.742572 88.019958 
L 301.3727 86.379848 
L 302.002827 90.070097 
L 302.632955 89.250042 
L 303.263082 88.019958 
L 303.89321 85.559792 
L 304.523338 85.149765 
L 305.783593 85.149765 
L 306.413721 84.739737 
L 307.043848 83.099626 
L 307.673976 82.279571 
L 308.304103 82.689598 
L 308.934231 81.049488 
L 309.564359 81.869543 
L 310.194486 81.869543 
L 310.824614 83.509654 
L 311.454741 82.689598 
L 312.084869 82.279571 
L 312.714997 82.279571 
L 313.345124 83.919681 
L 313.975252 78.999349 
L 314.60538 78.179294 
L 315.235507 78.999349 
L 315.865635 78.589321 
L 316.495762 79.409377 
L 317.12589 79.409377 
L 317.756018 81.869543 
L 318.386145 82.689598 
L 319.016273 85.149765 
L 319.646401 85.96982 
L 320.276528 85.149765 
L 320.906656 85.96982 
L 321.536783 84.329709 
L 322.166911 83.509654 
L 322.797039 84.329709 
L 324.057294 84.329709 
L 324.687421 85.149765 
L 325.317549 83.509654 
L 325.947677 84.329709 
L 326.577804 83.509654 
L 327.207932 81.869543 
L 327.83806 81.049488 
L 328.468187 82.689598 
L 329.098315 83.099626 
L 329.728442 78.999349 
L 330.35857 79.819404 
L 330.988698 75.719127 
L 332.248953 66.698518 
L 332.87908 56.857853 
L 333.509208 53.577632 
L 334.139336 55.217742 
L 334.769463 55.217742 
L 335.399591 54.397687 
L 336.029719 54.397687 
L 336.659846 53.577632 
L 337.289974 49.477355 
L 337.920101 44.557022 
L 338.550229 45.377078 
L 339.180357 45.377078 
L 339.810484 43.736967 
L 340.440612 40.456745 
L 341.07074 40.456745 
L 341.700867 41.276801 
L 342.330995 35.536413 
L 342.961122 34.716357 
L 343.59125 55.217742 
L 343.59125 55.217742 
" clip-path="url(#p31fc132732)" style="fill: none; stroke: #dd8452; stroke-width: 1.5; stroke-linecap: round"/>
   </g>
   <g id="patch_9">
    <path d="M 223.236875 162.645 
L 223.236875 14.625 
" style="fill: none; stroke: #000000; stroke-width: 0.25; stroke-linejoin: miter; stroke-linecap: square"/>
   </g>
   <g id="patch_10">
    <path d="M 343.59125 162.645 
L 343.59125 14.625 
" style="fill: none; stroke: #000000; stroke-width: 0.25; stroke-linejoin: miter; stroke-linecap: square"/>
   </g>
   <g id="patch_11">
    <path d="M 223.236875 162.645 
L 343.59125 162.645 
" style="fill: none; stroke: #000000; stroke-width: 0.25; stroke-linejoin: miter; stroke-linecap: square"/>
   </g>
   <g id="patch_12">
    <path d="M 223.236875 14.625 
L 343.59125 14.625 
" style="fill: none; stroke: #000000; stroke-width: 0.25; stroke-linejoin: miter; stroke-linecap: square"/>
   </g>
   <g id="text_26">
    <text style="fill: #262626; font: 12px 'Arial', 'DejaVu Sans', 'Liberation Sans', 'Bitstream Vera Sans', sans-serif; text-anchor: middle" x="283.414062" y="8.625" transform="rotate(-0 283.414062 8.625)">Lapatinib 25 nM</text>
   </g>
   <g id="legend_2">
    <g id="patch_13">
     <path d="M 230.236875 50.915625 
L 282.24625 50.915625 
Q 284.24625 50.915625 284.24625 48.915625 
L 284.24625 21.625 
Q 284.24625 19.625 282.24625 19.625 
L 230.236875 19.625 
Q 228.236875 19.625 228.236875 21.625 
L 228.236875 48.915625 
Q 228.236875 50.915625 230.236875 50.915625 
z
" style="fill: #ffffff; opacity: 0.8; stroke: #cccccc; stroke-linejoin: miter"/>
    </g>
    <g id="line2d_43">
     <path d="M 232.236875 27.282813 
L 242.236875 27.282813 
L 252.236875 27.282813 
" style="fill: none; stroke: #4c72b0; stroke-width: 1.5; stroke-linecap: round"/>
    </g>
    <g id="text_27">
     <text style="fill: #262626; font: 10px 'Arial', 'DejaVu Sans', 'Liberation Sans', 'Bitstream Vera Sans', sans-serif; text-anchor: start" x="260.236875" y="30.782813" transform="rotate(-0 260.236875 30.782813)">G1</text>
    </g>
    <g id="line2d_44">
     <path d="M 232.236875 41.428125 
L 242.236875 41.428125 
L 252.236875 41.428125 
" style="fill: none; stroke: #dd8452; stroke-width: 1.5; stroke-linecap: round"/>
    </g>
    <g id="text_28">
     <text style="fill: #262626; font: 10px 'Arial', 'DejaVu Sans', 'Liberation Sans', 'Bitstream Vera Sans', sans-serif; text-anchor: start" x="260.236875" y="44.928125" transform="rotate(-0 260.236875 44.928125)">SG2</text>
    </g>
   </g>
  </g>
  <g id="axes_3">
   <g id="patch_14">
    <path d="M 400.53125 162.645 
L 520.885625 162.645 
L 520.885625 14.625 
L 400.53125 14.625 
z
" style="fill: #ffffff"/>
   </g>
   <g id="matplotlib.axis_5">
    <g id="xtick_9">
     <g id="line2d_45">
      <path d="M 400.53125 162.645 
L 400.53125 14.625 
" clip-path="url(#pde35045382)" style="fill: none; stroke: #000000; stroke-opacity: 0.25; stroke-linecap: round"/>
     </g>
     <g id="line2d_46">
      <g>
       <use xlink:href="#mca3262f91c" x="400.53125" y="162.645" style="fill: #262626; stroke: #262626; stroke-width: 0.25"/>
      </g>
     </g>
     <g id="text_29">
      <text style="fill: #262626; font: 11px 'Arial', 'DejaVu Sans', 'Liberation Sans', 'Bitstream Vera Sans', sans-serif; text-anchor: middle" x="400.53125" y="177.018594" transform="rotate(-0 400.53125 177.018594)">0</text>
     </g>
    </g>
    <g id="xtick_10">
     <g id="line2d_47">
      <path d="M 432.037631 162.645 
L 432.037631 14.625 
" clip-path="url(#pde35045382)" style="fill: none; stroke: #000000; stroke-opacity: 0.25; stroke-linecap: round"/>
     </g>
     <g id="line2d_48">
      <g>
       <use xlink:href="#mca3262f91c" x="432.037631" y="162.645" style="fill: #262626; stroke: #262626; stroke-width: 0.25"/>
      </g>
     </g>
     <g id="text_30">
      <text style="fill: #262626; font: 11px 'Arial', 'DejaVu Sans', 'Liberation Sans', 'Bitstream Vera Sans', sans-serif; text-anchor: middle" x="432.037631" y="177.018594" transform="rotate(-0 432.037631 177.018594)">50</text>
     </g>
    </g>
    <g id="xtick_11">
     <g id="line2d_49">
      <path d="M 463.544012 162.645 
L 463.544012 14.625 
" clip-path="url(#pde35045382)" style="fill: none; stroke: #000000; stroke-opacity: 0.25; stroke-linecap: round"/>
     </g>
     <g id="line2d_50">
      <g>
       <use xlink:href="#mca3262f91c" x="463.544012" y="162.645" style="fill: #262626; stroke: #262626; stroke-width: 0.25"/>
      </g>
     </g>
     <g id="text_31">
      <text style="fill: #262626; font: 11px 'Arial', 'DejaVu Sans', 'Liberation Sans', 'Bitstream Vera Sans', sans-serif; text-anchor: middle" x="463.544012" y="177.018594" transform="rotate(-0 463.544012 177.018594)">100</text>
     </g>
    </g>
    <g id="xtick_12">
     <g id="line2d_51">
      <path d="M 495.050393 162.645 
L 495.050393 14.625 
" clip-path="url(#pde35045382)" style="fill: none; stroke: #000000; stroke-opacity: 0.25; stroke-linecap: round"/>
     </g>
     <g id="line2d_52">
      <g>
       <use xlink:href="#mca3262f91c" x="495.050393" y="162.645" style="fill: #262626; stroke: #262626; stroke-width: 0.25"/>
      </g>
     </g>
     <g id="text_32">
      <text style="fill: #262626; font: 11px 'Arial', 'DejaVu Sans', 'Liberation Sans', 'Bitstream Vera Sans', sans-serif; text-anchor: middle" x="495.050393" y="177.018594" transform="rotate(-0 495.050393 177.018594)">150</text>
     </g>
    </g>
    <g id="text_33">
     <text style="fill: #262626; font: 12px 'Arial', 'DejaVu Sans', 'Liberation Sans', 'Bitstream Vera Sans', sans-serif; text-anchor: middle" x="460.708438" y="191.829844" transform="rotate(-0 460.708438 191.829844)">Time [0.5hr]</text>
    </g>
   </g>
   <g id="matplotlib.axis_6">
    <g id="ytick_11">
     <g id="line2d_53">
      <path d="M 400.53125 162.645 
L 520.885625 162.645 
" clip-path="url(#pde35045382)" style="fill: none; stroke: #000000; stroke-opacity: 0.25; stroke-linecap: round"/>
     </g>
     <g id="line2d_54">
      <g>
       <use xlink:href="#m109fb86af9" x="400.53125" y="162.645" style="fill: #262626; stroke: #262626; stroke-width: 0.25"/>
      </g>
     </g>
     <g id="text_34">
      <text style="fill: #262626; font: 11px 'Arial', 'DejaVu Sans', 'Liberation Sans', 'Bitstream Vera Sans', sans-serif; text-anchor: end" x="394.03125" y="166.581797" transform="rotate(-0 394.03125 166.581797)">0</text>
     </g>
    </g>
    <g id="ytick_12">
     <g id="line2d_55">
      <path d="M 400.53125 137.080233 
L 520.885625 137.080233 
" clip-path="url(#pde35045382)" style="fill: none; stroke: #000000; stroke-opacity: 0.25; stroke-linecap: round"/>
     </g>
     <g id="line2d_56">
      <g>
       <use xlink:href="#m109fb86af9" x="400.53125" y="137.080233" style="fill: #262626; stroke: #262626; stroke-width: 0.25"/>
      </g>
     </g>
     <g id="text_35">
      <text style="fill: #262626; font: 11px 'Arial', 'DejaVu Sans', 'Liberation Sans', 'Bitstream Vera Sans', sans-serif; text-anchor: end" x="394.03125" y="141.01703" transform="rotate(-0 394.03125 141.01703)">200</text>
     </g>
    </g>
    <g id="ytick_13">
     <g id="line2d_57">
      <path d="M 400.53125 111.515466 
L 520.885625 111.515466 
" clip-path="url(#pde35045382)" style="fill: none; stroke: #000000; stroke-opacity: 0.25; stroke-linecap: round"/>
     </g>
     <g id="line2d_58">
      <g>
       <use xlink:href="#m109fb86af9" x="400.53125" y="111.515466" style="fill: #262626; stroke: #262626; stroke-width: 0.25"/>
      </g>
     </g>
     <g id="text_36">
      <text style="fill: #262626; font: 11px 'Arial', 'DejaVu Sans', 'Liberation Sans', 'Bitstream Vera Sans', sans-serif; text-anchor: end" x="394.03125" y="115.452263" transform="rotate(-0 394.03125 115.452263)">400</text>
     </g>
    </g>
    <g id="ytick_14">
     <g id="line2d_59">
      <path d="M 400.53125 85.950699 
L 520.885625 85.950699 
" clip-path="url(#pde35045382)" style="fill: none; stroke: #000000; stroke-opacity: 0.25; stroke-linecap: round"/>
     </g>
     <g id="line2d_60">
      <g>
       <use xlink:href="#m109fb86af9" x="400.53125" y="85.950699" style="fill: #262626; stroke: #262626; stroke-width: 0.25"/>
      </g>
     </g>
     <g id="text_37">
      <text style="fill: #262626; font: 11px 'Arial', 'DejaVu Sans', 'Liberation Sans', 'Bitstream Vera Sans', sans-serif; text-anchor: end" x="394.03125" y="89.887496" transform="rotate(-0 394.03125 89.887496)">600</text>
     </g>
    </g>
    <g id="ytick_15">
     <g id="line2d_61">
      <path d="M 400.53125 60.385933 
L 520.885625 60.385933 
" clip-path="url(#pde35045382)" style="fill: none; stroke: #000000; stroke-opacity: 0.25; stroke-linecap: round"/>
     </g>
     <g id="line2d_62">
      <g>
       <use xlink:href="#m109fb86af9" x="400.53125" y="60.385933" style="fill: #262626; stroke: #262626; stroke-width: 0.25"/>
      </g>
     </g>
     <g id="text_38">
      <text style="fill: #262626; font: 11px 'Arial', 'DejaVu Sans', 'Liberation Sans', 'Bitstream Vera Sans', sans-serif; text-anchor: end" x="394.03125" y="64.32273" transform="rotate(-0 394.03125 64.32273)">800</text>
     </g>
    </g>
    <g id="ytick_16">
     <g id="line2d_63">
      <path d="M 400.53125 34.821166 
L 520.885625 34.821166 
" clip-path="url(#pde35045382)" style="fill: none; stroke: #000000; stroke-opacity: 0.25; stroke-linecap: round"/>
     </g>
     <g id="line2d_64">
      <g>
       <use xlink:href="#m109fb86af9" x="400.53125" y="34.821166" style="fill: #262626; stroke: #262626; stroke-width: 0.25"/>
      </g>
     </g>
     <g id="text_39">
      <text style="fill: #262626; font: 11px 'Arial', 'DejaVu Sans', 'Liberation Sans', 'Bitstream Vera Sans', sans-serif; text-anchor: end" x="394.03125" y="38.757963" transform="rotate(-0 394.03125 38.757963)">1000</text>
     </g>
    </g>
    <g id="text_40">
     <text style="fill: #262626; font: 12px 'Arial', 'DejaVu Sans', 'Liberation Sans', 'Bitstream Vera Sans', sans-serif; text-anchor: middle" x="363.178125" y="88.635" transform="rotate(-90 363.178125 88.635)">Cell counts</text>
    </g>
   </g>
   <g id="line2d_65">
    <path d="M 400.53125 162.645 
L 401.161378 109.214637 
L 401.791505 110.748523 
L 402.421633 109.470285 
L 403.05176 110.492876 
L 403.681888 110.492876 
L 404.312016 110.237228 
L 404.942143 108.447694 
L 405.572271 108.95899 
L 406.202399 109.214637 
L 406.832526 110.492876 
L 407.462654 110.492876 
L 408.092781 109.725933 
L 408.722909 110.492876 
L 409.353037 108.192047 
L 409.983164 108.447694 
L 410.613292 107.425104 
L 411.24342 104.868627 
L 411.873547 103.590389 
L 412.503675 104.101684 
L 413.133802 103.079093 
L 413.76393 103.079093 
L 414.394058 102.567798 
L 415.024185 101.28956 
L 415.654313 101.545207 
L 416.28444 101.033912 
L 416.914568 98.477435 
L 417.544696 97.454845 
L 418.174823 95.665311 
L 421.325461 84.416813 
L 421.955589 81.349041 
L 422.585717 79.048212 
L 423.215844 78.025622 
L 423.845972 76.491736 
L 424.476099 75.724793 
L 425.106227 73.935259 
L 425.736355 72.657021 
L 426.366482 70.867487 
L 426.99661 69.844896 
L 427.626738 68.31101 
L 428.256865 67.28842 
L 428.886993 66.010181 
L 429.51712 63.965 
L 430.147248 63.709352 
L 430.777376 62.686762 
L 431.407503 63.198057 
L 432.037631 62.431114 
L 432.667759 59.107694 
L 433.297886 58.596399 
L 433.928014 58.852047 
L 434.558141 59.874637 
L 435.188269 60.130285 
L 435.818397 60.897228 
L 436.448524 61.152876 
L 437.078652 60.130285 
L 437.708779 60.130285 
L 438.338907 58.852047 
L 438.969035 58.340751 
L 439.599162 59.874637 
L 440.22929 60.64158 
L 440.859418 60.897228 
L 441.489545 62.175466 
L 442.119673 61.664171 
L 442.7498 62.175466 
L 443.379928 62.431114 
L 444.010056 61.919819 
L 444.640183 61.664171 
L 445.270311 61.664171 
L 445.900438 62.175466 
L 446.530566 60.385933 
L 447.160694 61.919819 
L 447.790821 62.942409 
L 448.420949 63.198057 
L 449.051077 62.431114 
L 449.681204 64.731943 
L 450.941459 66.265829 
L 452.201715 69.077953 
L 452.831842 69.589249 
L 453.46197 72.145725 
L 454.092098 72.145725 
L 455.98248 75.98044 
L 456.612608 78.536917 
L 457.242736 78.536917 
L 457.872863 77.003031 
L 458.502991 76.491736 
L 459.133118 78.025622 
L 459.763246 77.003031 
L 460.393374 77.258679 
L 461.023501 76.747383 
L 461.653629 75.98044 
L 462.283757 76.747383 
L 462.913884 77.003031 
L 463.544012 76.491736 
L 464.174139 75.724793 
L 464.804267 77.003031 
L 465.434395 78.025622 
L 466.064522 78.281269 
L 466.69465 80.837746 
L 467.324777 81.093394 
L 467.954905 81.604689 
L 468.585033 84.672461 
L 469.21516 84.672461 
L 469.845288 83.64987 
L 470.475416 84.161166 
L 471.105543 86.97329 
L 471.735671 89.018472 
L 472.365798 88.762824 
L 473.626054 89.785415 
L 474.256181 89.274119 
L 474.886309 85.950699 
L 476.146564 85.439404 
L 476.776692 83.394223 
L 477.406819 83.905518 
L 478.036947 85.439404 
L 478.667075 85.183756 
L 479.297202 85.439404 
L 479.92733 85.950699 
L 480.557457 85.950699 
L 481.187585 83.905518 
L 481.817713 86.97329 
L 482.44784 83.905518 
L 483.077968 83.64987 
L 484.338223 79.559508 
L 484.968351 79.30386 
L 485.598478 80.070803 
L 486.228606 78.792565 
L 486.858734 78.792565 
L 487.488861 77.258679 
L 488.118989 76.491736 
L 488.749116 72.657021 
L 489.379244 72.912668 
L 490.009372 72.401373 
L 490.639499 72.145725 
L 491.269627 72.401373 
L 491.899755 68.822306 
L 492.529882 69.333601 
L 493.16001 63.709352 
L 493.790137 63.198057 
L 494.420265 60.130285 
L 495.050393 59.61899 
L 495.68052 55.528627 
L 496.310648 54.506036 
L 496.940776 52.460855 
L 497.570903 51.182617 
L 498.201031 46.580959 
L 498.831158 43.513187 
L 499.461286 43.513187 
L 500.091414 43.768834 
L 501.351669 39.422824 
L 501.981796 36.355052 
L 502.611924 35.332461 
L 503.242052 33.28728 
L 503.872179 30.219508 
L 504.502307 24.595259 
L 505.132435 23.572668 
L 505.762562 19.993601 
L 506.39269 19.482306 
L 507.022817 18.459715 
L 507.652945 16.925829 
L 508.283073 16.925829 
L 508.9132 14.625 
L 509.543328 14.625 
L 510.173455 17.692772 
L 510.803583 16.925829 
L 511.433711 16.414534 
L 512.063838 16.414534 
L 512.693966 17.94842 
L 513.324094 19.993601 
L 513.954221 23.572668 
L 514.584349 20.504896 
L 515.214476 21.016192 
L 515.844604 20.249249 
L 516.474732 17.692772 
L 517.104859 14.625 
L 517.734987 16.158886 
L 518.995242 16.158886 
L 519.62537 18.715363 
L 520.255497 22.805725 
L 520.885625 23.061373 
L 520.885625 23.061373 
" clip-path="url(#pde35045382)" style="fill: none; stroke: #4c72b0; stroke-width: 1.5; stroke-linecap: round"/>
   </g>
   <g id="line2d_66">
    <path d="M 400.53125 162.645 
L 401.161378 126.598679 
L 401.791505 127.365622 
L 402.421633 126.343031 
L 403.05176 126.598679 
L 403.681888 125.064793 
L 404.312016 126.087383 
L 404.942143 126.087383 
L 405.572271 125.32044 
L 406.202399 124.042202 
L 406.832526 123.275259 
L 407.462654 122.763964 
L 408.092781 121.741373 
L 408.722909 122.252668 
L 409.353037 121.997021 
L 410.613292 123.530907 
L 411.24342 124.042202 
L 411.873547 124.042202 
L 412.503675 124.553497 
L 413.133802 124.809145 
L 413.76393 124.809145 
L 414.394058 125.064793 
L 415.024185 124.809145 
L 415.654313 124.809145 
L 416.28444 125.831736 
L 416.914568 126.598679 
L 417.544696 127.621269 
L 418.174823 128.388212 
L 420.065206 132.222927 
L 421.325461 133.756813 
L 421.955589 135.290699 
L 423.845972 136.824585 
L 424.476099 138.102824 
L 425.736355 139.63671 
L 426.366482 139.63671 
L 426.99661 140.148005 
L 427.626738 140.148005 
L 428.256865 141.170596 
L 428.886993 142.96013 
L 429.51712 142.704482 
L 430.147248 142.193187 
L 430.777376 141.937539 
L 431.407503 142.448834 
L 432.037631 144.749663 
L 432.667759 145.005311 
L 433.297886 144.238368 
L 433.928014 143.727073 
L 434.558141 143.727073 
L 435.818397 143.215777 
L 437.078652 143.727073 
L 437.708779 143.471425 
L 438.338907 142.96013 
L 439.599162 142.96013 
L 440.22929 140.914948 
L 440.859418 139.63671 
L 441.489545 140.148005 
L 442.119673 139.125415 
L 442.7498 138.358472 
L 443.379928 137.847176 
L 444.010056 138.102824 
L 445.270311 138.102824 
L 445.900438 138.614119 
L 446.530566 137.591528 
L 447.160694 137.591528 
L 447.790821 136.31329 
L 448.420949 135.290699 
L 449.051077 134.523756 
L 449.681204 134.268109 
L 450.311332 131.96728 
L 450.941459 131.200337 
L 451.571587 130.689041 
L 452.201715 129.155155 
L 452.831842 128.388212 
L 453.46197 128.132565 
L 454.092098 126.343031 
L 454.722225 126.854326 
L 455.352353 124.042202 
L 455.98248 121.741373 
L 456.612608 120.463135 
L 457.242736 118.673601 
L 458.502991 119.184896 
L 459.133118 119.696192 
L 459.763246 118.673601 
L 460.393374 119.184896 
L 461.023501 118.417953 
L 461.653629 118.673601 
L 462.283757 119.184896 
L 462.913884 118.929249 
L 463.544012 117.906658 
L 464.174139 116.62842 
L 464.804267 116.372772 
L 465.434395 115.350181 
L 466.064522 113.305 
L 466.69465 112.538057 
L 467.324777 110.237228 
L 467.954905 108.95899 
L 468.585033 109.214637 
L 469.845288 105.379922 
L 470.475416 104.868627 
L 471.735671 101.28956 
L 472.365798 98.988731 
L 472.995926 97.96614 
L 473.626054 97.710492 
L 474.886309 98.221788 
L 475.516437 97.454845 
L 476.146564 97.96614 
L 476.776692 97.454845 
L 477.406819 95.920959 
L 478.036947 96.176606 
L 478.667075 95.409663 
L 479.92733 92.597539 
L 480.557457 92.086244 
L 481.187585 91.319301 
L 481.817713 92.597539 
L 482.44784 90.041062 
L 483.708096 89.529767 
L 484.338223 90.552358 
L 484.968351 89.529767 
L 485.598478 89.018472 
L 486.228606 88.762824 
L 486.858734 88.762824 
L 487.488861 88.251528 
L 488.118989 90.041062 
L 488.749116 90.29671 
L 489.379244 90.808005 
L 490.009372 90.041062 
L 490.639499 88.507176 
L 491.269627 89.785415 
L 491.899755 88.507176 
L 492.529882 90.808005 
L 493.16001 90.808005 
L 493.790137 92.341891 
L 494.420265 92.853187 
L 495.050393 95.154016 
L 495.68052 94.64272 
L 496.310648 95.409663 
L 496.940776 96.432254 
L 497.570903 98.988731 
L 498.201031 100.266969 
L 498.831158 99.500026 
L 499.461286 99.500026 
L 500.091414 98.988731 
L 500.721541 99.244378 
L 501.351669 101.033912 
L 501.981796 101.28956 
L 502.611924 102.31215 
L 503.242052 102.823446 
L 503.872179 105.891218 
L 504.502307 107.425104 
L 505.132435 107.425104 
L 505.762562 106.402513 
L 506.39269 106.146865 
L 507.022817 106.658161 
L 507.652945 106.146865 
L 508.283073 105.379922 
L 508.9132 104.101684 
L 509.543328 104.101684 
L 510.173455 103.590389 
L 510.803583 99.755674 
L 511.433711 100.522617 
L 512.063838 99.755674 
L 512.693966 98.221788 
L 513.324094 95.154016 
L 513.954221 93.62013 
L 514.584349 89.018472 
L 515.214476 90.041062 
L 515.844604 88.762824 
L 516.474732 89.529767 
L 517.104859 89.529767 
L 517.734987 90.041062 
L 518.365115 89.018472 
L 518.995242 86.461995 
L 519.62537 85.439404 
L 520.885625 78.792565 
L 520.885625 78.792565 
" clip-path="url(#pde35045382)" style="fill: none; stroke: #dd8452; stroke-width: 1.5; stroke-linecap: round"/>
   </g>
   <g id="patch_15">
    <path d="M 400.53125 162.645 
L 400.53125 14.625 
" style="fill: none; stroke: #000000; stroke-width: 0.25; stroke-linejoin: miter; stroke-linecap: square"/>
   </g>
   <g id="patch_16">
    <path d="M 520.885625 162.645 
L 520.885625 14.625 
" style="fill: none; stroke: #000000; stroke-width: 0.25; stroke-linejoin: miter; stroke-linecap: square"/>
   </g>
   <g id="patch_17">
    <path d="M 400.53125 162.645 
L 520.885625 162.645 
" style="fill: none; stroke: #000000; stroke-width: 0.25; stroke-linejoin: miter; stroke-linecap: square"/>
   </g>
   <g id="patch_18">
    <path d="M 400.53125 14.625 
L 520.885625 14.625 
" style="fill: none; stroke: #000000; stroke-width: 0.25; stroke-linejoin: miter; stroke-linecap: square"/>
   </g>
   <g id="text_41">
    <text style="fill: #262626; font: 12px 'Arial', 'DejaVu Sans', 'Liberation Sans', 'Bitstream Vera Sans', sans-serif; text-anchor: middle" x="460.708438" y="8.625" transform="rotate(-0 460.708438 8.625)">Lapatinib 50 nM</text>
   </g>
   <g id="legend_3">
    <g id="patch_19">
     <path d="M 407.53125 50.915625 
L 459.540625 50.915625 
Q 461.540625 50.915625 461.540625 48.915625 
L 461.540625 21.625 
Q 461.540625 19.625 459.540625 19.625 
L 407.53125 19.625 
Q 405.53125 19.625 405.53125 21.625 
L 405.53125 48.915625 
Q 405.53125 50.915625 407.53125 50.915625 
z
" style="fill: #ffffff; opacity: 0.8; stroke: #cccccc; stroke-linejoin: miter"/>
    </g>
    <g id="line2d_67">
     <path d="M 409.53125 27.282813 
L 419.53125 27.282813 
L 429.53125 27.282813 
" style="fill: none; stroke: #4c72b0; stroke-width: 1.5; stroke-linecap: round"/>
    </g>
    <g id="text_42">
     <text style="fill: #262626; font: 10px 'Arial', 'DejaVu Sans', 'Liberation Sans', 'Bitstream Vera Sans', sans-serif; text-anchor: start" x="437.53125" y="30.782813" transform="rotate(-0 437.53125 30.782813)">G1</text>
    </g>
    <g id="line2d_68">
     <path d="M 409.53125 41.428125 
L 419.53125 41.428125 
L 429.53125 41.428125 
" style="fill: none; stroke: #dd8452; stroke-width: 1.5; stroke-linecap: round"/>
    </g>
    <g id="text_43">
     <text style="fill: #262626; font: 10px 'Arial', 'DejaVu Sans', 'Liberation Sans', 'Bitstream Vera Sans', sans-serif; text-anchor: start" x="437.53125" y="44.928125" transform="rotate(-0 437.53125 44.928125)">SG2</text>
    </g>
   </g>
  </g>
  <g id="axes_4">
   <g id="patch_20">
    <path d="M 577.825625 162.645 
L 698.18 162.645 
L 698.18 14.625 
L 577.825625 14.625 
z
" style="fill: #ffffff"/>
   </g>
   <g id="matplotlib.axis_7">
    <g id="xtick_13">
     <g id="line2d_69">
      <path d="M 577.825625 162.645 
L 577.825625 14.625 
" clip-path="url(#p0107522124)" style="fill: none; stroke: #000000; stroke-opacity: 0.25; stroke-linecap: round"/>
     </g>
     <g id="line2d_70">
      <g>
       <use xlink:href="#mca3262f91c" x="577.825625" y="162.645" style="fill: #262626; stroke: #262626; stroke-width: 0.25"/>
      </g>
     </g>
     <g id="text_44">
      <text style="fill: #262626; font: 11px 'Arial', 'DejaVu Sans', 'Liberation Sans', 'Bitstream Vera Sans', sans-serif; text-anchor: middle" x="577.825625" y="177.018594" transform="rotate(-0 577.825625 177.018594)">0</text>
     </g>
    </g>
    <g id="xtick_14">
     <g id="line2d_71">
      <path d="M 609.332006 162.645 
L 609.332006 14.625 
" clip-path="url(#p0107522124)" style="fill: none; stroke: #000000; stroke-opacity: 0.25; stroke-linecap: round"/>
     </g>
     <g id="line2d_72">
      <g>
       <use xlink:href="#mca3262f91c" x="609.332006" y="162.645" style="fill: #262626; stroke: #262626; stroke-width: 0.25"/>
      </g>
     </g>
     <g id="text_45">
      <text style="fill: #262626; font: 11px 'Arial', 'DejaVu Sans', 'Liberation Sans', 'Bitstream Vera Sans', sans-serif; text-anchor: middle" x="609.332006" y="177.018594" transform="rotate(-0 609.332006 177.018594)">50</text>
     </g>
    </g>
    <g id="xtick_15">
     <g id="line2d_73">
      <path d="M 640.838387 162.645 
L 640.838387 14.625 
" clip-path="url(#p0107522124)" style="fill: none; stroke: #000000; stroke-opacity: 0.25; stroke-linecap: round"/>
     </g>
     <g id="line2d_74">
      <g>
       <use xlink:href="#mca3262f91c" x="640.838387" y="162.645" style="fill: #262626; stroke: #262626; stroke-width: 0.25"/>
      </g>
     </g>
     <g id="text_46">
      <text style="fill: #262626; font: 11px 'Arial', 'DejaVu Sans', 'Liberation Sans', 'Bitstream Vera Sans', sans-serif; text-anchor: middle" x="640.838387" y="177.018594" transform="rotate(-0 640.838387 177.018594)">100</text>
     </g>
    </g>
    <g id="xtick_16">
     <g id="line2d_75">
      <path d="M 672.344768 162.645 
L 672.344768 14.625 
" clip-path="url(#p0107522124)" style="fill: none; stroke: #000000; stroke-opacity: 0.25; stroke-linecap: round"/>
     </g>
     <g id="line2d_76">
      <g>
       <use xlink:href="#mca3262f91c" x="672.344768" y="162.645" style="fill: #262626; stroke: #262626; stroke-width: 0.25"/>
      </g>
     </g>
     <g id="text_47">
      <text style="fill: #262626; font: 11px 'Arial', 'DejaVu Sans', 'Liberation Sans', 'Bitstream Vera Sans', sans-serif; text-anchor: middle" x="672.344768" y="177.018594" transform="rotate(-0 672.344768 177.018594)">150</text>
     </g>
    </g>
    <g id="text_48">
     <text style="fill: #262626; font: 12px 'Arial', 'DejaVu Sans', 'Liberation Sans', 'Bitstream Vera Sans', sans-serif; text-anchor: middle" x="638.002813" y="191.829844" transform="rotate(-0 638.002813 191.829844)">Time [0.5hr]</text>
    </g>
   </g>
   <g id="matplotlib.axis_8">
    <g id="ytick_17">
     <g id="line2d_77">
      <path d="M 577.825625 162.645 
L 698.18 162.645 
" clip-path="url(#p0107522124)" style="fill: none; stroke: #000000; stroke-opacity: 0.25; stroke-linecap: round"/>
     </g>
     <g id="line2d_78">
      <g>
       <use xlink:href="#m109fb86af9" x="577.825625" y="162.645" style="fill: #262626; stroke: #262626; stroke-width: 0.25"/>
      </g>
     </g>
     <g id="text_49">
      <text style="fill: #262626; font: 11px 'Arial', 'DejaVu Sans', 'Liberation Sans', 'Bitstream Vera Sans', sans-serif; text-anchor: end" x="571.325625" y="166.581797" transform="rotate(-0 571.325625 166.581797)">0</text>
     </g>
    </g>
    <g id="ytick_18">
     <g id="line2d_79">
      <path d="M 577.825625 131.935456 
L 698.18 131.935456 
" clip-path="url(#p0107522124)" style="fill: none; stroke: #000000; stroke-opacity: 0.25; stroke-linecap: round"/>
     </g>
     <g id="line2d_80">
      <g>
       <use xlink:href="#m109fb86af9" x="577.825625" y="131.935456" style="fill: #262626; stroke: #262626; stroke-width: 0.25"/>
      </g>
     </g>
     <g id="text_50">
      <text style="fill: #262626; font: 11px 'Arial', 'DejaVu Sans', 'Liberation Sans', 'Bitstream Vera Sans', sans-serif; text-anchor: end" x="571.325625" y="135.872253" transform="rotate(-0 571.325625 135.872253)">100</text>
     </g>
    </g>
    <g id="ytick_19">
     <g id="line2d_81">
      <path d="M 577.825625 101.225913 
L 698.18 101.225913 
" clip-path="url(#p0107522124)" style="fill: none; stroke: #000000; stroke-opacity: 0.25; stroke-linecap: round"/>
     </g>
     <g id="line2d_82">
      <g>
       <use xlink:href="#m109fb86af9" x="577.825625" y="101.225913" style="fill: #262626; stroke: #262626; stroke-width: 0.25"/>
      </g>
     </g>
     <g id="text_51">
      <text style="fill: #262626; font: 11px 'Arial', 'DejaVu Sans', 'Liberation Sans', 'Bitstream Vera Sans', sans-serif; text-anchor: end" x="571.325625" y="105.16271" transform="rotate(-0 571.325625 105.16271)">200</text>
     </g>
    </g>
    <g id="ytick_20">
     <g id="line2d_83">
      <path d="M 577.825625 70.516369 
L 698.18 70.516369 
" clip-path="url(#p0107522124)" style="fill: none; stroke: #000000; stroke-opacity: 0.25; stroke-linecap: round"/>
     </g>
     <g id="line2d_84">
      <g>
       <use xlink:href="#m109fb86af9" x="577.825625" y="70.516369" style="fill: #262626; stroke: #262626; stroke-width: 0.25"/>
      </g>
     </g>
     <g id="text_52">
      <text style="fill: #262626; font: 11px 'Arial', 'DejaVu Sans', 'Liberation Sans', 'Bitstream Vera Sans', sans-serif; text-anchor: end" x="571.325625" y="74.453166" transform="rotate(-0 571.325625 74.453166)">300</text>
     </g>
    </g>
    <g id="ytick_21">
     <g id="line2d_85">
      <path d="M 577.825625 39.806826 
L 698.18 39.806826 
" clip-path="url(#p0107522124)" style="fill: none; stroke: #000000; stroke-opacity: 0.25; stroke-linecap: round"/>
     </g>
     <g id="line2d_86">
      <g>
       <use xlink:href="#m109fb86af9" x="577.825625" y="39.806826" style="fill: #262626; stroke: #262626; stroke-width: 0.25"/>
      </g>
     </g>
     <g id="text_53">
      <text style="fill: #262626; font: 11px 'Arial', 'DejaVu Sans', 'Liberation Sans', 'Bitstream Vera Sans', sans-serif; text-anchor: end" x="571.325625" y="43.743623" transform="rotate(-0 571.325625 43.743623)">400</text>
     </g>
    </g>
    <g id="text_54">
     <text style="fill: #262626; font: 12px 'Arial', 'DejaVu Sans', 'Liberation Sans', 'Bitstream Vera Sans', sans-serif; text-anchor: middle" x="546.589531" y="88.635" transform="rotate(-90 546.589531 88.635)">Cell counts</text>
    </g>
   </g>
   <g id="line2d_87">
    <path d="M 577.825625 162.645 
L 578.455753 103.068485 
L 579.08588 104.296867 
L 579.716008 104.911058 
L 580.346135 104.911058 
L 580.976263 104.296867 
L 581.606391 104.911058 
L 582.236518 104.296867 
L 582.866646 104.911058 
L 584.126901 104.911058 
L 584.757029 103.682676 
L 585.387156 104.296867 
L 586.017284 104.296867 
L 586.647412 101.225913 
L 587.277539 101.840104 
L 588.537795 99.38334 
L 589.167922 95.698195 
L 589.79805 95.698195 
L 590.428177 96.312386 
L 591.058305 96.312386 
L 591.688433 90.170477 
L 592.31856 88.942095 
L 592.948688 86.485332 
L 593.578815 82.800187 
L 594.208943 82.800187 
L 594.839071 76.658278 
L 595.469198 72.358942 
L 596.729454 67.445415 
L 597.359581 63.146079 
L 599.249964 53.933216 
L 599.880092 50.248071 
L 600.510219 49.019689 
L 601.770474 44.106162 
L 602.400602 40.421017 
L 603.03073 40.421017 
L 603.660857 37.350062 
L 604.290985 37.350062 
L 604.921113 35.50749 
L 605.55124 35.50749 
L 606.181368 34.279108 
L 607.441623 34.279108 
L 608.071751 32.436535 
L 608.701878 31.208154 
L 609.332006 31.822344 
L 609.962134 31.822344 
L 610.592261 31.208154 
L 611.222389 29.979772 
L 611.852516 27.523008 
L 612.482644 26.908817 
L 613.112772 28.137199 
L 613.742899 26.294627 
L 614.373027 23.837863 
L 615.003154 22.609481 
L 615.633282 20.152718 
L 616.26341 21.99529 
L 616.893537 23.223672 
L 617.523665 23.837863 
L 618.153793 21.3811 
L 619.414048 21.3811 
L 620.044175 20.152718 
L 621.934558 20.152718 
L 622.564686 18.924336 
L 623.194813 16.467573 
L 623.824941 15.239191 
L 624.455069 15.239191 
L 625.085196 15.853382 
L 626.345452 15.853382 
L 626.975579 14.625 
L 627.605707 15.239191 
L 628.235834 17.695954 
L 628.865962 18.310145 
L 629.49609 19.538527 
L 630.126217 21.99529 
L 630.756345 19.538527 
L 631.386473 19.538527 
L 632.0166 17.081763 
L 632.646728 17.081763 
L 633.276855 17.695954 
L 635.167238 17.695954 
L 635.797366 20.152718 
L 636.427493 20.766909 
L 637.057621 20.766909 
L 638.317876 21.99529 
L 639.578132 21.99529 
L 640.208259 23.223672 
L 640.838387 21.99529 
L 642.098642 21.99529 
L 642.72877 23.837863 
L 643.358897 21.3811 
L 643.989025 21.3811 
L 644.619152 23.837863 
L 645.24928 22.609481 
L 645.879408 22.609481 
L 646.509535 18.924336 
L 647.139663 19.538527 
L 647.769791 19.538527 
L 648.399918 20.766909 
L 649.030046 20.766909 
L 649.660173 19.538527 
L 650.290301 20.766909 
L 650.920429 23.223672 
L 651.550556 23.223672 
L 652.180684 27.523008 
L 652.810812 27.523008 
L 653.440939 28.75139 
L 654.071067 31.208154 
L 654.701194 29.979772 
L 655.331322 32.436535 
L 657.221705 32.436535 
L 657.851832 33.664917 
L 658.48196 33.664917 
L 659.112088 34.279108 
L 659.742215 36.12168 
L 660.372343 36.12168 
L 661.002471 37.350062 
L 661.632598 39.806826 
L 662.262726 39.806826 
L 663.522981 37.350062 
L 665.413364 29.979772 
L 666.043491 29.979772 
L 667.303747 34.893299 
L 667.933874 34.893299 
L 668.564002 35.50749 
L 669.19413 36.735871 
L 670.454385 36.735871 
L 671.084512 36.12168 
L 671.71464 37.350062 
L 672.344768 37.350062 
L 672.974895 38.578444 
L 674.235151 38.578444 
L 674.865278 37.350062 
L 675.495406 34.893299 
L 676.125533 36.12168 
L 676.755661 36.12168 
L 677.385789 38.578444 
L 679.276171 38.578444 
L 679.906299 36.12168 
L 680.536427 36.735871 
L 681.166554 37.964253 
L 681.796682 36.735871 
L 682.42681 36.735871 
L 683.056937 32.436535 
L 684.317192 29.979772 
L 685.577448 29.979772 
L 686.207575 27.523008 
L 686.837703 28.75139 
L 687.46783 28.75139 
L 688.097958 27.523008 
L 688.728086 27.523008 
L 689.358213 25.066245 
L 689.988341 26.294627 
L 690.618469 29.979772 
L 691.248596 31.822344 
L 691.878724 29.365581 
L 692.508851 29.365581 
L 693.138979 30.593963 
L 693.769107 24.452054 
L 694.399234 23.837863 
L 695.029362 23.837863 
L 695.65949 25.066245 
L 696.289617 20.152718 
L 696.919745 20.152718 
L 697.549872 16.467573 
L 698.18 17.695954 
L 698.18 17.695954 
" clip-path="url(#p0107522124)" style="fill: none; stroke: #4c72b0; stroke-width: 1.5; stroke-linecap: round"/>
   </g>
   <g id="line2d_88">
    <path d="M 577.825625 162.645 
L 578.455753 99.38334 
L 579.08588 99.997531 
L 580.346135 97.540768 
L 581.606391 97.540768 
L 582.236518 96.926577 
L 582.866646 96.926577 
L 583.496774 97.540768 
L 584.126901 97.540768 
L 585.387156 95.084004 
L 586.017284 96.926577 
L 586.647412 96.926577 
L 587.277539 96.312386 
L 587.907667 97.540768 
L 588.537795 98.154959 
L 589.167922 95.698195 
L 590.428177 95.698195 
L 591.058305 98.154959 
L 591.688433 98.769149 
L 592.31856 99.997531 
L 592.948688 101.840104 
L 593.578815 102.454295 
L 594.208943 105.525249 
L 594.839071 107.982012 
L 595.469198 109.210394 
L 596.099326 109.824585 
L 597.359581 114.738112 
L 598.619836 117.194876 
L 599.249964 119.037448 
L 599.880092 119.037448 
L 601.140347 121.494212 
L 601.770474 123.336784 
L 602.400602 124.565166 
L 603.03073 127.021929 
L 603.660857 126.407739 
L 604.290985 127.63612 
L 605.55124 127.63612 
L 606.181368 128.250311 
L 606.811495 128.250311 
L 608.071751 130.707075 
L 608.701878 130.092884 
L 609.332006 130.707075 
L 609.962134 130.707075 
L 612.482644 133.163838 
L 613.112772 134.39222 
L 613.742899 134.39222 
L 614.373027 135.006411 
L 615.003154 136.234793 
L 616.26341 136.234793 
L 616.893537 135.006411 
L 617.523665 135.006411 
L 618.153793 134.39222 
L 618.78392 134.39222 
L 619.414048 135.006411 
L 621.304431 135.006411 
L 621.934558 135.620602 
L 623.194813 138.077365 
L 623.824941 138.077365 
L 624.455069 137.463174 
L 625.085196 137.463174 
L 625.715324 136.848983 
L 626.345452 137.463174 
L 627.605707 137.463174 
L 628.235834 136.848983 
L 628.865962 137.463174 
L 629.49609 136.848983 
L 630.126217 136.848983 
L 630.756345 134.39222 
L 631.386473 135.620602 
L 632.0166 136.234793 
L 632.646728 136.234793 
L 633.276855 135.006411 
L 633.906983 134.39222 
L 635.797366 134.39222 
L 636.427493 135.006411 
L 637.057621 134.39222 
L 639.578132 134.39222 
L 640.208259 135.006411 
L 640.838387 133.778029 
L 642.098642 133.778029 
L 642.72877 135.620602 
L 643.358897 133.778029 
L 643.989025 132.549647 
L 644.619152 133.778029 
L 645.24928 131.321266 
L 645.879408 132.549647 
L 646.509535 132.549647 
L 647.139663 131.321266 
L 647.769791 130.707075 
L 648.399918 130.707075 
L 649.030046 130.092884 
L 650.290301 130.092884 
L 650.920429 128.864502 
L 651.550556 126.407739 
L 652.180684 126.407739 
L 652.810812 122.108402 
L 653.440939 122.108402 
L 654.071067 121.494212 
L 654.701194 119.037448 
L 657.851832 119.037448 
L 658.48196 117.809066 
L 659.112088 117.809066 
L 659.742215 117.194876 
L 660.372343 115.352303 
L 661.632598 115.352303 
L 662.262726 114.123921 
L 662.892853 114.738112 
L 663.522981 114.738112 
L 664.783236 117.194876 
L 665.413364 117.809066 
L 666.043491 117.809066 
L 666.673619 116.580685 
L 667.303747 114.123921 
L 667.933874 112.895539 
L 668.564002 112.895539 
L 669.19413 112.281349 
L 669.824257 112.281349 
L 670.454385 112.895539 
L 671.084512 112.895539 
L 671.71464 112.281349 
L 672.344768 111.052967 
L 673.605023 111.052967 
L 674.235151 111.667158 
L 674.865278 113.50973 
L 676.125533 113.50973 
L 677.385789 111.052967 
L 678.015916 108.596203 
L 678.646044 108.596203 
L 679.276171 109.824585 
L 680.536427 109.824585 
L 681.166554 110.438776 
L 681.796682 109.824585 
L 682.42681 112.281349 
L 683.056937 111.667158 
L 683.687065 112.281349 
L 684.94732 112.281349 
L 685.577448 113.50973 
L 686.837703 113.50973 
L 687.46783 114.123921 
L 688.097958 115.966494 
L 689.988341 115.966494 
L 690.618469 114.738112 
L 691.248596 114.738112 
L 691.878724 114.123921 
L 692.508851 114.123921 
L 693.138979 117.194876 
L 693.769107 116.580685 
L 694.399234 117.194876 
L 695.029362 116.580685 
L 695.65949 119.037448 
L 696.289617 119.037448 
L 696.919745 120.880021 
L 697.549872 122.108402 
L 698.18 122.108402 
L 698.18 122.108402 
" clip-path="url(#p0107522124)" style="fill: none; stroke: #dd8452; stroke-width: 1.5; stroke-linecap: round"/>
   </g>
   <g id="patch_21">
    <path d="M 577.825625 162.645 
L 577.825625 14.625 
" style="fill: none; stroke: #000000; stroke-width: 0.25; stroke-linejoin: miter; stroke-linecap: square"/>
   </g>
   <g id="patch_22">
    <path d="M 698.18 162.645 
L 698.18 14.625 
" style="fill: none; stroke: #000000; stroke-width: 0.25; stroke-linejoin: miter; stroke-linecap: square"/>
   </g>
   <g id="patch_23">
    <path d="M 577.825625 162.645 
L 698.18 162.645 
" style="fill: none; stroke: #000000; stroke-width: 0.25; stroke-linejoin: miter; stroke-linecap: square"/>
   </g>
   <g id="patch_24">
    <path d="M 577.825625 14.625 
L 698.18 14.625 
" style="fill: none; stroke: #000000; stroke-width: 0.25; stroke-linejoin: miter; stroke-linecap: square"/>
   </g>
   <g id="text_55">
    <text style="fill: #262626; font: 12px 'Arial', 'DejaVu Sans', 'Liberation Sans', 'Bitstream Vera Sans', sans-serif; text-anchor: middle" x="638.002813" y="8.625" transform="rotate(-0 638.002813 8.625)">Lapatinib 250 nM</text>
   </g>
   <g id="legend_4">
    <g id="patch_25">
     <path d="M 639.170625 104.280313 
L 691.18 104.280313 
Q 693.18 104.280313 693.18 102.280313 
L 693.18 74.989688 
Q 693.18 72.989688 691.18 72.989688 
L 639.170625 72.989688 
Q 637.170625 72.989688 637.170625 74.989688 
L 637.170625 102.280313 
Q 637.170625 104.280313 639.170625 104.280313 
z
" style="fill: #ffffff; opacity: 0.8; stroke: #cccccc; stroke-linejoin: miter"/>
    </g>
    <g id="line2d_89">
     <path d="M 641.170625 80.6475 
L 651.170625 80.6475 
L 661.170625 80.6475 
" style="fill: none; stroke: #4c72b0; stroke-width: 1.5; stroke-linecap: round"/>
    </g>
    <g id="text_56">
     <text style="fill: #262626; font: 10px 'Arial', 'DejaVu Sans', 'Liberation Sans', 'Bitstream Vera Sans', sans-serif; text-anchor: start" x="669.170625" y="84.1475" transform="rotate(-0 669.170625 84.1475)">G1</text>
    </g>
    <g id="line2d_90">
     <path d="M 641.170625 94.792813 
L 651.170625 94.792813 
L 661.170625 94.792813 
" style="fill: none; stroke: #dd8452; stroke-width: 1.5; stroke-linecap: round"/>
    </g>
    <g id="text_57">
     <text style="fill: #262626; font: 10px 'Arial', 'DejaVu Sans', 'Liberation Sans', 'Bitstream Vera Sans', sans-serif; text-anchor: start" x="669.170625" y="98.292813" transform="rotate(-0 669.170625 98.292813)">SG2</text>
    </g>
   </g>
  </g>
 </g>
 <defs>
  <clipPath id="p16deaf3958">
   <rect x="45.9425" y="14.625" width="120.354375" height="148.02"/>
  </clipPath>
  <clipPath id="p31fc132732">
   <rect x="223.236875" y="14.625" width="120.354375" height="148.02"/>
  </clipPath>
  <clipPath id="pde35045382">
   <rect x="400.53125" y="14.625" width="120.354375" height="148.02"/>
  </clipPath>
  <clipPath id="p0107522124">
   <rect x="577.825625" y="14.625" width="120.354375" height="148.02"/>
  </clipPath>
 </defs>
</svg>
