<?xml version="1.0" encoding="utf-8" standalone="no"?>
<!DOCTYPE svg PUBLIC "-//W3C//DTD SVG 1.1//EN"
  "http://www.w3.org/Graphics/SVG/1.1/DTD/svg11.dtd">
<!-- Created with matplotlib (https://matplotlib.org/) -->
<svg height="209.99952pt" version="1.1" viewBox="0 0 497.99952 209.99952" width="497.99952pt" xmlns="http://www.w3.org/2000/svg" xmlns:xlink="http://www.w3.org/1999/xlink">
 <defs>
  <style type="text/css">
*{stroke-linecap:butt;stroke-linejoin:round;}
  </style>
 </defs>
 <g id="figure_1">
  <g id="patch_1">
   <path d="M 0 209.99952 
L 497.99952 209.99952 
L 497.99952 0 
L 0 0 
z
" style="fill:#ffffff;"/>
  </g>
  <g id="axes_1">
   <g id="patch_2">
    <path d="M 31.027828 184.775567 
L 159.75952 184.775567 
L 159.75952 12.012563 
L 31.027828 12.012563 
z
" style="fill:#ffffff;"/>
   </g>
   <g id="matplotlib.axis_1">
    <g id="xtick_1">
     <g id="line2d_1">
      <path clip-path="url(#p309e999d99)" d="M 36.879269 184.775567 
L 36.879269 12.012563 
" style="fill:none;stroke:#000000;stroke-linecap:round;stroke-opacity:0.25;"/>
     </g>
     <g id="line2d_2">
      <defs>
       <path d="M 0 3 
L 0 -3 
" id="m3a7c8f76f8" style="stroke:#262626;stroke-width:0.5;"/>
      </defs>
      <g>
       <use style="fill:#262626;stroke:#262626;stroke-width:0.5;" x="36.879269" xlink:href="#m3a7c8f76f8" y="184.775567"/>
      </g>
     </g>
     <g id="text_1">
      <!-- 1 -->
      <defs>
       <path d="M 37.25 0 
L 28.46875 0 
L 28.46875 56 
Q 25.296875 52.984375 20.140625 49.953125 
Q 14.984375 46.921875 10.890625 45.40625 
L 10.890625 53.90625 
Q 18.265625 57.375 23.78125 62.296875 
Q 29.296875 67.234375 31.59375 71.875 
L 37.25 71.875 
z
" id="ArialMT-49"/>
      </defs>
      <g style="fill:#262626;" transform="translate(34.738308 196.787083)scale(0.077 -0.077)">
       <use xlink:href="#ArialMT-49"/>
      </g>
     </g>
    </g>
    <g id="xtick_2">
     <g id="line2d_3">
      <path clip-path="url(#p309e999d99)" d="M 56.38407 184.775567 
L 56.38407 12.012563 
" style="fill:none;stroke:#000000;stroke-linecap:round;stroke-opacity:0.25;"/>
     </g>
     <g id="line2d_4">
      <g>
       <use style="fill:#262626;stroke:#262626;stroke-width:0.5;" x="56.38407" xlink:href="#m3a7c8f76f8" y="184.775567"/>
      </g>
     </g>
     <g id="text_2">
      <!-- 2 -->
      <defs>
       <path d="M 50.34375 8.453125 
L 50.34375 0 
L 3.03125 0 
Q 2.9375 3.171875 4.046875 6.109375 
Q 5.859375 10.9375 9.828125 15.625 
Q 13.8125 20.3125 21.34375 26.46875 
Q 33.015625 36.03125 37.109375 41.625 
Q 41.21875 47.21875 41.21875 52.203125 
Q 41.21875 57.421875 37.46875 61 
Q 33.734375 64.59375 27.734375 64.59375 
Q 21.390625 64.59375 17.578125 60.78125 
Q 13.765625 56.984375 13.71875 50.25 
L 4.6875 51.171875 
Q 5.609375 61.28125 11.65625 66.578125 
Q 17.71875 71.875 27.9375 71.875 
Q 38.234375 71.875 44.234375 66.15625 
Q 50.25 60.453125 50.25 52 
Q 50.25 47.703125 48.484375 43.546875 
Q 46.734375 39.40625 42.65625 34.8125 
Q 38.578125 30.21875 29.109375 22.21875 
Q 21.1875 15.578125 18.9375 13.203125 
Q 16.703125 10.84375 15.234375 8.453125 
z
" id="ArialMT-50"/>
      </defs>
      <g style="fill:#262626;" transform="translate(54.24311 196.787083)scale(0.077 -0.077)">
       <use xlink:href="#ArialMT-50"/>
      </g>
     </g>
    </g>
    <g id="xtick_3">
     <g id="line2d_5">
      <path clip-path="url(#p309e999d99)" d="M 75.888872 184.775567 
L 75.888872 12.012563 
" style="fill:none;stroke:#000000;stroke-linecap:round;stroke-opacity:0.25;"/>
     </g>
     <g id="line2d_6">
      <g>
       <use style="fill:#262626;stroke:#262626;stroke-width:0.5;" x="75.888872" xlink:href="#m3a7c8f76f8" y="184.775567"/>
      </g>
     </g>
     <g id="text_3">
      <!-- 3 -->
      <defs>
       <path d="M 4.203125 18.890625 
L 12.984375 20.0625 
Q 14.5 12.59375 18.140625 9.296875 
Q 21.78125 6 27 6 
Q 33.203125 6 37.46875 10.296875 
Q 41.75 14.59375 41.75 20.953125 
Q 41.75 27 37.796875 30.921875 
Q 33.84375 34.859375 27.734375 34.859375 
Q 25.25 34.859375 21.53125 33.890625 
L 22.515625 41.609375 
Q 23.390625 41.5 23.921875 41.5 
Q 29.546875 41.5 34.03125 44.421875 
Q 38.53125 47.359375 38.53125 53.46875 
Q 38.53125 58.296875 35.25 61.46875 
Q 31.984375 64.65625 26.8125 64.65625 
Q 21.6875 64.65625 18.265625 61.421875 
Q 14.84375 58.203125 13.875 51.765625 
L 5.078125 53.328125 
Q 6.6875 62.15625 12.390625 67.015625 
Q 18.109375 71.875 26.609375 71.875 
Q 32.46875 71.875 37.390625 69.359375 
Q 42.328125 66.84375 44.9375 62.5 
Q 47.5625 58.15625 47.5625 53.265625 
Q 47.5625 48.640625 45.0625 44.828125 
Q 42.578125 41.015625 37.703125 38.765625 
Q 44.046875 37.3125 47.5625 32.6875 
Q 51.078125 28.078125 51.078125 21.140625 
Q 51.078125 11.765625 44.234375 5.25 
Q 37.40625 -1.265625 26.953125 -1.265625 
Q 17.53125 -1.265625 11.296875 4.34375 
Q 5.078125 9.96875 4.203125 18.890625 
z
" id="ArialMT-51"/>
      </defs>
      <g style="fill:#262626;" transform="translate(73.747911 196.787083)scale(0.077 -0.077)">
       <use xlink:href="#ArialMT-51"/>
      </g>
     </g>
    </g>
    <g id="xtick_4">
     <g id="line2d_7">
      <path clip-path="url(#p309e999d99)" d="M 95.393674 184.775567 
L 95.393674 12.012563 
" style="fill:none;stroke:#000000;stroke-linecap:round;stroke-opacity:0.25;"/>
     </g>
     <g id="line2d_8">
      <g>
       <use style="fill:#262626;stroke:#262626;stroke-width:0.5;" x="95.393674" xlink:href="#m3a7c8f76f8" y="184.775567"/>
      </g>
     </g>
     <g id="text_4">
      <!-- 4 -->
      <defs>
       <path d="M 32.328125 0 
L 32.328125 17.140625 
L 1.265625 17.140625 
L 1.265625 25.203125 
L 33.9375 71.578125 
L 41.109375 71.578125 
L 41.109375 25.203125 
L 50.78125 25.203125 
L 50.78125 17.140625 
L 41.109375 17.140625 
L 41.109375 0 
z
M 32.328125 25.203125 
L 32.328125 57.46875 
L 9.90625 25.203125 
z
" id="ArialMT-52"/>
      </defs>
      <g style="fill:#262626;" transform="translate(93.252713 196.787083)scale(0.077 -0.077)">
       <use xlink:href="#ArialMT-52"/>
      </g>
     </g>
    </g>
    <g id="xtick_5">
     <g id="line2d_9">
      <path clip-path="url(#p309e999d99)" d="M 114.898476 184.775567 
L 114.898476 12.012563 
" style="fill:none;stroke:#000000;stroke-linecap:round;stroke-opacity:0.25;"/>
     </g>
     <g id="line2d_10">
      <g>
       <use style="fill:#262626;stroke:#262626;stroke-width:0.5;" x="114.898476" xlink:href="#m3a7c8f76f8" y="184.775567"/>
      </g>
     </g>
     <g id="text_5">
      <!-- 5 -->
      <defs>
       <path d="M 4.15625 18.75 
L 13.375 19.53125 
Q 14.40625 12.796875 18.140625 9.390625 
Q 21.875 6 27.15625 6 
Q 33.5 6 37.890625 10.78125 
Q 42.28125 15.578125 42.28125 23.484375 
Q 42.28125 31 38.0625 35.34375 
Q 33.84375 39.703125 27 39.703125 
Q 22.75 39.703125 19.328125 37.765625 
Q 15.921875 35.84375 13.96875 32.765625 
L 5.71875 33.84375 
L 12.640625 70.609375 
L 48.25 70.609375 
L 48.25 62.203125 
L 19.671875 62.203125 
L 15.828125 42.96875 
Q 22.265625 47.46875 29.34375 47.46875 
Q 38.71875 47.46875 45.15625 40.96875 
Q 51.609375 34.46875 51.609375 24.265625 
Q 51.609375 14.546875 45.953125 7.46875 
Q 39.0625 -1.21875 27.15625 -1.21875 
Q 17.390625 -1.21875 11.203125 4.25 
Q 5.03125 9.71875 4.15625 18.75 
z
" id="ArialMT-53"/>
      </defs>
      <g style="fill:#262626;" transform="translate(112.757515 196.787083)scale(0.077 -0.077)">
       <use xlink:href="#ArialMT-53"/>
      </g>
     </g>
    </g>
    <g id="xtick_6">
     <g id="line2d_11">
      <path clip-path="url(#p309e999d99)" d="M 134.403278 184.775567 
L 134.403278 12.012563 
" style="fill:none;stroke:#000000;stroke-linecap:round;stroke-opacity:0.25;"/>
     </g>
     <g id="line2d_12">
      <g>
       <use style="fill:#262626;stroke:#262626;stroke-width:0.5;" x="134.403278" xlink:href="#m3a7c8f76f8" y="184.775567"/>
      </g>
     </g>
     <g id="text_6">
      <!-- 6 -->
      <defs>
       <path d="M 49.75 54.046875 
L 41.015625 53.375 
Q 39.84375 58.546875 37.703125 60.890625 
Q 34.125 64.65625 28.90625 64.65625 
Q 24.703125 64.65625 21.53125 62.3125 
Q 17.390625 59.28125 14.984375 53.46875 
Q 12.59375 47.65625 12.5 36.921875 
Q 15.671875 41.75 20.265625 44.09375 
Q 24.859375 46.4375 29.890625 46.4375 
Q 38.671875 46.4375 44.84375 39.96875 
Q 51.03125 33.5 51.03125 23.25 
Q 51.03125 16.5 48.125 10.71875 
Q 45.21875 4.9375 40.140625 1.859375 
Q 35.0625 -1.21875 28.609375 -1.21875 
Q 17.625 -1.21875 10.6875 6.859375 
Q 3.765625 14.9375 3.765625 33.5 
Q 3.765625 54.25 11.421875 63.671875 
Q 18.109375 71.875 29.4375 71.875 
Q 37.890625 71.875 43.28125 67.140625 
Q 48.6875 62.40625 49.75 54.046875 
z
M 13.875 23.1875 
Q 13.875 18.65625 15.796875 14.5 
Q 17.71875 10.359375 21.1875 8.171875 
Q 24.65625 6 28.46875 6 
Q 34.03125 6 38.03125 10.484375 
Q 42.046875 14.984375 42.046875 22.703125 
Q 42.046875 30.125 38.078125 34.390625 
Q 34.125 38.671875 28.125 38.671875 
Q 22.171875 38.671875 18.015625 34.390625 
Q 13.875 30.125 13.875 23.1875 
z
" id="ArialMT-54"/>
      </defs>
      <g style="fill:#262626;" transform="translate(132.262317 196.787083)scale(0.077 -0.077)">
       <use xlink:href="#ArialMT-54"/>
      </g>
     </g>
    </g>
    <g id="xtick_7">
     <g id="line2d_13">
      <path clip-path="url(#p309e999d99)" d="M 153.908079 184.775567 
L 153.908079 12.012563 
" style="fill:none;stroke:#000000;stroke-linecap:round;stroke-opacity:0.25;"/>
     </g>
     <g id="line2d_14">
      <g>
       <use style="fill:#262626;stroke:#262626;stroke-width:0.5;" x="153.908079" xlink:href="#m3a7c8f76f8" y="184.775567"/>
      </g>
     </g>
     <g id="text_7">
      <!-- 7 -->
      <defs>
       <path d="M 4.734375 62.203125 
L 4.734375 70.65625 
L 51.078125 70.65625 
L 51.078125 63.8125 
Q 44.234375 56.546875 37.515625 44.484375 
Q 30.8125 32.421875 27.15625 19.671875 
Q 24.515625 10.6875 23.78125 0 
L 14.75 0 
Q 14.890625 8.453125 18.0625 20.40625 
Q 21.234375 32.375 27.171875 43.484375 
Q 33.109375 54.59375 39.796875 62.203125 
z
" id="ArialMT-55"/>
      </defs>
      <g style="fill:#262626;" transform="translate(151.767119 196.787083)scale(0.077 -0.077)">
       <use xlink:href="#ArialMT-55"/>
      </g>
     </g>
    </g>
    <g id="text_8">
     <!-- Number of States Predicted -->
     <defs>
      <path d="M 7.625 0 
L 7.625 71.578125 
L 17.328125 71.578125 
L 54.9375 15.375 
L 54.9375 71.578125 
L 64.015625 71.578125 
L 64.015625 0 
L 54.296875 0 
L 16.703125 56.25 
L 16.703125 0 
z
" id="ArialMT-78"/>
      <path d="M 40.578125 0 
L 40.578125 7.625 
Q 34.515625 -1.171875 24.125 -1.171875 
Q 19.53125 -1.171875 15.546875 0.578125 
Q 11.578125 2.34375 9.640625 5 
Q 7.71875 7.671875 6.9375 11.53125 
Q 6.390625 14.109375 6.390625 19.734375 
L 6.390625 51.859375 
L 15.1875 51.859375 
L 15.1875 23.09375 
Q 15.1875 16.21875 15.71875 13.8125 
Q 16.546875 10.359375 19.234375 8.375 
Q 21.921875 6.390625 25.875 6.390625 
Q 29.828125 6.390625 33.296875 8.421875 
Q 36.765625 10.453125 38.203125 13.9375 
Q 39.65625 17.4375 39.65625 24.078125 
L 39.65625 51.859375 
L 48.4375 51.859375 
L 48.4375 0 
z
" id="ArialMT-117"/>
      <path d="M 6.59375 0 
L 6.59375 51.859375 
L 14.453125 51.859375 
L 14.453125 44.578125 
Q 16.890625 48.390625 20.9375 50.703125 
Q 25 53.03125 30.171875 53.03125 
Q 35.9375 53.03125 39.625 50.640625 
Q 43.3125 48.25 44.828125 43.953125 
Q 50.984375 53.03125 60.84375 53.03125 
Q 68.5625 53.03125 72.703125 48.75 
Q 76.859375 44.484375 76.859375 35.59375 
L 76.859375 0 
L 68.109375 0 
L 68.109375 32.671875 
Q 68.109375 37.9375 67.25 40.25 
Q 66.40625 42.578125 64.15625 43.984375 
Q 61.921875 45.40625 58.890625 45.40625 
Q 53.421875 45.40625 49.796875 41.765625 
Q 46.1875 38.140625 46.1875 30.125 
L 46.1875 0 
L 37.40625 0 
L 37.40625 33.6875 
Q 37.40625 39.546875 35.25 42.46875 
Q 33.109375 45.40625 28.21875 45.40625 
Q 24.515625 45.40625 21.359375 43.453125 
Q 18.21875 41.5 16.796875 37.734375 
Q 15.375 33.984375 15.375 26.90625 
L 15.375 0 
z
" id="ArialMT-109"/>
      <path d="M 14.703125 0 
L 6.546875 0 
L 6.546875 71.578125 
L 15.328125 71.578125 
L 15.328125 46.046875 
Q 20.90625 53.03125 29.546875 53.03125 
Q 34.328125 53.03125 38.59375 51.09375 
Q 42.875 49.171875 45.625 45.671875 
Q 48.390625 42.1875 49.953125 37.25 
Q 51.515625 32.328125 51.515625 26.703125 
Q 51.515625 13.375 44.921875 6.09375 
Q 38.328125 -1.171875 29.109375 -1.171875 
Q 19.921875 -1.171875 14.703125 6.5 
z
M 14.59375 26.3125 
Q 14.59375 17 17.140625 12.84375 
Q 21.296875 6.0625 28.375 6.0625 
Q 34.125 6.0625 38.328125 11.0625 
Q 42.53125 16.0625 42.53125 25.984375 
Q 42.53125 36.140625 38.5 40.96875 
Q 34.46875 45.796875 28.765625 45.796875 
Q 23 45.796875 18.796875 40.796875 
Q 14.59375 35.796875 14.59375 26.3125 
z
" id="ArialMT-98"/>
      <path d="M 42.09375 16.703125 
L 51.171875 15.578125 
Q 49.03125 7.625 43.21875 3.21875 
Q 37.40625 -1.171875 28.375 -1.171875 
Q 17 -1.171875 10.328125 5.828125 
Q 3.65625 12.84375 3.65625 25.484375 
Q 3.65625 38.578125 10.390625 45.796875 
Q 17.140625 53.03125 27.875 53.03125 
Q 38.28125 53.03125 44.875 45.953125 
Q 51.46875 38.875 51.46875 26.03125 
Q 51.46875 25.25 51.421875 23.6875 
L 12.75 23.6875 
Q 13.234375 15.140625 17.578125 10.59375 
Q 21.921875 6.0625 28.421875 6.0625 
Q 33.25 6.0625 36.671875 8.59375 
Q 40.09375 11.140625 42.09375 16.703125 
z
M 13.234375 30.90625 
L 42.1875 30.90625 
Q 41.609375 37.453125 38.875 40.71875 
Q 34.671875 45.796875 27.984375 45.796875 
Q 21.921875 45.796875 17.796875 41.75 
Q 13.671875 37.703125 13.234375 30.90625 
z
" id="ArialMT-101"/>
      <path d="M 6.5 0 
L 6.5 51.859375 
L 14.40625 51.859375 
L 14.40625 44 
Q 17.4375 49.515625 20 51.265625 
Q 22.5625 53.03125 25.640625 53.03125 
Q 30.078125 53.03125 34.671875 50.203125 
L 31.640625 42.046875 
Q 28.421875 43.953125 25.203125 43.953125 
Q 22.3125 43.953125 20.015625 42.21875 
Q 17.71875 40.484375 16.75 37.40625 
Q 15.28125 32.71875 15.28125 27.15625 
L 15.28125 0 
z
" id="ArialMT-114"/>
      <path id="ArialMT-32"/>
      <path d="M 3.328125 25.921875 
Q 3.328125 40.328125 11.328125 47.265625 
Q 18.015625 53.03125 27.640625 53.03125 
Q 38.328125 53.03125 45.109375 46.015625 
Q 51.90625 39.015625 51.90625 26.65625 
Q 51.90625 16.65625 48.90625 10.90625 
Q 45.90625 5.171875 40.15625 2 
Q 34.421875 -1.171875 27.640625 -1.171875 
Q 16.75 -1.171875 10.03125 5.8125 
Q 3.328125 12.796875 3.328125 25.921875 
z
M 12.359375 25.921875 
Q 12.359375 15.96875 16.703125 11.015625 
Q 21.046875 6.0625 27.640625 6.0625 
Q 34.1875 6.0625 38.53125 11.03125 
Q 42.875 16.015625 42.875 26.21875 
Q 42.875 35.84375 38.5 40.796875 
Q 34.125 45.75 27.640625 45.75 
Q 21.046875 45.75 16.703125 40.8125 
Q 12.359375 35.890625 12.359375 25.921875 
z
" id="ArialMT-111"/>
      <path d="M 8.6875 0 
L 8.6875 45.015625 
L 0.921875 45.015625 
L 0.921875 51.859375 
L 8.6875 51.859375 
L 8.6875 57.375 
Q 8.6875 62.59375 9.625 65.140625 
Q 10.890625 68.5625 14.078125 70.671875 
Q 17.28125 72.796875 23.046875 72.796875 
Q 26.765625 72.796875 31.25 71.921875 
L 29.9375 64.265625 
Q 27.203125 64.75 24.75 64.75 
Q 20.75 64.75 19.09375 63.03125 
Q 17.4375 61.328125 17.4375 56.640625 
L 17.4375 51.859375 
L 27.546875 51.859375 
L 27.546875 45.015625 
L 17.4375 45.015625 
L 17.4375 0 
z
" id="ArialMT-102"/>
      <path d="M 4.5 23 
L 13.421875 23.78125 
Q 14.0625 18.40625 16.375 14.96875 
Q 18.703125 11.53125 23.578125 9.40625 
Q 28.46875 7.28125 34.578125 7.28125 
Q 39.984375 7.28125 44.140625 8.890625 
Q 48.296875 10.5 50.3125 13.296875 
Q 52.34375 16.109375 52.34375 19.4375 
Q 52.34375 22.796875 50.390625 25.3125 
Q 48.4375 27.828125 43.953125 29.546875 
Q 41.0625 30.671875 31.203125 33.03125 
Q 21.34375 35.40625 17.390625 37.5 
Q 12.25 40.1875 9.734375 44.15625 
Q 7.234375 48.140625 7.234375 53.078125 
Q 7.234375 58.5 10.296875 63.203125 
Q 13.375 67.921875 19.28125 70.359375 
Q 25.203125 72.796875 32.421875 72.796875 
Q 40.375 72.796875 46.453125 70.234375 
Q 52.546875 67.671875 55.8125 62.6875 
Q 59.078125 57.71875 59.328125 51.421875 
L 50.25 50.734375 
Q 49.515625 57.515625 45.28125 60.984375 
Q 41.0625 64.453125 32.8125 64.453125 
Q 24.21875 64.453125 20.28125 61.296875 
Q 16.359375 58.15625 16.359375 53.71875 
Q 16.359375 49.859375 19.140625 47.359375 
Q 21.875 44.875 33.421875 42.265625 
Q 44.96875 39.65625 49.265625 37.703125 
Q 55.515625 34.8125 58.484375 30.390625 
Q 61.46875 25.984375 61.46875 20.21875 
Q 61.46875 14.5 58.203125 9.4375 
Q 54.9375 4.390625 48.796875 1.578125 
Q 42.671875 -1.21875 35.015625 -1.21875 
Q 25.296875 -1.21875 18.71875 1.609375 
Q 12.15625 4.4375 8.421875 10.125 
Q 4.6875 15.828125 4.5 23 
z
" id="ArialMT-83"/>
      <path d="M 25.78125 7.859375 
L 27.046875 0.09375 
Q 23.34375 -0.6875 20.40625 -0.6875 
Q 15.625 -0.6875 12.984375 0.828125 
Q 10.359375 2.34375 9.28125 4.8125 
Q 8.203125 7.28125 8.203125 15.1875 
L 8.203125 45.015625 
L 1.765625 45.015625 
L 1.765625 51.859375 
L 8.203125 51.859375 
L 8.203125 64.703125 
L 16.9375 69.96875 
L 16.9375 51.859375 
L 25.78125 51.859375 
L 25.78125 45.015625 
L 16.9375 45.015625 
L 16.9375 14.703125 
Q 16.9375 10.9375 17.40625 9.859375 
Q 17.875 8.796875 18.921875 8.15625 
Q 19.96875 7.515625 21.921875 7.515625 
Q 23.390625 7.515625 25.78125 7.859375 
z
" id="ArialMT-116"/>
      <path d="M 40.4375 6.390625 
Q 35.546875 2.25 31.03125 0.53125 
Q 26.515625 -1.171875 21.34375 -1.171875 
Q 12.796875 -1.171875 8.203125 3 
Q 3.609375 7.171875 3.609375 13.671875 
Q 3.609375 17.484375 5.34375 20.625 
Q 7.078125 23.78125 9.890625 25.6875 
Q 12.703125 27.59375 16.21875 28.5625 
Q 18.796875 29.25 24.03125 29.890625 
Q 34.671875 31.15625 39.703125 32.90625 
Q 39.75 34.71875 39.75 35.203125 
Q 39.75 40.578125 37.25 42.78125 
Q 33.890625 45.75 27.25 45.75 
Q 21.046875 45.75 18.09375 43.578125 
Q 15.140625 41.40625 13.71875 35.890625 
L 5.125 37.0625 
Q 6.296875 42.578125 8.984375 45.96875 
Q 11.671875 49.359375 16.75 51.1875 
Q 21.828125 53.03125 28.515625 53.03125 
Q 35.15625 53.03125 39.296875 51.46875 
Q 43.453125 49.90625 45.40625 47.53125 
Q 47.359375 45.171875 48.140625 41.546875 
Q 48.578125 39.3125 48.578125 33.453125 
L 48.578125 21.734375 
Q 48.578125 9.46875 49.140625 6.21875 
Q 49.703125 2.984375 51.375 0 
L 42.1875 0 
Q 40.828125 2.734375 40.4375 6.390625 
z
M 39.703125 26.03125 
Q 34.90625 24.078125 25.34375 22.703125 
Q 19.921875 21.921875 17.671875 20.9375 
Q 15.4375 19.96875 14.203125 18.09375 
Q 12.984375 16.21875 12.984375 13.921875 
Q 12.984375 10.40625 15.640625 8.0625 
Q 18.3125 5.71875 23.4375 5.71875 
Q 28.515625 5.71875 32.46875 7.9375 
Q 36.421875 10.15625 38.28125 14.015625 
Q 39.703125 17 39.703125 22.796875 
z
" id="ArialMT-97"/>
      <path d="M 3.078125 15.484375 
L 11.765625 16.84375 
Q 12.5 11.625 15.84375 8.84375 
Q 19.1875 6.0625 25.203125 6.0625 
Q 31.25 6.0625 34.171875 8.515625 
Q 37.109375 10.984375 37.109375 14.3125 
Q 37.109375 17.28125 34.515625 19 
Q 32.71875 20.171875 25.53125 21.96875 
Q 15.875 24.421875 12.140625 26.203125 
Q 8.40625 27.984375 6.46875 31.125 
Q 4.546875 34.28125 4.546875 38.09375 
Q 4.546875 41.546875 6.125 44.5 
Q 7.71875 47.46875 10.453125 49.421875 
Q 12.5 50.921875 16.03125 51.96875 
Q 19.578125 53.03125 23.640625 53.03125 
Q 29.734375 53.03125 34.34375 51.265625 
Q 38.96875 49.515625 41.15625 46.5 
Q 43.359375 43.5 44.1875 38.484375 
L 35.59375 37.3125 
Q 35.015625 41.3125 32.203125 43.546875 
Q 29.390625 45.796875 24.265625 45.796875 
Q 18.21875 45.796875 15.625 43.796875 
Q 13.03125 41.796875 13.03125 39.109375 
Q 13.03125 37.40625 14.109375 36.03125 
Q 15.1875 34.625 17.484375 33.6875 
Q 18.796875 33.203125 25.25 31.453125 
Q 34.578125 28.953125 38.25 27.359375 
Q 41.9375 25.78125 44.03125 22.75 
Q 46.140625 19.734375 46.140625 15.234375 
Q 46.140625 10.84375 43.578125 6.953125 
Q 41.015625 3.078125 36.171875 0.953125 
Q 31.34375 -1.171875 25.25 -1.171875 
Q 15.140625 -1.171875 9.84375 3.03125 
Q 4.546875 7.234375 3.078125 15.484375 
z
" id="ArialMT-115"/>
      <path d="M 7.71875 0 
L 7.71875 71.578125 
L 34.71875 71.578125 
Q 41.84375 71.578125 45.609375 70.90625 
Q 50.875 70.015625 54.4375 67.546875 
Q 58.015625 65.09375 60.1875 60.640625 
Q 62.359375 56.203125 62.359375 50.875 
Q 62.359375 41.75 56.546875 35.421875 
Q 50.734375 29.109375 35.546875 29.109375 
L 17.1875 29.109375 
L 17.1875 0 
z
M 17.1875 37.546875 
L 35.6875 37.546875 
Q 44.875 37.546875 48.734375 40.96875 
Q 52.59375 44.390625 52.59375 50.59375 
Q 52.59375 55.078125 50.3125 58.265625 
Q 48.046875 61.46875 44.34375 62.5 
Q 41.9375 63.140625 35.5 63.140625 
L 17.1875 63.140625 
z
" id="ArialMT-80"/>
      <path d="M 40.234375 0 
L 40.234375 6.546875 
Q 35.296875 -1.171875 25.734375 -1.171875 
Q 19.53125 -1.171875 14.328125 2.25 
Q 9.125 5.671875 6.265625 11.796875 
Q 3.421875 17.921875 3.421875 25.875 
Q 3.421875 33.640625 6 39.96875 
Q 8.59375 46.296875 13.765625 49.65625 
Q 18.953125 53.03125 25.34375 53.03125 
Q 30.03125 53.03125 33.6875 51.046875 
Q 37.359375 49.078125 39.65625 45.90625 
L 39.65625 71.578125 
L 48.390625 71.578125 
L 48.390625 0 
z
M 12.453125 25.875 
Q 12.453125 15.921875 16.640625 10.984375 
Q 20.84375 6.0625 26.5625 6.0625 
Q 32.328125 6.0625 36.34375 10.765625 
Q 40.375 15.484375 40.375 25.140625 
Q 40.375 35.796875 36.265625 40.765625 
Q 32.171875 45.75 26.171875 45.75 
Q 20.3125 45.75 16.375 40.96875 
Q 12.453125 36.1875 12.453125 25.875 
z
" id="ArialMT-100"/>
      <path d="M 6.640625 61.46875 
L 6.640625 71.578125 
L 15.4375 71.578125 
L 15.4375 61.46875 
z
M 6.640625 0 
L 6.640625 51.859375 
L 15.4375 51.859375 
L 15.4375 0 
z
" id="ArialMT-105"/>
      <path d="M 40.4375 19 
L 49.078125 17.875 
Q 47.65625 8.9375 41.8125 3.875 
Q 35.984375 -1.171875 27.484375 -1.171875 
Q 16.84375 -1.171875 10.375 5.78125 
Q 3.90625 12.75 3.90625 25.734375 
Q 3.90625 34.125 6.6875 40.421875 
Q 9.46875 46.734375 15.15625 49.875 
Q 20.84375 53.03125 27.546875 53.03125 
Q 35.984375 53.03125 41.359375 48.75 
Q 46.734375 44.484375 48.25 36.625 
L 39.703125 35.296875 
Q 38.484375 40.53125 35.375 43.15625 
Q 32.28125 45.796875 27.875 45.796875 
Q 21.234375 45.796875 17.078125 41.03125 
Q 12.9375 36.28125 12.9375 25.984375 
Q 12.9375 15.53125 16.9375 10.796875 
Q 20.953125 6.0625 27.390625 6.0625 
Q 32.5625 6.0625 36.03125 9.234375 
Q 39.5 12.40625 40.4375 19 
z
" id="ArialMT-99"/>
     </defs>
     <g style="fill:#262626;" transform="translate(43.805205 208.33002)scale(0.084 -0.084)">
      <use xlink:href="#ArialMT-78"/>
      <use x="72.216797" xlink:href="#ArialMT-117"/>
      <use x="127.832031" xlink:href="#ArialMT-109"/>
      <use x="211.132812" xlink:href="#ArialMT-98"/>
      <use x="266.748047" xlink:href="#ArialMT-101"/>
      <use x="322.363281" xlink:href="#ArialMT-114"/>
      <use x="355.664062" xlink:href="#ArialMT-32"/>
      <use x="383.447266" xlink:href="#ArialMT-111"/>
      <use x="439.0625" xlink:href="#ArialMT-102"/>
      <use x="466.845703" xlink:href="#ArialMT-32"/>
      <use x="494.628906" xlink:href="#ArialMT-83"/>
      <use x="561.328125" xlink:href="#ArialMT-116"/>
      <use x="589.111328" xlink:href="#ArialMT-97"/>
      <use x="644.726562" xlink:href="#ArialMT-116"/>
      <use x="672.509766" xlink:href="#ArialMT-101"/>
      <use x="728.125" xlink:href="#ArialMT-115"/>
      <use x="778.125" xlink:href="#ArialMT-32"/>
      <use x="805.908203" xlink:href="#ArialMT-80"/>
      <use x="872.607422" xlink:href="#ArialMT-114"/>
      <use x="905.908203" xlink:href="#ArialMT-101"/>
      <use x="961.523438" xlink:href="#ArialMT-100"/>
      <use x="1017.138672" xlink:href="#ArialMT-105"/>
      <use x="1039.355469" xlink:href="#ArialMT-99"/>
      <use x="1089.355469" xlink:href="#ArialMT-116"/>
      <use x="1117.138672" xlink:href="#ArialMT-101"/>
      <use x="1172.753906" xlink:href="#ArialMT-100"/>
     </g>
    </g>
   </g>
   <g id="matplotlib.axis_2">
    <g id="ytick_1">
     <g id="line2d_15">
      <path clip-path="url(#p309e999d99)" d="M 31.027828 184.775567 
L 159.75952 184.775567 
" style="fill:none;stroke:#000000;stroke-linecap:round;stroke-opacity:0.25;"/>
     </g>
     <g id="line2d_16">
      <defs>
       <path d="M 3 0 
L -3 -0 
" id="m596610ca8f" style="stroke:#262626;stroke-width:0.5;"/>
      </defs>
      <g>
       <use style="fill:#262626;stroke:#262626;stroke-width:0.5;" x="31.027828" xlink:href="#m596610ca8f" y="184.775567"/>
      </g>
     </g>
     <g id="text_9">
      <!-- 0 -->
      <defs>
       <path d="M 4.15625 35.296875 
Q 4.15625 48 6.765625 55.734375 
Q 9.375 63.484375 14.515625 67.671875 
Q 19.671875 71.875 27.484375 71.875 
Q 33.25 71.875 37.59375 69.546875 
Q 41.9375 67.234375 44.765625 62.859375 
Q 47.609375 58.5 49.21875 52.21875 
Q 50.828125 45.953125 50.828125 35.296875 
Q 50.828125 22.703125 48.234375 14.96875 
Q 45.65625 7.234375 40.5 3 
Q 35.359375 -1.21875 27.484375 -1.21875 
Q 17.140625 -1.21875 11.234375 6.203125 
Q 4.15625 15.140625 4.15625 35.296875 
z
M 13.1875 35.296875 
Q 13.1875 17.671875 17.3125 11.828125 
Q 21.4375 6 27.484375 6 
Q 33.546875 6 37.671875 11.859375 
Q 41.796875 17.71875 41.796875 35.296875 
Q 41.796875 52.984375 37.671875 58.78125 
Q 33.546875 64.59375 27.390625 64.59375 
Q 21.34375 64.59375 17.71875 59.46875 
Q 13.1875 52.9375 13.1875 35.296875 
z
" id="ArialMT-48"/>
      </defs>
      <g style="fill:#262626;" transform="translate(20.245906 187.531325)scale(0.077 -0.077)">
       <use xlink:href="#ArialMT-48"/>
      </g>
     </g>
    </g>
    <g id="ytick_2">
     <g id="line2d_17">
      <path clip-path="url(#p309e999d99)" d="M 31.027828 163.180191 
L 159.75952 163.180191 
" style="fill:none;stroke:#000000;stroke-linecap:round;stroke-opacity:0.25;"/>
     </g>
     <g id="line2d_18">
      <g>
       <use style="fill:#262626;stroke:#262626;stroke-width:0.5;" x="31.027828" xlink:href="#m596610ca8f" y="163.180191"/>
      </g>
     </g>
     <g id="text_10">
      <!-- 25 -->
      <g style="fill:#262626;" transform="translate(15.963984 165.935949)scale(0.077 -0.077)">
       <use xlink:href="#ArialMT-50"/>
       <use x="55.615234" xlink:href="#ArialMT-53"/>
      </g>
     </g>
    </g>
    <g id="ytick_3">
     <g id="line2d_19">
      <path clip-path="url(#p309e999d99)" d="M 31.027828 141.584816 
L 159.75952 141.584816 
" style="fill:none;stroke:#000000;stroke-linecap:round;stroke-opacity:0.25;"/>
     </g>
     <g id="line2d_20">
      <g>
       <use style="fill:#262626;stroke:#262626;stroke-width:0.5;" x="31.027828" xlink:href="#m596610ca8f" y="141.584816"/>
      </g>
     </g>
     <g id="text_11">
      <!-- 50 -->
      <g style="fill:#262626;" transform="translate(15.963984 144.340574)scale(0.077 -0.077)">
       <use xlink:href="#ArialMT-53"/>
       <use x="55.615234" xlink:href="#ArialMT-48"/>
      </g>
     </g>
    </g>
    <g id="ytick_4">
     <g id="line2d_21">
      <path clip-path="url(#p309e999d99)" d="M 31.027828 119.98944 
L 159.75952 119.98944 
" style="fill:none;stroke:#000000;stroke-linecap:round;stroke-opacity:0.25;"/>
     </g>
     <g id="line2d_22">
      <g>
       <use style="fill:#262626;stroke:#262626;stroke-width:0.5;" x="31.027828" xlink:href="#m596610ca8f" y="119.98944"/>
      </g>
     </g>
     <g id="text_12">
      <!-- 75 -->
      <g style="fill:#262626;" transform="translate(15.963984 122.745198)scale(0.077 -0.077)">
       <use xlink:href="#ArialMT-55"/>
       <use x="55.615234" xlink:href="#ArialMT-53"/>
      </g>
     </g>
    </g>
    <g id="ytick_5">
     <g id="line2d_23">
      <path clip-path="url(#p309e999d99)" d="M 31.027828 98.394065 
L 159.75952 98.394065 
" style="fill:none;stroke:#000000;stroke-linecap:round;stroke-opacity:0.25;"/>
     </g>
     <g id="line2d_24">
      <g>
       <use style="fill:#262626;stroke:#262626;stroke-width:0.5;" x="31.027828" xlink:href="#m596610ca8f" y="98.394065"/>
      </g>
     </g>
     <g id="text_13">
      <!-- 100 -->
      <g style="fill:#262626;" transform="translate(11.682062 101.149823)scale(0.077 -0.077)">
       <use xlink:href="#ArialMT-49"/>
       <use x="55.615234" xlink:href="#ArialMT-48"/>
       <use x="111.230469" xlink:href="#ArialMT-48"/>
      </g>
     </g>
    </g>
    <g id="ytick_6">
     <g id="line2d_25">
      <path clip-path="url(#p309e999d99)" d="M 31.027828 76.798689 
L 159.75952 76.798689 
" style="fill:none;stroke:#000000;stroke-linecap:round;stroke-opacity:0.25;"/>
     </g>
     <g id="line2d_26">
      <g>
       <use style="fill:#262626;stroke:#262626;stroke-width:0.5;" x="31.027828" xlink:href="#m596610ca8f" y="76.798689"/>
      </g>
     </g>
     <g id="text_14">
      <!-- 125 -->
      <g style="fill:#262626;" transform="translate(11.682062 79.554447)scale(0.077 -0.077)">
       <use xlink:href="#ArialMT-49"/>
       <use x="55.615234" xlink:href="#ArialMT-50"/>
       <use x="111.230469" xlink:href="#ArialMT-53"/>
      </g>
     </g>
    </g>
    <g id="ytick_7">
     <g id="line2d_27">
      <path clip-path="url(#p309e999d99)" d="M 31.027828 55.203314 
L 159.75952 55.203314 
" style="fill:none;stroke:#000000;stroke-linecap:round;stroke-opacity:0.25;"/>
     </g>
     <g id="line2d_28">
      <g>
       <use style="fill:#262626;stroke:#262626;stroke-width:0.5;" x="31.027828" xlink:href="#m596610ca8f" y="55.203314"/>
      </g>
     </g>
     <g id="text_15">
      <!-- 150 -->
      <g style="fill:#262626;" transform="translate(11.682062 57.959071)scale(0.077 -0.077)">
       <use xlink:href="#ArialMT-49"/>
       <use x="55.615234" xlink:href="#ArialMT-53"/>
       <use x="111.230469" xlink:href="#ArialMT-48"/>
      </g>
     </g>
    </g>
    <g id="ytick_8">
     <g id="line2d_29">
      <path clip-path="url(#p309e999d99)" d="M 31.027828 33.607938 
L 159.75952 33.607938 
" style="fill:none;stroke:#000000;stroke-linecap:round;stroke-opacity:0.25;"/>
     </g>
     <g id="line2d_30">
      <g>
       <use style="fill:#262626;stroke:#262626;stroke-width:0.5;" x="31.027828" xlink:href="#m596610ca8f" y="33.607938"/>
      </g>
     </g>
     <g id="text_16">
      <!-- 175 -->
      <g style="fill:#262626;" transform="translate(11.682062 36.363696)scale(0.077 -0.077)">
       <use xlink:href="#ArialMT-49"/>
       <use x="55.615234" xlink:href="#ArialMT-55"/>
       <use x="111.230469" xlink:href="#ArialMT-53"/>
      </g>
     </g>
    </g>
    <g id="ytick_9">
     <g id="line2d_31">
      <path clip-path="url(#p309e999d99)" d="M 31.027828 12.012563 
L 159.75952 12.012563 
" style="fill:none;stroke:#000000;stroke-linecap:round;stroke-opacity:0.25;"/>
     </g>
     <g id="line2d_32">
      <g>
       <use style="fill:#262626;stroke:#262626;stroke-width:0.5;" x="31.027828" xlink:href="#m596610ca8f" y="12.012563"/>
      </g>
     </g>
     <g id="text_17">
      <!-- 200 -->
      <g style="fill:#262626;" transform="translate(11.682062 14.76832)scale(0.077 -0.077)">
       <use xlink:href="#ArialMT-50"/>
       <use x="55.615234" xlink:href="#ArialMT-48"/>
       <use x="111.230469" xlink:href="#ArialMT-48"/>
      </g>
     </g>
    </g>
    <g id="text_18">
     <!-- Normalized AIC -->
     <defs>
      <path d="M 6.390625 0 
L 6.390625 71.578125 
L 15.1875 71.578125 
L 15.1875 0 
z
" id="ArialMT-108"/>
      <path d="M 1.953125 0 
L 1.953125 7.125 
L 34.96875 45.015625 
Q 29.34375 44.734375 25.046875 44.734375 
L 3.90625 44.734375 
L 3.90625 51.859375 
L 46.296875 51.859375 
L 46.296875 46.046875 
L 18.21875 13.140625 
L 12.796875 7.125 
Q 18.703125 7.5625 23.875 7.5625 
L 47.859375 7.5625 
L 47.859375 0 
z
" id="ArialMT-122"/>
      <path d="M -0.140625 0 
L 27.34375 71.578125 
L 37.546875 71.578125 
L 66.84375 0 
L 56.0625 0 
L 47.703125 21.6875 
L 17.78125 21.6875 
L 9.90625 0 
z
M 20.515625 29.390625 
L 44.78125 29.390625 
L 37.3125 49.21875 
Q 33.890625 58.25 32.234375 64.0625 
Q 30.859375 57.171875 28.375 50.390625 
z
" id="ArialMT-65"/>
      <path d="M 9.328125 0 
L 9.328125 71.578125 
L 18.796875 71.578125 
L 18.796875 0 
z
" id="ArialMT-73"/>
      <path d="M 58.796875 25.09375 
L 68.265625 22.703125 
Q 65.28125 11.03125 57.546875 4.90625 
Q 49.8125 -1.21875 38.625 -1.21875 
Q 27.046875 -1.21875 19.796875 3.484375 
Q 12.546875 8.203125 8.765625 17.140625 
Q 4.984375 26.078125 4.984375 36.328125 
Q 4.984375 47.515625 9.25 55.828125 
Q 13.53125 64.15625 21.40625 68.46875 
Q 29.296875 72.796875 38.765625 72.796875 
Q 49.515625 72.796875 56.828125 67.328125 
Q 64.15625 61.859375 67.046875 51.953125 
L 57.71875 49.75 
Q 55.21875 57.5625 50.484375 61.125 
Q 45.75 64.703125 38.578125 64.703125 
Q 30.328125 64.703125 24.78125 60.734375 
Q 19.234375 56.78125 16.984375 50.109375 
Q 14.75 43.453125 14.75 36.375 
Q 14.75 27.25 17.40625 20.4375 
Q 20.0625 13.625 25.671875 10.25 
Q 31.296875 6.890625 37.84375 6.890625 
Q 45.796875 6.890625 51.3125 11.46875 
Q 56.84375 16.0625 58.796875 25.09375 
z
" id="ArialMT-67"/>
     </defs>
     <g style="fill:#262626;" transform="translate(6.012562 127.570283)rotate(-90)scale(0.084 -0.084)">
      <use xlink:href="#ArialMT-78"/>
      <use x="72.216797" xlink:href="#ArialMT-111"/>
      <use x="127.832031" xlink:href="#ArialMT-114"/>
      <use x="161.132812" xlink:href="#ArialMT-109"/>
      <use x="244.433594" xlink:href="#ArialMT-97"/>
      <use x="300.048828" xlink:href="#ArialMT-108"/>
      <use x="322.265625" xlink:href="#ArialMT-105"/>
      <use x="344.482422" xlink:href="#ArialMT-122"/>
      <use x="394.482422" xlink:href="#ArialMT-101"/>
      <use x="450.097656" xlink:href="#ArialMT-100"/>
      <use x="505.712891" xlink:href="#ArialMT-32"/>
      <use x="527.996094" xlink:href="#ArialMT-65"/>
      <use x="594.695312" xlink:href="#ArialMT-73"/>
      <use x="622.478516" xlink:href="#ArialMT-67"/>
     </g>
    </g>
   </g>
   <g id="line2d_33">
    <path clip-path="url(#p309e999d99)" d="M 36.879269 184.775567 
L 56.38407 174.616848 
L 75.888872 160.154652 
L 95.393674 143.536421 
L 114.898476 122.128 
L 134.403278 97.132356 
L 153.908079 74.139271 
" style="fill:none;stroke:#1a1a1a;stroke-linecap:round;stroke-opacity:0.5;stroke-width:1.5;"/>
   </g>
   <g id="line2d_34">
    <path clip-path="url(#p309e999d99)" d="M 36.879269 184.775567 
L 56.38407 175.440713 
L 75.888872 161.609907 
L 95.393674 143.516668 
L 114.898476 125.228688 
L 134.403278 101.061895 
L 153.908079 73.89632 
" style="fill:none;stroke:#1a1a1a;stroke-linecap:round;stroke-opacity:0.5;stroke-width:1.5;"/>
   </g>
   <g id="line2d_35">
    <path clip-path="url(#p309e999d99)" d="M 36.879269 184.775567 
L 56.38407 175.825581 
L 75.888872 162.886621 
L 95.393674 144.91283 
L 114.898476 123.955289 
L 134.403278 103.870051 
L 153.908079 73.185389 
" style="fill:none;stroke:#1a1a1a;stroke-linecap:round;stroke-opacity:0.5;stroke-width:1.5;"/>
   </g>
   <g id="line2d_36">
    <path clip-path="url(#p309e999d99)" d="M 36.879269 184.775567 
L 56.38407 172.879389 
L 75.888872 160.333545 
L 95.393674 142.826848 
L 114.898476 122.404845 
L 134.403278 96.585058 
L 153.908079 70.835162 
" style="fill:none;stroke:#1a1a1a;stroke-linecap:round;stroke-opacity:0.5;stroke-width:1.5;"/>
   </g>
   <g id="line2d_37">
    <path clip-path="url(#p309e999d99)" d="M 36.879269 184.775567 
L 56.38407 174.571527 
L 75.888872 161.525604 
L 95.393674 145.570829 
L 114.898476 123.968256 
L 134.403278 101.110043 
L 153.908079 76.698104 
" style="fill:none;stroke:#1a1a1a;stroke-linecap:round;stroke-opacity:0.5;stroke-width:1.5;"/>
   </g>
   <g id="line2d_38">
    <path clip-path="url(#p309e999d99)" d="M 36.879269 184.775567 
L 56.38407 175.015502 
L 75.888872 160.377324 
L 95.393674 143.242645 
L 114.898476 124.514188 
L 134.403278 100.570872 
L 153.908079 72.978536 
" style="fill:none;stroke:#1a1a1a;stroke-linecap:round;stroke-opacity:0.5;stroke-width:1.5;"/>
   </g>
   <g id="line2d_39">
    <path clip-path="url(#p309e999d99)" d="M 36.879269 184.775567 
L 56.38407 175.129247 
L 75.888872 161.3062 
L 95.393674 144.144188 
L 114.898476 124.498207 
L 134.403278 100.348867 
L 153.908079 74.589052 
" style="fill:none;stroke:#1a1a1a;stroke-linecap:round;stroke-opacity:0.5;stroke-width:1.5;"/>
   </g>
   <g id="line2d_40">
    <path clip-path="url(#p309e999d99)" d="M 36.879269 184.775567 
L 56.38407 174.277032 
L 75.888872 160.916606 
L 95.393674 143.304772 
L 114.898476 123.595428 
L 134.403278 98.660193 
L 153.908079 73.321271 
" style="fill:none;stroke:#1a1a1a;stroke-linecap:round;stroke-opacity:0.5;stroke-width:1.5;"/>
   </g>
   <g id="line2d_41">
    <path clip-path="url(#p309e999d99)" d="M 36.879269 184.775567 
L 56.38407 174.283259 
L 75.888872 161.64782 
L 95.393674 143.51105 
L 114.898476 124.034552 
L 134.403278 101.536333 
L 153.908079 72.815409 
" style="fill:none;stroke:#1a1a1a;stroke-linecap:round;stroke-opacity:0.5;stroke-width:1.5;"/>
   </g>
   <g id="line2d_42">
    <path clip-path="url(#p309e999d99)" d="M 36.879269 184.775567 
L 56.38407 175.154332 
L 75.888872 161.181805 
L 95.393674 143.780679 
L 114.898476 123.776924 
L 134.403278 98.47657 
L 153.908079 70.674871 
" style="fill:none;stroke:#1a1a1a;stroke-linecap:round;stroke-opacity:0.5;stroke-width:1.5;"/>
   </g>
   <g id="patch_3">
    <path d="M 31.027828 184.775567 
L 31.027828 12.012563 
" style="fill:none;stroke:#000000;stroke-linecap:square;stroke-linejoin:miter;stroke-width:0.25;"/>
   </g>
   <g id="patch_4">
    <path d="M 159.75952 184.775567 
L 159.75952 12.012563 
" style="fill:none;stroke:#000000;stroke-linecap:square;stroke-linejoin:miter;stroke-width:0.25;"/>
   </g>
   <g id="patch_5">
    <path d="M 31.027828 184.775567 
L 159.75952 184.775567 
" style="fill:none;stroke:#000000;stroke-linecap:square;stroke-linejoin:miter;stroke-width:0.25;"/>
   </g>
   <g id="patch_6">
    <path d="M 31.027828 12.012563 
L 159.75952 12.012563 
" style="fill:none;stroke:#000000;stroke-linecap:square;stroke-linejoin:miter;stroke-width:0.25;"/>
   </g>
   <g id="text_19">
    <!-- AIC Under 1 True State -->
    <defs>
     <path d="M 54.6875 71.578125 
L 64.15625 71.578125 
L 64.15625 30.21875 
Q 64.15625 19.4375 61.71875 13.078125 
Q 59.28125 6.734375 52.90625 2.75 
Q 46.53125 -1.21875 36.1875 -1.21875 
Q 26.125 -1.21875 19.71875 2.25 
Q 13.328125 5.71875 10.59375 12.28125 
Q 7.859375 18.84375 7.859375 30.21875 
L 7.859375 71.578125 
L 17.328125 71.578125 
L 17.328125 30.28125 
Q 17.328125 20.953125 19.0625 16.53125 
Q 20.796875 12.109375 25.015625 9.71875 
Q 29.25 7.328125 35.359375 7.328125 
Q 45.796875 7.328125 50.234375 12.0625 
Q 54.6875 16.796875 54.6875 30.28125 
z
" id="ArialMT-85"/>
     <path d="M 6.59375 0 
L 6.59375 51.859375 
L 14.5 51.859375 
L 14.5 44.484375 
Q 20.21875 53.03125 31 53.03125 
Q 35.6875 53.03125 39.625 51.34375 
Q 43.5625 49.65625 45.515625 46.921875 
Q 47.46875 44.1875 48.25 40.4375 
Q 48.734375 37.984375 48.734375 31.890625 
L 48.734375 0 
L 39.9375 0 
L 39.9375 31.546875 
Q 39.9375 36.921875 38.90625 39.578125 
Q 37.890625 42.234375 35.28125 43.8125 
Q 32.671875 45.40625 29.15625 45.40625 
Q 23.53125 45.40625 19.453125 41.84375 
Q 15.375 38.28125 15.375 28.328125 
L 15.375 0 
z
" id="ArialMT-110"/>
     <path d="M 25.921875 0 
L 25.921875 63.140625 
L 2.34375 63.140625 
L 2.34375 71.578125 
L 59.078125 71.578125 
L 59.078125 63.140625 
L 35.40625 63.140625 
L 35.40625 0 
z
" id="ArialMT-84"/>
    </defs>
    <g style="fill:#262626;" transform="translate(51.74058 6.012563)scale(0.084 -0.084)">
     <use xlink:href="#ArialMT-65"/>
     <use x="66.699219" xlink:href="#ArialMT-73"/>
     <use x="94.482422" xlink:href="#ArialMT-67"/>
     <use x="166.699219" xlink:href="#ArialMT-32"/>
     <use x="194.482422" xlink:href="#ArialMT-85"/>
     <use x="266.699219" xlink:href="#ArialMT-110"/>
     <use x="322.314453" xlink:href="#ArialMT-100"/>
     <use x="377.929688" xlink:href="#ArialMT-101"/>
     <use x="433.544922" xlink:href="#ArialMT-114"/>
     <use x="466.845703" xlink:href="#ArialMT-32"/>
     <use x="494.628906" xlink:href="#ArialMT-49"/>
     <use x="550.244141" xlink:href="#ArialMT-32"/>
     <use x="576.277344" xlink:href="#ArialMT-84"/>
     <use x="633.611328" xlink:href="#ArialMT-114"/>
     <use x="666.912109" xlink:href="#ArialMT-117"/>
     <use x="722.527344" xlink:href="#ArialMT-101"/>
     <use x="778.142578" xlink:href="#ArialMT-32"/>
     <use x="805.925781" xlink:href="#ArialMT-83"/>
     <use x="872.625" xlink:href="#ArialMT-116"/>
     <use x="900.408203" xlink:href="#ArialMT-97"/>
     <use x="956.023438" xlink:href="#ArialMT-116"/>
     <use x="983.806641" xlink:href="#ArialMT-101"/>
    </g>
   </g>
  </g>
  <g id="axes_2">
   <g id="patch_7">
    <path d="M 200.147828 184.775567 
L 328.87952 184.775567 
L 328.87952 12.012563 
L 200.147828 12.012563 
z
" style="fill:#ffffff;"/>
   </g>
   <g id="matplotlib.axis_3">
    <g id="xtick_8">
     <g id="line2d_43">
      <path clip-path="url(#p4c8c82974a)" d="M 205.999269 184.775567 
L 205.999269 12.012563 
" style="fill:none;stroke:#000000;stroke-linecap:round;stroke-opacity:0.25;"/>
     </g>
     <g id="line2d_44">
      <g>
       <use style="fill:#262626;stroke:#262626;stroke-width:0.5;" x="205.999269" xlink:href="#m3a7c8f76f8" y="184.775567"/>
      </g>
     </g>
     <g id="text_20">
      <!-- 1 -->
      <g style="fill:#262626;" transform="translate(203.858308 196.787083)scale(0.077 -0.077)">
       <use xlink:href="#ArialMT-49"/>
      </g>
     </g>
    </g>
    <g id="xtick_9">
     <g id="line2d_45">
      <path clip-path="url(#p4c8c82974a)" d="M 225.50407 184.775567 
L 225.50407 12.012563 
" style="fill:none;stroke:#000000;stroke-linecap:round;stroke-opacity:0.25;"/>
     </g>
     <g id="line2d_46">
      <g>
       <use style="fill:#262626;stroke:#262626;stroke-width:0.5;" x="225.50407" xlink:href="#m3a7c8f76f8" y="184.775567"/>
      </g>
     </g>
     <g id="text_21">
      <!-- 2 -->
      <g style="fill:#262626;" transform="translate(223.36311 196.787083)scale(0.077 -0.077)">
       <use xlink:href="#ArialMT-50"/>
      </g>
     </g>
    </g>
    <g id="xtick_10">
     <g id="line2d_47">
      <path clip-path="url(#p4c8c82974a)" d="M 245.008872 184.775567 
L 245.008872 12.012563 
" style="fill:none;stroke:#000000;stroke-linecap:round;stroke-opacity:0.25;"/>
     </g>
     <g id="line2d_48">
      <g>
       <use style="fill:#262626;stroke:#262626;stroke-width:0.5;" x="245.008872" xlink:href="#m3a7c8f76f8" y="184.775567"/>
      </g>
     </g>
     <g id="text_22">
      <!-- 3 -->
      <g style="fill:#262626;" transform="translate(242.867911 196.787083)scale(0.077 -0.077)">
       <use xlink:href="#ArialMT-51"/>
      </g>
     </g>
    </g>
    <g id="xtick_11">
     <g id="line2d_49">
      <path clip-path="url(#p4c8c82974a)" d="M 264.513674 184.775567 
L 264.513674 12.012563 
" style="fill:none;stroke:#000000;stroke-linecap:round;stroke-opacity:0.25;"/>
     </g>
     <g id="line2d_50">
      <g>
       <use style="fill:#262626;stroke:#262626;stroke-width:0.5;" x="264.513674" xlink:href="#m3a7c8f76f8" y="184.775567"/>
      </g>
     </g>
     <g id="text_23">
      <!-- 4 -->
      <g style="fill:#262626;" transform="translate(262.372713 196.787083)scale(0.077 -0.077)">
       <use xlink:href="#ArialMT-52"/>
      </g>
     </g>
    </g>
    <g id="xtick_12">
     <g id="line2d_51">
      <path clip-path="url(#p4c8c82974a)" d="M 284.018476 184.775567 
L 284.018476 12.012563 
" style="fill:none;stroke:#000000;stroke-linecap:round;stroke-opacity:0.25;"/>
     </g>
     <g id="line2d_52">
      <g>
       <use style="fill:#262626;stroke:#262626;stroke-width:0.5;" x="284.018476" xlink:href="#m3a7c8f76f8" y="184.775567"/>
      </g>
     </g>
     <g id="text_24">
      <!-- 5 -->
      <g style="fill:#262626;" transform="translate(281.877515 196.787083)scale(0.077 -0.077)">
       <use xlink:href="#ArialMT-53"/>
      </g>
     </g>
    </g>
    <g id="xtick_13">
     <g id="line2d_53">
      <path clip-path="url(#p4c8c82974a)" d="M 303.523278 184.775567 
L 303.523278 12.012563 
" style="fill:none;stroke:#000000;stroke-linecap:round;stroke-opacity:0.25;"/>
     </g>
     <g id="line2d_54">
      <g>
       <use style="fill:#262626;stroke:#262626;stroke-width:0.5;" x="303.523278" xlink:href="#m3a7c8f76f8" y="184.775567"/>
      </g>
     </g>
     <g id="text_25">
      <!-- 6 -->
      <g style="fill:#262626;" transform="translate(301.382317 196.787083)scale(0.077 -0.077)">
       <use xlink:href="#ArialMT-54"/>
      </g>
     </g>
    </g>
    <g id="xtick_14">
     <g id="line2d_55">
      <path clip-path="url(#p4c8c82974a)" d="M 323.028079 184.775567 
L 323.028079 12.012563 
" style="fill:none;stroke:#000000;stroke-linecap:round;stroke-opacity:0.25;"/>
     </g>
     <g id="line2d_56">
      <g>
       <use style="fill:#262626;stroke:#262626;stroke-width:0.5;" x="323.028079" xlink:href="#m3a7c8f76f8" y="184.775567"/>
      </g>
     </g>
     <g id="text_26">
      <!-- 7 -->
      <g style="fill:#262626;" transform="translate(320.887119 196.787083)scale(0.077 -0.077)">
       <use xlink:href="#ArialMT-55"/>
      </g>
     </g>
    </g>
    <g id="text_27">
     <!-- Number of States Predicted -->
     <g style="fill:#262626;" transform="translate(212.925205 208.33002)scale(0.084 -0.084)">
      <use xlink:href="#ArialMT-78"/>
      <use x="72.216797" xlink:href="#ArialMT-117"/>
      <use x="127.832031" xlink:href="#ArialMT-109"/>
      <use x="211.132812" xlink:href="#ArialMT-98"/>
      <use x="266.748047" xlink:href="#ArialMT-101"/>
      <use x="322.363281" xlink:href="#ArialMT-114"/>
      <use x="355.664062" xlink:href="#ArialMT-32"/>
      <use x="383.447266" xlink:href="#ArialMT-111"/>
      <use x="439.0625" xlink:href="#ArialMT-102"/>
      <use x="466.845703" xlink:href="#ArialMT-32"/>
      <use x="494.628906" xlink:href="#ArialMT-83"/>
      <use x="561.328125" xlink:href="#ArialMT-116"/>
      <use x="589.111328" xlink:href="#ArialMT-97"/>
      <use x="644.726562" xlink:href="#ArialMT-116"/>
      <use x="672.509766" xlink:href="#ArialMT-101"/>
      <use x="728.125" xlink:href="#ArialMT-115"/>
      <use x="778.125" xlink:href="#ArialMT-32"/>
      <use x="805.908203" xlink:href="#ArialMT-80"/>
      <use x="872.607422" xlink:href="#ArialMT-114"/>
      <use x="905.908203" xlink:href="#ArialMT-101"/>
      <use x="961.523438" xlink:href="#ArialMT-100"/>
      <use x="1017.138672" xlink:href="#ArialMT-105"/>
      <use x="1039.355469" xlink:href="#ArialMT-99"/>
      <use x="1089.355469" xlink:href="#ArialMT-116"/>
      <use x="1117.138672" xlink:href="#ArialMT-101"/>
      <use x="1172.753906" xlink:href="#ArialMT-100"/>
     </g>
    </g>
   </g>
   <g id="matplotlib.axis_4">
    <g id="ytick_10">
     <g id="line2d_57">
      <path clip-path="url(#p4c8c82974a)" d="M 200.147828 184.775567 
L 328.87952 184.775567 
" style="fill:none;stroke:#000000;stroke-linecap:round;stroke-opacity:0.25;"/>
     </g>
     <g id="line2d_58">
      <g>
       <use style="fill:#262626;stroke:#262626;stroke-width:0.5;" x="200.147828" xlink:href="#m596610ca8f" y="184.775567"/>
      </g>
     </g>
     <g id="text_28">
      <!-- 0 -->
      <g style="fill:#262626;" transform="translate(189.365906 187.531325)scale(0.077 -0.077)">
       <use xlink:href="#ArialMT-48"/>
      </g>
     </g>
    </g>
    <g id="ytick_11">
     <g id="line2d_59">
      <path clip-path="url(#p4c8c82974a)" d="M 200.147828 163.180191 
L 328.87952 163.180191 
" style="fill:none;stroke:#000000;stroke-linecap:round;stroke-opacity:0.25;"/>
     </g>
     <g id="line2d_60">
      <g>
       <use style="fill:#262626;stroke:#262626;stroke-width:0.5;" x="200.147828" xlink:href="#m596610ca8f" y="163.180191"/>
      </g>
     </g>
     <g id="text_29">
      <!-- 25 -->
      <g style="fill:#262626;" transform="translate(185.083984 165.935949)scale(0.077 -0.077)">
       <use xlink:href="#ArialMT-50"/>
       <use x="55.615234" xlink:href="#ArialMT-53"/>
      </g>
     </g>
    </g>
    <g id="ytick_12">
     <g id="line2d_61">
      <path clip-path="url(#p4c8c82974a)" d="M 200.147828 141.584816 
L 328.87952 141.584816 
" style="fill:none;stroke:#000000;stroke-linecap:round;stroke-opacity:0.25;"/>
     </g>
     <g id="line2d_62">
      <g>
       <use style="fill:#262626;stroke:#262626;stroke-width:0.5;" x="200.147828" xlink:href="#m596610ca8f" y="141.584816"/>
      </g>
     </g>
     <g id="text_30">
      <!-- 50 -->
      <g style="fill:#262626;" transform="translate(185.083984 144.340574)scale(0.077 -0.077)">
       <use xlink:href="#ArialMT-53"/>
       <use x="55.615234" xlink:href="#ArialMT-48"/>
      </g>
     </g>
    </g>
    <g id="ytick_13">
     <g id="line2d_63">
      <path clip-path="url(#p4c8c82974a)" d="M 200.147828 119.98944 
L 328.87952 119.98944 
" style="fill:none;stroke:#000000;stroke-linecap:round;stroke-opacity:0.25;"/>
     </g>
     <g id="line2d_64">
      <g>
       <use style="fill:#262626;stroke:#262626;stroke-width:0.5;" x="200.147828" xlink:href="#m596610ca8f" y="119.98944"/>
      </g>
     </g>
     <g id="text_31">
      <!-- 75 -->
      <g style="fill:#262626;" transform="translate(185.083984 122.745198)scale(0.077 -0.077)">
       <use xlink:href="#ArialMT-55"/>
       <use x="55.615234" xlink:href="#ArialMT-53"/>
      </g>
     </g>
    </g>
    <g id="ytick_14">
     <g id="line2d_65">
      <path clip-path="url(#p4c8c82974a)" d="M 200.147828 98.394065 
L 328.87952 98.394065 
" style="fill:none;stroke:#000000;stroke-linecap:round;stroke-opacity:0.25;"/>
     </g>
     <g id="line2d_66">
      <g>
       <use style="fill:#262626;stroke:#262626;stroke-width:0.5;" x="200.147828" xlink:href="#m596610ca8f" y="98.394065"/>
      </g>
     </g>
     <g id="text_32">
      <!-- 100 -->
      <g style="fill:#262626;" transform="translate(180.802063 101.149823)scale(0.077 -0.077)">
       <use xlink:href="#ArialMT-49"/>
       <use x="55.615234" xlink:href="#ArialMT-48"/>
       <use x="111.230469" xlink:href="#ArialMT-48"/>
      </g>
     </g>
    </g>
    <g id="ytick_15">
     <g id="line2d_67">
      <path clip-path="url(#p4c8c82974a)" d="M 200.147828 76.798689 
L 328.87952 76.798689 
" style="fill:none;stroke:#000000;stroke-linecap:round;stroke-opacity:0.25;"/>
     </g>
     <g id="line2d_68">
      <g>
       <use style="fill:#262626;stroke:#262626;stroke-width:0.5;" x="200.147828" xlink:href="#m596610ca8f" y="76.798689"/>
      </g>
     </g>
     <g id="text_33">
      <!-- 125 -->
      <g style="fill:#262626;" transform="translate(180.802063 79.554447)scale(0.077 -0.077)">
       <use xlink:href="#ArialMT-49"/>
       <use x="55.615234" xlink:href="#ArialMT-50"/>
       <use x="111.230469" xlink:href="#ArialMT-53"/>
      </g>
     </g>
    </g>
    <g id="ytick_16">
     <g id="line2d_69">
      <path clip-path="url(#p4c8c82974a)" d="M 200.147828 55.203314 
L 328.87952 55.203314 
" style="fill:none;stroke:#000000;stroke-linecap:round;stroke-opacity:0.25;"/>
     </g>
     <g id="line2d_70">
      <g>
       <use style="fill:#262626;stroke:#262626;stroke-width:0.5;" x="200.147828" xlink:href="#m596610ca8f" y="55.203314"/>
      </g>
     </g>
     <g id="text_34">
      <!-- 150 -->
      <g style="fill:#262626;" transform="translate(180.802063 57.959071)scale(0.077 -0.077)">
       <use xlink:href="#ArialMT-49"/>
       <use x="55.615234" xlink:href="#ArialMT-53"/>
       <use x="111.230469" xlink:href="#ArialMT-48"/>
      </g>
     </g>
    </g>
    <g id="ytick_17">
     <g id="line2d_71">
      <path clip-path="url(#p4c8c82974a)" d="M 200.147828 33.607938 
L 328.87952 33.607938 
" style="fill:none;stroke:#000000;stroke-linecap:round;stroke-opacity:0.25;"/>
     </g>
     <g id="line2d_72">
      <g>
       <use style="fill:#262626;stroke:#262626;stroke-width:0.5;" x="200.147828" xlink:href="#m596610ca8f" y="33.607938"/>
      </g>
     </g>
     <g id="text_35">
      <!-- 175 -->
      <g style="fill:#262626;" transform="translate(180.802063 36.363696)scale(0.077 -0.077)">
       <use xlink:href="#ArialMT-49"/>
       <use x="55.615234" xlink:href="#ArialMT-55"/>
       <use x="111.230469" xlink:href="#ArialMT-53"/>
      </g>
     </g>
    </g>
    <g id="ytick_18">
     <g id="line2d_73">
      <path clip-path="url(#p4c8c82974a)" d="M 200.147828 12.012563 
L 328.87952 12.012563 
" style="fill:none;stroke:#000000;stroke-linecap:round;stroke-opacity:0.25;"/>
     </g>
     <g id="line2d_74">
      <g>
       <use style="fill:#262626;stroke:#262626;stroke-width:0.5;" x="200.147828" xlink:href="#m596610ca8f" y="12.012563"/>
      </g>
     </g>
     <g id="text_36">
      <!-- 200 -->
      <g style="fill:#262626;" transform="translate(180.802063 14.76832)scale(0.077 -0.077)">
       <use xlink:href="#ArialMT-50"/>
       <use x="55.615234" xlink:href="#ArialMT-48"/>
       <use x="111.230469" xlink:href="#ArialMT-48"/>
      </g>
     </g>
    </g>
    <g id="text_37">
     <!-- Normalized AIC -->
     <g style="fill:#262626;" transform="translate(175.132563 127.570283)rotate(-90)scale(0.084 -0.084)">
      <use xlink:href="#ArialMT-78"/>
      <use x="72.216797" xlink:href="#ArialMT-111"/>
      <use x="127.832031" xlink:href="#ArialMT-114"/>
      <use x="161.132812" xlink:href="#ArialMT-109"/>
      <use x="244.433594" xlink:href="#ArialMT-97"/>
      <use x="300.048828" xlink:href="#ArialMT-108"/>
      <use x="322.265625" xlink:href="#ArialMT-105"/>
      <use x="344.482422" xlink:href="#ArialMT-122"/>
      <use x="394.482422" xlink:href="#ArialMT-101"/>
      <use x="450.097656" xlink:href="#ArialMT-100"/>
      <use x="505.712891" xlink:href="#ArialMT-32"/>
      <use x="527.996094" xlink:href="#ArialMT-65"/>
      <use x="594.695312" xlink:href="#ArialMT-73"/>
      <use x="622.478516" xlink:href="#ArialMT-67"/>
     </g>
    </g>
   </g>
   <g id="line2d_75">
    <path clip-path="url(#p4c8c82974a)" d="M 205.999269 21.965375 
L 225.50407 184.775567 
L 245.008872 171.057101 
L 264.513674 153.691015 
L 284.018476 133.425018 
L 303.523278 110.353951 
L 323.028079 83.798306 
" style="fill:none;stroke:#1a1a1a;stroke-linecap:round;stroke-opacity:0.5;stroke-width:1.5;"/>
   </g>
   <g id="line2d_76">
    <path clip-path="url(#p4c8c82974a)" d="M 205.999269 57.582806 
L 225.50407 184.775567 
L 245.008872 171.133575 
L 264.513674 159.211941 
L 284.018476 139.080599 
L 303.523278 113.267489 
L 323.028079 91.85312 
" style="fill:none;stroke:#1a1a1a;stroke-linecap:round;stroke-opacity:0.5;stroke-width:1.5;"/>
   </g>
   <g id="line2d_77">
    <path clip-path="url(#p4c8c82974a)" d="M 205.999269 60.468928 
L 225.50407 184.775567 
L 245.008872 172.987341 
L 264.513674 154.015326 
L 284.018476 134.298259 
L 303.523278 111.224105 
L 323.028079 80.200503 
" style="fill:none;stroke:#1a1a1a;stroke-linecap:round;stroke-opacity:0.5;stroke-width:1.5;"/>
   </g>
   <g id="line2d_78">
    <path clip-path="url(#p4c8c82974a)" d="M 205.999269 61.456504 
L 225.50407 184.775567 
L 245.008872 171.623673 
L 264.513674 156.020828 
L 284.018476 135.891759 
L 303.523278 112.205751 
L 323.028079 86.254997 
" style="fill:none;stroke:#1a1a1a;stroke-linecap:round;stroke-opacity:0.5;stroke-width:1.5;"/>
   </g>
   <g id="line2d_79">
    <path clip-path="url(#p4c8c82974a)" d="M 205.999269 25.873095 
L 225.50407 184.775567 
L 245.008872 170.954527 
L 264.513674 153.678226 
L 284.018476 132.946666 
L 303.523278 110.894481 
L 323.028079 80.759347 
" style="fill:none;stroke:#1a1a1a;stroke-linecap:round;stroke-opacity:0.5;stroke-width:1.5;"/>
   </g>
   <g id="line2d_80">
    <path clip-path="url(#p4c8c82974a)" d="M 205.999269 32.512903 
L 225.50407 184.775567 
L 245.008872 170.954527 
L 264.513674 153.678226 
L 284.018476 132.946666 
L 303.523278 109.437596 
L 323.028079 85.013298 
" style="fill:none;stroke:#1a1a1a;stroke-linecap:round;stroke-opacity:0.5;stroke-width:1.5;"/>
   </g>
   <g id="line2d_81">
    <path clip-path="url(#p4c8c82974a)" d="M 205.999269 43.581514 
L 225.50407 184.775567 
L 245.008872 170.303655 
L 264.513674 154.202469 
L 284.018476 135.151755 
L 303.523278 108.171389 
L 323.028079 79.507023 
" style="fill:none;stroke:#1a1a1a;stroke-linecap:round;stroke-opacity:0.5;stroke-width:1.5;"/>
   </g>
   <g id="line2d_82">
    <path clip-path="url(#p4c8c82974a)" d="M 205.999269 49.839651 
L 225.50407 184.775567 
L 245.008872 171.991721 
L 264.513674 156.025732 
L 284.018476 134.744476 
L 303.523278 110.492674 
L 323.028079 81.06174 
" style="fill:none;stroke:#1a1a1a;stroke-linecap:round;stroke-opacity:0.5;stroke-width:1.5;"/>
   </g>
   <g id="line2d_83">
    <path clip-path="url(#p4c8c82974a)" d="M 205.999269 37.541832 
L 225.50407 184.775567 
L 245.008872 171.716493 
L 264.513674 153.904908 
L 284.018476 135.656022 
L 303.523278 115.926692 
L 323.028079 85.339957 
" style="fill:none;stroke:#1a1a1a;stroke-linecap:round;stroke-opacity:0.5;stroke-width:1.5;"/>
   </g>
   <g id="line2d_84">
    <path clip-path="url(#p4c8c82974a)" d="M 205.999269 65.668179 
L 225.50407 184.775567 
L 245.008872 170.355578 
L 264.513674 153.251563 
L 284.018476 133.356401 
L 303.523278 108.295483 
L 323.028079 83.895741 
" style="fill:none;stroke:#1a1a1a;stroke-linecap:round;stroke-opacity:0.5;stroke-width:1.5;"/>
   </g>
   <g id="patch_8">
    <path d="M 200.147828 184.775567 
L 200.147828 12.012563 
" style="fill:none;stroke:#000000;stroke-linecap:square;stroke-linejoin:miter;stroke-width:0.25;"/>
   </g>
   <g id="patch_9">
    <path d="M 328.87952 184.775567 
L 328.87952 12.012563 
" style="fill:none;stroke:#000000;stroke-linecap:square;stroke-linejoin:miter;stroke-width:0.25;"/>
   </g>
   <g id="patch_10">
    <path d="M 200.147828 184.775567 
L 328.87952 184.775567 
" style="fill:none;stroke:#000000;stroke-linecap:square;stroke-linejoin:miter;stroke-width:0.25;"/>
   </g>
   <g id="patch_11">
    <path d="M 200.147828 12.012563 
L 328.87952 12.012563 
" style="fill:none;stroke:#000000;stroke-linecap:square;stroke-linejoin:miter;stroke-width:0.25;"/>
   </g>
   <g id="text_38">
    <!-- AIC Under 2 True States -->
    <g style="fill:#262626;" transform="translate(218.76058 6.012563)scale(0.084 -0.084)">
     <use xlink:href="#ArialMT-65"/>
     <use x="66.699219" xlink:href="#ArialMT-73"/>
     <use x="94.482422" xlink:href="#ArialMT-67"/>
     <use x="166.699219" xlink:href="#ArialMT-32"/>
     <use x="194.482422" xlink:href="#ArialMT-85"/>
     <use x="266.699219" xlink:href="#ArialMT-110"/>
     <use x="322.314453" xlink:href="#ArialMT-100"/>
     <use x="377.929688" xlink:href="#ArialMT-101"/>
     <use x="433.544922" xlink:href="#ArialMT-114"/>
     <use x="466.845703" xlink:href="#ArialMT-32"/>
     <use x="494.628906" xlink:href="#ArialMT-50"/>
     <use x="550.244141" xlink:href="#ArialMT-32"/>
     <use x="576.277344" xlink:href="#ArialMT-84"/>
     <use x="633.611328" xlink:href="#ArialMT-114"/>
     <use x="666.912109" xlink:href="#ArialMT-117"/>
     <use x="722.527344" xlink:href="#ArialMT-101"/>
     <use x="778.142578" xlink:href="#ArialMT-32"/>
     <use x="805.925781" xlink:href="#ArialMT-83"/>
     <use x="872.625" xlink:href="#ArialMT-116"/>
     <use x="900.408203" xlink:href="#ArialMT-97"/>
     <use x="956.023438" xlink:href="#ArialMT-116"/>
     <use x="983.806641" xlink:href="#ArialMT-101"/>
     <use x="1039.421875" xlink:href="#ArialMT-115"/>
    </g>
   </g>
  </g>
  <g id="axes_3">
   <g id="patch_12">
    <path d="M 369.267828 184.775567 
L 497.99952 184.775567 
L 497.99952 12.012563 
L 369.267828 12.012563 
z
" style="fill:#ffffff;"/>
   </g>
   <g id="matplotlib.axis_5">
    <g id="xtick_15">
     <g id="line2d_85">
      <path clip-path="url(#pb8e865b09a)" d="M 375.119269 184.775567 
L 375.119269 12.012563 
" style="fill:none;stroke:#000000;stroke-linecap:round;stroke-opacity:0.25;"/>
     </g>
     <g id="line2d_86">
      <g>
       <use style="fill:#262626;stroke:#262626;stroke-width:0.5;" x="375.119269" xlink:href="#m3a7c8f76f8" y="184.775567"/>
      </g>
     </g>
     <g id="text_39">
      <!-- 1 -->
      <g style="fill:#262626;" transform="translate(372.978308 196.787083)scale(0.077 -0.077)">
       <use xlink:href="#ArialMT-49"/>
      </g>
     </g>
    </g>
    <g id="xtick_16">
     <g id="line2d_87">
      <path clip-path="url(#pb8e865b09a)" d="M 394.62407 184.775567 
L 394.62407 12.012563 
" style="fill:none;stroke:#000000;stroke-linecap:round;stroke-opacity:0.25;"/>
     </g>
     <g id="line2d_88">
      <g>
       <use style="fill:#262626;stroke:#262626;stroke-width:0.5;" x="394.62407" xlink:href="#m3a7c8f76f8" y="184.775567"/>
      </g>
     </g>
     <g id="text_40">
      <!-- 2 -->
      <g style="fill:#262626;" transform="translate(392.48311 196.787083)scale(0.077 -0.077)">
       <use xlink:href="#ArialMT-50"/>
      </g>
     </g>
    </g>
    <g id="xtick_17">
     <g id="line2d_89">
      <path clip-path="url(#pb8e865b09a)" d="M 414.128872 184.775567 
L 414.128872 12.012563 
" style="fill:none;stroke:#000000;stroke-linecap:round;stroke-opacity:0.25;"/>
     </g>
     <g id="line2d_90">
      <g>
       <use style="fill:#262626;stroke:#262626;stroke-width:0.5;" x="414.128872" xlink:href="#m3a7c8f76f8" y="184.775567"/>
      </g>
     </g>
     <g id="text_41">
      <!-- 3 -->
      <g style="fill:#262626;" transform="translate(411.987911 196.787083)scale(0.077 -0.077)">
       <use xlink:href="#ArialMT-51"/>
      </g>
     </g>
    </g>
    <g id="xtick_18">
     <g id="line2d_91">
      <path clip-path="url(#pb8e865b09a)" d="M 433.633674 184.775567 
L 433.633674 12.012563 
" style="fill:none;stroke:#000000;stroke-linecap:round;stroke-opacity:0.25;"/>
     </g>
     <g id="line2d_92">
      <g>
       <use style="fill:#262626;stroke:#262626;stroke-width:0.5;" x="433.633674" xlink:href="#m3a7c8f76f8" y="184.775567"/>
      </g>
     </g>
     <g id="text_42">
      <!-- 4 -->
      <g style="fill:#262626;" transform="translate(431.492713 196.787083)scale(0.077 -0.077)">
       <use xlink:href="#ArialMT-52"/>
      </g>
     </g>
    </g>
    <g id="xtick_19">
     <g id="line2d_93">
      <path clip-path="url(#pb8e865b09a)" d="M 453.138476 184.775567 
L 453.138476 12.012563 
" style="fill:none;stroke:#000000;stroke-linecap:round;stroke-opacity:0.25;"/>
     </g>
     <g id="line2d_94">
      <g>
       <use style="fill:#262626;stroke:#262626;stroke-width:0.5;" x="453.138476" xlink:href="#m3a7c8f76f8" y="184.775567"/>
      </g>
     </g>
     <g id="text_43">
      <!-- 5 -->
      <g style="fill:#262626;" transform="translate(450.997515 196.787083)scale(0.077 -0.077)">
       <use xlink:href="#ArialMT-53"/>
      </g>
     </g>
    </g>
    <g id="xtick_20">
     <g id="line2d_95">
      <path clip-path="url(#pb8e865b09a)" d="M 472.643278 184.775567 
L 472.643278 12.012563 
" style="fill:none;stroke:#000000;stroke-linecap:round;stroke-opacity:0.25;"/>
     </g>
     <g id="line2d_96">
      <g>
       <use style="fill:#262626;stroke:#262626;stroke-width:0.5;" x="472.643278" xlink:href="#m3a7c8f76f8" y="184.775567"/>
      </g>
     </g>
     <g id="text_44">
      <!-- 6 -->
      <g style="fill:#262626;" transform="translate(470.502317 196.787083)scale(0.077 -0.077)">
       <use xlink:href="#ArialMT-54"/>
      </g>
     </g>
    </g>
    <g id="xtick_21">
     <g id="line2d_97">
      <path clip-path="url(#pb8e865b09a)" d="M 492.148079 184.775567 
L 492.148079 12.012563 
" style="fill:none;stroke:#000000;stroke-linecap:round;stroke-opacity:0.25;"/>
     </g>
     <g id="line2d_98">
      <g>
       <use style="fill:#262626;stroke:#262626;stroke-width:0.5;" x="492.148079" xlink:href="#m3a7c8f76f8" y="184.775567"/>
      </g>
     </g>
     <g id="text_45">
      <!-- 7 -->
      <g style="fill:#262626;" transform="translate(490.007119 196.787083)scale(0.077 -0.077)">
       <use xlink:href="#ArialMT-55"/>
      </g>
     </g>
    </g>
    <g id="text_46">
     <!-- Number of States Predicted -->
     <g style="fill:#262626;" transform="translate(382.045205 208.33002)scale(0.084 -0.084)">
      <use xlink:href="#ArialMT-78"/>
      <use x="72.216797" xlink:href="#ArialMT-117"/>
      <use x="127.832031" xlink:href="#ArialMT-109"/>
      <use x="211.132812" xlink:href="#ArialMT-98"/>
      <use x="266.748047" xlink:href="#ArialMT-101"/>
      <use x="322.363281" xlink:href="#ArialMT-114"/>
      <use x="355.664062" xlink:href="#ArialMT-32"/>
      <use x="383.447266" xlink:href="#ArialMT-111"/>
      <use x="439.0625" xlink:href="#ArialMT-102"/>
      <use x="466.845703" xlink:href="#ArialMT-32"/>
      <use x="494.628906" xlink:href="#ArialMT-83"/>
      <use x="561.328125" xlink:href="#ArialMT-116"/>
      <use x="589.111328" xlink:href="#ArialMT-97"/>
      <use x="644.726562" xlink:href="#ArialMT-116"/>
      <use x="672.509766" xlink:href="#ArialMT-101"/>
      <use x="728.125" xlink:href="#ArialMT-115"/>
      <use x="778.125" xlink:href="#ArialMT-32"/>
      <use x="805.908203" xlink:href="#ArialMT-80"/>
      <use x="872.607422" xlink:href="#ArialMT-114"/>
      <use x="905.908203" xlink:href="#ArialMT-101"/>
      <use x="961.523438" xlink:href="#ArialMT-100"/>
      <use x="1017.138672" xlink:href="#ArialMT-105"/>
      <use x="1039.355469" xlink:href="#ArialMT-99"/>
      <use x="1089.355469" xlink:href="#ArialMT-116"/>
      <use x="1117.138672" xlink:href="#ArialMT-101"/>
      <use x="1172.753906" xlink:href="#ArialMT-100"/>
     </g>
    </g>
   </g>
   <g id="matplotlib.axis_6">
    <g id="ytick_19">
     <g id="line2d_99">
      <path clip-path="url(#pb8e865b09a)" d="M 369.267828 184.775567 
L 497.99952 184.775567 
" style="fill:none;stroke:#000000;stroke-linecap:round;stroke-opacity:0.25;"/>
     </g>
     <g id="line2d_100">
      <g>
       <use style="fill:#262626;stroke:#262626;stroke-width:0.5;" x="369.267828" xlink:href="#m596610ca8f" y="184.775567"/>
      </g>
     </g>
     <g id="text_47">
      <!-- 0 -->
      <g style="fill:#262626;" transform="translate(358.485906 187.531325)scale(0.077 -0.077)">
       <use xlink:href="#ArialMT-48"/>
      </g>
     </g>
    </g>
    <g id="ytick_20">
     <g id="line2d_101">
      <path clip-path="url(#pb8e865b09a)" d="M 369.267828 163.180191 
L 497.99952 163.180191 
" style="fill:none;stroke:#000000;stroke-linecap:round;stroke-opacity:0.25;"/>
     </g>
     <g id="line2d_102">
      <g>
       <use style="fill:#262626;stroke:#262626;stroke-width:0.5;" x="369.267828" xlink:href="#m596610ca8f" y="163.180191"/>
      </g>
     </g>
     <g id="text_48">
      <!-- 25 -->
      <g style="fill:#262626;" transform="translate(354.203984 165.935949)scale(0.077 -0.077)">
       <use xlink:href="#ArialMT-50"/>
       <use x="55.615234" xlink:href="#ArialMT-53"/>
      </g>
     </g>
    </g>
    <g id="ytick_21">
     <g id="line2d_103">
      <path clip-path="url(#pb8e865b09a)" d="M 369.267828 141.584816 
L 497.99952 141.584816 
" style="fill:none;stroke:#000000;stroke-linecap:round;stroke-opacity:0.25;"/>
     </g>
     <g id="line2d_104">
      <g>
       <use style="fill:#262626;stroke:#262626;stroke-width:0.5;" x="369.267828" xlink:href="#m596610ca8f" y="141.584816"/>
      </g>
     </g>
     <g id="text_49">
      <!-- 50 -->
      <g style="fill:#262626;" transform="translate(354.203984 144.340574)scale(0.077 -0.077)">
       <use xlink:href="#ArialMT-53"/>
       <use x="55.615234" xlink:href="#ArialMT-48"/>
      </g>
     </g>
    </g>
    <g id="ytick_22">
     <g id="line2d_105">
      <path clip-path="url(#pb8e865b09a)" d="M 369.267828 119.98944 
L 497.99952 119.98944 
" style="fill:none;stroke:#000000;stroke-linecap:round;stroke-opacity:0.25;"/>
     </g>
     <g id="line2d_106">
      <g>
       <use style="fill:#262626;stroke:#262626;stroke-width:0.5;" x="369.267828" xlink:href="#m596610ca8f" y="119.98944"/>
      </g>
     </g>
     <g id="text_50">
      <!-- 75 -->
      <g style="fill:#262626;" transform="translate(354.203984 122.745198)scale(0.077 -0.077)">
       <use xlink:href="#ArialMT-55"/>
       <use x="55.615234" xlink:href="#ArialMT-53"/>
      </g>
     </g>
    </g>
    <g id="ytick_23">
     <g id="line2d_107">
      <path clip-path="url(#pb8e865b09a)" d="M 369.267828 98.394065 
L 497.99952 98.394065 
" style="fill:none;stroke:#000000;stroke-linecap:round;stroke-opacity:0.25;"/>
     </g>
     <g id="line2d_108">
      <g>
       <use style="fill:#262626;stroke:#262626;stroke-width:0.5;" x="369.267828" xlink:href="#m596610ca8f" y="98.394065"/>
      </g>
     </g>
     <g id="text_51">
      <!-- 100 -->
      <g style="fill:#262626;" transform="translate(349.922062 101.149823)scale(0.077 -0.077)">
       <use xlink:href="#ArialMT-49"/>
       <use x="55.615234" xlink:href="#ArialMT-48"/>
       <use x="111.230469" xlink:href="#ArialMT-48"/>
      </g>
     </g>
    </g>
    <g id="ytick_24">
     <g id="line2d_109">
      <path clip-path="url(#pb8e865b09a)" d="M 369.267828 76.798689 
L 497.99952 76.798689 
" style="fill:none;stroke:#000000;stroke-linecap:round;stroke-opacity:0.25;"/>
     </g>
     <g id="line2d_110">
      <g>
       <use style="fill:#262626;stroke:#262626;stroke-width:0.5;" x="369.267828" xlink:href="#m596610ca8f" y="76.798689"/>
      </g>
     </g>
     <g id="text_52">
      <!-- 125 -->
      <g style="fill:#262626;" transform="translate(349.922062 79.554447)scale(0.077 -0.077)">
       <use xlink:href="#ArialMT-49"/>
       <use x="55.615234" xlink:href="#ArialMT-50"/>
       <use x="111.230469" xlink:href="#ArialMT-53"/>
      </g>
     </g>
    </g>
    <g id="ytick_25">
     <g id="line2d_111">
      <path clip-path="url(#pb8e865b09a)" d="M 369.267828 55.203314 
L 497.99952 55.203314 
" style="fill:none;stroke:#000000;stroke-linecap:round;stroke-opacity:0.25;"/>
     </g>
     <g id="line2d_112">
      <g>
       <use style="fill:#262626;stroke:#262626;stroke-width:0.5;" x="369.267828" xlink:href="#m596610ca8f" y="55.203314"/>
      </g>
     </g>
     <g id="text_53">
      <!-- 150 -->
      <g style="fill:#262626;" transform="translate(349.922062 57.959071)scale(0.077 -0.077)">
       <use xlink:href="#ArialMT-49"/>
       <use x="55.615234" xlink:href="#ArialMT-53"/>
       <use x="111.230469" xlink:href="#ArialMT-48"/>
      </g>
     </g>
    </g>
    <g id="ytick_26">
     <g id="line2d_113">
      <path clip-path="url(#pb8e865b09a)" d="M 369.267828 33.607938 
L 497.99952 33.607938 
" style="fill:none;stroke:#000000;stroke-linecap:round;stroke-opacity:0.25;"/>
     </g>
     <g id="line2d_114">
      <g>
       <use style="fill:#262626;stroke:#262626;stroke-width:0.5;" x="369.267828" xlink:href="#m596610ca8f" y="33.607938"/>
      </g>
     </g>
     <g id="text_54">
      <!-- 175 -->
      <g style="fill:#262626;" transform="translate(349.922062 36.363696)scale(0.077 -0.077)">
       <use xlink:href="#ArialMT-49"/>
       <use x="55.615234" xlink:href="#ArialMT-55"/>
       <use x="111.230469" xlink:href="#ArialMT-53"/>
      </g>
     </g>
    </g>
    <g id="ytick_27">
     <g id="line2d_115">
      <path clip-path="url(#pb8e865b09a)" d="M 369.267828 12.012563 
L 497.99952 12.012563 
" style="fill:none;stroke:#000000;stroke-linecap:round;stroke-opacity:0.25;"/>
     </g>
     <g id="line2d_116">
      <g>
       <use style="fill:#262626;stroke:#262626;stroke-width:0.5;" x="369.267828" xlink:href="#m596610ca8f" y="12.012563"/>
      </g>
     </g>
     <g id="text_55">
      <!-- 200 -->
      <g style="fill:#262626;" transform="translate(349.922062 14.76832)scale(0.077 -0.077)">
       <use xlink:href="#ArialMT-50"/>
       <use x="55.615234" xlink:href="#ArialMT-48"/>
       <use x="111.230469" xlink:href="#ArialMT-48"/>
      </g>
     </g>
    </g>
    <g id="text_56">
     <!-- Normalized AIC -->
     <g style="fill:#262626;" transform="translate(344.252562 127.570283)rotate(-90)scale(0.084 -0.084)">
      <use xlink:href="#ArialMT-78"/>
      <use x="72.216797" xlink:href="#ArialMT-111"/>
      <use x="127.832031" xlink:href="#ArialMT-114"/>
      <use x="161.132812" xlink:href="#ArialMT-109"/>
      <use x="244.433594" xlink:href="#ArialMT-97"/>
      <use x="300.048828" xlink:href="#ArialMT-108"/>
      <use x="322.265625" xlink:href="#ArialMT-105"/>
      <use x="344.482422" xlink:href="#ArialMT-122"/>
      <use x="394.482422" xlink:href="#ArialMT-101"/>
      <use x="450.097656" xlink:href="#ArialMT-100"/>
      <use x="505.712891" xlink:href="#ArialMT-32"/>
      <use x="527.996094" xlink:href="#ArialMT-65"/>
      <use x="594.695312" xlink:href="#ArialMT-73"/>
      <use x="622.478516" xlink:href="#ArialMT-67"/>
     </g>
    </g>
   </g>
   <g id="line2d_117">
    <path clip-path="url(#pb8e865b09a)" d="M 375.119269 58.95444 
L 394.62407 39.479879 
L 414.128872 184.775567 
L 433.633674 167.607591 
L 453.138476 148.222287 
L 472.643278 123.672016 
L 492.148079 96.021196 
" style="fill:none;stroke:#1a1a1a;stroke-linecap:round;stroke-opacity:0.5;stroke-width:1.5;"/>
   </g>
   <g id="line2d_118">
    <path clip-path="url(#pb8e865b09a)" d="M 375.119269 68.45295 
L 394.62407 71.409766 
L 414.128872 184.775567 
L 433.633674 167.049903 
L 453.138476 152.790984 
L 472.643278 127.907983 
L 492.148079 97.960435 
" style="fill:none;stroke:#1a1a1a;stroke-linecap:round;stroke-opacity:0.5;stroke-width:1.5;"/>
   </g>
   <g id="line2d_119">
    <path clip-path="url(#pb8e865b09a)" d="M 375.119269 52.284201 
L 394.62407 65.204587 
L 414.128872 184.775567 
L 433.633674 172.847465 
L 453.138476 151.575154 
L 472.643278 136.165574 
L 492.148079 98.781134 
" style="fill:none;stroke:#1a1a1a;stroke-linecap:round;stroke-opacity:0.5;stroke-width:1.5;"/>
   </g>
   <g id="line2d_120">
    <path clip-path="url(#pb8e865b09a)" d="M 375.119269 55.199456 
L 394.62407 75.814101 
L 414.128872 184.775567 
L 433.633674 172.51404 
L 453.138476 147.205301 
L 472.643278 132.469902 
L 492.148079 98.119392 
" style="fill:none;stroke:#1a1a1a;stroke-linecap:round;stroke-opacity:0.5;stroke-width:1.5;"/>
   </g>
   <g id="line2d_121">
    <path clip-path="url(#pb8e865b09a)" d="M 375.119269 24.855034 
L 394.62407 43.834199 
L 414.128872 184.775567 
L 433.633674 167.001121 
L 453.138476 147.942837 
L 472.643278 123.819245 
L 492.148079 94.026756 
" style="fill:none;stroke:#1a1a1a;stroke-linecap:round;stroke-opacity:0.5;stroke-width:1.5;"/>
   </g>
   <g id="line2d_122">
    <path clip-path="url(#pb8e865b09a)" d="M 375.119269 56.475734 
L 394.62407 184.775567 
L 414.128872 184.358439 
L 433.633674 167.366685 
L 453.138476 146.704824 
L 472.643278 124.627028 
L 492.148079 94.961849 
" style="fill:none;stroke:#1a1a1a;stroke-linecap:round;stroke-opacity:0.5;stroke-width:1.5;"/>
   </g>
   <g id="line2d_123">
    <path clip-path="url(#pb8e865b09a)" d="M 375.119269 45.521123 
L 394.62407 184.775567 
L 414.128872 180.999136 
L 433.633674 163.282977 
L 453.138476 143.405197 
L 472.643278 119.956291 
L 492.148079 95.05397 
" style="fill:none;stroke:#1a1a1a;stroke-linecap:round;stroke-opacity:0.5;stroke-width:1.5;"/>
   </g>
   <g id="line2d_124">
    <path clip-path="url(#pb8e865b09a)" d="M 375.119269 42.263959 
L 394.62407 173.494796 
L 414.128872 184.775567 
L 433.633674 166.612895 
L 453.138476 146.679633 
L 472.643278 121.806444 
L 492.148079 94.47576 
" style="fill:none;stroke:#1a1a1a;stroke-linecap:round;stroke-opacity:0.5;stroke-width:1.5;"/>
   </g>
   <g id="line2d_125">
    <path clip-path="url(#pb8e865b09a)" d="M 375.119269 46.570426 
L 394.62407 48.503399 
L 414.128872 184.775567 
L 433.633674 167.020501 
L 453.138476 152.82473 
L 472.643278 128.327716 
L 492.148079 98.10007 
" style="fill:none;stroke:#1a1a1a;stroke-linecap:round;stroke-opacity:0.5;stroke-width:1.5;"/>
   </g>
   <g id="line2d_126">
    <path clip-path="url(#pb8e865b09a)" d="M 375.119269 57.757974 
L 394.62407 50.896622 
L 414.128872 184.775567 
L 433.633674 167.319097 
L 453.138476 147.325951 
L 472.643278 124.016232 
L 492.148079 100.755949 
" style="fill:none;stroke:#1a1a1a;stroke-linecap:round;stroke-opacity:0.5;stroke-width:1.5;"/>
   </g>
   <g id="patch_13">
    <path d="M 369.267828 184.775567 
L 369.267828 12.012563 
" style="fill:none;stroke:#000000;stroke-linecap:square;stroke-linejoin:miter;stroke-width:0.25;"/>
   </g>
   <g id="patch_14">
    <path d="M 497.99952 184.775567 
L 497.99952 12.012563 
" style="fill:none;stroke:#000000;stroke-linecap:square;stroke-linejoin:miter;stroke-width:0.25;"/>
   </g>
   <g id="patch_15">
    <path d="M 369.267828 184.775567 
L 497.99952 184.775567 
" style="fill:none;stroke:#000000;stroke-linecap:square;stroke-linejoin:miter;stroke-width:0.25;"/>
   </g>
   <g id="patch_16">
    <path d="M 369.267828 12.012563 
L 497.99952 12.012563 
" style="fill:none;stroke:#000000;stroke-linecap:square;stroke-linejoin:miter;stroke-width:0.25;"/>
   </g>
   <g id="text_57">
    <!-- AIC Under 3 True States -->
    <g style="fill:#262626;" transform="translate(387.88058 6.012563)scale(0.084 -0.084)">
     <use xlink:href="#ArialMT-65"/>
     <use x="66.699219" xlink:href="#ArialMT-73"/>
     <use x="94.482422" xlink:href="#ArialMT-67"/>
     <use x="166.699219" xlink:href="#ArialMT-32"/>
     <use x="194.482422" xlink:href="#ArialMT-85"/>
     <use x="266.699219" xlink:href="#ArialMT-110"/>
     <use x="322.314453" xlink:href="#ArialMT-100"/>
     <use x="377.929688" xlink:href="#ArialMT-101"/>
     <use x="433.544922" xlink:href="#ArialMT-114"/>
     <use x="466.845703" xlink:href="#ArialMT-32"/>
     <use x="494.628906" xlink:href="#ArialMT-51"/>
     <use x="550.244141" xlink:href="#ArialMT-32"/>
     <use x="576.277344" xlink:href="#ArialMT-84"/>
     <use x="633.611328" xlink:href="#ArialMT-114"/>
     <use x="666.912109" xlink:href="#ArialMT-117"/>
     <use x="722.527344" xlink:href="#ArialMT-101"/>
     <use x="778.142578" xlink:href="#ArialMT-32"/>
     <use x="805.925781" xlink:href="#ArialMT-83"/>
     <use x="872.625" xlink:href="#ArialMT-116"/>
     <use x="900.408203" xlink:href="#ArialMT-97"/>
     <use x="956.023438" xlink:href="#ArialMT-116"/>
     <use x="983.806641" xlink:href="#ArialMT-101"/>
     <use x="1039.421875" xlink:href="#ArialMT-115"/>
    </g>
   </g>
  </g>
 </g>
 <defs>
  <clipPath id="p309e999d99">
   <rect height="172.763004" width="128.731692" x="31.027828" y="12.012563"/>
  </clipPath>
  <clipPath id="p4c8c82974a">
   <rect height="172.763004" width="128.731692" x="200.147828" y="12.012563"/>
  </clipPath>
  <clipPath id="pb8e865b09a">
   <rect height="172.763004" width="128.731692" x="369.267828" y="12.012563"/>
  </clipPath>
 </defs>
</svg>
