<?xml version="1.0" encoding="utf-8" standalone="no"?>
<!DOCTYPE svg PUBLIC "-//W3C//DTD SVG 1.1//EN"
  "http://www.w3.org/Graphics/SVG/1.1/DTD/svg11.dtd">
<!-- Created with matplotlib (https://matplotlib.org/) -->
<svg height="209.99952pt" version="1.1" viewBox="0 0 497.99952 209.99952" width="497.99952pt" xmlns="http://www.w3.org/2000/svg" xmlns:xlink="http://www.w3.org/1999/xlink">
 <defs>
  <style type="text/css">
*{stroke-linecap:butt;stroke-linejoin:round;}
  </style>
 </defs>
 <g id="figure_1">
  <g id="patch_1">
   <path d="M 0 209.99952 
L 497.99952 209.99952 
L 497.99952 0 
L 0 0 
z
" style="fill:#ffffff;"/>
  </g>
  <g id="axes_1">
   <g id="patch_2">
    <path d="M 31.027828 184.775567 
L 159.75952 184.775567 
L 159.75952 12.114937 
L 31.027828 12.114937 
z
" style="fill:#ffffff;"/>
   </g>
   <g id="matplotlib.axis_1">
    <g id="xtick_1">
     <g id="line2d_1">
      <path clip-path="url(#p5f75c3357b)" d="M 36.879269 184.775567 
L 36.879269 12.114937 
" style="fill:none;stroke:#000000;stroke-linecap:round;stroke-opacity:0.25;"/>
     </g>
     <g id="line2d_2">
      <defs>
       <path d="M 0 3 
L 0 -3 
" id="m0d3123b25e" style="stroke:#262626;stroke-width:0.5;"/>
      </defs>
      <g>
       <use style="fill:#262626;stroke:#262626;stroke-width:0.5;" x="36.879269" xlink:href="#m0d3123b25e" y="184.775567"/>
      </g>
     </g>
     <g id="text_1">
      <!-- 1 -->
      <defs>
       <path d="M 37.25 0 
L 28.46875 0 
L 28.46875 56 
Q 25.296875 52.984375 20.140625 49.953125 
Q 14.984375 46.921875 10.890625 45.40625 
L 10.890625 53.90625 
Q 18.265625 57.375 23.78125 62.296875 
Q 29.296875 67.234375 31.59375 71.875 
L 37.25 71.875 
z
" id="ArialMT-49"/>
      </defs>
      <g style="fill:#262626;" transform="translate(34.738308 196.787083)scale(0.077 -0.077)">
       <use xlink:href="#ArialMT-49"/>
      </g>
     </g>
    </g>
    <g id="xtick_2">
     <g id="line2d_3">
      <path clip-path="url(#p5f75c3357b)" d="M 56.38407 184.775567 
L 56.38407 12.114937 
" style="fill:none;stroke:#000000;stroke-linecap:round;stroke-opacity:0.25;"/>
     </g>
     <g id="line2d_4">
      <g>
       <use style="fill:#262626;stroke:#262626;stroke-width:0.5;" x="56.38407" xlink:href="#m0d3123b25e" y="184.775567"/>
      </g>
     </g>
     <g id="text_2">
      <!-- 2 -->
      <defs>
       <path d="M 50.34375 8.453125 
L 50.34375 0 
L 3.03125 0 
Q 2.9375 3.171875 4.046875 6.109375 
Q 5.859375 10.9375 9.828125 15.625 
Q 13.8125 20.3125 21.34375 26.46875 
Q 33.015625 36.03125 37.109375 41.625 
Q 41.21875 47.21875 41.21875 52.203125 
Q 41.21875 57.421875 37.46875 61 
Q 33.734375 64.59375 27.734375 64.59375 
Q 21.390625 64.59375 17.578125 60.78125 
Q 13.765625 56.984375 13.71875 50.25 
L 4.6875 51.171875 
Q 5.609375 61.28125 11.65625 66.578125 
Q 17.71875 71.875 27.9375 71.875 
Q 38.234375 71.875 44.234375 66.15625 
Q 50.25 60.453125 50.25 52 
Q 50.25 47.703125 48.484375 43.546875 
Q 46.734375 39.40625 42.65625 34.8125 
Q 38.578125 30.21875 29.109375 22.21875 
Q 21.1875 15.578125 18.9375 13.203125 
Q 16.703125 10.84375 15.234375 8.453125 
z
" id="ArialMT-50"/>
      </defs>
      <g style="fill:#262626;" transform="translate(54.24311 196.787083)scale(0.077 -0.077)">
       <use xlink:href="#ArialMT-50"/>
      </g>
     </g>
    </g>
    <g id="xtick_3">
     <g id="line2d_5">
      <path clip-path="url(#p5f75c3357b)" d="M 75.888872 184.775567 
L 75.888872 12.114937 
" style="fill:none;stroke:#000000;stroke-linecap:round;stroke-opacity:0.25;"/>
     </g>
     <g id="line2d_6">
      <g>
       <use style="fill:#262626;stroke:#262626;stroke-width:0.5;" x="75.888872" xlink:href="#m0d3123b25e" y="184.775567"/>
      </g>
     </g>
     <g id="text_3">
      <!-- 3 -->
      <defs>
       <path d="M 4.203125 18.890625 
L 12.984375 20.0625 
Q 14.5 12.59375 18.140625 9.296875 
Q 21.78125 6 27 6 
Q 33.203125 6 37.46875 10.296875 
Q 41.75 14.59375 41.75 20.953125 
Q 41.75 27 37.796875 30.921875 
Q 33.84375 34.859375 27.734375 34.859375 
Q 25.25 34.859375 21.53125 33.890625 
L 22.515625 41.609375 
Q 23.390625 41.5 23.921875 41.5 
Q 29.546875 41.5 34.03125 44.421875 
Q 38.53125 47.359375 38.53125 53.46875 
Q 38.53125 58.296875 35.25 61.46875 
Q 31.984375 64.65625 26.8125 64.65625 
Q 21.6875 64.65625 18.265625 61.421875 
Q 14.84375 58.203125 13.875 51.765625 
L 5.078125 53.328125 
Q 6.6875 62.15625 12.390625 67.015625 
Q 18.109375 71.875 26.609375 71.875 
Q 32.46875 71.875 37.390625 69.359375 
Q 42.328125 66.84375 44.9375 62.5 
Q 47.5625 58.15625 47.5625 53.265625 
Q 47.5625 48.640625 45.0625 44.828125 
Q 42.578125 41.015625 37.703125 38.765625 
Q 44.046875 37.3125 47.5625 32.6875 
Q 51.078125 28.078125 51.078125 21.140625 
Q 51.078125 11.765625 44.234375 5.25 
Q 37.40625 -1.265625 26.953125 -1.265625 
Q 17.53125 -1.265625 11.296875 4.34375 
Q 5.078125 9.96875 4.203125 18.890625 
z
" id="ArialMT-51"/>
      </defs>
      <g style="fill:#262626;" transform="translate(73.747911 196.787083)scale(0.077 -0.077)">
       <use xlink:href="#ArialMT-51"/>
      </g>
     </g>
    </g>
    <g id="xtick_4">
     <g id="line2d_7">
      <path clip-path="url(#p5f75c3357b)" d="M 95.393674 184.775567 
L 95.393674 12.114937 
" style="fill:none;stroke:#000000;stroke-linecap:round;stroke-opacity:0.25;"/>
     </g>
     <g id="line2d_8">
      <g>
       <use style="fill:#262626;stroke:#262626;stroke-width:0.5;" x="95.393674" xlink:href="#m0d3123b25e" y="184.775567"/>
      </g>
     </g>
     <g id="text_4">
      <!-- 4 -->
      <defs>
       <path d="M 32.328125 0 
L 32.328125 17.140625 
L 1.265625 17.140625 
L 1.265625 25.203125 
L 33.9375 71.578125 
L 41.109375 71.578125 
L 41.109375 25.203125 
L 50.78125 25.203125 
L 50.78125 17.140625 
L 41.109375 17.140625 
L 41.109375 0 
z
M 32.328125 25.203125 
L 32.328125 57.46875 
L 9.90625 25.203125 
z
" id="ArialMT-52"/>
      </defs>
      <g style="fill:#262626;" transform="translate(93.252713 196.787083)scale(0.077 -0.077)">
       <use xlink:href="#ArialMT-52"/>
      </g>
     </g>
    </g>
    <g id="xtick_5">
     <g id="line2d_9">
      <path clip-path="url(#p5f75c3357b)" d="M 114.898476 184.775567 
L 114.898476 12.114937 
" style="fill:none;stroke:#000000;stroke-linecap:round;stroke-opacity:0.25;"/>
     </g>
     <g id="line2d_10">
      <g>
       <use style="fill:#262626;stroke:#262626;stroke-width:0.5;" x="114.898476" xlink:href="#m0d3123b25e" y="184.775567"/>
      </g>
     </g>
     <g id="text_5">
      <!-- 5 -->
      <defs>
       <path d="M 4.15625 18.75 
L 13.375 19.53125 
Q 14.40625 12.796875 18.140625 9.390625 
Q 21.875 6 27.15625 6 
Q 33.5 6 37.890625 10.78125 
Q 42.28125 15.578125 42.28125 23.484375 
Q 42.28125 31 38.0625 35.34375 
Q 33.84375 39.703125 27 39.703125 
Q 22.75 39.703125 19.328125 37.765625 
Q 15.921875 35.84375 13.96875 32.765625 
L 5.71875 33.84375 
L 12.640625 70.609375 
L 48.25 70.609375 
L 48.25 62.203125 
L 19.671875 62.203125 
L 15.828125 42.96875 
Q 22.265625 47.46875 29.34375 47.46875 
Q 38.71875 47.46875 45.15625 40.96875 
Q 51.609375 34.46875 51.609375 24.265625 
Q 51.609375 14.546875 45.953125 7.46875 
Q 39.0625 -1.21875 27.15625 -1.21875 
Q 17.390625 -1.21875 11.203125 4.25 
Q 5.03125 9.71875 4.15625 18.75 
z
" id="ArialMT-53"/>
      </defs>
      <g style="fill:#262626;" transform="translate(112.757515 196.787083)scale(0.077 -0.077)">
       <use xlink:href="#ArialMT-53"/>
      </g>
     </g>
    </g>
    <g id="xtick_6">
     <g id="line2d_11">
      <path clip-path="url(#p5f75c3357b)" d="M 134.403278 184.775567 
L 134.403278 12.114937 
" style="fill:none;stroke:#000000;stroke-linecap:round;stroke-opacity:0.25;"/>
     </g>
     <g id="line2d_12">
      <g>
       <use style="fill:#262626;stroke:#262626;stroke-width:0.5;" x="134.403278" xlink:href="#m0d3123b25e" y="184.775567"/>
      </g>
     </g>
     <g id="text_6">
      <!-- 6 -->
      <defs>
       <path d="M 49.75 54.046875 
L 41.015625 53.375 
Q 39.84375 58.546875 37.703125 60.890625 
Q 34.125 64.65625 28.90625 64.65625 
Q 24.703125 64.65625 21.53125 62.3125 
Q 17.390625 59.28125 14.984375 53.46875 
Q 12.59375 47.65625 12.5 36.921875 
Q 15.671875 41.75 20.265625 44.09375 
Q 24.859375 46.4375 29.890625 46.4375 
Q 38.671875 46.4375 44.84375 39.96875 
Q 51.03125 33.5 51.03125 23.25 
Q 51.03125 16.5 48.125 10.71875 
Q 45.21875 4.9375 40.140625 1.859375 
Q 35.0625 -1.21875 28.609375 -1.21875 
Q 17.625 -1.21875 10.6875 6.859375 
Q 3.765625 14.9375 3.765625 33.5 
Q 3.765625 54.25 11.421875 63.671875 
Q 18.109375 71.875 29.4375 71.875 
Q 37.890625 71.875 43.28125 67.140625 
Q 48.6875 62.40625 49.75 54.046875 
z
M 13.875 23.1875 
Q 13.875 18.65625 15.796875 14.5 
Q 17.71875 10.359375 21.1875 8.171875 
Q 24.65625 6 28.46875 6 
Q 34.03125 6 38.03125 10.484375 
Q 42.046875 14.984375 42.046875 22.703125 
Q 42.046875 30.125 38.078125 34.390625 
Q 34.125 38.671875 28.125 38.671875 
Q 22.171875 38.671875 18.015625 34.390625 
Q 13.875 30.125 13.875 23.1875 
z
" id="ArialMT-54"/>
      </defs>
      <g style="fill:#262626;" transform="translate(132.262317 196.787083)scale(0.077 -0.077)">
       <use xlink:href="#ArialMT-54"/>
      </g>
     </g>
    </g>
    <g id="xtick_7">
     <g id="line2d_13">
      <path clip-path="url(#p5f75c3357b)" d="M 153.908079 184.775567 
L 153.908079 12.114937 
" style="fill:none;stroke:#000000;stroke-linecap:round;stroke-opacity:0.25;"/>
     </g>
     <g id="line2d_14">
      <g>
       <use style="fill:#262626;stroke:#262626;stroke-width:0.5;" x="153.908079" xlink:href="#m0d3123b25e" y="184.775567"/>
      </g>
     </g>
     <g id="text_7">
      <!-- 7 -->
      <defs>
       <path d="M 4.734375 62.203125 
L 4.734375 70.65625 
L 51.078125 70.65625 
L 51.078125 63.8125 
Q 44.234375 56.546875 37.515625 44.484375 
Q 30.8125 32.421875 27.15625 19.671875 
Q 24.515625 10.6875 23.78125 0 
L 14.75 0 
Q 14.890625 8.453125 18.0625 20.40625 
Q 21.234375 32.375 27.171875 43.484375 
Q 33.109375 54.59375 39.796875 62.203125 
z
" id="ArialMT-55"/>
      </defs>
      <g style="fill:#262626;" transform="translate(151.767119 196.787083)scale(0.077 -0.077)">
       <use xlink:href="#ArialMT-55"/>
      </g>
     </g>
    </g>
    <g id="text_8">
     <!-- Number of States -->
     <defs>
      <path d="M 7.625 0 
L 7.625 71.578125 
L 17.328125 71.578125 
L 54.9375 15.375 
L 54.9375 71.578125 
L 64.015625 71.578125 
L 64.015625 0 
L 54.296875 0 
L 16.703125 56.25 
L 16.703125 0 
z
" id="ArialMT-78"/>
      <path d="M 40.578125 0 
L 40.578125 7.625 
Q 34.515625 -1.171875 24.125 -1.171875 
Q 19.53125 -1.171875 15.546875 0.578125 
Q 11.578125 2.34375 9.640625 5 
Q 7.71875 7.671875 6.9375 11.53125 
Q 6.390625 14.109375 6.390625 19.734375 
L 6.390625 51.859375 
L 15.1875 51.859375 
L 15.1875 23.09375 
Q 15.1875 16.21875 15.71875 13.8125 
Q 16.546875 10.359375 19.234375 8.375 
Q 21.921875 6.390625 25.875 6.390625 
Q 29.828125 6.390625 33.296875 8.421875 
Q 36.765625 10.453125 38.203125 13.9375 
Q 39.65625 17.4375 39.65625 24.078125 
L 39.65625 51.859375 
L 48.4375 51.859375 
L 48.4375 0 
z
" id="ArialMT-117"/>
      <path d="M 6.59375 0 
L 6.59375 51.859375 
L 14.453125 51.859375 
L 14.453125 44.578125 
Q 16.890625 48.390625 20.9375 50.703125 
Q 25 53.03125 30.171875 53.03125 
Q 35.9375 53.03125 39.625 50.640625 
Q 43.3125 48.25 44.828125 43.953125 
Q 50.984375 53.03125 60.84375 53.03125 
Q 68.5625 53.03125 72.703125 48.75 
Q 76.859375 44.484375 76.859375 35.59375 
L 76.859375 0 
L 68.109375 0 
L 68.109375 32.671875 
Q 68.109375 37.9375 67.25 40.25 
Q 66.40625 42.578125 64.15625 43.984375 
Q 61.921875 45.40625 58.890625 45.40625 
Q 53.421875 45.40625 49.796875 41.765625 
Q 46.1875 38.140625 46.1875 30.125 
L 46.1875 0 
L 37.40625 0 
L 37.40625 33.6875 
Q 37.40625 39.546875 35.25 42.46875 
Q 33.109375 45.40625 28.21875 45.40625 
Q 24.515625 45.40625 21.359375 43.453125 
Q 18.21875 41.5 16.796875 37.734375 
Q 15.375 33.984375 15.375 26.90625 
L 15.375 0 
z
" id="ArialMT-109"/>
      <path d="M 14.703125 0 
L 6.546875 0 
L 6.546875 71.578125 
L 15.328125 71.578125 
L 15.328125 46.046875 
Q 20.90625 53.03125 29.546875 53.03125 
Q 34.328125 53.03125 38.59375 51.09375 
Q 42.875 49.171875 45.625 45.671875 
Q 48.390625 42.1875 49.953125 37.25 
Q 51.515625 32.328125 51.515625 26.703125 
Q 51.515625 13.375 44.921875 6.09375 
Q 38.328125 -1.171875 29.109375 -1.171875 
Q 19.921875 -1.171875 14.703125 6.5 
z
M 14.59375 26.3125 
Q 14.59375 17 17.140625 12.84375 
Q 21.296875 6.0625 28.375 6.0625 
Q 34.125 6.0625 38.328125 11.0625 
Q 42.53125 16.0625 42.53125 25.984375 
Q 42.53125 36.140625 38.5 40.96875 
Q 34.46875 45.796875 28.765625 45.796875 
Q 23 45.796875 18.796875 40.796875 
Q 14.59375 35.796875 14.59375 26.3125 
z
" id="ArialMT-98"/>
      <path d="M 42.09375 16.703125 
L 51.171875 15.578125 
Q 49.03125 7.625 43.21875 3.21875 
Q 37.40625 -1.171875 28.375 -1.171875 
Q 17 -1.171875 10.328125 5.828125 
Q 3.65625 12.84375 3.65625 25.484375 
Q 3.65625 38.578125 10.390625 45.796875 
Q 17.140625 53.03125 27.875 53.03125 
Q 38.28125 53.03125 44.875 45.953125 
Q 51.46875 38.875 51.46875 26.03125 
Q 51.46875 25.25 51.421875 23.6875 
L 12.75 23.6875 
Q 13.234375 15.140625 17.578125 10.59375 
Q 21.921875 6.0625 28.421875 6.0625 
Q 33.25 6.0625 36.671875 8.59375 
Q 40.09375 11.140625 42.09375 16.703125 
z
M 13.234375 30.90625 
L 42.1875 30.90625 
Q 41.609375 37.453125 38.875 40.71875 
Q 34.671875 45.796875 27.984375 45.796875 
Q 21.921875 45.796875 17.796875 41.75 
Q 13.671875 37.703125 13.234375 30.90625 
z
" id="ArialMT-101"/>
      <path d="M 6.5 0 
L 6.5 51.859375 
L 14.40625 51.859375 
L 14.40625 44 
Q 17.4375 49.515625 20 51.265625 
Q 22.5625 53.03125 25.640625 53.03125 
Q 30.078125 53.03125 34.671875 50.203125 
L 31.640625 42.046875 
Q 28.421875 43.953125 25.203125 43.953125 
Q 22.3125 43.953125 20.015625 42.21875 
Q 17.71875 40.484375 16.75 37.40625 
Q 15.28125 32.71875 15.28125 27.15625 
L 15.28125 0 
z
" id="ArialMT-114"/>
      <path id="ArialMT-32"/>
      <path d="M 3.328125 25.921875 
Q 3.328125 40.328125 11.328125 47.265625 
Q 18.015625 53.03125 27.640625 53.03125 
Q 38.328125 53.03125 45.109375 46.015625 
Q 51.90625 39.015625 51.90625 26.65625 
Q 51.90625 16.65625 48.90625 10.90625 
Q 45.90625 5.171875 40.15625 2 
Q 34.421875 -1.171875 27.640625 -1.171875 
Q 16.75 -1.171875 10.03125 5.8125 
Q 3.328125 12.796875 3.328125 25.921875 
z
M 12.359375 25.921875 
Q 12.359375 15.96875 16.703125 11.015625 
Q 21.046875 6.0625 27.640625 6.0625 
Q 34.1875 6.0625 38.53125 11.03125 
Q 42.875 16.015625 42.875 26.21875 
Q 42.875 35.84375 38.5 40.796875 
Q 34.125 45.75 27.640625 45.75 
Q 21.046875 45.75 16.703125 40.8125 
Q 12.359375 35.890625 12.359375 25.921875 
z
" id="ArialMT-111"/>
      <path d="M 8.6875 0 
L 8.6875 45.015625 
L 0.921875 45.015625 
L 0.921875 51.859375 
L 8.6875 51.859375 
L 8.6875 57.375 
Q 8.6875 62.59375 9.625 65.140625 
Q 10.890625 68.5625 14.078125 70.671875 
Q 17.28125 72.796875 23.046875 72.796875 
Q 26.765625 72.796875 31.25 71.921875 
L 29.9375 64.265625 
Q 27.203125 64.75 24.75 64.75 
Q 20.75 64.75 19.09375 63.03125 
Q 17.4375 61.328125 17.4375 56.640625 
L 17.4375 51.859375 
L 27.546875 51.859375 
L 27.546875 45.015625 
L 17.4375 45.015625 
L 17.4375 0 
z
" id="ArialMT-102"/>
      <path d="M 4.5 23 
L 13.421875 23.78125 
Q 14.0625 18.40625 16.375 14.96875 
Q 18.703125 11.53125 23.578125 9.40625 
Q 28.46875 7.28125 34.578125 7.28125 
Q 39.984375 7.28125 44.140625 8.890625 
Q 48.296875 10.5 50.3125 13.296875 
Q 52.34375 16.109375 52.34375 19.4375 
Q 52.34375 22.796875 50.390625 25.3125 
Q 48.4375 27.828125 43.953125 29.546875 
Q 41.0625 30.671875 31.203125 33.03125 
Q 21.34375 35.40625 17.390625 37.5 
Q 12.25 40.1875 9.734375 44.15625 
Q 7.234375 48.140625 7.234375 53.078125 
Q 7.234375 58.5 10.296875 63.203125 
Q 13.375 67.921875 19.28125 70.359375 
Q 25.203125 72.796875 32.421875 72.796875 
Q 40.375 72.796875 46.453125 70.234375 
Q 52.546875 67.671875 55.8125 62.6875 
Q 59.078125 57.71875 59.328125 51.421875 
L 50.25 50.734375 
Q 49.515625 57.515625 45.28125 60.984375 
Q 41.0625 64.453125 32.8125 64.453125 
Q 24.21875 64.453125 20.28125 61.296875 
Q 16.359375 58.15625 16.359375 53.71875 
Q 16.359375 49.859375 19.140625 47.359375 
Q 21.875 44.875 33.421875 42.265625 
Q 44.96875 39.65625 49.265625 37.703125 
Q 55.515625 34.8125 58.484375 30.390625 
Q 61.46875 25.984375 61.46875 20.21875 
Q 61.46875 14.5 58.203125 9.4375 
Q 54.9375 4.390625 48.796875 1.578125 
Q 42.671875 -1.21875 35.015625 -1.21875 
Q 25.296875 -1.21875 18.71875 1.609375 
Q 12.15625 4.4375 8.421875 10.125 
Q 4.6875 15.828125 4.5 23 
z
" id="ArialMT-83"/>
      <path d="M 25.78125 7.859375 
L 27.046875 0.09375 
Q 23.34375 -0.6875 20.40625 -0.6875 
Q 15.625 -0.6875 12.984375 0.828125 
Q 10.359375 2.34375 9.28125 4.8125 
Q 8.203125 7.28125 8.203125 15.1875 
L 8.203125 45.015625 
L 1.765625 45.015625 
L 1.765625 51.859375 
L 8.203125 51.859375 
L 8.203125 64.703125 
L 16.9375 69.96875 
L 16.9375 51.859375 
L 25.78125 51.859375 
L 25.78125 45.015625 
L 16.9375 45.015625 
L 16.9375 14.703125 
Q 16.9375 10.9375 17.40625 9.859375 
Q 17.875 8.796875 18.921875 8.15625 
Q 19.96875 7.515625 21.921875 7.515625 
Q 23.390625 7.515625 25.78125 7.859375 
z
" id="ArialMT-116"/>
      <path d="M 40.4375 6.390625 
Q 35.546875 2.25 31.03125 0.53125 
Q 26.515625 -1.171875 21.34375 -1.171875 
Q 12.796875 -1.171875 8.203125 3 
Q 3.609375 7.171875 3.609375 13.671875 
Q 3.609375 17.484375 5.34375 20.625 
Q 7.078125 23.78125 9.890625 25.6875 
Q 12.703125 27.59375 16.21875 28.5625 
Q 18.796875 29.25 24.03125 29.890625 
Q 34.671875 31.15625 39.703125 32.90625 
Q 39.75 34.71875 39.75 35.203125 
Q 39.75 40.578125 37.25 42.78125 
Q 33.890625 45.75 27.25 45.75 
Q 21.046875 45.75 18.09375 43.578125 
Q 15.140625 41.40625 13.71875 35.890625 
L 5.125 37.0625 
Q 6.296875 42.578125 8.984375 45.96875 
Q 11.671875 49.359375 16.75 51.1875 
Q 21.828125 53.03125 28.515625 53.03125 
Q 35.15625 53.03125 39.296875 51.46875 
Q 43.453125 49.90625 45.40625 47.53125 
Q 47.359375 45.171875 48.140625 41.546875 
Q 48.578125 39.3125 48.578125 33.453125 
L 48.578125 21.734375 
Q 48.578125 9.46875 49.140625 6.21875 
Q 49.703125 2.984375 51.375 0 
L 42.1875 0 
Q 40.828125 2.734375 40.4375 6.390625 
z
M 39.703125 26.03125 
Q 34.90625 24.078125 25.34375 22.703125 
Q 19.921875 21.921875 17.671875 20.9375 
Q 15.4375 19.96875 14.203125 18.09375 
Q 12.984375 16.21875 12.984375 13.921875 
Q 12.984375 10.40625 15.640625 8.0625 
Q 18.3125 5.71875 23.4375 5.71875 
Q 28.515625 5.71875 32.46875 7.9375 
Q 36.421875 10.15625 38.28125 14.015625 
Q 39.703125 17 39.703125 22.796875 
z
" id="ArialMT-97"/>
      <path d="M 3.078125 15.484375 
L 11.765625 16.84375 
Q 12.5 11.625 15.84375 8.84375 
Q 19.1875 6.0625 25.203125 6.0625 
Q 31.25 6.0625 34.171875 8.515625 
Q 37.109375 10.984375 37.109375 14.3125 
Q 37.109375 17.28125 34.515625 19 
Q 32.71875 20.171875 25.53125 21.96875 
Q 15.875 24.421875 12.140625 26.203125 
Q 8.40625 27.984375 6.46875 31.125 
Q 4.546875 34.28125 4.546875 38.09375 
Q 4.546875 41.546875 6.125 44.5 
Q 7.71875 47.46875 10.453125 49.421875 
Q 12.5 50.921875 16.03125 51.96875 
Q 19.578125 53.03125 23.640625 53.03125 
Q 29.734375 53.03125 34.34375 51.265625 
Q 38.96875 49.515625 41.15625 46.5 
Q 43.359375 43.5 44.1875 38.484375 
L 35.59375 37.3125 
Q 35.015625 41.3125 32.203125 43.546875 
Q 29.390625 45.796875 24.265625 45.796875 
Q 18.21875 45.796875 15.625 43.796875 
Q 13.03125 41.796875 13.03125 39.109375 
Q 13.03125 37.40625 14.109375 36.03125 
Q 15.1875 34.625 17.484375 33.6875 
Q 18.796875 33.203125 25.25 31.453125 
Q 34.578125 28.953125 38.25 27.359375 
Q 41.9375 25.78125 44.03125 22.75 
Q 46.140625 19.734375 46.140625 15.234375 
Q 46.140625 10.84375 43.578125 6.953125 
Q 41.015625 3.078125 36.171875 0.953125 
Q 31.34375 -1.171875 25.25 -1.171875 
Q 15.140625 -1.171875 9.84375 3.03125 
Q 4.546875 7.234375 3.078125 15.484375 
z
" id="ArialMT-115"/>
     </defs>
     <g style="fill:#262626;" transform="translate(62.714393 208.33002)scale(0.084 -0.084)">
      <use xlink:href="#ArialMT-78"/>
      <use x="72.216797" xlink:href="#ArialMT-117"/>
      <use x="127.832031" xlink:href="#ArialMT-109"/>
      <use x="211.132812" xlink:href="#ArialMT-98"/>
      <use x="266.748047" xlink:href="#ArialMT-101"/>
      <use x="322.363281" xlink:href="#ArialMT-114"/>
      <use x="355.664062" xlink:href="#ArialMT-32"/>
      <use x="383.447266" xlink:href="#ArialMT-111"/>
      <use x="439.0625" xlink:href="#ArialMT-102"/>
      <use x="466.845703" xlink:href="#ArialMT-32"/>
      <use x="494.628906" xlink:href="#ArialMT-83"/>
      <use x="561.328125" xlink:href="#ArialMT-116"/>
      <use x="589.111328" xlink:href="#ArialMT-97"/>
      <use x="644.726562" xlink:href="#ArialMT-116"/>
      <use x="672.509766" xlink:href="#ArialMT-101"/>
      <use x="728.125" xlink:href="#ArialMT-115"/>
     </g>
    </g>
   </g>
   <g id="matplotlib.axis_2">
    <g id="ytick_1">
     <g id="line2d_15">
      <path clip-path="url(#p5f75c3357b)" d="M 31.027828 169.364748 
L 159.75952 169.364748 
" style="fill:none;stroke:#000000;stroke-linecap:round;stroke-opacity:0.25;"/>
     </g>
     <g id="line2d_16">
      <defs>
       <path d="M 3 0 
L -3 -0 
" id="m55e4ea12fe" style="stroke:#262626;stroke-width:0.5;"/>
      </defs>
      <g>
       <use style="fill:#262626;stroke:#262626;stroke-width:0.5;" x="31.027828" xlink:href="#m55e4ea12fe" y="169.364748"/>
      </g>
     </g>
     <g id="text_9">
      <!-- 575 -->
      <g style="fill:#262626;" transform="translate(11.682062 172.120506)scale(0.077 -0.077)">
       <use xlink:href="#ArialMT-53"/>
       <use x="55.615234" xlink:href="#ArialMT-55"/>
       <use x="111.230469" xlink:href="#ArialMT-53"/>
      </g>
     </g>
    </g>
    <g id="ytick_2">
     <g id="line2d_17">
      <path clip-path="url(#p5f75c3357b)" d="M 31.027828 146.769952 
L 159.75952 146.769952 
" style="fill:none;stroke:#000000;stroke-linecap:round;stroke-opacity:0.25;"/>
     </g>
     <g id="line2d_18">
      <g>
       <use style="fill:#262626;stroke:#262626;stroke-width:0.5;" x="31.027828" xlink:href="#m55e4ea12fe" y="146.769952"/>
      </g>
     </g>
     <g id="text_10">
      <!-- 600 -->
      <defs>
       <path d="M 4.15625 35.296875 
Q 4.15625 48 6.765625 55.734375 
Q 9.375 63.484375 14.515625 67.671875 
Q 19.671875 71.875 27.484375 71.875 
Q 33.25 71.875 37.59375 69.546875 
Q 41.9375 67.234375 44.765625 62.859375 
Q 47.609375 58.5 49.21875 52.21875 
Q 50.828125 45.953125 50.828125 35.296875 
Q 50.828125 22.703125 48.234375 14.96875 
Q 45.65625 7.234375 40.5 3 
Q 35.359375 -1.21875 27.484375 -1.21875 
Q 17.140625 -1.21875 11.234375 6.203125 
Q 4.15625 15.140625 4.15625 35.296875 
z
M 13.1875 35.296875 
Q 13.1875 17.671875 17.3125 11.828125 
Q 21.4375 6 27.484375 6 
Q 33.546875 6 37.671875 11.859375 
Q 41.796875 17.71875 41.796875 35.296875 
Q 41.796875 52.984375 37.671875 58.78125 
Q 33.546875 64.59375 27.390625 64.59375 
Q 21.34375 64.59375 17.71875 59.46875 
Q 13.1875 52.9375 13.1875 35.296875 
z
" id="ArialMT-48"/>
      </defs>
      <g style="fill:#262626;" transform="translate(11.682062 149.52571)scale(0.077 -0.077)">
       <use xlink:href="#ArialMT-54"/>
       <use x="55.615234" xlink:href="#ArialMT-48"/>
       <use x="111.230469" xlink:href="#ArialMT-48"/>
      </g>
     </g>
    </g>
    <g id="ytick_3">
     <g id="line2d_19">
      <path clip-path="url(#p5f75c3357b)" d="M 31.027828 124.175157 
L 159.75952 124.175157 
" style="fill:none;stroke:#000000;stroke-linecap:round;stroke-opacity:0.25;"/>
     </g>
     <g id="line2d_20">
      <g>
       <use style="fill:#262626;stroke:#262626;stroke-width:0.5;" x="31.027828" xlink:href="#m55e4ea12fe" y="124.175157"/>
      </g>
     </g>
     <g id="text_11">
      <!-- 625 -->
      <g style="fill:#262626;" transform="translate(11.682062 126.930915)scale(0.077 -0.077)">
       <use xlink:href="#ArialMT-54"/>
       <use x="55.615234" xlink:href="#ArialMT-50"/>
       <use x="111.230469" xlink:href="#ArialMT-53"/>
      </g>
     </g>
    </g>
    <g id="ytick_4">
     <g id="line2d_21">
      <path clip-path="url(#p5f75c3357b)" d="M 31.027828 101.580361 
L 159.75952 101.580361 
" style="fill:none;stroke:#000000;stroke-linecap:round;stroke-opacity:0.25;"/>
     </g>
     <g id="line2d_22">
      <g>
       <use style="fill:#262626;stroke:#262626;stroke-width:0.5;" x="31.027828" xlink:href="#m55e4ea12fe" y="101.580361"/>
      </g>
     </g>
     <g id="text_12">
      <!-- 650 -->
      <g style="fill:#262626;" transform="translate(11.682062 104.336119)scale(0.077 -0.077)">
       <use xlink:href="#ArialMT-54"/>
       <use x="55.615234" xlink:href="#ArialMT-53"/>
       <use x="111.230469" xlink:href="#ArialMT-48"/>
      </g>
     </g>
    </g>
    <g id="ytick_5">
     <g id="line2d_23">
      <path clip-path="url(#p5f75c3357b)" d="M 31.027828 78.985566 
L 159.75952 78.985566 
" style="fill:none;stroke:#000000;stroke-linecap:round;stroke-opacity:0.25;"/>
     </g>
     <g id="line2d_24">
      <g>
       <use style="fill:#262626;stroke:#262626;stroke-width:0.5;" x="31.027828" xlink:href="#m55e4ea12fe" y="78.985566"/>
      </g>
     </g>
     <g id="text_13">
      <!-- 675 -->
      <g style="fill:#262626;" transform="translate(11.682062 81.741324)scale(0.077 -0.077)">
       <use xlink:href="#ArialMT-54"/>
       <use x="55.615234" xlink:href="#ArialMT-55"/>
       <use x="111.230469" xlink:href="#ArialMT-53"/>
      </g>
     </g>
    </g>
    <g id="ytick_6">
     <g id="line2d_25">
      <path clip-path="url(#p5f75c3357b)" d="M 31.027828 56.39077 
L 159.75952 56.39077 
" style="fill:none;stroke:#000000;stroke-linecap:round;stroke-opacity:0.25;"/>
     </g>
     <g id="line2d_26">
      <g>
       <use style="fill:#262626;stroke:#262626;stroke-width:0.5;" x="31.027828" xlink:href="#m55e4ea12fe" y="56.39077"/>
      </g>
     </g>
     <g id="text_14">
      <!-- 700 -->
      <g style="fill:#262626;" transform="translate(11.682062 59.146528)scale(0.077 -0.077)">
       <use xlink:href="#ArialMT-55"/>
       <use x="55.615234" xlink:href="#ArialMT-48"/>
       <use x="111.230469" xlink:href="#ArialMT-48"/>
      </g>
     </g>
    </g>
    <g id="ytick_7">
     <g id="line2d_27">
      <path clip-path="url(#p5f75c3357b)" d="M 31.027828 33.795975 
L 159.75952 33.795975 
" style="fill:none;stroke:#000000;stroke-linecap:round;stroke-opacity:0.25;"/>
     </g>
     <g id="line2d_28">
      <g>
       <use style="fill:#262626;stroke:#262626;stroke-width:0.5;" x="31.027828" xlink:href="#m55e4ea12fe" y="33.795975"/>
      </g>
     </g>
     <g id="text_15">
      <!-- 725 -->
      <g style="fill:#262626;" transform="translate(11.682062 36.551733)scale(0.077 -0.077)">
       <use xlink:href="#ArialMT-55"/>
       <use x="55.615234" xlink:href="#ArialMT-50"/>
       <use x="111.230469" xlink:href="#ArialMT-53"/>
      </g>
     </g>
    </g>
    <g id="text_16">
     <!-- AIC -->
     <defs>
      <path d="M -0.140625 0 
L 27.34375 71.578125 
L 37.546875 71.578125 
L 66.84375 0 
L 56.0625 0 
L 47.703125 21.6875 
L 17.78125 21.6875 
L 9.90625 0 
z
M 20.515625 29.390625 
L 44.78125 29.390625 
L 37.3125 49.21875 
Q 33.890625 58.25 32.234375 64.0625 
Q 30.859375 57.171875 28.375 50.390625 
z
" id="ArialMT-65"/>
      <path d="M 9.328125 0 
L 9.328125 71.578125 
L 18.796875 71.578125 
L 18.796875 0 
z
" id="ArialMT-73"/>
      <path d="M 58.796875 25.09375 
L 68.265625 22.703125 
Q 65.28125 11.03125 57.546875 4.90625 
Q 49.8125 -1.21875 38.625 -1.21875 
Q 27.046875 -1.21875 19.796875 3.484375 
Q 12.546875 8.203125 8.765625 17.140625 
Q 4.984375 26.078125 4.984375 36.328125 
Q 4.984375 47.515625 9.25 55.828125 
Q 13.53125 64.15625 21.40625 68.46875 
Q 29.296875 72.796875 38.765625 72.796875 
Q 49.515625 72.796875 56.828125 67.328125 
Q 64.15625 61.859375 67.046875 51.953125 
L 57.71875 49.75 
Q 55.21875 57.5625 50.484375 61.125 
Q 45.75 64.703125 38.578125 64.703125 
Q 30.328125 64.703125 24.78125 60.734375 
Q 19.234375 56.78125 16.984375 50.109375 
Q 14.75 43.453125 14.75 36.375 
Q 14.75 27.25 17.40625 20.4375 
Q 20.0625 13.625 25.671875 10.25 
Q 31.296875 6.890625 37.84375 6.890625 
Q 45.796875 6.890625 51.3125 11.46875 
Q 56.84375 16.0625 58.796875 25.09375 
z
" id="ArialMT-67"/>
     </defs>
     <g style="fill:#262626;" transform="translate(6.012562 105.446783)rotate(-90)scale(0.084 -0.084)">
      <use xlink:href="#ArialMT-65"/>
      <use x="66.699219" xlink:href="#ArialMT-73"/>
      <use x="94.482422" xlink:href="#ArialMT-67"/>
     </g>
    </g>
   </g>
   <g id="line2d_29">
    <path clip-path="url(#p5f75c3357b)" d="M 36.879269 162.432031 
L 56.38407 151.803173 
L 75.888872 136.671676 
L 95.393674 119.284364 
L 114.898476 97.79903 
L 134.403278 72.930547 
L 153.908079 44.437243 
" style="fill:none;stroke:#1a1a1a;stroke-linecap:round;stroke-opacity:0.5;stroke-width:1.5;"/>
   </g>
   <g id="line2d_30">
    <path clip-path="url(#p5f75c3357b)" d="M 36.879269 141.893984 
L 56.38407 132.127119 
L 75.888872 117.656233 
L 95.393674 98.72565 
L 114.898476 78.295124 
L 134.403278 53.21335 
L 153.908079 27.270515 
" style="fill:none;stroke:#1a1a1a;stroke-linecap:round;stroke-opacity:0.5;stroke-width:1.5;"/>
   </g>
   <g id="line2d_31">
    <path clip-path="url(#p5f75c3357b)" d="M 36.879269 152.694848 
L 56.38407 143.330662 
L 75.888872 129.792895 
L 95.393674 110.98729 
L 114.898476 90.311365 
L 134.403278 64.184439 
L 153.908079 38.206147 
" style="fill:none;stroke:#1a1a1a;stroke-linecap:round;stroke-opacity:0.5;stroke-width:1.5;"/>
   </g>
   <g id="line2d_32">
    <path clip-path="url(#p5f75c3357b)" d="M 36.879269 165.880433 
L 56.38407 153.433708 
L 75.888872 140.307251 
L 95.393674 121.990355 
L 114.898476 100.80399 
L 134.403278 74.508405 
L 153.908079 45.253151 
" style="fill:none;stroke:#1a1a1a;stroke-linecap:round;stroke-opacity:0.5;stroke-width:1.5;"/>
   </g>
   <g id="line2d_33">
    <path clip-path="url(#p5f75c3357b)" d="M 36.879269 135.349054 
L 56.38407 124.672778 
L 75.888872 111.023098 
L 95.393674 94.329947 
L 114.898476 71.87893 
L 134.403278 49.166701 
L 153.908079 19.963148 
" style="fill:none;stroke:#1a1a1a;stroke-linecap:round;stroke-opacity:0.5;stroke-width:1.5;"/>
   </g>
   <g id="line2d_34">
    <path clip-path="url(#p5f75c3357b)" d="M 36.879269 173.933392 
L 56.38407 163.721637 
L 75.888872 148.406014 
L 95.393674 130.478354 
L 114.898476 109.329496 
L 134.403278 84.641866 
L 153.908079 57.51323 
" style="fill:none;stroke:#1a1a1a;stroke-linecap:round;stroke-opacity:0.5;stroke-width:1.5;"/>
   </g>
   <g id="line2d_35">
    <path clip-path="url(#p5f75c3357b)" d="M 36.879269 151.738749 
L 56.38407 141.646004 
L 75.888872 127.183236 
L 95.393674 109.226977 
L 114.898476 87.807551 
L 134.403278 64.170497 
L 153.908079 34.104794 
" style="fill:none;stroke:#1a1a1a;stroke-linecap:round;stroke-opacity:0.5;stroke-width:1.5;"/>
   </g>
   <g id="line2d_36">
    <path clip-path="url(#p5f75c3357b)" d="M 36.879269 176.927356 
L 56.38407 165.942956 
L 75.888872 151.964219 
L 95.393674 133.53732 
L 114.898476 111.434099 
L 134.403278 87.044485 
L 153.908079 58.15387 
" style="fill:none;stroke:#1a1a1a;stroke-linecap:round;stroke-opacity:0.5;stroke-width:1.5;"/>
   </g>
   <g id="line2d_37">
    <path clip-path="url(#p5f75c3357b)" d="M 36.879269 174.026865 
L 56.38407 163.04898 
L 75.888872 149.82878 
L 95.393674 130.852653 
L 114.898476 110.093231 
L 134.403278 84.676036 
L 153.908079 60.19476 
" style="fill:none;stroke:#1a1a1a;stroke-linecap:round;stroke-opacity:0.5;stroke-width:1.5;"/>
   </g>
   <g id="line2d_38">
    <path clip-path="url(#p5f75c3357b)" d="M 36.879269 175.295138 
L 56.38407 165.228638 
L 75.888872 150.609472 
L 95.393674 132.403033 
L 114.898476 110.629007 
L 134.403278 86.279198 
L 153.908079 55.582 
" style="fill:none;stroke:#1a1a1a;stroke-linecap:round;stroke-opacity:0.5;stroke-width:1.5;"/>
   </g>
   <g id="patch_3">
    <path d="M 31.027828 184.775567 
L 31.027828 12.114938 
" style="fill:none;stroke:#000000;stroke-linecap:square;stroke-linejoin:miter;stroke-width:0.25;"/>
   </g>
   <g id="patch_4">
    <path d="M 159.75952 184.775567 
L 159.75952 12.114938 
" style="fill:none;stroke:#000000;stroke-linecap:square;stroke-linejoin:miter;stroke-width:0.25;"/>
   </g>
   <g id="patch_5">
    <path d="M 31.027828 184.775567 
L 159.75952 184.775567 
" style="fill:none;stroke:#000000;stroke-linecap:square;stroke-linejoin:miter;stroke-width:0.25;"/>
   </g>
   <g id="patch_6">
    <path d="M 31.027828 12.114937 
L 159.75952 12.114937 
" style="fill:none;stroke:#000000;stroke-linecap:square;stroke-linejoin:miter;stroke-width:0.25;"/>
   </g>
   <g id="text_17">
    <!-- State Assignment AIC -->
    <defs>
     <path d="M 6.640625 61.46875 
L 6.640625 71.578125 
L 15.4375 71.578125 
L 15.4375 61.46875 
z
M 6.640625 0 
L 6.640625 51.859375 
L 15.4375 51.859375 
L 15.4375 0 
z
" id="ArialMT-105"/>
     <path d="M 4.984375 -4.296875 
L 13.53125 -5.5625 
Q 14.0625 -9.515625 16.5 -11.328125 
Q 19.78125 -13.765625 25.4375 -13.765625 
Q 31.546875 -13.765625 34.859375 -11.328125 
Q 38.1875 -8.890625 39.359375 -4.5 
Q 40.046875 -1.8125 39.984375 6.78125 
Q 34.234375 0 25.640625 0 
Q 14.9375 0 9.078125 7.71875 
Q 3.21875 15.4375 3.21875 26.21875 
Q 3.21875 33.640625 5.90625 39.90625 
Q 8.59375 46.1875 13.6875 49.609375 
Q 18.796875 53.03125 25.6875 53.03125 
Q 34.859375 53.03125 40.828125 45.609375 
L 40.828125 51.859375 
L 48.921875 51.859375 
L 48.921875 7.03125 
Q 48.921875 -5.078125 46.453125 -10.125 
Q 44 -15.1875 38.640625 -18.109375 
Q 33.296875 -21.046875 25.484375 -21.046875 
Q 16.21875 -21.046875 10.5 -16.875 
Q 4.78125 -12.703125 4.984375 -4.296875 
z
M 12.25 26.859375 
Q 12.25 16.65625 16.296875 11.96875 
Q 20.359375 7.28125 26.46875 7.28125 
Q 32.515625 7.28125 36.609375 11.9375 
Q 40.71875 16.609375 40.71875 26.5625 
Q 40.71875 36.078125 36.5 40.90625 
Q 32.28125 45.75 26.3125 45.75 
Q 20.453125 45.75 16.34375 40.984375 
Q 12.25 36.234375 12.25 26.859375 
z
" id="ArialMT-103"/>
     <path d="M 6.59375 0 
L 6.59375 51.859375 
L 14.5 51.859375 
L 14.5 44.484375 
Q 20.21875 53.03125 31 53.03125 
Q 35.6875 53.03125 39.625 51.34375 
Q 43.5625 49.65625 45.515625 46.921875 
Q 47.46875 44.1875 48.25 40.4375 
Q 48.734375 37.984375 48.734375 31.890625 
L 48.734375 0 
L 39.9375 0 
L 39.9375 31.546875 
Q 39.9375 36.921875 38.90625 39.578125 
Q 37.890625 42.234375 35.28125 43.8125 
Q 32.671875 45.40625 29.15625 45.40625 
Q 23.53125 45.40625 19.453125 41.84375 
Q 15.375 38.28125 15.375 28.328125 
L 15.375 0 
z
" id="ArialMT-110"/>
    </defs>
    <g style="fill:#262626;" transform="translate(54.771799 6.114937)scale(0.084 -0.084)">
     <use xlink:href="#ArialMT-83"/>
     <use x="66.699219" xlink:href="#ArialMT-116"/>
     <use x="94.482422" xlink:href="#ArialMT-97"/>
     <use x="150.097656" xlink:href="#ArialMT-116"/>
     <use x="177.880859" xlink:href="#ArialMT-101"/>
     <use x="233.496094" xlink:href="#ArialMT-32"/>
     <use x="255.779297" xlink:href="#ArialMT-65"/>
     <use x="322.478516" xlink:href="#ArialMT-115"/>
     <use x="372.478516" xlink:href="#ArialMT-115"/>
     <use x="422.478516" xlink:href="#ArialMT-105"/>
     <use x="444.695312" xlink:href="#ArialMT-103"/>
     <use x="500.310547" xlink:href="#ArialMT-110"/>
     <use x="555.925781" xlink:href="#ArialMT-109"/>
     <use x="639.226562" xlink:href="#ArialMT-101"/>
     <use x="694.841797" xlink:href="#ArialMT-110"/>
     <use x="750.457031" xlink:href="#ArialMT-116"/>
     <use x="778.240234" xlink:href="#ArialMT-32"/>
     <use x="800.523438" xlink:href="#ArialMT-65"/>
     <use x="867.222656" xlink:href="#ArialMT-73"/>
     <use x="895.005859" xlink:href="#ArialMT-67"/>
    </g>
   </g>
  </g>
  <g id="axes_2">
   <g id="patch_7">
    <path d="M 200.147828 184.775567 
L 328.87952 184.775567 
L 328.87952 12.114937 
L 200.147828 12.114937 
z
" style="fill:#ffffff;"/>
   </g>
   <g id="matplotlib.axis_3">
    <g id="xtick_8">
     <g id="line2d_39">
      <path clip-path="url(#p59fd588a86)" d="M 205.999269 184.775567 
L 205.999269 12.114937 
" style="fill:none;stroke:#000000;stroke-linecap:round;stroke-opacity:0.25;"/>
     </g>
     <g id="line2d_40">
      <g>
       <use style="fill:#262626;stroke:#262626;stroke-width:0.5;" x="205.999269" xlink:href="#m0d3123b25e" y="184.775567"/>
      </g>
     </g>
     <g id="text_18">
      <!-- 1 -->
      <g style="fill:#262626;" transform="translate(203.858308 196.787083)scale(0.077 -0.077)">
       <use xlink:href="#ArialMT-49"/>
      </g>
     </g>
    </g>
    <g id="xtick_9">
     <g id="line2d_41">
      <path clip-path="url(#p59fd588a86)" d="M 225.50407 184.775567 
L 225.50407 12.114937 
" style="fill:none;stroke:#000000;stroke-linecap:round;stroke-opacity:0.25;"/>
     </g>
     <g id="line2d_42">
      <g>
       <use style="fill:#262626;stroke:#262626;stroke-width:0.5;" x="225.50407" xlink:href="#m0d3123b25e" y="184.775567"/>
      </g>
     </g>
     <g id="text_19">
      <!-- 2 -->
      <g style="fill:#262626;" transform="translate(223.36311 196.787083)scale(0.077 -0.077)">
       <use xlink:href="#ArialMT-50"/>
      </g>
     </g>
    </g>
    <g id="xtick_10">
     <g id="line2d_43">
      <path clip-path="url(#p59fd588a86)" d="M 245.008872 184.775567 
L 245.008872 12.114937 
" style="fill:none;stroke:#000000;stroke-linecap:round;stroke-opacity:0.25;"/>
     </g>
     <g id="line2d_44">
      <g>
       <use style="fill:#262626;stroke:#262626;stroke-width:0.5;" x="245.008872" xlink:href="#m0d3123b25e" y="184.775567"/>
      </g>
     </g>
     <g id="text_20">
      <!-- 3 -->
      <g style="fill:#262626;" transform="translate(242.867911 196.787083)scale(0.077 -0.077)">
       <use xlink:href="#ArialMT-51"/>
      </g>
     </g>
    </g>
    <g id="xtick_11">
     <g id="line2d_45">
      <path clip-path="url(#p59fd588a86)" d="M 264.513674 184.775567 
L 264.513674 12.114937 
" style="fill:none;stroke:#000000;stroke-linecap:round;stroke-opacity:0.25;"/>
     </g>
     <g id="line2d_46">
      <g>
       <use style="fill:#262626;stroke:#262626;stroke-width:0.5;" x="264.513674" xlink:href="#m0d3123b25e" y="184.775567"/>
      </g>
     </g>
     <g id="text_21">
      <!-- 4 -->
      <g style="fill:#262626;" transform="translate(262.372713 196.787083)scale(0.077 -0.077)">
       <use xlink:href="#ArialMT-52"/>
      </g>
     </g>
    </g>
    <g id="xtick_12">
     <g id="line2d_47">
      <path clip-path="url(#p59fd588a86)" d="M 284.018476 184.775567 
L 284.018476 12.114937 
" style="fill:none;stroke:#000000;stroke-linecap:round;stroke-opacity:0.25;"/>
     </g>
     <g id="line2d_48">
      <g>
       <use style="fill:#262626;stroke:#262626;stroke-width:0.5;" x="284.018476" xlink:href="#m0d3123b25e" y="184.775567"/>
      </g>
     </g>
     <g id="text_22">
      <!-- 5 -->
      <g style="fill:#262626;" transform="translate(281.877515 196.787083)scale(0.077 -0.077)">
       <use xlink:href="#ArialMT-53"/>
      </g>
     </g>
    </g>
    <g id="xtick_13">
     <g id="line2d_49">
      <path clip-path="url(#p59fd588a86)" d="M 303.523278 184.775567 
L 303.523278 12.114937 
" style="fill:none;stroke:#000000;stroke-linecap:round;stroke-opacity:0.25;"/>
     </g>
     <g id="line2d_50">
      <g>
       <use style="fill:#262626;stroke:#262626;stroke-width:0.5;" x="303.523278" xlink:href="#m0d3123b25e" y="184.775567"/>
      </g>
     </g>
     <g id="text_23">
      <!-- 6 -->
      <g style="fill:#262626;" transform="translate(301.382317 196.787083)scale(0.077 -0.077)">
       <use xlink:href="#ArialMT-54"/>
      </g>
     </g>
    </g>
    <g id="xtick_14">
     <g id="line2d_51">
      <path clip-path="url(#p59fd588a86)" d="M 323.028079 184.775567 
L 323.028079 12.114937 
" style="fill:none;stroke:#000000;stroke-linecap:round;stroke-opacity:0.25;"/>
     </g>
     <g id="line2d_52">
      <g>
       <use style="fill:#262626;stroke:#262626;stroke-width:0.5;" x="323.028079" xlink:href="#m0d3123b25e" y="184.775567"/>
      </g>
     </g>
     <g id="text_24">
      <!-- 7 -->
      <g style="fill:#262626;" transform="translate(320.887119 196.787083)scale(0.077 -0.077)">
       <use xlink:href="#ArialMT-55"/>
      </g>
     </g>
    </g>
    <g id="text_25">
     <!-- Number of States -->
     <g style="fill:#262626;" transform="translate(231.834393 208.33002)scale(0.084 -0.084)">
      <use xlink:href="#ArialMT-78"/>
      <use x="72.216797" xlink:href="#ArialMT-117"/>
      <use x="127.832031" xlink:href="#ArialMT-109"/>
      <use x="211.132812" xlink:href="#ArialMT-98"/>
      <use x="266.748047" xlink:href="#ArialMT-101"/>
      <use x="322.363281" xlink:href="#ArialMT-114"/>
      <use x="355.664062" xlink:href="#ArialMT-32"/>
      <use x="383.447266" xlink:href="#ArialMT-111"/>
      <use x="439.0625" xlink:href="#ArialMT-102"/>
      <use x="466.845703" xlink:href="#ArialMT-32"/>
      <use x="494.628906" xlink:href="#ArialMT-83"/>
      <use x="561.328125" xlink:href="#ArialMT-116"/>
      <use x="589.111328" xlink:href="#ArialMT-97"/>
      <use x="644.726562" xlink:href="#ArialMT-116"/>
      <use x="672.509766" xlink:href="#ArialMT-101"/>
      <use x="728.125" xlink:href="#ArialMT-115"/>
     </g>
    </g>
   </g>
   <g id="matplotlib.axis_4">
    <g id="ytick_8">
     <g id="line2d_53">
      <path clip-path="url(#p59fd588a86)" d="M 200.147828 174.815293 
L 328.87952 174.815293 
" style="fill:none;stroke:#000000;stroke-linecap:round;stroke-opacity:0.25;"/>
     </g>
     <g id="line2d_54">
      <g>
       <use style="fill:#262626;stroke:#262626;stroke-width:0.5;" x="200.147828" xlink:href="#m55e4ea12fe" y="174.815293"/>
      </g>
     </g>
     <g id="text_26">
      <!-- 400 -->
      <g style="fill:#262626;" transform="translate(180.802062 177.571051)scale(0.077 -0.077)">
       <use xlink:href="#ArialMT-52"/>
       <use x="55.615234" xlink:href="#ArialMT-48"/>
       <use x="111.230469" xlink:href="#ArialMT-48"/>
      </g>
     </g>
    </g>
    <g id="ytick_9">
     <g id="line2d_55">
      <path clip-path="url(#p59fd588a86)" d="M 200.147828 152.858407 
L 328.87952 152.858407 
" style="fill:none;stroke:#000000;stroke-linecap:round;stroke-opacity:0.25;"/>
     </g>
     <g id="line2d_56">
      <g>
       <use style="fill:#262626;stroke:#262626;stroke-width:0.5;" x="200.147828" xlink:href="#m55e4ea12fe" y="152.858407"/>
      </g>
     </g>
     <g id="text_27">
      <!-- 450 -->
      <g style="fill:#262626;" transform="translate(180.802062 155.614164)scale(0.077 -0.077)">
       <use xlink:href="#ArialMT-52"/>
       <use x="55.615234" xlink:href="#ArialMT-53"/>
       <use x="111.230469" xlink:href="#ArialMT-48"/>
      </g>
     </g>
    </g>
    <g id="ytick_10">
     <g id="line2d_57">
      <path clip-path="url(#p59fd588a86)" d="M 200.147828 130.90152 
L 328.87952 130.90152 
" style="fill:none;stroke:#000000;stroke-linecap:round;stroke-opacity:0.25;"/>
     </g>
     <g id="line2d_58">
      <g>
       <use style="fill:#262626;stroke:#262626;stroke-width:0.5;" x="200.147828" xlink:href="#m55e4ea12fe" y="130.90152"/>
      </g>
     </g>
     <g id="text_28">
      <!-- 500 -->
      <g style="fill:#262626;" transform="translate(180.802062 133.657278)scale(0.077 -0.077)">
       <use xlink:href="#ArialMT-53"/>
       <use x="55.615234" xlink:href="#ArialMT-48"/>
       <use x="111.230469" xlink:href="#ArialMT-48"/>
      </g>
     </g>
    </g>
    <g id="ytick_11">
     <g id="line2d_59">
      <path clip-path="url(#p59fd588a86)" d="M 200.147828 108.944633 
L 328.87952 108.944633 
" style="fill:none;stroke:#000000;stroke-linecap:round;stroke-opacity:0.25;"/>
     </g>
     <g id="line2d_60">
      <g>
       <use style="fill:#262626;stroke:#262626;stroke-width:0.5;" x="200.147828" xlink:href="#m55e4ea12fe" y="108.944633"/>
      </g>
     </g>
     <g id="text_29">
      <!-- 550 -->
      <g style="fill:#262626;" transform="translate(180.802062 111.700391)scale(0.077 -0.077)">
       <use xlink:href="#ArialMT-53"/>
       <use x="55.615234" xlink:href="#ArialMT-53"/>
       <use x="111.230469" xlink:href="#ArialMT-48"/>
      </g>
     </g>
    </g>
    <g id="ytick_12">
     <g id="line2d_61">
      <path clip-path="url(#p59fd588a86)" d="M 200.147828 86.987746 
L 328.87952 86.987746 
" style="fill:none;stroke:#000000;stroke-linecap:round;stroke-opacity:0.25;"/>
     </g>
     <g id="line2d_62">
      <g>
       <use style="fill:#262626;stroke:#262626;stroke-width:0.5;" x="200.147828" xlink:href="#m55e4ea12fe" y="86.987746"/>
      </g>
     </g>
     <g id="text_30">
      <!-- 600 -->
      <g style="fill:#262626;" transform="translate(180.802062 89.743504)scale(0.077 -0.077)">
       <use xlink:href="#ArialMT-54"/>
       <use x="55.615234" xlink:href="#ArialMT-48"/>
       <use x="111.230469" xlink:href="#ArialMT-48"/>
      </g>
     </g>
    </g>
    <g id="ytick_13">
     <g id="line2d_63">
      <path clip-path="url(#p59fd588a86)" d="M 200.147828 65.030859 
L 328.87952 65.030859 
" style="fill:none;stroke:#000000;stroke-linecap:round;stroke-opacity:0.25;"/>
     </g>
     <g id="line2d_64">
      <g>
       <use style="fill:#262626;stroke:#262626;stroke-width:0.5;" x="200.147828" xlink:href="#m55e4ea12fe" y="65.030859"/>
      </g>
     </g>
     <g id="text_31">
      <!-- 650 -->
      <g style="fill:#262626;" transform="translate(180.802062 67.786617)scale(0.077 -0.077)">
       <use xlink:href="#ArialMT-54"/>
       <use x="55.615234" xlink:href="#ArialMT-53"/>
       <use x="111.230469" xlink:href="#ArialMT-48"/>
      </g>
     </g>
    </g>
    <g id="ytick_14">
     <g id="line2d_65">
      <path clip-path="url(#p59fd588a86)" d="M 200.147828 43.073973 
L 328.87952 43.073973 
" style="fill:none;stroke:#000000;stroke-linecap:round;stroke-opacity:0.25;"/>
     </g>
     <g id="line2d_66">
      <g>
       <use style="fill:#262626;stroke:#262626;stroke-width:0.5;" x="200.147828" xlink:href="#m55e4ea12fe" y="43.073973"/>
      </g>
     </g>
     <g id="text_32">
      <!-- 700 -->
      <g style="fill:#262626;" transform="translate(180.802062 45.829731)scale(0.077 -0.077)">
       <use xlink:href="#ArialMT-55"/>
       <use x="55.615234" xlink:href="#ArialMT-48"/>
       <use x="111.230469" xlink:href="#ArialMT-48"/>
      </g>
     </g>
    </g>
    <g id="ytick_15">
     <g id="line2d_67">
      <path clip-path="url(#p59fd588a86)" d="M 200.147828 21.117086 
L 328.87952 21.117086 
" style="fill:none;stroke:#000000;stroke-linecap:round;stroke-opacity:0.25;"/>
     </g>
     <g id="line2d_68">
      <g>
       <use style="fill:#262626;stroke:#262626;stroke-width:0.5;" x="200.147828" xlink:href="#m55e4ea12fe" y="21.117086"/>
      </g>
     </g>
     <g id="text_33">
      <!-- 750 -->
      <g style="fill:#262626;" transform="translate(180.802062 23.872844)scale(0.077 -0.077)">
       <use xlink:href="#ArialMT-55"/>
       <use x="55.615234" xlink:href="#ArialMT-53"/>
       <use x="111.230469" xlink:href="#ArialMT-48"/>
      </g>
     </g>
    </g>
    <g id="text_34">
     <!-- AIC -->
     <g style="fill:#262626;" transform="translate(175.132562 105.446783)rotate(-90)scale(0.084 -0.084)">
      <use xlink:href="#ArialMT-65"/>
      <use x="66.699219" xlink:href="#ArialMT-73"/>
      <use x="94.482422" xlink:href="#ArialMT-67"/>
     </g>
    </g>
   </g>
   <g id="line2d_69">
    <path clip-path="url(#p59fd588a86)" d="M 205.999269 93.96037 
L 225.50407 176.728204 
L 245.008872 169.754146 
L 264.513674 160.925747 
L 284.018476 151.012299 
L 303.523278 139.535741 
L 323.028079 123.770632 
" style="fill:none;stroke:#1a1a1a;stroke-linecap:round;stroke-opacity:0.5;stroke-width:1.5;"/>
   </g>
   <g id="line2d_70">
    <path clip-path="url(#p59fd588a86)" d="M 205.999269 33.900438 
L 225.50407 98.561435 
L 245.008872 91.626255 
L 264.513674 85.565652 
L 284.018476 73.867655 
L 303.523278 62.20085 
L 323.028079 49.89142 
" style="fill:none;stroke:#1a1a1a;stroke-linecap:round;stroke-opacity:0.5;stroke-width:1.5;"/>
   </g>
   <g id="line2d_71">
    <path clip-path="url(#p59fd588a86)" d="M 205.999269 19.963148 
L 225.50407 83.156927 
L 245.008872 77.164146 
L 264.513674 67.519341 
L 284.018476 56.918481 
L 303.523278 44.537053 
L 323.028079 30.322644 
" style="fill:none;stroke:#1a1a1a;stroke-linecap:round;stroke-opacity:0.5;stroke-width:1.5;"/>
   </g>
   <g id="line2d_72">
    <path clip-path="url(#p59fd588a86)" d="M 205.999269 25.467014 
L 225.50407 88.15874 
L 245.008872 81.47271 
L 264.513674 73.54069 
L 284.018476 64.754217 
L 303.523278 51.114747 
L 323.028079 39.047661 
" style="fill:none;stroke:#1a1a1a;stroke-linecap:round;stroke-opacity:0.5;stroke-width:1.5;"/>
   </g>
   <g id="line2d_73">
    <path clip-path="url(#p59fd588a86)" d="M 205.999269 92.777521 
L 225.50407 173.558788 
L 245.008872 166.532584 
L 264.513674 157.749829 
L 284.018476 148.745395 
L 303.523278 137.197856 
L 323.028079 121.84718 
" style="fill:none;stroke:#1a1a1a;stroke-linecap:round;stroke-opacity:0.5;stroke-width:1.5;"/>
   </g>
   <g id="line2d_74">
    <path clip-path="url(#p59fd588a86)" d="M 205.999269 99.52157 
L 225.50407 176.927356 
L 245.008872 169.901153 
L 264.513674 161.118398 
L 284.018476 149.658523 
L 303.523278 139.780962 
L 323.028079 123.95243 
" style="fill:none;stroke:#1a1a1a;stroke-linecap:round;stroke-opacity:0.5;stroke-width:1.5;"/>
   </g>
   <g id="line2d_75">
    <path clip-path="url(#p59fd588a86)" d="M 205.999269 87.059151 
L 225.50407 158.837987 
L 245.008872 151.4809 
L 264.513674 143.295538 
L 284.018476 133.295714 
L 303.523278 119.21072 
L 323.028079 106.939788 
" style="fill:none;stroke:#1a1a1a;stroke-linecap:round;stroke-opacity:0.5;stroke-width:1.5;"/>
   </g>
   <g id="line2d_76">
    <path clip-path="url(#p59fd588a86)" d="M 205.999269 21.928189 
L 225.50407 90.525575 
L 245.008872 84.02665 
L 264.513674 75.910018 
L 284.018476 64.733805 
L 303.523278 52.618025 
L 323.028079 37.473688 
" style="fill:none;stroke:#1a1a1a;stroke-linecap:round;stroke-opacity:0.5;stroke-width:1.5;"/>
   </g>
   <g id="line2d_77">
    <path clip-path="url(#p59fd588a86)" d="M 205.999269 85.710667 
L 225.50407 160.559896 
L 245.008872 153.921054 
L 264.513674 144.866176 
L 284.018476 139.941837 
L 303.523278 126.443966 
L 323.028079 109.45575 
" style="fill:none;stroke:#1a1a1a;stroke-linecap:round;stroke-opacity:0.5;stroke-width:1.5;"/>
   </g>
   <g id="line2d_78">
    <path clip-path="url(#p59fd588a86)" d="M 205.999269 21.268987 
L 225.50407 81.819622 
L 245.008872 74.488931 
L 264.513674 65.793761 
L 284.018476 57.636792 
L 303.523278 43.705141 
L 323.028079 29.881147 
" style="fill:none;stroke:#1a1a1a;stroke-linecap:round;stroke-opacity:0.5;stroke-width:1.5;"/>
   </g>
   <g id="patch_8">
    <path d="M 200.147828 184.775567 
L 200.147828 12.114937 
" style="fill:none;stroke:#000000;stroke-linecap:square;stroke-linejoin:miter;stroke-width:0.25;"/>
   </g>
   <g id="patch_9">
    <path d="M 328.87952 184.775567 
L 328.87952 12.114937 
" style="fill:none;stroke:#000000;stroke-linecap:square;stroke-linejoin:miter;stroke-width:0.25;"/>
   </g>
   <g id="patch_10">
    <path d="M 200.147828 184.775567 
L 328.87952 184.775567 
" style="fill:none;stroke:#000000;stroke-linecap:square;stroke-linejoin:miter;stroke-width:0.25;"/>
   </g>
   <g id="patch_11">
    <path d="M 200.147828 12.114937 
L 328.87952 12.114937 
" style="fill:none;stroke:#000000;stroke-linecap:square;stroke-linejoin:miter;stroke-width:0.25;"/>
   </g>
   <g id="text_35">
    <!-- State Assignment AIC -->
    <g style="fill:#262626;" transform="translate(223.891799 6.114937)scale(0.084 -0.084)">
     <use xlink:href="#ArialMT-83"/>
     <use x="66.699219" xlink:href="#ArialMT-116"/>
     <use x="94.482422" xlink:href="#ArialMT-97"/>
     <use x="150.097656" xlink:href="#ArialMT-116"/>
     <use x="177.880859" xlink:href="#ArialMT-101"/>
     <use x="233.496094" xlink:href="#ArialMT-32"/>
     <use x="255.779297" xlink:href="#ArialMT-65"/>
     <use x="322.478516" xlink:href="#ArialMT-115"/>
     <use x="372.478516" xlink:href="#ArialMT-115"/>
     <use x="422.478516" xlink:href="#ArialMT-105"/>
     <use x="444.695312" xlink:href="#ArialMT-103"/>
     <use x="500.310547" xlink:href="#ArialMT-110"/>
     <use x="555.925781" xlink:href="#ArialMT-109"/>
     <use x="639.226562" xlink:href="#ArialMT-101"/>
     <use x="694.841797" xlink:href="#ArialMT-110"/>
     <use x="750.457031" xlink:href="#ArialMT-116"/>
     <use x="778.240234" xlink:href="#ArialMT-32"/>
     <use x="800.523438" xlink:href="#ArialMT-65"/>
     <use x="867.222656" xlink:href="#ArialMT-73"/>
     <use x="895.005859" xlink:href="#ArialMT-67"/>
    </g>
   </g>
  </g>
  <g id="axes_3">
   <g id="patch_12">
    <path d="M 369.267828 184.775567 
L 497.99952 184.775567 
L 497.99952 12.114937 
L 369.267828 12.114937 
z
" style="fill:#ffffff;"/>
   </g>
   <g id="matplotlib.axis_5">
    <g id="xtick_15">
     <g id="line2d_79">
      <path clip-path="url(#p8794dd0444)" d="M 375.119269 184.775567 
L 375.119269 12.114937 
" style="fill:none;stroke:#000000;stroke-linecap:round;stroke-opacity:0.25;"/>
     </g>
     <g id="line2d_80">
      <g>
       <use style="fill:#262626;stroke:#262626;stroke-width:0.5;" x="375.119269" xlink:href="#m0d3123b25e" y="184.775567"/>
      </g>
     </g>
     <g id="text_36">
      <!-- 1 -->
      <g style="fill:#262626;" transform="translate(372.978308 196.787083)scale(0.077 -0.077)">
       <use xlink:href="#ArialMT-49"/>
      </g>
     </g>
    </g>
    <g id="xtick_16">
     <g id="line2d_81">
      <path clip-path="url(#p8794dd0444)" d="M 394.62407 184.775567 
L 394.62407 12.114937 
" style="fill:none;stroke:#000000;stroke-linecap:round;stroke-opacity:0.25;"/>
     </g>
     <g id="line2d_82">
      <g>
       <use style="fill:#262626;stroke:#262626;stroke-width:0.5;" x="394.62407" xlink:href="#m0d3123b25e" y="184.775567"/>
      </g>
     </g>
     <g id="text_37">
      <!-- 2 -->
      <g style="fill:#262626;" transform="translate(392.48311 196.787083)scale(0.077 -0.077)">
       <use xlink:href="#ArialMT-50"/>
      </g>
     </g>
    </g>
    <g id="xtick_17">
     <g id="line2d_83">
      <path clip-path="url(#p8794dd0444)" d="M 414.128872 184.775567 
L 414.128872 12.114937 
" style="fill:none;stroke:#000000;stroke-linecap:round;stroke-opacity:0.25;"/>
     </g>
     <g id="line2d_84">
      <g>
       <use style="fill:#262626;stroke:#262626;stroke-width:0.5;" x="414.128872" xlink:href="#m0d3123b25e" y="184.775567"/>
      </g>
     </g>
     <g id="text_38">
      <!-- 3 -->
      <g style="fill:#262626;" transform="translate(411.987911 196.787083)scale(0.077 -0.077)">
       <use xlink:href="#ArialMT-51"/>
      </g>
     </g>
    </g>
    <g id="xtick_18">
     <g id="line2d_85">
      <path clip-path="url(#p8794dd0444)" d="M 433.633674 184.775567 
L 433.633674 12.114937 
" style="fill:none;stroke:#000000;stroke-linecap:round;stroke-opacity:0.25;"/>
     </g>
     <g id="line2d_86">
      <g>
       <use style="fill:#262626;stroke:#262626;stroke-width:0.5;" x="433.633674" xlink:href="#m0d3123b25e" y="184.775567"/>
      </g>
     </g>
     <g id="text_39">
      <!-- 4 -->
      <g style="fill:#262626;" transform="translate(431.492713 196.787083)scale(0.077 -0.077)">
       <use xlink:href="#ArialMT-52"/>
      </g>
     </g>
    </g>
    <g id="xtick_19">
     <g id="line2d_87">
      <path clip-path="url(#p8794dd0444)" d="M 453.138476 184.775567 
L 453.138476 12.114937 
" style="fill:none;stroke:#000000;stroke-linecap:round;stroke-opacity:0.25;"/>
     </g>
     <g id="line2d_88">
      <g>
       <use style="fill:#262626;stroke:#262626;stroke-width:0.5;" x="453.138476" xlink:href="#m0d3123b25e" y="184.775567"/>
      </g>
     </g>
     <g id="text_40">
      <!-- 5 -->
      <g style="fill:#262626;" transform="translate(450.997515 196.787083)scale(0.077 -0.077)">
       <use xlink:href="#ArialMT-53"/>
      </g>
     </g>
    </g>
    <g id="xtick_20">
     <g id="line2d_89">
      <path clip-path="url(#p8794dd0444)" d="M 472.643278 184.775567 
L 472.643278 12.114937 
" style="fill:none;stroke:#000000;stroke-linecap:round;stroke-opacity:0.25;"/>
     </g>
     <g id="line2d_90">
      <g>
       <use style="fill:#262626;stroke:#262626;stroke-width:0.5;" x="472.643278" xlink:href="#m0d3123b25e" y="184.775567"/>
      </g>
     </g>
     <g id="text_41">
      <!-- 6 -->
      <g style="fill:#262626;" transform="translate(470.502317 196.787083)scale(0.077 -0.077)">
       <use xlink:href="#ArialMT-54"/>
      </g>
     </g>
    </g>
    <g id="xtick_21">
     <g id="line2d_91">
      <path clip-path="url(#p8794dd0444)" d="M 492.148079 184.775567 
L 492.148079 12.114937 
" style="fill:none;stroke:#000000;stroke-linecap:round;stroke-opacity:0.25;"/>
     </g>
     <g id="line2d_92">
      <g>
       <use style="fill:#262626;stroke:#262626;stroke-width:0.5;" x="492.148079" xlink:href="#m0d3123b25e" y="184.775567"/>
      </g>
     </g>
     <g id="text_42">
      <!-- 7 -->
      <g style="fill:#262626;" transform="translate(490.007119 196.787083)scale(0.077 -0.077)">
       <use xlink:href="#ArialMT-55"/>
      </g>
     </g>
    </g>
    <g id="text_43">
     <!-- Number of States -->
     <g style="fill:#262626;" transform="translate(400.954393 208.33002)scale(0.084 -0.084)">
      <use xlink:href="#ArialMT-78"/>
      <use x="72.216797" xlink:href="#ArialMT-117"/>
      <use x="127.832031" xlink:href="#ArialMT-109"/>
      <use x="211.132812" xlink:href="#ArialMT-98"/>
      <use x="266.748047" xlink:href="#ArialMT-101"/>
      <use x="322.363281" xlink:href="#ArialMT-114"/>
      <use x="355.664062" xlink:href="#ArialMT-32"/>
      <use x="383.447266" xlink:href="#ArialMT-111"/>
      <use x="439.0625" xlink:href="#ArialMT-102"/>
      <use x="466.845703" xlink:href="#ArialMT-32"/>
      <use x="494.628906" xlink:href="#ArialMT-83"/>
      <use x="561.328125" xlink:href="#ArialMT-116"/>
      <use x="589.111328" xlink:href="#ArialMT-97"/>
      <use x="644.726562" xlink:href="#ArialMT-116"/>
      <use x="672.509766" xlink:href="#ArialMT-101"/>
      <use x="728.125" xlink:href="#ArialMT-115"/>
     </g>
    </g>
   </g>
   <g id="matplotlib.axis_6">
    <g id="ytick_16">
     <g id="line2d_93">
      <path clip-path="url(#p8794dd0444)" d="M 369.267828 165.915213 
L 497.99952 165.915213 
" style="fill:none;stroke:#000000;stroke-linecap:round;stroke-opacity:0.25;"/>
     </g>
     <g id="line2d_94">
      <g>
       <use style="fill:#262626;stroke:#262626;stroke-width:0.5;" x="369.267828" xlink:href="#m55e4ea12fe" y="165.915213"/>
      </g>
     </g>
     <g id="text_44">
      <!-- 450 -->
      <g style="fill:#262626;" transform="translate(349.922062 168.670971)scale(0.077 -0.077)">
       <use xlink:href="#ArialMT-52"/>
       <use x="55.615234" xlink:href="#ArialMT-53"/>
       <use x="111.230469" xlink:href="#ArialMT-48"/>
      </g>
     </g>
    </g>
    <g id="ytick_17">
     <g id="line2d_95">
      <path clip-path="url(#p8794dd0444)" d="M 369.267828 144.697946 
L 497.99952 144.697946 
" style="fill:none;stroke:#000000;stroke-linecap:round;stroke-opacity:0.25;"/>
     </g>
     <g id="line2d_96">
      <g>
       <use style="fill:#262626;stroke:#262626;stroke-width:0.5;" x="369.267828" xlink:href="#m55e4ea12fe" y="144.697946"/>
      </g>
     </g>
     <g id="text_45">
      <!-- 500 -->
      <g style="fill:#262626;" transform="translate(349.922062 147.453703)scale(0.077 -0.077)">
       <use xlink:href="#ArialMT-53"/>
       <use x="55.615234" xlink:href="#ArialMT-48"/>
       <use x="111.230469" xlink:href="#ArialMT-48"/>
      </g>
     </g>
    </g>
    <g id="ytick_18">
     <g id="line2d_97">
      <path clip-path="url(#p8794dd0444)" d="M 369.267828 123.480678 
L 497.99952 123.480678 
" style="fill:none;stroke:#000000;stroke-linecap:round;stroke-opacity:0.25;"/>
     </g>
     <g id="line2d_98">
      <g>
       <use style="fill:#262626;stroke:#262626;stroke-width:0.5;" x="369.267828" xlink:href="#m55e4ea12fe" y="123.480678"/>
      </g>
     </g>
     <g id="text_46">
      <!-- 550 -->
      <g style="fill:#262626;" transform="translate(349.922062 126.236436)scale(0.077 -0.077)">
       <use xlink:href="#ArialMT-53"/>
       <use x="55.615234" xlink:href="#ArialMT-53"/>
       <use x="111.230469" xlink:href="#ArialMT-48"/>
      </g>
     </g>
    </g>
    <g id="ytick_19">
     <g id="line2d_99">
      <path clip-path="url(#p8794dd0444)" d="M 369.267828 102.263411 
L 497.99952 102.263411 
" style="fill:none;stroke:#000000;stroke-linecap:round;stroke-opacity:0.25;"/>
     </g>
     <g id="line2d_100">
      <g>
       <use style="fill:#262626;stroke:#262626;stroke-width:0.5;" x="369.267828" xlink:href="#m55e4ea12fe" y="102.263411"/>
      </g>
     </g>
     <g id="text_47">
      <!-- 600 -->
      <g style="fill:#262626;" transform="translate(349.922062 105.019168)scale(0.077 -0.077)">
       <use xlink:href="#ArialMT-54"/>
       <use x="55.615234" xlink:href="#ArialMT-48"/>
       <use x="111.230469" xlink:href="#ArialMT-48"/>
      </g>
     </g>
    </g>
    <g id="ytick_20">
     <g id="line2d_101">
      <path clip-path="url(#p8794dd0444)" d="M 369.267828 81.046143 
L 497.99952 81.046143 
" style="fill:none;stroke:#000000;stroke-linecap:round;stroke-opacity:0.25;"/>
     </g>
     <g id="line2d_102">
      <g>
       <use style="fill:#262626;stroke:#262626;stroke-width:0.5;" x="369.267828" xlink:href="#m55e4ea12fe" y="81.046143"/>
      </g>
     </g>
     <g id="text_48">
      <!-- 650 -->
      <g style="fill:#262626;" transform="translate(349.922062 83.801901)scale(0.077 -0.077)">
       <use xlink:href="#ArialMT-54"/>
       <use x="55.615234" xlink:href="#ArialMT-53"/>
       <use x="111.230469" xlink:href="#ArialMT-48"/>
      </g>
     </g>
    </g>
    <g id="ytick_21">
     <g id="line2d_103">
      <path clip-path="url(#p8794dd0444)" d="M 369.267828 59.828876 
L 497.99952 59.828876 
" style="fill:none;stroke:#000000;stroke-linecap:round;stroke-opacity:0.25;"/>
     </g>
     <g id="line2d_104">
      <g>
       <use style="fill:#262626;stroke:#262626;stroke-width:0.5;" x="369.267828" xlink:href="#m55e4ea12fe" y="59.828876"/>
      </g>
     </g>
     <g id="text_49">
      <!-- 700 -->
      <g style="fill:#262626;" transform="translate(349.922062 62.584634)scale(0.077 -0.077)">
       <use xlink:href="#ArialMT-55"/>
       <use x="55.615234" xlink:href="#ArialMT-48"/>
       <use x="111.230469" xlink:href="#ArialMT-48"/>
      </g>
     </g>
    </g>
    <g id="ytick_22">
     <g id="line2d_105">
      <path clip-path="url(#p8794dd0444)" d="M 369.267828 38.611608 
L 497.99952 38.611608 
" style="fill:none;stroke:#000000;stroke-linecap:round;stroke-opacity:0.25;"/>
     </g>
     <g id="line2d_106">
      <g>
       <use style="fill:#262626;stroke:#262626;stroke-width:0.5;" x="369.267828" xlink:href="#m55e4ea12fe" y="38.611608"/>
      </g>
     </g>
     <g id="text_50">
      <!-- 750 -->
      <g style="fill:#262626;" transform="translate(349.922062 41.367366)scale(0.077 -0.077)">
       <use xlink:href="#ArialMT-55"/>
       <use x="55.615234" xlink:href="#ArialMT-53"/>
       <use x="111.230469" xlink:href="#ArialMT-48"/>
      </g>
     </g>
    </g>
    <g id="ytick_23">
     <g id="line2d_107">
      <path clip-path="url(#p8794dd0444)" d="M 369.267828 17.394341 
L 497.99952 17.394341 
" style="fill:none;stroke:#000000;stroke-linecap:round;stroke-opacity:0.25;"/>
     </g>
     <g id="line2d_108">
      <g>
       <use style="fill:#262626;stroke:#262626;stroke-width:0.5;" x="369.267828" xlink:href="#m55e4ea12fe" y="17.394341"/>
      </g>
     </g>
     <g id="text_51">
      <!-- 800 -->
      <defs>
       <path d="M 17.671875 38.8125 
Q 12.203125 40.828125 9.5625 44.53125 
Q 6.9375 48.25 6.9375 53.421875 
Q 6.9375 61.234375 12.546875 66.546875 
Q 18.171875 71.875 27.484375 71.875 
Q 36.859375 71.875 42.578125 66.421875 
Q 48.296875 60.984375 48.296875 53.171875 
Q 48.296875 48.1875 45.671875 44.5 
Q 43.0625 40.828125 37.75 38.8125 
Q 44.34375 36.671875 47.78125 31.875 
Q 51.21875 27.09375 51.21875 20.453125 
Q 51.21875 11.28125 44.71875 5.03125 
Q 38.234375 -1.21875 27.640625 -1.21875 
Q 17.046875 -1.21875 10.546875 5.046875 
Q 4.046875 11.328125 4.046875 20.703125 
Q 4.046875 27.6875 7.59375 32.390625 
Q 11.140625 37.109375 17.671875 38.8125 
z
M 15.921875 53.71875 
Q 15.921875 48.640625 19.1875 45.40625 
Q 22.46875 42.1875 27.6875 42.1875 
Q 32.765625 42.1875 36.015625 45.375 
Q 39.265625 48.578125 39.265625 53.21875 
Q 39.265625 58.0625 35.90625 61.359375 
Q 32.5625 64.65625 27.59375 64.65625 
Q 22.5625 64.65625 19.234375 61.421875 
Q 15.921875 58.203125 15.921875 53.71875 
z
M 13.09375 20.65625 
Q 13.09375 16.890625 14.875 13.375 
Q 16.65625 9.859375 20.171875 7.921875 
Q 23.6875 6 27.734375 6 
Q 34.03125 6 38.125 10.046875 
Q 42.234375 14.109375 42.234375 20.359375 
Q 42.234375 26.703125 38.015625 30.859375 
Q 33.796875 35.015625 27.4375 35.015625 
Q 21.234375 35.015625 17.15625 30.90625 
Q 13.09375 26.8125 13.09375 20.65625 
z
" id="ArialMT-56"/>
      </defs>
      <g style="fill:#262626;" transform="translate(349.922062 20.150099)scale(0.077 -0.077)">
       <use xlink:href="#ArialMT-56"/>
       <use x="55.615234" xlink:href="#ArialMT-48"/>
       <use x="111.230469" xlink:href="#ArialMT-48"/>
      </g>
     </g>
    </g>
    <g id="text_52">
     <!-- AIC -->
     <g style="fill:#262626;" transform="translate(344.252562 105.446783)rotate(-90)scale(0.084 -0.084)">
      <use xlink:href="#ArialMT-65"/>
      <use x="66.699219" xlink:href="#ArialMT-73"/>
      <use x="94.482422" xlink:href="#ArialMT-67"/>
     </g>
    </g>
   </g>
   <g id="line2d_109">
    <path clip-path="url(#p8794dd0444)" d="M 375.119269 108.563969 
L 394.62407 98.997176 
L 414.128872 170.373046 
L 433.633674 161.939354 
L 453.138476 152.886934 
L 472.643278 139.735591 
L 492.148079 127.854208 
" style="fill:none;stroke:#1a1a1a;stroke-linecap:round;stroke-opacity:0.5;stroke-width:1.5;"/>
   </g>
   <g id="line2d_110">
    <path clip-path="url(#p8794dd0444)" d="M 375.119269 97.109871 
L 394.62407 98.562394 
L 414.128872 154.252847 
L 433.633674 145.545192 
L 453.138476 138.758094 
L 472.643278 124.118812 
L 492.148079 113.231639 
" style="fill:none;stroke:#1a1a1a;stroke-linecap:round;stroke-opacity:0.5;stroke-width:1.5;"/>
   </g>
   <g id="line2d_111">
    <path clip-path="url(#p8794dd0444)" d="M 375.119269 19.963148 
L 394.62407 26.310231 
L 414.128872 85.048952 
L 433.633674 79.189324 
L 453.138476 66.940342 
L 472.643278 62.807316 
L 492.148079 41.461575 
" style="fill:none;stroke:#1a1a1a;stroke-linecap:round;stroke-opacity:0.5;stroke-width:1.5;"/>
   </g>
   <g id="line2d_112">
    <path clip-path="url(#p8794dd0444)" d="M 375.119269 25.018599 
L 394.62407 35.145453 
L 414.128872 88.672296 
L 433.633674 82.648875 
L 453.138476 73.360538 
L 472.643278 64.166089 
L 492.148079 48.886525 
" style="fill:none;stroke:#1a1a1a;stroke-linecap:round;stroke-opacity:0.5;stroke-width:1.5;"/>
   </g>
   <g id="line2d_113">
    <path clip-path="url(#p8794dd0444)" d="M 375.119269 28.433706 
L 394.62407 37.757138 
L 414.128872 106.993968 
L 433.633674 98.262349 
L 453.138476 88.577636 
L 472.643278 76.588185 
L 492.148079 62.387324 
" style="fill:none;stroke:#1a1a1a;stroke-linecap:round;stroke-opacity:0.5;stroke-width:1.5;"/>
   </g>
   <g id="line2d_114">
    <path clip-path="url(#p8794dd0444)" d="M 375.119269 62.928147 
L 394.62407 125.954879 
L 414.128872 125.749966 
L 433.633674 117.402842 
L 453.138476 106.938455 
L 472.643278 99.402685 
L 492.148079 82.068704 
" style="fill:none;stroke:#1a1a1a;stroke-linecap:round;stroke-opacity:0.5;stroke-width:1.5;"/>
   </g>
   <g id="line2d_115">
    <path clip-path="url(#p8794dd0444)" d="M 375.119269 59.740543 
L 394.62407 128.148679 
L 414.128872 126.293524 
L 433.633674 117.590539 
L 453.138476 108.465828 
L 472.643278 96.229445 
L 492.148079 84.831288 
" style="fill:none;stroke:#1a1a1a;stroke-linecap:round;stroke-opacity:0.5;stroke-width:1.5;"/>
   </g>
   <g id="line2d_116">
    <path clip-path="url(#p8794dd0444)" d="M 375.119269 57.018128 
L 394.62407 121.484703 
L 414.128872 127.026332 
L 433.633674 118.103999 
L 453.138476 108.385477 
L 472.643278 96.10923 
L 492.148079 82.653538 
" style="fill:none;stroke:#1a1a1a;stroke-linecap:round;stroke-opacity:0.5;stroke-width:1.5;"/>
   </g>
   <g id="line2d_117">
    <path clip-path="url(#p8794dd0444)" d="M 375.119269 105.648045 
L 394.62407 106.59761 
L 414.128872 173.540716 
L 433.633674 164.818618 
L 453.138476 158.063975 
L 472.643278 143.172988 
L 492.148079 132.281177 
" style="fill:none;stroke:#1a1a1a;stroke-linecap:round;stroke-opacity:0.5;stroke-width:1.5;"/>
   </g>
   <g id="line2d_118">
    <path clip-path="url(#p8794dd0444)" d="M 375.119269 114.53052 
L 394.62407 111.15991 
L 414.128872 176.927356 
L 433.633674 168.351942 
L 453.138476 157.19664 
L 472.643278 146.610433 
L 492.148079 137.308446 
" style="fill:none;stroke:#1a1a1a;stroke-linecap:round;stroke-opacity:0.5;stroke-width:1.5;"/>
   </g>
   <g id="patch_13">
    <path d="M 369.267828 184.775567 
L 369.267828 12.114937 
" style="fill:none;stroke:#000000;stroke-linecap:square;stroke-linejoin:miter;stroke-width:0.25;"/>
   </g>
   <g id="patch_14">
    <path d="M 497.99952 184.775567 
L 497.99952 12.114937 
" style="fill:none;stroke:#000000;stroke-linecap:square;stroke-linejoin:miter;stroke-width:0.25;"/>
   </g>
   <g id="patch_15">
    <path d="M 369.267828 184.775567 
L 497.99952 184.775567 
" style="fill:none;stroke:#000000;stroke-linecap:square;stroke-linejoin:miter;stroke-width:0.25;"/>
   </g>
   <g id="patch_16">
    <path d="M 369.267828 12.114937 
L 497.99952 12.114937 
" style="fill:none;stroke:#000000;stroke-linecap:square;stroke-linejoin:miter;stroke-width:0.25;"/>
   </g>
   <g id="text_53">
    <!-- State Assignment AIC -->
    <g style="fill:#262626;" transform="translate(393.011799 6.114937)scale(0.084 -0.084)">
     <use xlink:href="#ArialMT-83"/>
     <use x="66.699219" xlink:href="#ArialMT-116"/>
     <use x="94.482422" xlink:href="#ArialMT-97"/>
     <use x="150.097656" xlink:href="#ArialMT-116"/>
     <use x="177.880859" xlink:href="#ArialMT-101"/>
     <use x="233.496094" xlink:href="#ArialMT-32"/>
     <use x="255.779297" xlink:href="#ArialMT-65"/>
     <use x="322.478516" xlink:href="#ArialMT-115"/>
     <use x="372.478516" xlink:href="#ArialMT-115"/>
     <use x="422.478516" xlink:href="#ArialMT-105"/>
     <use x="444.695312" xlink:href="#ArialMT-103"/>
     <use x="500.310547" xlink:href="#ArialMT-110"/>
     <use x="555.925781" xlink:href="#ArialMT-109"/>
     <use x="639.226562" xlink:href="#ArialMT-101"/>
     <use x="694.841797" xlink:href="#ArialMT-110"/>
     <use x="750.457031" xlink:href="#ArialMT-116"/>
     <use x="778.240234" xlink:href="#ArialMT-32"/>
     <use x="800.523438" xlink:href="#ArialMT-65"/>
     <use x="867.222656" xlink:href="#ArialMT-73"/>
     <use x="895.005859" xlink:href="#ArialMT-67"/>
    </g>
   </g>
  </g>
 </g>
 <defs>
  <clipPath id="p5f75c3357b">
   <rect height="172.660629" width="128.731692" x="31.027828" y="12.114937"/>
  </clipPath>
  <clipPath id="p59fd588a86">
   <rect height="172.660629" width="128.731692" x="200.147828" y="12.114937"/>
  </clipPath>
  <clipPath id="p8794dd0444">
   <rect height="172.660629" width="128.731692" x="369.267828" y="12.114937"/>
  </clipPath>
 </defs>
</svg>
