<?xml version="1.0" encoding="utf-8" standalone="no"?>
<!DOCTYPE svg PUBLIC "-//W3C//DTD SVG 1.1//EN"
  "http://www.w3.org/Graphics/SVG/1.1/DTD/svg11.dtd">
<svg xmlns:xlink="http://www.w3.org/1999/xlink" width="713.99952pt" height="209.99392pt" viewBox="0 0 713.99952 209.99392" xmlns="http://www.w3.org/2000/svg" version="1.1">
 <metadata>
  <rdf:RDF xmlns:dc="http://purl.org/dc/elements/1.1/" xmlns:cc="http://creativecommons.org/ns#" xmlns:rdf="http://www.w3.org/1999/02/22-rdf-syntax-ns#">
   <cc:Work>
    <dc:type rdf:resource="http://purl.org/dc/dcmitype/StillImage"/>
    <dc:date>2023-06-19T17:46:17.418415</dc:date>
    <dc:format>image/svg+xml</dc:format>
    <dc:creator>
     <cc:Agent>
      <dc:title>Matplotlib v3.7.1, https://matplotlib.org/</dc:title>
     </cc:Agent>
    </dc:creator>
   </cc:Work>
  </rdf:RDF>
 </metadata>
 <defs>
  <style type="text/css">*{stroke-linejoin: round; stroke-linecap: butt}</style>
 </defs>
 <g id="figure_1">
  <g id="patch_1">
   <path d="M 0 209.99392 
L 713.99952 209.99392 
L 713.99952 0 
L 0 0 
z
" style="fill: #ffffff"/>
  </g>
  <g id="axes_1">
   <g id="patch_2">
    <path d="M 24.851094 193.434076 
L 177.058036 193.434076 
L 177.058036 1.094338 
L 24.851094 1.094338 
z
" style="fill: #ffffff"/>
   </g>
   <g id="matplotlib.axis_1">
    <g id="xtick_1">
     <g id="line2d_1">
      <path d="M 24.851094 193.434076 
L 24.851094 1.094338 
" clip-path="url(#p991c494b58)" style="fill: none; stroke: #000000; stroke-opacity: 0.25; stroke-linecap: round"/>
     </g>
     <g id="line2d_2">
      <defs>
       <path id="m0c9f90e83a" d="M 0 3 
L 0 -3 
" style="stroke: #262626; stroke-width: 0.25"/>
      </defs>
      <g>
       <use xlink:href="#m0c9f90e83a" x="24.851094" y="193.434076" style="fill: #262626; stroke: #262626; stroke-width: 0.25"/>
      </g>
     </g>
     <g id="text_1">
      <text style="fill: #262626; font: 11px 'Arial', 'DejaVu Sans', 'Liberation Sans', 'Bitstream Vera Sans', sans-serif; text-anchor: middle" x="24.851094" y="207.80767" transform="rotate(-0 24.851094 207.80767)">0</text>
     </g>
    </g>
    <g id="xtick_2">
     <g id="line2d_3">
      <path d="M 64.695843 193.434076 
L 64.695843 1.094338 
" clip-path="url(#p991c494b58)" style="fill: none; stroke: #000000; stroke-opacity: 0.25; stroke-linecap: round"/>
     </g>
     <g id="line2d_4">
      <g>
       <use xlink:href="#m0c9f90e83a" x="64.695843" y="193.434076" style="fill: #262626; stroke: #262626; stroke-width: 0.25"/>
      </g>
     </g>
     <g id="text_2">
      <text style="fill: #262626; font: 11px 'Arial', 'DejaVu Sans', 'Liberation Sans', 'Bitstream Vera Sans', sans-serif; text-anchor: middle" x="64.695843" y="207.80767" transform="rotate(-0 64.695843 207.80767)">50</text>
     </g>
    </g>
    <g id="xtick_3">
     <g id="line2d_5">
      <path d="M 104.540592 193.434076 
L 104.540592 1.094338 
" clip-path="url(#p991c494b58)" style="fill: none; stroke: #000000; stroke-opacity: 0.25; stroke-linecap: round"/>
     </g>
     <g id="line2d_6">
      <g>
       <use xlink:href="#m0c9f90e83a" x="104.540592" y="193.434076" style="fill: #262626; stroke: #262626; stroke-width: 0.25"/>
      </g>
     </g>
     <g id="text_3">
      <text style="fill: #262626; font: 11px 'Arial', 'DejaVu Sans', 'Liberation Sans', 'Bitstream Vera Sans', sans-serif; text-anchor: middle" x="104.540592" y="207.80767" transform="rotate(-0 104.540592 207.80767)">100</text>
     </g>
    </g>
    <g id="xtick_4">
     <g id="line2d_7">
      <path d="M 144.385341 193.434076 
L 144.385341 1.094338 
" clip-path="url(#p991c494b58)" style="fill: none; stroke: #000000; stroke-opacity: 0.25; stroke-linecap: round"/>
     </g>
     <g id="line2d_8">
      <g>
       <use xlink:href="#m0c9f90e83a" x="144.385341" y="193.434076" style="fill: #262626; stroke: #262626; stroke-width: 0.25"/>
      </g>
     </g>
     <g id="text_4">
      <text style="fill: #262626; font: 11px 'Arial', 'DejaVu Sans', 'Liberation Sans', 'Bitstream Vera Sans', sans-serif; text-anchor: middle" x="144.385341" y="207.80767" transform="rotate(-0 144.385341 207.80767)">150</text>
     </g>
    </g>
   </g>
   <g id="matplotlib.axis_2">
    <g id="ytick_1">
     <g id="line2d_9">
      <path d="M 24.851094 193.434076 
L 177.058036 193.434076 
" clip-path="url(#p991c494b58)" style="fill: none; stroke: #000000; stroke-opacity: 0.25; stroke-linecap: round"/>
     </g>
     <g id="line2d_10">
      <defs>
       <path id="m49efd5f339" d="M 3 0 
L -3 -0 
" style="stroke: #262626; stroke-width: 0.25"/>
      </defs>
      <g>
       <use xlink:href="#m49efd5f339" x="24.851094" y="193.434076" style="fill: #262626; stroke: #262626; stroke-width: 0.25"/>
      </g>
     </g>
     <g id="text_5">
      <text style="fill: #262626; font: 11px 'Arial', 'DejaVu Sans', 'Liberation Sans', 'Bitstream Vera Sans', sans-serif; text-anchor: end" x="18.351094" y="197.370873" transform="rotate(-0 18.351094 197.370873)">0</text>
     </g>
    </g>
    <g id="ytick_2">
     <g id="line2d_11">
      <path d="M 24.851094 170.120169 
L 177.058036 170.120169 
" clip-path="url(#p991c494b58)" style="fill: none; stroke: #000000; stroke-opacity: 0.25; stroke-linecap: round"/>
     </g>
     <g id="line2d_12">
      <g>
       <use xlink:href="#m49efd5f339" x="24.851094" y="170.120169" style="fill: #262626; stroke: #262626; stroke-width: 0.25"/>
      </g>
     </g>
     <g id="text_6">
      <text style="fill: #262626; font: 11px 'Arial', 'DejaVu Sans', 'Liberation Sans', 'Bitstream Vera Sans', sans-serif; text-anchor: end" x="18.351094" y="174.056965" transform="rotate(-0 18.351094 174.056965)">20</text>
     </g>
    </g>
    <g id="ytick_3">
     <g id="line2d_13">
      <path d="M 24.851094 146.806261 
L 177.058036 146.806261 
" clip-path="url(#p991c494b58)" style="fill: none; stroke: #000000; stroke-opacity: 0.25; stroke-linecap: round"/>
     </g>
     <g id="line2d_14">
      <g>
       <use xlink:href="#m49efd5f339" x="24.851094" y="146.806261" style="fill: #262626; stroke: #262626; stroke-width: 0.25"/>
      </g>
     </g>
     <g id="text_7">
      <text style="fill: #262626; font: 11px 'Arial', 'DejaVu Sans', 'Liberation Sans', 'Bitstream Vera Sans', sans-serif; text-anchor: end" x="18.351094" y="150.743058" transform="rotate(-0 18.351094 150.743058)">40</text>
     </g>
    </g>
    <g id="ytick_4">
     <g id="line2d_15">
      <path d="M 24.851094 123.492353 
L 177.058036 123.492353 
" clip-path="url(#p991c494b58)" style="fill: none; stroke: #000000; stroke-opacity: 0.25; stroke-linecap: round"/>
     </g>
     <g id="line2d_16">
      <g>
       <use xlink:href="#m49efd5f339" x="24.851094" y="123.492353" style="fill: #262626; stroke: #262626; stroke-width: 0.25"/>
      </g>
     </g>
     <g id="text_8">
      <text style="fill: #262626; font: 11px 'Arial', 'DejaVu Sans', 'Liberation Sans', 'Bitstream Vera Sans', sans-serif; text-anchor: end" x="18.351094" y="127.42915" transform="rotate(-0 18.351094 127.42915)">60</text>
     </g>
    </g>
    <g id="ytick_5">
     <g id="line2d_17">
      <path d="M 24.851094 100.178445 
L 177.058036 100.178445 
" clip-path="url(#p991c494b58)" style="fill: none; stroke: #000000; stroke-opacity: 0.25; stroke-linecap: round"/>
     </g>
     <g id="line2d_18">
      <g>
       <use xlink:href="#m49efd5f339" x="24.851094" y="100.178445" style="fill: #262626; stroke: #262626; stroke-width: 0.25"/>
      </g>
     </g>
     <g id="text_9">
      <text style="fill: #262626; font: 11px 'Arial', 'DejaVu Sans', 'Liberation Sans', 'Bitstream Vera Sans', sans-serif; text-anchor: end" x="18.351094" y="104.115242" transform="rotate(-0 18.351094 104.115242)">80</text>
     </g>
    </g>
    <g id="ytick_6">
     <g id="line2d_19">
      <path d="M 24.851094 76.864538 
L 177.058036 76.864538 
" clip-path="url(#p991c494b58)" style="fill: none; stroke: #000000; stroke-opacity: 0.25; stroke-linecap: round"/>
     </g>
     <g id="line2d_20">
      <g>
       <use xlink:href="#m49efd5f339" x="24.851094" y="76.864538" style="fill: #262626; stroke: #262626; stroke-width: 0.25"/>
      </g>
     </g>
     <g id="text_10">
      <text style="fill: #262626; font: 11px 'Arial', 'DejaVu Sans', 'Liberation Sans', 'Bitstream Vera Sans', sans-serif; text-anchor: end" x="18.351094" y="80.801335" transform="rotate(-0 18.351094 80.801335)">100</text>
     </g>
    </g>
    <g id="ytick_7">
     <g id="line2d_21">
      <path d="M 24.851094 53.55063 
L 177.058036 53.55063 
" clip-path="url(#p991c494b58)" style="fill: none; stroke: #000000; stroke-opacity: 0.25; stroke-linecap: round"/>
     </g>
     <g id="line2d_22">
      <g>
       <use xlink:href="#m49efd5f339" x="24.851094" y="53.55063" style="fill: #262626; stroke: #262626; stroke-width: 0.25"/>
      </g>
     </g>
     <g id="text_11">
      <text style="fill: #262626; font: 11px 'Arial', 'DejaVu Sans', 'Liberation Sans', 'Bitstream Vera Sans', sans-serif; text-anchor: end" x="18.351094" y="57.487427" transform="rotate(-0 18.351094 57.487427)">120</text>
     </g>
    </g>
    <g id="ytick_8">
     <g id="line2d_23">
      <path d="M 24.851094 30.236722 
L 177.058036 30.236722 
" clip-path="url(#p991c494b58)" style="fill: none; stroke: #000000; stroke-opacity: 0.25; stroke-linecap: round"/>
     </g>
     <g id="line2d_24">
      <g>
       <use xlink:href="#m49efd5f339" x="24.851094" y="30.236722" style="fill: #262626; stroke: #262626; stroke-width: 0.25"/>
      </g>
     </g>
     <g id="text_12">
      <text style="fill: #262626; font: 11px 'Arial', 'DejaVu Sans', 'Liberation Sans', 'Bitstream Vera Sans', sans-serif; text-anchor: end" x="18.351094" y="34.173519" transform="rotate(-0 18.351094 34.173519)">140</text>
     </g>
    </g>
    <g id="ytick_9">
     <g id="line2d_25">
      <path d="M 24.851094 6.922815 
L 177.058036 6.922815 
" clip-path="url(#p991c494b58)" style="fill: none; stroke: #000000; stroke-opacity: 0.25; stroke-linecap: round"/>
     </g>
     <g id="line2d_26">
      <g>
       <use xlink:href="#m49efd5f339" x="24.851094" y="6.922815" style="fill: #262626; stroke: #262626; stroke-width: 0.25"/>
      </g>
     </g>
     <g id="text_13">
      <text style="fill: #262626; font: 11px 'Arial', 'DejaVu Sans', 'Liberation Sans', 'Bitstream Vera Sans', sans-serif; text-anchor: end" x="18.351094" y="10.859611" transform="rotate(-0 18.351094 10.859611)">160</text>
     </g>
    </g>
   </g>
   <g id="line2d_27">
    <path d="M 24.851094 193.434076 
L 25.647989 1.094338 
L 26.444884 8.08851 
L 27.241779 17.414073 
L 28.038674 29.071027 
L 28.835569 38.39659 
L 29.632464 52.384935 
L 30.429359 58.213412 
L 31.226254 65.207584 
L 32.023149 71.036061 
L 32.820044 78.030233 
L 33.616939 80.361624 
L 34.413834 90.852882 
L 35.210729 97.847055 
L 36.007624 103.675532 
L 37.601413 123.492353 
L 38.398308 128.155135 
L 39.195203 133.983612 
L 39.992098 137.480698 
L 40.788993 138.646393 
L 41.585888 140.977784 
L 42.382783 146.806261 
L 43.179678 156.131824 
L 43.976573 156.131824 
L 44.773468 158.463215 
L 45.570363 158.463215 
L 46.367258 161.960301 
L 47.961048 164.291692 
L 49.554838 164.291692 
L 55.929998 173.617255 
L 56.726893 173.617255 
L 57.523788 175.948646 
L 59.914473 175.948646 
L 60.711368 177.114341 
L 62.305158 177.114341 
L 63.102053 180.611427 
L 63.898948 182.942818 
L 71.071003 182.942818 
L 71.867898 184.108513 
L 75.055478 184.108513 
L 75.852373 185.274209 
L 100.556117 185.274209 
L 101.353012 191.102686 
L 102.149907 193.434076 
L 177.058036 193.434076 
L 177.058036 193.434076 
" clip-path="url(#p991c494b58)" style="fill: none; stroke: #4c72b0; stroke-width: 1.5; stroke-linecap: round"/>
   </g>
   <g id="line2d_28">
    <path d="M 24.851094 193.434076 
L 177.058036 193.434076 
L 177.058036 193.434076 
" clip-path="url(#p991c494b58)" style="fill: none; stroke: #dd8452; stroke-width: 1.5; stroke-linecap: round"/>
   </g>
   <g id="patch_3">
    <path d="M 24.851094 193.434076 
L 24.851094 1.094338 
" style="fill: none; stroke: #000000; stroke-width: 0.25; stroke-linejoin: miter; stroke-linecap: square"/>
   </g>
   <g id="patch_4">
    <path d="M 177.058036 193.434076 
L 177.058036 1.094338 
" style="fill: none; stroke: #000000; stroke-width: 0.25; stroke-linejoin: miter; stroke-linecap: square"/>
   </g>
   <g id="patch_5">
    <path d="M 24.851094 193.434076 
L 177.058036 193.434076 
" style="fill: none; stroke: #000000; stroke-width: 0.25; stroke-linejoin: miter; stroke-linecap: square"/>
   </g>
   <g id="patch_6">
    <path d="M 24.851094 1.094338 
L 177.058036 1.094338 
" style="fill: none; stroke: #000000; stroke-width: 0.25; stroke-linejoin: miter; stroke-linecap: square"/>
   </g>
  </g>
  <g id="axes_2">
   <g id="patch_7">
    <path d="M 201.792578 193.434076 
L 353.99952 193.434076 
L 353.99952 1.094338 
L 201.792578 1.094338 
z
" style="fill: #ffffff"/>
   </g>
   <g id="matplotlib.axis_3">
    <g id="xtick_5">
     <g id="line2d_29">
      <path d="M 201.792578 193.434076 
L 201.792578 1.094338 
" clip-path="url(#pc7310543d1)" style="fill: none; stroke: #000000; stroke-opacity: 0.25; stroke-linecap: round"/>
     </g>
     <g id="line2d_30">
      <g>
       <use xlink:href="#m0c9f90e83a" x="201.792578" y="193.434076" style="fill: #262626; stroke: #262626; stroke-width: 0.25"/>
      </g>
     </g>
     <g id="text_14">
      <text style="fill: #262626; font: 11px 'Arial', 'DejaVu Sans', 'Liberation Sans', 'Bitstream Vera Sans', sans-serif; text-anchor: middle" x="201.792578" y="207.80767" transform="rotate(-0 201.792578 207.80767)">0</text>
     </g>
    </g>
    <g id="xtick_6">
     <g id="line2d_31">
      <path d="M 241.637327 193.434076 
L 241.637327 1.094338 
" clip-path="url(#pc7310543d1)" style="fill: none; stroke: #000000; stroke-opacity: 0.25; stroke-linecap: round"/>
     </g>
     <g id="line2d_32">
      <g>
       <use xlink:href="#m0c9f90e83a" x="241.637327" y="193.434076" style="fill: #262626; stroke: #262626; stroke-width: 0.25"/>
      </g>
     </g>
     <g id="text_15">
      <text style="fill: #262626; font: 11px 'Arial', 'DejaVu Sans', 'Liberation Sans', 'Bitstream Vera Sans', sans-serif; text-anchor: middle" x="241.637327" y="207.80767" transform="rotate(-0 241.637327 207.80767)">50</text>
     </g>
    </g>
    <g id="xtick_7">
     <g id="line2d_33">
      <path d="M 281.482076 193.434076 
L 281.482076 1.094338 
" clip-path="url(#pc7310543d1)" style="fill: none; stroke: #000000; stroke-opacity: 0.25; stroke-linecap: round"/>
     </g>
     <g id="line2d_34">
      <g>
       <use xlink:href="#m0c9f90e83a" x="281.482076" y="193.434076" style="fill: #262626; stroke: #262626; stroke-width: 0.25"/>
      </g>
     </g>
     <g id="text_16">
      <text style="fill: #262626; font: 11px 'Arial', 'DejaVu Sans', 'Liberation Sans', 'Bitstream Vera Sans', sans-serif; text-anchor: middle" x="281.482076" y="207.80767" transform="rotate(-0 281.482076 207.80767)">100</text>
     </g>
    </g>
    <g id="xtick_8">
     <g id="line2d_35">
      <path d="M 321.326826 193.434076 
L 321.326826 1.094338 
" clip-path="url(#pc7310543d1)" style="fill: none; stroke: #000000; stroke-opacity: 0.25; stroke-linecap: round"/>
     </g>
     <g id="line2d_36">
      <g>
       <use xlink:href="#m0c9f90e83a" x="321.326826" y="193.434076" style="fill: #262626; stroke: #262626; stroke-width: 0.25"/>
      </g>
     </g>
     <g id="text_17">
      <text style="fill: #262626; font: 11px 'Arial', 'DejaVu Sans', 'Liberation Sans', 'Bitstream Vera Sans', sans-serif; text-anchor: middle" x="321.326826" y="207.80767" transform="rotate(-0 321.326826 207.80767)">150</text>
     </g>
    </g>
   </g>
   <g id="matplotlib.axis_4">
    <g id="ytick_10">
     <g id="line2d_37">
      <path d="M 201.792578 193.434076 
L 353.99952 193.434076 
" clip-path="url(#pc7310543d1)" style="fill: none; stroke: #000000; stroke-opacity: 0.25; stroke-linecap: round"/>
     </g>
     <g id="line2d_38">
      <g>
       <use xlink:href="#m49efd5f339" x="201.792578" y="193.434076" style="fill: #262626; stroke: #262626; stroke-width: 0.25"/>
      </g>
     </g>
     <g id="text_18">
      <text style="fill: #262626; font: 11px 'Arial', 'DejaVu Sans', 'Liberation Sans', 'Bitstream Vera Sans', sans-serif; text-anchor: end" x="195.292578" y="197.370873" transform="rotate(-0 195.292578 197.370873)">0</text>
     </g>
    </g>
    <g id="ytick_11">
     <g id="line2d_39">
      <path d="M 201.792578 154.577563 
L 353.99952 154.577563 
" clip-path="url(#pc7310543d1)" style="fill: none; stroke: #000000; stroke-opacity: 0.25; stroke-linecap: round"/>
     </g>
     <g id="line2d_40">
      <g>
       <use xlink:href="#m49efd5f339" x="201.792578" y="154.577563" style="fill: #262626; stroke: #262626; stroke-width: 0.25"/>
      </g>
     </g>
     <g id="text_19">
      <text style="fill: #262626; font: 11px 'Arial', 'DejaVu Sans', 'Liberation Sans', 'Bitstream Vera Sans', sans-serif; text-anchor: end" x="195.292578" y="158.51436" transform="rotate(-0 195.292578 158.51436)">20</text>
     </g>
    </g>
    <g id="ytick_12">
     <g id="line2d_41">
      <path d="M 201.792578 115.721051 
L 353.99952 115.721051 
" clip-path="url(#pc7310543d1)" style="fill: none; stroke: #000000; stroke-opacity: 0.25; stroke-linecap: round"/>
     </g>
     <g id="line2d_42">
      <g>
       <use xlink:href="#m49efd5f339" x="201.792578" y="115.721051" style="fill: #262626; stroke: #262626; stroke-width: 0.25"/>
      </g>
     </g>
     <g id="text_20">
      <text style="fill: #262626; font: 11px 'Arial', 'DejaVu Sans', 'Liberation Sans', 'Bitstream Vera Sans', sans-serif; text-anchor: end" x="195.292578" y="119.657847" transform="rotate(-0 195.292578 119.657847)">40</text>
     </g>
    </g>
    <g id="ytick_13">
     <g id="line2d_43">
      <path d="M 201.792578 76.864538 
L 353.99952 76.864538 
" clip-path="url(#pc7310543d1)" style="fill: none; stroke: #000000; stroke-opacity: 0.25; stroke-linecap: round"/>
     </g>
     <g id="line2d_44">
      <g>
       <use xlink:href="#m49efd5f339" x="201.792578" y="76.864538" style="fill: #262626; stroke: #262626; stroke-width: 0.25"/>
      </g>
     </g>
     <g id="text_21">
      <text style="fill: #262626; font: 11px 'Arial', 'DejaVu Sans', 'Liberation Sans', 'Bitstream Vera Sans', sans-serif; text-anchor: end" x="195.292578" y="80.801335" transform="rotate(-0 195.292578 80.801335)">60</text>
     </g>
    </g>
    <g id="ytick_14">
     <g id="line2d_45">
      <path d="M 201.792578 38.008025 
L 353.99952 38.008025 
" clip-path="url(#pc7310543d1)" style="fill: none; stroke: #000000; stroke-opacity: 0.25; stroke-linecap: round"/>
     </g>
     <g id="line2d_46">
      <g>
       <use xlink:href="#m49efd5f339" x="201.792578" y="38.008025" style="fill: #262626; stroke: #262626; stroke-width: 0.25"/>
      </g>
     </g>
     <g id="text_22">
      <text style="fill: #262626; font: 11px 'Arial', 'DejaVu Sans', 'Liberation Sans', 'Bitstream Vera Sans', sans-serif; text-anchor: end" x="195.292578" y="41.944822" transform="rotate(-0 195.292578 41.944822)">80</text>
     </g>
    </g>
   </g>
   <g id="line2d_47">
    <path d="M 201.792578 193.434076 
L 202.589473 1.094338 
L 203.386368 14.694117 
L 204.183263 20.522594 
L 204.980158 39.950851 
L 205.777053 47.722153 
L 206.573948 61.321933 
L 207.370843 67.15041 
L 208.167738 71.036061 
L 209.761528 82.693015 
L 210.558423 92.407143 
L 212.152213 100.178445 
L 212.949108 100.178445 
L 213.746003 107.949748 
L 214.542898 117.663876 
L 215.339793 123.492353 
L 216.136688 125.435179 
L 217.730478 133.206481 
L 218.527373 139.034958 
L 220.121163 139.034958 
L 220.918058 144.863435 
L 221.714953 146.806261 
L 222.511848 146.806261 
L 224.105638 154.577563 
L 224.902533 156.520389 
L 226.496323 156.520389 
L 228.090113 160.40604 
L 229.683903 160.40604 
L 230.480798 164.291692 
L 232.074588 168.177343 
L 232.871482 168.177343 
L 233.668377 170.120169 
L 236.059062 170.120169 
L 240.840432 181.777122 
L 251.996962 181.777122 
L 252.793857 183.719948 
L 259.965912 183.719948 
L 260.762807 187.605599 
L 277.497602 187.605599 
L 278.294497 191.491251 
L 279.091392 193.434076 
L 353.99952 193.434076 
L 353.99952 193.434076 
" clip-path="url(#pc7310543d1)" style="fill: none; stroke: #4c72b0; stroke-width: 1.5; stroke-linecap: round"/>
   </g>
   <g id="line2d_48">
    <path d="M 201.792578 193.434076 
L 353.99952 193.434076 
L 353.99952 193.434076 
" clip-path="url(#pc7310543d1)" style="fill: none; stroke: #dd8452; stroke-width: 1.5; stroke-linecap: round"/>
   </g>
   <g id="patch_8">
    <path d="M 201.792578 193.434076 
L 201.792578 1.094338 
" style="fill: none; stroke: #000000; stroke-width: 0.25; stroke-linejoin: miter; stroke-linecap: square"/>
   </g>
   <g id="patch_9">
    <path d="M 353.99952 193.434076 
L 353.99952 1.094338 
" style="fill: none; stroke: #000000; stroke-width: 0.25; stroke-linejoin: miter; stroke-linecap: square"/>
   </g>
   <g id="patch_10">
    <path d="M 201.792578 193.434076 
L 353.99952 193.434076 
" style="fill: none; stroke: #000000; stroke-width: 0.25; stroke-linejoin: miter; stroke-linecap: square"/>
   </g>
   <g id="patch_11">
    <path d="M 201.792578 1.094338 
L 353.99952 1.094338 
" style="fill: none; stroke: #000000; stroke-width: 0.25; stroke-linejoin: miter; stroke-linecap: square"/>
   </g>
  </g>
  <g id="axes_3">
   <g id="patch_12">
    <path d="M 384.851094 193.434076 
L 537.058036 193.434076 
L 537.058036 1.094338 
L 384.851094 1.094338 
z
" style="fill: #ffffff"/>
   </g>
   <g id="matplotlib.axis_5">
    <g id="xtick_9">
     <g id="line2d_49">
      <path d="M 384.851094 193.434076 
L 384.851094 1.094338 
" clip-path="url(#p902e673b32)" style="fill: none; stroke: #000000; stroke-opacity: 0.25; stroke-linecap: round"/>
     </g>
     <g id="line2d_50">
      <g>
       <use xlink:href="#m0c9f90e83a" x="384.851094" y="193.434076" style="fill: #262626; stroke: #262626; stroke-width: 0.25"/>
      </g>
     </g>
     <g id="text_23">
      <text style="fill: #262626; font: 11px 'Arial', 'DejaVu Sans', 'Liberation Sans', 'Bitstream Vera Sans', sans-serif; text-anchor: middle" x="384.851094" y="207.80767" transform="rotate(-0 384.851094 207.80767)">0</text>
     </g>
    </g>
    <g id="xtick_10">
     <g id="line2d_51">
      <path d="M 424.695843 193.434076 
L 424.695843 1.094338 
" clip-path="url(#p902e673b32)" style="fill: none; stroke: #000000; stroke-opacity: 0.25; stroke-linecap: round"/>
     </g>
     <g id="line2d_52">
      <g>
       <use xlink:href="#m0c9f90e83a" x="424.695843" y="193.434076" style="fill: #262626; stroke: #262626; stroke-width: 0.25"/>
      </g>
     </g>
     <g id="text_24">
      <text style="fill: #262626; font: 11px 'Arial', 'DejaVu Sans', 'Liberation Sans', 'Bitstream Vera Sans', sans-serif; text-anchor: middle" x="424.695843" y="207.80767" transform="rotate(-0 424.695843 207.80767)">50</text>
     </g>
    </g>
    <g id="xtick_11">
     <g id="line2d_53">
      <path d="M 464.540592 193.434076 
L 464.540592 1.094338 
" clip-path="url(#p902e673b32)" style="fill: none; stroke: #000000; stroke-opacity: 0.25; stroke-linecap: round"/>
     </g>
     <g id="line2d_54">
      <g>
       <use xlink:href="#m0c9f90e83a" x="464.540592" y="193.434076" style="fill: #262626; stroke: #262626; stroke-width: 0.25"/>
      </g>
     </g>
     <g id="text_25">
      <text style="fill: #262626; font: 11px 'Arial', 'DejaVu Sans', 'Liberation Sans', 'Bitstream Vera Sans', sans-serif; text-anchor: middle" x="464.540592" y="207.80767" transform="rotate(-0 464.540592 207.80767)">100</text>
     </g>
    </g>
    <g id="xtick_12">
     <g id="line2d_55">
      <path d="M 504.385341 193.434076 
L 504.385341 1.094338 
" clip-path="url(#p902e673b32)" style="fill: none; stroke: #000000; stroke-opacity: 0.25; stroke-linecap: round"/>
     </g>
     <g id="line2d_56">
      <g>
       <use xlink:href="#m0c9f90e83a" x="504.385341" y="193.434076" style="fill: #262626; stroke: #262626; stroke-width: 0.25"/>
      </g>
     </g>
     <g id="text_26">
      <text style="fill: #262626; font: 11px 'Arial', 'DejaVu Sans', 'Liberation Sans', 'Bitstream Vera Sans', sans-serif; text-anchor: middle" x="504.385341" y="207.80767" transform="rotate(-0 504.385341 207.80767)">150</text>
     </g>
    </g>
   </g>
   <g id="matplotlib.axis_6">
    <g id="ytick_15">
     <g id="line2d_57">
      <path d="M 384.851094 193.434076 
L 537.058036 193.434076 
" clip-path="url(#p902e673b32)" style="fill: none; stroke: #000000; stroke-opacity: 0.25; stroke-linecap: round"/>
     </g>
     <g id="line2d_58">
      <g>
       <use xlink:href="#m49efd5f339" x="384.851094" y="193.434076" style="fill: #262626; stroke: #262626; stroke-width: 0.25"/>
      </g>
     </g>
     <g id="text_27">
      <text style="fill: #262626; font: 11px 'Arial', 'DejaVu Sans', 'Liberation Sans', 'Bitstream Vera Sans', sans-serif; text-anchor: end" x="378.351094" y="197.370873" transform="rotate(-0 378.351094 197.370873)">0</text>
     </g>
    </g>
    <g id="ytick_16">
     <g id="line2d_59">
      <path d="M 384.851094 169.746916 
L 537.058036 169.746916 
" clip-path="url(#p902e673b32)" style="fill: none; stroke: #000000; stroke-opacity: 0.25; stroke-linecap: round"/>
     </g>
     <g id="line2d_60">
      <g>
       <use xlink:href="#m49efd5f339" x="384.851094" y="169.746916" style="fill: #262626; stroke: #262626; stroke-width: 0.25"/>
      </g>
     </g>
     <g id="text_28">
      <text style="fill: #262626; font: 11px 'Arial', 'DejaVu Sans', 'Liberation Sans', 'Bitstream Vera Sans', sans-serif; text-anchor: end" x="378.351094" y="173.683713" transform="rotate(-0 378.351094 173.683713)">25</text>
     </g>
    </g>
    <g id="ytick_17">
     <g id="line2d_61">
      <path d="M 384.851094 146.059756 
L 537.058036 146.059756 
" clip-path="url(#p902e673b32)" style="fill: none; stroke: #000000; stroke-opacity: 0.25; stroke-linecap: round"/>
     </g>
     <g id="line2d_62">
      <g>
       <use xlink:href="#m49efd5f339" x="384.851094" y="146.059756" style="fill: #262626; stroke: #262626; stroke-width: 0.25"/>
      </g>
     </g>
     <g id="text_29">
      <text style="fill: #262626; font: 11px 'Arial', 'DejaVu Sans', 'Liberation Sans', 'Bitstream Vera Sans', sans-serif; text-anchor: end" x="378.351094" y="149.996553" transform="rotate(-0 378.351094 149.996553)">50</text>
     </g>
    </g>
    <g id="ytick_18">
     <g id="line2d_63">
      <path d="M 384.851094 122.372597 
L 537.058036 122.372597 
" clip-path="url(#p902e673b32)" style="fill: none; stroke: #000000; stroke-opacity: 0.25; stroke-linecap: round"/>
     </g>
     <g id="line2d_64">
      <g>
       <use xlink:href="#m49efd5f339" x="384.851094" y="122.372597" style="fill: #262626; stroke: #262626; stroke-width: 0.25"/>
      </g>
     </g>
     <g id="text_30">
      <text style="fill: #262626; font: 11px 'Arial', 'DejaVu Sans', 'Liberation Sans', 'Bitstream Vera Sans', sans-serif; text-anchor: end" x="378.351094" y="126.309393" transform="rotate(-0 378.351094 126.309393)">75</text>
     </g>
    </g>
    <g id="ytick_19">
     <g id="line2d_65">
      <path d="M 384.851094 98.685437 
L 537.058036 98.685437 
" clip-path="url(#p902e673b32)" style="fill: none; stroke: #000000; stroke-opacity: 0.25; stroke-linecap: round"/>
     </g>
     <g id="line2d_66">
      <g>
       <use xlink:href="#m49efd5f339" x="384.851094" y="98.685437" style="fill: #262626; stroke: #262626; stroke-width: 0.25"/>
      </g>
     </g>
     <g id="text_31">
      <text style="fill: #262626; font: 11px 'Arial', 'DejaVu Sans', 'Liberation Sans', 'Bitstream Vera Sans', sans-serif; text-anchor: end" x="378.351094" y="102.622233" transform="rotate(-0 378.351094 102.622233)">100</text>
     </g>
    </g>
    <g id="ytick_20">
     <g id="line2d_67">
      <path d="M 384.851094 74.998277 
L 537.058036 74.998277 
" clip-path="url(#p902e673b32)" style="fill: none; stroke: #000000; stroke-opacity: 0.25; stroke-linecap: round"/>
     </g>
     <g id="line2d_68">
      <g>
       <use xlink:href="#m49efd5f339" x="384.851094" y="74.998277" style="fill: #262626; stroke: #262626; stroke-width: 0.25"/>
      </g>
     </g>
     <g id="text_32">
      <text style="fill: #262626; font: 11px 'Arial', 'DejaVu Sans', 'Liberation Sans', 'Bitstream Vera Sans', sans-serif; text-anchor: end" x="378.351094" y="78.935074" transform="rotate(-0 378.351094 78.935074)">125</text>
     </g>
    </g>
    <g id="ytick_21">
     <g id="line2d_69">
      <path d="M 384.851094 51.311117 
L 537.058036 51.311117 
" clip-path="url(#p902e673b32)" style="fill: none; stroke: #000000; stroke-opacity: 0.25; stroke-linecap: round"/>
     </g>
     <g id="line2d_70">
      <g>
       <use xlink:href="#m49efd5f339" x="384.851094" y="51.311117" style="fill: #262626; stroke: #262626; stroke-width: 0.25"/>
      </g>
     </g>
     <g id="text_33">
      <text style="fill: #262626; font: 11px 'Arial', 'DejaVu Sans', 'Liberation Sans', 'Bitstream Vera Sans', sans-serif; text-anchor: end" x="378.351094" y="55.247914" transform="rotate(-0 378.351094 55.247914)">150</text>
     </g>
    </g>
    <g id="ytick_22">
     <g id="line2d_71">
      <path d="M 384.851094 27.623957 
L 537.058036 27.623957 
" clip-path="url(#p902e673b32)" style="fill: none; stroke: #000000; stroke-opacity: 0.25; stroke-linecap: round"/>
     </g>
     <g id="line2d_72">
      <g>
       <use xlink:href="#m49efd5f339" x="384.851094" y="27.623957" style="fill: #262626; stroke: #262626; stroke-width: 0.25"/>
      </g>
     </g>
     <g id="text_34">
      <text style="fill: #262626; font: 11px 'Arial', 'DejaVu Sans', 'Liberation Sans', 'Bitstream Vera Sans', sans-serif; text-anchor: end" x="378.351094" y="31.560754" transform="rotate(-0 378.351094 31.560754)">175</text>
     </g>
    </g>
    <g id="ytick_23">
     <g id="line2d_73">
      <path d="M 384.851094 3.936797 
L 537.058036 3.936797 
" clip-path="url(#p902e673b32)" style="fill: none; stroke: #000000; stroke-opacity: 0.25; stroke-linecap: round"/>
     </g>
     <g id="line2d_74">
      <g>
       <use xlink:href="#m49efd5f339" x="384.851094" y="3.936797" style="fill: #262626; stroke: #262626; stroke-width: 0.25"/>
      </g>
     </g>
     <g id="text_35">
      <text style="fill: #262626; font: 11px 'Arial', 'DejaVu Sans', 'Liberation Sans', 'Bitstream Vera Sans', sans-serif; text-anchor: end" x="378.351094" y="7.873594" transform="rotate(-0 378.351094 7.873594)">200</text>
     </g>
    </g>
   </g>
   <g id="line2d_75">
    <path d="M 384.851094 193.434076 
L 385.647989 1.094338 
L 386.444884 9.621715 
L 387.241779 14.359147 
L 388.835569 34.256362 
L 389.632464 40.888766 
L 390.429359 44.678712 
L 391.226254 49.416144 
L 392.023149 50.36363 
L 393.616939 57.943522 
L 394.413834 59.838494 
L 395.210729 59.838494 
L 396.804519 65.523413 
L 397.601413 70.260845 
L 398.398308 70.260845 
L 399.992098 72.155817 
L 400.788993 75.945763 
L 401.585888 78.788222 
L 402.382783 78.788222 
L 403.179678 83.525654 
L 404.773468 85.420627 
L 406.367258 91.105545 
L 407.164153 93.000518 
L 408.757943 98.685437 
L 409.554838 100.580409 
L 410.351733 106.265328 
L 411.148628 109.107787 
L 412.742418 111.00276 
L 413.539313 112.897733 
L 415.133103 118.582651 
L 415.929998 120.477624 
L 416.726893 124.267569 
L 417.523788 127.110029 
L 418.320683 127.110029 
L 419.117578 129.952488 
L 420.711368 133.742433 
L 422.305158 133.742433 
L 423.102053 134.68992 
L 423.898948 136.584892 
L 424.695843 137.532379 
L 425.492738 141.322324 
L 426.289633 142.269811 
L 427.086528 145.11227 
L 427.883423 145.11227 
L 428.680318 147.007243 
L 430.274108 152.692161 
L 431.071003 152.692161 
L 431.867898 153.639648 
L 432.664793 155.53462 
L 433.461688 155.53462 
L 435.055478 157.429593 
L 435.852373 157.429593 
L 436.649268 159.324566 
L 438.243058 161.219539 
L 439.039953 163.114512 
L 439.836848 163.114512 
L 440.633743 165.009484 
L 441.430638 165.956971 
L 442.227533 169.746916 
L 445.415113 169.746916 
L 446.212007 170.694403 
L 447.008902 170.694403 
L 447.805797 173.536862 
L 448.602692 174.484348 
L 452.587167 174.484348 
L 453.384062 175.431835 
L 454.180957 175.431835 
L 454.977852 176.379321 
L 457.368537 176.379321 
L 458.165432 177.326808 
L 460.556117 177.326808 
L 461.353012 187.749158 
L 462.149907 193.434076 
L 537.058036 193.434076 
L 537.058036 193.434076 
" clip-path="url(#p902e673b32)" style="fill: none; stroke: #4c72b0; stroke-width: 1.5; stroke-linecap: round"/>
   </g>
   <g id="line2d_76">
    <path d="M 384.851094 193.434076 
L 537.058036 193.434076 
L 537.058036 193.434076 
" clip-path="url(#p902e673b32)" style="fill: none; stroke: #dd8452; stroke-width: 1.5; stroke-linecap: round"/>
   </g>
   <g id="patch_13">
    <path d="M 384.851094 193.434076 
L 384.851094 1.094338 
" style="fill: none; stroke: #000000; stroke-width: 0.25; stroke-linejoin: miter; stroke-linecap: square"/>
   </g>
   <g id="patch_14">
    <path d="M 537.058036 193.434076 
L 537.058036 1.094338 
" style="fill: none; stroke: #000000; stroke-width: 0.25; stroke-linejoin: miter; stroke-linecap: square"/>
   </g>
   <g id="patch_15">
    <path d="M 384.851094 193.434076 
L 537.058036 193.434076 
" style="fill: none; stroke: #000000; stroke-width: 0.25; stroke-linejoin: miter; stroke-linecap: square"/>
   </g>
   <g id="patch_16">
    <path d="M 384.851094 1.094338 
L 537.058036 1.094338 
" style="fill: none; stroke: #000000; stroke-width: 0.25; stroke-linejoin: miter; stroke-linecap: square"/>
   </g>
  </g>
  <g id="axes_4">
   <g id="patch_17">
    <path d="M 561.792578 193.434076 
L 713.99952 193.434076 
L 713.99952 1.094338 
L 561.792578 1.094338 
z
" style="fill: #ffffff"/>
   </g>
   <g id="matplotlib.axis_7">
    <g id="xtick_13">
     <g id="line2d_77">
      <path d="M 561.792578 193.434076 
L 561.792578 1.094338 
" clip-path="url(#p19ae251125)" style="fill: none; stroke: #000000; stroke-opacity: 0.25; stroke-linecap: round"/>
     </g>
     <g id="line2d_78">
      <g>
       <use xlink:href="#m0c9f90e83a" x="561.792578" y="193.434076" style="fill: #262626; stroke: #262626; stroke-width: 0.25"/>
      </g>
     </g>
     <g id="text_36">
      <text style="fill: #262626; font: 11px 'Arial', 'DejaVu Sans', 'Liberation Sans', 'Bitstream Vera Sans', sans-serif; text-anchor: middle" x="561.792578" y="207.80767" transform="rotate(-0 561.792578 207.80767)">0</text>
     </g>
    </g>
    <g id="xtick_14">
     <g id="line2d_79">
      <path d="M 601.637327 193.434076 
L 601.637327 1.094338 
" clip-path="url(#p19ae251125)" style="fill: none; stroke: #000000; stroke-opacity: 0.25; stroke-linecap: round"/>
     </g>
     <g id="line2d_80">
      <g>
       <use xlink:href="#m0c9f90e83a" x="601.637327" y="193.434076" style="fill: #262626; stroke: #262626; stroke-width: 0.25"/>
      </g>
     </g>
     <g id="text_37">
      <text style="fill: #262626; font: 11px 'Arial', 'DejaVu Sans', 'Liberation Sans', 'Bitstream Vera Sans', sans-serif; text-anchor: middle" x="601.637327" y="207.80767" transform="rotate(-0 601.637327 207.80767)">50</text>
     </g>
    </g>
    <g id="xtick_15">
     <g id="line2d_81">
      <path d="M 641.482076 193.434076 
L 641.482076 1.094338 
" clip-path="url(#p19ae251125)" style="fill: none; stroke: #000000; stroke-opacity: 0.25; stroke-linecap: round"/>
     </g>
     <g id="line2d_82">
      <g>
       <use xlink:href="#m0c9f90e83a" x="641.482076" y="193.434076" style="fill: #262626; stroke: #262626; stroke-width: 0.25"/>
      </g>
     </g>
     <g id="text_38">
      <text style="fill: #262626; font: 11px 'Arial', 'DejaVu Sans', 'Liberation Sans', 'Bitstream Vera Sans', sans-serif; text-anchor: middle" x="641.482076" y="207.80767" transform="rotate(-0 641.482076 207.80767)">100</text>
     </g>
    </g>
    <g id="xtick_16">
     <g id="line2d_83">
      <path d="M 681.326826 193.434076 
L 681.326826 1.094338 
" clip-path="url(#p19ae251125)" style="fill: none; stroke: #000000; stroke-opacity: 0.25; stroke-linecap: round"/>
     </g>
     <g id="line2d_84">
      <g>
       <use xlink:href="#m0c9f90e83a" x="681.326826" y="193.434076" style="fill: #262626; stroke: #262626; stroke-width: 0.25"/>
      </g>
     </g>
     <g id="text_39">
      <text style="fill: #262626; font: 11px 'Arial', 'DejaVu Sans', 'Liberation Sans', 'Bitstream Vera Sans', sans-serif; text-anchor: middle" x="681.326826" y="207.80767" transform="rotate(-0 681.326826 207.80767)">150</text>
     </g>
    </g>
   </g>
   <g id="matplotlib.axis_8">
    <g id="ytick_24">
     <g id="line2d_85">
      <path d="M 561.792578 193.434076 
L 713.99952 193.434076 
" clip-path="url(#p19ae251125)" style="fill: none; stroke: #000000; stroke-opacity: 0.25; stroke-linecap: round"/>
     </g>
     <g id="line2d_86">
      <g>
       <use xlink:href="#m49efd5f339" x="561.792578" y="193.434076" style="fill: #262626; stroke: #262626; stroke-width: 0.25"/>
      </g>
     </g>
     <g id="text_40">
      <text style="fill: #262626; font: 11px 'Arial', 'DejaVu Sans', 'Liberation Sans', 'Bitstream Vera Sans', sans-serif; text-anchor: end" x="555.292578" y="197.370873" transform="rotate(-0 555.292578 197.370873)">0</text>
     </g>
    </g>
    <g id="ytick_25">
     <g id="line2d_87">
      <path d="M 561.792578 152.9415 
L 713.99952 152.9415 
" clip-path="url(#p19ae251125)" style="fill: none; stroke: #000000; stroke-opacity: 0.25; stroke-linecap: round"/>
     </g>
     <g id="line2d_88">
      <g>
       <use xlink:href="#m49efd5f339" x="561.792578" y="152.9415" style="fill: #262626; stroke: #262626; stroke-width: 0.25"/>
      </g>
     </g>
     <g id="text_41">
      <text style="fill: #262626; font: 11px 'Arial', 'DejaVu Sans', 'Liberation Sans', 'Bitstream Vera Sans', sans-serif; text-anchor: end" x="555.292578" y="156.878297" transform="rotate(-0 555.292578 156.878297)">20</text>
     </g>
    </g>
    <g id="ytick_26">
     <g id="line2d_89">
      <path d="M 561.792578 112.448923 
L 713.99952 112.448923 
" clip-path="url(#p19ae251125)" style="fill: none; stroke: #000000; stroke-opacity: 0.25; stroke-linecap: round"/>
     </g>
     <g id="line2d_90">
      <g>
       <use xlink:href="#m49efd5f339" x="561.792578" y="112.448923" style="fill: #262626; stroke: #262626; stroke-width: 0.25"/>
      </g>
     </g>
     <g id="text_42">
      <text style="fill: #262626; font: 11px 'Arial', 'DejaVu Sans', 'Liberation Sans', 'Bitstream Vera Sans', sans-serif; text-anchor: end" x="555.292578" y="116.38572" transform="rotate(-0 555.292578 116.38572)">40</text>
     </g>
    </g>
    <g id="ytick_27">
     <g id="line2d_91">
      <path d="M 561.792578 71.956347 
L 713.99952 71.956347 
" clip-path="url(#p19ae251125)" style="fill: none; stroke: #000000; stroke-opacity: 0.25; stroke-linecap: round"/>
     </g>
     <g id="line2d_92">
      <g>
       <use xlink:href="#m49efd5f339" x="561.792578" y="71.956347" style="fill: #262626; stroke: #262626; stroke-width: 0.25"/>
      </g>
     </g>
     <g id="text_43">
      <text style="fill: #262626; font: 11px 'Arial', 'DejaVu Sans', 'Liberation Sans', 'Bitstream Vera Sans', sans-serif; text-anchor: end" x="555.292578" y="75.893144" transform="rotate(-0 555.292578 75.893144)">60</text>
     </g>
    </g>
    <g id="ytick_28">
     <g id="line2d_93">
      <path d="M 561.792578 31.46377 
L 713.99952 31.46377 
" clip-path="url(#p19ae251125)" style="fill: none; stroke: #000000; stroke-opacity: 0.25; stroke-linecap: round"/>
     </g>
     <g id="line2d_94">
      <g>
       <use xlink:href="#m49efd5f339" x="561.792578" y="31.46377" style="fill: #262626; stroke: #262626; stroke-width: 0.25"/>
      </g>
     </g>
     <g id="text_44">
      <text style="fill: #262626; font: 11px 'Arial', 'DejaVu Sans', 'Liberation Sans', 'Bitstream Vera Sans', sans-serif; text-anchor: end" x="555.292578" y="35.400567" transform="rotate(-0 555.292578 35.400567)">80</text>
     </g>
    </g>
   </g>
   <g id="line2d_95">
    <path d="M 561.792578 193.434076 
L 562.589473 1.094338 
L 563.386368 7.168224 
L 564.980158 15.266739 
L 565.777053 23.365255 
L 568.167738 41.586914 
L 568.964633 49.68543 
L 569.761528 51.710058 
L 572.152213 51.710058 
L 572.949108 53.734687 
L 573.746003 53.734687 
L 575.339793 61.833203 
L 576.933583 61.833203 
L 577.730478 65.88246 
L 579.324268 69.931718 
L 580.121163 69.931718 
L 582.511848 76.005604 
L 583.308743 76.005604 
L 584.902533 80.054862 
L 585.699428 80.054862 
L 587.293218 84.10412 
L 591.277693 84.10412 
L 592.074588 86.128748 
L 592.871482 86.128748 
L 594.465272 90.178006 
L 595.262167 94.227264 
L 596.059062 94.227264 
L 596.855957 96.251893 
L 598.449747 96.251893 
L 599.246642 98.276521 
L 600.043537 102.325779 
L 602.434222 102.325779 
L 603.231117 104.350408 
L 604.824907 104.350408 
L 605.621802 110.424294 
L 606.418697 114.473552 
L 608.012487 114.473552 
L 608.809382 120.547439 
L 612.793857 120.547439 
L 613.590752 124.596696 
L 618.372122 124.596696 
L 619.169017 126.621325 
L 619.965912 126.621325 
L 620.762807 128.645954 
L 623.153492 128.645954 
L 623.950387 132.695211 
L 626.341072 132.695211 
L 627.137967 134.71984 
L 627.934862 134.71984 
L 628.731757 136.744469 
L 632.716232 136.744469 
L 633.513127 138.769098 
L 635.106917 138.769098 
L 635.903812 140.793727 
L 637.497602 140.793727 
L 638.294497 183.310932 
L 639.091392 193.434076 
L 713.99952 193.434076 
L 713.99952 193.434076 
" clip-path="url(#p19ae251125)" style="fill: none; stroke: #4c72b0; stroke-width: 1.5; stroke-linecap: round"/>
   </g>
   <g id="line2d_96">
    <path d="M 561.792578 193.434076 
L 713.99952 193.434076 
L 713.99952 193.434076 
" clip-path="url(#p19ae251125)" style="fill: none; stroke: #dd8452; stroke-width: 1.5; stroke-linecap: round"/>
   </g>
   <g id="patch_18">
    <path d="M 561.792578 193.434076 
L 561.792578 1.094338 
" style="fill: none; stroke: #000000; stroke-width: 0.25; stroke-linejoin: miter; stroke-linecap: square"/>
   </g>
   <g id="patch_19">
    <path d="M 713.99952 193.434076 
L 713.99952 1.094338 
" style="fill: none; stroke: #000000; stroke-width: 0.25; stroke-linejoin: miter; stroke-linecap: square"/>
   </g>
   <g id="patch_20">
    <path d="M 561.792578 193.434076 
L 713.99952 193.434076 
" style="fill: none; stroke: #000000; stroke-width: 0.25; stroke-linejoin: miter; stroke-linecap: square"/>
   </g>
   <g id="patch_21">
    <path d="M 561.792578 1.094338 
L 713.99952 1.094338 
" style="fill: none; stroke: #000000; stroke-width: 0.25; stroke-linejoin: miter; stroke-linecap: square"/>
   </g>
  </g>
 </g>
 <defs>
  <clipPath id="p991c494b58">
   <rect x="24.851094" y="1.094338" width="152.206942" height="192.339739"/>
  </clipPath>
  <clipPath id="pc7310543d1">
   <rect x="201.792578" y="1.094338" width="152.206942" height="192.339739"/>
  </clipPath>
  <clipPath id="p902e673b32">
   <rect x="384.851094" y="1.094338" width="152.206942" height="192.339739"/>
  </clipPath>
  <clipPath id="p19ae251125">
   <rect x="561.792578" y="1.094338" width="152.206942" height="192.339739"/>
  </clipPath>
 </defs>
</svg>
