<?xml version='1.0' encoding='ASCII' standalone='yes'?>
<svg xmlns="http://www.w3.org/2000/svg" xmlns:xlink="http://www.w3.org/1999/xlink" height="137.860248pt" version="1.1" viewBox="0 0 360.377997 137.860248" width="360.377997pt">
 <metadata>
  <rdf:RDF xmlns:cc="http://creativecommons.org/ns#" xmlns:dc="http://purl.org/dc/elements/1.1/" xmlns:rdf="http://www.w3.org/1999/02/22-rdf-syntax-ns#">
   <cc:Work>
    <dc:type rdf:resource="http://purl.org/dc/dcmitype/StillImage"/>
    <dc:date>2021-01-10T20:04:38.327750</dc:date>
    <dc:format>image/svg+xml</dc:format>
    <dc:creator>
     <cc:Agent>
      <dc:title>Matplotlib v3.3.3, https://matplotlib.org/</dc:title>
     </cc:Agent>
    </dc:creator>
   </cc:Work>
  </rdf:RDF>
 </metadata>
 <defs>
  <style type="text/css">*{stroke-linecap:butt;stroke-linejoin:round;}</style>
 </defs>
 <g id="figure_1">
  <g id="patch_1">
   <path d="M 0 137.860248  L 360.377997 137.860248  L 360.377997 0  L 0 0  z " style="fill:#ffffff;"/>
  </g>
  <g id="axes_1">
   <g id="LineCollection_1">
    <path clip-path="url(#p3f76f78ec9)" d="M 34.764115 30.05076  L 47.613754 30.05076  " style="fill:none;stroke:#000000;stroke-width:1.5;"/>
   </g>
   <g id="LineCollection_2">
    <path clip-path="url(#p3f76f78ec9)" d="M 47.613754 24.226969  L 90.835268 24.226969  " style="fill:none;stroke:#000000;stroke-width:1.5;"/>
   </g>
   <g id="LineCollection_3">
    <path clip-path="url(#p3f76f78ec9)" d="M 90.835268 21.315074  L 128.800111 21.315074  " style="fill:none;stroke:#000000;stroke-width:1.5;"/>
   </g>
   <g id="LineCollection_4">
    <path clip-path="url(#p3f76f78ec9)" d="M 128.800111 19.859126  L 146.906421 19.859126  " style="fill:none;stroke:#000000;stroke-width:1.5;"/>
   </g>
   <g id="LineCollection_5">
    <path clip-path="url(#p3f76f78ec9)" d="M 128.800111 22.771021  L 146.906421 22.771021  " style="fill:none;stroke:#000000;stroke-width:1.5;"/>
   </g>
   <g id="LineCollection_6">
    <path clip-path="url(#p3f76f78ec9)" d="M 90.835268 27.138864  L 135.224931 27.138864  " style="fill:none;stroke:#000000;stroke-width:1.5;"/>
   </g>
   <g id="LineCollection_7">
    <path clip-path="url(#p3f76f78ec9)" d="M 135.224931 25.682917  L 146.906421 25.682917  " style="fill:none;stroke:#000000;stroke-width:1.5;"/>
   </g>
   <g id="LineCollection_8">
    <path clip-path="url(#p3f76f78ec9)" d="M 135.224931 28.594812  L 146.906421 28.594812  " style="fill:none;stroke:#000000;stroke-width:1.5;"/>
   </g>
   <g id="LineCollection_9">
    <path clip-path="url(#p3f76f78ec9)" d="M 47.613754 35.87455  L 86.162672 35.87455  " style="fill:none;stroke:#000000;stroke-width:1.5;"/>
   </g>
   <g id="LineCollection_10">
    <path clip-path="url(#p3f76f78ec9)" d="M 86.162672 32.962655  L 126.463813 32.962655  " style="fill:none;stroke:#000000;stroke-width:1.5;"/>
   </g>
   <g id="LineCollection_11">
    <path clip-path="url(#p3f76f78ec9)" d="M 126.463813 31.506707  L 146.906421 31.506707  " style="fill:none;stroke:#000000;stroke-width:1.5;"/>
   </g>
   <g id="LineCollection_12">
    <path clip-path="url(#p3f76f78ec9)" d="M 126.463813 34.418603  L 146.906421 34.418603  " style="fill:none;stroke:#000000;stroke-width:1.5;"/>
   </g>
   <g id="LineCollection_13">
    <path clip-path="url(#p3f76f78ec9)" d="M 86.162672 38.786446  L 125.879739 38.786446  " style="fill:none;stroke:#000000;stroke-width:1.5;"/>
   </g>
   <g id="LineCollection_14">
    <path clip-path="url(#p3f76f78ec9)" d="M 125.879739 37.330498  L 146.906421 37.330498  " style="fill:none;stroke:#000000;stroke-width:1.5;"/>
   </g>
   <g id="LineCollection_15">
    <path clip-path="url(#p3f76f78ec9)" d="M 125.879739 40.242393  L 146.906421 40.242393  " style="fill:none;stroke:#000000;stroke-width:1.5;"/>
   </g>
   <g id="LineCollection_16">
    <path clip-path="url(#p3f76f78ec9)" d="M 47.613754 35.87455  L 47.613754 24.226969  " style="fill:none;stroke:#000000;stroke-width:1.5;"/>
   </g>
   <g id="LineCollection_17">
    <path clip-path="url(#p3f76f78ec9)" d="M 90.835268 27.138864  L 90.835268 21.315074  " style="fill:none;stroke:#000000;stroke-width:1.5;"/>
   </g>
   <g id="LineCollection_18">
    <path clip-path="url(#p3f76f78ec9)" d="M 128.800111 22.771021  L 128.800111 19.859126  " style="fill:none;stroke:#000000;stroke-width:1.5;"/>
   </g>
   <g id="LineCollection_19">
    <path clip-path="url(#p3f76f78ec9)" d="M 135.224931 28.594812  L 135.224931 25.682917  " style="fill:none;stroke:#000000;stroke-width:1.5;"/>
   </g>
   <g id="LineCollection_20">
    <path clip-path="url(#p3f76f78ec9)" d="M 86.162672 38.786446  L 86.162672 32.962655  " style="fill:none;stroke:#000000;stroke-width:1.5;"/>
   </g>
   <g id="LineCollection_21">
    <path clip-path="url(#p3f76f78ec9)" d="M 126.463813 34.418603  L 126.463813 31.506707  " style="fill:none;stroke:#000000;stroke-width:1.5;"/>
   </g>
   <g id="LineCollection_22">
    <path clip-path="url(#p3f76f78ec9)" d="M 125.879739 40.242393  L 125.879739 37.330498  " style="fill:none;stroke:#000000;stroke-width:1.5;"/>
   </g>
   <g id="text_1">
    <!-- a -->
    <g style="fill:#262626;" transform="translate(0 11.4525)scale(0.16 -0.16)">
     <defs>
      <path d="M 17.4375 36.03125  L 4.984375 38.28125  Q 7.078125 45.796875 12.203125 49.40625  Q 17.328125 53.03125 27.4375 53.03125  Q 36.625 53.03125 41.109375 50.859375  Q 45.609375 48.6875 47.4375 45.34375  Q 49.265625 42 49.265625 33.0625  L 49.125 17.046875  Q 49.125 10.203125 49.78125 6.953125  Q 50.4375 3.71875 52.25 0  L 38.671875 0  Q 38.140625 1.375 37.359375 4.046875  Q 37.015625 5.28125 36.859375 5.671875  Q 33.34375 2.25 29.34375 0.53125  Q 25.34375 -1.171875 20.796875 -1.171875  Q 12.796875 -1.171875 8.171875 3.171875  Q 3.5625 7.515625 3.5625 14.15625  Q 3.5625 18.5625 5.65625 22  Q 7.765625 25.4375 11.546875 27.265625  Q 15.328125 29.109375 22.46875 30.46875  Q 32.078125 32.28125 35.796875 33.84375  L 35.796875 35.203125  Q 35.796875 39.15625 33.84375 40.84375  Q 31.890625 42.53125 26.46875 42.53125  Q 22.796875 42.53125 20.75 41.09375  Q 18.703125 39.65625 17.4375 36.03125  z M 35.796875 24.90625  Q 33.15625 24.03125 27.4375 22.796875  Q 21.734375 21.578125 19.96875 20.40625  Q 17.28125 18.5 17.28125 15.578125  Q 17.28125 12.703125 19.421875 10.59375  Q 21.578125 8.5 24.90625 8.5  Q 28.609375 8.5 31.984375 10.9375  Q 34.46875 12.796875 35.25 15.484375  Q 35.796875 17.234375 35.796875 22.171875  z " id="Arial-BoldMT-97"/>
     </defs>
     <use xlink:href="#Arial-BoldMT-97"/>
    </g>
   </g>
   <g id="text_2">
    <!-- Control -->
    <g style="fill:#262626;" transform="translate(85.932311 11.52961)scale(0.1 -0.1)">
     <defs>
      <path d="M 58.796875 25.09375  L 68.265625 22.703125  Q 65.28125 11.03125 57.546875 4.90625  Q 49.8125 -1.21875 38.625 -1.21875  Q 27.046875 -1.21875 19.796875 3.484375  Q 12.546875 8.203125 8.765625 17.140625  Q 4.984375 26.078125 4.984375 36.328125  Q 4.984375 47.515625 9.25 55.828125  Q 13.53125 64.15625 21.40625 68.46875  Q 29.296875 72.796875 38.765625 72.796875  Q 49.515625 72.796875 56.828125 67.328125  Q 64.15625 61.859375 67.046875 51.953125  L 57.71875 49.75  Q 55.21875 57.5625 50.484375 61.125  Q 45.75 64.703125 38.578125 64.703125  Q 30.328125 64.703125 24.78125 60.734375  Q 19.234375 56.78125 16.984375 50.109375  Q 14.75 43.453125 14.75 36.375  Q 14.75 27.25 17.40625 20.4375  Q 20.0625 13.625 25.671875 10.25  Q 31.296875 6.890625 37.84375 6.890625  Q 45.796875 6.890625 51.3125 11.46875  Q 56.84375 16.0625 58.796875 25.09375  z " id="ArialMT-67"/>
      <path d="M 3.328125 25.921875  Q 3.328125 40.328125 11.328125 47.265625  Q 18.015625 53.03125 27.640625 53.03125  Q 38.328125 53.03125 45.109375 46.015625  Q 51.90625 39.015625 51.90625 26.65625  Q 51.90625 16.65625 48.90625 10.90625  Q 45.90625 5.171875 40.15625 2  Q 34.421875 -1.171875 27.640625 -1.171875  Q 16.75 -1.171875 10.03125 5.8125  Q 3.328125 12.796875 3.328125 25.921875  z M 12.359375 25.921875  Q 12.359375 15.96875 16.703125 11.015625  Q 21.046875 6.0625 27.640625 6.0625  Q 34.1875 6.0625 38.53125 11.03125  Q 42.875 16.015625 42.875 26.21875  Q 42.875 35.84375 38.5 40.796875  Q 34.125 45.75 27.640625 45.75  Q 21.046875 45.75 16.703125 40.8125  Q 12.359375 35.890625 12.359375 25.921875  z " id="ArialMT-111"/>
      <path d="M 6.59375 0  L 6.59375 51.859375  L 14.5 51.859375  L 14.5 44.484375  Q 20.21875 53.03125 31 53.03125  Q 35.6875 53.03125 39.625 51.34375  Q 43.5625 49.65625 45.515625 46.921875  Q 47.46875 44.1875 48.25 40.4375  Q 48.734375 37.984375 48.734375 31.890625  L 48.734375 0  L 39.9375 0  L 39.9375 31.546875  Q 39.9375 36.921875 38.90625 39.578125  Q 37.890625 42.234375 35.28125 43.8125  Q 32.671875 45.40625 29.15625 45.40625  Q 23.53125 45.40625 19.453125 41.84375  Q 15.375 38.28125 15.375 28.328125  L 15.375 0  z " id="ArialMT-110"/>
      <path d="M 25.78125 7.859375  L 27.046875 0.09375  Q 23.34375 -0.6875 20.40625 -0.6875  Q 15.625 -0.6875 12.984375 0.828125  Q 10.359375 2.34375 9.28125 4.8125  Q 8.203125 7.28125 8.203125 15.1875  L 8.203125 45.015625  L 1.765625 45.015625  L 1.765625 51.859375  L 8.203125 51.859375  L 8.203125 64.703125  L 16.9375 69.96875  L 16.9375 51.859375  L 25.78125 51.859375  L 25.78125 45.015625  L 16.9375 45.015625  L 16.9375 14.703125  Q 16.9375 10.9375 17.40625 9.859375  Q 17.875 8.796875 18.921875 8.15625  Q 19.96875 7.515625 21.921875 7.515625  Q 23.390625 7.515625 25.78125 7.859375  z " id="ArialMT-116"/>
      <path d="M 6.5 0  L 6.5 51.859375  L 14.40625 51.859375  L 14.40625 44  Q 17.4375 49.515625 20 51.265625  Q 22.5625 53.03125 25.640625 53.03125  Q 30.078125 53.03125 34.671875 50.203125  L 31.640625 42.046875  Q 28.421875 43.953125 25.203125 43.953125  Q 22.3125 43.953125 20.015625 42.21875  Q 17.71875 40.484375 16.75 37.40625  Q 15.28125 32.71875 15.28125 27.15625  L 15.28125 0  z " id="ArialMT-114"/>
      <path d="M 6.390625 0  L 6.390625 71.578125  L 15.1875 71.578125  L 15.1875 0  z " id="ArialMT-108"/>
     </defs>
     <use xlink:href="#ArialMT-67"/>
     <use x="72.216797" xlink:href="#ArialMT-111"/>
     <use x="127.832031" xlink:href="#ArialMT-110"/>
     <use x="183.447266" xlink:href="#ArialMT-116"/>
     <use x="211.230469" xlink:href="#ArialMT-114"/>
     <use x="244.53125" xlink:href="#ArialMT-111"/>
     <use x="300.146484" xlink:href="#ArialMT-108"/>
    </g>
   </g>
  </g>
  <g id="axes_2">
   <g id="LineCollection_23">
    <path clip-path="url(#p1b169fa47e)" d="M 220.200115 31.789808  L 269.262374 31.789808  " style="fill:none;stroke:#000000;stroke-width:1.5;"/>
   </g>
   <g id="LineCollection_24">
    <path clip-path="url(#p1b169fa47e)" d="M 269.262374 26.572662  L 330.590197 26.572662  " style="fill:none;stroke:#000000;stroke-width:1.5;"/>
   </g>
   <g id="LineCollection_25">
    <path clip-path="url(#p1b169fa47e)" d="M 330.590197 23.094565  L 332.342421 23.094565  " style="fill:none;stroke:#000000;stroke-width:1.5;"/>
   </g>
   <g id="LineCollection_26">
    <path clip-path="url(#p1b169fa47e)" d="M 330.590197 30.05076  L 332.342421 30.05076  " style="fill:none;stroke:#000000;stroke-width:1.5;"/>
   </g>
   <g id="LineCollection_27">
    <path clip-path="url(#p1b169fa47e)" d="M 269.262374 37.006954  L 332.342421 37.006954  " style="fill:none;stroke:#000000;stroke-width:1.5;"/>
   </g>
   <g id="LineCollection_28">
    <path clip-path="url(#p1b169fa47e)" d="M 269.262374 37.006954  L 269.262374 26.572662  " style="fill:none;stroke:#000000;stroke-width:1.5;"/>
   </g>
   <g id="LineCollection_29">
    <path clip-path="url(#p1b169fa47e)" d="M 330.590197 30.05076  L 330.590197 23.094565  " style="fill:none;stroke:#000000;stroke-width:1.5;"/>
   </g>
   <g id="text_3">
    <!-- b -->
    <g style="fill:#262626;" transform="translate(185.436 11.4525)scale(0.16 -0.16)">
     <defs>
      <path d="M 6.59375 0  L 6.59375 71.578125  L 20.3125 71.578125  L 20.3125 45.796875  Q 26.65625 53.03125 35.359375 53.03125  Q 44.828125 53.03125 51.03125 46.171875  Q 57.234375 39.3125 57.234375 26.46875  Q 57.234375 13.1875 50.90625 6  Q 44.578125 -1.171875 35.546875 -1.171875  Q 31.109375 -1.171875 26.78125 1.046875  Q 22.46875 3.265625 19.34375 7.625  L 19.34375 0  z M 20.21875 27.046875  Q 20.21875 19 22.75 15.140625  Q 26.3125 9.671875 32.234375 9.671875  Q 36.765625 9.671875 39.96875 13.546875  Q 43.171875 17.4375 43.171875 25.78125  Q 43.171875 34.671875 39.9375 38.59375  Q 36.71875 42.53125 31.6875 42.53125  Q 26.765625 42.53125 23.484375 38.6875  Q 20.21875 34.859375 20.21875 27.046875  z " id="Arial-BoldMT-98"/>
     </defs>
     <use xlink:href="#Arial-BoldMT-98"/>
    </g>
   </g>
   <g id="text_4">
    <!-- Gemcitabine 5 nM -->
    <g style="fill:#262626;" transform="translate(246.914405 11.52961)scale(0.1 -0.1)">
     <defs>
      <path d="M 41.21875 28.078125  L 41.21875 36.46875  L 71.53125 36.53125  L 71.53125 9.96875  Q 64.546875 4.390625 57.125 1.578125  Q 49.703125 -1.21875 41.890625 -1.21875  Q 31.34375 -1.21875 22.71875 3.296875  Q 14.109375 7.8125 9.71875 16.359375  Q 5.328125 24.90625 5.328125 35.453125  Q 5.328125 45.90625 9.6875 54.953125  Q 14.0625 64.015625 22.265625 68.40625  Q 30.46875 72.796875 41.15625 72.796875  Q 48.921875 72.796875 55.1875 70.28125  Q 61.46875 67.78125 65.03125 63.28125  Q 68.609375 58.796875 70.453125 51.5625  L 61.921875 49.21875  Q 60.296875 54.6875 57.90625 57.8125  Q 55.515625 60.9375 51.0625 62.8125  Q 46.625 64.703125 41.21875 64.703125  Q 34.71875 64.703125 29.984375 62.71875  Q 25.25 60.75 22.34375 57.515625  Q 19.4375 54.296875 17.828125 50.4375  Q 15.09375 43.796875 15.09375 36.03125  Q 15.09375 26.46875 18.390625 20.015625  Q 21.6875 13.578125 27.984375 10.453125  Q 34.28125 7.328125 41.359375 7.328125  Q 47.515625 7.328125 53.375 9.6875  Q 59.234375 12.0625 62.25 14.75  L 62.25 28.078125  z " id="ArialMT-71"/>
      <path d="M 42.09375 16.703125  L 51.171875 15.578125  Q 49.03125 7.625 43.21875 3.21875  Q 37.40625 -1.171875 28.375 -1.171875  Q 17 -1.171875 10.328125 5.828125  Q 3.65625 12.84375 3.65625 25.484375  Q 3.65625 38.578125 10.390625 45.796875  Q 17.140625 53.03125 27.875 53.03125  Q 38.28125 53.03125 44.875 45.953125  Q 51.46875 38.875 51.46875 26.03125  Q 51.46875 25.25 51.421875 23.6875  L 12.75 23.6875  Q 13.234375 15.140625 17.578125 10.59375  Q 21.921875 6.0625 28.421875 6.0625  Q 33.25 6.0625 36.671875 8.59375  Q 40.09375 11.140625 42.09375 16.703125  z M 13.234375 30.90625  L 42.1875 30.90625  Q 41.609375 37.453125 38.875 40.71875  Q 34.671875 45.796875 27.984375 45.796875  Q 21.921875 45.796875 17.796875 41.75  Q 13.671875 37.703125 13.234375 30.90625  z " id="ArialMT-101"/>
      <path d="M 6.59375 0  L 6.59375 51.859375  L 14.453125 51.859375  L 14.453125 44.578125  Q 16.890625 48.390625 20.9375 50.703125  Q 25 53.03125 30.171875 53.03125  Q 35.9375 53.03125 39.625 50.640625  Q 43.3125 48.25 44.828125 43.953125  Q 50.984375 53.03125 60.84375 53.03125  Q 68.5625 53.03125 72.703125 48.75  Q 76.859375 44.484375 76.859375 35.59375  L 76.859375 0  L 68.109375 0  L 68.109375 32.671875  Q 68.109375 37.9375 67.25 40.25  Q 66.40625 42.578125 64.15625 43.984375  Q 61.921875 45.40625 58.890625 45.40625  Q 53.421875 45.40625 49.796875 41.765625  Q 46.1875 38.140625 46.1875 30.125  L 46.1875 0  L 37.40625 0  L 37.40625 33.6875  Q 37.40625 39.546875 35.25 42.46875  Q 33.109375 45.40625 28.21875 45.40625  Q 24.515625 45.40625 21.359375 43.453125  Q 18.21875 41.5 16.796875 37.734375  Q 15.375 33.984375 15.375 26.90625  L 15.375 0  z " id="ArialMT-109"/>
      <path d="M 40.4375 19  L 49.078125 17.875  Q 47.65625 8.9375 41.8125 3.875  Q 35.984375 -1.171875 27.484375 -1.171875  Q 16.84375 -1.171875 10.375 5.78125  Q 3.90625 12.75 3.90625 25.734375  Q 3.90625 34.125 6.6875 40.421875  Q 9.46875 46.734375 15.15625 49.875  Q 20.84375 53.03125 27.546875 53.03125  Q 35.984375 53.03125 41.359375 48.75  Q 46.734375 44.484375 48.25 36.625  L 39.703125 35.296875  Q 38.484375 40.53125 35.375 43.15625  Q 32.28125 45.796875 27.875 45.796875  Q 21.234375 45.796875 17.078125 41.03125  Q 12.9375 36.28125 12.9375 25.984375  Q 12.9375 15.53125 16.9375 10.796875  Q 20.953125 6.0625 27.390625 6.0625  Q 32.5625 6.0625 36.03125 9.234375  Q 39.5 12.40625 40.4375 19  z " id="ArialMT-99"/>
      <path d="M 6.640625 61.46875  L 6.640625 71.578125  L 15.4375 71.578125  L 15.4375 61.46875  z M 6.640625 0  L 6.640625 51.859375  L 15.4375 51.859375  L 15.4375 0  z " id="ArialMT-105"/>
      <path d="M 40.4375 6.390625  Q 35.546875 2.25 31.03125 0.53125  Q 26.515625 -1.171875 21.34375 -1.171875  Q 12.796875 -1.171875 8.203125 3  Q 3.609375 7.171875 3.609375 13.671875  Q 3.609375 17.484375 5.34375 20.625  Q 7.078125 23.78125 9.890625 25.6875  Q 12.703125 27.59375 16.21875 28.5625  Q 18.796875 29.25 24.03125 29.890625  Q 34.671875 31.15625 39.703125 32.90625  Q 39.75 34.71875 39.75 35.203125  Q 39.75 40.578125 37.25 42.78125  Q 33.890625 45.75 27.25 45.75  Q 21.046875 45.75 18.09375 43.578125  Q 15.140625 41.40625 13.71875 35.890625  L 5.125 37.0625  Q 6.296875 42.578125 8.984375 45.96875  Q 11.671875 49.359375 16.75 51.1875  Q 21.828125 53.03125 28.515625 53.03125  Q 35.15625 53.03125 39.296875 51.46875  Q 43.453125 49.90625 45.40625 47.53125  Q 47.359375 45.171875 48.140625 41.546875  Q 48.578125 39.3125 48.578125 33.453125  L 48.578125 21.734375  Q 48.578125 9.46875 49.140625 6.21875  Q 49.703125 2.984375 51.375 0  L 42.1875 0  Q 40.828125 2.734375 40.4375 6.390625  z M 39.703125 26.03125  Q 34.90625 24.078125 25.34375 22.703125  Q 19.921875 21.921875 17.671875 20.9375  Q 15.4375 19.96875 14.203125 18.09375  Q 12.984375 16.21875 12.984375 13.921875  Q 12.984375 10.40625 15.640625 8.0625  Q 18.3125 5.71875 23.4375 5.71875  Q 28.515625 5.71875 32.46875 7.9375  Q 36.421875 10.15625 38.28125 14.015625  Q 39.703125 17 39.703125 22.796875  z " id="ArialMT-97"/>
      <path d="M 14.703125 0  L 6.546875 0  L 6.546875 71.578125  L 15.328125 71.578125  L 15.328125 46.046875  Q 20.90625 53.03125 29.546875 53.03125  Q 34.328125 53.03125 38.59375 51.09375  Q 42.875 49.171875 45.625 45.671875  Q 48.390625 42.1875 49.953125 37.25  Q 51.515625 32.328125 51.515625 26.703125  Q 51.515625 13.375 44.921875 6.09375  Q 38.328125 -1.171875 29.109375 -1.171875  Q 19.921875 -1.171875 14.703125 6.5  z M 14.59375 26.3125  Q 14.59375 17 17.140625 12.84375  Q 21.296875 6.0625 28.375 6.0625  Q 34.125 6.0625 38.328125 11.0625  Q 42.53125 16.0625 42.53125 25.984375  Q 42.53125 36.140625 38.5 40.96875  Q 34.46875 45.796875 28.765625 45.796875  Q 23 45.796875 18.796875 40.796875  Q 14.59375 35.796875 14.59375 26.3125  z " id="ArialMT-98"/>
      <path id="ArialMT-32"/>
      <path d="M 4.15625 18.75  L 13.375 19.53125  Q 14.40625 12.796875 18.140625 9.390625  Q 21.875 6 27.15625 6  Q 33.5 6 37.890625 10.78125  Q 42.28125 15.578125 42.28125 23.484375  Q 42.28125 31 38.0625 35.34375  Q 33.84375 39.703125 27 39.703125  Q 22.75 39.703125 19.328125 37.765625  Q 15.921875 35.84375 13.96875 32.765625  L 5.71875 33.84375  L 12.640625 70.609375  L 48.25 70.609375  L 48.25 62.203125  L 19.671875 62.203125  L 15.828125 42.96875  Q 22.265625 47.46875 29.34375 47.46875  Q 38.71875 47.46875 45.15625 40.96875  Q 51.609375 34.46875 51.609375 24.265625  Q 51.609375 14.546875 45.953125 7.46875  Q 39.0625 -1.21875 27.15625 -1.21875  Q 17.390625 -1.21875 11.203125 4.25  Q 5.03125 9.71875 4.15625 18.75  z " id="ArialMT-53"/>
      <path d="M 7.421875 0  L 7.421875 71.578125  L 21.6875 71.578125  L 38.625 20.90625  Q 40.96875 13.8125 42.046875 10.296875  Q 43.265625 14.203125 45.84375 21.78125  L 62.984375 71.578125  L 75.734375 71.578125  L 75.734375 0  L 66.609375 0  L 66.609375 59.90625  L 45.796875 0  L 37.25 0  L 16.546875 60.9375  L 16.546875 0  z " id="ArialMT-77"/>
     </defs>
     <use xlink:href="#ArialMT-71"/>
     <use x="77.783203" xlink:href="#ArialMT-101"/>
     <use x="133.398438" xlink:href="#ArialMT-109"/>
     <use x="216.699219" xlink:href="#ArialMT-99"/>
     <use x="266.699219" xlink:href="#ArialMT-105"/>
     <use x="288.916016" xlink:href="#ArialMT-116"/>
     <use x="316.699219" xlink:href="#ArialMT-97"/>
     <use x="372.314453" xlink:href="#ArialMT-98"/>
     <use x="427.929688" xlink:href="#ArialMT-105"/>
     <use x="450.146484" xlink:href="#ArialMT-110"/>
     <use x="505.761719" xlink:href="#ArialMT-101"/>
     <use x="561.376953" xlink:href="#ArialMT-32"/>
     <use x="589.160156" xlink:href="#ArialMT-53"/>
     <use x="644.775391" xlink:href="#ArialMT-32"/>
     <use x="672.558594" xlink:href="#ArialMT-110"/>
     <use x="728.173828" xlink:href="#ArialMT-77"/>
    </g>
   </g>
  </g>
  <g id="axes_3">
   <g id="LineCollection_30">
    <path clip-path="url(#p8e57b33223)" d="M 34.764115 61.813539  L 128.721182 61.813539  " style="fill:none;stroke:#000000;stroke-width:1.5;"/>
   </g>
   <g id="LineCollection_31">
    <path clip-path="url(#p8e57b33223)" d="M 128.721182 56.997712  L 145.390984 56.997712  " style="fill:none;stroke:#000000;stroke-width:1.5;"/>
   </g>
   <g id="LineCollection_32">
    <path clip-path="url(#p8e57b33223)" d="M 128.721182 66.629366  L 146.906421 66.629366  " style="fill:none;stroke:#000000;stroke-width:1.5;"/>
   </g>
   <g id="LineCollection_33">
    <path clip-path="url(#p8e57b33223)" d="M 128.721182 66.629366  L 128.721182 56.997712  " style="fill:none;stroke:#000000;stroke-width:1.5;"/>
   </g>
  </g>
  <g id="axes_4">
   <g id="LineCollection_34">
    <path clip-path="url(#p76a0f80ea4)" d="M 220.200115 63.552588  L 238.306425 63.552588  " style="fill:none;stroke:#000000;stroke-width:1.5;"/>
   </g>
   <g id="LineCollection_35">
    <path clip-path="url(#p76a0f80ea4)" d="M 238.306425 58.335442  L 280.943864 58.335442  " style="fill:none;stroke:#000000;stroke-width:1.5;"/>
   </g>
   <g id="LineCollection_36">
    <path clip-path="url(#p76a0f80ea4)" d="M 280.943864 54.857345  L 332.342421 54.857345  " style="fill:none;stroke:#000000;stroke-width:1.5;"/>
   </g>
   <g id="LineCollection_37">
    <path clip-path="url(#p76a0f80ea4)" d="M 280.943864 61.813539  L 332.342421 61.813539  " style="fill:none;stroke:#000000;stroke-width:1.5;"/>
   </g>
   <g id="LineCollection_38">
    <path clip-path="url(#p76a0f80ea4)" d="M 238.306425 68.769734  L 332.342421 68.769734  " style="fill:none;stroke:#000000;stroke-width:1.5;"/>
   </g>
   <g id="LineCollection_39">
    <path clip-path="url(#p76a0f80ea4)" d="M 238.306425 68.769734  L 238.306425 58.335442  " style="fill:none;stroke:#000000;stroke-width:1.5;"/>
   </g>
   <g id="LineCollection_40">
    <path clip-path="url(#p76a0f80ea4)" d="M 280.943864 61.813539  L 280.943864 54.857345  " style="fill:none;stroke:#000000;stroke-width:1.5;"/>
   </g>
  </g>
  <g id="axes_5">
   <g id="LineCollection_41">
    <path clip-path="url(#p80d208d3c4)" d="M 34.764115 93.576319  L 146.906421 93.576319  " style="fill:none;stroke:#000000;stroke-width:1.5;"/>
   </g>
  </g>
  <g id="axes_6">
   <g id="LineCollection_42">
    <path clip-path="url(#p43638ed04f)" d="M 220.200115 93.576319  L 256.996809 93.576319  " style="fill:none;stroke:#000000;stroke-width:1.5;"/>
   </g>
   <g id="LineCollection_43">
    <path clip-path="url(#p43638ed04f)" d="M 256.996809 88.132341  L 322.413154 88.132341  " style="fill:none;stroke:#000000;stroke-width:1.5;"/>
   </g>
   <g id="LineCollection_44">
    <path clip-path="url(#p43638ed04f)" d="M 322.413154 85.410352  L 332.342421 85.410352  " style="fill:none;stroke:#000000;stroke-width:1.5;"/>
   </g>
   <g id="LineCollection_45">
    <path clip-path="url(#p43638ed04f)" d="M 322.413154 90.85433  L 332.342421 90.85433  " style="fill:none;stroke:#000000;stroke-width:1.5;"/>
   </g>
   <g id="LineCollection_46">
    <path clip-path="url(#p43638ed04f)" d="M 256.996809 99.020297  L 318.908707 99.020297  " style="fill:none;stroke:#000000;stroke-width:1.5;"/>
   </g>
   <g id="LineCollection_47">
    <path clip-path="url(#p43638ed04f)" d="M 318.908707 96.298308  L 332.342421 96.298308  " style="fill:none;stroke:#000000;stroke-width:1.5;"/>
   </g>
   <g id="LineCollection_48">
    <path clip-path="url(#p43638ed04f)" d="M 318.908707 101.742286  L 332.342421 101.742286  " style="fill:none;stroke:#000000;stroke-width:1.5;"/>
   </g>
   <g id="LineCollection_49">
    <path clip-path="url(#p43638ed04f)" d="M 256.996809 99.020297  L 256.996809 88.132341  " style="fill:none;stroke:#000000;stroke-width:1.5;"/>
   </g>
   <g id="LineCollection_50">
    <path clip-path="url(#p43638ed04f)" d="M 322.413154 90.85433  L 322.413154 85.410352  " style="fill:none;stroke:#000000;stroke-width:1.5;"/>
   </g>
   <g id="LineCollection_51">
    <path clip-path="url(#p43638ed04f)" d="M 318.908707 101.742286  L 318.908707 96.298308  " style="fill:none;stroke:#000000;stroke-width:1.5;"/>
   </g>
  </g>
  <g id="axes_7"/>
  <g id="axes_8"/>
 </g>
 <defs>
  <clipPath id="p3f76f78ec9">
   <rect height="25.0423" width="145.784998" x="29.157" y="17.52961"/>
  </clipPath>
  <clipPath id="p1b169fa47e">
   <rect height="25.0423" width="145.784998" x="214.593" y="17.52961"/>
  </clipPath>
  <clipPath id="p8e57b33223">
   <rect height="25.0423" width="145.784998" x="29.157" y="49.292389"/>
  </clipPath>
  <clipPath id="p76a0f80ea4">
   <rect height="25.0423" width="145.784998" x="214.593" y="49.292389"/>
  </clipPath>
  <clipPath id="p80d208d3c4">
   <rect height="25.0423" width="145.784998" x="29.157" y="81.055169"/>
  </clipPath>
  <clipPath id="p43638ed04f">
   <rect height="25.0423" width="145.784998" x="214.593" y="81.055169"/>
  </clipPath>
 </defs>
<g transform="translate(30, 110) scale(1.1)  scale(1.000000 1.000000)"><rect id="Artboard1" x="0" y="0" width="117" height="21" style="fill:none;"/><g><path d="M111.25,0.125l3.75,1.875l-3.75,1.875c0.937,-0.937 0.937,-2.812 0,-3.75Z" style="fill-opacity:0.79;"/><path d="M3,2l109,0" style="fill:none;stroke:#000;stroke-opacity:0.79;stroke-width:0.83px;"/><path d="M22,2l0,2" style="fill:none;stroke:#000;stroke-width:0.42px;"/><path d="M60.595,2l0,2" style="fill:none;stroke:#000;stroke-width:0.42px;"/><path d="M104.645,2l0,2" style="fill:none;stroke:#000;stroke-width:0.42px;"/><path d="M83.227,2l0,2" style="fill:none;stroke:#000;stroke-width:0.42px;"/><path d="M41,2l0,2" style="fill:none;stroke:#000;stroke-width:0.42px;"/></g><text x="98px" y="10.474px" style="font-family:'MicrosoftSansSerif', 'Microsoft Sans Serif', sans-serif;font-size:6.25px;">192</text><text x="78px" y="10.474px" style="font-family:'MicrosoftSansSerif', 'Microsoft Sans Serif', sans-serif;font-size:6.25px;">160</text><text x="55px" y="10.474px" style="font-family:'MicrosoftSansSerif', 'Microsoft Sans Serif', sans-serif;font-size:6.25px;">120</text><text x="38px" y="10.474px" style="font-family:'MicrosoftSansSerif', 'Microsoft Sans Serif', sans-serif;font-size:6.25px;">80</text><text x="2px" y="9.474px" style="font-family:'MicrosoftSansSerif', 'Microsoft Sans Serif', sans-serif;font-size:6.25px;">0</text><text x="19px" y="10.474px" style="font-family:'MicrosoftSansSerif', 'Microsoft Sans Serif', sans-serif;font-size:6.25px;">40</text><text x="32.836px" y="18.445px" style="font-family:'MicrosoftSansSerif', 'Microsoft Sans Serif', sans-serif;font-size:6.25px;">Time [Hours]</text></g><g transform="translate(215, 110) scale(1.1)  scale(1.000000 1.000000)"><rect id="Artboard1" x="0" y="0" width="117" height="21" style="fill:none;"/><g><path d="M111.25,0.125l3.75,1.875l-3.75,1.875c0.937,-0.937 0.937,-2.812 0,-3.75Z" style="fill-opacity:0.79;"/><path d="M3,2l109,0" style="fill:none;stroke:#000;stroke-opacity:0.79;stroke-width:0.83px;"/><path d="M22,2l0,2" style="fill:none;stroke:#000;stroke-width:0.42px;"/><path d="M60.595,2l0,2" style="fill:none;stroke:#000;stroke-width:0.42px;"/><path d="M104.645,2l0,2" style="fill:none;stroke:#000;stroke-width:0.42px;"/><path d="M83.227,2l0,2" style="fill:none;stroke:#000;stroke-width:0.42px;"/><path d="M41,2l0,2" style="fill:none;stroke:#000;stroke-width:0.42px;"/></g><text x="98px" y="10.474px" style="font-family:'MicrosoftSansSerif', 'Microsoft Sans Serif', sans-serif;font-size:6.25px;">192</text><text x="78px" y="10.474px" style="font-family:'MicrosoftSansSerif', 'Microsoft Sans Serif', sans-serif;font-size:6.25px;">160</text><text x="55px" y="10.474px" style="font-family:'MicrosoftSansSerif', 'Microsoft Sans Serif', sans-serif;font-size:6.25px;">120</text><text x="38px" y="10.474px" style="font-family:'MicrosoftSansSerif', 'Microsoft Sans Serif', sans-serif;font-size:6.25px;">80</text><text x="2px" y="9.474px" style="font-family:'MicrosoftSansSerif', 'Microsoft Sans Serif', sans-serif;font-size:6.25px;">0</text><text x="19px" y="10.474px" style="font-family:'MicrosoftSansSerif', 'Microsoft Sans Serif', sans-serif;font-size:6.25px;">40</text><text x="32.836px" y="18.445px" style="font-family:'MicrosoftSansSerif', 'Microsoft Sans Serif', sans-serif;font-size:6.25px;">Time [Hours]</text></g></svg>
