<?xml version="1.0" encoding="utf-8" standalone="no"?>
<!DOCTYPE svg PUBLIC "-//W3C//DTD SVG 1.1//EN"
  "http://www.w3.org/Graphics/SVG/1.1/DTD/svg11.dtd">
<!-- Created with matplotlib (https://matplotlib.org/) -->
<svg height="209.99952pt" version="1.1" viewBox="0 0 569.99952 209.99952" width="569.99952pt" xmlns="http://www.w3.org/2000/svg" xmlns:xlink="http://www.w3.org/1999/xlink">
 <metadata>
  <rdf:RDF xmlns:cc="http://creativecommons.org/ns#" xmlns:dc="http://purl.org/dc/elements/1.1/" xmlns:rdf="http://www.w3.org/1999/02/22-rdf-syntax-ns#">
   <cc:Work>
    <dc:type rdf:resource="http://purl.org/dc/dcmitype/StillImage"/>
    <dc:date>2021-03-07T17:27:20.317436</dc:date>
    <dc:format>image/svg+xml</dc:format>
    <dc:creator>
     <cc:Agent>
      <dc:title>Matplotlib v3.3.4, https://matplotlib.org/</dc:title>
     </cc:Agent>
    </dc:creator>
   </cc:Work>
  </rdf:RDF>
 </metadata>
 <defs>
  <style type="text/css">*{stroke-linecap:butt;stroke-linejoin:round;}</style>
 </defs>
 <g id="figure_1">
  <g id="patch_1">
   <path d="M 0 209.99952 
L 569.99952 209.99952 
L 569.99952 0 
L 0 0 
z
" style="fill:#ffffff;"/>
  </g>
  <g id="axes_1">
   <g id="patch_2">
    <path d="M 24.851094 83.740324 
L 137.368778 83.740324 
L 137.368778 0 
L 24.851094 0 
z
" style="fill:#ffffff;"/>
   </g>
   <g id="matplotlib.axis_1">
    <g id="xtick_1">
     <g id="line2d_1">
      <path clip-path="url(#pa96855ca19)" d="M 24.851094 83.740324 
L 24.851094 0 
" style="fill:none;stroke:#000000;stroke-linecap:round;stroke-opacity:0.25;"/>
     </g>
     <g id="line2d_2">
      <defs>
       <path d="M 0 3 
L 0 -3 
" id="m4fa5bf71ec" style="stroke:#262626;stroke-width:0.25;"/>
      </defs>
      <g>
       <use style="fill:#262626;stroke:#262626;stroke-width:0.25;" x="24.851094" xlink:href="#m4fa5bf71ec" y="83.740324"/>
      </g>
     </g>
     <g id="text_1">
      <!-- 0 -->
      <g style="fill:#262626;" transform="translate(21.792578 98.113918)scale(0.11 -0.11)">
       <defs>
        <path d="M 4.15625 35.296875 
Q 4.15625 48 6.765625 55.734375 
Q 9.375 63.484375 14.515625 67.671875 
Q 19.671875 71.875 27.484375 71.875 
Q 33.25 71.875 37.59375 69.546875 
Q 41.9375 67.234375 44.765625 62.859375 
Q 47.609375 58.5 49.21875 52.21875 
Q 50.828125 45.953125 50.828125 35.296875 
Q 50.828125 22.703125 48.234375 14.96875 
Q 45.65625 7.234375 40.5 3 
Q 35.359375 -1.21875 27.484375 -1.21875 
Q 17.140625 -1.21875 11.234375 6.203125 
Q 4.15625 15.140625 4.15625 35.296875 
z
M 13.1875 35.296875 
Q 13.1875 17.671875 17.3125 11.828125 
Q 21.4375 6 27.484375 6 
Q 33.546875 6 37.671875 11.859375 
Q 41.796875 17.71875 41.796875 35.296875 
Q 41.796875 52.984375 37.671875 58.78125 
Q 33.546875 64.59375 27.390625 64.59375 
Q 21.34375 64.59375 17.71875 59.46875 
Q 13.1875 52.9375 13.1875 35.296875 
z
" id="ArialMT-48"/>
       </defs>
       <use xlink:href="#ArialMT-48"/>
      </g>
     </g>
    </g>
    <g id="xtick_2">
     <g id="line2d_3">
      <path clip-path="url(#pa96855ca19)" d="M 83.454054 83.740324 
L 83.454054 0 
" style="fill:none;stroke:#000000;stroke-linecap:round;stroke-opacity:0.25;"/>
     </g>
     <g id="line2d_4">
      <g>
       <use style="fill:#262626;stroke:#262626;stroke-width:0.25;" x="83.454054" xlink:href="#m4fa5bf71ec" y="83.740324"/>
      </g>
     </g>
     <g id="text_2">
      <!-- 50 -->
      <g style="fill:#262626;" transform="translate(77.337023 98.113918)scale(0.11 -0.11)">
       <defs>
        <path d="M 4.15625 18.75 
L 13.375 19.53125 
Q 14.40625 12.796875 18.140625 9.390625 
Q 21.875 6 27.15625 6 
Q 33.5 6 37.890625 10.78125 
Q 42.28125 15.578125 42.28125 23.484375 
Q 42.28125 31 38.0625 35.34375 
Q 33.84375 39.703125 27 39.703125 
Q 22.75 39.703125 19.328125 37.765625 
Q 15.921875 35.84375 13.96875 32.765625 
L 5.71875 33.84375 
L 12.640625 70.609375 
L 48.25 70.609375 
L 48.25 62.203125 
L 19.671875 62.203125 
L 15.828125 42.96875 
Q 22.265625 47.46875 29.34375 47.46875 
Q 38.71875 47.46875 45.15625 40.96875 
Q 51.609375 34.46875 51.609375 24.265625 
Q 51.609375 14.546875 45.953125 7.46875 
Q 39.0625 -1.21875 27.15625 -1.21875 
Q 17.390625 -1.21875 11.203125 4.25 
Q 5.03125 9.71875 4.15625 18.75 
z
" id="ArialMT-53"/>
       </defs>
       <use xlink:href="#ArialMT-53"/>
       <use x="55.615234" xlink:href="#ArialMT-48"/>
      </g>
     </g>
    </g>
   </g>
   <g id="matplotlib.axis_2">
    <g id="ytick_1">
     <g id="line2d_5">
      <path clip-path="url(#pa96855ca19)" d="M 24.851094 68.359448 
L 137.368778 68.359448 
" style="fill:none;stroke:#000000;stroke-linecap:round;stroke-opacity:0.25;"/>
     </g>
     <g id="line2d_6">
      <defs>
       <path d="M 3 0 
L -3 -0 
" id="m6947030e43" style="stroke:#262626;stroke-width:0.25;"/>
      </defs>
      <g>
       <use style="fill:#262626;stroke:#262626;stroke-width:0.25;" x="24.851094" xlink:href="#m6947030e43" y="68.359448"/>
      </g>
     </g>
     <g id="text_3">
      <!-- 50 -->
      <g style="fill:#262626;" transform="translate(6.117031 72.296245)scale(0.11 -0.11)">
       <use xlink:href="#ArialMT-53"/>
       <use x="55.615234" xlink:href="#ArialMT-48"/>
      </g>
     </g>
    </g>
    <g id="ytick_2">
     <g id="line2d_7">
      <path clip-path="url(#pa96855ca19)" d="M 24.851094 39.876345 
L 137.368778 39.876345 
" style="fill:none;stroke:#000000;stroke-linecap:round;stroke-opacity:0.25;"/>
     </g>
     <g id="line2d_8">
      <g>
       <use style="fill:#262626;stroke:#262626;stroke-width:0.25;" x="24.851094" xlink:href="#m6947030e43" y="39.876345"/>
      </g>
     </g>
     <g id="text_4">
      <!-- 100 -->
      <g style="fill:#262626;" transform="translate(0 43.813142)scale(0.11 -0.11)">
       <defs>
        <path d="M 37.25 0 
L 28.46875 0 
L 28.46875 56 
Q 25.296875 52.984375 20.140625 49.953125 
Q 14.984375 46.921875 10.890625 45.40625 
L 10.890625 53.90625 
Q 18.265625 57.375 23.78125 62.296875 
Q 29.296875 67.234375 31.59375 71.875 
L 37.25 71.875 
z
" id="ArialMT-49"/>
       </defs>
       <use xlink:href="#ArialMT-49"/>
       <use x="55.615234" xlink:href="#ArialMT-48"/>
       <use x="111.230469" xlink:href="#ArialMT-48"/>
      </g>
     </g>
    </g>
    <g id="ytick_3">
     <g id="line2d_9">
      <path clip-path="url(#pa96855ca19)" d="M 24.851094 11.393241 
L 137.368778 11.393241 
" style="fill:none;stroke:#000000;stroke-linecap:round;stroke-opacity:0.25;"/>
     </g>
     <g id="line2d_10">
      <g>
       <use style="fill:#262626;stroke:#262626;stroke-width:0.25;" x="24.851094" xlink:href="#m6947030e43" y="11.393241"/>
      </g>
     </g>
     <g id="text_5">
      <!-- 150 -->
      <g style="fill:#262626;" transform="translate(0 15.330038)scale(0.11 -0.11)">
       <use xlink:href="#ArialMT-49"/>
       <use x="55.615234" xlink:href="#ArialMT-53"/>
       <use x="111.230469" xlink:href="#ArialMT-48"/>
      </g>
     </g>
    </g>
   </g>
   <g id="line2d_11">
    <path clip-path="url(#pa96855ca19)" d="M 24.851094 75.195393 
L 27.245087 75.195393 
L 29.63908 75.195393 
L 32.033074 75.195393 
L 34.427067 75.195393 
L 36.82106 75.195393 
L 39.215053 75.195393 
L 41.609047 75.195393 
L 44.00304 74.625731 
L 46.397033 74.625731 
L 48.791027 72.347083 
L 51.18502 71.207759 
L 53.579013 68.359448 
L 55.973006 67.789786 
L 58.367 64.941476 
L 60.760993 60.384179 
L 63.154986 57.535869 
L 65.548979 56.966207 
L 67.942973 56.396545 
L 70.336966 52.978572 
L 72.730959 52.40891 
L 75.124953 52.40891 
L 77.518946 51.269586 
L 79.912939 50.699924 
L 82.306932 50.130262 
L 84.700926 49.5606 
L 87.094919 48.990938 
L 89.488912 47.851614 
L 91.882906 44.433641 
L 94.276899 42.724655 
L 96.670892 39.306683 
L 99.064885 37.028034 
L 101.458879 29.052765 
L 103.852872 26.774117 
L 106.246865 23.925807 
L 108.640858 21.647159 
L 111.034852 18.798848 
L 113.428845 15.380876 
L 115.822838 14.241552 
L 118.216832 10.253917 
L 120.610825 9.114593 
L 123.004818 9.114593 
L 125.398811 10.253917 
L 127.792805 12.532565 
L 130.186798 16.5202 
L 132.580791 17.659524 
L 134.974785 23.925807 
L 137.368778 31.901076 
" style="fill:none;stroke:#4c72b0;stroke-linecap:round;stroke-width:1.5;"/>
   </g>
   <g id="line2d_12">
    <path clip-path="url(#pa96855ca19)" d="M 24.851094 45.003303 
L 27.245087 45.003303 
L 29.63908 45.003303 
L 32.033074 45.003303 
L 34.427067 45.003303 
L 36.82106 45.003303 
L 39.215053 45.003303 
L 41.609047 45.003303 
L 44.00304 44.433641 
L 46.397033 43.294317 
L 48.791027 43.294317 
L 51.18502 42.154993 
L 53.579013 40.446007 
L 55.973006 37.597696 
L 58.367 34.749386 
L 60.760993 32.470738 
L 63.154986 30.761752 
L 65.548979 26.204455 
L 67.942973 26.204455 
L 70.336966 22.786483 
L 72.730959 17.659524 
L 75.124953 14.811214 
L 77.518946 12.532565 
L 79.912939 12.532565 
L 82.306932 13.102228 
L 84.700926 12.532565 
L 87.094919 10.253917 
L 89.488912 10.253917 
L 91.882906 10.253917 
L 94.276899 9.684255 
L 96.670892 7.405607 
L 99.064885 6.266283 
L 101.458879 2.84831 
L 103.852872 2.84831 
L 106.246865 0.569662 
L 108.640858 0 
L 111.034852 0.569662 
L 113.428845 0 
L 115.822838 0.569662 
L 118.216832 3.987634 
L 120.610825 7.975269 
L 123.004818 12.532565 
L 125.398811 15.380876 
L 127.792805 23.925807 
L 130.186798 26.774117 
L 132.580791 31.331414 
L 134.974785 37.597696 
L 137.368778 41.015669 
" style="fill:none;stroke:#dd8452;stroke-linecap:round;stroke-width:1.5;"/>
   </g>
   <g id="line2d_13">
    <path clip-path="url(#pa96855ca19)" d="M 24.851094 83.170662 
L 27.245087 83.170662 
L 29.63908 83.170662 
L 32.033074 83.170662 
L 34.427067 83.170662 
L 36.82106 83.170662 
L 39.215053 83.170662 
L 41.609047 83.170662 
L 44.00304 83.170662 
L 46.397033 83.170662 
L 48.791027 83.740324 
L 51.18502 83.740324 
L 53.579013 82.601 
L 55.973006 81.461676 
L 58.367 80.322352 
L 60.760993 79.75269 
L 63.154986 79.183027 
L 65.548979 79.75269 
L 67.942973 79.75269 
L 70.336966 80.892014 
L 72.730959 79.183027 
L 75.124953 79.183027 
L 77.518946 78.613365 
L 79.912939 78.613365 
L 82.306932 78.613365 
L 84.700926 78.043703 
L 87.094919 76.904379 
L 89.488912 73.486407 
L 91.882906 71.777421 
L 94.276899 71.777421 
L 96.670892 71.777421 
L 99.064885 71.207759 
L 101.458879 71.207759 
L 103.852872 70.068434 
L 106.246865 69.498772 
L 108.640858 69.498772 
L 111.034852 70.068434 
L 113.428845 71.207759 
L 115.822838 71.207759 
L 118.216832 72.347083 
L 120.610825 72.916745 
L 123.004818 73.486407 
L 125.398811 74.056069 
L 127.792805 75.195393 
L 130.186798 75.195393 
L 132.580791 75.765055 
L 134.974785 75.765055 
L 137.368778 75.765055 
" style="fill:none;stroke:#55a868;stroke-linecap:round;stroke-width:1.5;"/>
   </g>
   <g id="patch_3">
    <path d="M 24.851094 83.740324 
L 24.851094 0 
" style="fill:none;stroke:#000000;stroke-linecap:square;stroke-linejoin:miter;stroke-width:0.25;"/>
   </g>
   <g id="patch_4">
    <path d="M 137.368778 83.740324 
L 137.368778 0 
" style="fill:none;stroke:#000000;stroke-linecap:square;stroke-linejoin:miter;stroke-width:0.25;"/>
   </g>
   <g id="patch_5">
    <path d="M 24.851094 83.740324 
L 137.368778 83.740324 
" style="fill:none;stroke:#000000;stroke-linecap:square;stroke-linejoin:miter;stroke-width:0.25;"/>
   </g>
   <g id="patch_6">
    <path d="M 24.851094 0 
L 137.368778 0 
" style="fill:none;stroke:#000000;stroke-linecap:square;stroke-linejoin:miter;stroke-width:0.25;"/>
   </g>
  </g>
  <g id="axes_2">
   <g id="patch_7">
    <path d="M 171.100352 83.740324 
L 283.618036 83.740324 
L 283.618036 0 
L 171.100352 0 
z
" style="fill:#ffffff;"/>
   </g>
   <g id="matplotlib.axis_3">
    <g id="xtick_3">
     <g id="line2d_14">
      <path clip-path="url(#p785d0ba98a)" d="M 171.100352 83.740324 
L 171.100352 0 
" style="fill:none;stroke:#000000;stroke-linecap:round;stroke-opacity:0.25;"/>
     </g>
     <g id="line2d_15">
      <g>
       <use style="fill:#262626;stroke:#262626;stroke-width:0.25;" x="171.100352" xlink:href="#m4fa5bf71ec" y="83.740324"/>
      </g>
     </g>
     <g id="text_6">
      <!-- 0 -->
      <g style="fill:#262626;" transform="translate(168.041836 98.113918)scale(0.11 -0.11)">
       <use xlink:href="#ArialMT-48"/>
      </g>
     </g>
    </g>
    <g id="xtick_4">
     <g id="line2d_16">
      <path clip-path="url(#p785d0ba98a)" d="M 229.703312 83.740324 
L 229.703312 0 
" style="fill:none;stroke:#000000;stroke-linecap:round;stroke-opacity:0.25;"/>
     </g>
     <g id="line2d_17">
      <g>
       <use style="fill:#262626;stroke:#262626;stroke-width:0.25;" x="229.703312" xlink:href="#m4fa5bf71ec" y="83.740324"/>
      </g>
     </g>
     <g id="text_7">
      <!-- 50 -->
      <g style="fill:#262626;" transform="translate(223.586281 98.113918)scale(0.11 -0.11)">
       <use xlink:href="#ArialMT-53"/>
       <use x="55.615234" xlink:href="#ArialMT-48"/>
      </g>
     </g>
    </g>
   </g>
   <g id="matplotlib.axis_4">
    <g id="ytick_4">
     <g id="line2d_18">
      <path clip-path="url(#p785d0ba98a)" d="M 171.100352 56.069608 
L 283.618036 56.069608 
" style="fill:none;stroke:#000000;stroke-linecap:round;stroke-opacity:0.25;"/>
     </g>
     <g id="line2d_19">
      <g>
       <use style="fill:#262626;stroke:#262626;stroke-width:0.25;" x="171.100352" xlink:href="#m6947030e43" y="56.069608"/>
      </g>
     </g>
     <g id="text_8">
      <!-- 50 -->
      <g style="fill:#262626;" transform="translate(152.366289 60.006405)scale(0.11 -0.11)">
       <use xlink:href="#ArialMT-53"/>
       <use x="55.615234" xlink:href="#ArialMT-48"/>
      </g>
     </g>
    </g>
    <g id="ytick_5">
     <g id="line2d_20">
      <path clip-path="url(#p785d0ba98a)" d="M 171.100352 19.660772 
L 283.618036 19.660772 
" style="fill:none;stroke:#000000;stroke-linecap:round;stroke-opacity:0.25;"/>
     </g>
     <g id="line2d_21">
      <g>
       <use style="fill:#262626;stroke:#262626;stroke-width:0.25;" x="171.100352" xlink:href="#m6947030e43" y="19.660772"/>
      </g>
     </g>
     <g id="text_9">
      <!-- 100 -->
      <g style="fill:#262626;" transform="translate(146.249258 23.597569)scale(0.11 -0.11)">
       <use xlink:href="#ArialMT-49"/>
       <use x="55.615234" xlink:href="#ArialMT-48"/>
       <use x="111.230469" xlink:href="#ArialMT-48"/>
      </g>
     </g>
    </g>
   </g>
   <g id="line2d_22">
    <path clip-path="url(#p785d0ba98a)" d="M 171.100352 81.555794 
L 173.494345 81.555794 
L 175.888338 81.555794 
L 178.282331 81.555794 
L 180.676325 81.555794 
L 183.070318 81.555794 
L 185.464311 81.555794 
L 187.858305 81.555794 
L 190.252298 81.555794 
L 192.646291 81.555794 
L 195.040284 80.827617 
L 197.434278 80.09944 
L 199.828271 79.371264 
L 202.222264 77.91491 
L 204.616257 77.186733 
L 207.010251 74.274027 
L 209.404244 72.089496 
L 211.798237 72.089496 
L 214.192231 72.089496 
L 216.586224 71.36132 
L 218.980217 71.36132 
L 221.37421 71.36132 
L 223.768204 70.633143 
L 226.162197 70.633143 
L 228.55619 69.176789 
L 230.950184 69.176789 
L 233.344177 69.176789 
L 235.73817 69.176789 
L 238.132163 68.448613 
L 240.526157 68.448613 
L 242.92015 68.448613 
L 245.314143 66.992259 
L 247.708136 64.079552 
L 250.10213 61.895022 
L 252.496123 58.982315 
L 254.890116 58.254138 
L 257.28411 55.341432 
L 259.678103 54.613255 
L 262.072096 54.613255 
L 264.466089 54.613255 
L 266.860083 52.428725 
L 269.254076 52.428725 
L 271.648069 51.700548 
L 274.042063 53.156901 
L 276.436056 53.156901 
L 278.830049 53.156901 
L 281.224042 53.156901 
L 283.618036 72.817673 
" style="fill:none;stroke:#4c72b0;stroke-linecap:round;stroke-width:1.5;"/>
   </g>
   <g id="line2d_23">
    <path clip-path="url(#p785d0ba98a)" d="M 171.100352 43.690604 
L 173.494345 43.690604 
L 175.888338 43.690604 
L 178.282331 43.690604 
L 180.676325 43.690604 
L 183.070318 43.690604 
L 185.464311 43.690604 
L 187.858305 43.690604 
L 190.252298 43.690604 
L 192.646291 42.23425 
L 195.040284 40.777897 
L 197.434278 38.593367 
L 199.828271 34.224306 
L 202.222264 29.855246 
L 204.616257 29.127069 
L 207.010251 26.214362 
L 209.404244 24.758009 
L 211.798237 25.486186 
L 214.192231 22.573479 
L 216.586224 19.660772 
L 218.980217 16.019888 
L 221.37421 16.019888 
L 223.768204 14.563535 
L 226.162197 12.379004 
L 228.55619 10.922651 
L 230.950184 8.009944 
L 233.344177 8.009944 
L 235.73817 8.009944 
L 238.132163 8.009944 
L 240.526157 7.281767 
L 242.92015 8.009944 
L 245.314143 3.640884 
L 247.708136 1.456353 
L 250.10213 2.18453 
L 252.496123 0 
L 254.890116 1.456353 
L 257.28411 2.18453 
L 259.678103 1.456353 
L 262.072096 5.097237 
L 264.466089 8.738121 
L 266.860083 12.379004 
L 269.254076 17.476242 
L 271.648069 21.845302 
L 274.042063 23.301655 
L 276.436056 26.214362 
L 278.830049 32.767953 
L 281.224042 33.49613 
L 283.618036 44.418781 
" style="fill:none;stroke:#dd8452;stroke-linecap:round;stroke-width:1.5;"/>
   </g>
   <g id="line2d_24">
    <path clip-path="url(#p785d0ba98a)" d="M 171.100352 83.012147 
L 173.494345 83.012147 
L 175.888338 83.012147 
L 178.282331 83.012147 
L 180.676325 83.012147 
L 183.070318 83.012147 
L 185.464311 83.012147 
L 187.858305 83.012147 
L 190.252298 83.012147 
L 192.646291 83.740324 
L 195.040284 83.740324 
L 197.434278 83.012147 
L 199.828271 81.555794 
L 202.222264 80.09944 
L 204.616257 80.09944 
L 207.010251 79.371264 
L 209.404244 79.371264 
L 211.798237 77.91491 
L 214.192231 77.91491 
L 216.586224 77.186733 
L 218.980217 77.186733 
L 221.37421 77.186733 
L 223.768204 76.458557 
L 226.162197 76.458557 
L 228.55619 76.458557 
L 230.950184 76.458557 
L 233.344177 76.458557 
L 235.73817 77.186733 
L 238.132163 77.186733 
L 240.526157 77.186733 
L 242.92015 76.458557 
L 245.314143 75.73038 
L 247.708136 75.73038 
L 250.10213 75.73038 
L 252.496123 75.73038 
L 254.890116 75.73038 
L 257.28411 75.73038 
L 259.678103 75.73038 
L 262.072096 76.458557 
L 264.466089 77.186733 
L 266.860083 77.186733 
L 269.254076 77.91491 
L 271.648069 79.371264 
L 274.042063 80.09944 
L 276.436056 80.09944 
L 278.830049 80.09944 
L 281.224042 80.827617 
L 283.618036 82.283971 
" style="fill:none;stroke:#55a868;stroke-linecap:round;stroke-width:1.5;"/>
   </g>
   <g id="patch_8">
    <path d="M 171.100352 83.740324 
L 171.100352 0 
" style="fill:none;stroke:#000000;stroke-linecap:square;stroke-linejoin:miter;stroke-width:0.25;"/>
   </g>
   <g id="patch_9">
    <path d="M 283.618036 83.740324 
L 283.618036 0 
" style="fill:none;stroke:#000000;stroke-linecap:square;stroke-linejoin:miter;stroke-width:0.25;"/>
   </g>
   <g id="patch_10">
    <path d="M 171.100352 83.740324 
L 283.618036 83.740324 
" style="fill:none;stroke:#000000;stroke-linecap:square;stroke-linejoin:miter;stroke-width:0.25;"/>
   </g>
   <g id="patch_11">
    <path d="M 171.100352 0 
L 283.618036 0 
" style="fill:none;stroke:#000000;stroke-linecap:square;stroke-linejoin:miter;stroke-width:0.25;"/>
   </g>
  </g>
  <g id="axes_3">
   <g id="patch_12">
    <path d="M 317.349609 83.740324 
L 429.867293 83.740324 
L 429.867293 0 
L 317.349609 0 
z
" style="fill:#ffffff;"/>
   </g>
   <g id="matplotlib.axis_5">
    <g id="xtick_5">
     <g id="line2d_25">
      <path clip-path="url(#p9efbd66076)" d="M 317.349609 83.740324 
L 317.349609 0 
" style="fill:none;stroke:#000000;stroke-linecap:round;stroke-opacity:0.25;"/>
     </g>
     <g id="line2d_26">
      <g>
       <use style="fill:#262626;stroke:#262626;stroke-width:0.25;" x="317.349609" xlink:href="#m4fa5bf71ec" y="83.740324"/>
      </g>
     </g>
     <g id="text_10">
      <!-- 0 -->
      <g style="fill:#262626;" transform="translate(314.291094 98.113918)scale(0.11 -0.11)">
       <use xlink:href="#ArialMT-48"/>
      </g>
     </g>
    </g>
    <g id="xtick_6">
     <g id="line2d_27">
      <path clip-path="url(#p9efbd66076)" d="M 375.95257 83.740324 
L 375.95257 0 
" style="fill:none;stroke:#000000;stroke-linecap:round;stroke-opacity:0.25;"/>
     </g>
     <g id="line2d_28">
      <g>
       <use style="fill:#262626;stroke:#262626;stroke-width:0.25;" x="375.95257" xlink:href="#m4fa5bf71ec" y="83.740324"/>
      </g>
     </g>
     <g id="text_11">
      <!-- 50 -->
      <g style="fill:#262626;" transform="translate(369.835539 98.113918)scale(0.11 -0.11)">
       <use xlink:href="#ArialMT-53"/>
       <use x="55.615234" xlink:href="#ArialMT-48"/>
      </g>
     </g>
    </g>
   </g>
   <g id="matplotlib.axis_6">
    <g id="ytick_6">
     <g id="line2d_29">
      <path clip-path="url(#p9efbd66076)" d="M 317.349609 55.558484 
L 429.867293 55.558484 
" style="fill:none;stroke:#000000;stroke-linecap:round;stroke-opacity:0.25;"/>
     </g>
     <g id="line2d_30">
      <g>
       <use style="fill:#262626;stroke:#262626;stroke-width:0.25;" x="317.349609" xlink:href="#m6947030e43" y="55.558484"/>
      </g>
     </g>
     <g id="text_12">
      <!-- 50 -->
      <g style="fill:#262626;" transform="translate(298.615547 59.495281)scale(0.11 -0.11)">
       <use xlink:href="#ArialMT-53"/>
       <use x="55.615234" xlink:href="#ArialMT-48"/>
      </g>
     </g>
    </g>
    <g id="ytick_7">
     <g id="line2d_31">
      <path clip-path="url(#p9efbd66076)" d="M 317.349609 15.298713 
L 429.867293 15.298713 
" style="fill:none;stroke:#000000;stroke-linecap:round;stroke-opacity:0.25;"/>
     </g>
     <g id="line2d_32">
      <g>
       <use style="fill:#262626;stroke:#262626;stroke-width:0.25;" x="317.349609" xlink:href="#m6947030e43" y="15.298713"/>
      </g>
     </g>
     <g id="text_13">
      <!-- 100 -->
      <g style="fill:#262626;" transform="translate(292.498516 19.23551)scale(0.11 -0.11)">
       <use xlink:href="#ArialMT-49"/>
       <use x="55.615234" xlink:href="#ArialMT-48"/>
       <use x="111.230469" xlink:href="#ArialMT-48"/>
      </g>
     </g>
    </g>
   </g>
   <g id="line2d_33">
    <path clip-path="url(#p9efbd66076)" d="M 317.349609 14.493518 
L 319.743603 14.493518 
L 322.137596 14.493518 
L 324.531589 14.493518 
L 326.925582 14.493518 
L 329.319576 14.493518 
L 331.713569 14.493518 
L 334.107562 14.493518 
L 336.501556 12.883127 
L 338.895549 12.883127 
L 341.289542 11.272736 
L 343.683535 10.467541 
L 346.077529 8.051954 
L 348.471522 7.246759 
L 350.865515 7.246759 
L 353.259509 6.441563 
L 355.653502 6.441563 
L 358.047495 5.636368 
L 360.441488 5.636368 
L 362.835482 5.636368 
L 365.229475 5.636368 
L 367.623468 6.441563 
L 370.017461 7.246759 
L 372.411455 8.051954 
L 374.805448 12.077931 
L 377.199441 12.883127 
L 379.593435 12.883127 
L 381.987428 12.883127 
L 384.381421 13.688322 
L 386.775414 16.909104 
L 389.169408 17.714299 
L 391.563401 18.519495 
L 393.957394 20.129886 
L 396.351388 21.740276 
L 398.745381 24.961058 
L 401.139374 28.18184 
L 403.533367 31.402622 
L 405.927361 33.818208 
L 408.321354 39.454576 
L 410.715347 41.870162 
L 413.10934 43.480553 
L 415.503334 45.896139 
L 417.897327 52.337703 
L 420.29132 55.558484 
L 422.685314 56.36368 
L 425.079307 58.779266 
L 427.4733 58.779266 
L 429.867293 60.389657 
" style="fill:none;stroke:#4c72b0;stroke-linecap:round;stroke-width:1.5;"/>
   </g>
   <g id="line2d_34">
    <path clip-path="url(#p9efbd66076)" d="M 317.349609 48.311725 
L 319.743603 48.311725 
L 322.137596 48.311725 
L 324.531589 48.311725 
L 326.925582 48.311725 
L 329.319576 48.311725 
L 331.713569 48.311725 
L 334.107562 48.311725 
L 336.501556 48.311725 
L 338.895549 47.50653 
L 341.289542 45.896139 
L 343.683535 43.480553 
L 346.077529 37.844185 
L 348.471522 34.623403 
L 350.865515 32.207817 
L 353.259509 29.792231 
L 355.653502 29.792231 
L 358.047495 29.792231 
L 360.441488 28.987035 
L 362.835482 28.987035 
L 365.229475 28.18184 
L 367.623468 24.961058 
L 370.017461 24.961058 
L 372.411455 21.740276 
L 374.805448 18.519495 
L 377.199441 16.909104 
L 379.593435 15.298713 
L 381.987428 14.493518 
L 384.381421 13.688322 
L 386.775414 12.077931 
L 389.169408 10.467541 
L 391.563401 7.246759 
L 393.957394 6.441563 
L 396.351388 4.831173 
L 398.745381 4.025977 
L 401.139374 -0 
L 403.533367 -0 
L 405.927361 0.805195 
L 408.321354 0.805195 
L 410.715347 2.415586 
L 413.10934 3.220782 
L 415.503334 11.272736 
L 417.897327 16.909104 
L 420.29132 22.545472 
L 422.685314 24.155863 
L 425.079307 28.18184 
L 427.4733 32.207817 
L 429.867293 33.818208 
" style="fill:none;stroke:#dd8452;stroke-linecap:round;stroke-width:1.5;"/>
   </g>
   <g id="line2d_35">
    <path clip-path="url(#p9efbd66076)" d="M 317.349609 81.324738 
L 319.743603 81.324738 
L 322.137596 81.324738 
L 324.531589 81.324738 
L 326.925582 81.324738 
L 329.319576 81.324738 
L 331.713569 81.324738 
L 334.107562 81.324738 
L 336.501556 82.129933 
L 338.895549 82.129933 
L 341.289542 83.740324 
L 343.683535 83.740324 
L 346.077529 83.740324 
L 348.471522 83.740324 
L 350.865515 83.740324 
L 353.259509 82.935129 
L 355.653502 82.129933 
L 358.047495 82.129933 
L 360.441488 82.129933 
L 362.835482 82.935129 
L 365.229475 82.935129 
L 367.623468 80.519542 
L 370.017461 78.909151 
L 372.411455 77.298761 
L 374.805448 74.883174 
L 377.199441 74.077979 
L 379.593435 74.077979 
L 381.987428 73.272784 
L 384.381421 72.467588 
L 386.775414 71.662393 
L 389.169408 70.857197 
L 391.563401 70.857197 
L 393.957394 69.246806 
L 396.351388 67.636416 
L 398.745381 65.220829 
L 401.139374 63.610438 
L 403.533367 64.415634 
L 405.927361 64.415634 
L 408.321354 63.610438 
L 410.715347 62.805243 
L 413.10934 62.805243 
L 415.503334 62.805243 
L 417.897327 62.805243 
L 420.29132 63.610438 
L 422.685314 63.610438 
L 425.079307 63.610438 
L 427.4733 63.610438 
L 429.867293 63.610438 
" style="fill:none;stroke:#55a868;stroke-linecap:round;stroke-width:1.5;"/>
   </g>
   <g id="patch_13">
    <path d="M 317.349609 83.740324 
L 317.349609 -0 
" style="fill:none;stroke:#000000;stroke-linecap:square;stroke-linejoin:miter;stroke-width:0.25;"/>
   </g>
   <g id="patch_14">
    <path d="M 429.867293 83.740324 
L 429.867293 -0 
" style="fill:none;stroke:#000000;stroke-linecap:square;stroke-linejoin:miter;stroke-width:0.25;"/>
   </g>
   <g id="patch_15">
    <path d="M 317.349609 83.740324 
L 429.867293 83.740324 
" style="fill:none;stroke:#000000;stroke-linecap:square;stroke-linejoin:miter;stroke-width:0.25;"/>
   </g>
   <g id="patch_16">
    <path d="M 317.349609 0 
L 429.867293 0 
" style="fill:none;stroke:#000000;stroke-linecap:square;stroke-linejoin:miter;stroke-width:0.25;"/>
   </g>
  </g>
  <g id="axes_4">
   <g id="patch_17">
    <path d="M 457.481836 83.740324 
L 569.99952 83.740324 
L 569.99952 0 
L 457.481836 0 
z
" style="fill:#ffffff;"/>
   </g>
   <g id="matplotlib.axis_7">
    <g id="xtick_7">
     <g id="line2d_36">
      <path clip-path="url(#p9bc6930cf7)" d="M 457.481836 83.740324 
L 457.481836 0 
" style="fill:none;stroke:#000000;stroke-linecap:round;stroke-opacity:0.25;"/>
     </g>
     <g id="line2d_37">
      <g>
       <use style="fill:#262626;stroke:#262626;stroke-width:0.25;" x="457.481836" xlink:href="#m4fa5bf71ec" y="83.740324"/>
      </g>
     </g>
     <g id="text_14">
      <!-- 0 -->
      <g style="fill:#262626;" transform="translate(454.42332 98.113918)scale(0.11 -0.11)">
       <use xlink:href="#ArialMT-48"/>
      </g>
     </g>
    </g>
    <g id="xtick_8">
     <g id="line2d_38">
      <path clip-path="url(#p9bc6930cf7)" d="M 516.084796 83.740324 
L 516.084796 0 
" style="fill:none;stroke:#000000;stroke-linecap:round;stroke-opacity:0.25;"/>
     </g>
     <g id="line2d_39">
      <g>
       <use style="fill:#262626;stroke:#262626;stroke-width:0.25;" x="516.084796" xlink:href="#m4fa5bf71ec" y="83.740324"/>
      </g>
     </g>
     <g id="text_15">
      <!-- 50 -->
      <g style="fill:#262626;" transform="translate(509.967765 98.113918)scale(0.11 -0.11)">
       <use xlink:href="#ArialMT-53"/>
       <use x="55.615234" xlink:href="#ArialMT-48"/>
      </g>
     </g>
    </g>
   </g>
   <g id="matplotlib.axis_8">
    <g id="ytick_8">
     <g id="line2d_40">
      <path clip-path="url(#p9bc6930cf7)" d="M 457.481836 64.200915 
L 569.99952 64.200915 
" style="fill:none;stroke:#000000;stroke-linecap:round;stroke-opacity:0.25;"/>
     </g>
     <g id="line2d_41">
      <g>
       <use style="fill:#262626;stroke:#262626;stroke-width:0.25;" x="457.481836" xlink:href="#m6947030e43" y="64.200915"/>
      </g>
     </g>
     <g id="text_16">
      <!-- 10 -->
      <g style="fill:#262626;" transform="translate(438.747773 68.137712)scale(0.11 -0.11)">
       <use xlink:href="#ArialMT-49"/>
       <use x="55.615234" xlink:href="#ArialMT-48"/>
      </g>
     </g>
    </g>
    <g id="ytick_9">
     <g id="line2d_42">
      <path clip-path="url(#p9bc6930cf7)" d="M 457.481836 36.287474 
L 569.99952 36.287474 
" style="fill:none;stroke:#000000;stroke-linecap:round;stroke-opacity:0.25;"/>
     </g>
     <g id="line2d_43">
      <g>
       <use style="fill:#262626;stroke:#262626;stroke-width:0.25;" x="457.481836" xlink:href="#m6947030e43" y="36.287474"/>
      </g>
     </g>
     <g id="text_17">
      <!-- 20 -->
      <g style="fill:#262626;" transform="translate(438.747773 40.224271)scale(0.11 -0.11)">
       <defs>
        <path d="M 50.34375 8.453125 
L 50.34375 0 
L 3.03125 0 
Q 2.9375 3.171875 4.046875 6.109375 
Q 5.859375 10.9375 9.828125 15.625 
Q 13.8125 20.3125 21.34375 26.46875 
Q 33.015625 36.03125 37.109375 41.625 
Q 41.21875 47.21875 41.21875 52.203125 
Q 41.21875 57.421875 37.46875 61 
Q 33.734375 64.59375 27.734375 64.59375 
Q 21.390625 64.59375 17.578125 60.78125 
Q 13.765625 56.984375 13.71875 50.25 
L 4.6875 51.171875 
Q 5.609375 61.28125 11.65625 66.578125 
Q 17.71875 71.875 27.9375 71.875 
Q 38.234375 71.875 44.234375 66.15625 
Q 50.25 60.453125 50.25 52 
Q 50.25 47.703125 48.484375 43.546875 
Q 46.734375 39.40625 42.65625 34.8125 
Q 38.578125 30.21875 29.109375 22.21875 
Q 21.1875 15.578125 18.9375 13.203125 
Q 16.703125 10.84375 15.234375 8.453125 
z
" id="ArialMT-50"/>
       </defs>
       <use xlink:href="#ArialMT-50"/>
       <use x="55.615234" xlink:href="#ArialMT-48"/>
      </g>
     </g>
    </g>
    <g id="ytick_10">
     <g id="line2d_44">
      <path clip-path="url(#p9bc6930cf7)" d="M 457.481836 8.374032 
L 569.99952 8.374032 
" style="fill:none;stroke:#000000;stroke-linecap:round;stroke-opacity:0.25;"/>
     </g>
     <g id="line2d_45">
      <g>
       <use style="fill:#262626;stroke:#262626;stroke-width:0.25;" x="457.481836" xlink:href="#m6947030e43" y="8.374032"/>
      </g>
     </g>
     <g id="text_18">
      <!-- 30 -->
      <g style="fill:#262626;" transform="translate(438.747773 12.310829)scale(0.11 -0.11)">
       <defs>
        <path d="M 4.203125 18.890625 
L 12.984375 20.0625 
Q 14.5 12.59375 18.140625 9.296875 
Q 21.78125 6 27 6 
Q 33.203125 6 37.46875 10.296875 
Q 41.75 14.59375 41.75 20.953125 
Q 41.75 27 37.796875 30.921875 
Q 33.84375 34.859375 27.734375 34.859375 
Q 25.25 34.859375 21.53125 33.890625 
L 22.515625 41.609375 
Q 23.390625 41.5 23.921875 41.5 
Q 29.546875 41.5 34.03125 44.421875 
Q 38.53125 47.359375 38.53125 53.46875 
Q 38.53125 58.296875 35.25 61.46875 
Q 31.984375 64.65625 26.8125 64.65625 
Q 21.6875 64.65625 18.265625 61.421875 
Q 14.84375 58.203125 13.875 51.765625 
L 5.078125 53.328125 
Q 6.6875 62.15625 12.390625 67.015625 
Q 18.109375 71.875 26.609375 71.875 
Q 32.46875 71.875 37.390625 69.359375 
Q 42.328125 66.84375 44.9375 62.5 
Q 47.5625 58.15625 47.5625 53.265625 
Q 47.5625 48.640625 45.0625 44.828125 
Q 42.578125 41.015625 37.703125 38.765625 
Q 44.046875 37.3125 47.5625 32.6875 
Q 51.078125 28.078125 51.078125 21.140625 
Q 51.078125 11.765625 44.234375 5.25 
Q 37.40625 -1.265625 26.953125 -1.265625 
Q 17.53125 -1.265625 11.296875 4.34375 
Q 5.078125 9.96875 4.203125 18.890625 
z
" id="ArialMT-51"/>
       </defs>
       <use xlink:href="#ArialMT-51"/>
       <use x="55.615234" xlink:href="#ArialMT-48"/>
      </g>
     </g>
    </g>
   </g>
   <g id="line2d_46">
    <path clip-path="url(#p9bc6930cf7)" d="M 457.481836 0 
L 459.875829 0 
L 462.269822 0 
L 464.663816 0 
L 467.057809 0 
L 469.451802 0 
L 471.845796 0 
L 474.239789 0 
L 476.633782 0 
L 479.027775 0 
L 481.421769 5.582688 
L 483.815762 8.374032 
L 486.209755 8.374032 
L 488.603749 11.165377 
L 490.997742 27.913441 
L 493.391735 36.287474 
L 495.785728 39.078818 
L 498.179722 41.870162 
L 500.573715 47.45285 
L 502.967708 47.45285 
L 505.361701 47.45285 
L 507.755695 50.244194 
L 510.149688 50.244194 
L 512.543681 50.244194 
L 514.937675 50.244194 
L 517.331668 50.244194 
L 519.725661 50.244194 
L 522.119654 50.244194 
L 524.513648 50.244194 
L 526.907641 50.244194 
L 529.301634 50.244194 
L 531.695628 50.244194 
L 534.089621 50.244194 
L 536.483614 53.035539 
L 538.877607 55.826883 
L 541.271601 58.618227 
L 543.665594 61.409571 
L 546.059587 61.409571 
L 548.45358 61.409571 
L 550.847574 61.409571 
L 553.241567 61.409571 
L 555.63556 69.783603 
L 558.029554 72.574947 
L 560.423547 72.574947 
L 562.81754 72.574947 
L 565.211533 78.157636 
L 567.605527 80.94898 
L 569.99952 83.740324 
" style="fill:none;stroke:#4c72b0;stroke-linecap:round;stroke-width:1.5;"/>
   </g>
   <g id="line2d_47">
    <path clip-path="url(#p9bc6930cf7)" d="M 457.481836 27.913441 
L 459.875829 27.913441 
L 462.269822 27.913441 
L 464.663816 27.913441 
L 467.057809 27.913441 
L 469.451802 27.913441 
L 471.845796 27.913441 
L 474.239789 27.913441 
L 476.633782 27.913441 
L 479.027775 27.913441 
L 481.421769 27.913441 
L 483.815762 27.913441 
L 486.209755 25.122097 
L 488.603749 25.122097 
L 490.997742 27.913441 
L 493.391735 30.704785 
L 495.785728 30.704785 
L 498.179722 30.704785 
L 500.573715 30.704785 
L 502.967708 33.49613 
L 505.361701 33.49613 
L 507.755695 27.913441 
L 510.149688 27.913441 
L 512.543681 25.122097 
L 514.937675 25.122097 
L 517.331668 22.330753 
L 519.725661 19.539409 
L 522.119654 16.748065 
L 524.513648 13.956721 
L 526.907641 13.956721 
L 529.301634 13.956721 
L 531.695628 13.956721 
L 534.089621 13.956721 
L 536.483614 16.748065 
L 538.877607 19.539409 
L 541.271601 19.539409 
L 543.665594 19.539409 
L 546.059587 19.539409 
L 548.45358 22.330753 
L 550.847574 25.122097 
L 553.241567 25.122097 
L 555.63556 25.122097 
L 558.029554 25.122097 
L 560.423547 25.122097 
L 562.81754 25.122097 
L 565.211533 33.49613 
L 567.605527 39.078818 
L 569.99952 41.870162 
" style="fill:none;stroke:#dd8452;stroke-linecap:round;stroke-width:1.5;"/>
   </g>
   <g id="line2d_48">
    <path clip-path="url(#p9bc6930cf7)" d="M 457.481836 66.992259 
L 459.875829 66.992259 
L 462.269822 66.992259 
L 464.663816 66.992259 
L 467.057809 66.992259 
L 469.451802 66.992259 
L 471.845796 66.992259 
L 474.239789 66.992259 
L 476.633782 66.992259 
L 479.027775 66.992259 
L 481.421769 64.200915 
L 483.815762 64.200915 
L 486.209755 64.200915 
L 488.603749 64.200915 
L 490.997742 58.618227 
L 493.391735 55.826883 
L 495.785728 53.035539 
L 498.179722 53.035539 
L 500.573715 47.45285 
L 502.967708 47.45285 
L 505.361701 47.45285 
L 507.755695 44.661506 
L 510.149688 44.661506 
L 512.543681 44.661506 
L 514.937675 44.661506 
L 517.331668 44.661506 
L 519.725661 44.661506 
L 522.119654 44.661506 
L 524.513648 44.661506 
L 526.907641 44.661506 
L 529.301634 44.661506 
L 531.695628 44.661506 
L 534.089621 44.661506 
L 536.483614 44.661506 
L 538.877607 47.45285 
L 541.271601 47.45285 
L 543.665594 47.45285 
L 546.059587 47.45285 
L 548.45358 47.45285 
L 550.847574 47.45285 
L 553.241567 47.45285 
L 555.63556 47.45285 
L 558.029554 47.45285 
L 560.423547 50.244194 
L 562.81754 50.244194 
L 565.211533 53.035539 
L 567.605527 53.035539 
L 569.99952 53.035539 
" style="fill:none;stroke:#55a868;stroke-linecap:round;stroke-width:1.5;"/>
   </g>
   <g id="patch_18">
    <path d="M 457.481836 83.740324 
L 457.481836 0 
" style="fill:none;stroke:#000000;stroke-linecap:square;stroke-linejoin:miter;stroke-width:0.25;"/>
   </g>
   <g id="patch_19">
    <path d="M 569.99952 83.740324 
L 569.99952 0 
" style="fill:none;stroke:#000000;stroke-linecap:square;stroke-linejoin:miter;stroke-width:0.25;"/>
   </g>
   <g id="patch_20">
    <path d="M 457.481836 83.740324 
L 569.99952 83.740324 
" style="fill:none;stroke:#000000;stroke-linecap:square;stroke-linejoin:miter;stroke-width:0.25;"/>
   </g>
   <g id="patch_21">
    <path d="M 457.481836 0 
L 569.99952 0 
" style="fill:none;stroke:#000000;stroke-linecap:square;stroke-linejoin:miter;stroke-width:0.25;"/>
   </g>
  </g>
  <g id="axes_5">
   <g id="patch_22">
    <path d="M 24.851094 193.439676 
L 137.368778 193.439676 
L 137.368778 109.699352 
L 24.851094 109.699352 
z
" style="fill:#ffffff;"/>
   </g>
   <g id="matplotlib.axis_9">
    <g id="xtick_9">
     <g id="line2d_49">
      <path clip-path="url(#pd7e5cf684a)" d="M 24.851094 193.439676 
L 24.851094 109.699352 
" style="fill:none;stroke:#000000;stroke-linecap:round;stroke-opacity:0.25;"/>
     </g>
     <g id="line2d_50">
      <g>
       <use style="fill:#262626;stroke:#262626;stroke-width:0.25;" x="24.851094" xlink:href="#m4fa5bf71ec" y="193.439676"/>
      </g>
     </g>
     <g id="text_19">
      <!-- 0 -->
      <g style="fill:#262626;" transform="translate(21.792578 207.81327)scale(0.11 -0.11)">
       <use xlink:href="#ArialMT-48"/>
      </g>
     </g>
    </g>
    <g id="xtick_10">
     <g id="line2d_51">
      <path clip-path="url(#pd7e5cf684a)" d="M 83.454054 193.439676 
L 83.454054 109.699352 
" style="fill:none;stroke:#000000;stroke-linecap:round;stroke-opacity:0.25;"/>
     </g>
     <g id="line2d_52">
      <g>
       <use style="fill:#262626;stroke:#262626;stroke-width:0.25;" x="83.454054" xlink:href="#m4fa5bf71ec" y="193.439676"/>
      </g>
     </g>
     <g id="text_20">
      <!-- 50 -->
      <g style="fill:#262626;" transform="translate(77.337023 207.81327)scale(0.11 -0.11)">
       <use xlink:href="#ArialMT-53"/>
       <use x="55.615234" xlink:href="#ArialMT-48"/>
      </g>
     </g>
    </g>
   </g>
   <g id="matplotlib.axis_10">
    <g id="ytick_11">
     <g id="line2d_53">
      <path clip-path="url(#pd7e5cf684a)" d="M 24.851094 181.167387 
L 137.368778 181.167387 
" style="fill:none;stroke:#000000;stroke-linecap:round;stroke-opacity:0.25;"/>
     </g>
     <g id="line2d_54">
      <g>
       <use style="fill:#262626;stroke:#262626;stroke-width:0.25;" x="24.851094" xlink:href="#m6947030e43" y="181.167387"/>
      </g>
     </g>
     <g id="text_21">
      <!-- 50 -->
      <g style="fill:#262626;" transform="translate(6.117031 185.104184)scale(0.11 -0.11)">
       <use xlink:href="#ArialMT-53"/>
       <use x="55.615234" xlink:href="#ArialMT-48"/>
      </g>
     </g>
    </g>
    <g id="ytick_12">
     <g id="line2d_55">
      <path clip-path="url(#pd7e5cf684a)" d="M 24.851094 145.07242 
L 137.368778 145.07242 
" style="fill:none;stroke:#000000;stroke-linecap:round;stroke-opacity:0.25;"/>
     </g>
     <g id="line2d_56">
      <g>
       <use style="fill:#262626;stroke:#262626;stroke-width:0.25;" x="24.851094" xlink:href="#m6947030e43" y="145.07242"/>
      </g>
     </g>
     <g id="text_22">
      <!-- 100 -->
      <g style="fill:#262626;" transform="translate(0 149.009217)scale(0.11 -0.11)">
       <use xlink:href="#ArialMT-49"/>
       <use x="55.615234" xlink:href="#ArialMT-48"/>
       <use x="111.230469" xlink:href="#ArialMT-48"/>
      </g>
     </g>
    </g>
   </g>
   <g id="line2d_57">
    <path clip-path="url(#pd7e5cf684a)" d="M 24.851094 174.670293 
L 27.245087 174.670293 
L 29.63908 174.670293 
L 32.033074 174.670293 
L 34.427067 174.670293 
L 36.82106 174.670293 
L 39.215053 174.670293 
L 41.609047 174.670293 
L 44.00304 173.948394 
L 46.397033 173.226495 
L 48.791027 172.504595 
L 51.18502 171.782696 
L 53.579013 169.616998 
L 55.973006 167.4513 
L 58.367 163.841803 
L 60.760993 162.398004 
L 63.154986 158.788508 
L 65.548979 153.735212 
L 67.942973 153.013313 
L 70.336966 149.403816 
L 72.730959 145.07242 
L 75.124953 142.184823 
L 77.518946 138.575326 
L 79.912939 138.575326 
L 82.306932 137.853427 
L 84.700926 137.131527 
L 87.094919 135.687729 
L 89.488912 132.800131 
L 91.882906 130.634433 
L 94.276899 129.912534 
L 96.670892 127.024937 
L 99.064885 124.137339 
L 101.458879 120.527842 
L 103.852872 117.640245 
L 106.246865 114.752648 
L 108.640858 113.308849 
L 111.034852 112.58695 
L 113.428845 111.143151 
L 115.822838 111.143151 
L 118.216832 112.58695 
L 120.610825 117.640245 
L 123.004818 124.137339 
L 125.398811 129.912534 
L 127.792805 139.297225 
L 130.186798 144.350521 
L 132.580791 147.960018 
L 134.974785 153.735212 
L 137.368778 159.510407 
" style="fill:none;stroke:#4c72b0;stroke-linecap:round;stroke-width:1.5;"/>
   </g>
   <g id="line2d_58">
    <path clip-path="url(#pd7e5cf684a)" d="M 24.851094 173.226495 
L 27.245087 173.226495 
L 29.63908 173.226495 
L 32.033074 173.226495 
L 34.427067 173.226495 
L 36.82106 173.226495 
L 39.215053 173.226495 
L 41.609047 173.226495 
L 44.00304 173.226495 
L 46.397033 172.504595 
L 48.791027 173.226495 
L 51.18502 172.504595 
L 53.579013 170.338897 
L 55.973006 167.4513 
L 58.367 166.7294 
L 60.760993 164.563702 
L 63.154986 164.563702 
L 65.548979 165.285602 
L 67.942973 166.007501 
L 70.336966 166.007501 
L 72.730959 161.676105 
L 75.124953 160.954206 
L 77.518946 160.954206 
L 79.912939 160.954206 
L 82.306932 162.398004 
L 84.700926 161.676105 
L 87.094919 158.788508 
L 89.488912 158.066608 
L 91.882906 158.788508 
L 94.276899 158.788508 
L 96.670892 158.066608 
L 99.064885 158.066608 
L 101.458879 158.066608 
L 103.852872 159.510407 
L 106.246865 160.232306 
L 108.640858 160.954206 
L 111.034852 163.841803 
L 113.428845 165.285602 
L 115.822838 166.007501 
L 118.216832 168.895099 
L 120.610825 168.895099 
L 123.004818 169.616998 
L 125.398811 170.338897 
L 127.792805 173.948394 
L 130.186798 173.948394 
L 132.580791 176.835991 
L 134.974785 179.001689 
L 137.368778 179.001689 
" style="fill:none;stroke:#dd8452;stroke-linecap:round;stroke-width:1.5;"/>
   </g>
   <g id="line2d_59">
    <path clip-path="url(#pd7e5cf684a)" d="M 24.851094 193.439676 
L 27.245087 193.439676 
L 29.63908 193.439676 
L 32.033074 193.439676 
L 34.427067 193.439676 
L 36.82106 193.439676 
L 39.215053 193.439676 
L 41.609047 193.439676 
L 44.00304 192.717777 
L 46.397033 192.717777 
L 48.791027 190.552079 
L 51.18502 189.10828 
L 53.579013 186.220683 
L 55.973006 185.498783 
L 58.367 181.167387 
L 60.760993 175.392193 
L 63.154986 172.504595 
L 65.548979 171.060797 
L 67.942973 170.338897 
L 70.336966 166.7294 
L 72.730959 166.007501 
L 75.124953 166.007501 
L 77.518946 164.563702 
L 79.912939 163.841803 
L 82.306932 163.119904 
L 84.700926 162.398004 
L 87.094919 161.676105 
L 89.488912 159.510407 
L 91.882906 154.457112 
L 94.276899 152.291414 
L 96.670892 148.681917 
L 99.064885 146.516219 
L 101.458879 135.687729 
L 103.852872 132.800131 
L 106.246865 127.746836 
L 108.640858 124.859238 
L 111.034852 120.527842 
L 113.428845 116.918346 
L 115.822838 115.474547 
L 118.216832 111.86505 
L 120.610825 111.143151 
L 123.004818 110.421252 
L 125.398811 109.699352 
L 127.792805 111.86505 
L 130.186798 115.474547 
L 132.580791 116.918346 
L 134.974785 124.859238 
L 137.368778 133.522031 
" style="fill:none;stroke:#55a868;stroke-linecap:round;stroke-width:1.5;"/>
   </g>
   <g id="patch_23">
    <path d="M 24.851094 193.439676 
L 24.851094 109.699352 
" style="fill:none;stroke:#000000;stroke-linecap:square;stroke-linejoin:miter;stroke-width:0.25;"/>
   </g>
   <g id="patch_24">
    <path d="M 137.368778 193.439676 
L 137.368778 109.699352 
" style="fill:none;stroke:#000000;stroke-linecap:square;stroke-linejoin:miter;stroke-width:0.25;"/>
   </g>
   <g id="patch_25">
    <path d="M 24.851094 193.439676 
L 137.368778 193.439676 
" style="fill:none;stroke:#000000;stroke-linecap:square;stroke-linejoin:miter;stroke-width:0.25;"/>
   </g>
   <g id="patch_26">
    <path d="M 24.851094 109.699352 
L 137.368778 109.699352 
" style="fill:none;stroke:#000000;stroke-linecap:square;stroke-linejoin:miter;stroke-width:0.25;"/>
   </g>
  </g>
  <g id="axes_6">
   <g id="patch_27">
    <path d="M 171.100352 193.439676 
L 283.618036 193.439676 
L 283.618036 109.699352 
L 171.100352 109.699352 
z
" style="fill:#ffffff;"/>
   </g>
   <g id="matplotlib.axis_11">
    <g id="xtick_11">
     <g id="line2d_60">
      <path clip-path="url(#pf3376200e1)" d="M 171.100352 193.439676 
L 171.100352 109.699352 
" style="fill:none;stroke:#000000;stroke-linecap:round;stroke-opacity:0.25;"/>
     </g>
     <g id="line2d_61">
      <g>
       <use style="fill:#262626;stroke:#262626;stroke-width:0.25;" x="171.100352" xlink:href="#m4fa5bf71ec" y="193.439676"/>
      </g>
     </g>
     <g id="text_23">
      <!-- 0 -->
      <g style="fill:#262626;" transform="translate(168.041836 207.81327)scale(0.11 -0.11)">
       <use xlink:href="#ArialMT-48"/>
      </g>
     </g>
    </g>
    <g id="xtick_12">
     <g id="line2d_62">
      <path clip-path="url(#pf3376200e1)" d="M 229.703312 193.439676 
L 229.703312 109.699352 
" style="fill:none;stroke:#000000;stroke-linecap:round;stroke-opacity:0.25;"/>
     </g>
     <g id="line2d_63">
      <g>
       <use style="fill:#262626;stroke:#262626;stroke-width:0.25;" x="229.703312" xlink:href="#m4fa5bf71ec" y="193.439676"/>
      </g>
     </g>
     <g id="text_24">
      <!-- 50 -->
      <g style="fill:#262626;" transform="translate(223.586281 207.81327)scale(0.11 -0.11)">
       <use xlink:href="#ArialMT-53"/>
       <use x="55.615234" xlink:href="#ArialMT-48"/>
      </g>
     </g>
    </g>
   </g>
   <g id="matplotlib.axis_12">
    <g id="ytick_13">
     <g id="line2d_64">
      <path clip-path="url(#pf3376200e1)" d="M 171.100352 176.691611 
L 283.618036 176.691611 
" style="fill:none;stroke:#000000;stroke-linecap:round;stroke-opacity:0.25;"/>
     </g>
     <g id="line2d_65">
      <g>
       <use style="fill:#262626;stroke:#262626;stroke-width:0.25;" x="171.100352" xlink:href="#m6947030e43" y="176.691611"/>
      </g>
     </g>
     <g id="text_25">
      <!-- 20 -->
      <g style="fill:#262626;" transform="translate(152.366289 180.628408)scale(0.11 -0.11)">
       <use xlink:href="#ArialMT-50"/>
       <use x="55.615234" xlink:href="#ArialMT-48"/>
      </g>
     </g>
    </g>
    <g id="ytick_14">
     <g id="line2d_66">
      <path clip-path="url(#pf3376200e1)" d="M 171.100352 148.77817 
L 283.618036 148.77817 
" style="fill:none;stroke:#000000;stroke-linecap:round;stroke-opacity:0.25;"/>
     </g>
     <g id="line2d_67">
      <g>
       <use style="fill:#262626;stroke:#262626;stroke-width:0.25;" x="171.100352" xlink:href="#m6947030e43" y="148.77817"/>
      </g>
     </g>
     <g id="text_26">
      <!-- 40 -->
      <g style="fill:#262626;" transform="translate(152.366289 152.714967)scale(0.11 -0.11)">
       <defs>
        <path d="M 32.328125 0 
L 32.328125 17.140625 
L 1.265625 17.140625 
L 1.265625 25.203125 
L 33.9375 71.578125 
L 41.109375 71.578125 
L 41.109375 25.203125 
L 50.78125 25.203125 
L 50.78125 17.140625 
L 41.109375 17.140625 
L 41.109375 0 
z
M 32.328125 25.203125 
L 32.328125 57.46875 
L 9.90625 25.203125 
z
" id="ArialMT-52"/>
       </defs>
       <use xlink:href="#ArialMT-52"/>
       <use x="55.615234" xlink:href="#ArialMT-48"/>
      </g>
     </g>
    </g>
    <g id="ytick_15">
     <g id="line2d_68">
      <path clip-path="url(#pf3376200e1)" d="M 171.100352 120.864729 
L 283.618036 120.864729 
" style="fill:none;stroke:#000000;stroke-linecap:round;stroke-opacity:0.25;"/>
     </g>
     <g id="line2d_69">
      <g>
       <use style="fill:#262626;stroke:#262626;stroke-width:0.25;" x="171.100352" xlink:href="#m6947030e43" y="120.864729"/>
      </g>
     </g>
     <g id="text_27">
      <!-- 60 -->
      <g style="fill:#262626;" transform="translate(152.366289 124.801526)scale(0.11 -0.11)">
       <defs>
        <path d="M 49.75 54.046875 
L 41.015625 53.375 
Q 39.84375 58.546875 37.703125 60.890625 
Q 34.125 64.65625 28.90625 64.65625 
Q 24.703125 64.65625 21.53125 62.3125 
Q 17.390625 59.28125 14.984375 53.46875 
Q 12.59375 47.65625 12.5 36.921875 
Q 15.671875 41.75 20.265625 44.09375 
Q 24.859375 46.4375 29.890625 46.4375 
Q 38.671875 46.4375 44.84375 39.96875 
Q 51.03125 33.5 51.03125 23.25 
Q 51.03125 16.5 48.125 10.71875 
Q 45.21875 4.9375 40.140625 1.859375 
Q 35.0625 -1.21875 28.609375 -1.21875 
Q 17.625 -1.21875 10.6875 6.859375 
Q 3.765625 14.9375 3.765625 33.5 
Q 3.765625 54.25 11.421875 63.671875 
Q 18.109375 71.875 29.4375 71.875 
Q 37.890625 71.875 43.28125 67.140625 
Q 48.6875 62.40625 49.75 54.046875 
z
M 13.875 23.1875 
Q 13.875 18.65625 15.796875 14.5 
Q 17.71875 10.359375 21.1875 8.171875 
Q 24.65625 6 28.46875 6 
Q 34.03125 6 38.03125 10.484375 
Q 42.046875 14.984375 42.046875 22.703125 
Q 42.046875 30.125 38.078125 34.390625 
Q 34.125 38.671875 28.125 38.671875 
Q 22.171875 38.671875 18.015625 34.390625 
Q 13.875 30.125 13.875 23.1875 
z
" id="ArialMT-54"/>
       </defs>
       <use xlink:href="#ArialMT-54"/>
       <use x="55.615234" xlink:href="#ArialMT-48"/>
      </g>
     </g>
    </g>
   </g>
   <g id="line2d_70">
    <path clip-path="url(#pf3376200e1)" d="M 171.100352 193.439676 
L 173.494345 193.439676 
L 175.888338 193.439676 
L 178.282331 193.439676 
L 180.676325 193.439676 
L 183.070318 193.439676 
L 185.464311 193.439676 
L 187.858305 193.439676 
L 190.252298 193.439676 
L 192.646291 193.439676 
L 195.040284 193.439676 
L 197.434278 193.439676 
L 199.828271 193.439676 
L 202.222264 193.439676 
L 204.616257 193.439676 
L 207.010251 193.439676 
L 209.404244 192.044004 
L 211.798237 192.044004 
L 214.192231 190.648332 
L 216.586224 190.648332 
L 218.980217 190.648332 
L 221.37421 185.065644 
L 223.768204 183.669972 
L 226.162197 183.669972 
L 228.55619 183.669972 
L 230.950184 183.669972 
L 233.344177 183.669972 
L 235.73817 183.669972 
L 238.132163 183.669972 
L 240.526157 185.065644 
L 242.92015 185.065644 
L 245.314143 185.065644 
L 247.708136 185.065644 
L 250.10213 185.065644 
L 252.496123 185.065644 
L 254.890116 183.669972 
L 257.28411 183.669972 
L 259.678103 183.669972 
L 262.072096 183.669972 
L 264.466089 183.669972 
L 266.860083 183.669972 
L 269.254076 183.669972 
L 271.648069 185.065644 
L 274.042063 186.461316 
L 276.436056 186.461316 
L 278.830049 186.461316 
L 281.224042 187.856988 
L 283.618036 187.856988 
" style="fill:none;stroke:#4c72b0;stroke-linecap:round;stroke-width:1.5;"/>
   </g>
   <g id="line2d_71">
    <path clip-path="url(#pf3376200e1)" d="M 171.100352 151.569514 
L 173.494345 151.569514 
L 175.888338 151.569514 
L 178.282331 151.569514 
L 180.676325 151.569514 
L 183.070318 151.569514 
L 185.464311 151.569514 
L 187.858305 151.569514 
L 190.252298 151.569514 
L 192.646291 151.569514 
L 195.040284 151.569514 
L 197.434278 148.77817 
L 199.828271 148.77817 
L 202.222264 148.77817 
L 204.616257 145.986826 
L 207.010251 144.591154 
L 209.404244 145.986826 
L 211.798237 145.986826 
L 214.192231 144.591154 
L 216.586224 141.79981 
L 218.980217 140.404138 
L 221.37421 137.612794 
L 223.768204 136.217122 
L 226.162197 134.821449 
L 228.55619 133.425777 
L 230.950184 133.425777 
L 233.344177 133.425777 
L 235.73817 132.030105 
L 238.132163 132.030105 
L 240.526157 129.238761 
L 242.92015 126.447417 
L 245.314143 127.843089 
L 247.708136 127.843089 
L 250.10213 126.447417 
L 252.496123 129.238761 
L 254.890116 129.238761 
L 257.28411 130.634433 
L 259.678103 132.030105 
L 262.072096 133.425777 
L 264.466089 136.217122 
L 266.860083 137.612794 
L 269.254076 137.612794 
L 271.648069 137.612794 
L 274.042063 134.821449 
L 276.436056 134.821449 
L 278.830049 136.217122 
L 281.224042 139.008466 
L 283.618036 140.404138 
" style="fill:none;stroke:#dd8452;stroke-linecap:round;stroke-width:1.5;"/>
   </g>
   <g id="line2d_72">
    <path clip-path="url(#pf3376200e1)" d="M 171.100352 175.295939 
L 173.494345 175.295939 
L 175.888338 175.295939 
L 178.282331 175.295939 
L 180.676325 175.295939 
L 183.070318 175.295939 
L 185.464311 175.295939 
L 187.858305 175.295939 
L 190.252298 175.295939 
L 192.646291 175.295939 
L 195.040284 175.295939 
L 197.434278 175.295939 
L 199.828271 172.504595 
L 202.222264 171.108923 
L 204.616257 166.921907 
L 207.010251 165.526235 
L 209.404244 159.943547 
L 211.798237 159.943547 
L 214.192231 158.547875 
L 216.586224 152.965186 
L 218.980217 152.965186 
L 221.37421 152.965186 
L 223.768204 151.569514 
L 226.162197 151.569514 
L 228.55619 151.569514 
L 230.950184 148.77817 
L 233.344177 148.77817 
L 235.73817 147.382498 
L 238.132163 145.986826 
L 240.526157 143.195482 
L 242.92015 140.404138 
L 245.314143 139.008466 
L 247.708136 137.612794 
L 250.10213 137.612794 
L 252.496123 134.821449 
L 254.890116 130.634433 
L 257.28411 126.447417 
L 259.678103 123.656073 
L 262.072096 123.656073 
L 264.466089 118.073385 
L 266.860083 115.282041 
L 269.254076 113.886368 
L 271.648069 111.095024 
L 274.042063 109.699352 
L 276.436056 109.699352 
L 278.830049 109.699352 
L 281.224042 112.490696 
L 283.618036 112.490696 
" style="fill:none;stroke:#55a868;stroke-linecap:round;stroke-width:1.5;"/>
   </g>
   <g id="patch_28">
    <path d="M 171.100352 193.439676 
L 171.100352 109.699352 
" style="fill:none;stroke:#000000;stroke-linecap:square;stroke-linejoin:miter;stroke-width:0.25;"/>
   </g>
   <g id="patch_29">
    <path d="M 283.618036 193.439676 
L 283.618036 109.699352 
" style="fill:none;stroke:#000000;stroke-linecap:square;stroke-linejoin:miter;stroke-width:0.25;"/>
   </g>
   <g id="patch_30">
    <path d="M 171.100352 193.439676 
L 283.618036 193.439676 
" style="fill:none;stroke:#000000;stroke-linecap:square;stroke-linejoin:miter;stroke-width:0.25;"/>
   </g>
   <g id="patch_31">
    <path d="M 171.100352 109.699352 
L 283.618036 109.699352 
" style="fill:none;stroke:#000000;stroke-linecap:square;stroke-linejoin:miter;stroke-width:0.25;"/>
   </g>
  </g>
  <g id="axes_7">
   <g id="patch_32">
    <path d="M 317.349609 193.439676 
L 429.867293 193.439676 
L 429.867293 109.699352 
L 317.349609 109.699352 
z
" style="fill:#ffffff;"/>
   </g>
   <g id="matplotlib.axis_13">
    <g id="xtick_13">
     <g id="line2d_73">
      <path clip-path="url(#p90cd4beefe)" d="M 317.349609 193.439676 
L 317.349609 109.699352 
" style="fill:none;stroke:#000000;stroke-linecap:round;stroke-opacity:0.25;"/>
     </g>
     <g id="line2d_74">
      <g>
       <use style="fill:#262626;stroke:#262626;stroke-width:0.25;" x="317.349609" xlink:href="#m4fa5bf71ec" y="193.439676"/>
      </g>
     </g>
     <g id="text_28">
      <!-- 0 -->
      <g style="fill:#262626;" transform="translate(314.291094 207.81327)scale(0.11 -0.11)">
       <use xlink:href="#ArialMT-48"/>
      </g>
     </g>
    </g>
    <g id="xtick_14">
     <g id="line2d_75">
      <path clip-path="url(#p90cd4beefe)" d="M 375.95257 193.439676 
L 375.95257 109.699352 
" style="fill:none;stroke:#000000;stroke-linecap:round;stroke-opacity:0.25;"/>
     </g>
     <g id="line2d_76">
      <g>
       <use style="fill:#262626;stroke:#262626;stroke-width:0.25;" x="375.95257" xlink:href="#m4fa5bf71ec" y="193.439676"/>
      </g>
     </g>
     <g id="text_29">
      <!-- 50 -->
      <g style="fill:#262626;" transform="translate(369.835539 207.81327)scale(0.11 -0.11)">
       <use xlink:href="#ArialMT-53"/>
       <use x="55.615234" xlink:href="#ArialMT-48"/>
      </g>
     </g>
    </g>
   </g>
   <g id="matplotlib.axis_14">
    <g id="ytick_16">
     <g id="line2d_77">
      <path clip-path="url(#p90cd4beefe)" d="M 317.349609 181.674507 
L 429.867293 181.674507 
" style="fill:none;stroke:#000000;stroke-linecap:round;stroke-opacity:0.25;"/>
     </g>
     <g id="line2d_78">
      <g>
       <use style="fill:#262626;stroke:#262626;stroke-width:0.25;" x="317.349609" xlink:href="#m6947030e43" y="181.674507"/>
      </g>
     </g>
     <g id="text_30">
      <!-- 50 -->
      <g style="fill:#262626;" transform="translate(298.615547 185.611304)scale(0.11 -0.11)">
       <use xlink:href="#ArialMT-53"/>
       <use x="55.615234" xlink:href="#ArialMT-48"/>
      </g>
     </g>
    </g>
    <g id="ytick_17">
     <g id="line2d_79">
      <path clip-path="url(#p90cd4beefe)" d="M 317.349609 147.071067 
L 429.867293 147.071067 
" style="fill:none;stroke:#000000;stroke-linecap:round;stroke-opacity:0.25;"/>
     </g>
     <g id="line2d_80">
      <g>
       <use style="fill:#262626;stroke:#262626;stroke-width:0.25;" x="317.349609" xlink:href="#m6947030e43" y="147.071067"/>
      </g>
     </g>
     <g id="text_31">
      <!-- 100 -->
      <g style="fill:#262626;" transform="translate(292.498516 151.007864)scale(0.11 -0.11)">
       <use xlink:href="#ArialMT-49"/>
       <use x="55.615234" xlink:href="#ArialMT-48"/>
       <use x="111.230469" xlink:href="#ArialMT-48"/>
      </g>
     </g>
    </g>
    <g id="ytick_18">
     <g id="line2d_81">
      <path clip-path="url(#p90cd4beefe)" d="M 317.349609 112.467627 
L 429.867293 112.467627 
" style="fill:none;stroke:#000000;stroke-linecap:round;stroke-opacity:0.25;"/>
     </g>
     <g id="line2d_82">
      <g>
       <use style="fill:#262626;stroke:#262626;stroke-width:0.25;" x="317.349609" xlink:href="#m6947030e43" y="112.467627"/>
      </g>
     </g>
     <g id="text_32">
      <!-- 150 -->
      <g style="fill:#262626;" transform="translate(292.498516 116.404424)scale(0.11 -0.11)">
       <use xlink:href="#ArialMT-49"/>
       <use x="55.615234" xlink:href="#ArialMT-53"/>
       <use x="111.230469" xlink:href="#ArialMT-48"/>
      </g>
     </g>
    </g>
   </g>
   <g id="line2d_83">
    <path clip-path="url(#p90cd4beefe)" d="M 317.349609 163.680718 
L 319.743603 163.680718 
L 322.137596 163.680718 
L 324.531589 163.680718 
L 326.925582 163.680718 
L 329.319576 164.372787 
L 331.713569 164.372787 
L 334.107562 164.372787 
L 336.501556 164.372787 
L 338.895549 164.372787 
L 341.289542 164.372787 
L 343.683535 164.372787 
L 346.077529 164.372787 
L 348.471522 164.372787 
L 350.865515 164.372787 
L 353.259509 165.064856 
L 355.653502 165.064856 
L 358.047495 164.372787 
L 360.441488 162.988649 
L 362.835482 162.296581 
L 365.229475 162.296581 
L 367.623468 162.296581 
L 370.017461 161.604512 
L 372.411455 161.604512 
L 374.805448 159.528305 
L 377.199441 158.836237 
L 379.593435 159.528305 
L 381.987428 160.220374 
L 384.381421 160.912443 
L 386.775414 160.220374 
L 389.169408 160.912443 
L 391.563401 164.372787 
L 393.957394 164.372787 
L 396.351388 165.064856 
L 398.745381 168.5252 
L 401.139374 170.601406 
L 403.533367 176.830025 
L 405.927361 179.5983 
L 408.321354 181.674507 
L 410.715347 181.674507 
L 413.10934 183.750713 
L 415.503334 184.442782 
L 417.897327 186.518988 
L 420.29132 187.903126 
L 422.685314 189.287263 
L 425.079307 189.287263 
L 427.4733 190.671401 
L 429.867293 193.439676 
" style="fill:none;stroke:#4c72b0;stroke-linecap:round;stroke-width:1.5;"/>
   </g>
   <g id="line2d_84">
    <path clip-path="url(#p90cd4beefe)" d="M 317.349609 141.534517 
L 319.743603 141.534517 
L 322.137596 141.534517 
L 324.531589 141.534517 
L 326.925582 141.534517 
L 329.319576 141.534517 
L 331.713569 141.534517 
L 334.107562 141.534517 
L 336.501556 141.534517 
L 338.895549 141.534517 
L 341.289542 141.534517 
L 343.683535 141.534517 
L 346.077529 140.842448 
L 348.471522 140.150379 
L 350.865515 138.074173 
L 353.259509 133.92176 
L 355.653502 131.845554 
L 358.047495 129.769347 
L 360.441488 128.38521 
L 362.835482 127.693141 
L 365.229475 124.924866 
L 367.623468 123.540728 
L 370.017461 121.464522 
L 372.411455 120.080384 
L 374.805448 118.696247 
L 377.199441 118.004178 
L 379.593435 116.62004 
L 381.987428 118.004178 
L 384.381421 117.312109 
L 386.775414 116.62004 
L 389.169408 115.235903 
L 391.563401 113.851765 
L 393.957394 113.851765 
L 396.351388 113.159696 
L 398.745381 111.775559 
L 401.139374 112.467627 
L 403.533367 109.699352 
L 405.927361 111.08349 
L 408.321354 111.08349 
L 410.715347 111.08349 
L 413.10934 111.08349 
L 415.503334 111.08349 
L 417.897327 111.775559 
L 420.29132 110.391421 
L 422.685314 109.699352 
L 425.079307 110.391421 
L 427.4733 113.159696 
L 429.867293 123.540728 
" style="fill:none;stroke:#dd8452;stroke-linecap:round;stroke-width:1.5;"/>
   </g>
   <g id="line2d_85">
    <path clip-path="url(#p90cd4beefe)" d="M 317.349609 180.290369 
L 319.743603 180.290369 
L 322.137596 180.290369 
L 324.531589 180.290369 
L 326.925582 180.290369 
L 329.319576 180.290369 
L 331.713569 180.290369 
L 334.107562 180.290369 
L 336.501556 180.290369 
L 338.895549 180.290369 
L 341.289542 180.290369 
L 343.683535 180.290369 
L 346.077529 179.5983 
L 348.471522 179.5983 
L 350.865515 179.5983 
L 353.259509 179.5983 
L 355.653502 178.906232 
L 358.047495 178.214163 
L 360.441488 178.214163 
L 362.835482 176.830025 
L 365.229475 174.753819 
L 367.623468 171.293475 
L 370.017461 169.217268 
L 372.411455 168.5252 
L 374.805448 160.912443 
L 377.199441 162.296581 
L 379.593435 162.296581 
L 381.987428 160.220374 
L 384.381421 157.452099 
L 386.775414 155.375893 
L 389.169408 155.375893 
L 391.563401 155.375893 
L 393.957394 153.991755 
L 396.351388 150.531411 
L 398.745381 149.147273 
L 401.139374 149.147273 
L 403.533367 147.071067 
L 405.927361 147.071067 
L 408.321354 146.378998 
L 410.715347 146.378998 
L 413.10934 146.378998 
L 415.503334 146.378998 
L 417.897327 146.378998 
L 420.29132 145.686929 
L 422.685314 146.378998 
L 425.079307 146.378998 
L 427.4733 146.378998 
L 429.867293 153.991755 
" style="fill:none;stroke:#55a868;stroke-linecap:round;stroke-width:1.5;"/>
   </g>
   <g id="patch_33">
    <path d="M 317.349609 193.439676 
L 317.349609 109.699352 
" style="fill:none;stroke:#000000;stroke-linecap:square;stroke-linejoin:miter;stroke-width:0.25;"/>
   </g>
   <g id="patch_34">
    <path d="M 429.867293 193.439676 
L 429.867293 109.699352 
" style="fill:none;stroke:#000000;stroke-linecap:square;stroke-linejoin:miter;stroke-width:0.25;"/>
   </g>
   <g id="patch_35">
    <path d="M 317.349609 193.439676 
L 429.867293 193.439676 
" style="fill:none;stroke:#000000;stroke-linecap:square;stroke-linejoin:miter;stroke-width:0.25;"/>
   </g>
   <g id="patch_36">
    <path d="M 317.349609 109.699352 
L 429.867293 109.699352 
" style="fill:none;stroke:#000000;stroke-linecap:square;stroke-linejoin:miter;stroke-width:0.25;"/>
   </g>
  </g>
  <g id="axes_8">
   <g id="patch_37">
    <path d="M 457.481836 193.439676 
L 569.99952 193.439676 
L 569.99952 109.699352 
L 457.481836 109.699352 
z
" style="fill:#ffffff;"/>
   </g>
   <g id="matplotlib.axis_15">
    <g id="xtick_15">
     <g id="line2d_86">
      <path clip-path="url(#pb2c7e2814b)" d="M 457.481836 193.439676 
L 457.481836 109.699352 
" style="fill:none;stroke:#000000;stroke-linecap:round;stroke-opacity:0.25;"/>
     </g>
     <g id="line2d_87">
      <g>
       <use style="fill:#262626;stroke:#262626;stroke-width:0.25;" x="457.481836" xlink:href="#m4fa5bf71ec" y="193.439676"/>
      </g>
     </g>
     <g id="text_33">
      <!-- 0 -->
      <g style="fill:#262626;" transform="translate(454.42332 207.81327)scale(0.11 -0.11)">
       <use xlink:href="#ArialMT-48"/>
      </g>
     </g>
    </g>
    <g id="xtick_16">
     <g id="line2d_88">
      <path clip-path="url(#pb2c7e2814b)" d="M 516.084796 193.439676 
L 516.084796 109.699352 
" style="fill:none;stroke:#000000;stroke-linecap:round;stroke-opacity:0.25;"/>
     </g>
     <g id="line2d_89">
      <g>
       <use style="fill:#262626;stroke:#262626;stroke-width:0.25;" x="516.084796" xlink:href="#m4fa5bf71ec" y="193.439676"/>
      </g>
     </g>
     <g id="text_34">
      <!-- 50 -->
      <g style="fill:#262626;" transform="translate(509.967765 207.81327)scale(0.11 -0.11)">
       <use xlink:href="#ArialMT-53"/>
       <use x="55.615234" xlink:href="#ArialMT-48"/>
      </g>
     </g>
    </g>
   </g>
   <g id="matplotlib.axis_16">
    <g id="ytick_19">
     <g id="line2d_90">
      <path clip-path="url(#pb2c7e2814b)" d="M 457.481836 193.439676 
L 569.99952 193.439676 
" style="fill:none;stroke:#000000;stroke-linecap:round;stroke-opacity:0.25;"/>
     </g>
     <g id="line2d_91">
      <g>
       <use style="fill:#262626;stroke:#262626;stroke-width:0.25;" x="457.481836" xlink:href="#m6947030e43" y="193.439676"/>
      </g>
     </g>
     <g id="text_35">
      <!-- 0 -->
      <g style="fill:#262626;" transform="translate(444.864805 197.376473)scale(0.11 -0.11)">
       <use xlink:href="#ArialMT-48"/>
      </g>
     </g>
    </g>
    <g id="ytick_20">
     <g id="line2d_92">
      <path clip-path="url(#pb2c7e2814b)" d="M 457.481836 166.426669 
L 569.99952 166.426669 
" style="fill:none;stroke:#000000;stroke-linecap:round;stroke-opacity:0.25;"/>
     </g>
     <g id="line2d_93">
      <g>
       <use style="fill:#262626;stroke:#262626;stroke-width:0.25;" x="457.481836" xlink:href="#m6947030e43" y="166.426669"/>
      </g>
     </g>
     <g id="text_36">
      <!-- 20 -->
      <g style="fill:#262626;" transform="translate(438.747773 170.363465)scale(0.11 -0.11)">
       <use xlink:href="#ArialMT-50"/>
       <use x="55.615234" xlink:href="#ArialMT-48"/>
      </g>
     </g>
    </g>
    <g id="ytick_21">
     <g id="line2d_94">
      <path clip-path="url(#pb2c7e2814b)" d="M 457.481836 139.413661 
L 569.99952 139.413661 
" style="fill:none;stroke:#000000;stroke-linecap:round;stroke-opacity:0.25;"/>
     </g>
     <g id="line2d_95">
      <g>
       <use style="fill:#262626;stroke:#262626;stroke-width:0.25;" x="457.481836" xlink:href="#m6947030e43" y="139.413661"/>
      </g>
     </g>
     <g id="text_37">
      <!-- 40 -->
      <g style="fill:#262626;" transform="translate(438.747773 143.350458)scale(0.11 -0.11)">
       <use xlink:href="#ArialMT-52"/>
       <use x="55.615234" xlink:href="#ArialMT-48"/>
      </g>
     </g>
    </g>
    <g id="ytick_22">
     <g id="line2d_96">
      <path clip-path="url(#pb2c7e2814b)" d="M 457.481836 112.400653 
L 569.99952 112.400653 
" style="fill:none;stroke:#000000;stroke-linecap:round;stroke-opacity:0.25;"/>
     </g>
     <g id="line2d_97">
      <g>
       <use style="fill:#262626;stroke:#262626;stroke-width:0.25;" x="457.481836" xlink:href="#m6947030e43" y="112.400653"/>
      </g>
     </g>
     <g id="text_38">
      <!-- 60 -->
      <g style="fill:#262626;" transform="translate(438.747773 116.33745)scale(0.11 -0.11)">
       <use xlink:href="#ArialMT-54"/>
       <use x="55.615234" xlink:href="#ArialMT-48"/>
      </g>
     </g>
    </g>
   </g>
   <g id="line2d_98">
    <path clip-path="url(#pb2c7e2814b)" d="M 457.481836 182.634473 
L 459.875829 182.634473 
L 462.269822 182.634473 
L 464.663816 182.634473 
L 467.057809 182.634473 
L 469.451802 182.634473 
L 471.845796 182.634473 
L 474.239789 182.634473 
L 476.633782 182.634473 
L 479.027775 182.634473 
L 481.421769 182.634473 
L 483.815762 182.634473 
L 486.209755 182.634473 
L 488.603749 182.634473 
L 490.997742 182.634473 
L 493.391735 182.634473 
L 495.785728 182.634473 
L 498.179722 182.634473 
L 500.573715 183.985124 
L 502.967708 183.985124 
L 505.361701 183.985124 
L 507.755695 183.985124 
L 510.149688 183.985124 
L 512.543681 183.985124 
L 514.937675 183.985124 
L 517.331668 183.985124 
L 519.725661 185.335774 
L 522.119654 185.335774 
L 524.513648 185.335774 
L 526.907641 185.335774 
L 529.301634 186.686424 
L 531.695628 186.686424 
L 534.089621 186.686424 
L 536.483614 186.686424 
L 538.877607 190.738375 
L 541.271601 190.738375 
L 543.665594 190.738375 
L 546.059587 190.738375 
L 548.45358 190.738375 
L 550.847574 190.738375 
L 553.241567 192.089026 
L 555.63556 192.089026 
L 558.029554 193.439676 
L 560.423547 193.439676 
L 562.81754 193.439676 
L 565.211533 193.439676 
L 567.605527 193.439676 
L 569.99952 193.439676 
" style="fill:none;stroke:#4c72b0;stroke-linecap:round;stroke-width:1.5;"/>
   </g>
   <g id="line2d_99">
    <path clip-path="url(#pb2c7e2814b)" d="M 457.481836 146.166913 
L 459.875829 146.166913 
L 462.269822 146.166913 
L 464.663816 146.166913 
L 467.057809 146.166913 
L 469.451802 146.166913 
L 471.845796 146.166913 
L 474.239789 146.166913 
L 476.633782 146.166913 
L 479.027775 146.166913 
L 481.421769 146.166913 
L 483.815762 146.166913 
L 486.209755 147.517563 
L 488.603749 147.517563 
L 490.997742 147.517563 
L 493.391735 148.868213 
L 495.785728 148.868213 
L 498.179722 150.218864 
L 500.573715 150.218864 
L 502.967708 150.218864 
L 505.361701 151.569514 
L 507.755695 151.569514 
L 510.149688 151.569514 
L 512.543681 151.569514 
L 514.937675 151.569514 
L 517.331668 151.569514 
L 519.725661 152.920165 
L 522.119654 155.621465 
L 524.513648 156.972116 
L 526.907641 158.322766 
L 529.301634 161.024067 
L 531.695628 162.374717 
L 534.089621 165.076018 
L 536.483614 165.076018 
L 538.877607 166.426669 
L 541.271601 166.426669 
L 543.665594 167.777319 
L 546.059587 170.47862 
L 548.45358 170.47862 
L 550.847574 171.82927 
L 553.241567 174.530571 
L 555.63556 174.530571 
L 558.029554 174.530571 
L 560.423547 175.881221 
L 562.81754 178.582522 
L 565.211533 178.582522 
L 567.605527 178.582522 
L 569.99952 178.582522 
" style="fill:none;stroke:#dd8452;stroke-linecap:round;stroke-width:1.5;"/>
   </g>
   <g id="line2d_100">
    <path clip-path="url(#pb2c7e2814b)" d="M 457.481836 112.400653 
L 459.875829 112.400653 
L 462.269822 112.400653 
L 464.663816 112.400653 
L 467.057809 112.400653 
L 469.451802 112.400653 
L 471.845796 112.400653 
L 474.239789 112.400653 
L 476.633782 112.400653 
L 479.027775 112.400653 
L 481.421769 112.400653 
L 483.815762 112.400653 
L 486.209755 109.699352 
L 488.603749 109.699352 
L 490.997742 109.699352 
L 493.391735 111.050003 
L 495.785728 112.400653 
L 498.179722 112.400653 
L 500.573715 112.400653 
L 502.967708 113.751303 
L 505.361701 113.751303 
L 507.755695 116.452604 
L 510.149688 120.504555 
L 512.543681 121.855206 
L 514.937675 127.257807 
L 517.331668 128.608458 
L 519.725661 128.608458 
L 522.119654 129.959108 
L 524.513648 128.608458 
L 526.907641 135.36171 
L 529.301634 136.71236 
L 531.695628 139.413661 
L 534.089621 142.114962 
L 536.483614 144.816262 
L 538.877607 147.517563 
L 541.271601 151.569514 
L 543.665594 158.322766 
L 546.059587 159.673417 
L 548.45358 159.673417 
L 550.847574 161.024067 
L 553.241567 161.024067 
L 555.63556 161.024067 
L 558.029554 162.374717 
L 560.423547 162.374717 
L 562.81754 162.374717 
L 565.211533 163.725368 
L 567.605527 163.725368 
L 569.99952 163.725368 
" style="fill:none;stroke:#55a868;stroke-linecap:round;stroke-width:1.5;"/>
   </g>
   <g id="patch_38">
    <path d="M 457.481836 193.439676 
L 457.481836 109.699352 
" style="fill:none;stroke:#000000;stroke-linecap:square;stroke-linejoin:miter;stroke-width:0.25;"/>
   </g>
   <g id="patch_39">
    <path d="M 569.99952 193.439676 
L 569.99952 109.699352 
" style="fill:none;stroke:#000000;stroke-linecap:square;stroke-linejoin:miter;stroke-width:0.25;"/>
   </g>
   <g id="patch_40">
    <path d="M 457.481836 193.439676 
L 569.99952 193.439676 
" style="fill:none;stroke:#000000;stroke-linecap:square;stroke-linejoin:miter;stroke-width:0.25;"/>
   </g>
   <g id="patch_41">
    <path d="M 457.481836 109.699352 
L 569.99952 109.699352 
" style="fill:none;stroke:#000000;stroke-linecap:square;stroke-linejoin:miter;stroke-width:0.25;"/>
   </g>
  </g>
 </g>
 <defs>
  <clipPath id="pa96855ca19">
   <rect height="83.740324" width="112.517684" x="24.851094" y="0"/>
  </clipPath>
  <clipPath id="p785d0ba98a">
   <rect height="83.740324" width="112.517684" x="171.100352" y="0"/>
  </clipPath>
  <clipPath id="p9efbd66076">
   <rect height="83.740324" width="112.517684" x="317.349609" y="0"/>
  </clipPath>
  <clipPath id="p9bc6930cf7">
   <rect height="83.740324" width="112.517684" x="457.481836" y="0"/>
  </clipPath>
  <clipPath id="pd7e5cf684a">
   <rect height="83.740324" width="112.517684" x="24.851094" y="109.699352"/>
  </clipPath>
  <clipPath id="pf3376200e1">
   <rect height="83.740324" width="112.517684" x="171.100352" y="109.699352"/>
  </clipPath>
  <clipPath id="p90cd4beefe">
   <rect height="83.740324" width="112.517684" x="317.349609" y="109.699352"/>
  </clipPath>
  <clipPath id="pb2c7e2814b">
   <rect height="83.740324" width="112.517684" x="457.481836" y="109.699352"/>
  </clipPath>
 </defs>
</svg>
