<?xml version="1.0" encoding="utf-8" standalone="no"?>
<!DOCTYPE svg PUBLIC "-//W3C//DTD SVG 1.1//EN"
  "http://www.w3.org/Graphics/SVG/1.1/DTD/svg11.dtd">
<svg xmlns:xlink="http://www.w3.org/1999/xlink" width="713.99952pt" height="209.99952pt" viewBox="0 0 713.99952 209.99952" xmlns="http://www.w3.org/2000/svg" version="1.1">
 <metadata>
  <rdf:RDF xmlns:dc="http://purl.org/dc/elements/1.1/" xmlns:cc="http://creativecommons.org/ns#" xmlns:rdf="http://www.w3.org/1999/02/22-rdf-syntax-ns#">
   <cc:Work>
    <dc:type rdf:resource="http://purl.org/dc/dcmitype/StillImage"/>
    <dc:date>2023-06-20T11:21:17.200652</dc:date>
    <dc:format>image/svg+xml</dc:format>
    <dc:creator>
     <cc:Agent>
      <dc:title>Matplotlib v3.7.1, https://matplotlib.org/</dc:title>
     </cc:Agent>
    </dc:creator>
   </cc:Work>
  </rdf:RDF>
 </metadata>
 <defs>
  <style type="text/css">*{stroke-linejoin: round; stroke-linecap: butt}</style>
 </defs>
 <g id="figure_1">
  <g id="patch_1">
   <path d="M 0 209.99952 
L 713.99952 209.99952 
L 713.99952 0 
L 0 0 
z
" style="fill: #ffffff"/>
  </g>
  <g id="axes_1">
   <g id="patch_2">
    <path d="M 24.851094 193.439676 
L 173.99952 193.439676 
L 173.99952 0 
L 24.851094 0 
z
" style="fill: #ffffff"/>
   </g>
   <g id="matplotlib.axis_1">
    <g id="xtick_1">
     <g id="line2d_1">
      <path d="M 24.851094 193.439676 
L 24.851094 0 
" clip-path="url(#p1c634fbd04)" style="fill: none; stroke: #000000; stroke-opacity: 0.25; stroke-linecap: round"/>
     </g>
     <g id="line2d_2">
      <defs>
       <path id="me6147a5e58" d="M 0 3 
L 0 -3 
" style="stroke: #262626; stroke-width: 0.25"/>
      </defs>
      <g>
       <use xlink:href="#me6147a5e58" x="24.851094" y="193.439676" style="fill: #262626; stroke: #262626; stroke-width: 0.25"/>
      </g>
     </g>
     <g id="text_1">
      <text style="fill: #262626; font: 11px 'Arial', 'DejaVu Sans', 'Liberation Sans', 'Bitstream Vera Sans', sans-serif; text-anchor: middle" x="24.851094" y="207.81327" transform="rotate(-0 24.851094 207.81327)">0</text>
     </g>
    </g>
    <g id="xtick_2">
     <g id="line2d_3">
      <path d="M 63.895184 193.439676 
L 63.895184 0 
" clip-path="url(#p1c634fbd04)" style="fill: none; stroke: #000000; stroke-opacity: 0.25; stroke-linecap: round"/>
     </g>
     <g id="line2d_4">
      <g>
       <use xlink:href="#me6147a5e58" x="63.895184" y="193.439676" style="fill: #262626; stroke: #262626; stroke-width: 0.25"/>
      </g>
     </g>
     <g id="text_2">
      <text style="fill: #262626; font: 11px 'Arial', 'DejaVu Sans', 'Liberation Sans', 'Bitstream Vera Sans', sans-serif; text-anchor: middle" x="63.895184" y="207.81327" transform="rotate(-0 63.895184 207.81327)">50</text>
     </g>
    </g>
    <g id="xtick_3">
     <g id="line2d_5">
      <path d="M 102.939275 193.439676 
L 102.939275 0 
" clip-path="url(#p1c634fbd04)" style="fill: none; stroke: #000000; stroke-opacity: 0.25; stroke-linecap: round"/>
     </g>
     <g id="line2d_6">
      <g>
       <use xlink:href="#me6147a5e58" x="102.939275" y="193.439676" style="fill: #262626; stroke: #262626; stroke-width: 0.25"/>
      </g>
     </g>
     <g id="text_3">
      <text style="fill: #262626; font: 11px 'Arial', 'DejaVu Sans', 'Liberation Sans', 'Bitstream Vera Sans', sans-serif; text-anchor: middle" x="102.939275" y="207.81327" transform="rotate(-0 102.939275 207.81327)">100</text>
     </g>
    </g>
    <g id="xtick_4">
     <g id="line2d_7">
      <path d="M 141.983366 193.439676 
L 141.983366 0 
" clip-path="url(#p1c634fbd04)" style="fill: none; stroke: #000000; stroke-opacity: 0.25; stroke-linecap: round"/>
     </g>
     <g id="line2d_8">
      <g>
       <use xlink:href="#me6147a5e58" x="141.983366" y="193.439676" style="fill: #262626; stroke: #262626; stroke-width: 0.25"/>
      </g>
     </g>
     <g id="text_4">
      <text style="fill: #262626; font: 11px 'Arial', 'DejaVu Sans', 'Liberation Sans', 'Bitstream Vera Sans', sans-serif; text-anchor: middle" x="141.983366" y="207.81327" transform="rotate(-0 141.983366 207.81327)">150</text>
     </g>
    </g>
   </g>
   <g id="matplotlib.axis_2">
    <g id="ytick_1">
     <g id="line2d_9">
      <path d="M 24.851094 193.439676 
L 173.99952 193.439676 
" clip-path="url(#p1c634fbd04)" style="fill: none; stroke: #000000; stroke-opacity: 0.25; stroke-linecap: round"/>
     </g>
     <g id="line2d_10">
      <defs>
       <path id="me3819b1c9d" d="M 3 0 
L -3 -0 
" style="stroke: #262626; stroke-width: 0.25"/>
      </defs>
      <g>
       <use xlink:href="#me3819b1c9d" x="24.851094" y="193.439676" style="fill: #262626; stroke: #262626; stroke-width: 0.25"/>
      </g>
     </g>
     <g id="text_5">
      <text style="fill: #262626; font: 11px 'Arial', 'DejaVu Sans', 'Liberation Sans', 'Bitstream Vera Sans', sans-serif; text-anchor: end" x="18.351094" y="197.376473" transform="rotate(-0 18.351094 197.376473)">0</text>
     </g>
    </g>
    <g id="ytick_2">
     <g id="line2d_11">
      <path d="M 24.851094 164.481641 
L 173.99952 164.481641 
" clip-path="url(#p1c634fbd04)" style="fill: none; stroke: #000000; stroke-opacity: 0.25; stroke-linecap: round"/>
     </g>
     <g id="line2d_12">
      <g>
       <use xlink:href="#me3819b1c9d" x="24.851094" y="164.481641" style="fill: #262626; stroke: #262626; stroke-width: 0.25"/>
      </g>
     </g>
     <g id="text_6">
      <text style="fill: #262626; font: 11px 'Arial', 'DejaVu Sans', 'Liberation Sans', 'Bitstream Vera Sans', sans-serif; text-anchor: end" x="18.351094" y="168.418438" transform="rotate(-0 18.351094 168.418438)">50</text>
     </g>
    </g>
    <g id="ytick_3">
     <g id="line2d_13">
      <path d="M 24.851094 135.523606 
L 173.99952 135.523606 
" clip-path="url(#p1c634fbd04)" style="fill: none; stroke: #000000; stroke-opacity: 0.25; stroke-linecap: round"/>
     </g>
     <g id="line2d_14">
      <g>
       <use xlink:href="#me3819b1c9d" x="24.851094" y="135.523606" style="fill: #262626; stroke: #262626; stroke-width: 0.25"/>
      </g>
     </g>
     <g id="text_7">
      <text style="fill: #262626; font: 11px 'Arial', 'DejaVu Sans', 'Liberation Sans', 'Bitstream Vera Sans', sans-serif; text-anchor: end" x="18.351094" y="139.460402" transform="rotate(-0 18.351094 139.460402)">100</text>
     </g>
    </g>
    <g id="ytick_4">
     <g id="line2d_15">
      <path d="M 24.851094 106.56557 
L 173.99952 106.56557 
" clip-path="url(#p1c634fbd04)" style="fill: none; stroke: #000000; stroke-opacity: 0.25; stroke-linecap: round"/>
     </g>
     <g id="line2d_16">
      <g>
       <use xlink:href="#me3819b1c9d" x="24.851094" y="106.56557" style="fill: #262626; stroke: #262626; stroke-width: 0.25"/>
      </g>
     </g>
     <g id="text_8">
      <text style="fill: #262626; font: 11px 'Arial', 'DejaVu Sans', 'Liberation Sans', 'Bitstream Vera Sans', sans-serif; text-anchor: end" x="18.351094" y="110.502367" transform="rotate(-0 18.351094 110.502367)">150</text>
     </g>
    </g>
    <g id="ytick_5">
     <g id="line2d_17">
      <path d="M 24.851094 77.607535 
L 173.99952 77.607535 
" clip-path="url(#p1c634fbd04)" style="fill: none; stroke: #000000; stroke-opacity: 0.25; stroke-linecap: round"/>
     </g>
     <g id="line2d_18">
      <g>
       <use xlink:href="#me3819b1c9d" x="24.851094" y="77.607535" style="fill: #262626; stroke: #262626; stroke-width: 0.25"/>
      </g>
     </g>
     <g id="text_9">
      <text style="fill: #262626; font: 11px 'Arial', 'DejaVu Sans', 'Liberation Sans', 'Bitstream Vera Sans', sans-serif; text-anchor: end" x="18.351094" y="81.544332" transform="rotate(-0 18.351094 81.544332)">200</text>
     </g>
    </g>
    <g id="ytick_6">
     <g id="line2d_19">
      <path d="M 24.851094 48.649499 
L 173.99952 48.649499 
" clip-path="url(#p1c634fbd04)" style="fill: none; stroke: #000000; stroke-opacity: 0.25; stroke-linecap: round"/>
     </g>
     <g id="line2d_20">
      <g>
       <use xlink:href="#me3819b1c9d" x="24.851094" y="48.649499" style="fill: #262626; stroke: #262626; stroke-width: 0.25"/>
      </g>
     </g>
     <g id="text_10">
      <text style="fill: #262626; font: 11px 'Arial', 'DejaVu Sans', 'Liberation Sans', 'Bitstream Vera Sans', sans-serif; text-anchor: end" x="18.351094" y="52.586296" transform="rotate(-0 18.351094 52.586296)">250</text>
     </g>
    </g>
    <g id="ytick_7">
     <g id="line2d_21">
      <path d="M 24.851094 19.691464 
L 173.99952 19.691464 
" clip-path="url(#p1c634fbd04)" style="fill: none; stroke: #000000; stroke-opacity: 0.25; stroke-linecap: round"/>
     </g>
     <g id="line2d_22">
      <g>
       <use xlink:href="#me3819b1c9d" x="24.851094" y="19.691464" style="fill: #262626; stroke: #262626; stroke-width: 0.25"/>
      </g>
     </g>
     <g id="text_11">
      <text style="fill: #262626; font: 11px 'Arial', 'DejaVu Sans', 'Liberation Sans', 'Bitstream Vera Sans', sans-serif; text-anchor: end" x="18.351094" y="23.628261" transform="rotate(-0 18.351094 23.628261)">300</text>
     </g>
    </g>
   </g>
   <g id="line2d_23">
    <path d="M 24.851094 193.439676 
L 25.631976 0 
L 26.412857 2.316643 
L 27.974621 9.266571 
L 29.536385 18.533143 
L 30.317266 28.958035 
L 31.098148 30.116357 
L 31.87903 35.907964 
L 32.659912 39.382928 
L 33.440794 44.016214 
L 34.221676 53.282785 
L 35.002557 56.757749 
L 35.783439 59.074392 
L 37.345203 66.024321 
L 38.126085 68.340963 
L 38.906966 71.815928 
L 39.687848 76.449213 
L 41.249612 81.082499 
L 42.030494 81.082499 
L 42.811375 86.874106 
L 43.592257 91.507392 
L 45.934903 101.932284 
L 46.715785 104.248927 
L 47.496666 108.882213 
L 48.277548 114.67382 
L 49.839312 123.940391 
L 51.401075 128.573677 
L 52.181957 132.048641 
L 53.743721 136.681927 
L 54.524603 137.840248 
L 55.305484 137.840248 
L 58.429012 142.473534 
L 59.209894 147.10682 
L 59.990775 152.898427 
L 60.771657 156.373391 
L 62.333421 156.373391 
L 63.895184 158.690034 
L 65.456948 158.690034 
L 66.23783 161.006677 
L 67.018712 162.164998 
L 67.799593 162.164998 
L 68.580475 163.323319 
L 69.361357 163.323319 
L 70.142239 164.481641 
L 73.265766 164.481641 
L 74.046648 165.639962 
L 74.82753 165.639962 
L 75.608412 166.798284 
L 77.170175 166.798284 
L 78.731939 169.114927 
L 80.293702 169.114927 
L 81.855466 171.431569 
L 82.636348 171.431569 
L 83.41723 172.589891 
L 84.978993 172.589891 
L 85.759875 173.748212 
L 88.102521 173.748212 
L 88.883402 176.064855 
L 93.568693 176.064855 
L 94.349575 177.223176 
L 98.253984 177.223176 
L 99.034866 179.539819 
L 99.815748 180.698141 
L 100.59663 180.698141 
L 101.377511 183.014784 
L 116.214266 183.014784 
L 116.995148 184.173105 
L 123.242202 184.173105 
L 124.023084 185.331426 
L 173.99952 185.331426 
L 173.99952 185.331426 
" clip-path="url(#p1c634fbd04)" style="fill: none; stroke: #4c72b0; stroke-width: 1.5; stroke-linecap: round"/>
   </g>
   <g id="line2d_24">
    <path d="M 24.851094 193.439676 
L 173.99952 193.439676 
L 173.99952 193.439676 
" clip-path="url(#p1c634fbd04)" style="fill: none; stroke: #dd8452; stroke-width: 1.5; stroke-linecap: round"/>
   </g>
   <g id="patch_3">
    <path d="M 24.851094 193.439676 
L 24.851094 0 
" style="fill: none; stroke: #000000; stroke-width: 0.25; stroke-linejoin: miter; stroke-linecap: square"/>
   </g>
   <g id="patch_4">
    <path d="M 173.99952 193.439676 
L 173.99952 0 
" style="fill: none; stroke: #000000; stroke-width: 0.25; stroke-linejoin: miter; stroke-linecap: square"/>
   </g>
   <g id="patch_5">
    <path d="M 24.851094 193.439676 
L 173.99952 193.439676 
" style="fill: none; stroke: #000000; stroke-width: 0.25; stroke-linejoin: miter; stroke-linecap: square"/>
   </g>
   <g id="patch_6">
    <path d="M 24.851094 0 
L 173.99952 0 
" style="fill: none; stroke: #000000; stroke-width: 0.25; stroke-linejoin: miter; stroke-linecap: square"/>
   </g>
   <g id="legend_1">
    <g id="patch_7">
     <path d="M 114.990145 36.290625 
L 166.99952 36.290625 
Q 168.99952 36.290625 168.99952 34.290625 
L 168.99952 7 
Q 168.99952 5 166.99952 5 
L 114.990145 5 
Q 112.990145 5 112.990145 7 
L 112.990145 34.290625 
Q 112.990145 36.290625 114.990145 36.290625 
z
" style="fill: #ffffff; opacity: 0.8; stroke: #cccccc; stroke-linejoin: miter"/>
    </g>
    <g id="line2d_25">
     <path d="M 116.990145 12.657813 
L 126.990145 12.657813 
L 136.990145 12.657813 
" style="fill: none; stroke: #4c72b0; stroke-width: 1.5; stroke-linecap: round"/>
    </g>
    <g id="text_12">
     <text style="fill: #262626; font: 10px 'Arial', 'DejaVu Sans', 'Liberation Sans', 'Bitstream Vera Sans', sans-serif; text-anchor: start" x="144.990145" y="16.157813" transform="rotate(-0 144.990145 16.157813)">G1</text>
    </g>
    <g id="line2d_26">
     <path d="M 116.990145 26.803125 
L 126.990145 26.803125 
L 136.990145 26.803125 
" style="fill: none; stroke: #dd8452; stroke-width: 1.5; stroke-linecap: round"/>
    </g>
    <g id="text_13">
     <text style="fill: #262626; font: 10px 'Arial', 'DejaVu Sans', 'Liberation Sans', 'Bitstream Vera Sans', sans-serif; text-anchor: start" x="144.990145" y="30.303125" transform="rotate(-0 144.990145 30.303125)">SG2</text>
    </g>
   </g>
  </g>
  <g id="axes_2">
   <g id="patch_8">
    <path d="M 204.851094 193.439676 
L 353.99952 193.439676 
L 353.99952 0 
L 204.851094 0 
z
" style="fill: #ffffff"/>
   </g>
   <g id="matplotlib.axis_3">
    <g id="xtick_5">
     <g id="line2d_27">
      <path d="M 204.851094 193.439676 
L 204.851094 0 
" clip-path="url(#pa3266c0be6)" style="fill: none; stroke: #000000; stroke-opacity: 0.25; stroke-linecap: round"/>
     </g>
     <g id="line2d_28">
      <g>
       <use xlink:href="#me6147a5e58" x="204.851094" y="193.439676" style="fill: #262626; stroke: #262626; stroke-width: 0.25"/>
      </g>
     </g>
     <g id="text_14">
      <text style="fill: #262626; font: 11px 'Arial', 'DejaVu Sans', 'Liberation Sans', 'Bitstream Vera Sans', sans-serif; text-anchor: middle" x="204.851094" y="207.81327" transform="rotate(-0 204.851094 207.81327)">0</text>
     </g>
    </g>
    <g id="xtick_6">
     <g id="line2d_29">
      <path d="M 243.895184 193.439676 
L 243.895184 0 
" clip-path="url(#pa3266c0be6)" style="fill: none; stroke: #000000; stroke-opacity: 0.25; stroke-linecap: round"/>
     </g>
     <g id="line2d_30">
      <g>
       <use xlink:href="#me6147a5e58" x="243.895184" y="193.439676" style="fill: #262626; stroke: #262626; stroke-width: 0.25"/>
      </g>
     </g>
     <g id="text_15">
      <text style="fill: #262626; font: 11px 'Arial', 'DejaVu Sans', 'Liberation Sans', 'Bitstream Vera Sans', sans-serif; text-anchor: middle" x="243.895184" y="207.81327" transform="rotate(-0 243.895184 207.81327)">50</text>
     </g>
    </g>
    <g id="xtick_7">
     <g id="line2d_31">
      <path d="M 282.939275 193.439676 
L 282.939275 0 
" clip-path="url(#pa3266c0be6)" style="fill: none; stroke: #000000; stroke-opacity: 0.25; stroke-linecap: round"/>
     </g>
     <g id="line2d_32">
      <g>
       <use xlink:href="#me6147a5e58" x="282.939275" y="193.439676" style="fill: #262626; stroke: #262626; stroke-width: 0.25"/>
      </g>
     </g>
     <g id="text_16">
      <text style="fill: #262626; font: 11px 'Arial', 'DejaVu Sans', 'Liberation Sans', 'Bitstream Vera Sans', sans-serif; text-anchor: middle" x="282.939275" y="207.81327" transform="rotate(-0 282.939275 207.81327)">100</text>
     </g>
    </g>
    <g id="xtick_8">
     <g id="line2d_33">
      <path d="M 321.983366 193.439676 
L 321.983366 0 
" clip-path="url(#pa3266c0be6)" style="fill: none; stroke: #000000; stroke-opacity: 0.25; stroke-linecap: round"/>
     </g>
     <g id="line2d_34">
      <g>
       <use xlink:href="#me6147a5e58" x="321.983366" y="193.439676" style="fill: #262626; stroke: #262626; stroke-width: 0.25"/>
      </g>
     </g>
     <g id="text_17">
      <text style="fill: #262626; font: 11px 'Arial', 'DejaVu Sans', 'Liberation Sans', 'Bitstream Vera Sans', sans-serif; text-anchor: middle" x="321.983366" y="207.81327" transform="rotate(-0 321.983366 207.81327)">150</text>
     </g>
    </g>
   </g>
   <g id="matplotlib.axis_4">
    <g id="ytick_8">
     <g id="line2d_35">
      <path d="M 204.851094 193.439676 
L 353.99952 193.439676 
" clip-path="url(#pa3266c0be6)" style="fill: none; stroke: #000000; stroke-opacity: 0.25; stroke-linecap: round"/>
     </g>
     <g id="line2d_36">
      <g>
       <use xlink:href="#me3819b1c9d" x="204.851094" y="193.439676" style="fill: #262626; stroke: #262626; stroke-width: 0.25"/>
      </g>
     </g>
     <g id="text_18">
      <text style="fill: #262626; font: 11px 'Arial', 'DejaVu Sans', 'Liberation Sans', 'Bitstream Vera Sans', sans-serif; text-anchor: end" x="198.351094" y="197.376473" transform="rotate(-0 198.351094 197.376473)">0</text>
     </g>
    </g>
    <g id="ytick_9">
     <g id="line2d_37">
      <path d="M 204.851094 169.015475 
L 353.99952 169.015475 
" clip-path="url(#pa3266c0be6)" style="fill: none; stroke: #000000; stroke-opacity: 0.25; stroke-linecap: round"/>
     </g>
     <g id="line2d_38">
      <g>
       <use xlink:href="#me3819b1c9d" x="204.851094" y="169.015475" style="fill: #262626; stroke: #262626; stroke-width: 0.25"/>
      </g>
     </g>
     <g id="text_19">
      <text style="fill: #262626; font: 11px 'Arial', 'DejaVu Sans', 'Liberation Sans', 'Bitstream Vera Sans', sans-serif; text-anchor: end" x="198.351094" y="172.952272" transform="rotate(-0 198.351094 172.952272)">25</text>
     </g>
    </g>
    <g id="ytick_10">
     <g id="line2d_39">
      <path d="M 204.851094 144.591273 
L 353.99952 144.591273 
" clip-path="url(#pa3266c0be6)" style="fill: none; stroke: #000000; stroke-opacity: 0.25; stroke-linecap: round"/>
     </g>
     <g id="line2d_40">
      <g>
       <use xlink:href="#me3819b1c9d" x="204.851094" y="144.591273" style="fill: #262626; stroke: #262626; stroke-width: 0.25"/>
      </g>
     </g>
     <g id="text_20">
      <text style="fill: #262626; font: 11px 'Arial', 'DejaVu Sans', 'Liberation Sans', 'Bitstream Vera Sans', sans-serif; text-anchor: end" x="198.351094" y="148.52807" transform="rotate(-0 198.351094 148.52807)">50</text>
     </g>
    </g>
    <g id="ytick_11">
     <g id="line2d_41">
      <path d="M 204.851094 120.167072 
L 353.99952 120.167072 
" clip-path="url(#pa3266c0be6)" style="fill: none; stroke: #000000; stroke-opacity: 0.25; stroke-linecap: round"/>
     </g>
     <g id="line2d_42">
      <g>
       <use xlink:href="#me3819b1c9d" x="204.851094" y="120.167072" style="fill: #262626; stroke: #262626; stroke-width: 0.25"/>
      </g>
     </g>
     <g id="text_21">
      <text style="fill: #262626; font: 11px 'Arial', 'DejaVu Sans', 'Liberation Sans', 'Bitstream Vera Sans', sans-serif; text-anchor: end" x="198.351094" y="124.103868" transform="rotate(-0 198.351094 124.103868)">75</text>
     </g>
    </g>
    <g id="ytick_12">
     <g id="line2d_43">
      <path d="M 204.851094 95.74287 
L 353.99952 95.74287 
" clip-path="url(#pa3266c0be6)" style="fill: none; stroke: #000000; stroke-opacity: 0.25; stroke-linecap: round"/>
     </g>
     <g id="line2d_44">
      <g>
       <use xlink:href="#me3819b1c9d" x="204.851094" y="95.74287" style="fill: #262626; stroke: #262626; stroke-width: 0.25"/>
      </g>
     </g>
     <g id="text_22">
      <text style="fill: #262626; font: 11px 'Arial', 'DejaVu Sans', 'Liberation Sans', 'Bitstream Vera Sans', sans-serif; text-anchor: end" x="198.351094" y="99.679667" transform="rotate(-0 198.351094 99.679667)">100</text>
     </g>
    </g>
    <g id="ytick_13">
     <g id="line2d_45">
      <path d="M 204.851094 71.318669 
L 353.99952 71.318669 
" clip-path="url(#pa3266c0be6)" style="fill: none; stroke: #000000; stroke-opacity: 0.25; stroke-linecap: round"/>
     </g>
     <g id="line2d_46">
      <g>
       <use xlink:href="#me3819b1c9d" x="204.851094" y="71.318669" style="fill: #262626; stroke: #262626; stroke-width: 0.25"/>
      </g>
     </g>
     <g id="text_23">
      <text style="fill: #262626; font: 11px 'Arial', 'DejaVu Sans', 'Liberation Sans', 'Bitstream Vera Sans', sans-serif; text-anchor: end" x="198.351094" y="75.255465" transform="rotate(-0 198.351094 75.255465)">125</text>
     </g>
    </g>
    <g id="ytick_14">
     <g id="line2d_47">
      <path d="M 204.851094 46.894467 
L 353.99952 46.894467 
" clip-path="url(#pa3266c0be6)" style="fill: none; stroke: #000000; stroke-opacity: 0.25; stroke-linecap: round"/>
     </g>
     <g id="line2d_48">
      <g>
       <use xlink:href="#me3819b1c9d" x="204.851094" y="46.894467" style="fill: #262626; stroke: #262626; stroke-width: 0.25"/>
      </g>
     </g>
     <g id="text_24">
      <text style="fill: #262626; font: 11px 'Arial', 'DejaVu Sans', 'Liberation Sans', 'Bitstream Vera Sans', sans-serif; text-anchor: end" x="198.351094" y="50.831264" transform="rotate(-0 198.351094 50.831264)">150</text>
     </g>
    </g>
    <g id="ytick_15">
     <g id="line2d_49">
      <path d="M 204.851094 22.470265 
L 353.99952 22.470265 
" clip-path="url(#pa3266c0be6)" style="fill: none; stroke: #000000; stroke-opacity: 0.25; stroke-linecap: round"/>
     </g>
     <g id="line2d_50">
      <g>
       <use xlink:href="#me3819b1c9d" x="204.851094" y="22.470265" style="fill: #262626; stroke: #262626; stroke-width: 0.25"/>
      </g>
     </g>
     <g id="text_25">
      <text style="fill: #262626; font: 11px 'Arial', 'DejaVu Sans', 'Liberation Sans', 'Bitstream Vera Sans', sans-serif; text-anchor: end" x="198.351094" y="26.407062" transform="rotate(-0 198.351094 26.407062)">175</text>
     </g>
    </g>
   </g>
   <g id="line2d_51">
    <path d="M 204.851094 193.439676 
L 205.631976 0 
L 206.412857 0 
L 207.193739 9.769681 
L 208.755503 17.585425 
L 209.536385 19.539361 
L 211.098148 39.078722 
L 211.87903 39.078722 
L 212.659912 46.894467 
L 213.440794 52.756275 
L 214.221676 60.57202 
L 215.002557 64.479892 
L 215.783439 66.433828 
L 216.564321 70.3417 
L 217.345203 70.3417 
L 218.126085 72.295637 
L 218.906966 76.203509 
L 219.687848 76.203509 
L 221.249612 87.927126 
L 222.030494 91.834998 
L 223.592257 95.74287 
L 224.373139 99.650742 
L 226.715785 99.650742 
L 227.496666 101.604678 
L 228.277548 107.466487 
L 229.05843 115.282231 
L 229.839312 117.236167 
L 230.620194 121.14404 
L 231.401075 123.097976 
L 232.181957 123.097976 
L 236.867248 134.821593 
L 237.64813 138.729465 
L 240.771657 138.729465 
L 241.552539 140.683401 
L 242.333421 144.591273 
L 243.114303 144.591273 
L 243.895184 146.545209 
L 245.456948 146.545209 
L 249.361357 156.31489 
L 253.265766 156.31489 
L 254.046648 158.268826 
L 255.608412 158.268826 
L 256.389293 160.222762 
L 259.512821 160.222762 
L 261.074584 164.130634 
L 261.855466 164.130634 
L 263.41723 168.038507 
L 265.759875 168.038507 
L 266.540757 169.992443 
L 272.787811 169.992443 
L 274.349575 173.900315 
L 275.911339 173.900315 
L 276.692221 175.854251 
L 277.473102 175.854251 
L 279.034866 179.762123 
L 279.815748 179.762123 
L 280.59663 181.71606 
L 304.023084 181.71606 
L 304.803966 183.669996 
L 319.64072 183.669996 
L 320.421602 187.577868 
L 353.99952 187.577868 
L 353.99952 187.577868 
" clip-path="url(#pa3266c0be6)" style="fill: none; stroke: #4c72b0; stroke-width: 1.5; stroke-linecap: round"/>
   </g>
   <g id="line2d_52">
    <path d="M 204.851094 193.439676 
L 353.99952 193.439676 
L 353.99952 193.439676 
" clip-path="url(#pa3266c0be6)" style="fill: none; stroke: #dd8452; stroke-width: 1.5; stroke-linecap: round"/>
   </g>
   <g id="patch_9">
    <path d="M 204.851094 193.439676 
L 204.851094 0 
" style="fill: none; stroke: #000000; stroke-width: 0.25; stroke-linejoin: miter; stroke-linecap: square"/>
   </g>
   <g id="patch_10">
    <path d="M 353.99952 193.439676 
L 353.99952 0 
" style="fill: none; stroke: #000000; stroke-width: 0.25; stroke-linejoin: miter; stroke-linecap: square"/>
   </g>
   <g id="patch_11">
    <path d="M 204.851094 193.439676 
L 353.99952 193.439676 
" style="fill: none; stroke: #000000; stroke-width: 0.25; stroke-linejoin: miter; stroke-linecap: square"/>
   </g>
   <g id="patch_12">
    <path d="M 204.851094 0 
L 353.99952 0 
" style="fill: none; stroke: #000000; stroke-width: 0.25; stroke-linejoin: miter; stroke-linecap: square"/>
   </g>
  </g>
  <g id="axes_3">
   <g id="patch_13">
    <path d="M 384.851094 193.439676 
L 533.99952 193.439676 
L 533.99952 0 
L 384.851094 0 
z
" style="fill: #ffffff"/>
   </g>
   <g id="matplotlib.axis_5">
    <g id="xtick_9">
     <g id="line2d_53">
      <path d="M 384.851094 193.439676 
L 384.851094 0 
" clip-path="url(#p4a40c6b452)" style="fill: none; stroke: #000000; stroke-opacity: 0.25; stroke-linecap: round"/>
     </g>
     <g id="line2d_54">
      <g>
       <use xlink:href="#me6147a5e58" x="384.851094" y="193.439676" style="fill: #262626; stroke: #262626; stroke-width: 0.25"/>
      </g>
     </g>
     <g id="text_26">
      <text style="fill: #262626; font: 11px 'Arial', 'DejaVu Sans', 'Liberation Sans', 'Bitstream Vera Sans', sans-serif; text-anchor: middle" x="384.851094" y="207.81327" transform="rotate(-0 384.851094 207.81327)">0</text>
     </g>
    </g>
    <g id="xtick_10">
     <g id="line2d_55">
      <path d="M 423.895184 193.439676 
L 423.895184 0 
" clip-path="url(#p4a40c6b452)" style="fill: none; stroke: #000000; stroke-opacity: 0.25; stroke-linecap: round"/>
     </g>
     <g id="line2d_56">
      <g>
       <use xlink:href="#me6147a5e58" x="423.895184" y="193.439676" style="fill: #262626; stroke: #262626; stroke-width: 0.25"/>
      </g>
     </g>
     <g id="text_27">
      <text style="fill: #262626; font: 11px 'Arial', 'DejaVu Sans', 'Liberation Sans', 'Bitstream Vera Sans', sans-serif; text-anchor: middle" x="423.895184" y="207.81327" transform="rotate(-0 423.895184 207.81327)">50</text>
     </g>
    </g>
    <g id="xtick_11">
     <g id="line2d_57">
      <path d="M 462.939275 193.439676 
L 462.939275 0 
" clip-path="url(#p4a40c6b452)" style="fill: none; stroke: #000000; stroke-opacity: 0.25; stroke-linecap: round"/>
     </g>
     <g id="line2d_58">
      <g>
       <use xlink:href="#me6147a5e58" x="462.939275" y="193.439676" style="fill: #262626; stroke: #262626; stroke-width: 0.25"/>
      </g>
     </g>
     <g id="text_28">
      <text style="fill: #262626; font: 11px 'Arial', 'DejaVu Sans', 'Liberation Sans', 'Bitstream Vera Sans', sans-serif; text-anchor: middle" x="462.939275" y="207.81327" transform="rotate(-0 462.939275 207.81327)">100</text>
     </g>
    </g>
    <g id="xtick_12">
     <g id="line2d_59">
      <path d="M 501.983366 193.439676 
L 501.983366 0 
" clip-path="url(#p4a40c6b452)" style="fill: none; stroke: #000000; stroke-opacity: 0.25; stroke-linecap: round"/>
     </g>
     <g id="line2d_60">
      <g>
       <use xlink:href="#me6147a5e58" x="501.983366" y="193.439676" style="fill: #262626; stroke: #262626; stroke-width: 0.25"/>
      </g>
     </g>
     <g id="text_29">
      <text style="fill: #262626; font: 11px 'Arial', 'DejaVu Sans', 'Liberation Sans', 'Bitstream Vera Sans', sans-serif; text-anchor: middle" x="501.983366" y="207.81327" transform="rotate(-0 501.983366 207.81327)">150</text>
     </g>
    </g>
   </g>
   <g id="matplotlib.axis_6">
    <g id="ytick_16">
     <g id="line2d_61">
      <path d="M 384.851094 193.439676 
L 533.99952 193.439676 
" clip-path="url(#p4a40c6b452)" style="fill: none; stroke: #000000; stroke-opacity: 0.25; stroke-linecap: round"/>
     </g>
     <g id="line2d_62">
      <g>
       <use xlink:href="#me3819b1c9d" x="384.851094" y="193.439676" style="fill: #262626; stroke: #262626; stroke-width: 0.25"/>
      </g>
     </g>
     <g id="text_30">
      <text style="fill: #262626; font: 11px 'Arial', 'DejaVu Sans', 'Liberation Sans', 'Bitstream Vera Sans', sans-serif; text-anchor: end" x="378.351094" y="197.376473" transform="rotate(-0 378.351094 197.376473)">0</text>
     </g>
    </g>
    <g id="ytick_17">
     <g id="line2d_63">
      <path d="M 384.851094 170.300959 
L 533.99952 170.300959 
" clip-path="url(#p4a40c6b452)" style="fill: none; stroke: #000000; stroke-opacity: 0.25; stroke-linecap: round"/>
     </g>
     <g id="line2d_64">
      <g>
       <use xlink:href="#me3819b1c9d" x="384.851094" y="170.300959" style="fill: #262626; stroke: #262626; stroke-width: 0.25"/>
      </g>
     </g>
     <g id="text_31">
      <text style="fill: #262626; font: 11px 'Arial', 'DejaVu Sans', 'Liberation Sans', 'Bitstream Vera Sans', sans-serif; text-anchor: end" x="378.351094" y="174.237756" transform="rotate(-0 378.351094 174.237756)">50</text>
     </g>
    </g>
    <g id="ytick_18">
     <g id="line2d_65">
      <path d="M 384.851094 147.162242 
L 533.99952 147.162242 
" clip-path="url(#p4a40c6b452)" style="fill: none; stroke: #000000; stroke-opacity: 0.25; stroke-linecap: round"/>
     </g>
     <g id="line2d_66">
      <g>
       <use xlink:href="#me3819b1c9d" x="384.851094" y="147.162242" style="fill: #262626; stroke: #262626; stroke-width: 0.25"/>
      </g>
     </g>
     <g id="text_32">
      <text style="fill: #262626; font: 11px 'Arial', 'DejaVu Sans', 'Liberation Sans', 'Bitstream Vera Sans', sans-serif; text-anchor: end" x="378.351094" y="151.099039" transform="rotate(-0 378.351094 151.099039)">100</text>
     </g>
    </g>
    <g id="ytick_19">
     <g id="line2d_67">
      <path d="M 384.851094 124.023524 
L 533.99952 124.023524 
" clip-path="url(#p4a40c6b452)" style="fill: none; stroke: #000000; stroke-opacity: 0.25; stroke-linecap: round"/>
     </g>
     <g id="line2d_68">
      <g>
       <use xlink:href="#me3819b1c9d" x="384.851094" y="124.023524" style="fill: #262626; stroke: #262626; stroke-width: 0.25"/>
      </g>
     </g>
     <g id="text_33">
      <text style="fill: #262626; font: 11px 'Arial', 'DejaVu Sans', 'Liberation Sans', 'Bitstream Vera Sans', sans-serif; text-anchor: end" x="378.351094" y="127.960321" transform="rotate(-0 378.351094 127.960321)">150</text>
     </g>
    </g>
    <g id="ytick_20">
     <g id="line2d_69">
      <path d="M 384.851094 100.884807 
L 533.99952 100.884807 
" clip-path="url(#p4a40c6b452)" style="fill: none; stroke: #000000; stroke-opacity: 0.25; stroke-linecap: round"/>
     </g>
     <g id="line2d_70">
      <g>
       <use xlink:href="#me3819b1c9d" x="384.851094" y="100.884807" style="fill: #262626; stroke: #262626; stroke-width: 0.25"/>
      </g>
     </g>
     <g id="text_34">
      <text style="fill: #262626; font: 11px 'Arial', 'DejaVu Sans', 'Liberation Sans', 'Bitstream Vera Sans', sans-serif; text-anchor: end" x="378.351094" y="104.821604" transform="rotate(-0 378.351094 104.821604)">200</text>
     </g>
    </g>
    <g id="ytick_21">
     <g id="line2d_71">
      <path d="M 384.851094 77.74609 
L 533.99952 77.74609 
" clip-path="url(#p4a40c6b452)" style="fill: none; stroke: #000000; stroke-opacity: 0.25; stroke-linecap: round"/>
     </g>
     <g id="line2d_72">
      <g>
       <use xlink:href="#me3819b1c9d" x="384.851094" y="77.74609" style="fill: #262626; stroke: #262626; stroke-width: 0.25"/>
      </g>
     </g>
     <g id="text_35">
      <text style="fill: #262626; font: 11px 'Arial', 'DejaVu Sans', 'Liberation Sans', 'Bitstream Vera Sans', sans-serif; text-anchor: end" x="378.351094" y="81.682887" transform="rotate(-0 378.351094 81.682887)">250</text>
     </g>
    </g>
    <g id="ytick_22">
     <g id="line2d_73">
      <path d="M 384.851094 54.607373 
L 533.99952 54.607373 
" clip-path="url(#p4a40c6b452)" style="fill: none; stroke: #000000; stroke-opacity: 0.25; stroke-linecap: round"/>
     </g>
     <g id="line2d_74">
      <g>
       <use xlink:href="#me3819b1c9d" x="384.851094" y="54.607373" style="fill: #262626; stroke: #262626; stroke-width: 0.25"/>
      </g>
     </g>
     <g id="text_36">
      <text style="fill: #262626; font: 11px 'Arial', 'DejaVu Sans', 'Liberation Sans', 'Bitstream Vera Sans', sans-serif; text-anchor: end" x="378.351094" y="58.54417" transform="rotate(-0 378.351094 58.54417)">300</text>
     </g>
    </g>
    <g id="ytick_23">
     <g id="line2d_75">
      <path d="M 384.851094 31.468655 
L 533.99952 31.468655 
" clip-path="url(#p4a40c6b452)" style="fill: none; stroke: #000000; stroke-opacity: 0.25; stroke-linecap: round"/>
     </g>
     <g id="line2d_76">
      <g>
       <use xlink:href="#me3819b1c9d" x="384.851094" y="31.468655" style="fill: #262626; stroke: #262626; stroke-width: 0.25"/>
      </g>
     </g>
     <g id="text_37">
      <text style="fill: #262626; font: 11px 'Arial', 'DejaVu Sans', 'Liberation Sans', 'Bitstream Vera Sans', sans-serif; text-anchor: end" x="378.351094" y="35.405452" transform="rotate(-0 378.351094 35.405452)">350</text>
     </g>
    </g>
    <g id="ytick_24">
     <g id="line2d_77">
      <path d="M 384.851094 8.329938 
L 533.99952 8.329938 
" clip-path="url(#p4a40c6b452)" style="fill: none; stroke: #000000; stroke-opacity: 0.25; stroke-linecap: round"/>
     </g>
     <g id="line2d_78">
      <g>
       <use xlink:href="#me3819b1c9d" x="384.851094" y="8.329938" style="fill: #262626; stroke: #262626; stroke-width: 0.25"/>
      </g>
     </g>
     <g id="text_38">
      <text style="fill: #262626; font: 11px 'Arial', 'DejaVu Sans', 'Liberation Sans', 'Bitstream Vera Sans', sans-serif; text-anchor: end" x="378.351094" y="12.266735" transform="rotate(-0 378.351094 12.266735)">400</text>
     </g>
    </g>
   </g>
   <g id="line2d_79">
    <path d="M 384.851094 193.439676 
L 385.631976 0 
L 386.412857 5.553292 
L 387.193739 6.478841 
L 387.974621 13.88323 
L 388.755503 15.734328 
L 389.536385 18.510974 
L 390.317266 23.138717 
L 391.098148 28.692009 
L 392.659912 37.947496 
L 393.440794 41.649691 
L 395.002557 47.202983 
L 395.783439 48.128532 
L 396.564321 50.905178 
L 397.345203 52.756275 
L 398.126085 52.756275 
L 398.906966 53.681824 
L 402.030494 61.086214 
L 403.592257 62.937311 
L 405.154021 62.937311 
L 405.934903 64.788408 
L 407.496666 66.639506 
L 408.277548 68.490603 
L 409.05843 69.416152 
L 409.839312 73.118347 
L 411.401075 73.118347 
L 412.181957 74.043895 
L 413.743721 74.043895 
L 415.305484 75.894993 
L 416.086366 78.671639 
L 416.867248 79.597187 
L 417.64813 81.448285 
L 419.209894 81.448285 
L 419.990775 84.224931 
L 420.771657 86.076028 
L 421.552539 87.001577 
L 423.114303 87.001577 
L 424.676066 88.852674 
L 425.456948 90.703772 
L 426.23783 91.62932 
L 427.018712 93.480418 
L 429.361357 96.257064 
L 430.923121 99.959259 
L 431.704003 100.884807 
L 432.484884 100.884807 
L 433.265766 102.735905 
L 434.046648 107.363648 
L 434.82753 108.289197 
L 435.608412 111.065843 
L 437.170175 111.065843 
L 437.951057 111.991392 
L 438.731939 111.991392 
L 439.512821 112.91694 
L 440.293702 112.91694 
L 441.074584 114.768038 
L 441.855466 115.693586 
L 443.41723 119.395781 
L 446.540757 123.097976 
L 447.321639 125.874622 
L 448.102521 127.725719 
L 448.883402 128.651268 
L 451.226048 128.651268 
L 452.00693 131.427914 
L 453.568693 133.279011 
L 454.349575 135.130109 
L 458.253984 135.130109 
L 459.034866 136.055657 
L 459.815748 136.055657 
L 462.158393 138.832304 
L 462.939275 138.832304 
L 463.720157 139.757852 
L 464.501039 142.534498 
L 465.28192 142.534498 
L 466.062802 143.460047 
L 466.843684 145.311144 
L 467.624566 146.236693 
L 469.18633 146.236693 
L 469.967211 148.08779 
L 471.528975 148.08779 
L 472.309857 150.864437 
L 473.090739 152.715534 
L 473.87162 153.641083 
L 476.214266 153.641083 
L 478.556911 156.417729 
L 480.899557 156.417729 
L 482.46132 158.268826 
L 485.584848 158.268826 
L 486.365729 160.119923 
L 487.146611 161.045472 
L 488.708375 161.045472 
L 491.05102 163.822118 
L 492.612784 163.822118 
L 494.955429 166.598764 
L 495.736311 166.598764 
L 496.517193 167.524313 
L 497.298075 170.300959 
L 504.326011 170.300959 
L 505.106893 171.226508 
L 506.668657 171.226508 
L 507.449538 173.077605 
L 508.23042 174.003154 
L 509.011302 174.003154 
L 509.792184 174.928702 
L 518.381884 174.928702 
L 519.162766 175.854251 
L 520.724529 175.854251 
L 521.505411 176.7798 
L 526.971584 176.7798 
L 527.752465 177.705349 
L 533.218638 177.705349 
L 533.99952 178.630897 
L 533.99952 178.630897 
" clip-path="url(#p4a40c6b452)" style="fill: none; stroke: #4c72b0; stroke-width: 1.5; stroke-linecap: round"/>
   </g>
   <g id="line2d_80">
    <path d="M 384.851094 193.439676 
L 533.99952 193.439676 
L 533.99952 193.439676 
" clip-path="url(#p4a40c6b452)" style="fill: none; stroke: #dd8452; stroke-width: 1.5; stroke-linecap: round"/>
   </g>
   <g id="patch_14">
    <path d="M 384.851094 193.439676 
L 384.851094 0 
" style="fill: none; stroke: #000000; stroke-width: 0.25; stroke-linejoin: miter; stroke-linecap: square"/>
   </g>
   <g id="patch_15">
    <path d="M 533.99952 193.439676 
L 533.99952 0 
" style="fill: none; stroke: #000000; stroke-width: 0.25; stroke-linejoin: miter; stroke-linecap: square"/>
   </g>
   <g id="patch_16">
    <path d="M 384.851094 193.439676 
L 533.99952 193.439676 
" style="fill: none; stroke: #000000; stroke-width: 0.25; stroke-linejoin: miter; stroke-linecap: square"/>
   </g>
   <g id="patch_17">
    <path d="M 384.851094 0 
L 533.99952 0 
" style="fill: none; stroke: #000000; stroke-width: 0.25; stroke-linejoin: miter; stroke-linecap: square"/>
   </g>
  </g>
  <g id="axes_4">
   <g id="patch_18">
    <path d="M 564.851094 193.439676 
L 713.99952 193.439676 
L 713.99952 0 
L 564.851094 0 
z
" style="fill: #ffffff"/>
   </g>
   <g id="matplotlib.axis_7">
    <g id="xtick_13">
     <g id="line2d_81">
      <path d="M 564.851094 193.439676 
L 564.851094 0 
" clip-path="url(#pc05bfdee29)" style="fill: none; stroke: #000000; stroke-opacity: 0.25; stroke-linecap: round"/>
     </g>
     <g id="line2d_82">
      <g>
       <use xlink:href="#me6147a5e58" x="564.851094" y="193.439676" style="fill: #262626; stroke: #262626; stroke-width: 0.25"/>
      </g>
     </g>
     <g id="text_39">
      <text style="fill: #262626; font: 11px 'Arial', 'DejaVu Sans', 'Liberation Sans', 'Bitstream Vera Sans', sans-serif; text-anchor: middle" x="564.851094" y="207.81327" transform="rotate(-0 564.851094 207.81327)">0</text>
     </g>
    </g>
    <g id="xtick_14">
     <g id="line2d_83">
      <path d="M 603.895184 193.439676 
L 603.895184 0 
" clip-path="url(#pc05bfdee29)" style="fill: none; stroke: #000000; stroke-opacity: 0.25; stroke-linecap: round"/>
     </g>
     <g id="line2d_84">
      <g>
       <use xlink:href="#me6147a5e58" x="603.895184" y="193.439676" style="fill: #262626; stroke: #262626; stroke-width: 0.25"/>
      </g>
     </g>
     <g id="text_40">
      <text style="fill: #262626; font: 11px 'Arial', 'DejaVu Sans', 'Liberation Sans', 'Bitstream Vera Sans', sans-serif; text-anchor: middle" x="603.895184" y="207.81327" transform="rotate(-0 603.895184 207.81327)">50</text>
     </g>
    </g>
    <g id="xtick_15">
     <g id="line2d_85">
      <path d="M 642.939275 193.439676 
L 642.939275 0 
" clip-path="url(#pc05bfdee29)" style="fill: none; stroke: #000000; stroke-opacity: 0.25; stroke-linecap: round"/>
     </g>
     <g id="line2d_86">
      <g>
       <use xlink:href="#me6147a5e58" x="642.939275" y="193.439676" style="fill: #262626; stroke: #262626; stroke-width: 0.25"/>
      </g>
     </g>
     <g id="text_41">
      <text style="fill: #262626; font: 11px 'Arial', 'DejaVu Sans', 'Liberation Sans', 'Bitstream Vera Sans', sans-serif; text-anchor: middle" x="642.939275" y="207.81327" transform="rotate(-0 642.939275 207.81327)">100</text>
     </g>
    </g>
    <g id="xtick_16">
     <g id="line2d_87">
      <path d="M 681.983366 193.439676 
L 681.983366 0 
" clip-path="url(#pc05bfdee29)" style="fill: none; stroke: #000000; stroke-opacity: 0.25; stroke-linecap: round"/>
     </g>
     <g id="line2d_88">
      <g>
       <use xlink:href="#me6147a5e58" x="681.983366" y="193.439676" style="fill: #262626; stroke: #262626; stroke-width: 0.25"/>
      </g>
     </g>
     <g id="text_42">
      <text style="fill: #262626; font: 11px 'Arial', 'DejaVu Sans', 'Liberation Sans', 'Bitstream Vera Sans', sans-serif; text-anchor: middle" x="681.983366" y="207.81327" transform="rotate(-0 681.983366 207.81327)">150</text>
     </g>
    </g>
   </g>
   <g id="matplotlib.axis_8">
    <g id="ytick_25">
     <g id="line2d_89">
      <path d="M 564.851094 193.439676 
L 713.99952 193.439676 
" clip-path="url(#pc05bfdee29)" style="fill: none; stroke: #000000; stroke-opacity: 0.25; stroke-linecap: round"/>
     </g>
     <g id="line2d_90">
      <g>
       <use xlink:href="#me3819b1c9d" x="564.851094" y="193.439676" style="fill: #262626; stroke: #262626; stroke-width: 0.25"/>
      </g>
     </g>
     <g id="text_43">
      <text style="fill: #262626; font: 11px 'Arial', 'DejaVu Sans', 'Liberation Sans', 'Bitstream Vera Sans', sans-serif; text-anchor: end" x="558.351094" y="197.376473" transform="rotate(-0 558.351094 197.376473)">0</text>
     </g>
    </g>
    <g id="ytick_26">
     <g id="line2d_91">
      <path d="M 564.851094 168.511883 
L 713.99952 168.511883 
" clip-path="url(#pc05bfdee29)" style="fill: none; stroke: #000000; stroke-opacity: 0.25; stroke-linecap: round"/>
     </g>
     <g id="line2d_92">
      <g>
       <use xlink:href="#me3819b1c9d" x="564.851094" y="168.511883" style="fill: #262626; stroke: #262626; stroke-width: 0.25"/>
      </g>
     </g>
     <g id="text_44">
      <text style="fill: #262626; font: 11px 'Arial', 'DejaVu Sans', 'Liberation Sans', 'Bitstream Vera Sans', sans-serif; text-anchor: end" x="558.351094" y="172.44868" transform="rotate(-0 558.351094 172.44868)">25</text>
     </g>
    </g>
    <g id="ytick_27">
     <g id="line2d_93">
      <path d="M 564.851094 143.58409 
L 713.99952 143.58409 
" clip-path="url(#pc05bfdee29)" style="fill: none; stroke: #000000; stroke-opacity: 0.25; stroke-linecap: round"/>
     </g>
     <g id="line2d_94">
      <g>
       <use xlink:href="#me3819b1c9d" x="564.851094" y="143.58409" style="fill: #262626; stroke: #262626; stroke-width: 0.25"/>
      </g>
     </g>
     <g id="text_45">
      <text style="fill: #262626; font: 11px 'Arial', 'DejaVu Sans', 'Liberation Sans', 'Bitstream Vera Sans', sans-serif; text-anchor: end" x="558.351094" y="147.520886" transform="rotate(-0 558.351094 147.520886)">50</text>
     </g>
    </g>
    <g id="ytick_28">
     <g id="line2d_95">
      <path d="M 564.851094 118.656296 
L 713.99952 118.656296 
" clip-path="url(#pc05bfdee29)" style="fill: none; stroke: #000000; stroke-opacity: 0.25; stroke-linecap: round"/>
     </g>
     <g id="line2d_96">
      <g>
       <use xlink:href="#me3819b1c9d" x="564.851094" y="118.656296" style="fill: #262626; stroke: #262626; stroke-width: 0.25"/>
      </g>
     </g>
     <g id="text_46">
      <text style="fill: #262626; font: 11px 'Arial', 'DejaVu Sans', 'Liberation Sans', 'Bitstream Vera Sans', sans-serif; text-anchor: end" x="558.351094" y="122.593093" transform="rotate(-0 558.351094 122.593093)">75</text>
     </g>
    </g>
    <g id="ytick_29">
     <g id="line2d_97">
      <path d="M 564.851094 93.728503 
L 713.99952 93.728503 
" clip-path="url(#pc05bfdee29)" style="fill: none; stroke: #000000; stroke-opacity: 0.25; stroke-linecap: round"/>
     </g>
     <g id="line2d_98">
      <g>
       <use xlink:href="#me3819b1c9d" x="564.851094" y="93.728503" style="fill: #262626; stroke: #262626; stroke-width: 0.25"/>
      </g>
     </g>
     <g id="text_47">
      <text style="fill: #262626; font: 11px 'Arial', 'DejaVu Sans', 'Liberation Sans', 'Bitstream Vera Sans', sans-serif; text-anchor: end" x="558.351094" y="97.6653" transform="rotate(-0 558.351094 97.6653)">100</text>
     </g>
    </g>
    <g id="ytick_30">
     <g id="line2d_99">
      <path d="M 564.851094 68.80071 
L 713.99952 68.80071 
" clip-path="url(#pc05bfdee29)" style="fill: none; stroke: #000000; stroke-opacity: 0.25; stroke-linecap: round"/>
     </g>
     <g id="line2d_100">
      <g>
       <use xlink:href="#me3819b1c9d" x="564.851094" y="68.80071" style="fill: #262626; stroke: #262626; stroke-width: 0.25"/>
      </g>
     </g>
     <g id="text_48">
      <text style="fill: #262626; font: 11px 'Arial', 'DejaVu Sans', 'Liberation Sans', 'Bitstream Vera Sans', sans-serif; text-anchor: end" x="558.351094" y="72.737506" transform="rotate(-0 558.351094 72.737506)">125</text>
     </g>
    </g>
    <g id="ytick_31">
     <g id="line2d_101">
      <path d="M 564.851094 43.872916 
L 713.99952 43.872916 
" clip-path="url(#pc05bfdee29)" style="fill: none; stroke: #000000; stroke-opacity: 0.25; stroke-linecap: round"/>
     </g>
     <g id="line2d_102">
      <g>
       <use xlink:href="#me3819b1c9d" x="564.851094" y="43.872916" style="fill: #262626; stroke: #262626; stroke-width: 0.25"/>
      </g>
     </g>
     <g id="text_49">
      <text style="fill: #262626; font: 11px 'Arial', 'DejaVu Sans', 'Liberation Sans', 'Bitstream Vera Sans', sans-serif; text-anchor: end" x="558.351094" y="47.809713" transform="rotate(-0 558.351094 47.809713)">150</text>
     </g>
    </g>
    <g id="ytick_32">
     <g id="line2d_103">
      <path d="M 564.851094 18.945123 
L 713.99952 18.945123 
" clip-path="url(#pc05bfdee29)" style="fill: none; stroke: #000000; stroke-opacity: 0.25; stroke-linecap: round"/>
     </g>
     <g id="line2d_104">
      <g>
       <use xlink:href="#me3819b1c9d" x="564.851094" y="18.945123" style="fill: #262626; stroke: #262626; stroke-width: 0.25"/>
      </g>
     </g>
     <g id="text_50">
      <text style="fill: #262626; font: 11px 'Arial', 'DejaVu Sans', 'Liberation Sans', 'Bitstream Vera Sans', sans-serif; text-anchor: end" x="558.351094" y="22.88192" transform="rotate(-0 558.351094 22.88192)">175</text>
     </g>
    </g>
   </g>
   <g id="line2d_105">
    <path d="M 564.851094 193.439676 
L 565.631976 0 
L 566.412857 3.988447 
L 567.193739 9.971117 
L 567.974621 9.971117 
L 571.098148 17.948011 
L 573.440794 29.913352 
L 574.221676 31.907575 
L 575.002557 31.907575 
L 575.783439 37.890246 
L 576.564321 39.884469 
L 577.345203 43.872916 
L 578.126085 51.84981 
L 579.687848 51.84981 
L 580.46873 53.844034 
L 585.934903 53.844034 
L 586.715785 55.838257 
L 588.277548 55.838257 
L 591.401075 63.815151 
L 595.305484 63.815151 
L 596.086366 67.803598 
L 596.867248 69.797821 
L 597.64813 69.797821 
L 598.429012 71.792045 
L 601.552539 71.792045 
L 602.333421 73.786268 
L 603.114303 73.786268 
L 603.895184 75.780492 
L 604.676066 75.780492 
L 605.456948 77.774715 
L 607.018712 77.774715 
L 607.799593 79.768939 
L 608.580475 79.768939 
L 609.361357 81.763162 
L 611.704003 81.763162 
L 612.484884 83.757386 
L 613.265766 83.757386 
L 614.046648 85.751609 
L 622.636348 85.751609 
L 623.41723 87.745833 
L 625.759875 87.745833 
L 626.540757 89.740056 
L 627.321639 89.740056 
L 628.102521 91.734279 
L 628.883402 91.734279 
L 629.664284 95.722726 
L 632.787811 95.722726 
L 633.568693 97.71695 
L 636.692221 97.71695 
L 637.473102 99.711173 
L 638.253984 99.711173 
L 639.815748 103.69962 
L 644.501039 103.69962 
L 645.28192 105.693844 
L 649.18633 105.693844 
L 649.967211 109.682291 
L 650.748093 111.676514 
L 651.528975 111.676514 
L 652.309857 115.664961 
L 656.214266 115.664961 
L 656.995148 121.647631 
L 664.803966 121.647631 
L 666.365729 125.636078 
L 676.517193 125.636078 
L 677.298075 127.630302 
L 679.64072 127.630302 
L 680.421602 129.624525 
L 685.106893 129.624525 
L 685.887775 133.612972 
L 691.353947 133.612972 
L 692.134829 135.607196 
L 694.477475 135.607196 
L 695.258356 137.601419 
L 704.628938 137.601419 
L 705.40982 139.595643 
L 708.533347 139.595643 
L 709.314229 141.589866 
L 713.99952 141.589866 
L 713.99952 141.589866 
" clip-path="url(#pc05bfdee29)" style="fill: none; stroke: #4c72b0; stroke-width: 1.5; stroke-linecap: round"/>
   </g>
   <g id="line2d_106">
    <path d="M 564.851094 193.439676 
L 713.99952 193.439676 
L 713.99952 193.439676 
" clip-path="url(#pc05bfdee29)" style="fill: none; stroke: #dd8452; stroke-width: 1.5; stroke-linecap: round"/>
   </g>
   <g id="patch_19">
    <path d="M 564.851094 193.439676 
L 564.851094 0 
" style="fill: none; stroke: #000000; stroke-width: 0.25; stroke-linejoin: miter; stroke-linecap: square"/>
   </g>
   <g id="patch_20">
    <path d="M 713.99952 193.439676 
L 713.99952 0 
" style="fill: none; stroke: #000000; stroke-width: 0.25; stroke-linejoin: miter; stroke-linecap: square"/>
   </g>
   <g id="patch_21">
    <path d="M 564.851094 193.439676 
L 713.99952 193.439676 
" style="fill: none; stroke: #000000; stroke-width: 0.25; stroke-linejoin: miter; stroke-linecap: square"/>
   </g>
   <g id="patch_22">
    <path d="M 564.851094 0 
L 713.99952 0 
" style="fill: none; stroke: #000000; stroke-width: 0.25; stroke-linejoin: miter; stroke-linecap: square"/>
   </g>
  </g>
 </g>
 <defs>
  <clipPath id="p1c634fbd04">
   <rect x="24.851094" y="0" width="149.148426" height="193.439676"/>
  </clipPath>
  <clipPath id="pa3266c0be6">
   <rect x="204.851094" y="0" width="149.148426" height="193.439676"/>
  </clipPath>
  <clipPath id="p4a40c6b452">
   <rect x="384.851094" y="0" width="149.148426" height="193.439676"/>
  </clipPath>
  <clipPath id="pc05bfdee29">
   <rect x="564.851094" y="0" width="149.148426" height="193.439676"/>
  </clipPath>
 </defs>
</svg>
