<?xml version="1.0" encoding="utf-8" standalone="no"?>
<!DOCTYPE svg PUBLIC "-//W3C//DTD SVG 1.1//EN"
  "http://www.w3.org/Graphics/SVG/1.1/DTD/svg11.dtd">
<!-- Created with matplotlib (https://matplotlib.org/) -->
<svg height="235.758995pt" version="1.1" viewBox="0 0 713.98508 235.758995" width="713.98508pt" xmlns="http://www.w3.org/2000/svg" xmlns:xlink="http://www.w3.org/1999/xlink">
 <defs>
  <style type="text/css">
*{stroke-linecap:butt;stroke-linejoin:round;}
  </style>
 </defs>
 <g id="figure_1">
  <g id="patch_1">
   <path d="M -0 235.758995 
L 713.98508 235.758995 
L 713.98508 0 
L -0 0 
z
" style="fill:#ffffff;"/>
  </g>
  <g id="axes_1">
   <g id="patch_2">
    <path d="M 40.112344 204.224776 
L 227.001817 204.224776 
L 227.001817 40.844955 
L 40.112344 40.844955 
z
" style="fill:#ffffff;"/>
   </g>
   <g id="matplotlib.axis_1">
    <g id="xtick_1">
     <g id="line2d_1">
      <path clip-path="url(#pc4734d2d01)" d="M 69.524025 204.224776 
L 69.524025 40.844955 
" style="fill:none;stroke:#000000;stroke-linecap:round;stroke-opacity:0.25;"/>
     </g>
     <g id="line2d_2">
      <defs>
       <path d="M 0 3 
L 0 -3 
" id="mb57a9dedde" style="stroke:#262626;stroke-width:0.25;"/>
      </defs>
      <g>
       <use style="fill:#262626;stroke:#262626;stroke-width:0.25;" x="69.524025" xlink:href="#mb57a9dedde" y="204.224776"/>
      </g>
     </g>
     <g id="text_1">
      <!-- 250 -->
      <defs>
       <path d="M 50.34375 8.453125 
L 50.34375 0 
L 3.03125 0 
Q 2.9375 3.171875 4.046875 6.109375 
Q 5.859375 10.9375 9.828125 15.625 
Q 13.8125 20.3125 21.34375 26.46875 
Q 33.015625 36.03125 37.109375 41.625 
Q 41.21875 47.21875 41.21875 52.203125 
Q 41.21875 57.421875 37.46875 61 
Q 33.734375 64.59375 27.734375 64.59375 
Q 21.390625 64.59375 17.578125 60.78125 
Q 13.765625 56.984375 13.71875 50.25 
L 4.6875 51.171875 
Q 5.609375 61.28125 11.65625 66.578125 
Q 17.71875 71.875 27.9375 71.875 
Q 38.234375 71.875 44.234375 66.15625 
Q 50.25 60.453125 50.25 52 
Q 50.25 47.703125 48.484375 43.546875 
Q 46.734375 39.40625 42.65625 34.8125 
Q 38.578125 30.21875 29.109375 22.21875 
Q 21.1875 15.578125 18.9375 13.203125 
Q 16.703125 10.84375 15.234375 8.453125 
z
" id="ArialMT-50"/>
       <path d="M 4.15625 18.75 
L 13.375 19.53125 
Q 14.40625 12.796875 18.140625 9.390625 
Q 21.875 6 27.15625 6 
Q 33.5 6 37.890625 10.78125 
Q 42.28125 15.578125 42.28125 23.484375 
Q 42.28125 31 38.0625 35.34375 
Q 33.84375 39.703125 27 39.703125 
Q 22.75 39.703125 19.328125 37.765625 
Q 15.921875 35.84375 13.96875 32.765625 
L 5.71875 33.84375 
L 12.640625 70.609375 
L 48.25 70.609375 
L 48.25 62.203125 
L 19.671875 62.203125 
L 15.828125 42.96875 
Q 22.265625 47.46875 29.34375 47.46875 
Q 38.71875 47.46875 45.15625 40.96875 
Q 51.609375 34.46875 51.609375 24.265625 
Q 51.609375 14.546875 45.953125 7.46875 
Q 39.0625 -1.21875 27.15625 -1.21875 
Q 17.390625 -1.21875 11.203125 4.25 
Q 5.03125 9.71875 4.15625 18.75 
z
" id="ArialMT-53"/>
       <path d="M 4.15625 35.296875 
Q 4.15625 48 6.765625 55.734375 
Q 9.375 63.484375 14.515625 67.671875 
Q 19.671875 71.875 27.484375 71.875 
Q 33.25 71.875 37.59375 69.546875 
Q 41.9375 67.234375 44.765625 62.859375 
Q 47.609375 58.5 49.21875 52.21875 
Q 50.828125 45.953125 50.828125 35.296875 
Q 50.828125 22.703125 48.234375 14.96875 
Q 45.65625 7.234375 40.5 3 
Q 35.359375 -1.21875 27.484375 -1.21875 
Q 17.140625 -1.21875 11.234375 6.203125 
Q 4.15625 15.140625 4.15625 35.296875 
z
M 13.1875 35.296875 
Q 13.1875 17.671875 17.3125 11.828125 
Q 21.4375 6 27.484375 6 
Q 33.546875 6 37.671875 11.859375 
Q 41.796875 17.71875 41.796875 35.296875 
Q 41.796875 52.984375 37.671875 58.78125 
Q 33.546875 64.59375 27.390625 64.59375 
Q 21.34375 64.59375 17.71875 59.46875 
Q 13.1875 52.9375 13.1875 35.296875 
z
" id="ArialMT-48"/>
      </defs>
      <g style="fill:#262626;" transform="translate(60.348478 218.59837)scale(0.11 -0.11)">
       <use xlink:href="#ArialMT-50"/>
       <use x="55.615234" xlink:href="#ArialMT-53"/>
       <use x="111.230469" xlink:href="#ArialMT-48"/>
      </g>
     </g>
    </g>
    <g id="xtick_2">
     <g id="line2d_3">
      <path clip-path="url(#pc4734d2d01)" d="M 102.496762 204.224776 
L 102.496762 40.844955 
" style="fill:none;stroke:#000000;stroke-linecap:round;stroke-opacity:0.25;"/>
     </g>
     <g id="line2d_4">
      <g>
       <use style="fill:#262626;stroke:#262626;stroke-width:0.25;" x="102.496762" xlink:href="#mb57a9dedde" y="204.224776"/>
      </g>
     </g>
     <g id="text_2">
      <!-- 500 -->
      <g style="fill:#262626;" transform="translate(93.321215 218.59837)scale(0.11 -0.11)">
       <use xlink:href="#ArialMT-53"/>
       <use x="55.615234" xlink:href="#ArialMT-48"/>
       <use x="111.230469" xlink:href="#ArialMT-48"/>
      </g>
     </g>
    </g>
    <g id="xtick_3">
     <g id="line2d_5">
      <path clip-path="url(#pc4734d2d01)" d="M 135.469499 204.224776 
L 135.469499 40.844955 
" style="fill:none;stroke:#000000;stroke-linecap:round;stroke-opacity:0.25;"/>
     </g>
     <g id="line2d_6">
      <g>
       <use style="fill:#262626;stroke:#262626;stroke-width:0.25;" x="135.469499" xlink:href="#mb57a9dedde" y="204.224776"/>
      </g>
     </g>
     <g id="text_3">
      <!-- 750 -->
      <defs>
       <path d="M 4.734375 62.203125 
L 4.734375 70.65625 
L 51.078125 70.65625 
L 51.078125 63.8125 
Q 44.234375 56.546875 37.515625 44.484375 
Q 30.8125 32.421875 27.15625 19.671875 
Q 24.515625 10.6875 23.78125 0 
L 14.75 0 
Q 14.890625 8.453125 18.0625 20.40625 
Q 21.234375 32.375 27.171875 43.484375 
Q 33.109375 54.59375 39.796875 62.203125 
z
" id="ArialMT-55"/>
      </defs>
      <g style="fill:#262626;" transform="translate(126.293952 218.59837)scale(0.11 -0.11)">
       <use xlink:href="#ArialMT-55"/>
       <use x="55.615234" xlink:href="#ArialMT-53"/>
       <use x="111.230469" xlink:href="#ArialMT-48"/>
      </g>
     </g>
    </g>
    <g id="xtick_4">
     <g id="line2d_7">
      <path clip-path="url(#pc4734d2d01)" d="M 168.442236 204.224776 
L 168.442236 40.844955 
" style="fill:none;stroke:#000000;stroke-linecap:round;stroke-opacity:0.25;"/>
     </g>
     <g id="line2d_8">
      <g>
       <use style="fill:#262626;stroke:#262626;stroke-width:0.25;" x="168.442236" xlink:href="#mb57a9dedde" y="204.224776"/>
      </g>
     </g>
     <g id="text_4">
      <!-- 1000 -->
      <defs>
       <path d="M 37.25 0 
L 28.46875 0 
L 28.46875 56 
Q 25.296875 52.984375 20.140625 49.953125 
Q 14.984375 46.921875 10.890625 45.40625 
L 10.890625 53.90625 
Q 18.265625 57.375 23.78125 62.296875 
Q 29.296875 67.234375 31.59375 71.875 
L 37.25 71.875 
z
" id="ArialMT-49"/>
      </defs>
      <g style="fill:#262626;" transform="translate(156.208174 218.59837)scale(0.11 -0.11)">
       <use xlink:href="#ArialMT-49"/>
       <use x="55.615234" xlink:href="#ArialMT-48"/>
       <use x="111.230469" xlink:href="#ArialMT-48"/>
       <use x="166.845703" xlink:href="#ArialMT-48"/>
      </g>
     </g>
    </g>
    <g id="xtick_5">
     <g id="line2d_9">
      <path clip-path="url(#pc4734d2d01)" d="M 201.414973 204.224776 
L 201.414973 40.844955 
" style="fill:none;stroke:#000000;stroke-linecap:round;stroke-opacity:0.25;"/>
     </g>
     <g id="line2d_10">
      <g>
       <use style="fill:#262626;stroke:#262626;stroke-width:0.25;" x="201.414973" xlink:href="#mb57a9dedde" y="204.224776"/>
      </g>
     </g>
     <g id="text_5">
      <!-- 1250 -->
      <g style="fill:#262626;" transform="translate(189.18091 218.59837)scale(0.11 -0.11)">
       <use xlink:href="#ArialMT-49"/>
       <use x="55.615234" xlink:href="#ArialMT-50"/>
       <use x="111.230469" xlink:href="#ArialMT-53"/>
       <use x="166.845703" xlink:href="#ArialMT-48"/>
      </g>
     </g>
    </g>
    <g id="text_6">
     <!-- Number of Cells -->
     <defs>
      <path d="M 7.625 0 
L 7.625 71.578125 
L 17.328125 71.578125 
L 54.9375 15.375 
L 54.9375 71.578125 
L 64.015625 71.578125 
L 64.015625 0 
L 54.296875 0 
L 16.703125 56.25 
L 16.703125 0 
z
" id="ArialMT-78"/>
      <path d="M 40.578125 0 
L 40.578125 7.625 
Q 34.515625 -1.171875 24.125 -1.171875 
Q 19.53125 -1.171875 15.546875 0.578125 
Q 11.578125 2.34375 9.640625 5 
Q 7.71875 7.671875 6.9375 11.53125 
Q 6.390625 14.109375 6.390625 19.734375 
L 6.390625 51.859375 
L 15.1875 51.859375 
L 15.1875 23.09375 
Q 15.1875 16.21875 15.71875 13.8125 
Q 16.546875 10.359375 19.234375 8.375 
Q 21.921875 6.390625 25.875 6.390625 
Q 29.828125 6.390625 33.296875 8.421875 
Q 36.765625 10.453125 38.203125 13.9375 
Q 39.65625 17.4375 39.65625 24.078125 
L 39.65625 51.859375 
L 48.4375 51.859375 
L 48.4375 0 
z
" id="ArialMT-117"/>
      <path d="M 6.59375 0 
L 6.59375 51.859375 
L 14.453125 51.859375 
L 14.453125 44.578125 
Q 16.890625 48.390625 20.9375 50.703125 
Q 25 53.03125 30.171875 53.03125 
Q 35.9375 53.03125 39.625 50.640625 
Q 43.3125 48.25 44.828125 43.953125 
Q 50.984375 53.03125 60.84375 53.03125 
Q 68.5625 53.03125 72.703125 48.75 
Q 76.859375 44.484375 76.859375 35.59375 
L 76.859375 0 
L 68.109375 0 
L 68.109375 32.671875 
Q 68.109375 37.9375 67.25 40.25 
Q 66.40625 42.578125 64.15625 43.984375 
Q 61.921875 45.40625 58.890625 45.40625 
Q 53.421875 45.40625 49.796875 41.765625 
Q 46.1875 38.140625 46.1875 30.125 
L 46.1875 0 
L 37.40625 0 
L 37.40625 33.6875 
Q 37.40625 39.546875 35.25 42.46875 
Q 33.109375 45.40625 28.21875 45.40625 
Q 24.515625 45.40625 21.359375 43.453125 
Q 18.21875 41.5 16.796875 37.734375 
Q 15.375 33.984375 15.375 26.90625 
L 15.375 0 
z
" id="ArialMT-109"/>
      <path d="M 14.703125 0 
L 6.546875 0 
L 6.546875 71.578125 
L 15.328125 71.578125 
L 15.328125 46.046875 
Q 20.90625 53.03125 29.546875 53.03125 
Q 34.328125 53.03125 38.59375 51.09375 
Q 42.875 49.171875 45.625 45.671875 
Q 48.390625 42.1875 49.953125 37.25 
Q 51.515625 32.328125 51.515625 26.703125 
Q 51.515625 13.375 44.921875 6.09375 
Q 38.328125 -1.171875 29.109375 -1.171875 
Q 19.921875 -1.171875 14.703125 6.5 
z
M 14.59375 26.3125 
Q 14.59375 17 17.140625 12.84375 
Q 21.296875 6.0625 28.375 6.0625 
Q 34.125 6.0625 38.328125 11.0625 
Q 42.53125 16.0625 42.53125 25.984375 
Q 42.53125 36.140625 38.5 40.96875 
Q 34.46875 45.796875 28.765625 45.796875 
Q 23 45.796875 18.796875 40.796875 
Q 14.59375 35.796875 14.59375 26.3125 
z
" id="ArialMT-98"/>
      <path d="M 42.09375 16.703125 
L 51.171875 15.578125 
Q 49.03125 7.625 43.21875 3.21875 
Q 37.40625 -1.171875 28.375 -1.171875 
Q 17 -1.171875 10.328125 5.828125 
Q 3.65625 12.84375 3.65625 25.484375 
Q 3.65625 38.578125 10.390625 45.796875 
Q 17.140625 53.03125 27.875 53.03125 
Q 38.28125 53.03125 44.875 45.953125 
Q 51.46875 38.875 51.46875 26.03125 
Q 51.46875 25.25 51.421875 23.6875 
L 12.75 23.6875 
Q 13.234375 15.140625 17.578125 10.59375 
Q 21.921875 6.0625 28.421875 6.0625 
Q 33.25 6.0625 36.671875 8.59375 
Q 40.09375 11.140625 42.09375 16.703125 
z
M 13.234375 30.90625 
L 42.1875 30.90625 
Q 41.609375 37.453125 38.875 40.71875 
Q 34.671875 45.796875 27.984375 45.796875 
Q 21.921875 45.796875 17.796875 41.75 
Q 13.671875 37.703125 13.234375 30.90625 
z
" id="ArialMT-101"/>
      <path d="M 6.5 0 
L 6.5 51.859375 
L 14.40625 51.859375 
L 14.40625 44 
Q 17.4375 49.515625 20 51.265625 
Q 22.5625 53.03125 25.640625 53.03125 
Q 30.078125 53.03125 34.671875 50.203125 
L 31.640625 42.046875 
Q 28.421875 43.953125 25.203125 43.953125 
Q 22.3125 43.953125 20.015625 42.21875 
Q 17.71875 40.484375 16.75 37.40625 
Q 15.28125 32.71875 15.28125 27.15625 
L 15.28125 0 
z
" id="ArialMT-114"/>
      <path id="ArialMT-32"/>
      <path d="M 3.328125 25.921875 
Q 3.328125 40.328125 11.328125 47.265625 
Q 18.015625 53.03125 27.640625 53.03125 
Q 38.328125 53.03125 45.109375 46.015625 
Q 51.90625 39.015625 51.90625 26.65625 
Q 51.90625 16.65625 48.90625 10.90625 
Q 45.90625 5.171875 40.15625 2 
Q 34.421875 -1.171875 27.640625 -1.171875 
Q 16.75 -1.171875 10.03125 5.8125 
Q 3.328125 12.796875 3.328125 25.921875 
z
M 12.359375 25.921875 
Q 12.359375 15.96875 16.703125 11.015625 
Q 21.046875 6.0625 27.640625 6.0625 
Q 34.1875 6.0625 38.53125 11.03125 
Q 42.875 16.015625 42.875 26.21875 
Q 42.875 35.84375 38.5 40.796875 
Q 34.125 45.75 27.640625 45.75 
Q 21.046875 45.75 16.703125 40.8125 
Q 12.359375 35.890625 12.359375 25.921875 
z
" id="ArialMT-111"/>
      <path d="M 8.6875 0 
L 8.6875 45.015625 
L 0.921875 45.015625 
L 0.921875 51.859375 
L 8.6875 51.859375 
L 8.6875 57.375 
Q 8.6875 62.59375 9.625 65.140625 
Q 10.890625 68.5625 14.078125 70.671875 
Q 17.28125 72.796875 23.046875 72.796875 
Q 26.765625 72.796875 31.25 71.921875 
L 29.9375 64.265625 
Q 27.203125 64.75 24.75 64.75 
Q 20.75 64.75 19.09375 63.03125 
Q 17.4375 61.328125 17.4375 56.640625 
L 17.4375 51.859375 
L 27.546875 51.859375 
L 27.546875 45.015625 
L 17.4375 45.015625 
L 17.4375 0 
z
" id="ArialMT-102"/>
      <path d="M 58.796875 25.09375 
L 68.265625 22.703125 
Q 65.28125 11.03125 57.546875 4.90625 
Q 49.8125 -1.21875 38.625 -1.21875 
Q 27.046875 -1.21875 19.796875 3.484375 
Q 12.546875 8.203125 8.765625 17.140625 
Q 4.984375 26.078125 4.984375 36.328125 
Q 4.984375 47.515625 9.25 55.828125 
Q 13.53125 64.15625 21.40625 68.46875 
Q 29.296875 72.796875 38.765625 72.796875 
Q 49.515625 72.796875 56.828125 67.328125 
Q 64.15625 61.859375 67.046875 51.953125 
L 57.71875 49.75 
Q 55.21875 57.5625 50.484375 61.125 
Q 45.75 64.703125 38.578125 64.703125 
Q 30.328125 64.703125 24.78125 60.734375 
Q 19.234375 56.78125 16.984375 50.109375 
Q 14.75 43.453125 14.75 36.375 
Q 14.75 27.25 17.40625 20.4375 
Q 20.0625 13.625 25.671875 10.25 
Q 31.296875 6.890625 37.84375 6.890625 
Q 45.796875 6.890625 51.3125 11.46875 
Q 56.84375 16.0625 58.796875 25.09375 
z
" id="ArialMT-67"/>
      <path d="M 6.390625 0 
L 6.390625 71.578125 
L 15.1875 71.578125 
L 15.1875 0 
z
" id="ArialMT-108"/>
      <path d="M 3.078125 15.484375 
L 11.765625 16.84375 
Q 12.5 11.625 15.84375 8.84375 
Q 19.1875 6.0625 25.203125 6.0625 
Q 31.25 6.0625 34.171875 8.515625 
Q 37.109375 10.984375 37.109375 14.3125 
Q 37.109375 17.28125 34.515625 19 
Q 32.71875 20.171875 25.53125 21.96875 
Q 15.875 24.421875 12.140625 26.203125 
Q 8.40625 27.984375 6.46875 31.125 
Q 4.546875 34.28125 4.546875 38.09375 
Q 4.546875 41.546875 6.125 44.5 
Q 7.71875 47.46875 10.453125 49.421875 
Q 12.5 50.921875 16.03125 51.96875 
Q 19.578125 53.03125 23.640625 53.03125 
Q 29.734375 53.03125 34.34375 51.265625 
Q 38.96875 49.515625 41.15625 46.5 
Q 43.359375 43.5 44.1875 38.484375 
L 35.59375 37.3125 
Q 35.015625 41.3125 32.203125 43.546875 
Q 29.390625 45.796875 24.265625 45.796875 
Q 18.21875 45.796875 15.625 43.796875 
Q 13.03125 41.796875 13.03125 39.109375 
Q 13.03125 37.40625 14.109375 36.03125 
Q 15.1875 34.625 17.484375 33.6875 
Q 18.796875 33.203125 25.25 31.453125 
Q 34.578125 28.953125 38.25 27.359375 
Q 41.9375 25.78125 44.03125 22.75 
Q 46.140625 19.734375 46.140625 15.234375 
Q 46.140625 10.84375 43.578125 6.953125 
Q 41.015625 3.078125 36.171875 0.953125 
Q 31.34375 -1.171875 25.25 -1.171875 
Q 15.140625 -1.171875 9.84375 3.03125 
Q 4.546875 7.234375 3.078125 15.484375 
z
" id="ArialMT-115"/>
     </defs>
     <g style="fill:#262626;" transform="translate(90.545518 233.373995)scale(0.12 -0.12)">
      <use xlink:href="#ArialMT-78"/>
      <use x="72.216797" xlink:href="#ArialMT-117"/>
      <use x="127.832031" xlink:href="#ArialMT-109"/>
      <use x="211.132812" xlink:href="#ArialMT-98"/>
      <use x="266.748047" xlink:href="#ArialMT-101"/>
      <use x="322.363281" xlink:href="#ArialMT-114"/>
      <use x="355.664062" xlink:href="#ArialMT-32"/>
      <use x="383.447266" xlink:href="#ArialMT-111"/>
      <use x="439.0625" xlink:href="#ArialMT-102"/>
      <use x="466.845703" xlink:href="#ArialMT-32"/>
      <use x="494.628906" xlink:href="#ArialMT-67"/>
      <use x="566.845703" xlink:href="#ArialMT-101"/>
      <use x="622.460938" xlink:href="#ArialMT-108"/>
      <use x="644.677734" xlink:href="#ArialMT-108"/>
      <use x="666.894531" xlink:href="#ArialMT-115"/>
     </g>
    </g>
   </g>
   <g id="matplotlib.axis_2">
    <g id="ytick_1">
     <g id="line2d_11">
      <path clip-path="url(#pc4734d2d01)" d="M 40.112344 193.476104 
L 227.001817 193.476104 
" style="fill:none;stroke:#000000;stroke-linecap:round;stroke-opacity:0.25;"/>
     </g>
     <g id="line2d_12">
      <defs>
       <path d="M 3 0 
L -3 -0 
" id="mf5fa114383" style="stroke:#262626;stroke-width:0.25;"/>
      </defs>
      <g>
       <use style="fill:#262626;stroke:#262626;stroke-width:0.25;" x="40.112344" xlink:href="#mf5fa114383" y="193.476104"/>
      </g>
     </g>
     <g id="text_7">
      <!-- 30 -->
      <defs>
       <path d="M 4.203125 18.890625 
L 12.984375 20.0625 
Q 14.5 12.59375 18.140625 9.296875 
Q 21.78125 6 27 6 
Q 33.203125 6 37.46875 10.296875 
Q 41.75 14.59375 41.75 20.953125 
Q 41.75 27 37.796875 30.921875 
Q 33.84375 34.859375 27.734375 34.859375 
Q 25.25 34.859375 21.53125 33.890625 
L 22.515625 41.609375 
Q 23.390625 41.5 23.921875 41.5 
Q 29.546875 41.5 34.03125 44.421875 
Q 38.53125 47.359375 38.53125 53.46875 
Q 38.53125 58.296875 35.25 61.46875 
Q 31.984375 64.65625 26.8125 64.65625 
Q 21.6875 64.65625 18.265625 61.421875 
Q 14.84375 58.203125 13.875 51.765625 
L 5.078125 53.328125 
Q 6.6875 62.15625 12.390625 67.015625 
Q 18.109375 71.875 26.609375 71.875 
Q 32.46875 71.875 37.390625 69.359375 
Q 42.328125 66.84375 44.9375 62.5 
Q 47.5625 58.15625 47.5625 53.265625 
Q 47.5625 48.640625 45.0625 44.828125 
Q 42.578125 41.015625 37.703125 38.765625 
Q 44.046875 37.3125 47.5625 32.6875 
Q 51.078125 28.078125 51.078125 21.140625 
Q 51.078125 11.765625 44.234375 5.25 
Q 37.40625 -1.265625 26.953125 -1.265625 
Q 17.53125 -1.265625 11.296875 4.34375 
Q 5.078125 9.96875 4.203125 18.890625 
z
" id="ArialMT-51"/>
      </defs>
      <g style="fill:#262626;" transform="translate(21.378281 197.412901)scale(0.11 -0.11)">
       <use xlink:href="#ArialMT-51"/>
       <use x="55.615234" xlink:href="#ArialMT-48"/>
      </g>
     </g>
    </g>
    <g id="ytick_2">
     <g id="line2d_13">
      <path clip-path="url(#pc4734d2d01)" d="M 40.112344 171.978759 
L 227.001817 171.978759 
" style="fill:none;stroke:#000000;stroke-linecap:round;stroke-opacity:0.25;"/>
     </g>
     <g id="line2d_14">
      <g>
       <use style="fill:#262626;stroke:#262626;stroke-width:0.25;" x="40.112344" xlink:href="#mf5fa114383" y="171.978759"/>
      </g>
     </g>
     <g id="text_8">
      <!-- 40 -->
      <defs>
       <path d="M 32.328125 0 
L 32.328125 17.140625 
L 1.265625 17.140625 
L 1.265625 25.203125 
L 33.9375 71.578125 
L 41.109375 71.578125 
L 41.109375 25.203125 
L 50.78125 25.203125 
L 50.78125 17.140625 
L 41.109375 17.140625 
L 41.109375 0 
z
M 32.328125 25.203125 
L 32.328125 57.46875 
L 9.90625 25.203125 
z
" id="ArialMT-52"/>
      </defs>
      <g style="fill:#262626;" transform="translate(21.378281 175.915556)scale(0.11 -0.11)">
       <use xlink:href="#ArialMT-52"/>
       <use x="55.615234" xlink:href="#ArialMT-48"/>
      </g>
     </g>
    </g>
    <g id="ytick_3">
     <g id="line2d_15">
      <path clip-path="url(#pc4734d2d01)" d="M 40.112344 150.481414 
L 227.001817 150.481414 
" style="fill:none;stroke:#000000;stroke-linecap:round;stroke-opacity:0.25;"/>
     </g>
     <g id="line2d_16">
      <g>
       <use style="fill:#262626;stroke:#262626;stroke-width:0.25;" x="40.112344" xlink:href="#mf5fa114383" y="150.481414"/>
      </g>
     </g>
     <g id="text_9">
      <!-- 50 -->
      <g style="fill:#262626;" transform="translate(21.378281 154.418211)scale(0.11 -0.11)">
       <use xlink:href="#ArialMT-53"/>
       <use x="55.615234" xlink:href="#ArialMT-48"/>
      </g>
     </g>
    </g>
    <g id="ytick_4">
     <g id="line2d_17">
      <path clip-path="url(#pc4734d2d01)" d="M 40.112344 128.984069 
L 227.001817 128.984069 
" style="fill:none;stroke:#000000;stroke-linecap:round;stroke-opacity:0.25;"/>
     </g>
     <g id="line2d_18">
      <g>
       <use style="fill:#262626;stroke:#262626;stroke-width:0.25;" x="40.112344" xlink:href="#mf5fa114383" y="128.984069"/>
      </g>
     </g>
     <g id="text_10">
      <!-- 60 -->
      <defs>
       <path d="M 49.75 54.046875 
L 41.015625 53.375 
Q 39.84375 58.546875 37.703125 60.890625 
Q 34.125 64.65625 28.90625 64.65625 
Q 24.703125 64.65625 21.53125 62.3125 
Q 17.390625 59.28125 14.984375 53.46875 
Q 12.59375 47.65625 12.5 36.921875 
Q 15.671875 41.75 20.265625 44.09375 
Q 24.859375 46.4375 29.890625 46.4375 
Q 38.671875 46.4375 44.84375 39.96875 
Q 51.03125 33.5 51.03125 23.25 
Q 51.03125 16.5 48.125 10.71875 
Q 45.21875 4.9375 40.140625 1.859375 
Q 35.0625 -1.21875 28.609375 -1.21875 
Q 17.625 -1.21875 10.6875 6.859375 
Q 3.765625 14.9375 3.765625 33.5 
Q 3.765625 54.25 11.421875 63.671875 
Q 18.109375 71.875 29.4375 71.875 
Q 37.890625 71.875 43.28125 67.140625 
Q 48.6875 62.40625 49.75 54.046875 
z
M 13.875 23.1875 
Q 13.875 18.65625 15.796875 14.5 
Q 17.71875 10.359375 21.1875 8.171875 
Q 24.65625 6 28.46875 6 
Q 34.03125 6 38.03125 10.484375 
Q 42.046875 14.984375 42.046875 22.703125 
Q 42.046875 30.125 38.078125 34.390625 
Q 34.125 38.671875 28.125 38.671875 
Q 22.171875 38.671875 18.015625 34.390625 
Q 13.875 30.125 13.875 23.1875 
z
" id="ArialMT-54"/>
      </defs>
      <g style="fill:#262626;" transform="translate(21.378281 132.920866)scale(0.11 -0.11)">
       <use xlink:href="#ArialMT-54"/>
       <use x="55.615234" xlink:href="#ArialMT-48"/>
      </g>
     </g>
    </g>
    <g id="ytick_5">
     <g id="line2d_19">
      <path clip-path="url(#pc4734d2d01)" d="M 40.112344 107.486724 
L 227.001817 107.486724 
" style="fill:none;stroke:#000000;stroke-linecap:round;stroke-opacity:0.25;"/>
     </g>
     <g id="line2d_20">
      <g>
       <use style="fill:#262626;stroke:#262626;stroke-width:0.25;" x="40.112344" xlink:href="#mf5fa114383" y="107.486724"/>
      </g>
     </g>
     <g id="text_11">
      <!-- 70 -->
      <g style="fill:#262626;" transform="translate(21.378281 111.423521)scale(0.11 -0.11)">
       <use xlink:href="#ArialMT-55"/>
       <use x="55.615234" xlink:href="#ArialMT-48"/>
      </g>
     </g>
    </g>
    <g id="ytick_6">
     <g id="line2d_21">
      <path clip-path="url(#pc4734d2d01)" d="M 40.112344 85.989379 
L 227.001817 85.989379 
" style="fill:none;stroke:#000000;stroke-linecap:round;stroke-opacity:0.25;"/>
     </g>
     <g id="line2d_22">
      <g>
       <use style="fill:#262626;stroke:#262626;stroke-width:0.25;" x="40.112344" xlink:href="#mf5fa114383" y="85.989379"/>
      </g>
     </g>
     <g id="text_12">
      <!-- 80 -->
      <defs>
       <path d="M 17.671875 38.8125 
Q 12.203125 40.828125 9.5625 44.53125 
Q 6.9375 48.25 6.9375 53.421875 
Q 6.9375 61.234375 12.546875 66.546875 
Q 18.171875 71.875 27.484375 71.875 
Q 36.859375 71.875 42.578125 66.421875 
Q 48.296875 60.984375 48.296875 53.171875 
Q 48.296875 48.1875 45.671875 44.5 
Q 43.0625 40.828125 37.75 38.8125 
Q 44.34375 36.671875 47.78125 31.875 
Q 51.21875 27.09375 51.21875 20.453125 
Q 51.21875 11.28125 44.71875 5.03125 
Q 38.234375 -1.21875 27.640625 -1.21875 
Q 17.046875 -1.21875 10.546875 5.046875 
Q 4.046875 11.328125 4.046875 20.703125 
Q 4.046875 27.6875 7.59375 32.390625 
Q 11.140625 37.109375 17.671875 38.8125 
z
M 15.921875 53.71875 
Q 15.921875 48.640625 19.1875 45.40625 
Q 22.46875 42.1875 27.6875 42.1875 
Q 32.765625 42.1875 36.015625 45.375 
Q 39.265625 48.578125 39.265625 53.21875 
Q 39.265625 58.0625 35.90625 61.359375 
Q 32.5625 64.65625 27.59375 64.65625 
Q 22.5625 64.65625 19.234375 61.421875 
Q 15.921875 58.203125 15.921875 53.71875 
z
M 13.09375 20.65625 
Q 13.09375 16.890625 14.875 13.375 
Q 16.65625 9.859375 20.171875 7.921875 
Q 23.6875 6 27.734375 6 
Q 34.03125 6 38.125 10.046875 
Q 42.234375 14.109375 42.234375 20.359375 
Q 42.234375 26.703125 38.015625 30.859375 
Q 33.796875 35.015625 27.4375 35.015625 
Q 21.234375 35.015625 17.15625 30.90625 
Q 13.09375 26.8125 13.09375 20.65625 
z
" id="ArialMT-56"/>
      </defs>
      <g style="fill:#262626;" transform="translate(21.378281 89.926176)scale(0.11 -0.11)">
       <use xlink:href="#ArialMT-56"/>
       <use x="55.615234" xlink:href="#ArialMT-48"/>
      </g>
     </g>
    </g>
    <g id="ytick_7">
     <g id="line2d_23">
      <path clip-path="url(#pc4734d2d01)" d="M 40.112344 64.492035 
L 227.001817 64.492035 
" style="fill:none;stroke:#000000;stroke-linecap:round;stroke-opacity:0.25;"/>
     </g>
     <g id="line2d_24">
      <g>
       <use style="fill:#262626;stroke:#262626;stroke-width:0.25;" x="40.112344" xlink:href="#mf5fa114383" y="64.492035"/>
      </g>
     </g>
     <g id="text_13">
      <!-- 90 -->
      <defs>
       <path d="M 5.46875 16.546875 
L 13.921875 17.328125 
Q 14.984375 11.375 18.015625 8.6875 
Q 21.046875 6 25.78125 6 
Q 29.828125 6 32.875 7.859375 
Q 35.9375 9.71875 37.890625 12.8125 
Q 39.84375 15.921875 41.15625 21.1875 
Q 42.484375 26.46875 42.484375 31.9375 
Q 42.484375 32.515625 42.4375 33.6875 
Q 39.796875 29.5 35.234375 26.875 
Q 30.671875 24.265625 25.34375 24.265625 
Q 16.453125 24.265625 10.296875 30.703125 
Q 4.15625 37.15625 4.15625 47.703125 
Q 4.15625 58.59375 10.578125 65.234375 
Q 17 71.875 26.65625 71.875 
Q 33.640625 71.875 39.421875 68.109375 
Q 45.21875 64.359375 48.21875 57.390625 
Q 51.21875 50.4375 51.21875 37.25 
Q 51.21875 23.53125 48.234375 15.40625 
Q 45.265625 7.28125 39.375 3.03125 
Q 33.5 -1.21875 25.59375 -1.21875 
Q 17.1875 -1.21875 11.859375 3.4375 
Q 6.546875 8.109375 5.46875 16.546875 
z
M 41.453125 48.140625 
Q 41.453125 55.71875 37.421875 60.15625 
Q 33.40625 64.59375 27.734375 64.59375 
Q 21.875 64.59375 17.53125 59.8125 
Q 13.1875 55.03125 13.1875 47.40625 
Q 13.1875 40.578125 17.3125 36.296875 
Q 21.4375 32.03125 27.484375 32.03125 
Q 33.59375 32.03125 37.515625 36.296875 
Q 41.453125 40.578125 41.453125 48.140625 
z
" id="ArialMT-57"/>
      </defs>
      <g style="fill:#262626;" transform="translate(21.378281 68.428831)scale(0.11 -0.11)">
       <use xlink:href="#ArialMT-57"/>
       <use x="55.615234" xlink:href="#ArialMT-48"/>
      </g>
     </g>
    </g>
    <g id="ytick_8">
     <g id="line2d_25">
      <path clip-path="url(#pc4734d2d01)" d="M 40.112344 42.99469 
L 227.001817 42.99469 
" style="fill:none;stroke:#000000;stroke-linecap:round;stroke-opacity:0.25;"/>
     </g>
     <g id="line2d_26">
      <g>
       <use style="fill:#262626;stroke:#262626;stroke-width:0.25;" x="40.112344" xlink:href="#mf5fa114383" y="42.99469"/>
      </g>
     </g>
     <g id="text_14">
      <!-- 100 -->
      <g style="fill:#262626;" transform="translate(15.26125 46.931487)scale(0.11 -0.11)">
       <use xlink:href="#ArialMT-49"/>
       <use x="55.615234" xlink:href="#ArialMT-48"/>
       <use x="111.230469" xlink:href="#ArialMT-48"/>
      </g>
     </g>
    </g>
    <g id="text_15">
     <!-- Accuracy [%] -->
     <defs>
      <path d="M -0.140625 0 
L 27.34375 71.578125 
L 37.546875 71.578125 
L 66.84375 0 
L 56.0625 0 
L 47.703125 21.6875 
L 17.78125 21.6875 
L 9.90625 0 
z
M 20.515625 29.390625 
L 44.78125 29.390625 
L 37.3125 49.21875 
Q 33.890625 58.25 32.234375 64.0625 
Q 30.859375 57.171875 28.375 50.390625 
z
" id="ArialMT-65"/>
      <path d="M 40.4375 19 
L 49.078125 17.875 
Q 47.65625 8.9375 41.8125 3.875 
Q 35.984375 -1.171875 27.484375 -1.171875 
Q 16.84375 -1.171875 10.375 5.78125 
Q 3.90625 12.75 3.90625 25.734375 
Q 3.90625 34.125 6.6875 40.421875 
Q 9.46875 46.734375 15.15625 49.875 
Q 20.84375 53.03125 27.546875 53.03125 
Q 35.984375 53.03125 41.359375 48.75 
Q 46.734375 44.484375 48.25 36.625 
L 39.703125 35.296875 
Q 38.484375 40.53125 35.375 43.15625 
Q 32.28125 45.796875 27.875 45.796875 
Q 21.234375 45.796875 17.078125 41.03125 
Q 12.9375 36.28125 12.9375 25.984375 
Q 12.9375 15.53125 16.9375 10.796875 
Q 20.953125 6.0625 27.390625 6.0625 
Q 32.5625 6.0625 36.03125 9.234375 
Q 39.5 12.40625 40.4375 19 
z
" id="ArialMT-99"/>
      <path d="M 40.4375 6.390625 
Q 35.546875 2.25 31.03125 0.53125 
Q 26.515625 -1.171875 21.34375 -1.171875 
Q 12.796875 -1.171875 8.203125 3 
Q 3.609375 7.171875 3.609375 13.671875 
Q 3.609375 17.484375 5.34375 20.625 
Q 7.078125 23.78125 9.890625 25.6875 
Q 12.703125 27.59375 16.21875 28.5625 
Q 18.796875 29.25 24.03125 29.890625 
Q 34.671875 31.15625 39.703125 32.90625 
Q 39.75 34.71875 39.75 35.203125 
Q 39.75 40.578125 37.25 42.78125 
Q 33.890625 45.75 27.25 45.75 
Q 21.046875 45.75 18.09375 43.578125 
Q 15.140625 41.40625 13.71875 35.890625 
L 5.125 37.0625 
Q 6.296875 42.578125 8.984375 45.96875 
Q 11.671875 49.359375 16.75 51.1875 
Q 21.828125 53.03125 28.515625 53.03125 
Q 35.15625 53.03125 39.296875 51.46875 
Q 43.453125 49.90625 45.40625 47.53125 
Q 47.359375 45.171875 48.140625 41.546875 
Q 48.578125 39.3125 48.578125 33.453125 
L 48.578125 21.734375 
Q 48.578125 9.46875 49.140625 6.21875 
Q 49.703125 2.984375 51.375 0 
L 42.1875 0 
Q 40.828125 2.734375 40.4375 6.390625 
z
M 39.703125 26.03125 
Q 34.90625 24.078125 25.34375 22.703125 
Q 19.921875 21.921875 17.671875 20.9375 
Q 15.4375 19.96875 14.203125 18.09375 
Q 12.984375 16.21875 12.984375 13.921875 
Q 12.984375 10.40625 15.640625 8.0625 
Q 18.3125 5.71875 23.4375 5.71875 
Q 28.515625 5.71875 32.46875 7.9375 
Q 36.421875 10.15625 38.28125 14.015625 
Q 39.703125 17 39.703125 22.796875 
z
" id="ArialMT-97"/>
      <path d="M 6.203125 -19.96875 
L 5.21875 -11.71875 
Q 8.109375 -12.5 10.25 -12.5 
Q 13.1875 -12.5 14.9375 -11.515625 
Q 16.703125 -10.546875 17.828125 -8.796875 
Q 18.65625 -7.46875 20.515625 -2.25 
Q 20.75 -1.515625 21.296875 -0.09375 
L 1.609375 51.859375 
L 11.078125 51.859375 
L 21.875 21.828125 
Q 23.96875 16.109375 25.640625 9.8125 
Q 27.15625 15.875 29.25 21.625 
L 40.328125 51.859375 
L 49.125 51.859375 
L 29.390625 -0.875 
Q 26.21875 -9.421875 24.46875 -12.640625 
Q 22.125 -17 19.09375 -19.015625 
Q 16.0625 -21.046875 11.859375 -21.046875 
Q 9.328125 -21.046875 6.203125 -19.96875 
z
" id="ArialMT-121"/>
      <path d="M 6.78125 -19.875 
L 6.78125 71.578125 
L 26.171875 71.578125 
L 26.171875 64.3125 
L 15.578125 64.3125 
L 15.578125 -12.59375 
L 26.171875 -12.59375 
L 26.171875 -19.875 
z
" id="ArialMT-91"/>
      <path d="M 5.8125 54.390625 
Q 5.8125 62.0625 9.671875 67.421875 
Q 13.53125 72.796875 20.84375 72.796875 
Q 27.59375 72.796875 32 67.984375 
Q 36.421875 63.1875 36.421875 53.859375 
Q 36.421875 44.78125 31.953125 39.875 
Q 27.484375 34.96875 20.953125 34.96875 
Q 14.453125 34.96875 10.125 39.796875 
Q 5.8125 44.625 5.8125 54.390625 
z
M 21.09375 66.75 
Q 17.828125 66.75 15.65625 63.90625 
Q 13.484375 61.078125 13.484375 53.515625 
Q 13.484375 46.625 15.671875 43.8125 
Q 17.875 41.015625 21.09375 41.015625 
Q 24.421875 41.015625 26.59375 43.84375 
Q 28.765625 46.6875 28.765625 54.203125 
Q 28.765625 61.140625 26.5625 63.9375 
Q 24.359375 66.75 21.09375 66.75 
z
M 21.140625 -2.640625 
L 60.296875 72.796875 
L 67.4375 72.796875 
L 28.421875 -2.640625 
z
M 52.09375 16.796875 
Q 52.09375 24.515625 55.953125 29.859375 
Q 59.8125 35.203125 67.1875 35.203125 
Q 73.921875 35.203125 78.34375 30.390625 
Q 82.765625 25.59375 82.765625 16.265625 
Q 82.765625 7.171875 78.296875 2.265625 
Q 73.828125 -2.640625 67.234375 -2.640625 
Q 60.75 -2.640625 56.421875 2.21875 
Q 52.09375 7.078125 52.09375 16.796875 
z
M 67.4375 29.15625 
Q 64.109375 29.15625 61.9375 26.3125 
Q 59.765625 23.484375 59.765625 15.921875 
Q 59.765625 9.078125 61.953125 6.25 
Q 64.15625 3.421875 67.390625 3.421875 
Q 70.75 3.421875 72.921875 6.25 
Q 75.09375 9.078125 75.09375 16.609375 
Q 75.09375 23.53125 72.890625 26.34375 
Q 70.703125 29.15625 67.4375 29.15625 
z
" id="ArialMT-37"/>
      <path d="M 21.296875 -19.875 
L 1.90625 -19.875 
L 1.90625 -12.59375 
L 12.5 -12.59375 
L 12.5 64.3125 
L 1.90625 64.3125 
L 1.90625 71.578125 
L 21.296875 71.578125 
z
" id="ArialMT-93"/>
     </defs>
     <g style="fill:#262626;" transform="translate(8.735625 157.543928)rotate(-90)scale(0.12 -0.12)">
      <use xlink:href="#ArialMT-65"/>
      <use x="66.699219" xlink:href="#ArialMT-99"/>
      <use x="116.699219" xlink:href="#ArialMT-99"/>
      <use x="166.699219" xlink:href="#ArialMT-117"/>
      <use x="222.314453" xlink:href="#ArialMT-114"/>
      <use x="255.615234" xlink:href="#ArialMT-97"/>
      <use x="311.230469" xlink:href="#ArialMT-99"/>
      <use x="361.230469" xlink:href="#ArialMT-121"/>
      <use x="411.230469" xlink:href="#ArialMT-32"/>
      <use x="439.013672" xlink:href="#ArialMT-91"/>
      <use x="466.796875" xlink:href="#ArialMT-37"/>
      <use x="555.712891" xlink:href="#ArialMT-93"/>
     </g>
    </g>
   </g>
   <g id="PathCollection_1">
    <defs>
     <path d="M -2.236068 0 
L 2.236068 0 
M 0 2.236068 
L 0 -2.236068 
" id="m463f10655c" style="stroke:#4c72b0;stroke-opacity:0.33;stroke-width:1.5;"/>
    </defs>
    <g clip-path="url(#pc4734d2d01)">
     <use style="fill:#4c72b0;fill-opacity:0.33;stroke:#4c72b0;stroke-opacity:0.33;stroke-width:1.5;" x="40.112344" xlink:href="#m463f10655c" y="53.743362"/>
     <use style="fill:#4c72b0;fill-opacity:0.33;stroke:#4c72b0;stroke-opacity:0.33;stroke-width:1.5;" x="44.728527" xlink:href="#m463f10655c" y="148.827772"/>
     <use style="fill:#4c72b0;fill-opacity:0.33;stroke:#4c72b0;stroke-opacity:0.33;stroke-width:1.5;" x="48.817146" xlink:href="#m463f10655c" y="138.40863"/>
     <use style="fill:#4c72b0;fill-opacity:0.33;stroke:#4c72b0;stroke-opacity:0.33;stroke-width:1.5;" x="51.323074" xlink:href="#m463f10655c" y="149.491893"/>
     <use style="fill:#4c72b0;fill-opacity:0.33;stroke:#4c72b0;stroke-opacity:0.33;stroke-width:1.5;" x="56.466821" xlink:href="#m463f10655c" y="42.99469"/>
     <use style="fill:#4c72b0;fill-opacity:0.33;stroke:#4c72b0;stroke-opacity:0.33;stroke-width:1.5;" x="57.126276" xlink:href="#m463f10655c" y="42.99469"/>
     <use style="fill:#4c72b0;fill-opacity:0.33;stroke:#4c72b0;stroke-opacity:0.33;stroke-width:1.5;" x="63.588932" xlink:href="#m463f10655c" y="47.987621"/>
     <use style="fill:#4c72b0;fill-opacity:0.33;stroke:#4c72b0;stroke-opacity:0.33;stroke-width:1.5;" x="68.468898" xlink:href="#m463f10655c" y="43.534824"/>
     <use style="fill:#4c72b0;fill-opacity:0.33;stroke:#4c72b0;stroke-opacity:0.33;stroke-width:1.5;" x="65.96297" xlink:href="#m463f10655c" y="42.99469"/>
     <use style="fill:#4c72b0;fill-opacity:0.33;stroke:#4c72b0;stroke-opacity:0.33;stroke-width:1.5;" x="74.799663" xlink:href="#m463f10655c" y="44.372725"/>
     <use style="fill:#4c72b0;fill-opacity:0.33;stroke:#4c72b0;stroke-opacity:0.33;stroke-width:1.5;" x="81.526101" xlink:href="#m463f10655c" y="43.375848"/>
     <use style="fill:#4c72b0;fill-opacity:0.33;stroke:#4c72b0;stroke-opacity:0.33;stroke-width:1.5;" x="81.130429" xlink:href="#m463f10655c" y="42.99469"/>
     <use style="fill:#4c72b0;fill-opacity:0.33;stroke:#4c72b0;stroke-opacity:0.33;stroke-width:1.5;" x="84.691484" xlink:href="#m463f10655c" y="43.362795"/>
     <use style="fill:#4c72b0;fill-opacity:0.33;stroke:#4c72b0;stroke-opacity:0.33;stroke-width:1.5;" x="92.209268" xlink:href="#m463f10655c" y="44.794666"/>
     <use style="fill:#4c72b0;fill-opacity:0.33;stroke:#4c72b0;stroke-opacity:0.33;stroke-width:1.5;" x="96.034106" xlink:href="#m463f10655c" y="44.575377"/>
     <use style="fill:#4c72b0;fill-opacity:0.33;stroke:#4c72b0;stroke-opacity:0.33;stroke-width:1.5;" x="100.386507" xlink:href="#m463f10655c" y="43.790888"/>
     <use style="fill:#4c72b0;fill-opacity:0.33;stroke:#4c72b0;stroke-opacity:0.33;stroke-width:1.5;" x="103.683781" xlink:href="#m463f10655c" y="45.285933"/>
     <use style="fill:#4c72b0;fill-opacity:0.33;stroke:#4c72b0;stroke-opacity:0.33;stroke-width:1.5;" x="108.299964" xlink:href="#m463f10655c" y="44.611031"/>
     <use style="fill:#4c72b0;fill-opacity:0.33;stroke:#4c72b0;stroke-opacity:0.33;stroke-width:1.5;" x="105.266472" xlink:href="#m463f10655c" y="44.947673"/>
     <use style="fill:#4c72b0;fill-opacity:0.33;stroke:#4c72b0;stroke-opacity:0.33;stroke-width:1.5;" x="113.31182" xlink:href="#m463f10655c" y="44.216702"/>
     <use style="fill:#4c72b0;fill-opacity:0.33;stroke:#4c72b0;stroke-opacity:0.33;stroke-width:1.5;" x="116.872875" xlink:href="#m463f10655c" y="46.577581"/>
     <use style="fill:#4c72b0;fill-opacity:0.33;stroke:#4c72b0;stroke-opacity:0.33;stroke-width:1.5;" x="119.906367" xlink:href="#m463f10655c" y="45.29667"/>
     <use style="fill:#4c72b0;fill-opacity:0.33;stroke:#4c72b0;stroke-opacity:0.33;stroke-width:1.5;" x="123.467423" xlink:href="#m463f10655c" y="44.126129"/>
     <use style="fill:#4c72b0;fill-opacity:0.33;stroke:#4c72b0;stroke-opacity:0.33;stroke-width:1.5;" x="132.040334" xlink:href="#m463f10655c" y="44.372725"/>
     <use style="fill:#4c72b0;fill-opacity:0.33;stroke:#4c72b0;stroke-opacity:0.33;stroke-width:1.5;" x="135.60139" xlink:href="#m463f10655c" y="44.913599"/>
     <use style="fill:#4c72b0;fill-opacity:0.33;stroke:#4c72b0;stroke-opacity:0.33;stroke-width:1.5;" x="130.985207" xlink:href="#m463f10655c" y="44.049649"/>
     <use style="fill:#4c72b0;fill-opacity:0.33;stroke:#4c72b0;stroke-opacity:0.33;stroke-width:1.5;" x="136.920299" xlink:href="#m463f10655c" y="44.636812"/>
     <use style="fill:#4c72b0;fill-opacity:0.33;stroke:#4c72b0;stroke-opacity:0.33;stroke-width:1.5;" x="145.229429" xlink:href="#m463f10655c" y="44.034556"/>
     <use style="fill:#4c72b0;fill-opacity:0.33;stroke:#4c72b0;stroke-opacity:0.33;stroke-width:1.5;" x="147.999139" xlink:href="#m463f10655c" y="43.7309"/>
     <use style="fill:#4c72b0;fill-opacity:0.33;stroke:#4c72b0;stroke-opacity:0.33;stroke-width:1.5;" x="145.756993" xlink:href="#m463f10655c" y="42.99469"/>
     <use style="fill:#4c72b0;fill-opacity:0.33;stroke:#4c72b0;stroke-opacity:0.33;stroke-width:1.5;" x="150.109394" xlink:href="#m463f10655c" y="46.376748"/>
     <use style="fill:#4c72b0;fill-opacity:0.33;stroke:#4c72b0;stroke-opacity:0.33;stroke-width:1.5;" x="156.308269" xlink:href="#m463f10655c" y="44.588643"/>
     <use style="fill:#4c72b0;fill-opacity:0.33;stroke:#4c72b0;stroke-opacity:0.33;stroke-width:1.5;" x="165.408744" xlink:href="#m463f10655c" y="43.683355"/>
     <use style="fill:#4c72b0;fill-opacity:0.33;stroke:#4c72b0;stroke-opacity:0.33;stroke-width:1.5;" x="163.957944" xlink:href="#m463f10655c" y="43.137245"/>
     <use style="fill:#4c72b0;fill-opacity:0.33;stroke:#4c72b0;stroke-opacity:0.33;stroke-width:1.5;" x="166.727654" xlink:href="#m463f10655c" y="46.17827"/>
     <use style="fill:#4c72b0;fill-opacity:0.33;stroke:#4c72b0;stroke-opacity:0.33;stroke-width:1.5;" x="169.497364" xlink:href="#m463f10655c" y="43.9459"/>
     <use style="fill:#4c72b0;fill-opacity:0.33;stroke:#4c72b0;stroke-opacity:0.33;stroke-width:1.5;" x="179.652967" xlink:href="#m463f10655c" y="43.791467"/>
     <use style="fill:#4c72b0;fill-opacity:0.33;stroke:#4c72b0;stroke-opacity:0.33;stroke-width:1.5;" x="177.938384" xlink:href="#m463f10655c" y="44.67561"/>
     <use style="fill:#4c72b0;fill-opacity:0.33;stroke:#4c72b0;stroke-opacity:0.33;stroke-width:1.5;" x="179.916748" xlink:href="#m463f10655c" y="45.468492"/>
     <use style="fill:#4c72b0;fill-opacity:0.33;stroke:#4c72b0;stroke-opacity:0.33;stroke-width:1.5;" x="193.237734" xlink:href="#m463f10655c" y="43.566704"/>
     <use style="fill:#4c72b0;fill-opacity:0.33;stroke:#4c72b0;stroke-opacity:0.33;stroke-width:1.5;" x="194.160971" xlink:href="#m463f10655c" y="43.87477"/>
     <use style="fill:#4c72b0;fill-opacity:0.33;stroke:#4c72b0;stroke-opacity:0.33;stroke-width:1.5;" x="196.930681" xlink:href="#m463f10655c" y="137.935899"/>
     <use style="fill:#4c72b0;fill-opacity:0.33;stroke:#4c72b0;stroke-opacity:0.33;stroke-width:1.5;" x="195.216098" xlink:href="#m463f10655c" y="46.762266"/>
     <use style="fill:#4c72b0;fill-opacity:0.33;stroke:#4c72b0;stroke-opacity:0.33;stroke-width:1.5;" x="207.218175" xlink:href="#m463f10655c" y="45.117331"/>
     <use style="fill:#4c72b0;fill-opacity:0.33;stroke:#4c72b0;stroke-opacity:0.33;stroke-width:1.5;" x="204.712247" xlink:href="#m463f10655c" y="44.663161"/>
     <use style="fill:#4c72b0;fill-opacity:0.33;stroke:#4c72b0;stroke-opacity:0.33;stroke-width:1.5;" x="213.021376" xlink:href="#m463f10655c" y="44.017947"/>
     <use style="fill:#4c72b0;fill-opacity:0.33;stroke:#4c72b0;stroke-opacity:0.33;stroke-width:1.5;" x="222.385634" xlink:href="#m463f10655c" y="45.649508"/>
     <use style="fill:#4c72b0;fill-opacity:0.33;stroke:#4c72b0;stroke-opacity:0.33;stroke-width:1.5;" x="208.273302" xlink:href="#m463f10655c" y="44.125257"/>
     <use style="fill:#4c72b0;fill-opacity:0.33;stroke:#4c72b0;stroke-opacity:0.33;stroke-width:1.5;" x="219.484033" xlink:href="#m463f10655c" y="44.859048"/>
     <use style="fill:#4c72b0;fill-opacity:0.33;stroke:#4c72b0;stroke-opacity:0.33;stroke-width:1.5;" x="227.001817" xlink:href="#m463f10655c" y="44.493457"/>
    </g>
   </g>
   <g id="line2d_27">
    <path clip-path="url(#pc4734d2d01)" d="M 40.112344 42.68534 
L 44.728527 42.814974 
L 48.817146 42.928733 
L 51.323074 42.997884 
L 56.466821 43.138222 
L 57.126276 43.156039 
L 63.588932 43.328229 
L 65.96297 43.39029 
L 68.468898 43.455038 
L 74.799663 43.614977 
L 81.130429 43.769266 
L 81.526101 43.778697 
L 84.691484 43.85319 
L 92.209268 44.023672 
L 96.034106 44.107699 
L 100.386507 44.202178 
L 103.683781 44.26368 
L 105.266472 44.294288 
L 108.299964 44.341977 
L 113.31182 44.377877 
L 116.872875 44.412669 
L 119.906367 44.438026 
L 123.467423 44.453535 
L 130.985207 44.454641 
L 132.040334 44.455681 
L 135.60139 44.459191 
L 136.920299 44.456685 
L 145.229429 44.426979 
L 145.756993 44.423787 
L 147.999139 44.411768 
L 150.109394 44.397272 
L 156.308269 44.384795 
L 163.957944 44.376751 
L 165.408744 44.380994 
L 166.727654 44.381655 
L 169.497364 44.394497 
L 177.938384 44.441885 
L 179.652967 44.451878 
L 179.916748 44.453421 
L 193.237734 44.532927 
L 194.160971 44.538538 
L 195.216098 44.544966 
L 196.930681 44.555458 
L 204.712247 44.603859 
L 207.218175 44.619735 
L 208.273302 44.626463 
L 213.021376 44.657039 
L 219.484033 44.699549 
L 222.385634 44.719072 
L 227.001817 44.750746 
" style="fill:none;stroke:#4c72b0;stroke-linecap:round;stroke-width:2.25;"/>
   </g>
   <g id="patch_3">
    <path d="M 40.112344 204.224776 
L 40.112344 40.844955 
" style="fill:none;stroke:#000000;stroke-linecap:square;stroke-linejoin:miter;stroke-width:0.25;"/>
   </g>
   <g id="patch_4">
    <path d="M 227.001817 204.224776 
L 227.001817 40.844955 
" style="fill:none;stroke:#000000;stroke-linecap:square;stroke-linejoin:miter;stroke-width:0.25;"/>
   </g>
   <g id="patch_5">
    <path d="M 40.112344 204.224776 
L 227.001817 204.224776 
" style="fill:none;stroke:#000000;stroke-linecap:square;stroke-linejoin:miter;stroke-width:0.25;"/>
   </g>
   <g id="patch_6">
    <path d="M 40.112344 40.844955 
L 227.001817 40.844955 
" style="fill:none;stroke:#000000;stroke-linecap:square;stroke-linejoin:miter;stroke-width:0.25;"/>
   </g>
   <g id="text_16">
    <!-- a -->
    <defs>
     <path d="M 17.4375 36.03125 
L 4.984375 38.28125 
Q 7.078125 45.796875 12.203125 49.40625 
Q 17.328125 53.03125 27.4375 53.03125 
Q 36.625 53.03125 41.109375 50.859375 
Q 45.609375 48.6875 47.4375 45.34375 
Q 49.265625 42 49.265625 33.0625 
L 49.125 17.046875 
Q 49.125 10.203125 49.78125 6.953125 
Q 50.4375 3.71875 52.25 0 
L 38.671875 0 
Q 38.140625 1.375 37.359375 4.046875 
Q 37.015625 5.28125 36.859375 5.671875 
Q 33.34375 2.25 29.34375 0.53125 
Q 25.34375 -1.171875 20.796875 -1.171875 
Q 12.796875 -1.171875 8.171875 3.171875 
Q 3.5625 7.515625 3.5625 14.15625 
Q 3.5625 18.5625 5.65625 22 
Q 7.765625 25.4375 11.546875 27.265625 
Q 15.328125 29.109375 22.46875 30.46875 
Q 32.078125 32.28125 35.796875 33.84375 
L 35.796875 35.203125 
Q 35.796875 39.15625 33.84375 40.84375 
Q 31.890625 42.53125 26.46875 42.53125 
Q 22.796875 42.53125 20.75 41.09375 
Q 18.703125 39.65625 17.4375 36.03125 
z
M 35.796875 24.90625 
Q 33.15625 24.03125 27.4375 22.796875 
Q 21.734375 21.578125 19.96875 20.40625 
Q 17.28125 18.5 17.28125 15.578125 
Q 17.28125 12.703125 19.421875 10.59375 
Q 21.578125 8.5 24.90625 8.5 
Q 28.609375 8.5 31.984375 10.9375 
Q 34.46875 12.796875 35.25 15.484375 
Q 35.796875 17.234375 35.796875 22.171875 
z
" id="Arial-BoldMT-97"/>
    </defs>
    <g style="fill:#262626;" transform="translate(2.734449 11.4525)scale(0.16 -0.16)">
     <use xlink:href="#Arial-BoldMT-97"/>
    </g>
   </g>
   <g id="text_17">
    <!-- 2 State Assignment Accuracy -->
    <defs>
     <path d="M 4.5 23 
L 13.421875 23.78125 
Q 14.0625 18.40625 16.375 14.96875 
Q 18.703125 11.53125 23.578125 9.40625 
Q 28.46875 7.28125 34.578125 7.28125 
Q 39.984375 7.28125 44.140625 8.890625 
Q 48.296875 10.5 50.3125 13.296875 
Q 52.34375 16.109375 52.34375 19.4375 
Q 52.34375 22.796875 50.390625 25.3125 
Q 48.4375 27.828125 43.953125 29.546875 
Q 41.0625 30.671875 31.203125 33.03125 
Q 21.34375 35.40625 17.390625 37.5 
Q 12.25 40.1875 9.734375 44.15625 
Q 7.234375 48.140625 7.234375 53.078125 
Q 7.234375 58.5 10.296875 63.203125 
Q 13.375 67.921875 19.28125 70.359375 
Q 25.203125 72.796875 32.421875 72.796875 
Q 40.375 72.796875 46.453125 70.234375 
Q 52.546875 67.671875 55.8125 62.6875 
Q 59.078125 57.71875 59.328125 51.421875 
L 50.25 50.734375 
Q 49.515625 57.515625 45.28125 60.984375 
Q 41.0625 64.453125 32.8125 64.453125 
Q 24.21875 64.453125 20.28125 61.296875 
Q 16.359375 58.15625 16.359375 53.71875 
Q 16.359375 49.859375 19.140625 47.359375 
Q 21.875 44.875 33.421875 42.265625 
Q 44.96875 39.65625 49.265625 37.703125 
Q 55.515625 34.8125 58.484375 30.390625 
Q 61.46875 25.984375 61.46875 20.21875 
Q 61.46875 14.5 58.203125 9.4375 
Q 54.9375 4.390625 48.796875 1.578125 
Q 42.671875 -1.21875 35.015625 -1.21875 
Q 25.296875 -1.21875 18.71875 1.609375 
Q 12.15625 4.4375 8.421875 10.125 
Q 4.6875 15.828125 4.5 23 
z
" id="ArialMT-83"/>
     <path d="M 25.78125 7.859375 
L 27.046875 0.09375 
Q 23.34375 -0.6875 20.40625 -0.6875 
Q 15.625 -0.6875 12.984375 0.828125 
Q 10.359375 2.34375 9.28125 4.8125 
Q 8.203125 7.28125 8.203125 15.1875 
L 8.203125 45.015625 
L 1.765625 45.015625 
L 1.765625 51.859375 
L 8.203125 51.859375 
L 8.203125 64.703125 
L 16.9375 69.96875 
L 16.9375 51.859375 
L 25.78125 51.859375 
L 25.78125 45.015625 
L 16.9375 45.015625 
L 16.9375 14.703125 
Q 16.9375 10.9375 17.40625 9.859375 
Q 17.875 8.796875 18.921875 8.15625 
Q 19.96875 7.515625 21.921875 7.515625 
Q 23.390625 7.515625 25.78125 7.859375 
z
" id="ArialMT-116"/>
     <path d="M 6.640625 61.46875 
L 6.640625 71.578125 
L 15.4375 71.578125 
L 15.4375 61.46875 
z
M 6.640625 0 
L 6.640625 51.859375 
L 15.4375 51.859375 
L 15.4375 0 
z
" id="ArialMT-105"/>
     <path d="M 4.984375 -4.296875 
L 13.53125 -5.5625 
Q 14.0625 -9.515625 16.5 -11.328125 
Q 19.78125 -13.765625 25.4375 -13.765625 
Q 31.546875 -13.765625 34.859375 -11.328125 
Q 38.1875 -8.890625 39.359375 -4.5 
Q 40.046875 -1.8125 39.984375 6.78125 
Q 34.234375 0 25.640625 0 
Q 14.9375 0 9.078125 7.71875 
Q 3.21875 15.4375 3.21875 26.21875 
Q 3.21875 33.640625 5.90625 39.90625 
Q 8.59375 46.1875 13.6875 49.609375 
Q 18.796875 53.03125 25.6875 53.03125 
Q 34.859375 53.03125 40.828125 45.609375 
L 40.828125 51.859375 
L 48.921875 51.859375 
L 48.921875 7.03125 
Q 48.921875 -5.078125 46.453125 -10.125 
Q 44 -15.1875 38.640625 -18.109375 
Q 33.296875 -21.046875 25.484375 -21.046875 
Q 16.21875 -21.046875 10.5 -16.875 
Q 4.78125 -12.703125 4.984375 -4.296875 
z
M 12.25 26.859375 
Q 12.25 16.65625 16.296875 11.96875 
Q 20.359375 7.28125 26.46875 7.28125 
Q 32.515625 7.28125 36.609375 11.9375 
Q 40.71875 16.609375 40.71875 26.5625 
Q 40.71875 36.078125 36.5 40.90625 
Q 32.28125 45.75 26.3125 45.75 
Q 20.453125 45.75 16.34375 40.984375 
Q 12.25 36.234375 12.25 26.859375 
z
" id="ArialMT-103"/>
     <path d="M 6.59375 0 
L 6.59375 51.859375 
L 14.5 51.859375 
L 14.5 44.484375 
Q 20.21875 53.03125 31 53.03125 
Q 35.6875 53.03125 39.625 51.34375 
Q 43.5625 49.65625 45.515625 46.921875 
Q 47.46875 44.1875 48.25 40.4375 
Q 48.734375 37.984375 48.734375 31.890625 
L 48.734375 0 
L 39.9375 0 
L 39.9375 31.546875 
Q 39.9375 36.921875 38.90625 39.578125 
Q 37.890625 42.234375 35.28125 43.8125 
Q 32.671875 45.40625 29.15625 45.40625 
Q 23.53125 45.40625 19.453125 41.84375 
Q 15.375 38.28125 15.375 28.328125 
L 15.375 0 
z
" id="ArialMT-110"/>
    </defs>
    <g style="fill:#262626;" transform="translate(55.851455 34.844955)scale(0.12 -0.12)">
     <use xlink:href="#ArialMT-50"/>
     <use x="55.615234" xlink:href="#ArialMT-32"/>
     <use x="83.398438" xlink:href="#ArialMT-83"/>
     <use x="150.097656" xlink:href="#ArialMT-116"/>
     <use x="177.880859" xlink:href="#ArialMT-97"/>
     <use x="233.496094" xlink:href="#ArialMT-116"/>
     <use x="261.279297" xlink:href="#ArialMT-101"/>
     <use x="316.894531" xlink:href="#ArialMT-32"/>
     <use x="339.177734" xlink:href="#ArialMT-65"/>
     <use x="405.876953" xlink:href="#ArialMT-115"/>
     <use x="455.876953" xlink:href="#ArialMT-115"/>
     <use x="505.876953" xlink:href="#ArialMT-105"/>
     <use x="528.09375" xlink:href="#ArialMT-103"/>
     <use x="583.708984" xlink:href="#ArialMT-110"/>
     <use x="639.324219" xlink:href="#ArialMT-109"/>
     <use x="722.625" xlink:href="#ArialMT-101"/>
     <use x="778.240234" xlink:href="#ArialMT-110"/>
     <use x="833.855469" xlink:href="#ArialMT-116"/>
     <use x="861.638672" xlink:href="#ArialMT-32"/>
     <use x="883.921875" xlink:href="#ArialMT-65"/>
     <use x="950.621094" xlink:href="#ArialMT-99"/>
     <use x="1000.621094" xlink:href="#ArialMT-99"/>
     <use x="1050.621094" xlink:href="#ArialMT-117"/>
     <use x="1106.236328" xlink:href="#ArialMT-114"/>
     <use x="1139.537109" xlink:href="#ArialMT-97"/>
     <use x="1195.152344" xlink:href="#ArialMT-99"/>
     <use x="1245.152344" xlink:href="#ArialMT-121"/>
    </g>
   </g>
  </g>
  <g id="axes_2">
   <g id="patch_7">
    <path d="M 277.914641 204.224776 
L 464.804114 204.224776 
L 464.804114 40.844955 
L 277.914641 40.844955 
z
" style="fill:#ffffff;"/>
   </g>
   <g id="matplotlib.axis_3">
    <g id="xtick_6">
     <g id="line2d_28">
      <path clip-path="url(#p57b7ea9ccd)" d="M 309.431504 204.224776 
L 309.431504 40.844955 
" style="fill:none;stroke:#000000;stroke-linecap:round;stroke-opacity:0.25;"/>
     </g>
     <g id="line2d_29">
      <g>
       <use style="fill:#262626;stroke:#262626;stroke-width:0.25;" x="309.431504" xlink:href="#mb57a9dedde" y="204.224776"/>
      </g>
     </g>
     <g id="text_18">
      <!-- 200 -->
      <g style="fill:#262626;" transform="translate(300.255958 218.59837)scale(0.11 -0.11)">
       <use xlink:href="#ArialMT-50"/>
       <use x="55.615234" xlink:href="#ArialMT-48"/>
       <use x="111.230469" xlink:href="#ArialMT-48"/>
      </g>
     </g>
    </g>
    <g id="xtick_7">
     <g id="line2d_30">
      <path clip-path="url(#p57b7ea9ccd)" d="M 346.293333 204.224776 
L 346.293333 40.844955 
" style="fill:none;stroke:#000000;stroke-linecap:round;stroke-opacity:0.25;"/>
     </g>
     <g id="line2d_31">
      <g>
       <use style="fill:#262626;stroke:#262626;stroke-width:0.25;" x="346.293333" xlink:href="#mb57a9dedde" y="204.224776"/>
      </g>
     </g>
     <g id="text_19">
      <!-- 400 -->
      <g style="fill:#262626;" transform="translate(337.117787 218.59837)scale(0.11 -0.11)">
       <use xlink:href="#ArialMT-52"/>
       <use x="55.615234" xlink:href="#ArialMT-48"/>
       <use x="111.230469" xlink:href="#ArialMT-48"/>
      </g>
     </g>
    </g>
    <g id="xtick_8">
     <g id="line2d_32">
      <path clip-path="url(#p57b7ea9ccd)" d="M 383.155162 204.224776 
L 383.155162 40.844955 
" style="fill:none;stroke:#000000;stroke-linecap:round;stroke-opacity:0.25;"/>
     </g>
     <g id="line2d_33">
      <g>
       <use style="fill:#262626;stroke:#262626;stroke-width:0.25;" x="383.155162" xlink:href="#mb57a9dedde" y="204.224776"/>
      </g>
     </g>
     <g id="text_20">
      <!-- 600 -->
      <g style="fill:#262626;" transform="translate(373.979616 218.59837)scale(0.11 -0.11)">
       <use xlink:href="#ArialMT-54"/>
       <use x="55.615234" xlink:href="#ArialMT-48"/>
       <use x="111.230469" xlink:href="#ArialMT-48"/>
      </g>
     </g>
    </g>
    <g id="xtick_9">
     <g id="line2d_34">
      <path clip-path="url(#p57b7ea9ccd)" d="M 420.016991 204.224776 
L 420.016991 40.844955 
" style="fill:none;stroke:#000000;stroke-linecap:round;stroke-opacity:0.25;"/>
     </g>
     <g id="line2d_35">
      <g>
       <use style="fill:#262626;stroke:#262626;stroke-width:0.25;" x="420.016991" xlink:href="#mb57a9dedde" y="204.224776"/>
      </g>
     </g>
     <g id="text_21">
      <!-- 800 -->
      <g style="fill:#262626;" transform="translate(410.841445 218.59837)scale(0.11 -0.11)">
       <use xlink:href="#ArialMT-56"/>
       <use x="55.615234" xlink:href="#ArialMT-48"/>
       <use x="111.230469" xlink:href="#ArialMT-48"/>
      </g>
     </g>
    </g>
    <g id="xtick_10">
     <g id="line2d_36">
      <path clip-path="url(#p57b7ea9ccd)" d="M 456.878821 204.224776 
L 456.878821 40.844955 
" style="fill:none;stroke:#000000;stroke-linecap:round;stroke-opacity:0.25;"/>
     </g>
     <g id="line2d_37">
      <g>
       <use style="fill:#262626;stroke:#262626;stroke-width:0.25;" x="456.878821" xlink:href="#mb57a9dedde" y="204.224776"/>
      </g>
     </g>
     <g id="text_22">
      <!-- 1000 -->
      <g style="fill:#262626;" transform="translate(444.644758 218.59837)scale(0.11 -0.11)">
       <use xlink:href="#ArialMT-49"/>
       <use x="55.615234" xlink:href="#ArialMT-48"/>
       <use x="111.230469" xlink:href="#ArialMT-48"/>
       <use x="166.845703" xlink:href="#ArialMT-48"/>
      </g>
     </g>
    </g>
    <g id="text_23">
     <!-- Number of Cells -->
     <g style="fill:#262626;" transform="translate(328.347815 233.373995)scale(0.12 -0.12)">
      <use xlink:href="#ArialMT-78"/>
      <use x="72.216797" xlink:href="#ArialMT-117"/>
      <use x="127.832031" xlink:href="#ArialMT-109"/>
      <use x="211.132812" xlink:href="#ArialMT-98"/>
      <use x="266.748047" xlink:href="#ArialMT-101"/>
      <use x="322.363281" xlink:href="#ArialMT-114"/>
      <use x="355.664062" xlink:href="#ArialMT-32"/>
      <use x="383.447266" xlink:href="#ArialMT-111"/>
      <use x="439.0625" xlink:href="#ArialMT-102"/>
      <use x="466.845703" xlink:href="#ArialMT-32"/>
      <use x="494.628906" xlink:href="#ArialMT-67"/>
      <use x="566.845703" xlink:href="#ArialMT-101"/>
      <use x="622.460938" xlink:href="#ArialMT-108"/>
      <use x="644.677734" xlink:href="#ArialMT-108"/>
      <use x="666.894531" xlink:href="#ArialMT-115"/>
     </g>
    </g>
   </g>
   <g id="matplotlib.axis_4">
    <g id="ytick_9">
     <g id="line2d_38">
      <path clip-path="url(#p57b7ea9ccd)" d="M 277.914641 193.476104 
L 464.804114 193.476104 
" style="fill:none;stroke:#000000;stroke-linecap:round;stroke-opacity:0.25;"/>
     </g>
     <g id="line2d_39">
      <g>
       <use style="fill:#262626;stroke:#262626;stroke-width:0.25;" x="277.914641" xlink:href="#mf5fa114383" y="193.476104"/>
      </g>
     </g>
     <g id="text_24">
      <!-- 30 -->
      <g style="fill:#262626;" transform="translate(259.180578 197.412901)scale(0.11 -0.11)">
       <use xlink:href="#ArialMT-51"/>
       <use x="55.615234" xlink:href="#ArialMT-48"/>
      </g>
     </g>
    </g>
    <g id="ytick_10">
     <g id="line2d_40">
      <path clip-path="url(#p57b7ea9ccd)" d="M 277.914641 171.978759 
L 464.804114 171.978759 
" style="fill:none;stroke:#000000;stroke-linecap:round;stroke-opacity:0.25;"/>
     </g>
     <g id="line2d_41">
      <g>
       <use style="fill:#262626;stroke:#262626;stroke-width:0.25;" x="277.914641" xlink:href="#mf5fa114383" y="171.978759"/>
      </g>
     </g>
     <g id="text_25">
      <!-- 40 -->
      <g style="fill:#262626;" transform="translate(259.180578 175.915556)scale(0.11 -0.11)">
       <use xlink:href="#ArialMT-52"/>
       <use x="55.615234" xlink:href="#ArialMT-48"/>
      </g>
     </g>
    </g>
    <g id="ytick_11">
     <g id="line2d_42">
      <path clip-path="url(#p57b7ea9ccd)" d="M 277.914641 150.481414 
L 464.804114 150.481414 
" style="fill:none;stroke:#000000;stroke-linecap:round;stroke-opacity:0.25;"/>
     </g>
     <g id="line2d_43">
      <g>
       <use style="fill:#262626;stroke:#262626;stroke-width:0.25;" x="277.914641" xlink:href="#mf5fa114383" y="150.481414"/>
      </g>
     </g>
     <g id="text_26">
      <!-- 50 -->
      <g style="fill:#262626;" transform="translate(259.180578 154.418211)scale(0.11 -0.11)">
       <use xlink:href="#ArialMT-53"/>
       <use x="55.615234" xlink:href="#ArialMT-48"/>
      </g>
     </g>
    </g>
    <g id="ytick_12">
     <g id="line2d_44">
      <path clip-path="url(#p57b7ea9ccd)" d="M 277.914641 128.984069 
L 464.804114 128.984069 
" style="fill:none;stroke:#000000;stroke-linecap:round;stroke-opacity:0.25;"/>
     </g>
     <g id="line2d_45">
      <g>
       <use style="fill:#262626;stroke:#262626;stroke-width:0.25;" x="277.914641" xlink:href="#mf5fa114383" y="128.984069"/>
      </g>
     </g>
     <g id="text_27">
      <!-- 60 -->
      <g style="fill:#262626;" transform="translate(259.180578 132.920866)scale(0.11 -0.11)">
       <use xlink:href="#ArialMT-54"/>
       <use x="55.615234" xlink:href="#ArialMT-48"/>
      </g>
     </g>
    </g>
    <g id="ytick_13">
     <g id="line2d_46">
      <path clip-path="url(#p57b7ea9ccd)" d="M 277.914641 107.486724 
L 464.804114 107.486724 
" style="fill:none;stroke:#000000;stroke-linecap:round;stroke-opacity:0.25;"/>
     </g>
     <g id="line2d_47">
      <g>
       <use style="fill:#262626;stroke:#262626;stroke-width:0.25;" x="277.914641" xlink:href="#mf5fa114383" y="107.486724"/>
      </g>
     </g>
     <g id="text_28">
      <!-- 70 -->
      <g style="fill:#262626;" transform="translate(259.180578 111.423521)scale(0.11 -0.11)">
       <use xlink:href="#ArialMT-55"/>
       <use x="55.615234" xlink:href="#ArialMT-48"/>
      </g>
     </g>
    </g>
    <g id="ytick_14">
     <g id="line2d_48">
      <path clip-path="url(#p57b7ea9ccd)" d="M 277.914641 85.989379 
L 464.804114 85.989379 
" style="fill:none;stroke:#000000;stroke-linecap:round;stroke-opacity:0.25;"/>
     </g>
     <g id="line2d_49">
      <g>
       <use style="fill:#262626;stroke:#262626;stroke-width:0.25;" x="277.914641" xlink:href="#mf5fa114383" y="85.989379"/>
      </g>
     </g>
     <g id="text_29">
      <!-- 80 -->
      <g style="fill:#262626;" transform="translate(259.180578 89.926176)scale(0.11 -0.11)">
       <use xlink:href="#ArialMT-56"/>
       <use x="55.615234" xlink:href="#ArialMT-48"/>
      </g>
     </g>
    </g>
    <g id="ytick_15">
     <g id="line2d_50">
      <path clip-path="url(#p57b7ea9ccd)" d="M 277.914641 64.492035 
L 464.804114 64.492035 
" style="fill:none;stroke:#000000;stroke-linecap:round;stroke-opacity:0.25;"/>
     </g>
     <g id="line2d_51">
      <g>
       <use style="fill:#262626;stroke:#262626;stroke-width:0.25;" x="277.914641" xlink:href="#mf5fa114383" y="64.492035"/>
      </g>
     </g>
     <g id="text_30">
      <!-- 90 -->
      <g style="fill:#262626;" transform="translate(259.180578 68.428831)scale(0.11 -0.11)">
       <use xlink:href="#ArialMT-57"/>
       <use x="55.615234" xlink:href="#ArialMT-48"/>
      </g>
     </g>
    </g>
    <g id="ytick_16">
     <g id="line2d_52">
      <path clip-path="url(#p57b7ea9ccd)" d="M 277.914641 42.99469 
L 464.804114 42.99469 
" style="fill:none;stroke:#000000;stroke-linecap:round;stroke-opacity:0.25;"/>
     </g>
     <g id="line2d_53">
      <g>
       <use style="fill:#262626;stroke:#262626;stroke-width:0.25;" x="277.914641" xlink:href="#mf5fa114383" y="42.99469"/>
      </g>
     </g>
     <g id="text_31">
      <!-- 100 -->
      <g style="fill:#262626;" transform="translate(253.063547 46.931487)scale(0.11 -0.11)">
       <use xlink:href="#ArialMT-49"/>
       <use x="55.615234" xlink:href="#ArialMT-48"/>
       <use x="111.230469" xlink:href="#ArialMT-48"/>
      </g>
     </g>
    </g>
    <g id="text_32">
     <!-- Accuracy [%] -->
     <g style="fill:#262626;" transform="translate(246.537922 157.543928)rotate(-90)scale(0.12 -0.12)">
      <use xlink:href="#ArialMT-65"/>
      <use x="66.699219" xlink:href="#ArialMT-99"/>
      <use x="116.699219" xlink:href="#ArialMT-99"/>
      <use x="166.699219" xlink:href="#ArialMT-117"/>
      <use x="222.314453" xlink:href="#ArialMT-114"/>
      <use x="255.615234" xlink:href="#ArialMT-97"/>
      <use x="311.230469" xlink:href="#ArialMT-99"/>
      <use x="361.230469" xlink:href="#ArialMT-121"/>
      <use x="411.230469" xlink:href="#ArialMT-32"/>
      <use x="439.013672" xlink:href="#ArialMT-91"/>
      <use x="466.796875" xlink:href="#ArialMT-37"/>
      <use x="555.712891" xlink:href="#ArialMT-93"/>
     </g>
    </g>
   </g>
   <g id="PathCollection_2">
    <g clip-path="url(#p57b7ea9ccd)">
     <use style="fill:#4c72b0;fill-opacity:0.33;stroke:#4c72b0;stroke-opacity:0.33;stroke-width:1.5;" x="277.914641" xlink:href="#m463f10655c" y="85.054712"/>
     <use style="fill:#4c72b0;fill-opacity:0.33;stroke:#4c72b0;stroke-opacity:0.33;stroke-width:1.5;" x="280.31066" xlink:href="#m463f10655c" y="91.852292"/>
     <use style="fill:#4c72b0;fill-opacity:0.33;stroke:#4c72b0;stroke-opacity:0.33;stroke-width:1.5;" x="286.392861" xlink:href="#m463f10655c" y="137.912861"/>
     <use style="fill:#4c72b0;fill-opacity:0.33;stroke:#4c72b0;stroke-opacity:0.33;stroke-width:1.5;" x="290.263353" xlink:href="#m463f10655c" y="89.904019"/>
     <use style="fill:#4c72b0;fill-opacity:0.33;stroke:#4c72b0;stroke-opacity:0.33;stroke-width:1.5;" x="294.502464" xlink:href="#m463f10655c" y="42.99469"/>
     <use style="fill:#4c72b0;fill-opacity:0.33;stroke:#4c72b0;stroke-opacity:0.33;stroke-width:1.5;" x="295.424009" xlink:href="#m463f10655c" y="86.737614"/>
     <use style="fill:#4c72b0;fill-opacity:0.33;stroke:#4c72b0;stroke-opacity:0.33;stroke-width:1.5;" x="299.66312" xlink:href="#m463f10655c" y="63.981849"/>
     <use style="fill:#4c72b0;fill-opacity:0.33;stroke:#4c72b0;stroke-opacity:0.33;stroke-width:1.5;" x="298.372956" xlink:href="#m463f10655c" y="99.486831"/>
     <use style="fill:#4c72b0;fill-opacity:0.33;stroke:#4c72b0;stroke-opacity:0.33;stroke-width:1.5;" x="308.509959" xlink:href="#m463f10655c" y="133.381253"/>
     <use style="fill:#4c72b0;fill-opacity:0.33;stroke:#4c72b0;stroke-opacity:0.33;stroke-width:1.5;" x="310.537359" xlink:href="#m463f10655c" y="45.374534"/>
     <use style="fill:#4c72b0;fill-opacity:0.33;stroke:#4c72b0;stroke-opacity:0.33;stroke-width:1.5;" x="315.145088" xlink:href="#m463f10655c" y="43.704173"/>
     <use style="fill:#4c72b0;fill-opacity:0.33;stroke:#4c72b0;stroke-opacity:0.33;stroke-width:1.5;" x="326.019327" xlink:href="#m463f10655c" y="48.302676"/>
     <use style="fill:#4c72b0;fill-opacity:0.33;stroke:#4c72b0;stroke-opacity:0.33;stroke-width:1.5;" x="325.4664" xlink:href="#m463f10655c" y="45.423768"/>
     <use style="fill:#4c72b0;fill-opacity:0.33;stroke:#4c72b0;stroke-opacity:0.33;stroke-width:1.5;" x="321.595908" xlink:href="#m463f10655c" y="50.21739"/>
     <use style="fill:#4c72b0;fill-opacity:0.33;stroke:#4c72b0;stroke-opacity:0.33;stroke-width:1.5;" x="333.944621" xlink:href="#m463f10655c" y="51.354768"/>
     <use style="fill:#4c72b0;fill-opacity:0.33;stroke:#4c72b0;stroke-opacity:0.33;stroke-width:1.5;" x="329.70551" xlink:href="#m463f10655c" y="44.089723"/>
     <use style="fill:#4c72b0;fill-opacity:0.33;stroke:#4c72b0;stroke-opacity:0.33;stroke-width:1.5;" x="332.101529" xlink:href="#m463f10655c" y="51.610689"/>
     <use style="fill:#4c72b0;fill-opacity:0.33;stroke:#4c72b0;stroke-opacity:0.33;stroke-width:1.5;" x="341.501296" xlink:href="#m463f10655c" y="117.79964"/>
     <use style="fill:#4c72b0;fill-opacity:0.33;stroke:#4c72b0;stroke-opacity:0.33;stroke-width:1.5;" x="349.795207" xlink:href="#m463f10655c" y="47.48277"/>
     <use style="fill:#4c72b0;fill-opacity:0.33;stroke:#4c72b0;stroke-opacity:0.33;stroke-width:1.5;" x="354.034318" xlink:href="#m463f10655c" y="45.166139"/>
     <use style="fill:#4c72b0;fill-opacity:0.33;stroke:#4c72b0;stroke-opacity:0.33;stroke-width:1.5;" x="353.112772" xlink:href="#m463f10655c" y="50.654565"/>
     <use style="fill:#4c72b0;fill-opacity:0.33;stroke:#4c72b0;stroke-opacity:0.33;stroke-width:1.5;" x="359.563592" xlink:href="#m463f10655c" y="44.423507"/>
     <use style="fill:#4c72b0;fill-opacity:0.33;stroke:#4c72b0;stroke-opacity:0.33;stroke-width:1.5;" x="360.853756" xlink:href="#m463f10655c" y="46.766154"/>
     <use style="fill:#4c72b0;fill-opacity:0.33;stroke:#4c72b0;stroke-opacity:0.33;stroke-width:1.5;" x="360.300828" xlink:href="#m463f10655c" y="47.943492"/>
     <use style="fill:#4c72b0;fill-opacity:0.33;stroke:#4c72b0;stroke-opacity:0.33;stroke-width:1.5;" x="379.653289" xlink:href="#m463f10655c" y="46.493605"/>
     <use style="fill:#4c72b0;fill-opacity:0.33;stroke:#4c72b0;stroke-opacity:0.33;stroke-width:1.5;" x="373.202469" xlink:href="#m463f10655c" y="46.766154"/>
     <use style="fill:#4c72b0;fill-opacity:0.33;stroke:#4c72b0;stroke-opacity:0.33;stroke-width:1.5;" x="373.386778" xlink:href="#m463f10655c" y="44.627768"/>
     <use style="fill:#4c72b0;fill-opacity:0.33;stroke:#4c72b0;stroke-opacity:0.33;stroke-width:1.5;" x="384.261017" xlink:href="#m463f10655c" y="43.681506"/>
     <use style="fill:#4c72b0;fill-opacity:0.33;stroke:#4c72b0;stroke-opacity:0.33;stroke-width:1.5;" x="392.554929" xlink:href="#m463f10655c" y="44.951561"/>
     <use style="fill:#4c72b0;fill-opacity:0.33;stroke:#4c72b0;stroke-opacity:0.33;stroke-width:1.5;" x="396.056803" xlink:href="#m463f10655c" y="48.904613"/>
     <use style="fill:#4c72b0;fill-opacity:0.33;stroke:#4c72b0;stroke-opacity:0.33;stroke-width:1.5;" x="382.233617" xlink:href="#m463f10655c" y="44.321686"/>
     <use style="fill:#4c72b0;fill-opacity:0.33;stroke:#4c72b0;stroke-opacity:0.33;stroke-width:1.5;" x="402.323314" xlink:href="#m463f10655c" y="121.878504"/>
     <use style="fill:#4c72b0;fill-opacity:0.33;stroke:#4c72b0;stroke-opacity:0.33;stroke-width:1.5;" x="399.558676" xlink:href="#m463f10655c" y="132.814788"/>
     <use style="fill:#4c72b0;fill-opacity:0.33;stroke:#4c72b0;stroke-opacity:0.33;stroke-width:1.5;" x="409.327061" xlink:href="#m463f10655c" y="146.54115"/>
     <use style="fill:#4c72b0;fill-opacity:0.33;stroke:#4c72b0;stroke-opacity:0.33;stroke-width:1.5;" x="408.405515" xlink:href="#m463f10655c" y="143.866846"/>
     <use style="fill:#4c72b0;fill-opacity:0.33;stroke:#4c72b0;stroke-opacity:0.33;stroke-width:1.5;" x="412.644626" xlink:href="#m463f10655c" y="44.457094"/>
     <use style="fill:#4c72b0;fill-opacity:0.33;stroke:#4c72b0;stroke-opacity:0.33;stroke-width:1.5;" x="408.036897" xlink:href="#m463f10655c" y="70.740664"/>
     <use style="fill:#4c72b0;fill-opacity:0.33;stroke:#4c72b0;stroke-opacity:0.33;stroke-width:1.5;" x="414.487717" xlink:href="#m463f10655c" y="44.243947"/>
     <use style="fill:#4c72b0;fill-opacity:0.33;stroke:#4c72b0;stroke-opacity:0.33;stroke-width:1.5;" x="434.208796" xlink:href="#m463f10655c" y="43.176102"/>
     <use style="fill:#4c72b0;fill-opacity:0.33;stroke:#4c72b0;stroke-opacity:0.33;stroke-width:1.5;" x="436.236196" xlink:href="#m463f10655c" y="54.229109"/>
     <use style="fill:#4c72b0;fill-opacity:0.33;stroke:#4c72b0;stroke-opacity:0.33;stroke-width:1.5;" x="418.726827" xlink:href="#m463f10655c" y="45.653387"/>
     <use style="fill:#4c72b0;fill-opacity:0.33;stroke:#4c72b0;stroke-opacity:0.33;stroke-width:1.5;" x="441.396852" xlink:href="#m463f10655c" y="45.875099"/>
     <use style="fill:#4c72b0;fill-opacity:0.33;stroke:#4c72b0;stroke-opacity:0.33;stroke-width:1.5;" x="440.843925" xlink:href="#m463f10655c" y="148.659605"/>
     <use style="fill:#4c72b0;fill-opacity:0.33;stroke:#4c72b0;stroke-opacity:0.33;stroke-width:1.5;" x="434.024487" xlink:href="#m463f10655c" y="44.586927"/>
     <use style="fill:#4c72b0;fill-opacity:0.33;stroke:#4c72b0;stroke-opacity:0.33;stroke-width:1.5;" x="448.584909" xlink:href="#m463f10655c" y="44.181498"/>
     <use style="fill:#4c72b0;fill-opacity:0.33;stroke:#4c72b0;stroke-opacity:0.33;stroke-width:1.5;" x="460.196385" xlink:href="#m463f10655c" y="45.424352"/>
     <use style="fill:#4c72b0;fill-opacity:0.33;stroke:#4c72b0;stroke-opacity:0.33;stroke-width:1.5;" x="451.165237" xlink:href="#m463f10655c" y="123.455298"/>
     <use style="fill:#4c72b0;fill-opacity:0.33;stroke:#4c72b0;stroke-opacity:0.33;stroke-width:1.5;" x="456.141584" xlink:href="#m463f10655c" y="45.477165"/>
     <use style="fill:#4c72b0;fill-opacity:0.33;stroke:#4c72b0;stroke-opacity:0.33;stroke-width:1.5;" x="464.804114" xlink:href="#m463f10655c" y="43.941114"/>
     <use style="fill:#4c72b0;fill-opacity:0.33;stroke:#4c72b0;stroke-opacity:0.33;stroke-width:1.5;" x="452.086783" xlink:href="#m463f10655c" y="45.067685"/>
    </g>
   </g>
   <g id="line2d_54">
    <path clip-path="url(#p57b7ea9ccd)" d="M 277.914641 84.373251 
L 280.31066 83.010864 
L 286.392861 79.605087 
L 290.263353 77.478755 
L 294.502464 75.187188 
L 295.424009 74.694014 
L 298.372956 73.127034 
L 299.66312 72.446418 
L 308.509959 67.840628 
L 310.537359 66.794572 
L 315.145088 64.415313 
L 321.595908 61.027293 
L 325.4664 58.907016 
L 326.019327 58.595058 
L 329.70551 56.435034 
L 332.101529 54.943188 
L 333.944621 53.75288 
L 341.501296 49.818126 
L 349.795207 47.726584 
L 353.112772 47.422706 
L 354.034318 47.355301 
L 359.563592 47.0178 
L 360.300828 46.979211 
L 360.853756 46.950987 
L 373.202469 46.330675 
L 373.386778 46.320512 
L 379.653289 46.040443 
L 382.233617 45.937735 
L 384.261017 45.919984 
L 392.554929 45.80844 
L 396.056803 45.800545 
L 399.558676 45.790789 
L 402.323314 45.745184 
L 408.036897 45.724709 
L 408.405515 45.722557 
L 409.327061 45.716626 
L 412.644626 45.691121 
L 414.487717 45.675497 
L 418.726827 45.638475 
L 434.024487 45.513109 
L 434.208796 45.511731 
L 436.236196 45.496811 
L 440.843925 45.464378 
L 441.396852 45.46058 
L 448.584909 45.411509 
L 451.165237 45.393522 
L 452.086783 45.386999 
L 456.141584 45.357533 
L 460.196385 45.326592 
L 464.804114 45.28927 
" style="fill:none;stroke:#4c72b0;stroke-linecap:round;stroke-width:2.25;"/>
   </g>
   <g id="patch_8">
    <path d="M 277.914641 204.224776 
L 277.914641 40.844955 
" style="fill:none;stroke:#000000;stroke-linecap:square;stroke-linejoin:miter;stroke-width:0.25;"/>
   </g>
   <g id="patch_9">
    <path d="M 464.804114 204.224776 
L 464.804114 40.844955 
" style="fill:none;stroke:#000000;stroke-linecap:square;stroke-linejoin:miter;stroke-width:0.25;"/>
   </g>
   <g id="patch_10">
    <path d="M 277.914641 204.224776 
L 464.804114 204.224776 
" style="fill:none;stroke:#000000;stroke-linecap:square;stroke-linejoin:miter;stroke-width:0.25;"/>
   </g>
   <g id="patch_11">
    <path d="M 277.914641 40.844955 
L 464.804114 40.844955 
" style="fill:none;stroke:#000000;stroke-linecap:square;stroke-linejoin:miter;stroke-width:0.25;"/>
   </g>
   <g id="text_33">
    <!-- b -->
    <defs>
     <path d="M 6.59375 0 
L 6.59375 71.578125 
L 20.3125 71.578125 
L 20.3125 45.796875 
Q 26.65625 53.03125 35.359375 53.03125 
Q 44.828125 53.03125 51.03125 46.171875 
Q 57.234375 39.3125 57.234375 26.46875 
Q 57.234375 13.1875 50.90625 6 
Q 44.578125 -1.171875 35.546875 -1.171875 
Q 31.109375 -1.171875 26.78125 1.046875 
Q 22.46875 3.265625 19.34375 7.625 
L 19.34375 0 
z
M 20.21875 27.046875 
Q 20.21875 19 22.75 15.140625 
Q 26.3125 9.671875 32.234375 9.671875 
Q 36.765625 9.671875 39.96875 13.546875 
Q 43.171875 17.4375 43.171875 25.78125 
Q 43.171875 34.671875 39.9375 38.59375 
Q 36.71875 42.53125 31.6875 42.53125 
Q 26.765625 42.53125 23.484375 38.6875 
Q 20.21875 34.859375 20.21875 27.046875 
z
" id="Arial-BoldMT-98"/>
    </defs>
    <g style="fill:#262626;" transform="translate(240.536746 11.4525)scale(0.16 -0.16)">
     <use xlink:href="#Arial-BoldMT-98"/>
    </g>
   </g>
   <g id="text_34">
    <!-- 3 State Assignment Accuracy -->
    <g style="fill:#262626;" transform="translate(293.653752 34.844955)scale(0.12 -0.12)">
     <use xlink:href="#ArialMT-51"/>
     <use x="55.615234" xlink:href="#ArialMT-32"/>
     <use x="83.398438" xlink:href="#ArialMT-83"/>
     <use x="150.097656" xlink:href="#ArialMT-116"/>
     <use x="177.880859" xlink:href="#ArialMT-97"/>
     <use x="233.496094" xlink:href="#ArialMT-116"/>
     <use x="261.279297" xlink:href="#ArialMT-101"/>
     <use x="316.894531" xlink:href="#ArialMT-32"/>
     <use x="339.177734" xlink:href="#ArialMT-65"/>
     <use x="405.876953" xlink:href="#ArialMT-115"/>
     <use x="455.876953" xlink:href="#ArialMT-115"/>
     <use x="505.876953" xlink:href="#ArialMT-105"/>
     <use x="528.09375" xlink:href="#ArialMT-103"/>
     <use x="583.708984" xlink:href="#ArialMT-110"/>
     <use x="639.324219" xlink:href="#ArialMT-109"/>
     <use x="722.625" xlink:href="#ArialMT-101"/>
     <use x="778.240234" xlink:href="#ArialMT-110"/>
     <use x="833.855469" xlink:href="#ArialMT-116"/>
     <use x="861.638672" xlink:href="#ArialMT-32"/>
     <use x="883.921875" xlink:href="#ArialMT-65"/>
     <use x="950.621094" xlink:href="#ArialMT-99"/>
     <use x="1000.621094" xlink:href="#ArialMT-99"/>
     <use x="1050.621094" xlink:href="#ArialMT-117"/>
     <use x="1106.236328" xlink:href="#ArialMT-114"/>
     <use x="1139.537109" xlink:href="#ArialMT-97"/>
     <use x="1195.152344" xlink:href="#ArialMT-99"/>
     <use x="1245.152344" xlink:href="#ArialMT-121"/>
    </g>
   </g>
  </g>
  <g id="axes_3">
   <g id="patch_12">
    <path d="M 520.047773 204.224776 
L 706.937247 204.224776 
L 706.937247 40.844955 
L 520.047773 40.844955 
z
" style="fill:#ffffff;"/>
   </g>
   <g id="matplotlib.axis_5">
    <g id="xtick_11">
     <g id="line2d_55">
      <path clip-path="url(#pbc21d76162)" d="M 553.573041 204.224776 
L 553.573041 40.844955 
" style="fill:none;stroke:#000000;stroke-linecap:round;stroke-opacity:0.25;"/>
     </g>
     <g id="line2d_56">
      <g>
       <use style="fill:#262626;stroke:#262626;stroke-width:0.25;" x="553.573041" xlink:href="#mb57a9dedde" y="204.224776"/>
      </g>
     </g>
     <g id="text_35">
      <!-- 200 -->
      <g style="fill:#262626;" transform="translate(544.397494 218.59837)scale(0.11 -0.11)">
       <use xlink:href="#ArialMT-50"/>
       <use x="55.615234" xlink:href="#ArialMT-48"/>
       <use x="111.230469" xlink:href="#ArialMT-48"/>
      </g>
     </g>
    </g>
    <g id="xtick_12">
     <g id="line2d_57">
      <path clip-path="url(#pbc21d76162)" d="M 590.617535 204.224776 
L 590.617535 40.844955 
" style="fill:none;stroke:#000000;stroke-linecap:round;stroke-opacity:0.25;"/>
     </g>
     <g id="line2d_58">
      <g>
       <use style="fill:#262626;stroke:#262626;stroke-width:0.25;" x="590.617535" xlink:href="#mb57a9dedde" y="204.224776"/>
      </g>
     </g>
     <g id="text_36">
      <!-- 400 -->
      <g style="fill:#262626;" transform="translate(581.441988 218.59837)scale(0.11 -0.11)">
       <use xlink:href="#ArialMT-52"/>
       <use x="55.615234" xlink:href="#ArialMT-48"/>
       <use x="111.230469" xlink:href="#ArialMT-48"/>
      </g>
     </g>
    </g>
    <g id="xtick_13">
     <g id="line2d_59">
      <path clip-path="url(#pbc21d76162)" d="M 627.662029 204.224776 
L 627.662029 40.844955 
" style="fill:none;stroke:#000000;stroke-linecap:round;stroke-opacity:0.25;"/>
     </g>
     <g id="line2d_60">
      <g>
       <use style="fill:#262626;stroke:#262626;stroke-width:0.25;" x="627.662029" xlink:href="#mb57a9dedde" y="204.224776"/>
      </g>
     </g>
     <g id="text_37">
      <!-- 600 -->
      <g style="fill:#262626;" transform="translate(618.486482 218.59837)scale(0.11 -0.11)">
       <use xlink:href="#ArialMT-54"/>
       <use x="55.615234" xlink:href="#ArialMT-48"/>
       <use x="111.230469" xlink:href="#ArialMT-48"/>
      </g>
     </g>
    </g>
    <g id="xtick_14">
     <g id="line2d_61">
      <path clip-path="url(#pbc21d76162)" d="M 664.706523 204.224776 
L 664.706523 40.844955 
" style="fill:none;stroke:#000000;stroke-linecap:round;stroke-opacity:0.25;"/>
     </g>
     <g id="line2d_62">
      <g>
       <use style="fill:#262626;stroke:#262626;stroke-width:0.25;" x="664.706523" xlink:href="#mb57a9dedde" y="204.224776"/>
      </g>
     </g>
     <g id="text_38">
      <!-- 800 -->
      <g style="fill:#262626;" transform="translate(655.530976 218.59837)scale(0.11 -0.11)">
       <use xlink:href="#ArialMT-56"/>
       <use x="55.615234" xlink:href="#ArialMT-48"/>
       <use x="111.230469" xlink:href="#ArialMT-48"/>
      </g>
     </g>
    </g>
    <g id="xtick_15">
     <g id="line2d_63">
      <path clip-path="url(#pbc21d76162)" d="M 701.751017 204.224776 
L 701.751017 40.844955 
" style="fill:none;stroke:#000000;stroke-linecap:round;stroke-opacity:0.25;"/>
     </g>
     <g id="line2d_64">
      <g>
       <use style="fill:#262626;stroke:#262626;stroke-width:0.25;" x="701.751017" xlink:href="#mb57a9dedde" y="204.224776"/>
      </g>
     </g>
     <g id="text_39">
      <!-- 1000 -->
      <g style="fill:#262626;" transform="translate(689.516955 218.59837)scale(0.11 -0.11)">
       <use xlink:href="#ArialMT-49"/>
       <use x="55.615234" xlink:href="#ArialMT-48"/>
       <use x="111.230469" xlink:href="#ArialMT-48"/>
       <use x="166.845703" xlink:href="#ArialMT-48"/>
      </g>
     </g>
    </g>
    <g id="text_40">
     <!-- Number of Cells -->
     <g style="fill:#262626;" transform="translate(570.480947 233.373995)scale(0.12 -0.12)">
      <use xlink:href="#ArialMT-78"/>
      <use x="72.216797" xlink:href="#ArialMT-117"/>
      <use x="127.832031" xlink:href="#ArialMT-109"/>
      <use x="211.132812" xlink:href="#ArialMT-98"/>
      <use x="266.748047" xlink:href="#ArialMT-101"/>
      <use x="322.363281" xlink:href="#ArialMT-114"/>
      <use x="355.664062" xlink:href="#ArialMT-32"/>
      <use x="383.447266" xlink:href="#ArialMT-111"/>
      <use x="439.0625" xlink:href="#ArialMT-102"/>
      <use x="466.845703" xlink:href="#ArialMT-32"/>
      <use x="494.628906" xlink:href="#ArialMT-67"/>
      <use x="566.845703" xlink:href="#ArialMT-101"/>
      <use x="622.460938" xlink:href="#ArialMT-108"/>
      <use x="644.677734" xlink:href="#ArialMT-108"/>
      <use x="666.894531" xlink:href="#ArialMT-115"/>
     </g>
    </g>
   </g>
   <g id="matplotlib.axis_6">
    <g id="ytick_17">
     <g id="line2d_65">
      <path clip-path="url(#pbc21d76162)" d="M 520.047773 193.476104 
L 706.937247 193.476104 
" style="fill:none;stroke:#000000;stroke-linecap:round;stroke-opacity:0.25;"/>
     </g>
     <g id="line2d_66">
      <g>
       <use style="fill:#262626;stroke:#262626;stroke-width:0.25;" x="520.047773" xlink:href="#mf5fa114383" y="193.476104"/>
      </g>
     </g>
     <g id="text_41">
      <!-- 30 -->
      <g style="fill:#262626;" transform="translate(501.313711 197.412901)scale(0.11 -0.11)">
       <use xlink:href="#ArialMT-51"/>
       <use x="55.615234" xlink:href="#ArialMT-48"/>
      </g>
     </g>
    </g>
    <g id="ytick_18">
     <g id="line2d_67">
      <path clip-path="url(#pbc21d76162)" d="M 520.047773 171.978759 
L 706.937247 171.978759 
" style="fill:none;stroke:#000000;stroke-linecap:round;stroke-opacity:0.25;"/>
     </g>
     <g id="line2d_68">
      <g>
       <use style="fill:#262626;stroke:#262626;stroke-width:0.25;" x="520.047773" xlink:href="#mf5fa114383" y="171.978759"/>
      </g>
     </g>
     <g id="text_42">
      <!-- 40 -->
      <g style="fill:#262626;" transform="translate(501.313711 175.915556)scale(0.11 -0.11)">
       <use xlink:href="#ArialMT-52"/>
       <use x="55.615234" xlink:href="#ArialMT-48"/>
      </g>
     </g>
    </g>
    <g id="ytick_19">
     <g id="line2d_69">
      <path clip-path="url(#pbc21d76162)" d="M 520.047773 150.481414 
L 706.937247 150.481414 
" style="fill:none;stroke:#000000;stroke-linecap:round;stroke-opacity:0.25;"/>
     </g>
     <g id="line2d_70">
      <g>
       <use style="fill:#262626;stroke:#262626;stroke-width:0.25;" x="520.047773" xlink:href="#mf5fa114383" y="150.481414"/>
      </g>
     </g>
     <g id="text_43">
      <!-- 50 -->
      <g style="fill:#262626;" transform="translate(501.313711 154.418211)scale(0.11 -0.11)">
       <use xlink:href="#ArialMT-53"/>
       <use x="55.615234" xlink:href="#ArialMT-48"/>
      </g>
     </g>
    </g>
    <g id="ytick_20">
     <g id="line2d_71">
      <path clip-path="url(#pbc21d76162)" d="M 520.047773 128.984069 
L 706.937247 128.984069 
" style="fill:none;stroke:#000000;stroke-linecap:round;stroke-opacity:0.25;"/>
     </g>
     <g id="line2d_72">
      <g>
       <use style="fill:#262626;stroke:#262626;stroke-width:0.25;" x="520.047773" xlink:href="#mf5fa114383" y="128.984069"/>
      </g>
     </g>
     <g id="text_44">
      <!-- 60 -->
      <g style="fill:#262626;" transform="translate(501.313711 132.920866)scale(0.11 -0.11)">
       <use xlink:href="#ArialMT-54"/>
       <use x="55.615234" xlink:href="#ArialMT-48"/>
      </g>
     </g>
    </g>
    <g id="ytick_21">
     <g id="line2d_73">
      <path clip-path="url(#pbc21d76162)" d="M 520.047773 107.486724 
L 706.937247 107.486724 
" style="fill:none;stroke:#000000;stroke-linecap:round;stroke-opacity:0.25;"/>
     </g>
     <g id="line2d_74">
      <g>
       <use style="fill:#262626;stroke:#262626;stroke-width:0.25;" x="520.047773" xlink:href="#mf5fa114383" y="107.486724"/>
      </g>
     </g>
     <g id="text_45">
      <!-- 70 -->
      <g style="fill:#262626;" transform="translate(501.313711 111.423521)scale(0.11 -0.11)">
       <use xlink:href="#ArialMT-55"/>
       <use x="55.615234" xlink:href="#ArialMT-48"/>
      </g>
     </g>
    </g>
    <g id="ytick_22">
     <g id="line2d_75">
      <path clip-path="url(#pbc21d76162)" d="M 520.047773 85.989379 
L 706.937247 85.989379 
" style="fill:none;stroke:#000000;stroke-linecap:round;stroke-opacity:0.25;"/>
     </g>
     <g id="line2d_76">
      <g>
       <use style="fill:#262626;stroke:#262626;stroke-width:0.25;" x="520.047773" xlink:href="#mf5fa114383" y="85.989379"/>
      </g>
     </g>
     <g id="text_46">
      <!-- 80 -->
      <g style="fill:#262626;" transform="translate(501.313711 89.926176)scale(0.11 -0.11)">
       <use xlink:href="#ArialMT-56"/>
       <use x="55.615234" xlink:href="#ArialMT-48"/>
      </g>
     </g>
    </g>
    <g id="ytick_23">
     <g id="line2d_77">
      <path clip-path="url(#pbc21d76162)" d="M 520.047773 64.492035 
L 706.937247 64.492035 
" style="fill:none;stroke:#000000;stroke-linecap:round;stroke-opacity:0.25;"/>
     </g>
     <g id="line2d_78">
      <g>
       <use style="fill:#262626;stroke:#262626;stroke-width:0.25;" x="520.047773" xlink:href="#mf5fa114383" y="64.492035"/>
      </g>
     </g>
     <g id="text_47">
      <!-- 90 -->
      <g style="fill:#262626;" transform="translate(501.313711 68.428831)scale(0.11 -0.11)">
       <use xlink:href="#ArialMT-57"/>
       <use x="55.615234" xlink:href="#ArialMT-48"/>
      </g>
     </g>
    </g>
    <g id="ytick_24">
     <g id="line2d_79">
      <path clip-path="url(#pbc21d76162)" d="M 520.047773 42.99469 
L 706.937247 42.99469 
" style="fill:none;stroke:#000000;stroke-linecap:round;stroke-opacity:0.25;"/>
     </g>
     <g id="line2d_80">
      <g>
       <use style="fill:#262626;stroke:#262626;stroke-width:0.25;" x="520.047773" xlink:href="#mf5fa114383" y="42.99469"/>
      </g>
     </g>
     <g id="text_48">
      <!-- 100 -->
      <g style="fill:#262626;" transform="translate(495.19668 46.931487)scale(0.11 -0.11)">
       <use xlink:href="#ArialMT-49"/>
       <use x="55.615234" xlink:href="#ArialMT-48"/>
       <use x="111.230469" xlink:href="#ArialMT-48"/>
      </g>
     </g>
    </g>
    <g id="text_49">
     <!-- Accuracy [%] -->
     <g style="fill:#262626;" transform="translate(488.671055 157.543928)rotate(-90)scale(0.12 -0.12)">
      <use xlink:href="#ArialMT-65"/>
      <use x="66.699219" xlink:href="#ArialMT-99"/>
      <use x="116.699219" xlink:href="#ArialMT-99"/>
      <use x="166.699219" xlink:href="#ArialMT-117"/>
      <use x="222.314453" xlink:href="#ArialMT-114"/>
      <use x="255.615234" xlink:href="#ArialMT-97"/>
      <use x="311.230469" xlink:href="#ArialMT-99"/>
      <use x="361.230469" xlink:href="#ArialMT-121"/>
      <use x="411.230469" xlink:href="#ArialMT-32"/>
      <use x="439.013672" xlink:href="#ArialMT-91"/>
      <use x="466.796875" xlink:href="#ArialMT-37"/>
      <use x="555.712891" xlink:href="#ArialMT-93"/>
     </g>
    </g>
   </g>
   <g id="PathCollection_3">
    <g clip-path="url(#pbc21d76162)">
     <use style="fill:#4c72b0;fill-opacity:0.33;stroke:#4c72b0;stroke-opacity:0.33;stroke-width:1.5;" x="520.047773" xlink:href="#m463f10655c" y="121.818288"/>
     <use style="fill:#4c72b0;fill-opacity:0.33;stroke:#4c72b0;stroke-opacity:0.33;stroke-width:1.5;" x="525.419225" xlink:href="#m463f10655c" y="89.336422"/>
     <use style="fill:#4c72b0;fill-opacity:0.33;stroke:#4c72b0;stroke-opacity:0.33;stroke-width:1.5;" x="525.234003" xlink:href="#m463f10655c" y="143.052185"/>
     <use style="fill:#4c72b0;fill-opacity:0.33;stroke:#4c72b0;stroke-opacity:0.33;stroke-width:1.5;" x="533.939459" xlink:href="#m463f10655c" y="93.901597"/>
     <use style="fill:#4c72b0;fill-opacity:0.33;stroke:#4c72b0;stroke-opacity:0.33;stroke-width:1.5;" x="535.976906" xlink:href="#m463f10655c" y="92.259438"/>
     <use style="fill:#4c72b0;fill-opacity:0.33;stroke:#4c72b0;stroke-opacity:0.33;stroke-width:1.5;" x="540.977913" xlink:href="#m463f10655c" y="100.576863"/>
     <use style="fill:#4c72b0;fill-opacity:0.33;stroke:#4c72b0;stroke-opacity:0.33;stroke-width:1.5;" x="547.090254" xlink:href="#m463f10655c" y="126.128953"/>
     <use style="fill:#4c72b0;fill-opacity:0.33;stroke:#4c72b0;stroke-opacity:0.33;stroke-width:1.5;" x="546.905032" xlink:href="#m463f10655c" y="81.728644"/>
     <use style="fill:#4c72b0;fill-opacity:0.33;stroke:#4c72b0;stroke-opacity:0.33;stroke-width:1.5;" x="550.053814" xlink:href="#m463f10655c" y="102.525799"/>
     <use style="fill:#4c72b0;fill-opacity:0.33;stroke:#4c72b0;stroke-opacity:0.33;stroke-width:1.5;" x="559.870605" xlink:href="#m463f10655c" y="122.53263"/>
     <use style="fill:#4c72b0;fill-opacity:0.33;stroke:#4c72b0;stroke-opacity:0.33;stroke-width:1.5;" x="555.240043" xlink:href="#m463f10655c" y="87.901655"/>
     <use style="fill:#4c72b0;fill-opacity:0.33;stroke:#4c72b0;stroke-opacity:0.33;stroke-width:1.5;" x="558.75927" xlink:href="#m463f10655c" y="95.524069"/>
     <use style="fill:#4c72b0;fill-opacity:0.33;stroke:#4c72b0;stroke-opacity:0.33;stroke-width:1.5;" x="563.760277" xlink:href="#m463f10655c" y="116.402886"/>
     <use style="fill:#4c72b0;fill-opacity:0.33;stroke:#4c72b0;stroke-opacity:0.33;stroke-width:1.5;" x="567.649948" xlink:href="#m463f10655c" y="109.011757"/>
     <use style="fill:#4c72b0;fill-opacity:0.33;stroke:#4c72b0;stroke-opacity:0.33;stroke-width:1.5;" x="567.835171" xlink:href="#m463f10655c" y="87.351947"/>
     <use style="fill:#4c72b0;fill-opacity:0.33;stroke:#4c72b0;stroke-opacity:0.33;stroke-width:1.5;" x="578.022407" xlink:href="#m463f10655c" y="89.220454"/>
     <use style="fill:#4c72b0;fill-opacity:0.33;stroke:#4c72b0;stroke-opacity:0.33;stroke-width:1.5;" x="578.948519" xlink:href="#m463f10655c" y="107.016505"/>
     <use style="fill:#4c72b0;fill-opacity:0.33;stroke:#4c72b0;stroke-opacity:0.33;stroke-width:1.5;" x="586.54264" xlink:href="#m463f10655c" y="113.023919"/>
     <use style="fill:#4c72b0;fill-opacity:0.33;stroke:#4c72b0;stroke-opacity:0.33;stroke-width:1.5;" x="596.359431" xlink:href="#m463f10655c" y="94.768329"/>
     <use style="fill:#4c72b0;fill-opacity:0.33;stroke:#4c72b0;stroke-opacity:0.33;stroke-width:1.5;" x="600.989993" xlink:href="#m463f10655c" y="102.336926"/>
     <use style="fill:#4c72b0;fill-opacity:0.33;stroke:#4c72b0;stroke-opacity:0.33;stroke-width:1.5;" x="595.988986" xlink:href="#m463f10655c" y="99.413995"/>
     <use style="fill:#4c72b0;fill-opacity:0.33;stroke:#4c72b0;stroke-opacity:0.33;stroke-width:1.5;" x="603.953553" xlink:href="#m463f10655c" y="101.378992"/>
     <use style="fill:#4c72b0;fill-opacity:0.33;stroke:#4c72b0;stroke-opacity:0.33;stroke-width:1.5;" x="607.102335" xlink:href="#m463f10655c" y="105.373244"/>
     <use style="fill:#4c72b0;fill-opacity:0.33;stroke:#4c72b0;stroke-opacity:0.33;stroke-width:1.5;" x="609.510227" xlink:href="#m463f10655c" y="98.732059"/>
     <use style="fill:#4c72b0;fill-opacity:0.33;stroke:#4c72b0;stroke-opacity:0.33;stroke-width:1.5;" x="613.029454" xlink:href="#m463f10655c" y="86.795028"/>
     <use style="fill:#4c72b0;fill-opacity:0.33;stroke:#4c72b0;stroke-opacity:0.33;stroke-width:1.5;" x="622.4758" xlink:href="#m463f10655c" y="123.374208"/>
     <use style="fill:#4c72b0;fill-opacity:0.33;stroke:#4c72b0;stroke-opacity:0.33;stroke-width:1.5;" x="612.288564" xlink:href="#m463f10655c" y="109.345122"/>
     <use style="fill:#4c72b0;fill-opacity:0.33;stroke:#4c72b0;stroke-opacity:0.33;stroke-width:1.5;" x="624.328024" xlink:href="#m463f10655c" y="107.136153"/>
     <use style="fill:#4c72b0;fill-opacity:0.33;stroke:#4c72b0;stroke-opacity:0.33;stroke-width:1.5;" x="629.329031" xlink:href="#m463f10655c" y="91.878666"/>
     <use style="fill:#4c72b0;fill-opacity:0.33;stroke:#4c72b0;stroke-opacity:0.33;stroke-width:1.5;" x="625.439359" xlink:href="#m463f10655c" y="115.802201"/>
     <use style="fill:#4c72b0;fill-opacity:0.33;stroke:#4c72b0;stroke-opacity:0.33;stroke-width:1.5;" x="636.367485" xlink:href="#m463f10655c" y="96.264609"/>
     <use style="fill:#4c72b0;fill-opacity:0.33;stroke:#4c72b0;stroke-opacity:0.33;stroke-width:1.5;" x="635.441373" xlink:href="#m463f10655c" y="92.684718"/>
     <use style="fill:#4c72b0;fill-opacity:0.33;stroke:#4c72b0;stroke-opacity:0.33;stroke-width:1.5;" x="642.665049" xlink:href="#m463f10655c" y="90.832322"/>
     <use style="fill:#4c72b0;fill-opacity:0.33;stroke:#4c72b0;stroke-opacity:0.33;stroke-width:1.5;" x="642.109382" xlink:href="#m463f10655c" y="120.548311"/>
     <use style="fill:#4c72b0;fill-opacity:0.33;stroke:#4c72b0;stroke-opacity:0.33;stroke-width:1.5;" x="637.47882" xlink:href="#m463f10655c" y="105.961171"/>
     <use style="fill:#4c72b0;fill-opacity:0.33;stroke:#4c72b0;stroke-opacity:0.33;stroke-width:1.5;" x="659.149849" xlink:href="#m463f10655c" y="108.20623"/>
     <use style="fill:#4c72b0;fill-opacity:0.33;stroke:#4c72b0;stroke-opacity:0.33;stroke-width:1.5;" x="659.705516" xlink:href="#m463f10655c" y="104.822603"/>
     <use style="fill:#4c72b0;fill-opacity:0.33;stroke:#4c72b0;stroke-opacity:0.33;stroke-width:1.5;" x="665.447413" xlink:href="#m463f10655c" y="119.98987"/>
     <use style="fill:#4c72b0;fill-opacity:0.33;stroke:#4c72b0;stroke-opacity:0.33;stroke-width:1.5;" x="673.041534" xlink:href="#m463f10655c" y="98.358694"/>
     <use style="fill:#4c72b0;fill-opacity:0.33;stroke:#4c72b0;stroke-opacity:0.33;stroke-width:1.5;" x="663.965633" xlink:href="#m463f10655c" y="109.291063"/>
     <use style="fill:#4c72b0;fill-opacity:0.33;stroke:#4c72b0;stroke-opacity:0.33;stroke-width:1.5;" x="669.70753" xlink:href="#m463f10655c" y="179.224814"/>
     <use style="fill:#4c72b0;fill-opacity:0.33;stroke:#4c72b0;stroke-opacity:0.33;stroke-width:1.5;" x="677.301651" xlink:href="#m463f10655c" y="96.30805"/>
     <use style="fill:#4c72b0;fill-opacity:0.33;stroke:#4c72b0;stroke-opacity:0.33;stroke-width:1.5;" x="681.932213" xlink:href="#m463f10655c" y="118.650929"/>
     <use style="fill:#4c72b0;fill-opacity:0.33;stroke:#4c72b0;stroke-opacity:0.33;stroke-width:1.5;" x="677.672096" xlink:href="#m463f10655c" y="102.109573"/>
     <use style="fill:#4c72b0;fill-opacity:0.33;stroke:#4c72b0;stroke-opacity:0.33;stroke-width:1.5;" x="686.747997" xlink:href="#m463f10655c" y="94.484851"/>
     <use style="fill:#4c72b0;fill-opacity:0.33;stroke:#4c72b0;stroke-opacity:0.33;stroke-width:1.5;" x="693.230784" xlink:href="#m463f10655c" y="99.573594"/>
     <use style="fill:#4c72b0;fill-opacity:0.33;stroke:#4c72b0;stroke-opacity:0.33;stroke-width:1.5;" x="704.529354" xlink:href="#m463f10655c" y="100.124473"/>
     <use style="fill:#4c72b0;fill-opacity:0.33;stroke:#4c72b0;stroke-opacity:0.33;stroke-width:1.5;" x="706.937247" xlink:href="#m463f10655c" y="121.794079"/>
     <use style="fill:#4c72b0;fill-opacity:0.33;stroke:#4c72b0;stroke-opacity:0.33;stroke-width:1.5;" x="697.861345" xlink:href="#m463f10655c" y="124.072629"/>
     <use style="fill:#4c72b0;fill-opacity:0.33;stroke:#4c72b0;stroke-opacity:0.33;stroke-width:1.5;" x="701.751017" xlink:href="#m463f10655c" y="106.187378"/>
    </g>
   </g>
   <g id="line2d_81">
    <path clip-path="url(#pbc21d76162)" d="M 520.047773 103.885979 
L 525.234003 103.645513 
L 525.419225 103.637317 
L 533.939459 103.276103 
L 535.976906 103.191073 
L 540.977913 102.978992 
L 546.905032 102.7198 
L 547.090254 102.711571 
L 550.053814 102.579132 
L 555.240043 102.346035 
L 558.75927 102.190886 
L 559.870605 102.143556 
L 563.760277 101.990522 
L 567.649948 101.870345 
L 567.835171 101.865813 
L 578.022407 101.964084 
L 578.948519 102.015532 
L 586.54264 102.37718 
L 595.988986 102.594237 
L 596.359431 102.597984 
L 600.989993 102.628473 
L 603.953553 102.630649 
L 607.102335 102.629383 
L 609.510227 102.694854 
L 612.288564 102.755978 
L 613.029454 102.800082 
L 622.4758 103.301526 
L 624.328024 103.431024 
L 625.439359 103.508336 
L 629.329031 103.769755 
L 635.441373 104.059107 
L 636.367485 104.113739 
L 637.47882 104.179384 
L 642.109382 104.383808 
L 642.665049 104.395625 
L 659.149849 105.257309 
L 659.705516 105.297524 
L 663.965633 105.614027 
L 665.447413 105.726384 
L 669.70753 106.051917 
L 673.041534 106.306007 
L 677.301651 106.626562 
L 677.672096 106.654174 
L 681.932213 106.969109 
L 686.747997 107.320966 
L 693.230784 107.790316 
L 697.861345 108.127123 
L 701.751017 108.414567 
L 704.529354 108.622961 
L 706.937247 108.805883 
" style="fill:none;stroke:#4c72b0;stroke-linecap:round;stroke-width:2.25;"/>
   </g>
   <g id="patch_13">
    <path d="M 520.047773 204.224776 
L 520.047773 40.844955 
" style="fill:none;stroke:#000000;stroke-linecap:square;stroke-linejoin:miter;stroke-width:0.25;"/>
   </g>
   <g id="patch_14">
    <path d="M 706.937247 204.224776 
L 706.937247 40.844955 
" style="fill:none;stroke:#000000;stroke-linecap:square;stroke-linejoin:miter;stroke-width:0.25;"/>
   </g>
   <g id="patch_15">
    <path d="M 520.047773 204.224776 
L 706.937247 204.224776 
" style="fill:none;stroke:#000000;stroke-linecap:square;stroke-linejoin:miter;stroke-width:0.25;"/>
   </g>
   <g id="patch_16">
    <path d="M 520.047773 40.844955 
L 706.937247 40.844955 
" style="fill:none;stroke:#000000;stroke-linecap:square;stroke-linejoin:miter;stroke-width:0.25;"/>
   </g>
   <g id="text_50">
    <!-- c -->
    <defs>
     <path d="M 52.390625 36.53125 
L 38.875 34.078125 
Q 38.1875 38.140625 35.765625 40.1875 
Q 33.34375 42.234375 29.5 42.234375 
Q 24.359375 42.234375 21.3125 38.6875 
Q 18.265625 35.15625 18.265625 26.859375 
Q 18.265625 17.625 21.359375 13.8125 
Q 24.46875 10.015625 29.6875 10.015625 
Q 33.59375 10.015625 36.078125 12.234375 
Q 38.578125 14.453125 39.59375 19.875 
L 53.078125 17.578125 
Q 50.984375 8.296875 45.015625 3.5625 
Q 39.0625 -1.171875 29.046875 -1.171875 
Q 17.671875 -1.171875 10.90625 6 
Q 4.15625 13.1875 4.15625 25.875 
Q 4.15625 38.71875 10.9375 45.875 
Q 17.71875 53.03125 29.296875 53.03125 
Q 38.765625 53.03125 44.359375 48.953125 
Q 49.953125 44.875 52.390625 36.53125 
z
" id="Arial-BoldMT-99"/>
    </defs>
    <g style="fill:#262626;" transform="translate(482.669879 11.4525)scale(0.16 -0.16)">
     <use xlink:href="#Arial-BoldMT-99"/>
    </g>
   </g>
   <g id="text_51">
    <!-- 4 State Assignment Accuracy -->
    <g style="fill:#262626;" transform="translate(535.786885 34.844955)scale(0.12 -0.12)">
     <use xlink:href="#ArialMT-52"/>
     <use x="55.615234" xlink:href="#ArialMT-32"/>
     <use x="83.398438" xlink:href="#ArialMT-83"/>
     <use x="150.097656" xlink:href="#ArialMT-116"/>
     <use x="177.880859" xlink:href="#ArialMT-97"/>
     <use x="233.496094" xlink:href="#ArialMT-116"/>
     <use x="261.279297" xlink:href="#ArialMT-101"/>
     <use x="316.894531" xlink:href="#ArialMT-32"/>
     <use x="339.177734" xlink:href="#ArialMT-65"/>
     <use x="405.876953" xlink:href="#ArialMT-115"/>
     <use x="455.876953" xlink:href="#ArialMT-115"/>
     <use x="505.876953" xlink:href="#ArialMT-105"/>
     <use x="528.09375" xlink:href="#ArialMT-103"/>
     <use x="583.708984" xlink:href="#ArialMT-110"/>
     <use x="639.324219" xlink:href="#ArialMT-109"/>
     <use x="722.625" xlink:href="#ArialMT-101"/>
     <use x="778.240234" xlink:href="#ArialMT-110"/>
     <use x="833.855469" xlink:href="#ArialMT-116"/>
     <use x="861.638672" xlink:href="#ArialMT-32"/>
     <use x="883.921875" xlink:href="#ArialMT-65"/>
     <use x="950.621094" xlink:href="#ArialMT-99"/>
     <use x="1000.621094" xlink:href="#ArialMT-99"/>
     <use x="1050.621094" xlink:href="#ArialMT-117"/>
     <use x="1106.236328" xlink:href="#ArialMT-114"/>
     <use x="1139.537109" xlink:href="#ArialMT-97"/>
     <use x="1195.152344" xlink:href="#ArialMT-99"/>
     <use x="1245.152344" xlink:href="#ArialMT-121"/>
    </g>
   </g>
  </g>
 </g>
 <defs>
  <clipPath id="pc4734d2d01">
   <rect height="163.379821" width="186.889473" x="40.112344" y="40.844955"/>
  </clipPath>
  <clipPath id="p57b7ea9ccd">
   <rect height="163.379821" width="186.889473" x="277.914641" y="40.844955"/>
  </clipPath>
  <clipPath id="pbc21d76162">
   <rect height="163.379821" width="186.889473" x="520.047773" y="40.844955"/>
  </clipPath>
 </defs>
</svg>
