<?xml version="1.0" encoding="UTF-8" standalone="no"?>
<!DOCTYPE svg PUBLIC "-//W3C//DTD SVG 1.1//EN"
 "http://www.w3.org/Graphics/SVG/1.1/DTD/svg11.dtd">
<!-- Generated by graphviz version 2.43.0 (0)
 -->
<!-- Pages: 1 -->
<svg width="507pt" height="392pt"
 viewBox="0.00 0.00 507.00 392.00" xmlns="http://www.w3.org/2000/svg" xmlns:xlink="http://www.w3.org/1999/xlink">
<g id="graph0" class="graph" transform="scale(1 1) rotate(0) translate(4 388)">
<polygon fill="white" stroke="transparent" points="-4,4 -4,-388 503,-388 503,4 -4,4"/>
<!-- 0 -->
<g id="node1" class="node">
<title>0</title>
<ellipse fill="lightblue" stroke="black" cx="179" cy="-366" rx="34" ry="18"/>
<text text-anchor="middle" x="179" y="-362.3" font-family="Times,serif" font-size="14.00">state 1</text>
</g>
<!-- 0&#45;&gt;0 -->
<g id="edge1" class="edge">
<title>0&#45;&gt;0</title>
<path fill="none" stroke="black" stroke-width="2.43" d="M209.58,-373.85C221.19,-374.15 230.8,-371.54 230.8,-366 230.8,-361.46 224.34,-358.88 215.6,-358.27"/>
<polygon fill="black" stroke="black" stroke-width="2.43" points="215.62,-356.17 209.58,-358.15 215.54,-360.37 215.62,-356.17"/>
<text text-anchor="middle" x="243.3" y="-362.3" font-family="Times,serif" font-size="14.00">0.81</text>
</g>
<!-- 1 -->
<g id="node2" class="node">
<title>1</title>
<ellipse fill="orange" stroke="black" cx="238" cy="-279" rx="34" ry="18"/>
<text text-anchor="middle" x="238" y="-275.3" font-family="Times,serif" font-size="14.00">state 2</text>
</g>
<!-- 0&#45;&gt;1 -->
<g id="edge2" class="edge">
<title>0&#45;&gt;1</title>
<path fill="none" stroke="black" stroke-width="0" d="M182.4,-347.73C184.97,-337.56 189.25,-324.82 196,-315 200.54,-308.39 206.66,-302.33 212.81,-297.18"/>
<polygon fill="black" stroke="black" stroke-width="0" points="214.13,-298.81 217.51,-293.43 211.51,-295.53 214.13,-298.81"/>
<text text-anchor="middle" x="205" y="-318.8" font-family="Times,serif" font-size="14.00">0.0</text>
</g>
<!-- 2 -->
<g id="node3" class="node">
<title>2</title>
<ellipse fill="lightgreen" stroke="black" cx="180" cy="-18" rx="34" ry="18"/>
<text text-anchor="middle" x="180" y="-14.3" font-family="Times,serif" font-size="14.00">state 3</text>
</g>
<!-- 0&#45;&gt;2 -->
<g id="edge3" class="edge">
<title>0&#45;&gt;2</title>
<path fill="none" stroke="black" stroke-width="0" d="M145.33,-363.7C93.48,-359.69 0,-343.64 0,-280 0,-280 0,-280 0,-104 0,-42.56 86.8,-25.46 139.85,-20.75"/>
<polygon fill="black" stroke="black" stroke-width="0" points="140.33,-22.82 146.14,-20.23 139.99,-18.63 140.33,-22.82"/>
<text text-anchor="middle" x="9" y="-188.3" font-family="Times,serif" font-size="14.00">0.0</text>
</g>
<!-- 3 -->
<g id="node4" class="node">
<title>3</title>
<ellipse fill="red" stroke="black" cx="239" cy="-105" rx="34" ry="18"/>
<text text-anchor="middle" x="239" y="-101.3" font-family="Times,serif" font-size="14.00">state 4</text>
</g>
<!-- 0&#45;&gt;3 -->
<g id="edge4" class="edge">
<title>0&#45;&gt;3</title>
<path fill="none" stroke="black" stroke-width="0.54" d="M213.1,-365.13C274.55,-364.61 400.23,-359.81 430,-330 489.36,-270.56 489.44,-202.3 432,-141 411.68,-119.32 329.36,-110.93 279.02,-107.79"/>
<polygon fill="black" stroke="black" stroke-width="0.54" points="278.86,-105.68 272.74,-107.41 278.6,-109.87 278.86,-105.68"/>
<text text-anchor="middle" x="486.5" y="-231.8" font-family="Times,serif" font-size="14.00">0.18</text>
</g>
<!-- 4 -->
<g id="node5" class="node">
<title>4</title>
<ellipse fill="purple" stroke="black" cx="125" cy="-192" rx="34" ry="18"/>
<text text-anchor="middle" x="125" y="-188.3" font-family="Times,serif" font-size="14.00">state 5</text>
</g>
<!-- 0&#45;&gt;4 -->
<g id="edge5" class="edge">
<title>0&#45;&gt;4</title>
<path fill="none" stroke="black" stroke-width="0.03" d="M159.17,-351.13C143.59,-338.92 123.06,-319.59 114,-297 103.37,-270.51 109.95,-237.33 116.6,-215.67"/>
<polygon fill="black" stroke="black" stroke-width="0.03" points="118.62,-216.24 118.47,-209.88 114.63,-214.94 118.62,-216.24"/>
<text text-anchor="middle" x="126.5" y="-275.3" font-family="Times,serif" font-size="14.00">0.01</text>
</g>
<!-- 1&#45;&gt;0 -->
<g id="edge6" class="edge">
<title>1&#45;&gt;0</title>
<path fill="none" stroke="black" stroke-width="0.03" d="M231.54,-296.99C227.31,-307.05 221.24,-319.79 214,-330 210.04,-335.58 205.16,-341.08 200.31,-346"/>
<polygon fill="black" stroke="black" stroke-width="0.03" points="198.7,-344.64 195.9,-350.35 201.65,-347.63 198.7,-344.64"/>
<text text-anchor="middle" x="234.5" y="-318.8" font-family="Times,serif" font-size="14.00">0.01</text>
</g>
<!-- 1&#45;&gt;1 -->
<g id="edge7" class="edge">
<title>1&#45;&gt;1</title>
<path fill="none" stroke="black" stroke-width="0.5" d="M268.58,-286.85C280.19,-287.15 289.8,-284.54 289.8,-279 289.8,-274.46 283.34,-271.88 274.6,-271.27"/>
<polygon fill="black" stroke="black" stroke-width="0.5" points="274.62,-269.17 268.58,-271.15 274.54,-273.37 274.62,-269.17"/>
<text text-anchor="middle" x="302.3" y="-275.3" font-family="Times,serif" font-size="14.00">0.17</text>
</g>
<!-- 1&#45;&gt;2 -->
<g id="edge8" class="edge">
<title>1&#45;&gt;2</title>
<path fill="none" stroke="black" stroke-width="0.05" d="M271.81,-277.54C299.34,-275.26 337.13,-267.44 359,-243 415.02,-180.4 417.73,-114.06 359,-54 340.04,-34.61 266.3,-25.5 219.58,-21.59"/>
<polygon fill="black" stroke="black" stroke-width="0.05" points="219.61,-19.49 213.46,-21.09 219.27,-23.67 219.61,-19.49"/>
<text text-anchor="middle" x="414.5" y="-144.8" font-family="Times,serif" font-size="14.00">0.02</text>
</g>
<!-- 1&#45;&gt;3 -->
<g id="edge9" class="edge">
<title>1&#45;&gt;3</title>
<path fill="none" stroke="black" stroke-width="0" d="M238.1,-260.88C238.28,-229.84 238.66,-164.26 238.86,-129.22"/>
<polygon fill="black" stroke="black" stroke-width="0" points="240.96,-129.06 238.9,-123.05 236.76,-129.04 240.96,-129.06"/>
<text text-anchor="middle" x="247" y="-188.3" font-family="Times,serif" font-size="14.00">0.0</text>
</g>
<!-- 1&#45;&gt;4 -->
<g id="edge10" class="edge">
<title>1&#45;&gt;4</title>
<path fill="none" stroke="black" stroke-width="2.41" d="M223.16,-262.65C212.72,-252.25 198.13,-238.55 184,-228 174.5,-220.91 163.46,-214.04 153.52,-208.29"/>
<polygon fill="black" stroke="black" stroke-width="2.41" points="154.38,-206.36 148.13,-205.22 152.3,-210.01 154.38,-206.36"/>
<text text-anchor="middle" x="210" y="-231.8" font-family="Times,serif" font-size="14.00">0.8</text>
</g>
<!-- 2&#45;&gt;0 -->
<g id="edge11" class="edge">
<title>2&#45;&gt;0</title>
<path fill="none" stroke="black" stroke-width="0" d="M149.18,-25.53C111.87,-35.45 54,-58.22 54,-104 54,-280 54,-280 54,-280 54,-323.1 105.43,-345.88 142.32,-356.67"/>
<polygon fill="black" stroke="black" stroke-width="0" points="141.75,-358.69 148.1,-358.31 142.9,-354.65 141.75,-358.69"/>
<text text-anchor="middle" x="63" y="-188.3" font-family="Times,serif" font-size="14.00">0.0</text>
</g>
<!-- 2&#45;&gt;1 -->
<g id="edge12" class="edge">
<title>2&#45;&gt;1</title>
<path fill="none" stroke="black" stroke-width="0.1" d="M211.98,-23.86C246.62,-31.02 300.24,-48.05 325,-87 362.32,-145.72 295.58,-223.09 259.24,-258.63"/>
<polygon fill="black" stroke="black" stroke-width="0.1" points="257.4,-257.48 254.54,-263.16 260.32,-260.51 257.4,-257.48"/>
<text text-anchor="middle" x="346.5" y="-144.8" font-family="Times,serif" font-size="14.00">0.03</text>
</g>
<!-- 2&#45;&gt;2 -->
<g id="edge13" class="edge">
<title>2&#45;&gt;2</title>
<path fill="none" stroke="black" stroke-width="2.81" d="M210.58,-25.85C222.19,-26.15 231.8,-23.54 231.8,-18 231.8,-13.46 225.34,-10.88 216.6,-10.27"/>
<polygon fill="black" stroke="black" stroke-width="2.81" points="216.62,-8.17 210.58,-10.15 216.54,-12.37 216.62,-8.17"/>
<text text-anchor="middle" x="244.3" y="-14.3" font-family="Times,serif" font-size="14.00">0.94</text>
</g>
<!-- 2&#45;&gt;3 -->
<g id="edge14" class="edge">
<title>2&#45;&gt;3</title>
<path fill="none" stroke="black" stroke-width="0" d="M183.4,-36.27C185.97,-46.44 190.25,-59.17 197,-69 201.54,-75.61 207.66,-81.67 213.81,-86.82"/>
<polygon fill="black" stroke="black" stroke-width="0" points="212.51,-88.47 218.51,-90.57 215.13,-85.19 212.51,-88.47"/>
<text text-anchor="middle" x="206" y="-57.8" font-family="Times,serif" font-size="14.00">0.0</text>
</g>
<!-- 2&#45;&gt;4 -->
<g id="edge15" class="edge">
<title>2&#45;&gt;4</title>
<path fill="none" stroke="black" stroke-width="0.09" d="M174.02,-35.88C165.78,-59.35 150.64,-103.2 139,-141 136.34,-149.65 133.61,-159.21 131.28,-167.63"/>
<polygon fill="black" stroke="black" stroke-width="0.09" points="129.15,-167.47 129.58,-173.81 133.2,-168.58 129.15,-167.47"/>
<text text-anchor="middle" x="168.5" y="-101.3" font-family="Times,serif" font-size="14.00">0.03</text>
</g>
<!-- 3&#45;&gt;0 -->
<g id="edge16" class="edge">
<title>3&#45;&gt;0</title>
<path fill="none" stroke="black" stroke-width="0.09" d="M271.24,-110.64C304.15,-116.12 351.93,-126.37 363,-141 367.02,-146.32 363.9,-149.39 363,-156 354.25,-220.43 365.94,-247.31 324,-297 296.23,-329.9 248.99,-347.88 216.01,-356.95"/>
<polygon fill="black" stroke="black" stroke-width="0.09" points="215.28,-354.97 210.02,-358.54 216.36,-359.03 215.28,-354.97"/>
<text text-anchor="middle" x="368.5" y="-231.8" font-family="Times,serif" font-size="14.00">0.03</text>
</g>
<!-- 3&#45;&gt;1 -->
<g id="edge17" class="edge">
<title>3&#45;&gt;1</title>
<path fill="none" stroke="black" stroke-width="0.04" d="M245.75,-122.95C247.9,-128.64 250.18,-135.05 252,-141 261.03,-170.52 263.66,-179.35 260,-210 258.12,-225.71 252.66,-242.63 247.65,-255.67"/>
<polygon fill="black" stroke="black" stroke-width="0.04" points="245.65,-255.01 245.39,-261.36 249.56,-256.56 245.65,-255.01"/>
<text text-anchor="middle" x="273.5" y="-188.3" font-family="Times,serif" font-size="14.00">0.01</text>
</g>
<!-- 3&#45;&gt;2 -->
<g id="edge18" class="edge">
<title>3&#45;&gt;2</title>
<path fill="none" stroke="black" stroke-width="0.18" d="M232.54,-87.01C228.31,-76.95 222.24,-64.21 215,-54 211.04,-48.42 206.16,-42.92 201.31,-38"/>
<polygon fill="black" stroke="black" stroke-width="0.18" points="202.65,-36.37 196.9,-33.65 199.7,-39.36 202.65,-36.37"/>
<text text-anchor="middle" x="235.5" y="-57.8" font-family="Times,serif" font-size="14.00">0.06</text>
</g>
<!-- 3&#45;&gt;3 -->
<g id="edge19" class="edge">
<title>3&#45;&gt;3</title>
<path fill="none" stroke="black" stroke-width="2.52" d="M269.58,-112.85C281.19,-113.15 290.8,-110.54 290.8,-105 290.8,-100.46 284.34,-97.88 275.6,-97.27"/>
<polygon fill="black" stroke="black" stroke-width="2.52" points="275.62,-95.17 269.58,-97.15 275.54,-99.37 275.62,-95.17"/>
<text text-anchor="middle" x="303.3" y="-101.3" font-family="Times,serif" font-size="14.00">0.84</text>
</g>
<!-- 3&#45;&gt;4 -->
<g id="edge20" class="edge">
<title>3&#45;&gt;4</title>
<path fill="none" stroke="black" stroke-width="0.18" d="M223.84,-121.33C213.18,-131.71 198.32,-145.41 184,-156 174.47,-163.05 163.42,-169.91 153.49,-175.66"/>
<polygon fill="black" stroke="black" stroke-width="0.18" points="152.27,-173.94 148.1,-178.74 154.35,-177.59 152.27,-173.94"/>
<text text-anchor="middle" x="213.5" y="-144.8" font-family="Times,serif" font-size="14.00">0.06</text>
</g>
<!-- 4&#45;&gt;0 -->
<g id="edge21" class="edge">
<title>4&#45;&gt;0</title>
<path fill="none" stroke="black" stroke-width="0.01" d="M129.61,-210.18C132.26,-219.85 135.7,-232.13 139,-243 149.57,-277.8 162.92,-317.8 171.21,-342.24"/>
<polygon fill="black" stroke="black" stroke-width="0.01" points="169.28,-343.09 173.2,-348.1 173.26,-341.74 169.28,-343.09"/>
<text text-anchor="middle" x="165" y="-275.3" font-family="Times,serif" font-size="14.00">0.0</text>
</g>
<!-- 4&#45;&gt;1 -->
<g id="edge22" class="edge">
<title>4&#45;&gt;1</title>
<path fill="none" stroke="black" stroke-width="0.93" d="M131.74,-209.71C136.78,-220.43 144.6,-233.98 155,-243 168.57,-254.78 186.68,-263.03 202.52,-268.55"/>
<polygon fill="black" stroke="black" stroke-width="0.93" points="201.88,-270.55 208.24,-270.47 203.22,-266.57 201.88,-270.55"/>
<text text-anchor="middle" x="167.5" y="-231.8" font-family="Times,serif" font-size="14.00">0.31</text>
</g>
<!-- 4&#45;&gt;2 -->
<g id="edge23" class="edge">
<title>4&#45;&gt;2</title>
<path fill="none" stroke="black" stroke-width="0.06" d="M119.02,-174.12C112.52,-152.96 104.51,-115.98 116,-87 124,-66.83 141.13,-49.16 155.66,-36.89"/>
<polygon fill="black" stroke="black" stroke-width="0.06" points="157.17,-38.37 160.47,-32.94 154.5,-35.12 157.17,-38.37"/>
<text text-anchor="middle" x="128.5" y="-101.3" font-family="Times,serif" font-size="14.00">0.02</text>
</g>
<!-- 4&#45;&gt;3 -->
<g id="edge24" class="edge">
<title>4&#45;&gt;3</title>
<path fill="none" stroke="black" stroke-width="0.24" d="M131.73,-174.27C136.77,-163.55 144.58,-150 155,-141 163,-134.09 185.58,-124.84 205.32,-117.59"/>
<polygon fill="black" stroke="black" stroke-width="0.24" points="206.14,-119.53 211.06,-115.5 204.7,-115.58 206.14,-119.53"/>
<text text-anchor="middle" x="167.5" y="-144.8" font-family="Times,serif" font-size="14.00">0.08</text>
</g>
<!-- 4&#45;&gt;4 -->
<g id="edge25" class="edge">
<title>4&#45;&gt;4</title>
<path fill="none" stroke="black" stroke-width="1.77" d="M155.58,-199.85C167.19,-200.15 176.8,-197.54 176.8,-192 176.8,-187.46 170.34,-184.88 161.6,-184.27"/>
<polygon fill="black" stroke="black" stroke-width="1.77" points="161.62,-182.17 155.58,-184.15 161.54,-186.37 161.62,-182.17"/>
<text text-anchor="middle" x="189.3" y="-188.3" font-family="Times,serif" font-size="14.00">0.59</text>
</g>
</g>
</svg>
