<?xml version="1.0" encoding="UTF-8" standalone="no"?>
<!DOCTYPE svg PUBLIC "-//W3C//DTD SVG 1.1//EN"
 "http://www.w3.org/Graphics/SVG/1.1/DTD/svg11.dtd">
<!-- Generated by graphviz version 2.43.0 (0)
 -->
<!-- Pages: 1 -->
<svg width="513pt" height="392pt"
 viewBox="0.00 0.00 513.00 392.00" xmlns="http://www.w3.org/2000/svg" xmlns:xlink="http://www.w3.org/1999/xlink">
<g id="graph0" class="graph" transform="scale(1 1) rotate(0) translate(4 388)">
<polygon fill="white" stroke="transparent" points="-4,4 -4,-388 509,-388 509,4 -4,4"/>
<!-- 0 -->
<g id="node1" class="node">
<title>0</title>
<ellipse fill="lightblue" stroke="black" cx="178" cy="-366" rx="34" ry="18"/>
<text text-anchor="middle" x="178" y="-362.3" font-family="Times,serif" font-size="14.00">state 1</text>
</g>
<!-- 0&#45;&gt;0 -->
<g id="edge1" class="edge">
<title>0&#45;&gt;0</title>
<path fill="none" stroke="black" stroke-width="2.55" d="M208.58,-373.85C220.19,-374.15 229.8,-371.54 229.8,-366 229.8,-361.46 223.34,-358.88 214.6,-358.27"/>
<polygon fill="black" stroke="black" stroke-width="2.55" points="214.62,-356.17 208.58,-358.15 214.54,-360.37 214.62,-356.17"/>
<text text-anchor="middle" x="242.3" y="-362.3" font-family="Times,serif" font-size="14.00">0.85</text>
</g>
<!-- 1 -->
<g id="node2" class="node">
<title>1</title>
<ellipse fill="orange" stroke="black" cx="244" cy="-279" rx="34" ry="18"/>
<text text-anchor="middle" x="244" y="-275.3" font-family="Times,serif" font-size="14.00">state 2</text>
</g>
<!-- 0&#45;&gt;1 -->
<g id="edge2" class="edge">
<title>0&#45;&gt;1</title>
<path fill="none" stroke="black" stroke-width="0.37" d="M181.44,-348.03C184.14,-337.73 188.7,-324.75 196,-315 201.43,-307.76 208.77,-301.37 216.09,-296.1"/>
<polygon fill="black" stroke="black" stroke-width="0.37" points="217.37,-297.77 221.12,-292.63 214.99,-294.31 217.37,-297.77"/>
<text text-anchor="middle" x="208.5" y="-318.8" font-family="Times,serif" font-size="14.00">0.12</text>
</g>
<!-- 2 -->
<g id="node3" class="node">
<title>2</title>
<ellipse fill="lightgreen" stroke="black" cx="186" cy="-18" rx="34" ry="18"/>
<text text-anchor="middle" x="186" y="-14.3" font-family="Times,serif" font-size="14.00">state 3</text>
</g>
<!-- 0&#45;&gt;2 -->
<g id="edge3" class="edge">
<title>0&#45;&gt;2</title>
<path fill="none" stroke="black" stroke-width="0" d="M144.1,-363.6C92.46,-359.44 0,-343.18 0,-280 0,-280 0,-280 0,-104 0,-40.24 91.53,-24.11 146.17,-20.16"/>
<polygon fill="black" stroke="black" stroke-width="0" points="146.47,-22.24 152.32,-19.75 146.19,-18.05 146.47,-22.24"/>
<text text-anchor="middle" x="9" y="-188.3" font-family="Times,serif" font-size="14.00">0.0</text>
</g>
<!-- 3 -->
<g id="node4" class="node">
<title>3</title>
<ellipse fill="red" stroke="black" cx="244" cy="-105" rx="34" ry="18"/>
<text text-anchor="middle" x="244" y="-101.3" font-family="Times,serif" font-size="14.00">state 4</text>
</g>
<!-- 0&#45;&gt;3 -->
<g id="edge4" class="edge">
<title>0&#45;&gt;3</title>
<path fill="none" stroke="black" stroke-width="0.01" d="M211.98,-365.42C276.05,-365.45 411.16,-361.66 443,-330 502.57,-270.77 502.65,-202.1 445,-141 423.57,-118.29 336.3,-110.26 284.06,-107.46"/>
<polygon fill="black" stroke="black" stroke-width="0.01" points="283.97,-105.35 277.87,-107.14 283.75,-109.55 283.97,-105.35"/>
<text text-anchor="middle" x="496" y="-231.8" font-family="Times,serif" font-size="14.00">0.0</text>
</g>
<!-- 4 -->
<g id="node5" class="node">
<title>4</title>
<ellipse fill="purple" stroke="black" cx="131" cy="-192" rx="34" ry="18"/>
<text text-anchor="middle" x="131" y="-188.3" font-family="Times,serif" font-size="14.00">state 5</text>
</g>
<!-- 0&#45;&gt;4 -->
<g id="edge5" class="edge">
<title>0&#45;&gt;4</title>
<path fill="none" stroke="black" stroke-width="0.08" d="M158.47,-351.06C143.12,-338.81 122.9,-319.45 114,-297 103.4,-270.26 112.23,-237.14 120.62,-215.56"/>
<polygon fill="black" stroke="black" stroke-width="0.08" points="122.65,-216.15 122.96,-209.8 118.76,-214.57 122.65,-216.15"/>
<text text-anchor="middle" x="126.5" y="-275.3" font-family="Times,serif" font-size="14.00">0.03</text>
</g>
<!-- 1&#45;&gt;0 -->
<g id="edge6" class="edge">
<title>1&#45;&gt;0</title>
<path fill="none" stroke="black" stroke-width="0.33" d="M238.48,-296.81C234.6,-307.05 228.73,-320.03 221,-330 216.02,-336.43 209.64,-342.42 203.34,-347.57"/>
<polygon fill="black" stroke="black" stroke-width="0.33" points="201.97,-345.98 198.55,-351.34 204.56,-349.28 201.97,-345.98"/>
<text text-anchor="middle" x="241.5" y="-318.8" font-family="Times,serif" font-size="14.00">0.11</text>
</g>
<!-- 1&#45;&gt;1 -->
<g id="edge7" class="edge">
<title>1&#45;&gt;1</title>
<path fill="none" stroke="black" stroke-width="0.11" d="M274.58,-286.85C286.19,-287.15 295.8,-284.54 295.8,-279 295.8,-274.46 289.34,-271.88 280.6,-271.27"/>
<polygon fill="black" stroke="black" stroke-width="0.11" points="280.62,-269.17 274.58,-271.15 280.54,-273.37 280.62,-269.17"/>
<text text-anchor="middle" x="308.3" y="-275.3" font-family="Times,serif" font-size="14.00">0.04</text>
</g>
<!-- 1&#45;&gt;2 -->
<g id="edge8" class="edge">
<title>1&#45;&gt;2</title>
<path fill="none" stroke="black" stroke-width="0.01" d="M277.91,-278.71C307.51,-277.33 349.2,-270.19 372,-243 425.97,-178.63 428.53,-116.13 372,-54 352.86,-32.97 274.57,-24.38 225.86,-21.02"/>
<polygon fill="black" stroke="black" stroke-width="0.01" points="225.91,-18.91 219.78,-20.61 225.63,-23.11 225.91,-18.91"/>
<text text-anchor="middle" x="422" y="-144.8" font-family="Times,serif" font-size="14.00">0.0</text>
</g>
<!-- 1&#45;&gt;3 -->
<g id="edge9" class="edge">
<title>1&#45;&gt;3</title>
<path fill="none" stroke="black" stroke-width="2.55" d="M244,-260.88C244,-229.84 244,-164.26 244,-129.22"/>
<polygon fill="black" stroke="black" stroke-width="2.55" points="246.1,-129.05 244,-123.05 241.9,-129.05 246.1,-129.05"/>
<text text-anchor="middle" x="256.5" y="-188.3" font-family="Times,serif" font-size="14.00">0.85</text>
</g>
<!-- 1&#45;&gt;4 -->
<g id="edge10" class="edge">
<title>1&#45;&gt;4</title>
<path fill="none" stroke="black" stroke-width="0" d="M228.82,-262.71C218.15,-252.34 203.28,-238.64 189,-228 179.69,-221.06 168.94,-214.27 159.24,-208.54"/>
<polygon fill="black" stroke="black" stroke-width="0" points="160.21,-206.68 153.97,-205.48 158.1,-210.31 160.21,-206.68"/>
<text text-anchor="middle" x="215" y="-231.8" font-family="Times,serif" font-size="14.00">0.0</text>
</g>
<!-- 2&#45;&gt;0 -->
<g id="edge11" class="edge">
<title>2&#45;&gt;0</title>
<path fill="none" stroke="black" stroke-width="0.09" d="M154.72,-24.82C115.68,-34.09 54,-56.3 54,-104 54,-280 54,-280 54,-280 54,-322.68 104.6,-345.52 141.16,-356.45"/>
<polygon fill="black" stroke="black" stroke-width="0.09" points="141,-358.59 147.35,-358.23 142.16,-354.55 141,-358.59"/>
<text text-anchor="middle" x="66.5" y="-188.3" font-family="Times,serif" font-size="14.00">0.03</text>
</g>
<!-- 2&#45;&gt;1 -->
<g id="edge12" class="edge">
<title>2&#45;&gt;1</title>
<path fill="none" stroke="black" stroke-width="0.01" d="M217.47,-24.7C250.28,-32.49 300.05,-49.99 323,-87 352.15,-134.01 327.62,-159.98 304,-210 295.08,-228.89 279.28,-246.47 266.14,-259.02"/>
<polygon fill="black" stroke="black" stroke-width="0.01" points="264.39,-257.78 261.43,-263.41 267.25,-260.86 264.39,-257.78"/>
<text text-anchor="middle" x="343" y="-144.8" font-family="Times,serif" font-size="14.00">0.0</text>
</g>
<!-- 2&#45;&gt;2 -->
<g id="edge13" class="edge">
<title>2&#45;&gt;2</title>
<path fill="none" stroke="black" stroke-width="2.71" d="M216.58,-25.85C228.19,-26.15 237.8,-23.54 237.8,-18 237.8,-13.46 231.34,-10.88 222.6,-10.27"/>
<polygon fill="black" stroke="black" stroke-width="2.71" points="222.62,-8.17 216.58,-10.15 222.54,-12.37 222.62,-8.17"/>
<text text-anchor="middle" x="246.8" y="-14.3" font-family="Times,serif" font-size="14.00">0.9</text>
</g>
<!-- 2&#45;&gt;3 -->
<g id="edge14" class="edge">
<title>2&#45;&gt;3</title>
<path fill="none" stroke="black" stroke-width="0" d="M188.13,-36.32C190.01,-46.49 193.52,-59.24 200,-69 204.56,-75.87 210.9,-82.02 217.35,-87.17"/>
<polygon fill="black" stroke="black" stroke-width="0" points="216.23,-88.96 222.28,-90.91 218.77,-85.61 216.23,-88.96"/>
<text text-anchor="middle" x="209" y="-57.8" font-family="Times,serif" font-size="14.00">0.0</text>
</g>
<!-- 2&#45;&gt;4 -->
<g id="edge15" class="edge">
<title>2&#45;&gt;4</title>
<path fill="none" stroke="black" stroke-width="0.19" d="M179.46,-35.79C170.51,-59.15 154.26,-102.88 143,-141 140.46,-149.6 138.07,-159.14 136.1,-167.57"/>
<polygon fill="black" stroke="black" stroke-width="0.19" points="133.97,-167.44 134.68,-173.76 138.07,-168.38 133.97,-167.44"/>
<text text-anchor="middle" x="173.5" y="-101.3" font-family="Times,serif" font-size="14.00">0.06</text>
</g>
<!-- 3&#45;&gt;0 -->
<g id="edge16" class="edge">
<title>3&#45;&gt;0</title>
<path fill="none" stroke="black" stroke-width="1.71" d="M277.71,-106.49C303.73,-108.86 338.2,-116.79 356,-141 397.64,-197.63 373.19,-241.54 330,-297 302.04,-332.9 251,-350.36 215.84,-358.48"/>
<polygon fill="black" stroke="black" stroke-width="1.71" points="215.3,-356.45 209.9,-359.8 216.21,-360.55 215.3,-356.45"/>
<text text-anchor="middle" x="384.5" y="-231.8" font-family="Times,serif" font-size="14.00">0.57</text>
</g>
<!-- 3&#45;&gt;1 -->
<g id="edge17" class="edge">
<title>3&#45;&gt;1</title>
<path fill="none" stroke="black" stroke-width="0.04" d="M253.24,-122.43C260.22,-135.84 269.22,-155.52 273,-174 276.2,-189.68 276.2,-194.32 273,-210 269.72,-226.03 262.52,-242.96 256.11,-255.91"/>
<polygon fill="black" stroke="black" stroke-width="0.04" points="254.08,-255.27 253.24,-261.57 257.83,-257.17 254.08,-255.27"/>
<text text-anchor="middle" x="287.5" y="-188.3" font-family="Times,serif" font-size="14.00">0.01</text>
</g>
<!-- 3&#45;&gt;2 -->
<g id="edge18" class="edge">
<title>3&#45;&gt;2</title>
<path fill="none" stroke="black" stroke-width="1.21" d="M236.6,-87.16C231.88,-77.16 225.29,-64.42 218,-54 214.39,-48.84 210.08,-43.63 205.81,-38.88"/>
<polygon fill="black" stroke="black" stroke-width="1.21" points="207.19,-37.28 201.58,-34.29 204.1,-40.12 207.19,-37.28"/>
<text text-anchor="middle" x="235" y="-57.8" font-family="Times,serif" font-size="14.00">0.4</text>
</g>
<!-- 3&#45;&gt;3 -->
<g id="edge19" class="edge">
<title>3&#45;&gt;3</title>
<path fill="none" stroke="black" stroke-width="0" d="M274.58,-112.85C286.19,-113.15 295.8,-110.54 295.8,-105 295.8,-100.46 289.34,-97.88 280.6,-97.27"/>
<polygon fill="black" stroke="black" stroke-width="0" points="280.62,-95.17 274.58,-97.15 280.54,-99.37 280.62,-95.17"/>
<text text-anchor="middle" x="304.8" y="-101.3" font-family="Times,serif" font-size="14.00">0.0</text>
</g>
<!-- 3&#45;&gt;4 -->
<g id="edge20" class="edge">
<title>3&#45;&gt;4</title>
<path fill="none" stroke="black" stroke-width="0.04" d="M228.12,-121.17C217,-131.48 201.58,-145.16 187,-156 178,-162.69 167.7,-169.38 158.42,-175.09"/>
<polygon fill="black" stroke="black" stroke-width="0.04" points="157.12,-173.42 153.08,-178.33 159.3,-177.01 157.12,-173.42"/>
<text text-anchor="middle" x="216.5" y="-144.8" font-family="Times,serif" font-size="14.00">0.01</text>
</g>
<!-- 4&#45;&gt;0 -->
<g id="edge21" class="edge">
<title>4&#45;&gt;0</title>
<path fill="none" stroke="black" stroke-width="0.03" d="M135.66,-210.05C144.13,-241.04 162.05,-306.61 171.63,-341.7"/>
<polygon fill="black" stroke="black" stroke-width="0.03" points="169.71,-342.65 173.32,-347.88 173.76,-341.54 169.71,-342.65"/>
<text text-anchor="middle" x="172.5" y="-275.3" font-family="Times,serif" font-size="14.00">0.01</text>
</g>
<!-- 4&#45;&gt;1 -->
<g id="edge22" class="edge">
<title>4&#45;&gt;1</title>
<path fill="none" stroke="black" stroke-width="0" d="M139.9,-209.58C146.29,-220.24 155.75,-233.78 167,-243 179.52,-253.26 195.54,-261.18 209.72,-266.86"/>
<polygon fill="black" stroke="black" stroke-width="0" points="209.32,-268.96 215.67,-269.16 210.83,-265.04 209.32,-268.96"/>
<text text-anchor="middle" x="176" y="-231.8" font-family="Times,serif" font-size="14.00">0.0</text>
</g>
<!-- 4&#45;&gt;2 -->
<g id="edge23" class="edge">
<title>4&#45;&gt;2</title>
<path fill="none" stroke="black" stroke-width="0.12" d="M124.43,-174.1C117.26,-152.94 108.26,-115.94 120,-87 128.28,-66.59 145.94,-48.93 160.92,-36.73"/>
<polygon fill="black" stroke="black" stroke-width="0.12" points="162.48,-38.17 165.88,-32.8 159.87,-34.88 162.48,-38.17"/>
<text text-anchor="middle" x="132.5" y="-101.3" font-family="Times,serif" font-size="14.00">0.04</text>
</g>
<!-- 4&#45;&gt;3 -->
<g id="edge24" class="edge">
<title>4&#45;&gt;3</title>
<path fill="none" stroke="black" stroke-width="0.04" d="M136.65,-174.25C141.02,-163.51 148.01,-149.96 158,-141 166.08,-133.75 189.47,-124.44 209.82,-117.24"/>
<polygon fill="black" stroke="black" stroke-width="0.04" points="210.76,-119.14 215.74,-115.18 209.38,-115.17 210.76,-119.14"/>
<text text-anchor="middle" x="170.5" y="-144.8" font-family="Times,serif" font-size="14.00">0.01</text>
</g>
<!-- 4&#45;&gt;4 -->
<g id="edge25" class="edge">
<title>4&#45;&gt;4</title>
<path fill="none" stroke="black" stroke-width="2.81" d="M161.58,-199.85C173.19,-200.15 182.8,-197.54 182.8,-192 182.8,-187.46 176.34,-184.88 167.6,-184.27"/>
<polygon fill="black" stroke="black" stroke-width="2.81" points="167.62,-182.17 161.58,-184.15 167.54,-186.37 167.62,-182.17"/>
<text text-anchor="middle" x="195.3" y="-188.3" font-family="Times,serif" font-size="14.00">0.94</text>
</g>
</g>
</svg>
