<?xml version="1.0" encoding="UTF-8" standalone="no"?>
<!DOCTYPE svg PUBLIC "-//W3C//DTD SVG 1.1//EN" "http://www.w3.org/Graphics/SVG/1.1/DTD/svg11.dtd">
<svg width="100%" height="100%" viewBox="0 0 349 437" version="1.1" xmlns="http://www.w3.org/2000/svg" xmlns:xlink="http://www.w3.org/1999/xlink" xml:space="preserve" xmlns:serif="http://www.serif.com/" style="fill-rule:evenodd;clip-rule:evenodd;">
    <g id="Artboard1" transform="matrix(1,0,0,1.0046,-544,17.0782)">
        <rect x="544" y="-17" width="349" height="435" style="fill:none;"/>
        <clipPath id="_clip1">
            <rect x="544" y="-17" width="349" height="435"/>
        </clipPath>
        <g clip-path="url(#_clip1)">
            <g id="graph0" transform="matrix(1,0,0,0.995423,4,388.137)">
                <g transform="matrix(0.704142,0,0,1.1199,539.817,27.5204)">
                    <rect x="-4" y="-388" width="507" height="392" style="fill:white;fill-rule:nonzero;"/>
                </g>
                <g id="node1" transform="matrix(1,0,0,1,459,27)">
                    <ellipse cx="179" cy="-366" rx="34" ry="18" style="fill:rgb(173,216,230);stroke:black;stroke-width:1px;"/>
                    <g transform="matrix(1,0,0,1,179,-362.3)">
                        <text x="-18.078px" y="0px" style="font-family:'TimesNewRomanPSMT', 'Times New Roman', serif;font-size:14px;">state 1</text>
                    </g>
                </g>
                <g id="edge1" transform="matrix(1,0,0,1,459,27)">
                    <path d="M209.58,-373.85C221.19,-374.15 230.8,-371.54 230.8,-366C230.8,-361.46 224.34,-358.88 215.6,-358.27" style="fill:none;fill-rule:nonzero;stroke:black;stroke-width:2.43px;"/>
                    <path d="M215.62,-356.17L209.58,-358.15L215.54,-360.37L215.62,-356.17Z" style="fill-rule:nonzero;stroke:black;stroke-width:2.43px;"/>
                    <g transform="matrix(1,0,0,1,241.3,-370.3)">
                        <text x="-12.25px" y="0px" style="font-family:'TimesNewRomanPSMT', 'Times New Roman', serif;font-size:14px;">0.81</text>
                    </g>
                </g>
                <g id="node2" transform="matrix(1,0,0,1,459,27)">
                    <ellipse cx="238" cy="-279" rx="34" ry="18" style="fill:rgb(255,165,0);stroke:black;stroke-width:1px;"/>
                    <g transform="matrix(1,0,0,1,238,-275.3)">
                        <text x="-18.078px" y="0px" style="font-family:'TimesNewRomanPSMT', 'Times New Roman', serif;font-size:14px;">state 2</text>
                    </g>
                </g>
                <g id="edge2">
                </g>
                <g id="node3" transform="matrix(1,0,0,1,459,27)">
                    <ellipse cx="180" cy="-18" rx="34" ry="18" style="fill:rgb(144,238,144);stroke:black;stroke-width:1px;"/>
                    <g transform="matrix(1,0,0,1,180,-14.3)">
                        <text x="-18.078px" y="0px" style="font-family:'TimesNewRomanPSMT', 'Times New Roman', serif;font-size:14px;">state 3</text>
                    </g>
                </g>
                <g id="edge3">
                </g>
                <g id="node4" transform="matrix(1,0,0,1,459,27)">
                    <ellipse cx="239" cy="-105" rx="34" ry="18" style="fill:rgb(255,0,0);stroke:black;stroke-width:1px;"/>
                    <g transform="matrix(1,0,0,1,239,-101.3)">
                        <text x="-18.078px" y="0px" style="font-family:'TimesNewRomanPSMT', 'Times New Roman', serif;font-size:14px;">state 4</text>
                    </g>
                </g>
                <g id="edge4" transform="matrix(1,0,0,1,459,27)">
                    <path d="M213.1,-365.13C274.55,-364.61 468.44,-197.3 411,-136C390.68,-114.32 329.36,-110.93 279.02,-107.79" style="fill:none;fill-rule:nonzero;stroke:black;stroke-width:0.54px;"/>
                    <path d="M278.86,-105.68L272.74,-107.41L278.6,-109.87L278.86,-105.68Z" style="fill-rule:nonzero;stroke:black;stroke-width:0.54px;"/>
                    <g transform="matrix(1,0,0,1,333.5,-308.8)">
                        <text x="-12.25px" y="0px" style="font-family:'TimesNewRomanPSMT', 'Times New Roman', serif;font-size:14px;">0.18</text>
                    </g>
                </g>
                <g id="node5" transform="matrix(1,0,0,1,459,27)">
                    <ellipse cx="125" cy="-192" rx="34" ry="18" style="fill:rgb(128,0,128);stroke:black;stroke-width:1px;"/>
                    <g transform="matrix(1,0,0,1,125,-188.3)">
                        <text x="-18.078px" y="0px" style="font-family:'TimesNewRomanPSMT', 'Times New Roman', serif;font-size:14px;">state 5</text>
                    </g>
                </g>
                <g id="edge5" transform="matrix(1,0,0,1,459,27)">
                    <path d="M159.17,-351.13C143.59,-338.92 123.06,-319.59 114,-297C103.37,-270.51 109.95,-237.33 116.6,-215.67" style="fill:none;fill-rule:nonzero;stroke:black;stroke-width:0.03px;"/>
                    <path d="M118.62,-216.24L118.47,-209.88L114.63,-214.94L118.62,-216.24Z" style="fill-rule:nonzero;stroke:black;stroke-width:0.03px;"/>
                    <g transform="matrix(1,0,0,1,126.5,-275.3)">
                        <text x="-12.25px" y="0px" style="font-family:'TimesNewRomanPSMT', 'Times New Roman', serif;font-size:14px;">0.01</text>
                    </g>
                </g>
                <g id="edge6" transform="matrix(1,0,0,1,459,27)">
                    <path d="M231.54,-296.99C227.31,-307.05 221.24,-319.79 214,-330C210.04,-335.58 205.16,-341.08 200.31,-346" style="fill:none;fill-rule:nonzero;stroke:black;stroke-width:0.03px;"/>
                    <path d="M198.7,-344.64L195.9,-350.35L201.65,-347.63L198.7,-344.64Z" style="fill-rule:nonzero;stroke:black;stroke-width:0.03px;"/>
                    <g transform="matrix(1,0,0,1,234.5,-318.8)">
                        <text x="-12.25px" y="0px" style="font-family:'TimesNewRomanPSMT', 'Times New Roman', serif;font-size:14px;">0.01</text>
                    </g>
                </g>
                <g id="edge7" transform="matrix(1,0,0,1,459,27)">
                    <path d="M268.58,-286.85C280.19,-287.15 289.8,-284.54 289.8,-279C289.8,-274.46 283.34,-271.88 274.6,-271.27" style="fill:none;fill-rule:nonzero;stroke:black;stroke-width:0.5px;"/>
                    <path d="M274.62,-269.17L268.58,-271.15L274.54,-273.37L274.62,-269.17Z" style="fill-rule:nonzero;stroke:black;stroke-width:0.5px;"/>
                    <g transform="matrix(1,0,0,1,289.3,-260.3)">
                        <text x="-12.25px" y="0px" style="font-family:'TimesNewRomanPSMT', 'Times New Roman', serif;font-size:14px;">0.17</text>
                    </g>
                </g>
                <g id="edge8" transform="matrix(1,0,0,1,459,27)">
                    <path d="M271.81,-277.54C299.34,-275.26 337.13,-267.44 359,-243C415.02,-180.4 417.73,-114.06 359,-54C340.04,-34.61 266.3,-25.5 219.58,-21.59" style="fill:none;fill-rule:nonzero;stroke:black;stroke-width:0.05px;"/>
                    <path d="M219.61,-19.49L213.46,-21.09L219.27,-23.67L219.61,-19.49Z" style="fill-rule:nonzero;stroke:black;stroke-width:0.05px;"/>
                    <g transform="matrix(1,0,0,1,388.5,-141.8)">
                        <text x="-12.25px" y="0px" style="font-family:'TimesNewRomanPSMT', 'Times New Roman', serif;font-size:14px;">0.02</text>
                    </g>
                </g>
                <g id="edge9">
                </g>
                <g id="edge10" transform="matrix(1,0,0,1,459,27)">
                    <path d="M223.16,-262.65C212.72,-252.25 198.13,-238.55 184,-228C174.5,-220.91 163.46,-214.04 153.52,-208.29" style="fill:none;fill-rule:nonzero;stroke:black;stroke-width:2.41px;"/>
                    <path d="M154.38,-206.36L148.13,-205.22L152.3,-210.01L154.38,-206.36Z" style="fill-rule:nonzero;stroke:black;stroke-width:2.41px;"/>
                    <g transform="matrix(1,0,0,1,210,-231.8)">
                        <text x="-8.75px" y="0px" style="font-family:'TimesNewRomanPSMT', 'Times New Roman', serif;font-size:14px;">0.8</text>
                    </g>
                </g>
                <g id="edge11">
                </g>
                <g id="edge12" transform="matrix(1,0,0,1,459,27)">
                    <path d="M211.98,-23.86C246.62,-31.02 300.24,-48.05 325,-87C362.32,-145.72 295.58,-223.09 259.24,-258.63" style="fill:none;fill-rule:nonzero;stroke:black;stroke-width:0.1px;"/>
                    <path d="M257.4,-257.48L254.54,-263.16L260.32,-260.51L257.4,-257.48Z" style="fill-rule:nonzero;stroke:black;stroke-width:0.1px;"/>
                    <g transform="matrix(1,0,0,1,338.5,-167.8)">
                        <text x="-12.25px" y="0px" style="font-family:'TimesNewRomanPSMT', 'Times New Roman', serif;font-size:14px;">0.03</text>
                    </g>
                </g>
                <g id="edge13" transform="matrix(1,0,0,1,459,27)">
                    <path d="M210.58,-25.85C222.19,-26.15 231.8,-23.54 231.8,-18C231.8,-13.46 225.34,-10.88 216.6,-10.27" style="fill:none;fill-rule:nonzero;stroke:black;stroke-width:2.81px;"/>
                    <path d="M216.62,-8.17L210.58,-10.15L216.54,-12.37L216.62,-8.17Z" style="fill-rule:nonzero;stroke:black;stroke-width:2.81px;"/>
                    <g transform="matrix(1,0,0,1,244.3,-14.3)">
                        <text x="-12.25px" y="0px" style="font-family:'TimesNewRomanPSMT', 'Times New Roman', serif;font-size:14px;">0.94</text>
                    </g>
                </g>
                <g id="edge14">
                </g>
                <g id="edge15" transform="matrix(1,0,0,1,459,27)">
                    <path d="M174.02,-35.88C165.78,-59.35 150.64,-103.2 139,-141C136.34,-149.65 133.61,-159.21 131.28,-167.63" style="fill:none;fill-rule:nonzero;stroke:black;stroke-width:0.09px;"/>
                    <path d="M129.15,-167.47L129.58,-173.81L133.2,-168.58L129.15,-167.47Z" style="fill-rule:nonzero;stroke:black;stroke-width:0.09px;"/>
                    <g transform="matrix(1,0,0,1,168.5,-101.3)">
                        <text x="-12.25px" y="0px" style="font-family:'TimesNewRomanPSMT', 'Times New Roman', serif;font-size:14px;">0.03</text>
                    </g>
                </g>
                <g id="edge16" transform="matrix(1,0,0,1,459,27)">
                    <g transform="matrix(0.918097,0,0,1,17.6918,0)">
                        <path d="M272.329,-115.64C305.239,-121.12 365.94,-247.31 324,-297C296.23,-329.9 248.99,-347.88 216.01,-356.95" style="fill:none;fill-rule:nonzero;stroke:black;stroke-width:0.09px;"/>
                    </g>
                    <path d="M215.28,-354.97L210.02,-358.54L216.36,-359.03L215.28,-354.97Z" style="fill-rule:nonzero;stroke:black;stroke-width:0.09px;"/>
                    <g transform="matrix(1,0,0,1,341.5,-224.8)">
                        <text x="-12.25px" y="0px" style="font-family:'TimesNewRomanPSMT', 'Times New Roman', serif;font-size:14px;">0.03</text>
                    </g>
                </g>
                <g id="edge17" transform="matrix(1,0,0,1,459,27)">
                    <path d="M245.75,-122.95C247.9,-128.64 250.18,-135.05 252,-141C261.03,-170.52 263.66,-179.35 260,-210C258.12,-225.71 252.66,-242.63 247.65,-255.67" style="fill:none;fill-rule:nonzero;stroke:black;stroke-width:0.04px;"/>
                    <path d="M245.65,-255.01L245.39,-261.36L249.56,-256.56L245.65,-255.01Z" style="fill-rule:nonzero;stroke:black;stroke-width:0.04px;"/>
                    <g transform="matrix(1,0,0,1,273.5,-188.3)">
                        <text x="-12.25px" y="0px" style="font-family:'TimesNewRomanPSMT', 'Times New Roman', serif;font-size:14px;">0.01</text>
                    </g>
                </g>
                <g id="edge18" transform="matrix(1,0,0,1,459,27)">
                    <path d="M232.54,-87.01C228.31,-76.95 222.24,-64.21 215,-54C211.04,-48.42 206.16,-42.92 201.31,-38" style="fill:none;fill-rule:nonzero;stroke:black;stroke-width:0.18px;"/>
                    <path d="M202.65,-36.37L196.9,-33.65L199.7,-39.36L202.65,-36.37Z" style="fill-rule:nonzero;stroke:black;stroke-width:0.18px;"/>
                    <g transform="matrix(1,0,0,1,235.5,-57.8)">
                        <text x="-12.25px" y="0px" style="font-family:'TimesNewRomanPSMT', 'Times New Roman', serif;font-size:14px;">0.06</text>
                    </g>
                </g>
                <g id="edge19" transform="matrix(1,0,0,1,459,27)">
                    <path d="M269.58,-112.85C281.19,-113.15 290.8,-110.54 290.8,-105C290.8,-100.46 284.34,-97.88 275.6,-97.27" style="fill:none;fill-rule:nonzero;stroke:black;stroke-width:2.52px;"/>
                    <path d="M275.62,-95.17L269.58,-97.15L275.54,-99.37L275.62,-95.17Z" style="fill-rule:nonzero;stroke:black;stroke-width:2.52px;"/>
                    <g transform="matrix(1,0,0,1,285.3,-82.3)">
                        <text x="-12.25px" y="0px" style="font-family:'TimesNewRomanPSMT', 'Times New Roman', serif;font-size:14px;">0.84</text>
                    </g>
                </g>
                <g id="edge20" transform="matrix(1,0,0,1,459,27)">
                    <path d="M223.84,-121.33C213.18,-131.71 198.32,-145.41 184,-156C174.47,-163.05 163.42,-169.91 153.49,-175.66" style="fill:none;fill-rule:nonzero;stroke:black;stroke-width:0.18px;"/>
                    <path d="M152.27,-173.94L148.1,-178.74L154.35,-177.59L152.27,-173.94Z" style="fill-rule:nonzero;stroke:black;stroke-width:0.18px;"/>
                    <g transform="matrix(1,0,0,1,213.5,-144.8)">
                        <text x="-12.25px" y="0px" style="font-family:'TimesNewRomanPSMT', 'Times New Roman', serif;font-size:14px;">0.06</text>
                    </g>
                </g>
                <g id="edge21">
                </g>
                <g id="edge22" transform="matrix(1,0,0,1,459,27)">
                    <path d="M131.74,-209.71C136.78,-220.43 144.6,-233.98 155,-243C168.57,-254.78 186.68,-263.03 202.52,-268.55" style="fill:none;fill-rule:nonzero;stroke:black;stroke-width:0.93px;"/>
                    <path d="M201.88,-270.55L208.24,-270.47L203.22,-266.57L201.88,-270.55Z" style="fill-rule:nonzero;stroke:black;stroke-width:0.93px;"/>
                    <g transform="matrix(1,0,0,1,167.5,-231.8)">
                        <text x="-12.25px" y="0px" style="font-family:'TimesNewRomanPSMT', 'Times New Roman', serif;font-size:14px;">0.31</text>
                    </g>
                </g>
                <g id="edge23" transform="matrix(1,0,0,1,459,27)">
                    <path d="M119.02,-174.12C112.52,-152.96 104.51,-115.98 116,-87C124,-66.83 141.13,-49.16 155.66,-36.89" style="fill:none;fill-rule:nonzero;stroke:black;stroke-width:0.06px;"/>
                    <path d="M157.17,-38.37L160.47,-32.94L154.5,-35.12L157.17,-38.37Z" style="fill-rule:nonzero;stroke:black;stroke-width:0.06px;"/>
                    <g transform="matrix(1,0,0,1,128.5,-101.3)">
                        <text x="-12.25px" y="0px" style="font-family:'TimesNewRomanPSMT', 'Times New Roman', serif;font-size:14px;">0.02</text>
                    </g>
                </g>
                <g id="edge24" transform="matrix(1,0,0,1,459,27)">
                    <path d="M131.73,-174.27C136.77,-163.55 144.58,-150 155,-141C163,-134.09 185.58,-124.84 205.32,-117.59" style="fill:none;fill-rule:nonzero;stroke:black;stroke-width:0.24px;"/>
                    <path d="M206.14,-119.53L211.06,-115.5L204.7,-115.58L206.14,-119.53Z" style="fill-rule:nonzero;stroke:black;stroke-width:0.24px;"/>
                    <g transform="matrix(1,0,0,1,167.5,-144.8)">
                        <text x="-12.25px" y="0px" style="font-family:'TimesNewRomanPSMT', 'Times New Roman', serif;font-size:14px;">0.08</text>
                    </g>
                </g>
                <g id="edge25" transform="matrix(1,0,0,1,459,27)">
                    <path d="M155.58,-199.85C167.19,-200.15 176.8,-197.54 176.8,-192C176.8,-187.46 170.34,-184.88 161.6,-184.27" style="fill:none;fill-rule:nonzero;stroke:black;stroke-width:1.77px;"/>
                    <path d="M161.62,-182.17L155.58,-184.15L161.54,-186.37L161.62,-182.17Z" style="fill-rule:nonzero;stroke:black;stroke-width:1.77px;"/>
                    <g transform="matrix(1,0,0,1,189.3,-188.3)">
                        <text x="-12.25px" y="0px" style="font-family:'TimesNewRomanPSMT', 'Times New Roman', serif;font-size:14px;">0.59</text>
                    </g>
                </g>
                <g transform="matrix(1.23704,0,0,1.23704,440.97,-315.933)">
                    <text x="152px" y="-63.404px" style="font-family:'ArialMT', 'Arial', sans-serif;font-size:12px;">State transition diagram</text>
                </g>
            </g>
        </g>
    </g>
</svg>
