<?xml version="1.0" encoding="UTF-8" standalone="no"?>
<!DOCTYPE svg PUBLIC "-//W3C//DTD SVG 1.1//EN" "http://www.w3.org/Graphics/SVG/1.1/DTD/svg11.dtd">
<svg width="100%" height="100%" viewBox="0 0 349 437" version="1.1" xmlns="http://www.w3.org/2000/svg" xmlns:xlink="http://www.w3.org/1999/xlink" xml:space="preserve" xmlns:serif="http://www.serif.com/" style="fill-rule:evenodd;clip-rule:evenodd;">
    <g id="Artboard1" transform="matrix(1,0,0,1.0046,-544,17.0782)">
        <g transform="matrix(1,0,0,0.995423,434,434.922)">
            <ellipse cx="179" cy="-366" rx="34" ry="18" style="fill:rgb(173,216,230);stroke:black;stroke-width:1px;"/>
        </g>
        <g transform="matrix(1,0,0,0.995423,594.922,74.2801)">
            <text x="0px" y="0px" style="font-family:'TimesNewRomanPSMT', 'Times New Roman', serif;font-size:14px;">state 1</text>
        </g>
        <g transform="matrix(-0.999983,-0.0057709,0.00582411,-0.999983,1222.95,143.133)">
            <g transform="matrix(1,0,0,0.995423,434,434.922)">
                <path d="M209.58,-373.85C221.19,-374.15 230.8,-371.54 230.8,-366C230.8,-361.46 224.34,-358.88 215.6,-358.27" style="fill:none;fill-rule:nonzero;stroke:black;stroke-width:2.43px;"/>
            </g>
            <g transform="matrix(1,0,0,0.995423,434,434.922)">
                <path d="M215.62,-356.17L209.58,-358.15L215.54,-360.37L215.62,-356.17Z" style="fill-rule:nonzero;stroke:black;stroke-width:2.43px;"/>
            </g>
            <g transform="matrix(1,0,0,0.995423,434,434.922)">
                <path d="M215.28,-354.97L210.02,-358.54L216.36,-359.03L215.28,-354.97Z" style="fill-rule:nonzero;stroke:black;stroke-width:0.09px;"/>
            </g>
        </g>
        <g transform="matrix(1,0,0,0.995423,549.05,53.3762)">
            <text x="0px" y="0px" style="font-family:'TimesNewRomanPSMT', 'Times New Roman', serif;font-size:14px;">0.81</text>
        </g>
        <g transform="matrix(1,0,0,0.995423,579,345.334)">
            <ellipse cx="238" cy="-279" rx="34" ry="18" style="fill:rgb(255,165,0);stroke:black;stroke-width:1px;"/>
        </g>
        <g transform="matrix(1,0,0,0.995423,798.922,71.294)">
            <text x="0px" y="0px" style="font-family:'TimesNewRomanPSMT', 'Times New Roman', serif;font-size:14px;">state 2</text>
        </g>
        <g transform="matrix(1,0,0,0.995423,430,240.815)">
            <ellipse cx="180" cy="-18" rx="34" ry="18" style="fill:rgb(144,238,144);stroke:black;stroke-width:1px;"/>
        </g>
        <g transform="matrix(1,0,0,0.995423,591.922,226.58)">
            <text x="0px" y="0px" style="font-family:'TimesNewRomanPSMT', 'Times New Roman', serif;font-size:14px;">state 3</text>
        </g>
        <g transform="matrix(1,0,0,0.995423,582,330.403)">
            <ellipse cx="239" cy="-105" rx="34" ry="18" style="fill:rgb(255,0,0);stroke:black;stroke-width:1px;"/>
        </g>
        <g transform="matrix(1,0,0,0.995423,802.922,229.566)">
            <text x="0px" y="0px" style="font-family:'TimesNewRomanPSMT', 'Times New Roman', serif;font-size:14px;">state 4</text>
        </g>
        <g transform="matrix(1,0,0,0.995423,586,556.363)">
            <ellipse cx="125" cy="-192" rx="34" ry="18" style="fill:rgb(128,0,128);stroke:black;stroke-width:1px;"/>
        </g>
        <g transform="matrix(1,0,0,0.995423,692.922,368.925)">
            <text x="0px" y="0px" style="font-family:'TimesNewRomanPSMT', 'Times New Roman', serif;font-size:14px;">state 5</text>
        </g>
        <g transform="matrix(1,0,0,0.995423,579,345.334)">
            <path d="M268.58,-286.85C280.19,-287.15 289.8,-284.54 289.8,-279C289.8,-274.46 283.34,-271.88 274.6,-271.27" style="fill:none;fill-rule:nonzero;stroke:black;stroke-width:0.5px;"/>
        </g>
        <g transform="matrix(1,0,0,0.995423,579,345.334)">
            <path d="M274.62,-269.17L268.58,-271.15L274.54,-273.37L274.62,-269.17Z" style="fill-rule:nonzero;stroke:black;stroke-width:0.5px;"/>
        </g>
        <g transform="matrix(1,0,0,0.995423,856.05,86.2253)">
            <text x="0px" y="0px" style="font-family:'TimesNewRomanPSMT', 'Times New Roman', serif;font-size:14px;">0.17</text>
        </g>
        <g transform="matrix(-0.997727,0.0670841,-0.0677027,-0.997727,1230.84,401.853)">
            <g transform="matrix(1,0,0,0.995423,430,240.815)">
                <path d="M210.58,-25.85C222.19,-26.15 231.8,-23.54 231.8,-18C231.8,-13.46 225.34,-10.88 216.6,-10.27" style="fill:none;fill-rule:nonzero;stroke:black;stroke-width:2.81px;"/>
            </g>
            <g transform="matrix(1,0,0,0.995423,430,240.815)">
                <path d="M216.62,-8.17L210.58,-10.15L216.54,-12.37L216.62,-8.17Z" style="fill-rule:nonzero;stroke:black;stroke-width:2.81px;"/>
            </g>
        </g>
        <g transform="matrix(1,0,0,0.995423,549.05,207.667)">
            <text x="0px" y="0px" style="font-family:'TimesNewRomanPSMT', 'Times New Roman', serif;font-size:14px;">0.94</text>
        </g>
        <g transform="matrix(1,0,0,0.995423,582,330.403)">
            <path d="M269.58,-112.85C281.19,-113.15 290.8,-110.54 290.8,-105C290.8,-100.46 284.34,-97.88 275.6,-97.27" style="fill:none;fill-rule:nonzero;stroke:black;stroke-width:2.52px;"/>
        </g>
        <g transform="matrix(1,0,0,0.995423,582,330.403)">
            <path d="M275.62,-95.17L269.58,-97.15L275.54,-99.37L275.62,-95.17Z" style="fill-rule:nonzero;stroke:black;stroke-width:2.52px;"/>
        </g>
        <g transform="matrix(1,0,0,0.995423,855.05,248.479)">
            <text x="0px" y="0px" style="font-family:'TimesNewRomanPSMT', 'Times New Roman', serif;font-size:14px;">0.84</text>
        </g>
        <g transform="matrix(6.12323e-17,0.995421,-1.0046,6.12323e-17,1081.63,-354.899)">
            <g transform="matrix(1,0,0,0.995423,586,556.363)">
                <path d="M155.58,-199.85C167.19,-200.15 176.8,-197.54 176.8,-192C176.8,-187.46 170.34,-184.88 161.6,-184.27" style="fill:none;fill-rule:nonzero;stroke:black;stroke-width:1.77px;"/>
            </g>
            <g transform="matrix(1,0,0,0.995423,586,556.363)">
                <path d="M161.62,-182.17L155.58,-184.15L161.54,-186.37L161.62,-182.17Z" style="fill-rule:nonzero;stroke:black;stroke-width:1.77px;"/>
            </g>
        </g>
        <g transform="matrix(1,0,0,0.995423,680.05,403.765)">
            <text x="0px" y="0px" style="font-family:'TimesNewRomanPSMT', 'Times New Roman', serif;font-size:14px;">0.59</text>
        </g>
        <g transform="matrix(1.23704,0,0,1.23138,633,-4.42427)">
            <text x="0px" y="0px" style="font-family:'ArialMT', 'Arial', sans-serif;font-size:12px;">State transition diagram</text>
        </g>
        <g transform="matrix(1,0,0,0.995421,543,-14.0137)">
            <g transform="matrix(1,-0,-0,1,1,-3)">
                <path d="M249.604,219.391L253,231L243.318,223.75L249.604,219.391Z"/>
                <path d="M100,96C162.261,125.481 209.764,169.72 247.769,223.456" style="fill:none;stroke:black;stroke-width:1.5px;stroke-linecap:round;stroke-linejoin:round;stroke-miterlimit:1.5;"/>
            </g>
        </g>
        <g transform="matrix(1,0,0,0.995421,610,-5.05495)">
            <g transform="matrix(1,-0,-0,1,-66,-12)">
                <path d="M181.744,357.241L172,364L175.74,352.747L181.744,357.241Z"/>
                <path d="M267,105C261.17,181.555 206.831,313.777 177.393,356.795" style="fill:none;stroke:black;stroke-width:2.5px;stroke-linecap:round;stroke-linejoin:round;stroke-miterlimit:1.5;"/>
            </g>
        </g>
        <g transform="matrix(-0.977701,-0.00164801,0.00171937,-1.01072,897.251,437.571)">
            <g transform="matrix(-1.0228,0.00166771,-0.00173196,-0.98486,362.098,449.159)">
                <path d="M249.893,105.444L257.22,102.076L253.379,109.166L249.893,105.444Z"/>
                <path d="M161.78,362.924C136.997,288.85 200.384,157.315 252.753,106.259" style="fill:none;stroke:black;stroke-width:1.7px;stroke-linecap:round;stroke-linejoin:round;stroke-miterlimit:1.5;"/>
            </g>
        </g>
        <g transform="matrix(-1.02614,-1.25091e-16,1.21558e-16,-0.988048,894.641,309.808)">
            <g transform="matrix(-0.974522,1.23379e-16,-1.19345e-16,-1.00746,341.707,330.761)">
                <path d="M91.657,107.446L90,102L94.593,105.363L91.657,107.446Z"/>
                <path d="M247,236C181.535,206.016 131.971,160.651 92.5,105.523" style="fill:none;stroke:black;stroke-width:0.4px;stroke-linecap:round;stroke-linejoin:round;stroke-miterlimit:1.5;"/>
            </g>
        </g>
        <g transform="matrix(0.142579,-0.985251,0.989783,0.141926,519.332,290.886)">
            <g transform="matrix(0.142579,0.989783,-0.989783,0.142579,309.66,-19.684)">
                <path d="M231.579,91.181L237.218,90.406L233.172,94.409L231.579,91.181Z"/>
                <path d="M81.782,222.594C120.775,163.76 172.893,122.47 233.344,92.317" style="fill:none;stroke:black;stroke-width:0.4px;stroke-linecap:round;stroke-linejoin:round;stroke-miterlimit:1.5;"/>
            </g>
        </g>
        <g transform="matrix(0.563488,0.0595869,-0.076526,0.717061,565.763,169.399)">
            <g transform="matrix(1.75486,-0.145826,0.186424,1.3727,-73.1005,-253.875)">
                <path d="M147.061,361.024L147.441,366.704L143.729,362.389L147.061,361.024Z"/>
                <path d="M71.559,260.296C104.852,285.614 128.43,320.959 145.804,362.706" style="fill:none;stroke:black;stroke-width:0.4px;stroke-linecap:round;stroke-linejoin:round;stroke-miterlimit:1.5;"/>
            </g>
        </g>
        <g transform="matrix(-0.38197,0.447922,-0.646085,-0.545922,886.496,228.522)">
            <g transform="matrix(-1.0964,-0.899583,1.29162,-0.763617,56.9329,496.451)">
                <path d="M106.704,236.099L98.169,235.904L105.114,230.939L106.704,236.099Z"/>
                <path d="M243.831,241.096C201.78,227.721 154.854,219.34 104.361,233.996" style="fill:none;stroke:black;stroke-width:0.6px;stroke-linecap:round;stroke-linejoin:round;stroke-miterlimit:1.5;"/>
            </g>
        </g>
        <g transform="matrix(0.154138,0.567151,-0.818063,0.220299,884.94,165.01)">
            <g transform="matrix(0.442436,-1.13904,1.63543,0.308146,-449.878,331.999)">
                <path d="M207.988,376.582L199.572,378.025L205.439,371.821L207.988,376.582Z"/>
                <path d="M281.428,263.975C278.51,320.334 249.122,350.899 205.285,374.966" style="fill:none;stroke:black;stroke-width:0.6px;stroke-linecap:round;stroke-linejoin:round;stroke-miterlimit:1.5;"/>
            </g>
        </g>
        <g transform="matrix(-0.196968,-0.507753,0.772254,-0.296836,691.025,439.791)">
            <g transform="matrix(-0.658784,1.12688,-1.70606,-0.435139,879.755,34.0021)">
                <path d="M256.572,265.922L267.268,262.024L261.05,271.56L256.572,265.922Z"/>
                <path d="M190.732,367.976C200.19,314.884 230.098,291.445 260.503,267.397" style="fill:none;stroke:black;stroke-width:0.8px;stroke-linecap:round;stroke-linejoin:round;stroke-miterlimit:1.5;"/>
            </g>
        </g>
        <g transform="matrix(1,0,0,0.995423,796.25,205.178)">
            <text x="0px" y="0px" style="font-family:'TimesNewRomanPSMT', 'Times New Roman', serif;font-size:14px;">0.18</text>
        </g>
        <g transform="matrix(1,0,0,0.995423,610.25,101.654)">
            <text x="0px" y="0px" style="font-family:'TimesNewRomanPSMT', 'Times New Roman', serif;font-size:14px;">0.03</text>
        </g>
        <g transform="matrix(1,0,0,0.995423,658.25,346.528)">
            <text x="0px" y="0px" style="font-family:'TimesNewRomanPSMT', 'Times New Roman', serif;font-size:14px;">0.03</text>
        </g>
        <g transform="matrix(1,0,0,0.995423,745.25,71.7918)">
            <text x="0px" y="0px" style="font-family:'TimesNewRomanPSMT', 'Times New Roman', serif;font-size:14px;">0.03</text>
        </g>
        <g transform="matrix(1,0,0,0.995423,645.25,207.169)">
            <text x="0px" y="0px" style="font-family:'TimesNewRomanPSMT', 'Times New Roman', serif;font-size:14px;">0.06</text>
        </g>
        <g transform="matrix(1,0,0,0.995423,753.25,367.432)">
            <text x="0px" y="0px" style="font-family:'TimesNewRomanPSMT', 'Times New Roman', serif;font-size:14px;">0.06</text>
        </g>
        <g transform="matrix(1,0,0,0.995423,771.25,251.963)">
            <text x="0px" y="0px" style="font-family:'TimesNewRomanPSMT', 'Times New Roman', serif;font-size:14px;">0.08</text>
        </g>
        <g transform="matrix(1,0,0,0.995423,707.25,326.62)">
            <text x="0px" y="0px" style="font-family:'TimesNewRomanPSMT', 'Times New Roman', serif;font-size:14px;">0.8</text>
        </g>
        <g transform="matrix(1,0,0,0.995423,767.25,93.6911)">
            <text x="0px" y="0px" style="font-family:'TimesNewRomanPSMT', 'Times New Roman', serif;font-size:14px;">0.31</text>
        </g>
    </g>
</svg>
