<?xml version="1.0" encoding="UTF-8" standalone="no"?>
<!DOCTYPE svg PUBLIC "-//W3C//DTD SVG 1.1//EN"
 "http://www.w3.org/Graphics/SVG/1.1/DTD/svg11.dtd">
<!-- Generated by graphviz version 2.43.0 (0)
 -->
<!-- Pages: 1 -->
<svg width="305pt" height="305pt"
 viewBox="0.00 0.00 305.24 305.00" xmlns="http://www.w3.org/2000/svg" xmlns:xlink="http://www.w3.org/1999/xlink">
<g id="graph0" class="graph" transform="scale(1 1) rotate(0) translate(4 301)">
<polygon fill="white" stroke="transparent" points="-4,4 -4,-301 301.24,-301 301.24,4 -4,4"/>
<!-- 0 -->
<g id="node1" class="node">
<title>0</title>
<ellipse fill="lightblue" stroke="black" cx="196.24" cy="-279" rx="34" ry="18"/>
<text text-anchor="middle" x="196.24" y="-275.3" font-family="Times,serif" font-size="14.00">state 1</text>
</g>
<!-- 0&#45;&gt;0 -->
<g id="edge1" class="edge">
<title>0&#45;&gt;0</title>
<path fill="none" stroke="black" stroke-width="1.74" d="M226.82,-286.85C238.43,-287.15 248.04,-284.54 248.04,-279 248.04,-274.46 241.58,-271.88 232.84,-271.27"/>
<polygon fill="black" stroke="black" stroke-width="1.74" points="232.86,-269.17 226.82,-271.15 232.78,-273.37 232.86,-269.17"/>
<text text-anchor="middle" x="260.54" y="-275.3" font-family="Times,serif" font-size="14.00">0.87</text>
</g>
<!-- 1 -->
<g id="node2" class="node">
<title>1</title>
<ellipse fill="orange" stroke="black" cx="53.24" cy="-192" rx="34" ry="18"/>
<text text-anchor="middle" x="53.24" y="-188.3" font-family="Times,serif" font-size="14.00">state 2</text>
</g>
<!-- 0&#45;&gt;1 -->
<g id="edge2" class="edge">
<title>0&#45;&gt;1</title>
<path fill="none" stroke="black" stroke-width="0.03" d="M162.61,-276.38C135.44,-273.38 97.81,-265.15 73.24,-243 65.42,-235.95 60.61,-225.42 57.67,-215.85"/>
<polygon fill="black" stroke="black" stroke-width="0.03" points="59.7,-215.28 56.08,-210.05 55.65,-216.39 59.7,-215.28"/>
<text text-anchor="middle" x="85.74" y="-231.8" font-family="Times,serif" font-size="14.00">0.01</text>
</g>
<!-- 2 -->
<g id="node3" class="node">
<title>2</title>
<ellipse fill="lightgreen" stroke="black" cx="145.24" cy="-18" rx="34" ry="18"/>
<text text-anchor="middle" x="145.24" y="-14.3" font-family="Times,serif" font-size="14.00">state 3</text>
</g>
<!-- 0&#45;&gt;2 -->
<g id="edge3" class="edge">
<title>0&#45;&gt;2</title>
<path fill="none" stroke="black" stroke-width="0.06" d="M205.88,-261.5C224.54,-227.24 261.3,-146.6 232.24,-87 220.44,-62.8 195.4,-44.69 175.2,-33.26"/>
<polygon fill="black" stroke="black" stroke-width="0.06" points="176.18,-31.41 169.91,-30.36 174.16,-35.09 176.18,-31.41"/>
<text text-anchor="middle" x="254.74" y="-144.8" font-family="Times,serif" font-size="14.00">0.03</text>
</g>
<!-- 3 -->
<g id="node4" class="node">
<title>3</title>
<ellipse fill="red" stroke="black" cx="146.24" cy="-105" rx="34" ry="18"/>
<text text-anchor="middle" x="146.24" y="-101.3" font-family="Times,serif" font-size="14.00">state 4</text>
</g>
<!-- 0&#45;&gt;3 -->
<g id="edge4" class="edge">
<title>0&#45;&gt;3</title>
<path fill="none" stroke="black" stroke-width="0.18" d="M198.23,-260.82C200.14,-240 201.88,-203.97 195.24,-174 191.75,-158.27 189.32,-154.31 180.24,-141 176.51,-135.54 171.89,-130.15 167.28,-125.3"/>
<polygon fill="black" stroke="black" stroke-width="0.18" points="168.76,-123.81 163.06,-121.01 165.77,-126.76 168.76,-123.81"/>
<text text-anchor="middle" x="211.74" y="-188.3" font-family="Times,serif" font-size="14.00">0.09</text>
</g>
<!-- 1&#45;&gt;0 -->
<g id="edge5" class="edge">
<title>1&#45;&gt;0</title>
<path fill="none" stroke="black" stroke-width="0.13" d="M72.6,-207.05C87.28,-217.47 108.13,-231.76 127.24,-243 139.69,-250.32 153.85,-257.67 166.1,-263.73"/>
<polygon fill="black" stroke="black" stroke-width="0.13" points="165.26,-265.66 171.57,-266.42 167.11,-261.89 165.26,-265.66"/>
<text text-anchor="middle" x="139.74" y="-231.8" font-family="Times,serif" font-size="14.00">0.06</text>
</g>
<!-- 1&#45;&gt;1 -->
<g id="edge6" class="edge">
<title>1&#45;&gt;1</title>
<path fill="none" stroke="black" stroke-width="1.85" d="M83.82,-199.85C95.43,-200.15 105.04,-197.54 105.04,-192 105.04,-187.46 98.57,-184.88 89.84,-184.27"/>
<polygon fill="black" stroke="black" stroke-width="1.85" points="89.86,-182.17 83.82,-184.15 89.78,-186.37 89.86,-182.17"/>
<text text-anchor="middle" x="117.54" y="-188.3" font-family="Times,serif" font-size="14.00">0.93</text>
</g>
<!-- 1&#45;&gt;2 -->
<g id="edge7" class="edge">
<title>1&#45;&gt;2</title>
<path fill="none" stroke="black" stroke-width="0" d="M38.27,-175.79C26.74,-162.93 11.71,-143.38 5.24,-123 0.4,-107.75 0,-102.12 5.24,-87 19.29,-46.45 69.79,-30.05 106.1,-23.43"/>
<polygon fill="black" stroke="black" stroke-width="0" points="106.69,-25.46 112.25,-22.38 105.98,-21.32 106.69,-25.46"/>
<text text-anchor="middle" x="14.24" y="-101.3" font-family="Times,serif" font-size="14.00">0.0</text>
</g>
<!-- 1&#45;&gt;3 -->
<g id="edge8" class="edge">
<title>1&#45;&gt;3</title>
<path fill="none" stroke="black" stroke-width="0.02" d="M74.79,-178.07C84.26,-171.93 95.25,-164.15 104.24,-156 113.82,-147.31 123.21,-136.43 130.66,-127.04"/>
<polygon fill="black" stroke="black" stroke-width="0.02" points="132.33,-128.31 134.38,-122.29 129.03,-125.72 132.33,-128.31"/>
<text text-anchor="middle" x="129.74" y="-144.8" font-family="Times,serif" font-size="14.00">0.01</text>
</g>
<!-- 2&#45;&gt;0 -->
<g id="edge9" class="edge">
<title>2&#45;&gt;0</title>
<path fill="none" stroke="black" stroke-width="0.04" d="M174.17,-27.42C190.56,-33.15 210.81,-41.9 226.24,-54 260.49,-80.87 263.56,-98.15 271.24,-141 279.8,-188.77 260.17,-203.3 232.24,-243 228.25,-248.68 223.25,-254.21 218.27,-259.14"/>
<polygon fill="black" stroke="black" stroke-width="0.04" points="216.62,-257.82 213.73,-263.48 219.52,-260.85 216.62,-257.82"/>
<text text-anchor="middle" x="284.74" y="-144.8" font-family="Times,serif" font-size="14.00">0.02</text>
</g>
<!-- 2&#45;&gt;1 -->
<g id="edge10" class="edge">
<title>2&#45;&gt;1</title>
<path fill="none" stroke="black" stroke-width="0" d="M129.46,-34.1C116.4,-47.2 98,-67.12 85.24,-87 71.05,-109.1 68.71,-115.82 61.24,-141 58.73,-149.46 56.96,-158.98 55.73,-167.42"/>
<polygon fill="black" stroke="black" stroke-width="0" points="53.61,-167.4 54.9,-173.63 57.78,-167.96 53.61,-167.4"/>
<text text-anchor="middle" x="94.24" y="-101.3" font-family="Times,serif" font-size="14.00">0.0</text>
</g>
<!-- 2&#45;&gt;2 -->
<g id="edge11" class="edge">
<title>2&#45;&gt;2</title>
<path fill="none" stroke="black" stroke-width="0.01" d="M175.82,-25.85C187.43,-26.15 197.04,-23.54 197.04,-18 197.04,-13.46 190.58,-10.88 181.84,-10.27"/>
<polygon fill="black" stroke="black" stroke-width="0.01" points="181.86,-8.17 175.82,-10.15 181.78,-12.37 181.86,-8.17"/>
<text text-anchor="middle" x="206.04" y="-14.3" font-family="Times,serif" font-size="14.00">0.0</text>
</g>
<!-- 2&#45;&gt;3 -->
<g id="edge12" class="edge">
<title>2&#45;&gt;3</title>
<path fill="none" stroke="black" stroke-width="1.95" d="M145.44,-36.17C145.59,-48.96 145.8,-66.55 145.96,-80.61"/>
<polygon fill="black" stroke="black" stroke-width="1.95" points="143.86,-80.83 146.04,-86.8 148.06,-80.77 143.86,-80.83"/>
<text text-anchor="middle" x="157.74" y="-57.8" font-family="Times,serif" font-size="14.00">0.97</text>
</g>
<!-- 3&#45;&gt;0 -->
<g id="edge13" class="edge">
<title>3&#45;&gt;0</title>
<path fill="none" stroke="black" stroke-width="0.06" d="M148.34,-123.22C151.16,-144.09 156.92,-180.16 166.24,-210 171.14,-225.7 178.6,-242.63 184.86,-255.66"/>
<polygon fill="black" stroke="black" stroke-width="0.06" points="183.12,-256.88 187.63,-261.36 186.9,-255.05 183.12,-256.88"/>
<text text-anchor="middle" x="178.74" y="-188.3" font-family="Times,serif" font-size="14.00">0.03</text>
</g>
<!-- 3&#45;&gt;1 -->
<g id="edge14" class="edge">
<title>3&#45;&gt;1</title>
<path fill="none" stroke="black" stroke-width="0.17" d="M117.78,-114.78C103.5,-120.37 86.83,-128.89 75.24,-141 68.03,-148.53 62.96,-158.81 59.51,-168.09"/>
<polygon fill="black" stroke="black" stroke-width="0.17" points="57.44,-167.65 57.48,-174.01 61.41,-169.02 57.44,-167.65"/>
<text text-anchor="middle" x="87.74" y="-144.8" font-family="Times,serif" font-size="14.00">0.09</text>
</g>
<!-- 3&#45;&gt;2 -->
<g id="edge15" class="edge">
<title>3&#45;&gt;2</title>
<path fill="none" stroke="black" stroke-width="1.4" d="M133.1,-88.26C129.13,-82.56 125.28,-75.83 123.24,-69 120.31,-59.22 123.74,-48.82 128.69,-40.06"/>
<polygon fill="black" stroke="black" stroke-width="1.4" points="130.55,-41.04 131.93,-34.83 126.98,-38.82 130.55,-41.04"/>
<text text-anchor="middle" x="132.24" y="-57.8" font-family="Times,serif" font-size="14.00">0.7</text>
</g>
<!-- 3&#45;&gt;3 -->
<g id="edge16" class="edge">
<title>3&#45;&gt;3</title>
<path fill="none" stroke="black" stroke-width="0.37" d="M176.82,-112.85C188.43,-113.15 198.04,-110.54 198.04,-105 198.04,-100.46 191.58,-97.88 182.84,-97.27"/>
<polygon fill="black" stroke="black" stroke-width="0.37" points="182.86,-95.17 176.82,-97.15 182.78,-99.37 182.86,-95.17"/>
<text text-anchor="middle" x="210.54" y="-101.3" font-family="Times,serif" font-size="14.00">0.18</text>
</g>
</g>
</svg>
