<?xml version="1.0" encoding="UTF-8" standalone="no"?>
<!DOCTYPE svg PUBLIC "-//W3C//DTD SVG 1.1//EN"
 "http://www.w3.org/Graphics/SVG/1.1/DTD/svg11.dtd">
<!-- Generated by graphviz version 2.43.0 (0)
 -->
<!-- Pages: 1 -->
<svg width="112pt" height="131pt"
 viewBox="0.00 0.00 111.80 131.00" xmlns="http://www.w3.org/2000/svg" xmlns:xlink="http://www.w3.org/1999/xlink">
<g id="graph0" class="graph" transform="scale(1 1) rotate(0) translate(4 127)">
<polygon fill="white" stroke="transparent" points="-4,4 -4,-127 107.8,-127 107.8,4 -4,4"/>
<!-- 0 -->
<g id="node1" class="node">
<title>0</title>
<ellipse fill="lightblue" stroke="black" cx="34" cy="-105" rx="34" ry="18"/>
<text text-anchor="middle" x="34" y="-101.3" font-family="Times,serif" font-size="14.00">state 1</text>
</g>
<!-- 0&#45;&gt;0 -->
<g id="edge1" class="edge">
<title>0&#45;&gt;0</title>
<path fill="none" stroke="black" stroke-width="2" d="M64.58,-112.85C76.19,-113.15 85.8,-110.54 85.8,-105 85.8,-100.46 79.34,-97.88 70.6,-97.27"/>
<polygon fill="black" stroke="black" stroke-width="2" points="70.62,-95.17 64.58,-97.15 70.54,-99.37 70.62,-95.17"/>
<text text-anchor="middle" x="94.8" y="-101.3" font-family="Times,serif" font-size="14.00">1.0</text>
</g>
<!-- 1 -->
<g id="node2" class="node">
<title>1</title>
<ellipse fill="orange" stroke="black" cx="34" cy="-18" rx="34" ry="18"/>
<text text-anchor="middle" x="34" y="-14.3" font-family="Times,serif" font-size="14.00">state 2</text>
</g>
<!-- 0&#45;&gt;1 -->
<g id="edge2" class="edge">
<title>0&#45;&gt;1</title>
<path fill="none" stroke="black" stroke-width="0" d="M22.31,-87.64C16.83,-78.02 12.08,-65.52 15,-54 16.12,-49.58 17.93,-45.11 19.99,-40.91"/>
<polygon fill="black" stroke="black" stroke-width="0" points="21.97,-41.67 22.93,-35.39 18.26,-39.7 21.97,-41.67"/>
<text text-anchor="middle" x="24" y="-57.8" font-family="Times,serif" font-size="14.00">0.0</text>
</g>
<!-- 1&#45;&gt;0 -->
<g id="edge3" class="edge">
<title>1&#45;&gt;0</title>
<path fill="none" stroke="black" stroke-width="0" d="M34,-36.17C34,-48.96 34,-66.55 34,-80.61"/>
<polygon fill="black" stroke="black" stroke-width="0" points="31.9,-80.8 34,-86.8 36.1,-80.8 31.9,-80.8"/>
<text text-anchor="middle" x="43" y="-57.8" font-family="Times,serif" font-size="14.00">0.0</text>
</g>
<!-- 1&#45;&gt;1 -->
<g id="edge4" class="edge">
<title>1&#45;&gt;1</title>
<path fill="none" stroke="black" stroke-width="2" d="M64.58,-25.85C76.19,-26.15 85.8,-23.54 85.8,-18 85.8,-13.46 79.34,-10.88 70.6,-10.27"/>
<polygon fill="black" stroke="black" stroke-width="2" points="70.62,-8.17 64.58,-10.15 70.54,-12.37 70.62,-8.17"/>
<text text-anchor="middle" x="94.8" y="-14.3" font-family="Times,serif" font-size="14.00">1.0</text>
</g>
</g>
</svg>
