<?xml version="1.0" encoding="UTF-8" standalone="no"?>
<!DOCTYPE svg PUBLIC "-//W3C//DTD SVG 1.1//EN"
 "http://www.w3.org/Graphics/SVG/1.1/DTD/svg11.dtd">
<!-- Generated by graphviz version 2.43.0 (0)
 -->
<!-- Pages: 1 -->
<svg width="708pt" height="479pt"
 viewBox="0.00 0.00 708.00 479.00" xmlns="http://www.w3.org/2000/svg" xmlns:xlink="http://www.w3.org/1999/xlink">
<g id="graph0" class="graph" transform="scale(1 1) rotate(0) translate(4 475)">
<polygon fill="white" stroke="transparent" points="-4,4 -4,-475 704,-475 704,4 -4,4"/>
<!-- 0 -->
<g id="node1" class="node">
<title>0</title>
<ellipse fill="lightblue" stroke="black" cx="228" cy="-453" rx="34" ry="18"/>
<text text-anchor="middle" x="228" y="-449.3" font-family="Times,serif" font-size="14.00">state 1</text>
</g>
<!-- 0&#45;&gt;0 -->
<g id="edge1" class="edge">
<title>0&#45;&gt;0</title>
<path fill="none" stroke="black" stroke-width="0" d="M258.58,-460.85C270.19,-461.15 279.8,-458.54 279.8,-453 279.8,-448.46 273.34,-445.88 264.6,-445.27"/>
<polygon fill="black" stroke="black" stroke-width="0" points="264.62,-443.17 258.58,-445.15 264.54,-447.37 264.62,-443.17"/>
<text text-anchor="middle" x="288.8" y="-449.3" font-family="Times,serif" font-size="14.00">0.0</text>
</g>
<!-- 1 -->
<g id="node2" class="node">
<title>1</title>
<ellipse fill="orange" stroke="black" cx="470" cy="-366" rx="34" ry="18"/>
<text text-anchor="middle" x="470" y="-362.3" font-family="Times,serif" font-size="14.00">state 2</text>
</g>
<!-- 0&#45;&gt;1 -->
<g id="edge2" class="edge">
<title>0&#45;&gt;1</title>
<path fill="none" stroke="black" stroke-width="1.06" d="M261.45,-449.25C311.72,-444.61 403.89,-434.06 432,-417 443.11,-410.26 452.12,-398.95 458.56,-388.79"/>
<polygon fill="black" stroke="black" stroke-width="1.06" points="460.38,-389.84 461.7,-383.62 456.79,-387.66 460.38,-389.84"/>
<text text-anchor="middle" x="460.5" y="-405.8" font-family="Times,serif" font-size="14.00">0.53</text>
</g>
<!-- 2 -->
<g id="node3" class="node">
<title>2</title>
<ellipse fill="lightgreen" stroke="black" cx="312" cy="-18" rx="34" ry="18"/>
<text text-anchor="middle" x="312" y="-14.3" font-family="Times,serif" font-size="14.00">state 3</text>
</g>
<!-- 0&#45;&gt;2 -->
<g id="edge3" class="edge">
<title>0&#45;&gt;2</title>
<path fill="none" stroke="black" stroke-width="0.06" d="M194.89,-449.13C146.68,-444.44 60.05,-433.92 34,-417 11.46,-402.36 0,-393.87 0,-367 0,-367 0,-367 0,-104 0,-77.13 11.08,-68.03 34,-54 72.98,-30.13 204.56,-22.44 271.76,-20.05"/>
<polygon fill="black" stroke="black" stroke-width="0.06" points="272.14,-22.13 278.06,-19.83 271.99,-17.94 272.14,-22.13"/>
<text text-anchor="middle" x="12.5" y="-231.8" font-family="Times,serif" font-size="14.00">0.03</text>
</g>
<!-- 3 -->
<g id="node4" class="node">
<title>3</title>
<ellipse fill="red" stroke="black" cx="312" cy="-105" rx="34" ry="18"/>
<text text-anchor="middle" x="312" y="-101.3" font-family="Times,serif" font-size="14.00">state 4</text>
</g>
<!-- 0&#45;&gt;3 -->
<g id="edge4" class="edge">
<title>0&#45;&gt;3</title>
<path fill="none" stroke="black" stroke-width="0.28" d="M196.24,-446.34C156.62,-437.23 94,-415.21 94,-367 94,-367 94,-367 94,-191 94,-166.35 98.39,-155.93 118,-141 141.7,-122.95 222.85,-113.27 272.38,-108.92"/>
<polygon fill="black" stroke="black" stroke-width="0.28" points="272.75,-111 278.55,-108.39 272.39,-106.81 272.75,-111"/>
<text text-anchor="middle" x="106.5" y="-275.3" font-family="Times,serif" font-size="14.00">0.14</text>
</g>
<!-- 4 -->
<g id="node5" class="node">
<title>4</title>
<ellipse fill="purple" stroke="black" cx="396" cy="-192" rx="34" ry="18"/>
<text text-anchor="middle" x="396" y="-188.3" font-family="Times,serif" font-size="14.00">state 5</text>
</g>
<!-- 0&#45;&gt;4 -->
<g id="edge5" class="edge">
<title>0&#45;&gt;4</title>
<path fill="none" stroke="black" stroke-width="0" d="M239.65,-435.97C259.74,-408.13 301.96,-348.84 335,-297 352.76,-269.13 371.82,-236.08 383.81,-214.84"/>
<polygon fill="black" stroke="black" stroke-width="0" points="385.74,-215.7 386.86,-209.44 382.08,-213.63 385.74,-215.7"/>
<text text-anchor="middle" x="333" y="-318.8" font-family="Times,serif" font-size="14.00">0.0</text>
</g>
<!-- 5 -->
<g id="node6" class="node">
<title>5</title>
<ellipse fill="olive" stroke="black" cx="249" cy="-279" rx="34" ry="18"/>
<text text-anchor="middle" x="249" y="-275.3" font-family="Times,serif" font-size="14.00">state 6</text>
</g>
<!-- 0&#45;&gt;5 -->
<g id="edge6" class="edge">
<title>0&#45;&gt;5</title>
<path fill="none" stroke="black" stroke-width="0.59" d="M222.29,-435.23C216.05,-414.51 207.85,-378.28 215,-348 218.9,-331.48 227.46,-314.39 235.02,-301.48"/>
<polygon fill="black" stroke="black" stroke-width="0.59" points="236.89,-302.44 238.18,-296.22 233.29,-300.28 236.89,-302.44"/>
<text text-anchor="middle" x="224" y="-362.3" font-family="Times,serif" font-size="14.00">0.3</text>
</g>
<!-- 1&#45;&gt;0 -->
<g id="edge7" class="edge">
<title>1&#45;&gt;0</title>
<path fill="none" stroke="black" stroke-width="0" d="M448.14,-379.76C422.94,-394.47 384.86,-416.66 384,-417 345.48,-432.1 298.93,-441.48 266.76,-446.69"/>
<polygon fill="black" stroke="black" stroke-width="0" points="266.12,-444.66 260.52,-447.67 266.77,-448.81 266.12,-444.66"/>
<text text-anchor="middle" x="419" y="-405.8" font-family="Times,serif" font-size="14.00">0.0</text>
</g>
<!-- 1&#45;&gt;1 -->
<g id="edge8" class="edge">
<title>1&#45;&gt;1</title>
<path fill="none" stroke="black" stroke-width="0" d="M500.58,-373.85C512.19,-374.15 521.8,-371.54 521.8,-366 521.8,-361.46 515.34,-358.88 506.6,-358.27"/>
<polygon fill="black" stroke="black" stroke-width="0" points="506.62,-356.17 500.58,-358.15 506.54,-360.37 506.62,-356.17"/>
<text text-anchor="middle" x="530.8" y="-362.3" font-family="Times,serif" font-size="14.00">0.0</text>
</g>
<!-- 1&#45;&gt;2 -->
<g id="edge9" class="edge">
<title>1&#45;&gt;2</title>
<path fill="none" stroke="black" stroke-width="1.77" d="M503.85,-365.56C562.08,-364.57 675,-353.2 675,-280 675,-280 675,-280 675,-104 675,-75.54 659.95,-67.69 635,-54 587.21,-27.77 427.41,-21.2 352.02,-19.55"/>
<polygon fill="black" stroke="black" stroke-width="1.77" points="351.9,-17.45 345.86,-19.42 351.82,-21.65 351.9,-17.45"/>
<text text-anchor="middle" x="687.5" y="-188.3" font-family="Times,serif" font-size="14.00">0.89</text>
</g>
<!-- 1&#45;&gt;3 -->
<g id="edge10" class="edge">
<title>1&#45;&gt;3</title>
<path fill="none" stroke="black" stroke-width="0.22" d="M460.18,-348.57C449.13,-327.89 433.92,-291.38 444,-261 452.9,-234.17 473.1,-236.83 482,-210 487.04,-194.81 490.71,-187.42 482,-174 466.89,-150.71 393.27,-127.55 348.01,-115.18"/>
<polygon fill="black" stroke="black" stroke-width="0.22" points="348.43,-113.12 342.09,-113.58 347.33,-117.17 348.43,-113.12"/>
<text text-anchor="middle" x="483.5" y="-231.8" font-family="Times,serif" font-size="14.00">0.11</text>
</g>
<!-- 1&#45;&gt;4 -->
<g id="edge11" class="edge">
<title>1&#45;&gt;4</title>
<path fill="none" stroke="black" stroke-width="0" d="M464.53,-348.16C455.77,-321.92 437.5,-269.93 417,-228 414.86,-223.61 412.34,-219.05 409.82,-214.73"/>
<polygon fill="black" stroke="black" stroke-width="0" points="411.52,-213.48 406.64,-209.41 407.92,-215.64 411.52,-213.48"/>
<text text-anchor="middle" x="454" y="-275.3" font-family="Times,serif" font-size="14.00">0.0</text>
</g>
<!-- 1&#45;&gt;5 -->
<g id="edge12" class="edge">
<title>1&#45;&gt;5</title>
<path fill="none" stroke="black" stroke-width="0" d="M436.17,-365.27C397.83,-364.11 334.75,-357.64 289,-330 277.66,-323.15 268.2,-311.83 261.34,-301.7"/>
<polygon fill="black" stroke="black" stroke-width="0" points="263.02,-300.43 257.99,-296.54 259.5,-302.72 263.02,-300.43"/>
<text text-anchor="middle" x="298" y="-318.8" font-family="Times,serif" font-size="14.00">0.0</text>
</g>
<!-- 2&#45;&gt;0 -->
<g id="edge13" class="edge">
<title>2&#45;&gt;0</title>
<path fill="none" stroke="black" stroke-width="0" d="M279.1,-22.57C208.33,-31.18 48,-55.97 48,-104 48,-367 48,-367 48,-367 48,-428.44 134.8,-445.54 187.85,-450.25"/>
<polygon fill="black" stroke="black" stroke-width="0" points="187.99,-452.37 194.14,-450.77 188.33,-448.18 187.99,-452.37"/>
<text text-anchor="middle" x="57" y="-231.8" font-family="Times,serif" font-size="14.00">0.0</text>
</g>
<!-- 2&#45;&gt;1 -->
<g id="edge14" class="edge">
<title>2&#45;&gt;1</title>
<path fill="none" stroke="black" stroke-width="0" d="M345.36,-21.09C425.26,-27.02 621,-47.32 621,-104 621,-280 621,-280 621,-280 621,-331.43 553.66,-352.08 508.92,-360.12"/>
<polygon fill="black" stroke="black" stroke-width="0" points="508.32,-358.09 502.76,-361.17 509.03,-362.23 508.32,-358.09"/>
<text text-anchor="middle" x="630" y="-188.3" font-family="Times,serif" font-size="14.00">0.0</text>
</g>
<!-- 2&#45;&gt;2 -->
<g id="edge15" class="edge">
<title>2&#45;&gt;2</title>
<path fill="none" stroke="black" stroke-width="1.71" d="M342.58,-25.85C354.19,-26.15 363.8,-23.54 363.8,-18 363.8,-13.46 357.34,-10.88 348.6,-10.27"/>
<polygon fill="black" stroke="black" stroke-width="1.71" points="348.62,-8.17 342.58,-10.15 348.54,-12.37 348.62,-8.17"/>
<text text-anchor="middle" x="376.3" y="-14.3" font-family="Times,serif" font-size="14.00">0.85</text>
</g>
<!-- 2&#45;&gt;3 -->
<g id="edge16" class="edge">
<title>2&#45;&gt;3</title>
<path fill="none" stroke="black" stroke-width="0.09" d="M298.86,-34.74C294.89,-40.44 291.04,-47.17 289,-54 286.05,-63.85 289.65,-74.26 294.81,-83.02"/>
<polygon fill="black" stroke="black" stroke-width="0.09" points="293.16,-84.33 298.18,-88.23 296.69,-82.05 293.16,-84.33"/>
<text text-anchor="middle" x="301.5" y="-57.8" font-family="Times,serif" font-size="14.00">0.04</text>
</g>
<!-- 2&#45;&gt;4 -->
<g id="edge17" class="edge">
<title>2&#45;&gt;4</title>
<path fill="none" stroke="black" stroke-width="0.15" d="M335.65,-31.28C355.55,-42.9 383.06,-62.22 398,-87 414,-113.54 413.09,-125.43 408,-156 407.32,-160.09 406.22,-164.34 404.96,-168.41"/>
<polygon fill="black" stroke="black" stroke-width="0.15" points="402.94,-167.84 403.02,-174.2 406.92,-169.18 402.94,-167.84"/>
<text text-anchor="middle" x="424.5" y="-101.3" font-family="Times,serif" font-size="14.00">0.07</text>
</g>
<!-- 2&#45;&gt;5 -->
<g id="edge18" class="edge">
<title>2&#45;&gt;5</title>
<path fill="none" stroke="black" stroke-width="0.06" d="M297.9,-34.46C279.13,-56.28 247.02,-98.23 236,-141 225.92,-180.15 234.84,-227.4 242.05,-254.93"/>
<polygon fill="black" stroke="black" stroke-width="0.06" points="240.05,-255.59 243.65,-260.83 244.11,-254.49 240.05,-255.59"/>
<text text-anchor="middle" x="248.5" y="-144.8" font-family="Times,serif" font-size="14.00">0.03</text>
</g>
<!-- 3&#45;&gt;0 -->
<g id="edge19" class="edge">
<title>3&#45;&gt;0</title>
<path fill="none" stroke="black" stroke-width="0.18" d="M278.56,-108.43C254.93,-111.95 224.32,-120.47 206,-141 124.31,-232.53 169.1,-301.69 211,-417 212.55,-421.28 214.47,-425.73 216.44,-429.96"/>
<polygon fill="black" stroke="black" stroke-width="0.18" points="214.65,-431.08 219.15,-435.57 218.43,-429.25 214.65,-431.08"/>
<text text-anchor="middle" x="180.5" y="-275.3" font-family="Times,serif" font-size="14.00">0.09</text>
</g>
<!-- 3&#45;&gt;1 -->
<g id="edge20" class="edge">
<title>3&#45;&gt;1</title>
<path fill="none" stroke="black" stroke-width="0.05" d="M342.64,-112.64C382.07,-121.31 446.78,-135.97 457,-141 477.99,-151.33 487.18,-153.26 498,-174 503.54,-184.61 510.04,-269.1 504,-297 500.41,-313.59 491.84,-330.68 484.21,-343.57"/>
<polygon fill="black" stroke="black" stroke-width="0.05" points="482.33,-342.61 481.01,-348.83 485.92,-344.8 482.33,-342.61"/>
<text text-anchor="middle" x="518.5" y="-231.8" font-family="Times,serif" font-size="14.00">0.03</text>
</g>
<!-- 3&#45;&gt;2 -->
<g id="edge21" class="edge">
<title>3&#45;&gt;2</title>
<path fill="none" stroke="black" stroke-width="0" d="M313.27,-86.88C313.83,-77.22 314.31,-64.94 314,-54 313.89,-50.17 313.71,-46.1 313.51,-42.15"/>
<polygon fill="black" stroke="black" stroke-width="0" points="315.6,-41.95 313.17,-36.08 311.41,-42.19 315.6,-41.95"/>
<text text-anchor="middle" x="324" y="-57.8" font-family="Times,serif" font-size="14.00">0.0</text>
</g>
<!-- 3&#45;&gt;3 -->
<g id="edge22" class="edge">
<title>3&#45;&gt;3</title>
<path fill="none" stroke="black" stroke-width="1.72" d="M342.58,-112.85C354.19,-113.15 363.8,-110.54 363.8,-105 363.8,-100.46 357.34,-97.88 348.6,-97.27"/>
<polygon fill="black" stroke="black" stroke-width="1.72" points="348.62,-95.17 342.58,-97.15 348.54,-99.37 348.62,-95.17"/>
<text text-anchor="middle" x="376.3" y="-101.3" font-family="Times,serif" font-size="14.00">0.86</text>
</g>
<!-- 3&#45;&gt;4 -->
<g id="edge23" class="edge">
<title>3&#45;&gt;4</title>
<path fill="none" stroke="black" stroke-width="0.03" d="M336.02,-117.92C346.39,-123.87 358.14,-131.77 367,-141 374.71,-149.03 381.19,-159.5 386.05,-168.78"/>
<polygon fill="black" stroke="black" stroke-width="0.03" points="384.29,-169.95 388.86,-174.37 388.04,-168.07 384.29,-169.95"/>
<text text-anchor="middle" x="391.5" y="-144.8" font-family="Times,serif" font-size="14.00">0.02</text>
</g>
<!-- 3&#45;&gt;5 -->
<g id="edge24" class="edge">
<title>3&#45;&gt;5</title>
<path fill="none" stroke="black" stroke-width="0.01" d="M306.37,-123.02C299.47,-143.68 287.31,-179.55 276,-210 270.32,-225.28 263.55,-242.33 258.21,-255.54"/>
<polygon fill="black" stroke="black" stroke-width="0.01" points="256.18,-254.96 255.87,-261.31 260.07,-256.54 256.18,-254.96"/>
<text text-anchor="middle" x="301.5" y="-188.3" font-family="Times,serif" font-size="14.00">0.01</text>
</g>
<!-- 4&#45;&gt;0 -->
<g id="edge25" class="edge">
<title>4&#45;&gt;0</title>
<path fill="none" stroke="black" stroke-width="0.01" d="M394.01,-210.4C392.62,-220.14 390.38,-232.41 387,-243 364.8,-312.48 350.28,-328.45 303,-384 290.15,-399.09 287.54,-403.53 273,-417 266.63,-422.89 259.35,-428.86 252.53,-434.15"/>
<polygon fill="black" stroke="black" stroke-width="0.01" points="250.92,-432.74 247.42,-438.05 253.46,-436.08 250.92,-432.74"/>
<text text-anchor="middle" x="369.5" y="-318.8" font-family="Times,serif" font-size="14.00">0.01</text>
</g>
<!-- 4&#45;&gt;1 -->
<g id="edge26" class="edge">
<title>4&#45;&gt;1</title>
<path fill="none" stroke="black" stroke-width="0.15" d="M417.27,-206.21C434.3,-218.16 456.95,-237.45 467,-261 478.1,-287.01 476.75,-320.1 474.02,-341.88"/>
<polygon fill="black" stroke="black" stroke-width="0.15" points="471.92,-341.76 473.18,-347.99 476.08,-342.33 471.92,-341.76"/>
<text text-anchor="middle" x="487.5" y="-275.3" font-family="Times,serif" font-size="14.00">0.07</text>
</g>
<!-- 4&#45;&gt;2 -->
<g id="edge27" class="edge">
<title>4&#45;&gt;2</title>
<path fill="none" stroke="black" stroke-width="0" d="M411.24,-175.81C429.99,-155.21 457.41,-117.49 441,-87 422.72,-53.04 380.52,-35.41 349.33,-26.71"/>
<polygon fill="black" stroke="black" stroke-width="0" points="349.59,-24.61 343.25,-25.09 348.5,-28.67 349.59,-24.61"/>
<text text-anchor="middle" x="455" y="-101.3" font-family="Times,serif" font-size="14.00">0.0</text>
</g>
<!-- 4&#45;&gt;3 -->
<g id="edge28" class="edge">
<title>4&#45;&gt;3</title>
<path fill="none" stroke="black" stroke-width="0.02" d="M371.02,-179.82C359.9,-173.93 347.26,-165.86 338,-156 330.57,-148.08 324.7,-137.63 320.43,-128.34"/>
<polygon fill="black" stroke="black" stroke-width="0.02" points="322.3,-127.38 317.97,-122.73 318.46,-129.07 322.3,-127.38"/>
<text text-anchor="middle" x="350.5" y="-144.8" font-family="Times,serif" font-size="14.00">0.01</text>
</g>
<!-- 4&#45;&gt;4 -->
<g id="edge29" class="edge">
<title>4&#45;&gt;4</title>
<path fill="none" stroke="black" stroke-width="1.82" d="M426.58,-199.85C438.19,-200.15 447.8,-197.54 447.8,-192 447.8,-187.46 441.34,-184.88 432.6,-184.27"/>
<polygon fill="black" stroke="black" stroke-width="1.82" points="432.62,-182.17 426.58,-184.15 432.54,-186.37 432.62,-182.17"/>
<text text-anchor="middle" x="460.3" y="-188.3" font-family="Times,serif" font-size="14.00">0.91</text>
</g>
<!-- 4&#45;&gt;5 -->
<g id="edge30" class="edge">
<title>4&#45;&gt;5</title>
<path fill="none" stroke="black" stroke-width="0" d="M376.25,-206.77C356.54,-220.46 328.43,-239.88 323,-243 309.3,-250.86 293.55,-258.49 280.12,-264.61"/>
<polygon fill="black" stroke="black" stroke-width="0" points="279.12,-262.76 274.51,-267.14 280.84,-266.59 279.12,-262.76"/>
<text text-anchor="middle" x="354" y="-231.8" font-family="Times,serif" font-size="14.00">0.0</text>
</g>
<!-- 5&#45;&gt;0 -->
<g id="edge31" class="edge">
<title>5&#45;&gt;0</title>
<path fill="none" stroke="black" stroke-width="0.21" d="M246.92,-297.05C243.13,-328.04 235.13,-393.61 230.84,-428.7"/>
<polygon fill="black" stroke="black" stroke-width="0.21" points="228.73,-428.67 230.09,-434.88 232.9,-429.18 228.73,-428.67"/>
<text text-anchor="middle" x="253.5" y="-362.3" font-family="Times,serif" font-size="14.00">0.11</text>
</g>
<!-- 5&#45;&gt;1 -->
<g id="edge32" class="edge">
<title>5&#45;&gt;1</title>
<path fill="none" stroke="black" stroke-width="0.01" d="M281.32,-284.27C311.84,-289.08 358.41,-298.48 396,-315 398.72,-316.19 424.63,-333.83 445.03,-347.82"/>
<polygon fill="black" stroke="black" stroke-width="0.01" points="443.95,-349.62 450.08,-351.29 446.32,-346.16 443.95,-349.62"/>
<text text-anchor="middle" x="430.5" y="-318.8" font-family="Times,serif" font-size="14.00">0.01</text>
</g>
<!-- 5&#45;&gt;2 -->
<g id="edge33" class="edge">
<title>5&#45;&gt;2</title>
<path fill="none" stroke="black" stroke-width="0" d="M239.24,-261.66C225.19,-236.08 201.97,-184.96 212,-141 222.23,-96.17 234.43,-85.43 268,-54 274.25,-48.15 281.37,-42.21 288.05,-36.91"/>
<polygon fill="black" stroke="black" stroke-width="0" points="289.61,-38.36 293.04,-33.01 287.02,-35.05 289.61,-38.36"/>
<text text-anchor="middle" x="221" y="-144.8" font-family="Times,serif" font-size="14.00">0.0</text>
</g>
<!-- 5&#45;&gt;3 -->
<g id="edge34" class="edge">
<title>5&#45;&gt;3</title>
<path fill="none" stroke="black" stroke-width="0" d="M246.52,-260.72C244.21,-239.49 242.62,-202.74 254,-174 261.58,-154.86 276.89,-137.29 289.87,-124.8"/>
<polygon fill="black" stroke="black" stroke-width="0" points="291.58,-126.07 294.53,-120.44 288.71,-123.01 291.58,-126.07"/>
<text text-anchor="middle" x="263" y="-188.3" font-family="Times,serif" font-size="14.00">0.0</text>
</g>
<!-- 5&#45;&gt;4 -->
<g id="edge35" class="edge">
<title>5&#45;&gt;4</title>
<path fill="none" stroke="black" stroke-width="0.02" d="M260.3,-261.59C268.53,-250.72 280.56,-236.89 294,-228 305.2,-220.59 335.9,-210.49 360.71,-203.04"/>
<polygon fill="black" stroke="black" stroke-width="0.02" points="361.39,-205.03 366.55,-201.31 360.2,-201 361.39,-205.03"/>
<text text-anchor="middle" x="306.5" y="-231.8" font-family="Times,serif" font-size="14.00">0.01</text>
</g>
<!-- 5&#45;&gt;5 -->
<g id="edge36" class="edge">
<title>5&#45;&gt;5</title>
<path fill="none" stroke="black" stroke-width="1.75" d="M279.58,-286.85C291.19,-287.15 300.8,-284.54 300.8,-279 300.8,-274.46 294.34,-271.88 285.6,-271.27"/>
<polygon fill="black" stroke="black" stroke-width="1.75" points="285.62,-269.17 279.58,-271.15 285.54,-273.37 285.62,-269.17"/>
<text text-anchor="middle" x="313.3" y="-275.3" font-family="Times,serif" font-size="14.00">0.88</text>
</g>
</g>
</svg>
