<?xml version="1.0" encoding="UTF-8" standalone="no"?>
<!DOCTYPE svg PUBLIC "-//W3C//DTD SVG 1.1//EN"
 "http://www.w3.org/Graphics/SVG/1.1/DTD/svg11.dtd">
<!-- Generated by graphviz version 2.43.0 (0)
 -->
<!-- Pages: 1 -->
<svg width="201pt" height="218pt"
 viewBox="0.00 0.00 200.79 218.00" xmlns="http://www.w3.org/2000/svg" xmlns:xlink="http://www.w3.org/1999/xlink">
<g id="graph0" class="graph" transform="scale(1 1) rotate(0) translate(4 214)">
<polygon fill="white" stroke="transparent" points="-4,4 -4,-214 196.79,-214 196.79,4 -4,4"/>
<!-- 0 -->
<g id="node1" class="node">
<title>0</title>
<ellipse fill="lightblue" stroke="black" cx="116" cy="-192" rx="34" ry="18"/>
<text text-anchor="middle" x="116" y="-188.3" font-family="Times,serif" font-size="14.00">state 1</text>
</g>
<!-- 0&#45;&gt;0 -->
<g id="edge1" class="edge">
<title>0&#45;&gt;0</title>
<path fill="none" stroke="black" stroke-width="0.28" d="M146.58,-199.85C158.19,-200.15 167.79,-197.54 167.79,-192 167.79,-187.46 161.33,-184.88 152.6,-184.27"/>
<polygon fill="black" stroke="black" stroke-width="0.28" points="152.62,-182.17 146.58,-184.15 152.54,-186.37 152.62,-182.17"/>
<text text-anchor="middle" x="180.29" y="-188.3" font-family="Times,serif" font-size="14.00">0.14</text>
</g>
<!-- 1 -->
<g id="node2" class="node">
<title>1</title>
<ellipse fill="orange" stroke="black" cx="34" cy="-105" rx="34" ry="18"/>
<text text-anchor="middle" x="34" y="-101.3" font-family="Times,serif" font-size="14.00">state 2</text>
</g>
<!-- 0&#45;&gt;1 -->
<g id="edge2" class="edge">
<title>0&#45;&gt;1</title>
<path fill="none" stroke="black" stroke-width="0.1" d="M87.52,-182C74.12,-176.45 58.95,-168.04 49,-156 42.81,-148.51 39.17,-138.52 37.04,-129.44"/>
<polygon fill="black" stroke="black" stroke-width="0.1" points="39.05,-128.8 35.79,-123.34 34.94,-129.64 39.05,-128.8"/>
<text text-anchor="middle" x="61.5" y="-144.8" font-family="Times,serif" font-size="14.00">0.05</text>
</g>
<!-- 2 -->
<g id="node3" class="node">
<title>2</title>
<ellipse fill="lightgreen" stroke="black" cx="116" cy="-18" rx="34" ry="18"/>
<text text-anchor="middle" x="116" y="-14.3" font-family="Times,serif" font-size="14.00">state 3</text>
</g>
<!-- 0&#45;&gt;2 -->
<g id="edge3" class="edge">
<title>0&#45;&gt;2</title>
<path fill="none" stroke="black" stroke-width="1.62" d="M116.58,-173.91C116.75,-168.22 116.91,-161.84 117,-156 117.64,-110.67 117.64,-99.33 117,-54 116.94,-50.17 116.85,-46.11 116.75,-42.16"/>
<polygon fill="black" stroke="black" stroke-width="1.62" points="118.85,-42.03 116.58,-36.09 114.65,-42.14 118.85,-42.03"/>
<text text-anchor="middle" x="130.5" y="-101.3" font-family="Times,serif" font-size="14.00">0.81</text>
</g>
<!-- 1&#45;&gt;0 -->
<g id="edge4" class="edge">
<title>1&#45;&gt;0</title>
<path fill="none" stroke="black" stroke-width="0.16" d="M51.66,-120.43C58.82,-126.54 67.03,-133.88 74,-141 83.06,-150.24 92.38,-161.18 99.94,-170.46"/>
<polygon fill="black" stroke="black" stroke-width="0.16" points="98.32,-171.8 103.72,-175.15 101.59,-169.16 98.32,-171.8"/>
<text text-anchor="middle" x="100.5" y="-144.8" font-family="Times,serif" font-size="14.00">0.08</text>
</g>
<!-- 1&#45;&gt;1 -->
<g id="edge5" class="edge">
<title>1&#45;&gt;1</title>
<path fill="none" stroke="black" stroke-width="1.6" d="M64.58,-112.85C76.19,-113.15 85.8,-110.54 85.8,-105 85.8,-100.46 79.34,-97.88 70.6,-97.27"/>
<polygon fill="black" stroke="black" stroke-width="1.6" points="70.62,-95.17 64.58,-97.15 70.54,-99.37 70.62,-95.17"/>
<text text-anchor="middle" x="94.8" y="-101.3" font-family="Times,serif" font-size="14.00">0.8</text>
</g>
<!-- 1&#45;&gt;2 -->
<g id="edge6" class="edge">
<title>1&#45;&gt;2</title>
<path fill="none" stroke="black" stroke-width="0.24" d="M35.79,-86.66C37.63,-76.23 41.38,-63.22 49,-54 57.55,-43.65 69.96,-35.99 81.78,-30.51"/>
<polygon fill="black" stroke="black" stroke-width="0.24" points="82.87,-32.33 87.52,-28 81.18,-28.48 82.87,-32.33"/>
<text text-anchor="middle" x="61.5" y="-57.8" font-family="Times,serif" font-size="14.00">0.12</text>
</g>
<!-- 2&#45;&gt;0 -->
<g id="edge7" class="edge">
<title>2&#45;&gt;0</title>
<path fill="none" stroke="black" stroke-width="1.58" d="M123.65,-35.73C126.3,-41.52 129.28,-48.04 132,-54 138.68,-68.66 143.59,-71.25 147,-87 150.38,-102.64 150.38,-107.36 147,-123 143.46,-139.31 135.66,-156.4 128.76,-169.36"/>
<polygon fill="black" stroke="black" stroke-width="1.58" points="126.91,-168.38 125.88,-174.65 130.6,-170.38 126.91,-168.38"/>
<text text-anchor="middle" x="161.5" y="-101.3" font-family="Times,serif" font-size="14.00">0.79</text>
</g>
<!-- 2&#45;&gt;1 -->
<g id="edge8" class="edge">
<title>2&#45;&gt;1</title>
<path fill="none" stroke="black" stroke-width="0.12" d="M103.72,-34.85C95.64,-44.96 84.63,-58.15 74,-69 68.55,-74.56 62.35,-80.26 56.48,-85.4"/>
<polygon fill="black" stroke="black" stroke-width="0.12" points="54.82,-84.06 51.66,-89.57 57.57,-87.23 54.82,-84.06"/>
<text text-anchor="middle" x="100.5" y="-57.8" font-family="Times,serif" font-size="14.00">0.06</text>
</g>
<!-- 2&#45;&gt;2 -->
<g id="edge9" class="edge">
<title>2&#45;&gt;2</title>
<path fill="none" stroke="black" stroke-width="0.3" d="M146.58,-25.85C158.19,-26.15 167.79,-23.54 167.79,-18 167.79,-13.46 161.33,-10.88 152.6,-10.27"/>
<polygon fill="black" stroke="black" stroke-width="0.3" points="152.62,-8.17 146.58,-10.15 152.54,-12.37 152.62,-8.17"/>
<text text-anchor="middle" x="180.29" y="-14.3" font-family="Times,serif" font-size="14.00">0.15</text>
</g>
</g>
</svg>
