<?xml version="1.0" encoding="UTF-8" standalone="no"?>
<!DOCTYPE svg PUBLIC "-//W3C//DTD SVG 1.1//EN"
 "http://www.w3.org/Graphics/SVG/1.1/DTD/svg11.dtd">
<!-- Generated by graphviz version 2.43.0 (0)
 -->
<!-- Pages: 1 -->
<svg width="197pt" height="260pt"
 viewBox="0.00 0.00 196.64 260.00" xmlns="http://www.w3.org/2000/svg" xmlns:xlink="http://www.w3.org/1999/xlink">
<g id="graph0" class="graph" transform="scale(1 1) rotate(0) translate(4 256)">
<polygon fill="white" stroke="transparent" points="-4,4 -4,-256 192.64,-256 192.64,4 -4,4"/>
<!-- 0 -->
<g id="node1" class="node">
<title>0</title>
<ellipse fill="lightblue" stroke="black" cx="123" cy="-234" rx="34" ry="18"/>
<text text-anchor="middle" x="123" y="-230.3" font-family="Times,serif" font-size="14.00">state 1</text>
</g>
<!-- 0&#45;&gt;0 -->
<g id="edge1" class="edge">
<title>0&#45;&gt;0</title>
<path fill="none" stroke="black" stroke-width="0.21" d="M147.24,-246.71C161.47,-249.42 174.79,-245.18 174.79,-234 174.79,-224.48 165.13,-219.99 153.48,-220.55"/>
<polygon fill="black" stroke="black" stroke-width="0.21" points="152.95,-218.5 147.24,-221.29 153.45,-222.67 152.95,-218.5"/>
</g>
<!-- 1 -->
<g id="node2" class="node">
<title>1</title>
<ellipse fill="orange" stroke="black" cx="34" cy="-162" rx="34" ry="18"/>
<text text-anchor="middle" x="34" y="-158.3" font-family="Times,serif" font-size="14.00">state 2</text>
</g>
<!-- 0&#45;&gt;1 -->
<g id="edge2" class="edge">
<title>0&#45;&gt;1</title>
<path fill="none" stroke="black" stroke-width="1.06" d="M101.31,-220.16C86.33,-209.59 66.82,-194.45 52.55,-182.4"/>
<polygon fill="black" stroke="black" stroke-width="1.06" points="53.85,-180.75 47.93,-178.45 51.13,-183.94 53.85,-180.75"/>
</g>
<!-- 2 -->
<g id="node3" class="node">
<title>2</title>
<ellipse fill="lightgreen" stroke="black" cx="97" cy="-18" rx="34" ry="18"/>
<text text-anchor="middle" x="97" y="-14.3" font-family="Times,serif" font-size="14.00">state 3</text>
</g>
<!-- 0&#45;&gt;2 -->
<g id="edge3" class="edge">
<title>0&#45;&gt;2</title>
<path fill="none" stroke="black" stroke-width="0.11" d="M128.16,-215.8C141.66,-185.5 171.42,-121.19 149,-72 142.59,-57.94 130.4,-46.17 119.32,-37.32"/>
<polygon fill="black" stroke="black" stroke-width="0.11" points="120.36,-35.46 114.32,-33.46 117.79,-38.79 120.36,-35.46"/>
</g>
<!-- 3 -->
<g id="node4" class="node">
<title>3</title>
<ellipse fill="red" stroke="black" cx="97" cy="-90" rx="34" ry="18"/>
<text text-anchor="middle" x="97" y="-86.3" font-family="Times,serif" font-size="14.00">state 4</text>
</g>
<!-- 0&#45;&gt;3 -->
<g id="edge4" class="edge">
<title>0&#45;&gt;3</title>
<path fill="none" stroke="black" stroke-width="0.62" d="M115.44,-216.43C108.1,-191.27 99.1,-143.3 96.14,-114.53"/>
<polygon fill="black" stroke="black" stroke-width="0.62" points="98.21,-114.13 95.57,-108.35 94.03,-114.52 98.21,-114.13"/>
</g>
<!-- 1&#45;&gt;0 -->
<g id="edge5" class="edge">
<title>1&#45;&gt;0</title>
<path fill="none" stroke="black" stroke-width="0.91" d="M55.79,-175.91C70.73,-186.45 90.13,-201.52 104.35,-213.52"/>
<polygon fill="black" stroke="black" stroke-width="0.91" points="103.05,-215.16 108.97,-217.46 105.77,-211.97 103.05,-215.16"/>
</g>
<!-- 1&#45;&gt;1 -->
<g id="edge6" class="edge">
<title>1&#45;&gt;1</title>
<path fill="none" stroke="black" stroke-width="1.06" d="M58.25,-174.71C72.48,-177.42 85.8,-173.18 85.8,-162 85.8,-152.48 76.14,-147.99 64.48,-148.55"/>
<polygon fill="black" stroke="black" stroke-width="1.06" points="63.96,-146.5 58.25,-149.29 64.45,-150.67 63.96,-146.5"/>
</g>
<!-- 1&#45;&gt;2 -->
<g id="edge7" class="edge">
<title>1&#45;&gt;2</title>
<path fill="none" stroke="black" stroke-width="0.01" d="M28.87,-144.17C28.59,-125.69 33.6,-95.51 45,-72 51.36,-58.87 61.55,-46.11 71.42,-36.4"/>
<polygon fill="black" stroke="black" stroke-width="0.01" points="72.99,-37.81 75.92,-32.16 70.11,-34.75 72.99,-37.81"/>
</g>
<!-- 1&#45;&gt;3 -->
<g id="edge8" class="edge">
<title>1&#45;&gt;3</title>
<path fill="none" stroke="black" stroke-width="0.02" d="M43.09,-144.41C51.26,-134.08 63.17,-120.76 73.81,-110.01"/>
<polygon fill="black" stroke="black" stroke-width="0.02" points="75.51,-111.29 78.28,-105.57 72.55,-108.31 75.51,-111.29"/>
</g>
<!-- 2&#45;&gt;0 -->
<g id="edge9" class="edge">
<title>2&#45;&gt;0</title>
<path fill="none" stroke="black" stroke-width="0.2" d="M123.4,-29.44C139.6,-38.55 158.44,-53.23 167,-72 188.64,-119.49 161.66,-181.06 141.11,-212.52"/>
<polygon fill="black" stroke="black" stroke-width="0.2" points="139.25,-211.52 137.62,-217.67 142.73,-213.88 139.25,-211.52"/>
</g>
<!-- 2&#45;&gt;1 -->
<g id="edge10" class="edge">
<title>2&#45;&gt;1</title>
<path fill="none" stroke="black" stroke-width="0.3" d="M87.96,-35.73C80.03,-45.52 69.51,-58.56 63,-72 52.7,-93.25 47.61,-119.95 43.38,-138.53"/>
<polygon fill="black" stroke="black" stroke-width="0.3" points="41.3,-138.19 41.97,-144.51 45.39,-139.15 41.3,-138.19"/>
</g>
<!-- 2&#45;&gt;2 -->
<g id="edge11" class="edge">
<title>2&#45;&gt;2</title>
<path fill="none" stroke="black" stroke-width="1.13" d="M121.24,-30.71C135.47,-33.42 148.79,-29.18 148.79,-18 148.79,-8.48 139.13,-3.99 127.48,-4.55"/>
<polygon fill="black" stroke="black" stroke-width="1.13" points="126.95,-2.49 121.24,-5.29 127.45,-6.66 126.95,-2.49"/>
</g>
<!-- 2&#45;&gt;3 -->
<g id="edge12" class="edge">
<title>2&#45;&gt;3</title>
<path fill="none" stroke="black" stroke-width="0.37" d="M102.86,-35.79C103.83,-44.79 104,-56.02 103.39,-65.84"/>
<polygon fill="black" stroke="black" stroke-width="0.37" points="101.28,-65.9 102.88,-72.06 105.47,-66.25 101.28,-65.9"/>
</g>
<!-- 3&#45;&gt;0 -->
<g id="edge13" class="edge">
<title>3&#45;&gt;0</title>
<path fill="none" stroke="black" stroke-width="0.3" d="M104.61,-107.75C111.96,-133.03 120.95,-181.04 123.89,-209.72"/>
<polygon fill="black" stroke="black" stroke-width="0.3" points="121.82,-210.09 124.45,-215.87 126,-209.7 121.82,-210.09"/>
</g>
<!-- 3&#45;&gt;1 -->
<g id="edge14" class="edge">
<title>3&#45;&gt;1</title>
<path fill="none" stroke="black" stroke-width="0.15" d="M87.9,-107.61C79.63,-118.06 67.54,-131.57 56.8,-142.38"/>
<polygon fill="black" stroke="black" stroke-width="0.15" points="55.09,-141.12 52.3,-146.83 58.04,-144.11 55.09,-141.12"/>
</g>
<!-- 3&#45;&gt;2 -->
<g id="edge15" class="edge">
<title>3&#45;&gt;2</title>
<path fill="none" stroke="black" stroke-width="1.17" d="M91.12,-72.06C90.16,-63.03 90,-51.79 90.62,-41.99"/>
<polygon fill="black" stroke="black" stroke-width="1.17" points="92.73,-41.94 91.14,-35.79 88.54,-41.59 92.73,-41.94"/>
</g>
<!-- 3&#45;&gt;3 -->
<g id="edge16" class="edge">
<title>3&#45;&gt;3</title>
<path fill="none" stroke="black" stroke-width="0.38" d="M121.24,-102.71C135.47,-105.42 148.79,-101.18 148.79,-90 148.79,-80.48 139.13,-76 127.48,-76.55"/>
<polygon fill="black" stroke="black" stroke-width="0.38" points="126.95,-74.49 121.24,-77.29 127.45,-78.66 126.95,-74.49"/>
</g>
</g>
</svg>
