<?xml version="1.0" encoding="UTF-8" standalone="no"?>
<!DOCTYPE svg PUBLIC "-//W3C//DTD SVG 1.1//EN" "http://www.w3.org/Graphics/SVG/1.1/DTD/svg11.dtd">
<svg width="100%" height="100%" viewBox="0 0 518 356" version="1.1" xmlns="http://www.w3.org/2000/svg" xmlns:xlink="http://www.w3.org/1999/xlink" xml:space="preserve" xmlns:serif="http://www.serif.com/" style="fill-rule:evenodd;clip-rule:evenodd;">
    <g id="Artboard1" transform="matrix(1.27901,0,0,1,-163.714,-2)">
        <rect x="128" y="2" width="405" height="356" style="fill:none;"/>
        <g id="graph0" transform="matrix(0.781853,0,0,1,119.4,475)">
            <g id="node1" transform="matrix(1,0,0,1,-139,25)">
                <ellipse cx="224" cy="-453" rx="34" ry="18" style="fill:rgb(173,216,230);stroke:black;stroke-width:1px;"/>
                <g transform="matrix(1,0,0,1,224,-449.3)">
                    <text x="-18.078px" y="0px" style="font-family:'TimesNewRomanPSMT', 'Times New Roman', serif;font-size:14px;">state 1</text>
                </g>
            </g>
            <g id="node2" transform="matrix(1,0,0,1,-217,26)">
                <ellipse cx="472" cy="-366" rx="34" ry="18" style="fill:rgb(255,165,0);stroke:black;stroke-width:1px;"/>
                <g transform="matrix(1,0,0,1,472,-362.3)">
                    <text x="-18.078px" y="0px" style="font-family:'TimesNewRomanPSMT', 'Times New Roman', serif;font-size:14px;">state 2</text>
                </g>
            </g>
            <g id="node3" transform="matrix(1,0,0,1,-139,-156)">
                <ellipse cx="318" cy="-18" rx="34" ry="18" style="fill:rgb(144,238,144);stroke:black;stroke-width:1px;"/>
                <g transform="matrix(1,0,0,1,318,-14.3)">
                    <text x="-18.078px" y="0px" style="font-family:'TimesNewRomanPSMT', 'Times New Roman', serif;font-size:14px;">state 3</text>
                </g>
            </g>
            <g id="node4" transform="matrix(1,0,0,1,-4,-73)">
                <ellipse cx="319" cy="-105" rx="34" ry="18" style="fill:rgb(255,0,0);stroke:black;stroke-width:1px;"/>
                <g transform="matrix(1,0,0,1,319,-101.3)">
                    <text x="-18.078px" y="0px" style="font-family:'TimesNewRomanPSMT', 'Times New Roman', serif;font-size:14px;">state 4</text>
                </g>
            </g>
            <g id="node5" transform="matrix(1,0,0,1,22,-132)">
                <ellipse cx="407" cy="-192" rx="34" ry="18" style="fill:rgb(128,0,128);stroke:black;stroke-width:1px;"/>
                <g transform="matrix(1,0,0,1,407,-188.3)">
                    <text x="-18.078px" y="0px" style="font-family:'TimesNewRomanPSMT', 'Times New Roman', serif;font-size:14px;">state 5</text>
                </g>
            </g>
            <g id="node6" transform="matrix(1,0,0,1,177,-139)">
                <ellipse cx="252" cy="-279" rx="34" ry="18" style="fill:rgb(128,128,0);stroke:black;stroke-width:1px;"/>
                <g transform="matrix(1,0,0,1,252,-275.3)">
                    <text x="-18.078px" y="0px" style="font-family:'TimesNewRomanPSMT', 'Times New Roman', serif;font-size:14px;">state 6</text>
                </g>
            </g>
            <g transform="matrix(1,0,0,1,209.5,-365.3)">
                <text x="-8.75px" y="0px" style="font-family:'TimesNewRomanPSMT', 'Times New Roman', serif;font-size:14px;">0.2</text>
            </g>
            <g transform="matrix(1,0,0,1,139.5,-415.3)">
                <text x="-12.25px" y="0px" style="font-family:'TimesNewRomanPSMT', 'Times New Roman', serif;font-size:14px;">0.28</text>
            </g>
            <g transform="matrix(1,0,0,1,81.5,-395.3)">
                <text x="-12.25px" y="0px" style="font-family:'TimesNewRomanPSMT', 'Times New Roman', serif;font-size:14px;">0.44</text>
            </g>
            <g transform="matrix(1,0,0,1,140.5,-154.3)">
                <text x="-8.75px" y="0px" style="font-family:'TimesNewRomanPSMT', 'Times New Roman', serif;font-size:14px;">0.2</text>
            </g>
            <g transform="matrix(1,0,0,1,155.5,-193.3)">
                <text x="-8.75px" y="0px" style="font-family:'TimesNewRomanPSMT', 'Times New Roman', serif;font-size:14px;">0.2</text>
            </g>
            <g transform="matrix(1,0,0,1,383.5,-408.3)">
                <text x="-8.75px" y="0px" style="font-family:'TimesNewRomanPSMT', 'Times New Roman', serif;font-size:14px;">0.1</text>
            </g>
            <g transform="matrix(1,0,0,1,61.5,-277.3)">
                <text x="-12.25px" y="0px" style="font-family:'TimesNewRomanPSMT', 'Times New Roman', serif;font-size:14px;">0.25</text>
            </g>
            <g transform="matrix(1,0,0,1,308.5,-132.3)">
                <text x="-12.25px" y="0px" style="font-family:'TimesNewRomanPSMT', 'Times New Roman', serif;font-size:14px;">0.92</text>
            </g>
            <g transform="matrix(1,0,0,1,224.5,-183.3)">
                <text x="-12.25px" y="0px" style="font-family:'TimesNewRomanPSMT', 'Times New Roman', serif;font-size:14px;">0.73</text>
            </g>
            <g transform="matrix(1,0,0,1,419.5,-385.3)">
                <text x="-12.25px" y="0px" style="font-family:'TimesNewRomanPSMT', 'Times New Roman', serif;font-size:14px;">0.05</text>
            </g>
            <g transform="matrix(1,0,0,1,419.5,-287.3)">
                <text x="-12.25px" y="0px" style="font-family:'TimesNewRomanPSMT', 'Times New Roman', serif;font-size:14px;">0.05</text>
            </g>
            <g transform="matrix(1,0,0,1,476.5,-425.3)">
                <text x="-12.25px" y="0px" style="font-family:'TimesNewRomanPSMT', 'Times New Roman', serif;font-size:14px;">0.04</text>
            </g>
            <g transform="matrix(1,0,0,1,305.5,-329.3)">
                <text x="-12.25px" y="0px" style="font-family:'TimesNewRomanPSMT', 'Times New Roman', serif;font-size:14px;">0.04</text>
            </g>
            <g transform="matrix(1,0,0,1,294.5,-300.3)">
                <text x="-12.25px" y="0px" style="font-family:'TimesNewRomanPSMT', 'Times New Roman', serif;font-size:14px;">0.03</text>
            </g>
            <g transform="matrix(1,0,0,1,447.5,-344.3)">
                <text x="-3.5px" y="0px" style="font-family:'TimesNewRomanPSMT', 'Times New Roman', serif;font-size:14px;">1</text>
            </g>
            <g transform="matrix(1,0,0,1,238.5,-302.3)">
                <text x="-12.25px" y="0px" style="font-family:'TimesNewRomanPSMT', 'Times New Roman', serif;font-size:14px;">0.05</text>
            </g>
            <g transform="matrix(1,0,0,1,120.5,-338.3)">
                <text x="-3.5px" y="0px" style="font-family:'TimesNewRomanPSMT', 'Times New Roman', serif;font-size:14px;">1</text>
            </g>
            <g transform="matrix(1,0,0,1,396.5,-450.3)">
                <text x="-12.25px" y="0px" style="font-family:'TimesNewRomanPSMT', 'Times New Roman', serif;font-size:14px;">0.57</text>
            </g>
            <g transform="matrix(1,0,0,1,471.5,-299.3)">
                <text x="-12.25px" y="0px" style="font-family:'TimesNewRomanPSMT', 'Times New Roman', serif;font-size:14px;">0.62</text>
            </g>
            <g transform="matrix(1,0,0,1,355.5,-128.3)">
                <text x="-12.25px" y="0px" style="font-family:'TimesNewRomanPSMT', 'Times New Roman', serif;font-size:14px;">0.12</text>
            </g>
            <g id="edge29" transform="matrix(0.414508,0.910046,-0.910046,0.414508,-22.4268,-481.715)">
                <path d="M437.58,-199.85C449.19,-200.15 458.8,-197.54 458.8,-192C458.8,-187.46 452.34,-184.88 443.6,-184.27" style="fill:none;fill-rule:nonzero;stroke:black;stroke-width:0.9px;"/>
                <path d="M443.62,-182.17L437.58,-184.15L443.54,-186.37L443.62,-182.17Z" style="fill-rule:nonzero;stroke:black;stroke-width:1.23px;"/>
            </g>
            <g id="edge291" serif:id="edge29" transform="matrix(0.966183,0.257857,-0.257857,0.966183,-10.0999,-249.029)">
                <path d="M437.58,-199.85C449.19,-200.15 458.8,-197.54 458.8,-192C458.8,-187.46 452.34,-184.88 443.6,-184.27" style="fill:none;fill-rule:nonzero;stroke:black;stroke-width:1.6px;"/>
                <path d="M443.62,-182.17L437.58,-184.15L443.54,-186.37L443.62,-182.17Z" style="fill-rule:nonzero;stroke:black;stroke-width:1.23px;"/>
            </g>
            <g id="edge292" serif:id="edge29" transform="matrix(-0.525519,0.850782,-0.850782,-0.525519,132.204,-782.719)">
                <path d="M437.58,-199.85C449.19,-200.15 458.8,-197.54 458.8,-192C458.8,-187.46 452.34,-184.88 443.6,-184.27" style="fill:none;fill-rule:nonzero;stroke:black;stroke-width:1.23px;"/>
                <path d="M443.62,-182.17L437.58,-184.15L443.54,-186.37L443.62,-182.17Z" style="fill-rule:nonzero;stroke:black;stroke-width:1.23px;"/>
            </g>
            <g id="edge34">
            </g>
            <g transform="matrix(0.460985,0,0,1.00938,-30.6348,-479.554)">
                <g transform="matrix(2.16927,-0,-0,0.990704,90.3171,6.49267)">
                    <path d="M121.537,293.568L131.733,301L119.117,301.172L121.537,293.568Z"/>
                    <path d="M44.569,53C29.562,72.231 8.136,138.343 9.995,180.182C12.005,225.402 42.289,271.23 122.608,298.096" style="fill:none;stroke:black;stroke-width:0.7px;stroke-linecap:round;stroke-linejoin:round;stroke-miterlimit:1.5;"/>
                </g>
            </g>
            <g transform="matrix(2.53149e-17,0.413424,-1.16867,7.15607e-17,473.94,-510.299)">
                <g transform="matrix(1.4811e-16,-0.85567,2.41882,5.23947e-17,90.219,396.124)">
                    <path d="M382.727,38.343L393.988,40.012L385.98,31.92L382.727,38.343Z"/>
                    <path d="M386.281,36.108C357.498,23.448 290.646,9.317 246.735,9.005C198.235,8.66 129.089,26.874 102.988,37.945" style="fill:none;stroke:black;stroke-width:1.6px;stroke-linecap:round;stroke-linejoin:round;stroke-miterlimit:1.5;"/>
                </g>
            </g>
            <g transform="matrix(0.232539,0.395644,0.29716,-0.174655,84.2435,-361.46)">
                <g transform="matrix(1.10413,2.50117,1.87857,-1.47006,-290.406,-19.2247)">
                    <path d="M116.89,132.215L109.914,143.471L122.249,138.652L116.89,132.215Z"/>
                    <path d="M117.639,137.041C117.879,136.874 118.12,136.693 118.36,136.494C127.295,129.113 146.442,126.044 157.263,124.54C173.438,122.293 196.106,129.801 208.969,136.494" style="fill:none;stroke:black;stroke-width:2.79px;stroke-linecap:round;stroke-linejoin:round;stroke-miterlimit:1.5;"/>
                </g>
            </g>
            <g transform="matrix(0.0644515,0.260085,0.43219,-0.107101,166.172,-215.218)">
                <g transform="matrix(0.897679,2.17993,3.62245,-0.540208,-1073.1,-199.008)">
                    <path d="M185.351,274.427L179.957,283.361L189.632,279.45L185.351,274.427Z"/>
                    <path d="M185.985,278.223C198.737,271.297 226.133,268.032 242.346,267.098C262.138,265.958 287.335,271.949 298.713,276.522" style="fill:none;stroke:black;stroke-width:2.2px;stroke-linecap:round;stroke-linejoin:round;stroke-miterlimit:1.5;"/>
                </g>
            </g>
            <g transform="matrix(-0.0883997,-0.325456,-0.399402,0.108485,341.396,-127.536)">
                <g transform="matrix(-0.777234,-2.33172,-2.8615,0.633335,1245.34,551.596)">
                    <path d="M298.998,323.622L304.177,312.429L293.318,318.275L298.998,323.622Z"/>
                    <path d="M297.762,319.245C285.841,326.484 261.384,328.838 246.606,329.083C227.922,329.391 203.358,320.574 192.071,314.282" style="fill:none;stroke:black;stroke-width:2.6px;stroke-linecap:round;stroke-linejoin:round;stroke-miterlimit:1.5;"/>
                </g>
            </g>
            <g transform="matrix(-1.84503,-6.06308,2.01359,-0.612749,509.95,851.806)">
                <g transform="matrix(-0.0459362,0.454534,-0.150954,-0.138317,222.905,-43.546)">
                    <path d="M460.049,58.438L453.005,52.817L462.013,53.087L460.049,58.438Z"/>
                    <path d="M337.995,301.183C385.769,280.24 480.719,209.843 497.677,155.875C510.749,114.277 496.374,70.79 459.426,55.174" style="fill:none;stroke:black;stroke-width:0.5px;stroke-linecap:round;stroke-linejoin:round;stroke-miterlimit:1.5;"/>
                </g>
            </g>
            <g transform="matrix(4.45721,0,0,0.601361,-614.683,-455.148)">
                <g transform="matrix(0.224356,-0,-0,1.6629,140.375,-29.6855)">
                    <path d="M205.754,118.874L215,126L203.328,125.846L205.754,118.874Z"/>
                    <path d="M96,59C118.894,78.584 162.881,107.054 206.633,123.088" style="fill:none;stroke:black;stroke-width:0.7px;stroke-linecap:round;stroke-linejoin:round;stroke-miterlimit:1.5;"/>
                </g>
            </g>
            <g transform="matrix(2.20988,0,0,1.08604,-266.809,-380.313)">
                <g transform="matrix(0.452514,-0,-0,0.920777,125.713,-85.3444)">
                    <path d="M134.842,276.087L139,288L128.526,280.964L134.842,276.087Z"/>
                    <path d="M80,167C91.054,201.443 112.025,251.102 133.147,280.421" style="fill:none;stroke:black;stroke-width:0.7px;stroke-linecap:round;stroke-linejoin:round;stroke-miterlimit:1.5;"/>
                </g>
            </g>
            <g transform="matrix(-0.307342,-0.293075,0.943651,-0.989588,343.187,-63.8601)">
                <g transform="matrix(-1.70412,0.504691,-1.62502,-0.529259,1230.95,48.8893)">
                    <path d="M422.493,178.972L427.1,168.247L429.85,179.591L422.493,178.972Z"/>
                    <path d="M337.017,287.153C352.969,279.055 372.374,269.205 390.26,251.011C407.666,233.304 422.882,199.782 426.357,177.075" style="fill:none;stroke:black;stroke-width:0.7px;stroke-linecap:round;stroke-linejoin:round;stroke-miterlimit:1.5;"/>
                </g>
            </g>
            <g transform="matrix(-0.270879,0.611398,-2.47064,-1.09461,613.218,-376.46)">
                <g transform="matrix(-0.605745,-0.338341,1.36722,-0.149901,232.799,218.226)">
                    <path d="M117.23,46.418L106.653,44.995L115.969,39.787L117.23,46.418Z"/>
                    <path d="M385.219,139.367C358.538,117.288 326.082,90.43 280.238,69.45C232.661,47.677 155.607,37.324 114.61,43.481" style="fill:none;stroke:black;stroke-width:0.9px;stroke-linecap:round;stroke-linejoin:round;stroke-miterlimit:1.5;"/>
                </g>
            </g>
            <g transform="matrix(-0.484534,-0.0278928,-0.0380566,0.661093,551.34,-445.277)">
                <g transform="matrix(-2.05702,-0.0867898,-0.118415,1.50765,1114.77,5.0999)">
                    <path d="M452.233,127.998L441.733,136.131L445.253,123.324L452.233,127.998Z"/>
                    <path d="M445.729,66.716C452.055,75.263 459.75,85.66 459.483,98.019C459.261,108.313 453.234,118.785 447.341,127.755" style="fill:none;stroke:black;stroke-width:2.8px;stroke-linecap:round;stroke-linejoin:round;stroke-miterlimit:1.5;"/>
                </g>
            </g>
            <g transform="matrix(0.406385,-0.00719446,-0.0108244,-0.611423,331.806,-299.338)">
                <g transform="matrix(2.45995,-0.0289456,-0.0435499,-1.63502,-781.604,293.226)">
                    <path d="M387.824,75.305L396.157,67.13L394.395,78.67L387.824,75.305Z"/>
                    <path d="M397.294,131.33C391.461,123.888 384.365,114.835 383.792,103.434C383.31,93.863 387.742,83.724 392.119,75.016" style="fill:none;stroke:black;stroke-width:0.7px;stroke-linecap:round;stroke-linejoin:round;stroke-miterlimit:1.5;"/>
                </g>
            </g>
            <g transform="matrix(0.406385,-0.00719446,-0.0114988,-0.649518,-7.14881,-298.786)">
                <g transform="matrix(2.45995,-0.0272479,-0.0435499,-1.53912,52.2322,267.642)">
                    <path d="M49.057,69.399L57.087,61.13L55.624,72.564L49.057,69.399Z"/>
                    <path d="M58.294,129.33C52.453,121.418 45.347,111.793 44.761,99.682C44.26,89.333 48.848,78.365 53.29,69.011" style="fill:none;stroke:black;stroke-width:0.9px;stroke-linecap:round;stroke-linejoin:round;stroke-miterlimit:1.5;"/>
                </g>
            </g>
            <g transform="matrix(0.0394756,-0.404527,-1.09434,-0.106791,461.622,-233.001)">
                <g transform="matrix(0.238955,-0.905172,-2.4487,-0.0883307,480.007,429.089)">
                    <path d="M278.757,152.369L269.895,144.77L281.544,145.532L278.757,152.369Z"/>
                    <path d="M384.801,155.983C370.747,160.339 353.651,165.638 333.198,164.016C313.931,162.488 294.184,154.686 278.099,148.115" style="fill:none;stroke:black;stroke-width:0.7px;stroke-linecap:round;stroke-linejoin:round;stroke-miterlimit:1.5;"/>
                </g>
            </g>
            <g transform="matrix(-0.456955,0.116996,-0.343926,-1.34328,444.683,-124.512)">
                <g transform="matrix(-2.05377,-0.178877,0.525835,-0.698647,707.438,321.046)">
                    <path d="M257.643,158.988L255.706,150.672L262.245,156.163L257.643,158.988Z"/>
                    <path d="M323.819,280.717C325.984,262.504 323.819,241.903 309.391,220.182C294.919,198.396 271.771,175.454 259.096,156.195" style="fill:none;stroke:black;stroke-width:0.4px;stroke-linecap:round;stroke-linejoin:round;stroke-miterlimit:1.5;"/>
                </g>
            </g>
            <g transform="matrix(0.436208,0.724435,1.55411,-0.935786,-75.3869,-414.29)">
                <g transform="matrix(0.61001,0.472237,1.01308,-0.284351,-6.78062,57.4892)">
                    <path d="M376.992,43.194L387.262,48.633L375.782,50.444L376.992,43.194Z"/>
                    <path d="M100.618,133.655C113.673,111.95 173.304,72.506 204.015,58.263C236.5,43.198 332.829,40.767 378.562,47.182" style="fill:none;stroke:black;stroke-width:0.7px;stroke-linecap:round;stroke-linejoin:round;stroke-miterlimit:1.5;"/>
                </g>
            </g>
            <g transform="matrix(0.694475,0.363441,0.553967,-1.05854,19.4837,-200.043)">
                <g transform="matrix(1.13036,0.3881,0.591553,-0.741594,-171.058,199.131)">
                    <path d="M217.551,150.914L225.648,148.205L220.796,155.23L217.551,150.914Z"/>
                    <path d="M164.647,277.304C161.741,259.148 171.217,224.421 180.917,204.341C190.632,184.23 204.639,164.871 220.468,152.099" style="fill:none;stroke:black;stroke-width:0.4px;stroke-linecap:round;stroke-linejoin:round;stroke-miterlimit:1.5;"/>
                </g>
            </g>
        </g>
        <g id="Layer-1" serif:id="Layer 1" transform="matrix(0.781853,0,0,1,343.602,156.257)">
            <g transform="matrix(-1,0,0,1,-197.5,12.5)">
                <path d="M0,-36C-18.778,-36 -34,-27.941 -34,-18C-34,-8.059 -18.778,0 0,0C18.778,0 34,-8.059 34,-18C34,-27.941 18.778,-36 0,-36" style="fill:rgb(128,128,128);fill-rule:nonzero;"/>
            </g>
            <g transform="matrix(-1,0,0,1,-197.5,12.5)">
                <ellipse cx="0" cy="-18" rx="34" ry="18" style="fill:none;stroke:black;stroke-width:1px;"/>
            </g>
            <g transform="matrix(1,0,0,1,-233,-25)">
                <g>
                    <text x="16.422px" y="22.2px" style="font-family:'TimesNewRomanPSMT', 'Times New Roman', serif;font-size:14px;">state 7</text>
                </g>
            </g>
        </g>
    </g>
</svg>
