<?xml version="1.0" encoding="UTF-8" standalone="no"?>
<!DOCTYPE svg PUBLIC "-//W3C//DTD SVG 1.1//EN"
 "http://www.w3.org/Graphics/SVG/1.1/DTD/svg11.dtd">
<!-- Generated by graphviz version 2.43.0 (0)
 -->
<!-- Pages: 1 -->
<svg width="119pt" height="131pt"
 viewBox="0.00 0.00 118.80 131.00" xmlns="http://www.w3.org/2000/svg" xmlns:xlink="http://www.w3.org/1999/xlink">
<g id="graph0" class="graph" transform="scale(1 1) rotate(0) translate(4 127)">
<polygon fill="white" stroke="transparent" points="-4,4 -4,-127 114.8,-127 114.8,4 -4,4"/>
<!-- 0 -->
<g id="node1" class="node">
<title>0</title>
<ellipse fill="lightblue" stroke="black" cx="34" cy="-105" rx="34" ry="18"/>
<text text-anchor="middle" x="34" y="-101.3" font-family="Times,serif" font-size="14.00">state 1</text>
</g>
<!-- 0&#45;&gt;0 -->
<g id="edge1" class="edge">
<title>0&#45;&gt;0</title>
<path fill="none" stroke="black" stroke-width="1.17" d="M64.58,-112.85C76.19,-113.15 85.8,-110.54 85.8,-105 85.8,-100.46 79.34,-97.88 70.6,-97.27"/>
<polygon fill="black" stroke="black" stroke-width="1.17" points="70.62,-95.17 64.58,-97.15 70.54,-99.37 70.62,-95.17"/>
<text text-anchor="middle" x="98.3" y="-101.3" font-family="Times,serif" font-size="14.00">0.58</text>
</g>
<!-- 1 -->
<g id="node2" class="node">
<title>1</title>
<ellipse fill="orange" stroke="black" cx="34" cy="-18" rx="34" ry="18"/>
<text text-anchor="middle" x="34" y="-14.3" font-family="Times,serif" font-size="14.00">state 2</text>
</g>
<!-- 0&#45;&gt;1 -->
<g id="edge2" class="edge">
<title>0&#45;&gt;1</title>
<path fill="none" stroke="black" stroke-width="0.83" d="M20.87,-88.26C16.89,-82.56 13.04,-75.83 11,-69 8.05,-59.15 11.65,-48.74 16.81,-39.98"/>
<polygon fill="black" stroke="black" stroke-width="0.83" points="18.69,-40.95 20.18,-34.77 15.16,-38.67 18.69,-40.95"/>
<text text-anchor="middle" x="23.5" y="-57.8" font-family="Times,serif" font-size="14.00">0.42</text>
</g>
<!-- 1&#45;&gt;0 -->
<g id="edge3" class="edge">
<title>1&#45;&gt;0</title>
<path fill="none" stroke="black" stroke-width="1.5" d="M35.17,-36.08C35.51,-41.78 35.83,-48.16 36,-54 36.25,-62.72 36,-72.29 35.59,-80.7"/>
<polygon fill="black" stroke="black" stroke-width="1.5" points="33.49,-80.78 35.27,-86.88 37.68,-81 33.49,-80.78"/>
<text text-anchor="middle" x="48.5" y="-57.8" font-family="Times,serif" font-size="14.00">0.75</text>
</g>
<!-- 1&#45;&gt;1 -->
<g id="edge4" class="edge">
<title>1&#45;&gt;1</title>
<path fill="none" stroke="black" stroke-width="0.5" d="M64.58,-25.85C76.19,-26.15 85.8,-23.54 85.8,-18 85.8,-13.46 79.34,-10.88 70.6,-10.27"/>
<polygon fill="black" stroke="black" stroke-width="0.5" points="70.62,-8.17 64.58,-10.15 70.54,-12.37 70.62,-8.17"/>
<text text-anchor="middle" x="98.3" y="-14.3" font-family="Times,serif" font-size="14.00">0.25</text>
</g>
</g>
</svg>
