<?xml version="1.0" encoding="UTF-8" standalone="no"?>
<!DOCTYPE svg PUBLIC "-//W3C//DTD SVG 1.1//EN"
 "http://www.w3.org/Graphics/SVG/1.1/DTD/svg11.dtd">
<!-- Generated by graphviz version 2.43.0 (0)
 -->
<!-- Pages: 1 -->
<svg width="206pt" height="218pt"
 viewBox="0.00 0.00 205.79 218.00" xmlns="http://www.w3.org/2000/svg" xmlns:xlink="http://www.w3.org/1999/xlink">
<g id="graph0" class="graph" transform="scale(1 1) rotate(0) translate(4 214)">
<polygon fill="white" stroke="transparent" points="-4,4 -4,-214 201.79,-214 201.79,4 -4,4"/>
<!-- 0 -->
<g id="node1" class="node">
<title>0</title>
<ellipse fill="lightblue" stroke="black" cx="121" cy="-192" rx="34" ry="18"/>
<text text-anchor="middle" x="121" y="-188.3" font-family="Times,serif" font-size="14.00">state 1</text>
</g>
<!-- 0&#45;&gt;0 -->
<g id="edge1" class="edge">
<title>0&#45;&gt;0</title>
<path fill="none" stroke="black" stroke-width="0.91" d="M151.58,-199.85C163.19,-200.15 172.79,-197.54 172.79,-192 172.79,-187.46 166.33,-184.88 157.6,-184.27"/>
<polygon fill="black" stroke="black" stroke-width="0.91" points="157.62,-182.17 151.58,-184.15 157.54,-186.37 157.62,-182.17"/>
<text text-anchor="middle" x="185.29" y="-188.3" font-family="Times,serif" font-size="14.00">0.45</text>
</g>
<!-- 1 -->
<g id="node2" class="node">
<title>1</title>
<ellipse fill="orange" stroke="black" cx="34" cy="-105" rx="34" ry="18"/>
<text text-anchor="middle" x="34" y="-101.3" font-family="Times,serif" font-size="14.00">state 2</text>
</g>
<!-- 0&#45;&gt;1 -->
<g id="edge2" class="edge">
<title>0&#45;&gt;1</title>
<path fill="none" stroke="black" stroke-width="0.33" d="M92.97,-181.61C79.69,-175.96 64.47,-167.59 54,-156 47.11,-148.38 42.45,-138.08 39.37,-128.81"/>
<polygon fill="black" stroke="black" stroke-width="0.33" points="41.33,-128.04 37.57,-122.91 37.32,-129.26 41.33,-128.04"/>
<text text-anchor="middle" x="66.5" y="-144.8" font-family="Times,serif" font-size="14.00">0.16</text>
</g>
<!-- 2 -->
<g id="node3" class="node">
<title>2</title>
<ellipse fill="lightgreen" stroke="black" cx="121" cy="-18" rx="34" ry="18"/>
<text text-anchor="middle" x="121" y="-14.3" font-family="Times,serif" font-size="14.00">state 3</text>
</g>
<!-- 0&#45;&gt;2 -->
<g id="edge3" class="edge">
<title>0&#45;&gt;2</title>
<path fill="none" stroke="black" stroke-width="0.77" d="M121.58,-173.91C121.75,-168.22 121.91,-161.84 122,-156 122.64,-110.67 122.64,-99.33 122,-54 121.94,-50.17 121.85,-46.11 121.75,-42.16"/>
<polygon fill="black" stroke="black" stroke-width="0.77" points="123.85,-42.03 121.58,-36.09 119.65,-42.14 123.85,-42.03"/>
<text text-anchor="middle" x="135.5" y="-101.3" font-family="Times,serif" font-size="14.00">0.38</text>
</g>
<!-- 1&#45;&gt;0 -->
<g id="edge4" class="edge">
<title>1&#45;&gt;0</title>
<path fill="none" stroke="black" stroke-width="0.62" d="M53.56,-119.8C61.75,-125.92 71.16,-133.45 79,-141 88.32,-149.97 97.67,-160.88 105.18,-170.22"/>
<polygon fill="black" stroke="black" stroke-width="0.62" points="103.56,-171.55 108.93,-174.94 106.84,-168.94 103.56,-171.55"/>
<text text-anchor="middle" x="105.5" y="-144.8" font-family="Times,serif" font-size="14.00">0.31</text>
</g>
<!-- 1&#45;&gt;1 -->
<g id="edge5" class="edge">
<title>1&#45;&gt;1</title>
<path fill="none" stroke="black" stroke-width="0.11" d="M64.58,-112.85C76.19,-113.15 85.8,-110.54 85.8,-105 85.8,-100.46 79.34,-97.88 70.6,-97.27"/>
<polygon fill="black" stroke="black" stroke-width="0.11" points="70.62,-95.17 64.58,-97.15 70.54,-99.37 70.62,-95.17"/>
<text text-anchor="middle" x="98.3" y="-101.3" font-family="Times,serif" font-size="14.00">0.05</text>
</g>
<!-- 1&#45;&gt;2 -->
<g id="edge6" class="edge">
<title>1&#45;&gt;2</title>
<path fill="none" stroke="black" stroke-width="1.27" d="M37.57,-87.09C40.51,-76.56 45.6,-63.29 54,-54 63,-44.04 75.5,-36.46 87.27,-30.93"/>
<polygon fill="black" stroke="black" stroke-width="1.27" points="88.35,-32.75 92.97,-28.39 86.64,-28.92 88.35,-32.75"/>
<text text-anchor="middle" x="66.5" y="-57.8" font-family="Times,serif" font-size="14.00">0.64</text>
</g>
<!-- 2&#45;&gt;0 -->
<g id="edge7" class="edge">
<title>2&#45;&gt;0</title>
<path fill="none" stroke="black" stroke-width="0.79" d="M128.65,-35.73C131.3,-41.52 134.28,-48.04 137,-54 143.68,-68.66 148.59,-71.25 152,-87 155.38,-102.64 155.38,-107.36 152,-123 148.46,-139.31 140.66,-156.4 133.76,-169.36"/>
<polygon fill="black" stroke="black" stroke-width="0.79" points="131.91,-168.38 130.88,-174.65 135.6,-170.38 131.91,-168.38"/>
<text text-anchor="middle" x="163" y="-101.3" font-family="Times,serif" font-size="14.00">0.4</text>
</g>
<!-- 2&#45;&gt;1 -->
<g id="edge8" class="edge">
<title>2&#45;&gt;1</title>
<path fill="none" stroke="black" stroke-width="0.23" d="M108.93,-35.06C100.93,-45.26 89.94,-58.46 79,-69 72.75,-75.02 65.51,-81.02 58.68,-86.31"/>
<polygon fill="black" stroke="black" stroke-width="0.23" points="57.07,-84.9 53.56,-90.2 59.61,-88.24 57.07,-84.9"/>
<text text-anchor="middle" x="105.5" y="-57.8" font-family="Times,serif" font-size="14.00">0.11</text>
</g>
<!-- 2&#45;&gt;2 -->
<g id="edge9" class="edge">
<title>2&#45;&gt;2</title>
<path fill="none" stroke="black" stroke-width="0.98" d="M151.58,-25.85C163.19,-26.15 172.79,-23.54 172.79,-18 172.79,-13.46 166.33,-10.88 157.6,-10.27"/>
<polygon fill="black" stroke="black" stroke-width="0.98" points="157.62,-8.17 151.58,-10.15 157.54,-12.37 157.62,-8.17"/>
<text text-anchor="middle" x="185.29" y="-14.3" font-family="Times,serif" font-size="14.00">0.49</text>
</g>
</g>
</svg>
