<?xml version="1.0" encoding="UTF-8" standalone="no"?>
<!DOCTYPE svg PUBLIC "-//W3C//DTD SVG 1.1//EN" "http://www.w3.org/Graphics/SVG/1.1/DTD/svg11.dtd">
<svg width="100%" height="100%" viewBox="0 0 555 535" version="1.1" xmlns="http://www.w3.org/2000/svg" xmlns:xlink="http://www.w3.org/1999/xlink" xml:space="preserve" xmlns:serif="http://www.serif.com/" style="fill-rule:evenodd;clip-rule:evenodd;">
    <g id="Artboard1" transform="matrix(1.04915,0,0,1.06574,-83.9319,27.7092)">
        <rect x="80" y="-26" width="529" height="502" style="fill:none;"/>
        <g transform="matrix(0.953153,0,0,0.938318,-54.3946,493.828)">
            <ellipse cx="228" cy="-453" rx="34" ry="18" style="fill:rgb(173,216,230);stroke:black;stroke-width:1px;"/>
        </g>
        <g transform="matrix(0.953153,0,0,0.938318,145.693,72.242)">
            <text x="0px" y="0px" style="font-family:'TimesNewRomanPSMT', 'Times New Roman', serif;font-size:14px;">state 1</text>
        </g>
        <g transform="matrix(-0.544363,-0.825792,0.852115,-0.544363,253.163,311.601)">
            <g transform="matrix(0.953153,-1.05821e-16,1.04174e-16,0.938318,32.3423,475.062)">
                <path d="M258.58,-460.85C270.19,-461.15 279.8,-458.54 279.8,-453C279.8,-448.46 273.34,-445.88 264.6,-445.27" style="fill:none;fill-rule:nonzero;stroke:black;stroke-width:3.6px;"/>
            </g>
            <g transform="matrix(0.953153,0,0,0.938318,32.3423,475.062)">
                <path d="M264.62,-443.17L258.58,-445.15L264.54,-447.37L264.62,-443.17Z" style="fill-rule:nonzero;stroke:black;stroke-width:2.58px;"/>
            </g>
        </g>
        <g transform="matrix(0.953153,0,0,0.938318,140.097,34.7094)">
            <text x="0px" y="0px" style="font-family:'TimesNewRomanPSMT', 'Times New Roman', serif;font-size:14px;">0.86</text>
        </g>
        <g transform="matrix(0.953153,0,0,0.938318,57.1243,413.133)">
            <ellipse cx="484" cy="-366" rx="34" ry="18" style="fill:rgb(255,165,0);stroke:black;stroke-width:1px;"/>
        </g>
        <g transform="matrix(0.953153,0,0,0.938318,501.219,73.1802)">
            <text x="0px" y="0px" style="font-family:'TimesNewRomanPSMT', 'Times New Roman', serif;font-size:14px;">state 2</text>
        </g>
        <g transform="matrix(0.953153,0,0,0.938318,-125.881,238.607)">
            <ellipse cx="319" cy="-18" rx="34" ry="18" style="fill:rgb(144,238,144);stroke:black;stroke-width:1px;"/>
        </g>
        <g transform="matrix(0.953153,0,0,0.938318,160.944,225.189)">
            <text x="0px" y="0px" style="font-family:'TimesNewRomanPSMT', 'Times New Roman', serif;font-size:14px;">state 3</text>
        </g>
        <g transform="matrix(0.953153,0,0,0.938318,188.659,317.425)">
            <ellipse cx="319" cy="-105" rx="34" ry="18" style="fill:rgb(255,0,0);stroke:black;stroke-width:1px;"/>
        </g>
        <g transform="matrix(0.953153,0,0,0.938318,475.484,222.373)">
            <text x="0px" y="0px" style="font-family:'TimesNewRomanPSMT', 'Times New Roman', serif;font-size:14px;">state 4</text>
        </g>
        <g transform="matrix(0.953153,0,0,0.938318,-167.82,581.092)">
            <ellipse cx="404" cy="-192" rx="34" ry="18" style="fill:rgb(128,0,128);stroke:black;stroke-width:1px;"/>
        </g>
        <g transform="matrix(0.953153,0,0,0.938318,200.023,404.407)">
            <text x="0px" y="0px" style="font-family:'TimesNewRomanPSMT', 'Times New Roman', serif;font-size:14px;">state 5</text>
        </g>
        <g transform="matrix(0.953153,0,0,0.938318,218.207,661.787)">
            <ellipse cx="247" cy="-279" rx="34" ry="18" style="fill:rgb(128,128,0);stroke:black;stroke-width:1px;"/>
        </g>
        <g transform="matrix(0.953153,0,0,0.938318,436.405,403.468)">
            <text x="0px" y="0px" style="font-family:'TimesNewRomanPSMT', 'Times New Roman', serif;font-size:14px;">state 6</text>
        </g>
        <g transform="matrix(0.953153,0,0,0.938318,57.1243,413.133)">
            <path d="M514.58,-373.85C526.19,-374.15 535.8,-371.54 535.8,-366C535.8,-361.46 529.34,-358.88 520.6,-358.27" style="fill:none;fill-rule:nonzero;stroke:black;stroke-width:3.8px;"/>
        </g>
        <g transform="matrix(0.953153,0,0,0.938318,57.1243,413.133)">
            <path d="M520.62,-356.17L514.58,-358.15L520.54,-360.37L520.62,-356.17Z" style="fill-rule:nonzero;stroke:black;stroke-width:2.72px;"/>
        </g>
        <g transform="matrix(0.953153,0,0,0.938318,572.828,72.2419)">
            <text x="0px" y="0px" style="font-family:'TimesNewRomanPSMT', 'Times New Roman', serif;font-size:14px;">0.91</text>
        </g>
        <g transform="matrix(-0.99683,-0.0783235,0.0808201,-0.99683,337.946,435.318)">
            <g transform="matrix(0.953153,0,0,0.938318,-126.834,216.087)">
                <path d="M349.58,-25.85C361.19,-26.15 370.8,-23.54 370.8,-18C370.8,-13.46 364.34,-10.88 355.6,-10.27" style="fill:none;fill-rule:nonzero;stroke:black;stroke-width:0.58px;"/>
            </g>
            <g transform="matrix(0.953153,0,0,0.938318,-126.834,216.087)">
                <path d="M355.62,-8.17L349.58,-10.15L355.54,-12.37L355.62,-8.17Z" style="fill-rule:nonzero;stroke:black;stroke-width:0.58px;"/>
            </g>
        </g>
        <g transform="matrix(0.953153,0,0,0.938318,111.502,207.361)">
            <text x="0px" y="0px" style="font-family:'TimesNewRomanPSMT', 'Times New Roman', serif;font-size:14px;">0.19</text>
        </g>
        <g transform="matrix(0.953155,0,0,0.938318,188.658,317.425)">
            <path d="M349.58,-112.85C361.19,-113.15 370.8,-110.54 370.8,-105C370.8,-100.46 364.34,-97.88 355.6,-97.27" style="fill:none;fill-rule:nonzero;stroke:black;stroke-width:2.5px;"/>
        </g>
        <g transform="matrix(0.953153,0,0,0.938318,188.659,317.425)">
            <path d="M355.62,-95.17L349.58,-97.15L355.54,-99.37L355.62,-95.17Z" style="fill-rule:nonzero;stroke:black;stroke-width:2.03px;"/>
        </g>
        <g transform="matrix(0.953153,0,0,0.938318,527.077,238.324)">
            <text x="0px" y="0px" style="font-family:'TimesNewRomanPSMT', 'Times New Roman', serif;font-size:14px;">0.68</text>
        </g>
        <g transform="matrix(-0.698215,0.704744,-0.727209,-0.698215,600.154,572.033)">
            <g transform="matrix(0.953153,0,0,0.938318,-245.978,580.153)">
                <path d="M434.58,-199.85C446.19,-200.15 455.8,-197.54 455.8,-192C455.8,-187.46 449.34,-184.88 440.6,-184.27" style="fill:none;fill-rule:nonzero;stroke:black;stroke-width:0.8px;"/>
            </g>
            <g transform="matrix(0.953153,0,0,0.938318,-245.978,580.153)">
                <path d="M440.62,-182.17L434.58,-184.15L440.54,-186.37L440.62,-182.17Z" style="fill-rule:nonzero;stroke:black;stroke-width:0.44px;"/>
            </g>
        </g>
        <g transform="matrix(0.953153,0,0,0.938318,151.535,415.666)">
            <text x="0px" y="0px" style="font-family:'TimesNewRomanPSMT', 'Times New Roman', serif;font-size:14px;">0.15</text>
        </g>
        <g transform="matrix(1.38768,0,0,1.36608,233.457,-4.87367)">
            <text x="0px" y="0px" style="font-family:'ArialMT', 'Arial', sans-serif;font-size:12px;">State transition diagram</text>
        </g>
        <g transform="matrix(0.953153,0,0,0.938318,148.866,104.614)">
            <text x="0px" y="0px" style="font-family:'TimesNewRomanPSMT', 'Times New Roman', serif;font-size:14px;">0.03</text>
        </g>
        <g transform="matrix(0.953152,0,0,0.938315,80.0003,-26)">
            <g>
                <path d="M68.722,124.255L72.113,118L73.153,125.039L68.722,124.255Z"/>
                <path d="M82,248C67.37,211.575 63.781,167.581 71.172,123.317" style="fill:none;stroke:black;stroke-width:0.5px;stroke-linecap:round;stroke-linejoin:round;stroke-miterlimit:1.5;"/>
            </g>
        </g>
        <g transform="matrix(0.953151,0,0,0.938313,79.9997,-25.9996)">
            <g>
                <path d="M432.004,117.288L439.113,117L433.598,121.496L432.004,117.288Z"/>
                <path d="M149.009,437C141.66,399.999 383.095,144.497 434.063,118.914" style="fill:none;stroke:black;stroke-width:0.5px;stroke-linecap:round;stroke-linejoin:round;stroke-miterlimit:1.5;"/>
            </g>
        </g>
        <g transform="matrix(0.953151,0,0,0.938315,79.9997,-26)">
            <g>
                <path d="M421.759,93.314L427.113,98L420.018,97.464L421.759,93.314Z"/>
                <path d="M110.01,246C110.01,223.979 160.108,165.968 225.079,129.175C290.367,92.202 370.529,75.862 422.133,95.911" style="fill:none;stroke:black;stroke-width:0.5px;stroke-linecap:round;stroke-linejoin:round;stroke-miterlimit:1.5;"/>
            </g>
        </g>
        <g transform="matrix(0.95315,3.332e-07,-5.05731e-07,0.938314,80.0006,-25.9999)">
            <g>
                <path d="M423.234,434.796L417.467,438.963L419.581,432.169L423.234,434.796Z"/>
                <path d="M451.799,279.378C463.547,333.792 452.533,388.949 420.619,434.579" style="fill:none;stroke:black;stroke-width:0.5px;stroke-linecap:round;stroke-linejoin:round;stroke-miterlimit:1.5;"/>
            </g>
        </g>
        <g transform="matrix(0.953152,0,0,0.938315,79.9998,-26)">
            <g>
                <path d="M45.899,113.095L56.113,110L49.798,118.604L45.899,113.095Z"/>
                <path d="M118,443C86.889,435.033 35.418,360.024 19.145,276.082C6.955,213.2 8.344,147.021 49.501,114.68" style="fill:none;stroke:black;stroke-width:1.5px;stroke-linecap:round;stroke-linejoin:round;stroke-miterlimit:1.5;"/>
            </g>
        </g>
        <g transform="matrix(0.953153,0,0,0.938315,79.9999,-26)">
            <path d="M130.572,108.074L122,103L131.902,101.916L130.572,108.074Z"/>
            <path d="M410,246C336.903,180.876 244.616,130.13 129.39,104.596" style="fill:none;stroke:black;stroke-width:0.7px;stroke-linecap:round;stroke-linejoin:round;stroke-miterlimit:1.5;"/>
        </g>
        <g transform="matrix(0.953152,0,0,0.938314,79.9998,-25.9996)">
            <g>
                <path d="M126.423,283.219L119,279L127.47,277.922L126.423,283.219Z"/>
                <path d="M381,433C309.183,360.219 203.078,296.763 125.357,280.256" style="fill:none;stroke:black;stroke-width:0.6px;stroke-linecap:round;stroke-linejoin:round;stroke-miterlimit:1.5;"/>
            </g>
        </g>
        <g transform="matrix(0.953153,1.2554e-08,3.8288e-08,0.938314,80.0004,-25.9999)">
            <g>
                <path d="M165.112,438.006L156.591,437.458L163.736,432.784L165.112,438.006Z"/>
                <path d="M430.409,280.542C373.876,357.943 253.692,411.389 162.858,435.808" style="fill:none;stroke:black;stroke-width:0.6px;stroke-linecap:round;stroke-linejoin:round;stroke-miterlimit:1.5;"/>
            </g>
        </g>
        <g transform="matrix(0.953153,3.83968e-07,-2.59377e-07,0.938316,80.0003,-25.9998)">
            <g>
                <path d="M143.029,255.265L135.591,259.458L139.025,251.641L143.029,255.265Z"/>
                <path d="M424.409,106.542C329.935,118.657 206.06,183.197 139.94,254.654" style="fill:none;stroke:black;stroke-width:0.6px;stroke-linecap:round;stroke-linejoin:round;stroke-miterlimit:1.5;"/>
            </g>
        </g>
        <g transform="matrix(0.953152,4.46469e-08,-2.33696e-08,0.938318,79.9992,-26.001)">
            <g>
                <path d="M358.07,438.495L367.834,442.806L357.436,445.216L358.07,438.495Z"/>
                <path d="M114.166,282.194C158.118,354.294 286.528,432.696 359.769,442.046" style="fill:none;stroke:black;stroke-width:0.75px;stroke-linecap:round;stroke-linejoin:round;stroke-miterlimit:1.5;"/>
            </g>
        </g>
        <g transform="matrix(0.953152,-2.7676e-09,2.63563e-08,0.938312,79.9996,-25.9986)">
            <g>
                <path d="M123.458,427.336L130.834,437.806L118.651,433.855L123.458,427.336Z"/>
                <path d="M73.756,276.188C31.294,283.834 95.55,403.873 123.01,432.038" style="fill:none;stroke:black;stroke-width:0.9px;stroke-linecap:round;stroke-linejoin:round;stroke-miterlimit:1.5;"/>
            </g>
        </g>
        <g transform="matrix(0.95315,-2.34164e-07,-7.91226e-08,0.938314,80.0006,-26.0005)">
            <g>
                <path d="M101.671,291.67L95.82,281.794L106.426,286.185L101.671,291.67Z"/>
                <path d="M140.48,437.39C156.536,417.044 122.732,313.475 102.403,287.501" style="fill:none;stroke:black;stroke-width:1.1px;stroke-linecap:round;stroke-linejoin:round;stroke-miterlimit:1.5;"/>
            </g>
        </g>
        <g transform="matrix(0.95315,-2.2197e-08,9.3403e-07,0.938318,80.0009,-26.0002)">
            <g>
                <path d="M477.67,128.491L473.997,118.47L482.948,124.283L477.67,128.491Z"/>
                <path d="M424.003,461.53C540.206,439.461 541.435,209.054 479.047,124.803" style="fill:none;stroke:black;stroke-width:0.75px;stroke-linecap:round;stroke-linejoin:round;stroke-miterlimit:1.5;"/>
            </g>
        </g>
        <g transform="matrix(0.986756,9.14363e-07,-1.0996e-06,0.938313,75.4033,-26.0002)">
            <g>
                <path d="M136.778,270.449C184.457,301.602 333.208,301.727 392.048,274.21" style="fill:none;stroke:black;stroke-width:0.75px;stroke-linecap:round;stroke-linejoin:round;stroke-miterlimit:1.5;"/>
            </g>
        </g>
        <g transform="matrix(0.953152,-1.65185e-06,-5.2795e-07,0.938318,80.0008,-26.0009)">
            <g>
                <path d="M402.317,426.825L395.052,434.643L396.173,424.029L402.317,426.825Z"/>
                <path d="M90.948,121.357C310.132,233.526 432.875,340.972 398.407,427.27" style="fill:none;stroke:black;stroke-width:0.75px;stroke-linecap:round;stroke-linejoin:round;stroke-miterlimit:1.5;"/>
            </g>
        </g>
        <g transform="matrix(0.953153,3.862e-07,-1.38382e-07,0.938316,79.9997,-25.9994)">
            <g>
                <path d="M396.572,242.532L404.11,251.064L392.961,248.761L396.572,242.532Z"/>
                <path d="M123.788,247.436C215.062,179.799 351.211,222.481 396.635,246.73" style="fill:none;stroke:black;stroke-width:2px;stroke-linecap:round;stroke-linejoin:round;stroke-miterlimit:1.5;"/>
            </g>
        </g>
        <g transform="matrix(0.953154,3.03964e-07,-8.3454e-08,0.938313,80.0002,-26.0004)">
            <g>
                <path d="M352.707,447.808L359.11,455.064L349.634,453.101L352.707,447.808Z"/>
                <path d="M176.889,448.03C242.401,409.8 325.247,437.128 352.759,451.376" style="fill:none;stroke:black;stroke-width:1.7px;stroke-linecap:round;stroke-linejoin:round;stroke-miterlimit:1.5;"/>
            </g>
        </g>
        <g transform="matrix(0.953151,9.55655e-07,-5.09027e-07,0.938316,79.9996,-26.0008)">
            <g>
                <path d="M177.654,480.774L165.576,470.375L181.477,471.447L177.654,480.774Z"/>
                <path d="M376.794,470.292C301.179,505.573 211.278,487.014 176.768,474.963" style="fill:none;stroke:black;stroke-width:2.8px;stroke-linecap:round;stroke-linejoin:round;stroke-miterlimit:1.5;"/>
            </g>
        </g>
        <g transform="matrix(0.953153,0,0,0.938318,199.382,65.6743)">
            <text x="0px" y="0px" style="font-family:'TimesNewRomanPSMT', 'Times New Roman', serif;font-size:14px;">0.09</text>
        </g>
        <g transform="matrix(0.953153,0,0,0.938318,444.342,367.811)">
            <text x="0px" y="0px" style="font-family:'TimesNewRomanPSMT', 'Times New Roman', serif;font-size:14px;">0.1</text>
        </g>
        <g transform="matrix(0.953153,0,0,0.938318,204.148,253.807)">
            <text x="0px" y="0px" style="font-family:'TimesNewRomanPSMT', 'Times New Roman', serif;font-size:14px;">0.07</text>
        </g>
        <g transform="matrix(0.953153,0,0,0.938318,246.087,239.732)">
            <g>
                <text x="0px" y="0px" style="font-family:'TimesNewRomanPSMT', 'Times New Roman', serif;font-size:14px;">0.1</text>
                <g transform="matrix(1,0,0,1,16.98,0)">
                    <text x="0px" y="0px" style="font-family:'TimesNewRomanPSMT', 'Times New Roman', serif;font-size:14px;">1</text>
                </g>
            </g>
        </g>
        <g transform="matrix(0.953153,0,0,0.938318,408.123,382.356)">
            <text x="0px" y="0px" style="font-family:'TimesNewRomanPSMT', 'Times New Roman', serif;font-size:14px;">0.1</text>
        </g>
        <g transform="matrix(0.953153,0,0,0.938318,428.139,214.398)">
            <text x="0px" y="0px" style="font-family:'TimesNewRomanPSMT', 'Times New Roman', serif;font-size:14px;">0.52</text>
        </g>
        <g transform="matrix(0.953153,0,0,0.938318,98.3483,80.2179)">
            <text x="0px" y="0px" style="font-family:'TimesNewRomanPSMT', 'Times New Roman', serif;font-size:14px;">0.25</text>
        </g>
        <g transform="matrix(0.953153,0,0,0.938318,483.422,388.455)">
            <text x="0px" y="0px" style="font-family:'TimesNewRomanPSMT', 'Times New Roman', serif;font-size:14px;">0.03</text>
        </g>
        <g transform="matrix(0.953153,0,0,0.938318,547.283,105.552)">
            <text x="0px" y="0px" style="font-family:'TimesNewRomanPSMT', 'Times New Roman', serif;font-size:14px;">0.15</text>
        </g>
        <g transform="matrix(0.953153,0,0,0.938318,396.685,411.444)">
            <text x="0px" y="0px" style="font-family:'TimesNewRomanPSMT', 'Times New Roman', serif;font-size:14px;">0.35</text>
        </g>
        <g transform="matrix(0.953153,0,0,0.938318,227.024,433.963)">
            <text x="0px" y="0px" style="font-family:'TimesNewRomanPSMT', 'Times New Roman', serif;font-size:14px;">0.75</text>
        </g>
        <g transform="matrix(0.953153,0,0,0.938318,234.649,375.788)">
            <text x="0px" y="0px" style="font-family:'TimesNewRomanPSMT', 'Times New Roman', serif;font-size:14px;">0.08</text>
        </g>
        <g transform="matrix(0.953153,0,0,0.938318,183.179,363.12)">
            <text x="0px" y="0px" style="font-family:'TimesNewRomanPSMT', 'Times New Roman', serif;font-size:14px;">0.13</text>
        </g>
        <g transform="matrix(0.953153,0,0,0.938318,160.303,265.536)">
            <text x="0px" y="0px" style="font-family:'TimesNewRomanPSMT', 'Times New Roman', serif;font-size:14px;">0.21</text>
        </g>
        <g transform="matrix(0.953153,0,0,0.938318,489.141,102.269)">
            <text x="0px" y="0px" style="font-family:'TimesNewRomanPSMT', 'Times New Roman', serif;font-size:14px;">0.03</text>
        </g>
        <g transform="matrix(0.953153,0,0,0.938318,469.125,57.2294)">
            <text x="0px" y="0px" style="font-family:'TimesNewRomanPSMT', 'Times New Roman', serif;font-size:14px;">0.03</text>
        </g>
        <g transform="matrix(0.953153,0,0,0.938318,219.399,216.744)">
            <text x="0px" y="0px" style="font-family:'TimesNewRomanPSMT', 'Times New Roman', serif;font-size:14px;">0.08</text>
        </g>
        <g transform="matrix(-0.48545,-0.807496,0.820265,-0.477893,181.556,678.697)">
            <path d="M388.688,272.161L399.222,270.449L391.821,278.139L388.688,272.161Z"/>
        </g>
    </g>
</svg>
