<?xml version="1.0" encoding="UTF-8" standalone="no"?>
<!DOCTYPE svg PUBLIC "-//W3C//DTD SVG 1.1//EN"
 "http://www.w3.org/Graphics/SVG/1.1/DTD/svg11.dtd">
<!-- Generated by graphviz version 2.43.0 (0)
 -->
<!-- Pages: 1 -->
<svg width="321pt" height="305pt"
 viewBox="0.00 0.00 320.68 305.00" xmlns="http://www.w3.org/2000/svg" xmlns:xlink="http://www.w3.org/1999/xlink">
<g id="graph0" class="graph" transform="scale(1 1) rotate(0) translate(4 301)">
<polygon fill="white" stroke="transparent" points="-4,4 -4,-301 316.68,-301 316.68,4 -4,4"/>
<!-- 0 -->
<g id="node1" class="node">
<title>0</title>
<ellipse fill="lightblue" stroke="black" cx="208.68" cy="-279" rx="34" ry="18"/>
<text text-anchor="middle" x="208.68" y="-275.3" font-family="Times,serif" font-size="14.00">state 1</text>
</g>
<!-- 0&#45;&gt;0 -->
<g id="edge1" class="edge">
<title>0&#45;&gt;0</title>
<path fill="none" stroke="black" stroke-width="1.38" d="M239.27,-286.85C250.88,-287.15 260.48,-284.54 260.48,-279 260.48,-274.46 254.02,-271.88 245.29,-271.27"/>
<polygon fill="black" stroke="black" stroke-width="1.38" points="245.31,-269.17 239.27,-271.15 245.22,-273.37 245.31,-269.17"/>
<text text-anchor="middle" x="272.98" y="-275.3" font-family="Times,serif" font-size="14.00">0.69</text>
</g>
<!-- 1 -->
<g id="node2" class="node">
<title>1</title>
<ellipse fill="orange" stroke="black" cx="68.68" cy="-192" rx="34" ry="18"/>
<text text-anchor="middle" x="68.68" y="-188.3" font-family="Times,serif" font-size="14.00">state 2</text>
</g>
<!-- 0&#45;&gt;1 -->
<g id="edge2" class="edge">
<title>0&#45;&gt;1</title>
<path fill="none" stroke="black" stroke-width="0.47" d="M175.61,-274.98C150.63,-271.16 116.8,-262.52 93.68,-243 85.33,-235.95 79.49,-225.42 75.56,-215.85"/>
<polygon fill="black" stroke="black" stroke-width="0.47" points="77.45,-214.91 73.36,-210.05 73.53,-216.4 77.45,-214.91"/>
<text text-anchor="middle" x="106.18" y="-231.8" font-family="Times,serif" font-size="14.00">0.24</text>
</g>
<!-- 2 -->
<g id="node3" class="node">
<title>2</title>
<ellipse fill="lightgreen" stroke="black" cx="161.68" cy="-18" rx="34" ry="18"/>
<text text-anchor="middle" x="161.68" y="-14.3" font-family="Times,serif" font-size="14.00">state 3</text>
</g>
<!-- 0&#45;&gt;2 -->
<g id="edge3" class="edge">
<title>0&#45;&gt;2</title>
<path fill="none" stroke="black" stroke-width="0.09" d="M218.72,-261.54C238.18,-227.36 276.66,-146.86 247.68,-87 236.16,-63.2 211.81,-45.2 191.96,-33.72"/>
<polygon fill="black" stroke="black" stroke-width="0.09" points="192.75,-31.76 186.49,-30.66 190.69,-35.42 192.75,-31.76"/>
<text text-anchor="middle" x="270.18" y="-144.8" font-family="Times,serif" font-size="14.00">0.04</text>
</g>
<!-- 3 -->
<g id="node4" class="node">
<title>3</title>
<ellipse fill="red" stroke="black" cx="161.68" cy="-105" rx="34" ry="18"/>
<text text-anchor="middle" x="161.68" y="-101.3" font-family="Times,serif" font-size="14.00">state 4</text>
</g>
<!-- 0&#45;&gt;3 -->
<g id="edge4" class="edge">
<title>0&#45;&gt;3</title>
<path fill="none" stroke="black" stroke-width="0.06" d="M211.22,-260.72C214.35,-233.42 216.93,-179.49 195.68,-141 192.49,-135.21 188.07,-129.69 183.49,-124.82"/>
<polygon fill="black" stroke="black" stroke-width="0.06" points="184.97,-123.33 179.26,-120.55 181.99,-126.29 184.97,-123.33"/>
<text text-anchor="middle" x="225.18" y="-188.3" font-family="Times,serif" font-size="14.00">0.03</text>
</g>
<!-- 1&#45;&gt;0 -->
<g id="edge5" class="edge">
<title>1&#45;&gt;0</title>
<path fill="none" stroke="black" stroke-width="0" d="M89.93,-206.26C106.23,-216.4 129.32,-230.68 149.68,-243 160,-249.24 171.38,-256.02 181.38,-261.94"/>
<polygon fill="black" stroke="black" stroke-width="0" points="180.53,-263.88 186.77,-265.13 182.67,-260.27 180.53,-263.88"/>
<text text-anchor="middle" x="158.68" y="-231.8" font-family="Times,serif" font-size="14.00">0.0</text>
</g>
<!-- 1&#45;&gt;1 -->
<g id="edge6" class="edge">
<title>1&#45;&gt;1</title>
<path fill="none" stroke="black" stroke-width="1.26" d="M99.26,-199.85C110.88,-200.15 120.48,-197.54 120.48,-192 120.48,-187.46 114.02,-184.88 105.28,-184.27"/>
<polygon fill="black" stroke="black" stroke-width="1.26" points="105.3,-182.17 99.26,-184.15 105.22,-186.37 105.3,-182.17"/>
<text text-anchor="middle" x="132.98" y="-188.3" font-family="Times,serif" font-size="14.00">0.63</text>
</g>
<!-- 1&#45;&gt;2 -->
<g id="edge7" class="edge">
<title>1&#45;&gt;2</title>
<path fill="none" stroke="black" stroke-width="0.71" d="M51.54,-176.27C30.72,-156.5 0,-120.02 13.68,-87 30.97,-45.26 84.31,-29.14 121.99,-22.91"/>
<polygon fill="black" stroke="black" stroke-width="0.71" points="122.75,-24.92 128.36,-21.93 122.11,-20.77 122.75,-24.92"/>
<text text-anchor="middle" x="26.18" y="-101.3" font-family="Times,serif" font-size="14.00">0.35</text>
</g>
<!-- 1&#45;&gt;3 -->
<g id="edge8" class="edge">
<title>1&#45;&gt;3</title>
<path fill="none" stroke="black" stroke-width="0.02" d="M90.23,-178.07C99.7,-171.93 110.7,-164.15 119.68,-156 129.26,-147.31 138.65,-136.43 146.11,-127.04"/>
<polygon fill="black" stroke="black" stroke-width="0.02" points="147.78,-128.31 149.82,-122.29 144.47,-125.73 147.78,-128.31"/>
<text text-anchor="middle" x="145.18" y="-144.8" font-family="Times,serif" font-size="14.00">0.01</text>
</g>
<!-- 2&#45;&gt;0 -->
<g id="edge9" class="edge">
<title>2&#45;&gt;0</title>
<path fill="none" stroke="black" stroke-width="1.56" d="M190.72,-27.52C206.87,-33.23 226.68,-41.94 241.68,-54 275.61,-81.28 278.66,-98.21 286.68,-141 295.46,-187.79 256.3,-234.24 230.29,-259.22"/>
<polygon fill="black" stroke="black" stroke-width="1.56" points="228.85,-257.69 225.93,-263.33 231.73,-260.74 228.85,-257.69"/>
<text text-anchor="middle" x="300.18" y="-144.8" font-family="Times,serif" font-size="14.00">0.78</text>
</g>
<!-- 2&#45;&gt;1 -->
<g id="edge10" class="edge">
<title>2&#45;&gt;1</title>
<path fill="none" stroke="black" stroke-width="0.36" d="M143.04,-33.31C127.78,-45.92 106.67,-65.59 93.68,-87 78.52,-112 72.55,-145.59 70.2,-167.75"/>
<polygon fill="black" stroke="black" stroke-width="0.36" points="68.09,-167.78 69.6,-173.95 72.27,-168.18 68.09,-167.78"/>
<text text-anchor="middle" x="106.18" y="-101.3" font-family="Times,serif" font-size="14.00">0.18</text>
</g>
<!-- 2&#45;&gt;2 -->
<g id="edge11" class="edge">
<title>2&#45;&gt;2</title>
<path fill="none" stroke="black" stroke-width="0.04" d="M192.27,-25.85C203.88,-26.15 213.48,-23.54 213.48,-18 213.48,-13.46 207.02,-10.88 198.29,-10.27"/>
<polygon fill="black" stroke="black" stroke-width="0.04" points="198.31,-8.17 192.27,-10.15 198.22,-12.37 198.31,-8.17"/>
<text text-anchor="middle" x="225.98" y="-14.3" font-family="Times,serif" font-size="14.00">0.02</text>
</g>
<!-- 2&#45;&gt;3 -->
<g id="edge12" class="edge">
<title>2&#45;&gt;3</title>
<path fill="none" stroke="black" stroke-width="0.05" d="M162.85,-36.08C163.19,-41.78 163.52,-48.16 163.68,-54 163.93,-62.72 163.68,-72.29 163.28,-80.7"/>
<polygon fill="black" stroke="black" stroke-width="0.05" points="161.17,-80.78 162.95,-86.88 165.36,-81 161.17,-80.78"/>
<text text-anchor="middle" x="176.18" y="-57.8" font-family="Times,serif" font-size="14.00">0.02</text>
</g>
<!-- 3&#45;&gt;0 -->
<g id="edge13" class="edge">
<title>3&#45;&gt;0</title>
<path fill="none" stroke="black" stroke-width="0.01" d="M165.08,-123.06C169.32,-143.78 177.08,-179.7 185.68,-210 190.02,-225.28 195.74,-242.21 200.39,-255.35"/>
<polygon fill="black" stroke="black" stroke-width="0.01" points="198.44,-256.15 202.44,-261.1 202.4,-254.74 198.44,-256.15"/>
<text text-anchor="middle" x="194.68" y="-188.3" font-family="Times,serif" font-size="14.00">0.0</text>
</g>
<!-- 3&#45;&gt;1 -->
<g id="edge14" class="edge">
<title>3&#45;&gt;1</title>
<path fill="none" stroke="black" stroke-width="0.05" d="M133.22,-114.78C118.95,-120.37 102.27,-128.89 90.68,-141 83.47,-148.53 78.4,-158.81 74.95,-168.09"/>
<polygon fill="black" stroke="black" stroke-width="0.05" points="72.88,-167.65 72.92,-174.01 76.85,-169.02 72.88,-167.65"/>
<text text-anchor="middle" x="103.18" y="-144.8" font-family="Times,serif" font-size="14.00">0.03</text>
</g>
<!-- 3&#45;&gt;2 -->
<g id="edge15" class="edge">
<title>3&#45;&gt;2</title>
<path fill="none" stroke="black" stroke-width="0.03" d="M146.3,-88.59C141.63,-82.92 137.11,-76.12 134.68,-69 131.2,-58.79 135.62,-48.19 141.82,-39.38"/>
<polygon fill="black" stroke="black" stroke-width="0.03" points="143.85,-40.18 145.86,-34.15 140.53,-37.62 143.85,-40.18"/>
<text text-anchor="middle" x="147.18" y="-57.8" font-family="Times,serif" font-size="14.00">0.01</text>
</g>
<!-- 3&#45;&gt;3 -->
<g id="edge16" class="edge">
<title>3&#45;&gt;3</title>
<path fill="none" stroke="black" stroke-width="1.91" d="M192.27,-112.85C203.88,-113.15 213.48,-110.54 213.48,-105 213.48,-100.46 207.02,-97.88 198.29,-97.27"/>
<polygon fill="black" stroke="black" stroke-width="1.91" points="198.31,-95.17 192.27,-97.15 198.22,-99.37 198.31,-95.17"/>
<text text-anchor="middle" x="225.98" y="-101.3" font-family="Times,serif" font-size="14.00">0.96</text>
</g>
</g>
</svg>
