<?xml version="1.0" encoding="UTF-8" standalone="no"?>
<!DOCTYPE svg PUBLIC "-//W3C//DTD SVG 1.1//EN"
 "http://www.w3.org/Graphics/SVG/1.1/DTD/svg11.dtd">
<!-- Generated by graphviz version 2.43.0 (0)
 -->
<!-- Pages: 1 -->
<svg width="719pt" height="479pt"
 viewBox="0.00 0.00 719.00 479.00" xmlns="http://www.w3.org/2000/svg" xmlns:xlink="http://www.w3.org/1999/xlink">
<g id="graph0" class="graph" transform="scale(1 1) rotate(0) translate(4 475)">
<polygon fill="white" stroke="transparent" points="-4,4 -4,-475 715,-475 715,4 -4,4"/>
<!-- 0 -->
<g id="node1" class="node">
<title>0</title>
<ellipse fill="lightblue" stroke="black" cx="231" cy="-453" rx="34" ry="18"/>
<text text-anchor="middle" x="231" y="-449.3" font-family="Times,serif" font-size="14.00">state 1</text>
</g>
<!-- 0&#45;&gt;0 -->
<g id="edge1" class="edge">
<title>0&#45;&gt;0</title>
<path fill="none" stroke="black" stroke-width="0.17" d="M261.58,-460.85C273.19,-461.15 282.8,-458.54 282.8,-453 282.8,-448.46 276.34,-445.88 267.6,-445.27"/>
<polygon fill="black" stroke="black" stroke-width="0.17" points="267.62,-443.17 261.58,-445.15 267.54,-447.37 267.62,-443.17"/>
<text text-anchor="middle" x="295.3" y="-449.3" font-family="Times,serif" font-size="14.00">0.09</text>
</g>
<!-- 1 -->
<g id="node2" class="node">
<title>1</title>
<ellipse fill="orange" stroke="black" cx="477" cy="-366" rx="34" ry="18"/>
<text text-anchor="middle" x="477" y="-362.3" font-family="Times,serif" font-size="14.00">state 2</text>
</g>
<!-- 0&#45;&gt;1 -->
<g id="edge2" class="edge">
<title>0&#45;&gt;1</title>
<path fill="none" stroke="black" stroke-width="0.24" d="M264.22,-449.55C315.75,-445.23 412.04,-434.99 441,-417 451.73,-410.33 460.23,-399.17 466.26,-389.08"/>
<polygon fill="black" stroke="black" stroke-width="0.24" points="468.22,-389.88 469.36,-383.63 464.57,-387.81 468.22,-389.88"/>
<text text-anchor="middle" x="468.5" y="-405.8" font-family="Times,serif" font-size="14.00">0.12</text>
</g>
<!-- 2 -->
<g id="node3" class="node">
<title>2</title>
<ellipse fill="lightgreen" stroke="black" cx="319" cy="-18" rx="34" ry="18"/>
<text text-anchor="middle" x="319" y="-14.3" font-family="Times,serif" font-size="14.00">state 3</text>
</g>
<!-- 0&#45;&gt;2 -->
<g id="edge3" class="edge">
<title>0&#45;&gt;2</title>
<path fill="none" stroke="black" stroke-width="0.67" d="M197.78,-449.22C148.91,-444.62 60.53,-434.18 34,-417 11.44,-402.39 0,-393.87 0,-367 0,-367 0,-367 0,-104 0,-77.13 11.06,-68 34,-54 74.27,-29.42 210.8,-22.06 279.23,-19.89"/>
<polygon fill="black" stroke="black" stroke-width="0.67" points="279.3,-21.98 285.23,-19.7 279.17,-17.79 279.3,-21.98"/>
<text text-anchor="middle" x="12.5" y="-231.8" font-family="Times,serif" font-size="14.00">0.33</text>
</g>
<!-- 3 -->
<g id="node4" class="node">
<title>3</title>
<ellipse fill="red" stroke="black" cx="319" cy="-105" rx="34" ry="18"/>
<text text-anchor="middle" x="319" y="-101.3" font-family="Times,serif" font-size="14.00">state 4</text>
</g>
<!-- 0&#45;&gt;3 -->
<g id="edge4" class="edge">
<title>0&#45;&gt;3</title>
<path fill="none" stroke="black" stroke-width="0.16" d="M199.23,-446.72C158.75,-437.97 94,-416.26 94,-367 94,-367 94,-367 94,-191 94,-166.35 98.34,-155.88 118,-141 142.83,-122.21 228.39,-112.72 279.53,-108.62"/>
<polygon fill="black" stroke="black" stroke-width="0.16" points="279.77,-110.71 285.59,-108.14 279.44,-106.52 279.77,-110.71"/>
<text text-anchor="middle" x="106.5" y="-275.3" font-family="Times,serif" font-size="14.00">0.08</text>
</g>
<!-- 4 -->
<g id="node5" class="node">
<title>4</title>
<ellipse fill="purple" stroke="black" cx="402" cy="-192" rx="34" ry="18"/>
<text text-anchor="middle" x="402" y="-188.3" font-family="Times,serif" font-size="14.00">state 5</text>
</g>
<!-- 0&#45;&gt;4 -->
<g id="edge5" class="edge">
<title>0&#45;&gt;4</title>
<path fill="none" stroke="black" stroke-width="0.5" d="M242.15,-435.91C258.21,-412.66 288.71,-368.25 314,-330 340.75,-289.54 371.17,-241.78 388.32,-214.68"/>
<polygon fill="black" stroke="black" stroke-width="0.5" points="390.14,-215.73 391.57,-209.54 386.59,-213.49 390.14,-215.73"/>
<text text-anchor="middle" x="336.5" y="-318.8" font-family="Times,serif" font-size="14.00">0.25</text>
</g>
<!-- 5 -->
<g id="node6" class="node">
<title>5</title>
<ellipse fill="olive" stroke="black" cx="253" cy="-279" rx="34" ry="18"/>
<text text-anchor="middle" x="253" y="-275.3" font-family="Times,serif" font-size="14.00">state 6</text>
</g>
<!-- 0&#45;&gt;5 -->
<g id="edge6" class="edge">
<title>0&#45;&gt;5</title>
<path fill="none" stroke="black" stroke-width="0.26" d="M224.28,-435.22C216.91,-414.48 207.13,-378.23 215,-348 219.38,-331.17 228.96,-314.08 237.4,-301.25"/>
<polygon fill="black" stroke="black" stroke-width="0.26" points="239.31,-302.17 240.92,-296.02 235.83,-299.83 239.31,-302.17"/>
<text text-anchor="middle" x="227.5" y="-362.3" font-family="Times,serif" font-size="14.00">0.13</text>
</g>
<!-- 1&#45;&gt;0 -->
<g id="edge7" class="edge">
<title>1&#45;&gt;0</title>
<path fill="none" stroke="black" stroke-width="1.4" d="M454.99,-379.74C444.05,-386.21 430.69,-394.31 419,-402 409.42,-408.3 408.5,-412.39 398,-417 356.63,-435.15 305.28,-444.1 270.53,-448.36"/>
<polygon fill="black" stroke="black" stroke-width="1.4" points="269.95,-446.31 264.24,-449.11 270.45,-450.48 269.95,-446.31"/>
<text text-anchor="middle" x="428" y="-405.8" font-family="Times,serif" font-size="14.00">0.7</text>
</g>
<!-- 1&#45;&gt;1 -->
<g id="edge8" class="edge">
<title>1&#45;&gt;1</title>
<path fill="none" stroke="black" stroke-width="0.49" d="M507.58,-373.85C519.19,-374.15 528.8,-371.54 528.8,-366 528.8,-361.46 522.34,-358.88 513.6,-358.27"/>
<polygon fill="black" stroke="black" stroke-width="0.49" points="513.62,-356.17 507.58,-358.15 513.54,-360.37 513.62,-356.17"/>
<text text-anchor="middle" x="541.3" y="-362.3" font-family="Times,serif" font-size="14.00">0.25</text>
</g>
<!-- 1&#45;&gt;2 -->
<g id="edge9" class="edge">
<title>1&#45;&gt;2</title>
<path fill="none" stroke="black" stroke-width="0.05" d="M511.04,-365.81C570.27,-365.25 686,-354.62 686,-280 686,-280 686,-280 686,-104 686,-73.5 666.29,-67.61 639,-54 590.72,-29.92 433.25,-22.25 358.75,-19.94"/>
<polygon fill="black" stroke="black" stroke-width="0.05" points="358.73,-17.84 352.67,-19.76 358.6,-22.04 358.73,-17.84"/>
<text text-anchor="middle" x="698.5" y="-188.3" font-family="Times,serif" font-size="14.00">0.02</text>
</g>
<!-- 1&#45;&gt;3 -->
<g id="edge10" class="edge">
<title>1&#45;&gt;3</title>
<path fill="none" stroke="black" stroke-width="0.01" d="M468.45,-348.27C463.43,-338.53 456.93,-326.03 451,-315 446.67,-306.94 443.3,-305.86 441,-297 436.99,-281.51 435.18,-275.9 441,-261 452.21,-232.29 476.79,-238.71 488,-210 493.82,-195.1 496.68,-187.44 488,-174 473.02,-150.79 399.82,-127.6 354.81,-115.2"/>
<polygon fill="black" stroke="black" stroke-width="0.01" points="355.26,-113.15 348.92,-113.6 354.16,-117.2 355.26,-113.15"/>
<text text-anchor="middle" x="487.5" y="-231.8" font-family="Times,serif" font-size="14.00">0.01</text>
</g>
<!-- 1&#45;&gt;4 -->
<g id="edge11" class="edge">
<title>1&#45;&gt;4</title>
<path fill="none" stroke="black" stroke-width="0.04" d="M470.85,-348.3C461.1,-322.24 441.14,-270.49 421,-228 418.96,-223.7 416.64,-219.17 414.34,-214.86"/>
<polygon fill="black" stroke="black" stroke-width="0.04" points="416.16,-213.82 411.46,-209.54 412.47,-215.82 416.16,-213.82"/>
<text text-anchor="middle" x="462.5" y="-275.3" font-family="Times,serif" font-size="14.00">0.02</text>
</g>
<!-- 1&#45;&gt;5 -->
<g id="edge12" class="edge">
<title>1&#45;&gt;5</title>
<path fill="none" stroke="black" stroke-width="0.01" d="M443,-364.96C404.79,-363.51 342.09,-356.74 296,-330 284.19,-323.15 274.06,-311.84 266.6,-301.7"/>
<polygon fill="black" stroke="black" stroke-width="0.01" points="268.13,-300.23 262.95,-296.54 264.7,-302.65 268.13,-300.23"/>
<text text-anchor="middle" x="305" y="-318.8" font-family="Times,serif" font-size="14.00">0.0</text>
</g>
<!-- 2&#45;&gt;0 -->
<g id="edge13" class="edge">
<title>2&#45;&gt;0</title>
<path fill="none" stroke="black" stroke-width="1.29" d="M286.04,-22.31C213.82,-30.49 48,-54.63 48,-104 48,-367 48,-367 48,-367 48,-429.57 137.09,-446.21 190.95,-450.55"/>
<polygon fill="black" stroke="black" stroke-width="1.29" points="190.87,-452.65 197.01,-451 191.18,-448.46 190.87,-452.65"/>
<text text-anchor="middle" x="60.5" y="-231.8" font-family="Times,serif" font-size="14.00">0.64</text>
</g>
<!-- 2&#45;&gt;1 -->
<g id="edge14" class="edge">
<title>2&#45;&gt;1</title>
<path fill="none" stroke="black" stroke-width="0.11" d="M352.33,-21.18C431.64,-27.28 625,-47.9 625,-104 625,-280 625,-280 625,-280 625,-330.51 559.36,-351.45 515.51,-359.79"/>
<polygon fill="black" stroke="black" stroke-width="0.11" points="515.01,-357.75 509.48,-360.89 515.76,-361.88 515.01,-357.75"/>
<text text-anchor="middle" x="637.5" y="-188.3" font-family="Times,serif" font-size="14.00">0.05</text>
</g>
<!-- 2&#45;&gt;2 -->
<g id="edge15" class="edge">
<title>2&#45;&gt;2</title>
<path fill="none" stroke="black" stroke-width="0.43" d="M349.58,-25.85C361.19,-26.15 370.8,-23.54 370.8,-18 370.8,-13.46 364.34,-10.88 355.6,-10.27"/>
<polygon fill="black" stroke="black" stroke-width="0.43" points="355.62,-8.17 349.58,-10.15 355.54,-12.37 355.62,-8.17"/>
<text text-anchor="middle" x="383.3" y="-14.3" font-family="Times,serif" font-size="14.00">0.22</text>
</g>
<!-- 2&#45;&gt;3 -->
<g id="edge16" class="edge">
<title>2&#45;&gt;3</title>
<path fill="none" stroke="black" stroke-width="0.02" d="M305.86,-34.74C301.89,-40.44 298.04,-47.17 296,-54 293.05,-63.85 296.65,-74.26 301.81,-83.02"/>
<polygon fill="black" stroke="black" stroke-width="0.02" points="300.16,-84.33 305.18,-88.23 303.69,-82.05 300.16,-84.33"/>
<text text-anchor="middle" x="308.5" y="-57.8" font-family="Times,serif" font-size="14.00">0.01</text>
</g>
<!-- 2&#45;&gt;4 -->
<g id="edge17" class="edge">
<title>2&#45;&gt;4</title>
<path fill="none" stroke="black" stroke-width="0.06" d="M342.65,-31.28C362.55,-42.9 390.06,-62.22 405,-87 405.43,-87.71 419.09,-133.24 415,-156 414.26,-160.11 413.07,-164.38 411.7,-168.45"/>
<polygon fill="black" stroke="black" stroke-width="0.06" points="409.67,-167.89 409.6,-174.25 413.62,-169.32 409.67,-167.89"/>
<text text-anchor="middle" x="426.5" y="-101.3" font-family="Times,serif" font-size="14.00">0.03</text>
</g>
<!-- 2&#45;&gt;5 -->
<g id="edge18" class="edge">
<title>2&#45;&gt;5</title>
<path fill="none" stroke="black" stroke-width="0.1" d="M303.77,-34.24C283.46,-55.8 248.61,-97.45 236,-141 224.66,-180.17 235.9,-227.78 244.72,-255.32"/>
<polygon fill="black" stroke="black" stroke-width="0.1" points="242.79,-256.17 246.67,-261.21 246.78,-254.85 242.79,-256.17"/>
<text text-anchor="middle" x="248.5" y="-144.8" font-family="Times,serif" font-size="14.00">0.05</text>
</g>
<!-- 3&#45;&gt;0 -->
<g id="edge19" class="edge">
<title>3&#45;&gt;0</title>
<path fill="none" stroke="black" stroke-width="0.06" d="M285.07,-106.09C257.26,-108.13 219.17,-115.8 198,-141 119.01,-235.05 168.81,-302.02 212,-417 213.68,-421.46 215.83,-426.05 218.07,-430.39"/>
<polygon fill="black" stroke="black" stroke-width="0.06" points="216.24,-431.43 220.94,-435.71 219.94,-429.43 216.24,-431.43"/>
<text text-anchor="middle" x="178.5" y="-275.3" font-family="Times,serif" font-size="14.00">0.03</text>
</g>
<!-- 3&#45;&gt;1 -->
<g id="edge20" class="edge">
<title>3&#45;&gt;1</title>
<path fill="none" stroke="black" stroke-width="0" d="M349.76,-112.73C388.96,-121.41 452.88,-136.01 463,-141 483.98,-151.34 492.59,-153.58 504,-174 505.2,-176.15 522.34,-265.05 515,-297 511.11,-313.95 501.53,-331.04 492.97,-343.84"/>
<polygon fill="black" stroke="black" stroke-width="0" points="491.06,-342.92 489.38,-349.05 494.51,-345.3 491.06,-342.92"/>
<text text-anchor="middle" x="523" y="-231.8" font-family="Times,serif" font-size="14.00">0.0</text>
</g>
<!-- 3&#45;&gt;2 -->
<g id="edge21" class="edge">
<title>3&#45;&gt;2</title>
<path fill="none" stroke="black" stroke-width="0.03" d="M320.27,-86.88C320.83,-77.22 321.31,-64.94 321,-54 320.89,-50.17 320.71,-46.1 320.51,-42.15"/>
<polygon fill="black" stroke="black" stroke-width="0.03" points="322.6,-41.95 320.17,-36.08 318.41,-42.19 322.6,-41.95"/>
<text text-anchor="middle" x="334.5" y="-57.8" font-family="Times,serif" font-size="14.00">0.01</text>
</g>
<!-- 3&#45;&gt;3 -->
<g id="edge22" class="edge">
<title>3&#45;&gt;3</title>
<path fill="none" stroke="black" stroke-width="0.27" d="M349.58,-112.85C361.19,-113.15 370.8,-110.54 370.8,-105 370.8,-100.46 364.34,-97.88 355.6,-97.27"/>
<polygon fill="black" stroke="black" stroke-width="0.27" points="355.62,-95.17 349.58,-97.15 355.54,-99.37 355.62,-95.17"/>
<text text-anchor="middle" x="383.3" y="-101.3" font-family="Times,serif" font-size="14.00">0.14</text>
</g>
<!-- 3&#45;&gt;4 -->
<g id="edge23" class="edge">
<title>3&#45;&gt;4</title>
<path fill="none" stroke="black" stroke-width="0.08" d="M343.09,-117.86C353.47,-123.8 365.21,-131.71 374,-141 381.58,-149.02 387.85,-159.49 392.52,-168.76"/>
<polygon fill="black" stroke="black" stroke-width="0.08" points="390.72,-169.87 395.22,-174.36 394.51,-168.04 390.72,-169.87"/>
<text text-anchor="middle" x="398.5" y="-144.8" font-family="Times,serif" font-size="14.00">0.04</text>
</g>
<!-- 3&#45;&gt;5 -->
<g id="edge24" class="edge">
<title>3&#45;&gt;5</title>
<path fill="none" stroke="black" stroke-width="1.56" d="M313.56,-123.09C306.86,-143.83 294.88,-179.77 283,-210 276.94,-225.41 269.42,-242.46 263.42,-255.64"/>
<polygon fill="black" stroke="black" stroke-width="1.56" points="261.38,-255.06 260.78,-261.39 265.19,-256.81 261.38,-255.06"/>
<text text-anchor="middle" x="308.5" y="-188.3" font-family="Times,serif" font-size="14.00">0.78</text>
</g>
<!-- 4&#45;&gt;0 -->
<g id="edge25" class="edge">
<title>4&#45;&gt;0</title>
<path fill="none" stroke="black" stroke-width="0.21" d="M398.59,-210.32C396.49,-220.04 393.53,-232.32 390,-243 376.83,-282.9 375.48,-294.5 353,-330 350.24,-334.36 287.26,-405.52 275,-417 268.75,-422.85 261.63,-428.79 254.95,-434.09"/>
<polygon fill="black" stroke="black" stroke-width="0.21" points="253.39,-432.64 249.96,-437.99 255.98,-435.95 253.39,-432.64"/>
<text text-anchor="middle" x="371" y="-318.8" font-family="Times,serif" font-size="14.00">0.1</text>
</g>
<!-- 4&#45;&gt;1 -->
<g id="edge26" class="edge">
<title>4&#45;&gt;1</title>
<path fill="none" stroke="black" stroke-width="0.72" d="M424.65,-205.55C443.13,-217.2 467.93,-236.45 479,-261 490.62,-286.77 487.28,-319.91 482.93,-341.78"/>
<polygon fill="black" stroke="black" stroke-width="0.72" points="480.82,-341.59 481.63,-347.9 484.93,-342.47 480.82,-341.59"/>
<text text-anchor="middle" x="498.5" y="-275.3" font-family="Times,serif" font-size="14.00">0.36</text>
</g>
<!-- 4&#45;&gt;2 -->
<g id="edge27" class="edge">
<title>4&#45;&gt;2</title>
<path fill="none" stroke="black" stroke-width="0.2" d="M416.33,-175.45C433.56,-154.77 458.35,-117.3 443,-87 426.2,-53.84 385.9,-36.12 355.77,-27.17"/>
<polygon fill="black" stroke="black" stroke-width="0.2" points="356.24,-25.12 349.89,-25.5 355.09,-29.16 356.24,-25.12"/>
<text text-anchor="middle" x="456" y="-101.3" font-family="Times,serif" font-size="14.00">0.1</text>
</g>
<!-- 4&#45;&gt;3 -->
<g id="edge28" class="edge">
<title>4&#45;&gt;3</title>
<path fill="none" stroke="black" stroke-width="0.05" d="M377.17,-179.58C366.31,-173.69 354.02,-165.69 345,-156 337.71,-148.17 331.91,-137.91 327.65,-128.73"/>
<polygon fill="black" stroke="black" stroke-width="0.05" points="329.54,-127.82 325.2,-123.18 325.7,-129.52 329.54,-127.82"/>
<text text-anchor="middle" x="357.5" y="-144.8" font-family="Times,serif" font-size="14.00">0.02</text>
</g>
<!-- 4&#45;&gt;4 -->
<g id="edge29" class="edge">
<title>4&#45;&gt;4</title>
<path fill="none" stroke="black" stroke-width="0.63" d="M432.58,-199.85C444.19,-200.15 453.8,-197.54 453.8,-192 453.8,-187.46 447.34,-184.88 438.6,-184.27"/>
<polygon fill="black" stroke="black" stroke-width="0.63" points="438.62,-182.17 432.58,-184.15 438.54,-186.37 438.62,-182.17"/>
<text text-anchor="middle" x="466.3" y="-188.3" font-family="Times,serif" font-size="14.00">0.31</text>
</g>
<!-- 4&#45;&gt;5 -->
<g id="edge30" class="edge">
<title>4&#45;&gt;5</title>
<path fill="none" stroke="black" stroke-width="0.19" d="M381.76,-206.6C360.52,-220.85 329.83,-241.4 327,-243 313.25,-250.78 297.5,-258.4 284.07,-264.53"/>
<polygon fill="black" stroke="black" stroke-width="0.19" points="283.07,-262.68 278.47,-267.07 284.8,-266.5 283.07,-262.68"/>
<text text-anchor="middle" x="359" y="-231.8" font-family="Times,serif" font-size="14.00">0.1</text>
</g>
<!-- 5&#45;&gt;0 -->
<g id="edge31" class="edge">
<title>5&#45;&gt;0</title>
<path fill="none" stroke="black" stroke-width="0.06" d="M250.88,-297.3C248.33,-317.95 243.92,-353.5 240,-384 238.08,-398.92 235.86,-415.67 234.11,-428.82"/>
<polygon fill="black" stroke="black" stroke-width="0.06" points="232,-428.73 233.29,-434.96 236.17,-429.29 232,-428.73"/>
<text text-anchor="middle" x="257.5" y="-362.3" font-family="Times,serif" font-size="14.00">0.03</text>
</g>
<!-- 5&#45;&gt;1 -->
<g id="edge32" class="edge">
<title>5&#45;&gt;1</title>
<path fill="none" stroke="black" stroke-width="0.06" d="M285.69,-284.12C316.82,-288.84 364.52,-298.2 403,-315 405.72,-316.19 431.63,-333.82 452.03,-347.82"/>
<polygon fill="black" stroke="black" stroke-width="0.06" points="450.95,-349.63 457.09,-351.28 453.32,-346.16 450.95,-349.63"/>
<text text-anchor="middle" x="437.5" y="-318.8" font-family="Times,serif" font-size="14.00">0.03</text>
</g>
<!-- 5&#45;&gt;2 -->
<g id="edge33" class="edge">
<title>5&#45;&gt;2</title>
<path fill="none" stroke="black" stroke-width="0.08" d="M240.42,-262.16C221.9,-236.85 190.82,-185.57 204,-141 217.83,-94.23 262.83,-56.41 292.27,-35.87"/>
<polygon fill="black" stroke="black" stroke-width="0.08" points="293.81,-37.36 297.57,-32.24 291.43,-33.9 293.81,-37.36"/>
<text text-anchor="middle" x="216.5" y="-144.8" font-family="Times,serif" font-size="14.00">0.04</text>
</g>
<!-- 5&#45;&gt;3 -->
<g id="edge34" class="edge">
<title>5&#45;&gt;3</title>
<path fill="none" stroke="black" stroke-width="1.03" d="M249.47,-261.05C245.87,-239.83 242.3,-202.77 254,-174 262.24,-153.75 279.63,-136.08 294.36,-123.84"/>
<polygon fill="black" stroke="black" stroke-width="1.03" points="295.89,-125.3 299.23,-119.89 293.25,-122.04 295.89,-125.3"/>
<text text-anchor="middle" x="266.5" y="-188.3" font-family="Times,serif" font-size="14.00">0.52</text>
</g>
<!-- 5&#45;&gt;4 -->
<g id="edge35" class="edge">
<title>5&#45;&gt;4</title>
<path fill="none" stroke="black" stroke-width="0.16" d="M264.28,-261.56C272.51,-250.69 284.53,-236.85 298,-228 304.06,-224.02 339.66,-212.4 367.55,-203.64"/>
<polygon fill="black" stroke="black" stroke-width="0.16" points="368.28,-205.61 373.37,-201.81 367.02,-201.61 368.28,-205.61"/>
<text text-anchor="middle" x="310.5" y="-231.8" font-family="Times,serif" font-size="14.00">0.08</text>
</g>
<!-- 5&#45;&gt;5 -->
<g id="edge36" class="edge">
<title>5&#45;&gt;5</title>
<path fill="none" stroke="black" stroke-width="0.6" d="M283.58,-286.85C295.19,-287.15 304.8,-284.54 304.8,-279 304.8,-274.46 298.34,-271.88 289.6,-271.27"/>
<polygon fill="black" stroke="black" stroke-width="0.6" points="289.62,-269.17 283.58,-271.15 289.54,-273.37 289.62,-269.17"/>
<text text-anchor="middle" x="313.8" y="-275.3" font-family="Times,serif" font-size="14.00">0.3</text>
</g>
</g>
</svg>
