<?xml version="1.0" encoding="UTF-8" standalone="no"?>
<!DOCTYPE svg PUBLIC "-//W3C//DTD SVG 1.1//EN"
 "http://www.w3.org/Graphics/SVG/1.1/DTD/svg11.dtd">
<!-- Generated by graphviz version 2.43.0 (0)
 -->
<!-- Pages: 1 -->
<svg width="696pt" height="479pt"
 viewBox="0.00 0.00 696.00 479.00" xmlns="http://www.w3.org/2000/svg" xmlns:xlink="http://www.w3.org/1999/xlink">
<g id="graph0" class="graph" transform="scale(1 1) rotate(0) translate(4 475)">
<polygon fill="white" stroke="transparent" points="-4,4 -4,-475 692,-475 692,4 -4,4"/>
<!-- 0 -->
<g id="node1" class="node">
<title>0</title>
<ellipse fill="lightblue" stroke="black" cx="224" cy="-453" rx="34" ry="18"/>
<text text-anchor="middle" x="224" y="-449.3" font-family="Times,serif" font-size="14.00">state 1</text>
</g>
<!-- 0&#45;&gt;0 -->
<g id="edge1" class="edge">
<title>0&#45;&gt;0</title>
<path fill="none" stroke="black" stroke-width="2.7" d="M254.58,-460.85C266.19,-461.15 275.8,-458.54 275.8,-453 275.8,-448.46 269.34,-445.88 260.6,-445.27"/>
<polygon fill="black" stroke="black" stroke-width="2.7" points="260.62,-443.17 254.58,-445.15 260.54,-447.37 260.62,-443.17"/>
<text text-anchor="middle" x="284.8" y="-449.3" font-family="Times,serif" font-size="14.00">0.9</text>
</g>
<!-- 1 -->
<g id="node2" class="node">
<title>1</title>
<ellipse fill="orange" stroke="black" cx="479" cy="-366" rx="34" ry="18"/>
<text text-anchor="middle" x="479" y="-362.3" font-family="Times,serif" font-size="14.00">state 2</text>
</g>
<!-- 0&#45;&gt;1 -->
<g id="edge2" class="edge">
<title>0&#45;&gt;1</title>
<path fill="none" stroke="black" stroke-width="0" d="M257.69,-449.92C311.65,-446.06 414.49,-436.35 445,-417 455.47,-410.36 463.52,-399.2 469.15,-389.11"/>
<polygon fill="black" stroke="black" stroke-width="0" points="471.09,-389.94 472.03,-383.65 467.37,-387.98 471.09,-389.94"/>
<text text-anchor="middle" x="469" y="-405.8" font-family="Times,serif" font-size="14.00">0.0</text>
</g>
<!-- 2 -->
<g id="node3" class="node">
<title>2</title>
<ellipse fill="lightgreen" stroke="black" cx="311" cy="-18" rx="34" ry="18"/>
<text text-anchor="middle" x="311" y="-14.3" font-family="Times,serif" font-size="14.00">state 3</text>
</g>
<!-- 0&#45;&gt;2 -->
<g id="edge3" class="edge">
<title>0&#45;&gt;2</title>
<path fill="none" stroke="black" stroke-width="0.24" d="M190.79,-448.98C143.41,-444.15 59.35,-433.54 34,-417 11.49,-402.32 0,-393.87 0,-367 0,-367 0,-367 0,-104 0,-77.13 11.09,-68.04 34,-54 72.84,-30.2 203.94,-22.48 270.91,-20.06"/>
<polygon fill="black" stroke="black" stroke-width="0.24" points="271.26,-22.15 277.18,-19.84 271.11,-17.95 271.26,-22.15"/>
<text text-anchor="middle" x="12.5" y="-231.8" font-family="Times,serif" font-size="14.00">0.08</text>
</g>
<!-- 3 -->
<g id="node4" class="node">
<title>3</title>
<ellipse fill="red" stroke="black" cx="312" cy="-105" rx="34" ry="18"/>
<text text-anchor="middle" x="312" y="-101.3" font-family="Times,serif" font-size="14.00">state 4</text>
</g>
<!-- 0&#45;&gt;3 -->
<g id="edge4" class="edge">
<title>0&#45;&gt;3</title>
<path fill="none" stroke="black" stroke-width="0" d="M192.86,-445.95C154.4,-436.45 94,-414.06 94,-367 94,-367 94,-367 94,-191 94,-166.35 98.39,-155.93 118,-141 141.7,-122.95 222.85,-113.27 272.38,-108.92"/>
<polygon fill="black" stroke="black" stroke-width="0" points="272.75,-111 278.55,-108.39 272.39,-106.81 272.75,-111"/>
<text text-anchor="middle" x="103" y="-275.3" font-family="Times,serif" font-size="14.00">0.0</text>
</g>
<!-- 4 -->
<g id="node5" class="node">
<title>4</title>
<ellipse fill="purple" stroke="black" cx="396" cy="-192" rx="34" ry="18"/>
<text text-anchor="middle" x="396" y="-188.3" font-family="Times,serif" font-size="14.00">state 5</text>
</g>
<!-- 0&#45;&gt;4 -->
<g id="edge5" class="edge">
<title>0&#45;&gt;4</title>
<path fill="none" stroke="black" stroke-width="0.02" d="M235.33,-435.83C254.92,-407.78 296.28,-348.18 330,-297 348.66,-268.69 369.52,-235.55 382.7,-214.42"/>
<polygon fill="black" stroke="black" stroke-width="0.02" points="384.49,-215.52 385.88,-209.32 380.92,-213.3 384.49,-215.52"/>
<text text-anchor="middle" x="329.5" y="-318.8" font-family="Times,serif" font-size="14.00">0.01</text>
</g>
<!-- 5 -->
<g id="node6" class="node">
<title>5</title>
<ellipse fill="grey" stroke="black" cx="244" cy="-279" rx="34" ry="18"/>
<text text-anchor="middle" x="244" y="-275.3" font-family="Times,serif" font-size="14.00">state 6</text>
</g>
<!-- 0&#45;&gt;5 -->
<g id="edge6" class="edge">
<title>0&#45;&gt;5</title>
<path fill="none" stroke="black" stroke-width="0.04" d="M217.39,-435.24C210.14,-414.54 200.47,-378.32 208,-348 212.14,-331.33 221.21,-314.24 229.21,-301.37"/>
<polygon fill="black" stroke="black" stroke-width="0.04" points="231.1,-302.31 232.55,-296.12 227.56,-300.06 231.1,-302.31"/>
<text text-anchor="middle" x="220.5" y="-362.3" font-family="Times,serif" font-size="14.00">0.01</text>
</g>
<!-- 1&#45;&gt;0 -->
<g id="edge7" class="edge">
<title>1&#45;&gt;0</title>
<path fill="none" stroke="black" stroke-width="0.49" d="M456.15,-379.45C444.15,-386.06 429.22,-394.37 416,-402 404.78,-408.48 403.06,-412.27 391,-417 348.94,-433.48 297.72,-442.75 263.19,-447.55"/>
<polygon fill="black" stroke="black" stroke-width="0.49" points="262.61,-445.51 256.94,-448.39 263.17,-449.67 262.61,-445.51"/>
<text text-anchor="middle" x="428.5" y="-405.8" font-family="Times,serif" font-size="14.00">0.16</text>
</g>
<!-- 1&#45;&gt;1 -->
<g id="edge8" class="edge">
<title>1&#45;&gt;1</title>
<path fill="none" stroke="black" stroke-width="2.37" d="M509.58,-373.85C521.19,-374.15 530.8,-371.54 530.8,-366 530.8,-361.46 524.34,-358.88 515.6,-358.27"/>
<polygon fill="black" stroke="black" stroke-width="2.37" points="515.62,-356.17 509.58,-358.15 515.54,-360.37 515.62,-356.17"/>
<text text-anchor="middle" x="543.3" y="-362.3" font-family="Times,serif" font-size="14.00">0.79</text>
</g>
<!-- 1&#45;&gt;2 -->
<g id="edge9" class="edge">
<title>1&#45;&gt;2</title>
<path fill="none" stroke="black" stroke-width="0" d="M512.71,-364.62C567.54,-362.02 670,-348.05 670,-280 670,-280 670,-280 670,-104 670,-75.54 654.94,-67.71 630,-54 582.87,-28.09 425.38,-21.35 350.81,-19.61"/>
<polygon fill="black" stroke="black" stroke-width="0" points="350.77,-17.51 344.72,-19.47 350.67,-21.71 350.77,-17.51"/>
<text text-anchor="middle" x="679" y="-188.3" font-family="Times,serif" font-size="14.00">0.0</text>
</g>
<!-- 1&#45;&gt;3 -->
<g id="edge10" class="edge">
<title>1&#45;&gt;3</title>
<path fill="none" stroke="black" stroke-width="0.13" d="M465.49,-349.21C449.82,-328.88 427.52,-292.43 439,-261 449.17,-233.15 471.83,-237.85 482,-210 487.49,-194.97 490.71,-187.42 482,-174 466.89,-150.71 393.27,-127.55 348.01,-115.18"/>
<polygon fill="black" stroke="black" stroke-width="0.13" points="348.43,-113.12 342.09,-113.58 347.33,-117.17 348.43,-113.12"/>
<text text-anchor="middle" x="482.5" y="-231.8" font-family="Times,serif" font-size="14.00">0.04</text>
</g>
<!-- 1&#45;&gt;4 -->
<g id="edge11" class="edge">
<title>1&#45;&gt;4</title>
<path fill="none" stroke="black" stroke-width="0" d="M472.16,-348.26C461.33,-322.14 439.18,-270.32 417,-228 414.69,-223.59 412.06,-218.96 409.47,-214.56"/>
<polygon fill="black" stroke="black" stroke-width="0" points="411.12,-213.22 406.23,-209.16 407.52,-215.39 411.12,-213.22"/>
<text text-anchor="middle" x="458" y="-275.3" font-family="Times,serif" font-size="14.00">0.0</text>
</g>
<!-- 1&#45;&gt;5 -->
<g id="edge12" class="edge">
<title>1&#45;&gt;5</title>
<path fill="none" stroke="black" stroke-width="0" d="M445.22,-365.21C405.43,-364.06 338.47,-357.68 289,-330 276.74,-323.14 266.06,-311.68 258.19,-301.47"/>
<polygon fill="black" stroke="black" stroke-width="0" points="259.82,-300.15 254.56,-296.58 256.45,-302.65 259.82,-300.15"/>
<text text-anchor="middle" x="298" y="-318.8" font-family="Times,serif" font-size="14.00">0.0</text>
</g>
<!-- 2&#45;&gt;0 -->
<g id="edge13" class="edge">
<title>2&#45;&gt;0</title>
<path fill="none" stroke="black" stroke-width="0.01" d="M278.22,-22.6C207.72,-31.25 48,-56.13 48,-104 48,-367 48,-367 48,-367 48,-427.16 132.41,-444.76 184.32,-449.9"/>
<polygon fill="black" stroke="black" stroke-width="0.01" points="184.31,-452.01 190.48,-450.46 184.69,-447.83 184.31,-452.01"/>
<text text-anchor="middle" x="57" y="-231.8" font-family="Times,serif" font-size="14.00">0.0</text>
</g>
<!-- 2&#45;&gt;1 -->
<g id="edge14" class="edge">
<title>2&#45;&gt;1</title>
<path fill="none" stroke="black" stroke-width="0" d="M344.51,-21.22C423.74,-27.4 616,-48.14 616,-104 616,-280 616,-280 616,-280 616,-326.86 557.42,-348.78 516.87,-358.34"/>
<polygon fill="black" stroke="black" stroke-width="0" points="516.16,-356.35 510.77,-359.72 517.09,-360.44 516.16,-356.35"/>
<text text-anchor="middle" x="625" y="-188.3" font-family="Times,serif" font-size="14.00">0.0</text>
</g>
<!-- 2&#45;&gt;2 -->
<g id="edge15" class="edge">
<title>2&#45;&gt;2</title>
<path fill="none" stroke="black" stroke-width="2.84" d="M341.58,-25.85C353.19,-26.15 362.8,-23.54 362.8,-18 362.8,-13.46 356.34,-10.88 347.6,-10.27"/>
<polygon fill="black" stroke="black" stroke-width="2.84" points="347.62,-8.17 341.58,-10.15 347.54,-12.37 347.62,-8.17"/>
<text text-anchor="middle" x="375.3" y="-14.3" font-family="Times,serif" font-size="14.00">0.95</text>
</g>
<!-- 2&#45;&gt;3 -->
<g id="edge16" class="edge">
<title>2&#45;&gt;3</title>
<path fill="none" stroke="black" stroke-width="0" d="M299.47,-34.94C293.85,-44.62 288.9,-57.33 292,-69 293.24,-73.66 295.26,-78.35 297.55,-82.71"/>
<polygon fill="black" stroke="black" stroke-width="0" points="295.78,-83.85 300.56,-88.03 299.44,-81.78 295.78,-83.85"/>
<text text-anchor="middle" x="301" y="-57.8" font-family="Times,serif" font-size="14.00">0.0</text>
</g>
<!-- 2&#45;&gt;4 -->
<g id="edge17" class="edge">
<title>2&#45;&gt;4</title>
<path fill="none" stroke="black" stroke-width="0.14" d="M334.53,-30.99C354.68,-42.53 382.79,-61.92 398,-87 414.07,-113.49 413.09,-125.43 408,-156 407.32,-160.09 406.22,-164.34 404.96,-168.41"/>
<polygon fill="black" stroke="black" stroke-width="0.14" points="402.94,-167.84 403.02,-174.2 406.92,-169.18 402.94,-167.84"/>
<text text-anchor="middle" x="424.5" y="-101.3" font-family="Times,serif" font-size="14.00">0.05</text>
</g>
<!-- 2&#45;&gt;5 -->
<g id="edge18" class="edge">
<title>2&#45;&gt;5</title>
<path fill="none" stroke="black" stroke-width="0" d="M298.66,-34.82C282.18,-57.04 253.81,-99.46 243,-141 232.91,-179.78 236.53,-226.86 240.19,-254.52"/>
<polygon fill="black" stroke="black" stroke-width="0" points="238.15,-255.13 241.06,-260.78 242.31,-254.55 238.15,-255.13"/>
<text text-anchor="middle" x="252" y="-144.8" font-family="Times,serif" font-size="14.00">0.0</text>
</g>
<!-- 3&#45;&gt;0 -->
<g id="edge19" class="edge">
<title>3&#45;&gt;0</title>
<path fill="none" stroke="black" stroke-width="0.01" d="M279.08,-109.59C257.37,-113.67 229.93,-122.39 213,-141 176.01,-181.67 189.72,-206.44 183,-261 174.44,-330.49 181.69,-350.97 205,-417 206.59,-421.49 208.69,-426.1 210.93,-430.44"/>
<polygon fill="black" stroke="black" stroke-width="0.01" points="209.1,-431.48 213.8,-435.76 212.8,-429.48 209.1,-431.48"/>
<text text-anchor="middle" x="192" y="-275.3" font-family="Times,serif" font-size="14.00">0.0</text>
</g>
<!-- 3&#45;&gt;1 -->
<g id="edge20" class="edge">
<title>3&#45;&gt;1</title>
<path fill="none" stroke="black" stroke-width="0" d="M342.64,-112.64C382.07,-121.31 446.78,-135.97 457,-141 477.99,-151.33 486.59,-153.58 498,-174 524.77,-221.92 519.24,-243.08 509,-297 505.9,-313.31 498.35,-330.39 491.59,-343.36"/>
<polygon fill="black" stroke="black" stroke-width="0" points="489.74,-342.37 488.76,-348.65 493.44,-344.35 489.74,-342.37"/>
<text text-anchor="middle" x="526" y="-231.8" font-family="Times,serif" font-size="14.00">0.0</text>
</g>
<!-- 3&#45;&gt;2 -->
<g id="edge21" class="edge">
<title>3&#45;&gt;2</title>
<path fill="none" stroke="black" stroke-width="0" d="M311.8,-86.8C311.65,-74.01 311.44,-56.42 311.27,-42.36"/>
<polygon fill="black" stroke="black" stroke-width="0" points="313.37,-42.15 311.2,-36.17 309.17,-42.2 313.37,-42.15"/>
<text text-anchor="middle" x="321" y="-57.8" font-family="Times,serif" font-size="14.00">0.0</text>
</g>
<!-- 3&#45;&gt;3 -->
<g id="edge22" class="edge">
<title>3&#45;&gt;3</title>
<path fill="none" stroke="black" stroke-width="2.81" d="M342.58,-112.85C354.19,-113.15 363.8,-110.54 363.8,-105 363.8,-100.46 357.34,-97.88 348.6,-97.27"/>
<polygon fill="black" stroke="black" stroke-width="2.81" points="348.62,-95.17 342.58,-97.15 348.54,-99.37 348.62,-95.17"/>
<text text-anchor="middle" x="376.3" y="-101.3" font-family="Times,serif" font-size="14.00">0.94</text>
</g>
<!-- 3&#45;&gt;4 -->
<g id="edge23" class="edge">
<title>3&#45;&gt;4</title>
<path fill="none" stroke="black" stroke-width="0.18" d="M336.02,-117.92C346.39,-123.87 358.14,-131.77 367,-141 374.71,-149.03 381.19,-159.5 386.05,-168.78"/>
<polygon fill="black" stroke="black" stroke-width="0.18" points="384.29,-169.95 388.86,-174.37 388.04,-168.07 384.29,-169.95"/>
<text text-anchor="middle" x="391.5" y="-144.8" font-family="Times,serif" font-size="14.00">0.06</text>
</g>
<!-- 3&#45;&gt;5 -->
<g id="edge24" class="edge">
<title>3&#45;&gt;5</title>
<path fill="none" stroke="black" stroke-width="0" d="M306.69,-123.14C300.1,-143.92 288.25,-179.92 276,-210 269.63,-225.65 261.52,-242.87 255.05,-256.06"/>
<polygon fill="black" stroke="black" stroke-width="0" points="253.16,-255.14 252.39,-261.45 256.93,-257 253.16,-255.14"/>
<text text-anchor="middle" x="299" y="-188.3" font-family="Times,serif" font-size="14.00">0.0</text>
</g>
<!-- 4&#45;&gt;0 -->
<g id="edge25" class="edge">
<title>4&#45;&gt;0</title>
<path fill="none" stroke="black" stroke-width="0.45" d="M392.63,-210.34C390.54,-220.06 387.58,-232.34 384,-243 370.58,-283 368.74,-294.46 346,-330 343.17,-334.43 280.22,-405.56 268,-417 261.75,-422.85 254.63,-428.79 247.95,-434.09"/>
<polygon fill="black" stroke="black" stroke-width="0.45" points="246.39,-432.64 242.96,-437.99 248.98,-435.95 246.39,-432.64"/>
<text text-anchor="middle" x="368.5" y="-318.8" font-family="Times,serif" font-size="14.00">0.15</text>
</g>
<!-- 4&#45;&gt;1 -->
<g id="edge26" class="edge">
<title>4&#45;&gt;1</title>
<path fill="none" stroke="black" stroke-width="0.55" d="M417.61,-205.91C435.33,-217.79 459.32,-237.17 471,-261 483.47,-286.46 483.68,-319.67 481.96,-341.63"/>
<polygon fill="black" stroke="black" stroke-width="0.55" points="479.85,-341.63 481.41,-347.79 484.04,-342 479.85,-341.63"/>
<text text-anchor="middle" x="492.5" y="-275.3" font-family="Times,serif" font-size="14.00">0.18</text>
</g>
<!-- 4&#45;&gt;2 -->
<g id="edge27" class="edge">
<title>4&#45;&gt;2</title>
<path fill="none" stroke="black" stroke-width="0" d="M411.24,-175.81C429.99,-155.21 457.41,-117.49 441,-87 422.55,-52.73 379.81,-35.14 348.35,-26.53"/>
<polygon fill="black" stroke="black" stroke-width="0" points="348.55,-24.41 342.21,-24.93 347.48,-28.48 348.55,-24.41"/>
<text text-anchor="middle" x="455" y="-101.3" font-family="Times,serif" font-size="14.00">0.0</text>
</g>
<!-- 4&#45;&gt;3 -->
<g id="edge28" class="edge">
<title>4&#45;&gt;3</title>
<path fill="none" stroke="black" stroke-width="0.32" d="M371.02,-179.82C359.9,-173.93 347.26,-165.86 338,-156 330.57,-148.08 324.7,-137.63 320.43,-128.34"/>
<polygon fill="black" stroke="black" stroke-width="0.32" points="322.3,-127.38 317.97,-122.73 318.46,-129.07 322.3,-127.38"/>
<text text-anchor="middle" x="350.5" y="-144.8" font-family="Times,serif" font-size="14.00">0.11</text>
</g>
<!-- 4&#45;&gt;4 -->
<g id="edge29" class="edge">
<title>4&#45;&gt;4</title>
<path fill="none" stroke="black" stroke-width="1.67" d="M426.58,-199.85C438.19,-200.15 447.8,-197.54 447.8,-192 447.8,-187.46 441.34,-184.88 432.6,-184.27"/>
<polygon fill="black" stroke="black" stroke-width="1.67" points="432.62,-182.17 426.58,-184.15 432.54,-186.37 432.62,-182.17"/>
<text text-anchor="middle" x="460.3" y="-188.3" font-family="Times,serif" font-size="14.00">0.56</text>
</g>
<!-- 4&#45;&gt;5 -->
<g id="edge30" class="edge">
<title>4&#45;&gt;5</title>
<path fill="none" stroke="black" stroke-width="0.01" d="M376.26,-206.79C356.57,-220.51 328.47,-239.95 323,-243 308.08,-251.32 290.8,-259.17 276.21,-265.31"/>
<polygon fill="black" stroke="black" stroke-width="0.01" points="275.29,-263.42 270.56,-267.66 276.91,-267.29 275.29,-263.42"/>
<text text-anchor="middle" x="354" y="-231.8" font-family="Times,serif" font-size="14.00">0.0</text>
</g>
<!-- 5&#45;&gt;0 -->
<g id="edge31" class="edge">
<title>5&#45;&gt;0</title>
<path fill="none" stroke="black" stroke-width="0.39" d="M242.31,-297.31C240.26,-317.97 236.63,-353.53 233,-384 231.22,-398.94 229.01,-415.69 227.22,-428.83"/>
<polygon fill="black" stroke="black" stroke-width="0.39" points="225.11,-428.74 226.38,-434.97 229.27,-429.31 225.11,-428.74"/>
<text text-anchor="middle" x="249.5" y="-362.3" font-family="Times,serif" font-size="14.00">0.13</text>
</g>
<!-- 5&#45;&gt;1 -->
<g id="edge32" class="edge">
<title>5&#45;&gt;1</title>
<path fill="none" stroke="black" stroke-width="0" d="M276.73,-283.66C309.64,-288.14 361.33,-297.42 403,-315 403.71,-315.3 431.61,-333.69 453.4,-348.08"/>
<polygon fill="black" stroke="black" stroke-width="0" points="452.34,-349.89 458.5,-351.45 454.65,-346.39 452.34,-349.89"/>
<text text-anchor="middle" x="434" y="-318.8" font-family="Times,serif" font-size="14.00">0.0</text>
</g>
<!-- 5&#45;&gt;2 -->
<g id="edge33" class="edge">
<title>5&#45;&gt;2</title>
<path fill="none" stroke="black" stroke-width="0" d="M236.49,-261.03C225.98,-235.05 209.21,-183.9 219,-141 228.79,-98.08 264.55,-59.55 288.49,-37.74"/>
<polygon fill="black" stroke="black" stroke-width="0" points="290.04,-39.17 293.11,-33.61 287.24,-36.04 290.04,-39.17"/>
<text text-anchor="middle" x="228" y="-144.8" font-family="Times,serif" font-size="14.00">0.0</text>
</g>
<!-- 5&#45;&gt;3 -->
<g id="edge34" class="edge">
<title>5&#45;&gt;3</title>
<path fill="none" stroke="black" stroke-width="0" d="M242.57,-260.66C241.5,-239.37 241.89,-202.56 254,-174 262.04,-155.04 277.33,-137.47 290.19,-124.93"/>
<polygon fill="black" stroke="black" stroke-width="0" points="291.9,-126.21 294.8,-120.55 289,-123.16 291.9,-126.21"/>
<text text-anchor="middle" x="263" y="-188.3" font-family="Times,serif" font-size="14.00">0.0</text>
</g>
<!-- 5&#45;&gt;4 -->
<g id="edge35" class="edge">
<title>5&#45;&gt;4</title>
<path fill="none" stroke="black" stroke-width="0.04" d="M258.13,-262.39C269.94,-249.64 286.09,-232.94 294,-228 313.95,-215.55 338.88,-206.89 359.09,-201.3"/>
<polygon fill="black" stroke="black" stroke-width="0.04" points="359.68,-203.32 364.93,-199.73 358.59,-199.26 359.68,-203.32"/>
<text text-anchor="middle" x="306.5" y="-231.8" font-family="Times,serif" font-size="14.00">0.01</text>
</g>
<!-- 5&#45;&gt;5 -->
<g id="edge36" class="edge">
<title>5&#45;&gt;5</title>
<path fill="none" stroke="black" stroke-width="2.56" d="M274.58,-286.85C286.19,-287.15 295.8,-284.54 295.8,-279 295.8,-274.46 289.34,-271.88 280.6,-271.27"/>
<polygon fill="black" stroke="black" stroke-width="2.56" points="280.62,-269.17 274.58,-271.15 280.54,-273.37 280.62,-269.17"/>
<text text-anchor="middle" x="308.3" y="-275.3" font-family="Times,serif" font-size="14.00">0.85</text>
</g>
</g>
</svg>
