<?xml version="1.0" encoding="UTF-8" standalone="no"?>
<!DOCTYPE svg PUBLIC "-//W3C//DTD SVG 1.1//EN"
 "http://www.w3.org/Graphics/SVG/1.1/DTD/svg11.dtd">
<!-- Generated by graphviz version 2.43.0 (0)
 -->
<!-- Pages: 1 -->
<svg width="713pt" height="479pt"
 viewBox="0.00 0.00 713.00 479.00" xmlns="http://www.w3.org/2000/svg" xmlns:xlink="http://www.w3.org/1999/xlink">
<g id="graph0" class="graph" transform="scale(1 1) rotate(0) translate(4 475)">
<polygon fill="white" stroke="transparent" points="-4,4 -4,-475 709,-475 709,4 -4,4"/>
<!-- 0 -->
<g id="node1" class="node">
<title>0</title>
<ellipse fill="lightblue" stroke="black" cx="228" cy="-453" rx="34" ry="18"/>
<text text-anchor="middle" x="228" y="-449.3" font-family="Times,serif" font-size="14.00">state 1</text>
</g>
<!-- 0&#45;&gt;0 -->
<g id="edge1" class="edge">
<title>0&#45;&gt;0</title>
<path fill="none" stroke="black" stroke-width="2.58" d="M258.58,-460.85C270.19,-461.15 279.8,-458.54 279.8,-453 279.8,-448.46 273.34,-445.88 264.6,-445.27"/>
<polygon fill="black" stroke="black" stroke-width="2.58" points="264.62,-443.17 258.58,-445.15 264.54,-447.37 264.62,-443.17"/>
<text text-anchor="middle" x="292.3" y="-449.3" font-family="Times,serif" font-size="14.00">0.86</text>
</g>
<!-- 1 -->
<g id="node2" class="node">
<title>1</title>
<ellipse fill="orange" stroke="black" cx="484" cy="-366" rx="34" ry="18"/>
<text text-anchor="middle" x="484" y="-362.3" font-family="Times,serif" font-size="14.00">state 2</text>
</g>
<!-- 0&#45;&gt;1 -->
<g id="edge2" class="edge">
<title>0&#45;&gt;1</title>
<path fill="none" stroke="black" stroke-width="0.01" d="M261.56,-449.66C314.74,-445.45 415.51,-435.28 446,-417 457.15,-410.32 466.15,-399.01 472.6,-388.84"/>
<polygon fill="black" stroke="black" stroke-width="0.01" points="474.42,-389.88 475.73,-383.66 470.83,-387.71 474.42,-389.88"/>
<text text-anchor="middle" x="471" y="-405.8" font-family="Times,serif" font-size="14.00">0.0</text>
</g>
<!-- 2 -->
<g id="node3" class="node">
<title>2</title>
<ellipse fill="lightgreen" stroke="black" cx="319" cy="-18" rx="34" ry="18"/>
<text text-anchor="middle" x="319" y="-14.3" font-family="Times,serif" font-size="14.00">state 3</text>
</g>
<!-- 0&#45;&gt;2 -->
<g id="edge3" class="edge">
<title>0&#45;&gt;2</title>
<path fill="none" stroke="black" stroke-width="0.06" d="M194.89,-449.13C146.68,-444.44 60.05,-433.92 34,-417 11.46,-402.36 0,-393.87 0,-367 0,-367 0,-367 0,-104 0,-77.13 11.06,-68 34,-54 74.27,-29.42 210.8,-22.06 279.23,-19.89"/>
<polygon fill="black" stroke="black" stroke-width="0.06" points="279.3,-21.98 285.23,-19.7 279.17,-17.79 279.3,-21.98"/>
<text text-anchor="middle" x="12.5" y="-231.8" font-family="Times,serif" font-size="14.00">0.02</text>
</g>
<!-- 3 -->
<g id="node4" class="node">
<title>3</title>
<ellipse fill="red" stroke="black" cx="319" cy="-105" rx="34" ry="18"/>
<text text-anchor="middle" x="319" y="-101.3" font-family="Times,serif" font-size="14.00">state 4</text>
</g>
<!-- 0&#45;&gt;3 -->
<g id="edge4" class="edge">
<title>0&#45;&gt;3</title>
<path fill="none" stroke="black" stroke-width="0.02" d="M196.24,-446.34C156.62,-437.23 94,-415.21 94,-367 94,-367 94,-367 94,-191 94,-166.35 98.34,-155.88 118,-141 142.83,-122.21 228.39,-112.72 279.53,-108.62"/>
<polygon fill="black" stroke="black" stroke-width="0.02" points="279.77,-110.71 285.59,-108.14 279.44,-106.52 279.77,-110.71"/>
<text text-anchor="middle" x="106.5" y="-275.3" font-family="Times,serif" font-size="14.00">0.01</text>
</g>
<!-- 4 -->
<g id="node5" class="node">
<title>4</title>
<ellipse fill="purple" stroke="black" cx="404" cy="-192" rx="34" ry="18"/>
<text text-anchor="middle" x="404" y="-188.3" font-family="Times,serif" font-size="14.00">state 5</text>
</g>
<!-- 0&#45;&gt;4 -->
<g id="edge5" class="edge">
<title>0&#45;&gt;4</title>
<path fill="none" stroke="black" stroke-width="0.04" d="M239.54,-435.91C256.17,-412.66 287.77,-368.26 314,-330 340.28,-291.67 346.58,-281.91 372,-243 378.07,-233.71 384.69,-223.39 390.33,-214.55"/>
<polygon fill="black" stroke="black" stroke-width="0.04" points="392.25,-215.45 393.7,-209.26 388.71,-213.19 392.25,-215.45"/>
<text text-anchor="middle" x="336.5" y="-318.8" font-family="Times,serif" font-size="14.00">0.01</text>
</g>
<!-- 5 -->
<g id="node6" class="node">
<title>5</title>
<ellipse fill="olive" stroke="black" cx="247" cy="-279" rx="34" ry="18"/>
<text text-anchor="middle" x="247" y="-275.3" font-family="Times,serif" font-size="14.00">state 6</text>
</g>
<!-- 0&#45;&gt;5 -->
<g id="edge6" class="edge">
<title>0&#45;&gt;5</title>
<path fill="none" stroke="black" stroke-width="0.3" d="M222.3,-434.9C216.2,-414.14 208.25,-378.19 215,-348 218.66,-331.62 226.72,-314.54 233.84,-301.59"/>
<polygon fill="black" stroke="black" stroke-width="0.3" points="235.7,-302.57 236.81,-296.31 232.04,-300.51 235.7,-302.57"/>
<text text-anchor="middle" x="224" y="-362.3" font-family="Times,serif" font-size="14.00">0.1</text>
</g>
<!-- 1&#45;&gt;0 -->
<g id="edge7" class="edge">
<title>1&#45;&gt;0</title>
<path fill="none" stroke="black" stroke-width="0" d="M462.14,-379.77C436.94,-394.47 398.86,-416.67 398,-417 354.8,-433.5 302.31,-442.79 267.19,-447.59"/>
<polygon fill="black" stroke="black" stroke-width="0" points="266.51,-445.56 260.84,-448.44 267.07,-449.73 266.51,-445.56"/>
<text text-anchor="middle" x="433" y="-405.8" font-family="Times,serif" font-size="14.00">0.0</text>
</g>
<!-- 1&#45;&gt;1 -->
<g id="edge8" class="edge">
<title>1&#45;&gt;1</title>
<path fill="none" stroke="black" stroke-width="2.72" d="M514.58,-373.85C526.19,-374.15 535.8,-371.54 535.8,-366 535.8,-361.46 529.34,-358.88 520.6,-358.27"/>
<polygon fill="black" stroke="black" stroke-width="2.72" points="520.62,-356.17 514.58,-358.15 520.54,-360.37 520.62,-356.17"/>
<text text-anchor="middle" x="548.3" y="-362.3" font-family="Times,serif" font-size="14.00">0.91</text>
</g>
<!-- 1&#45;&gt;2 -->
<g id="edge9" class="edge">
<title>1&#45;&gt;2</title>
<path fill="none" stroke="black" stroke-width="0.23" d="M518.14,-364.95C574.3,-362.88 680,-349.73 680,-280 680,-280 680,-280 680,-104 680,-73.5 660.28,-67.64 633,-54 585.82,-30.41 432.28,-22.51 358.84,-20.04"/>
<polygon fill="black" stroke="black" stroke-width="0.23" points="358.91,-17.94 352.84,-19.84 358.77,-22.14 358.91,-17.94"/>
<text text-anchor="middle" x="692.5" y="-188.3" font-family="Times,serif" font-size="14.00">0.08</text>
</g>
<!-- 1&#45;&gt;3 -->
<g id="edge10" class="edge">
<title>1&#45;&gt;3</title>
<path fill="none" stroke="black" stroke-width="0.02" d="M476.55,-348.2C471.81,-338.21 465.21,-325.48 458,-315 451.93,-306.18 445.8,-307 442,-297 436.31,-282.04 436.1,-275.87 442,-261 453.47,-232.07 478.53,-238.93 490,-210 495.9,-195.13 498.74,-187.4 490,-174 474.71,-150.57 400.31,-127.37 354.83,-115.05"/>
<polygon fill="black" stroke="black" stroke-width="0.02" points="355.23,-112.98 348.89,-113.46 354.14,-117.04 355.23,-112.98"/>
<text text-anchor="middle" x="488.5" y="-231.8" font-family="Times,serif" font-size="14.00">0.01</text>
</g>
<!-- 1&#45;&gt;4 -->
<g id="edge11" class="edge">
<title>1&#45;&gt;4</title>
<path fill="none" stroke="black" stroke-width="0" d="M477.62,-348.22C467.47,-322.06 446.61,-270.18 425,-228 422.77,-223.65 420.22,-219.11 417.69,-214.79"/>
<polygon fill="black" stroke="black" stroke-width="0" points="419.39,-213.54 414.5,-209.48 415.79,-215.7 419.39,-213.54"/>
<text text-anchor="middle" x="465" y="-275.3" font-family="Times,serif" font-size="14.00">0.0</text>
</g>
<!-- 1&#45;&gt;5 -->
<g id="edge12" class="edge">
<title>1&#45;&gt;5</title>
<path fill="none" stroke="black" stroke-width="0.02" d="M449.9,-365.72C408.99,-365.12 339.6,-359.3 289,-330 277.3,-323.23 267.39,-311.92 260.14,-301.77"/>
<polygon fill="black" stroke="black" stroke-width="0.02" points="261.72,-300.36 256.6,-296.6 258.26,-302.74 261.72,-300.36"/>
<text text-anchor="middle" x="301.5" y="-318.8" font-family="Times,serif" font-size="14.00">0.01</text>
</g>
<!-- 2&#45;&gt;0 -->
<g id="edge13" class="edge">
<title>2&#45;&gt;0</title>
<path fill="none" stroke="black" stroke-width="0.08" d="M286.04,-22.31C213.82,-30.49 48,-54.63 48,-104 48,-367 48,-367 48,-367 48,-428.44 134.8,-445.54 187.85,-450.25"/>
<polygon fill="black" stroke="black" stroke-width="0.08" points="187.99,-452.37 194.14,-450.77 188.33,-448.18 187.99,-452.37"/>
<text text-anchor="middle" x="60.5" y="-231.8" font-family="Times,serif" font-size="14.00">0.03</text>
</g>
<!-- 2&#45;&gt;1 -->
<g id="edge14" class="edge">
<title>2&#45;&gt;1</title>
<path fill="none" stroke="black" stroke-width="0.09" d="M352.25,-21.36C430.36,-27.8 619,-49.05 619,-104 619,-280 619,-280 619,-280 619,-326.14 561.83,-348.22 521.9,-358.02"/>
<polygon fill="black" stroke="black" stroke-width="0.09" points="521.01,-356.07 515.65,-359.49 521.97,-360.16 521.01,-356.07"/>
<text text-anchor="middle" x="631.5" y="-188.3" font-family="Times,serif" font-size="14.00">0.03</text>
</g>
<!-- 2&#45;&gt;2 -->
<g id="edge15" class="edge">
<title>2&#45;&gt;2</title>
<path fill="none" stroke="black" stroke-width="0.58" d="M349.58,-25.85C361.19,-26.15 370.8,-23.54 370.8,-18 370.8,-13.46 364.34,-10.88 355.6,-10.27"/>
<polygon fill="black" stroke="black" stroke-width="0.58" points="355.62,-8.17 349.58,-10.15 355.54,-12.37 355.62,-8.17"/>
<text text-anchor="middle" x="383.3" y="-14.3" font-family="Times,serif" font-size="14.00">0.19</text>
</g>
<!-- 2&#45;&gt;3 -->
<g id="edge16" class="edge">
<title>2&#45;&gt;3</title>
<path fill="none" stroke="black" stroke-width="1.57" d="M305.18,-34.77C298.43,-44.39 292.44,-57.1 296,-69 297.47,-73.91 299.87,-78.76 302.58,-83.22"/>
<polygon fill="black" stroke="black" stroke-width="1.57" points="300.83,-84.38 305.86,-88.26 304.35,-82.09 300.83,-84.38"/>
<text text-anchor="middle" x="308.5" y="-57.8" font-family="Times,serif" font-size="14.00">0.52</text>
</g>
<!-- 2&#45;&gt;4 -->
<g id="edge17" class="edge">
<title>2&#45;&gt;4</title>
<path fill="none" stroke="black" stroke-width="0.39" d="M342.65,-31.28C362.55,-42.9 390.06,-62.22 405,-87 421,-113.54 419.7,-125.37 415,-156 414.38,-160.06 413.37,-164.3 412.21,-168.36"/>
<polygon fill="black" stroke="black" stroke-width="0.39" points="410.18,-167.81 410.43,-174.16 414.2,-169.04 410.18,-167.81"/>
<text text-anchor="middle" x="430.5" y="-101.3" font-family="Times,serif" font-size="14.00">0.13</text>
</g>
<!-- 2&#45;&gt;5 -->
<g id="edge18" class="edge">
<title>2&#45;&gt;5</title>
<path fill="none" stroke="black" stroke-width="0.29" d="M305.27,-34.56C286.93,-56.5 255.31,-98.58 243,-141 230.36,-184.56 235.53,-197.87 240,-243 240.38,-246.88 241,-250.98 241.72,-254.94"/>
<polygon fill="black" stroke="black" stroke-width="0.29" points="239.69,-255.52 242.9,-261.01 243.82,-254.72 239.69,-255.52"/>
<text text-anchor="middle" x="252" y="-144.8" font-family="Times,serif" font-size="14.00">0.1</text>
</g>
<!-- 3&#45;&gt;0 -->
<g id="edge19" class="edge">
<title>3&#45;&gt;0</title>
<path fill="none" stroke="black" stroke-width="0.27" d="M285.27,-107.5C259.65,-110.49 225.45,-118.74 205,-141 129.74,-222.9 190.09,-373.64 216.86,-429.99"/>
<polygon fill="black" stroke="black" stroke-width="0.27" points="214.99,-430.96 219.49,-435.45 218.78,-429.13 214.99,-430.96"/>
<text text-anchor="middle" x="185.5" y="-275.3" font-family="Times,serif" font-size="14.00">0.09</text>
</g>
<!-- 3&#45;&gt;1 -->
<g id="edge20" class="edge">
<title>3&#45;&gt;1</title>
<path fill="none" stroke="black" stroke-width="0.01" d="M349.85,-112.64C389.56,-121.3 454.71,-135.94 465,-141 486,-151.31 494.71,-153.51 506,-174 506.74,-175.35 522.54,-264.85 516,-297 512.66,-313.45 504.59,-330.53 497.4,-343.46"/>
<polygon fill="black" stroke="black" stroke-width="0.01" points="495.54,-342.49 494.39,-348.74 499.19,-344.57 495.54,-342.49"/>
<text text-anchor="middle" x="524" y="-231.8" font-family="Times,serif" font-size="14.00">0.0</text>
</g>
<!-- 3&#45;&gt;2 -->
<g id="edge21" class="edge">
<title>3&#45;&gt;2</title>
<path fill="none" stroke="black" stroke-width="0.34" d="M320.27,-86.88C320.83,-77.22 321.31,-64.94 321,-54 320.89,-50.17 320.71,-46.1 320.51,-42.15"/>
<polygon fill="black" stroke="black" stroke-width="0.34" points="322.6,-41.95 320.17,-36.08 318.41,-42.19 322.6,-41.95"/>
<text text-anchor="middle" x="334.5" y="-57.8" font-family="Times,serif" font-size="14.00">0.11</text>
</g>
<!-- 3&#45;&gt;3 -->
<g id="edge22" class="edge">
<title>3&#45;&gt;3</title>
<path fill="none" stroke="black" stroke-width="2.03" d="M349.58,-112.85C361.19,-113.15 370.8,-110.54 370.8,-105 370.8,-100.46 364.34,-97.88 355.6,-97.27"/>
<polygon fill="black" stroke="black" stroke-width="2.03" points="355.62,-95.17 349.58,-97.15 355.54,-99.37 355.62,-95.17"/>
<text text-anchor="middle" x="383.3" y="-101.3" font-family="Times,serif" font-size="14.00">0.68</text>
</g>
<!-- 3&#45;&gt;4 -->
<g id="edge23" class="edge">
<title>3&#45;&gt;4</title>
<path fill="none" stroke="black" stroke-width="0.24" d="M342.96,-117.99C353.31,-123.95 365.08,-131.84 374,-141 381.91,-149.12 388.64,-159.71 393.71,-169.05"/>
<polygon fill="black" stroke="black" stroke-width="0.24" points="391.86,-170.04 396.5,-174.38 395.58,-168.09 391.86,-170.04"/>
<text text-anchor="middle" x="398.5" y="-144.8" font-family="Times,serif" font-size="14.00">0.08</text>
</g>
<!-- 3&#45;&gt;5 -->
<g id="edge24" class="edge">
<title>3&#45;&gt;5</title>
<path fill="none" stroke="black" stroke-width="0.1" d="M314.04,-122.87C307.71,-143.7 296.03,-180.04 283,-210 276.1,-225.86 266.97,-243.08 259.63,-256.22"/>
<polygon fill="black" stroke="black" stroke-width="0.1" points="257.73,-255.32 256.61,-261.58 261.38,-257.38 257.73,-255.32"/>
<text text-anchor="middle" x="310.5" y="-188.3" font-family="Times,serif" font-size="14.00">0.03</text>
</g>
<!-- 4&#45;&gt;0 -->
<g id="edge25" class="edge">
<title>4&#45;&gt;0</title>
<path fill="none" stroke="black" stroke-width="0.76" d="M400.19,-210.11C393.62,-237.17 378.37,-290.79 353,-330 351.99,-331.56 286.93,-404.31 273,-417 266.59,-422.84 259.29,-428.79 252.47,-434.08"/>
<polygon fill="black" stroke="black" stroke-width="0.76" points="250.85,-432.68 247.36,-437.99 253.4,-436.01 250.85,-432.68"/>
<text text-anchor="middle" x="374.5" y="-318.8" font-family="Times,serif" font-size="14.00">0.25</text>
</g>
<!-- 4&#45;&gt;1 -->
<g id="edge26" class="edge">
<title>4&#45;&gt;1</title>
<path fill="none" stroke="black" stroke-width="0.09" d="M425.52,-205.88C443.12,-217.75 466.87,-237.12 478,-261 489.96,-286.66 489.54,-319.83 487.4,-341.73"/>
<polygon fill="black" stroke="black" stroke-width="0.09" points="485.29,-341.67 486.73,-347.86 489.47,-342.12 485.29,-341.67"/>
<text text-anchor="middle" x="499.5" y="-275.3" font-family="Times,serif" font-size="14.00">0.03</text>
</g>
<!-- 4&#45;&gt;2 -->
<g id="edge27" class="edge">
<title>4&#45;&gt;2</title>
<path fill="none" stroke="black" stroke-width="0.63" d="M418.71,-175.77C436.77,-155.13 463.15,-117.36 447,-87 428.99,-53.16 387.09,-35.51 356.1,-26.77"/>
<polygon fill="black" stroke="black" stroke-width="0.63" points="356.4,-24.68 350.06,-25.14 355.3,-28.73 356.4,-24.68"/>
<text text-anchor="middle" x="464.5" y="-101.3" font-family="Times,serif" font-size="14.00">0.21</text>
</g>
<!-- 4&#45;&gt;3 -->
<g id="edge28" class="edge">
<title>4&#45;&gt;3</title>
<path fill="none" stroke="black" stroke-width="0.03" d="M378.59,-179.9C367.27,-174.03 354.41,-165.95 345,-156 337.54,-148.11 331.66,-137.67 327.4,-128.36"/>
<polygon fill="black" stroke="black" stroke-width="0.03" points="329.28,-127.41 324.95,-122.75 325.43,-129.09 329.28,-127.41"/>
<text text-anchor="middle" x="357.5" y="-144.8" font-family="Times,serif" font-size="14.00">0.01</text>
</g>
<!-- 4&#45;&gt;4 -->
<g id="edge29" class="edge">
<title>4&#45;&gt;4</title>
<path fill="none" stroke="black" stroke-width="0.44" d="M434.58,-199.85C446.19,-200.15 455.8,-197.54 455.8,-192 455.8,-187.46 449.34,-184.88 440.6,-184.27"/>
<polygon fill="black" stroke="black" stroke-width="0.44" points="440.62,-182.17 434.58,-184.15 440.54,-186.37 440.62,-182.17"/>
<text text-anchor="middle" x="468.3" y="-188.3" font-family="Times,serif" font-size="14.00">0.15</text>
</g>
<!-- 4&#45;&gt;5 -->
<g id="edge30" class="edge">
<title>4&#45;&gt;5</title>
<path fill="none" stroke="black" stroke-width="1.04" d="M382.53,-205.99C371.81,-212.53 358.68,-220.61 347,-228 336.69,-234.53 334.7,-237.12 324,-243 309.58,-250.92 293.04,-258.61 279,-264.75"/>
<polygon fill="black" stroke="black" stroke-width="1.04" points="277.81,-262.98 273.14,-267.29 279.48,-266.83 277.81,-262.98"/>
<text text-anchor="middle" x="359.5" y="-231.8" font-family="Times,serif" font-size="14.00">0.35</text>
</g>
<!-- 5&#45;&gt;0 -->
<g id="edge31" class="edge">
<title>5&#45;&gt;0</title>
<path fill="none" stroke="black" stroke-width="0.01" d="M245.12,-297.05C241.69,-328.04 234.45,-393.61 230.57,-428.7"/>
<polygon fill="black" stroke="black" stroke-width="0.01" points="228.46,-428.69 229.89,-434.88 232.63,-429.15 228.46,-428.69"/>
<text text-anchor="middle" x="249" y="-362.3" font-family="Times,serif" font-size="14.00">0.0</text>
</g>
<!-- 5&#45;&gt;1 -->
<g id="edge32" class="edge">
<title>5&#45;&gt;1</title>
<path fill="none" stroke="black" stroke-width="0.45" d="M279.97,-283.33C313.71,-287.6 367.13,-296.73 410,-315 412.73,-316.16 438.64,-333.8 459.04,-347.8"/>
<polygon fill="black" stroke="black" stroke-width="0.45" points="457.96,-349.6 464.09,-351.27 460.33,-346.14 457.96,-349.6"/>
<text text-anchor="middle" x="444.5" y="-318.8" font-family="Times,serif" font-size="14.00">0.15</text>
</g>
<!-- 5&#45;&gt;2 -->
<g id="edge33" class="edge">
<title>5&#45;&gt;2</title>
<path fill="none" stroke="black" stroke-width="0.22" d="M236.77,-261.46C222.12,-235.62 198.24,-184.16 211,-141 224.44,-95.55 266.56,-57.32 294.05,-36.34"/>
<polygon fill="black" stroke="black" stroke-width="0.22" points="295.47,-37.91 299.01,-32.63 292.95,-34.54 295.47,-37.91"/>
<text text-anchor="middle" x="223.5" y="-144.8" font-family="Times,serif" font-size="14.00">0.07</text>
</g>
<!-- 5&#45;&gt;3 -->
<g id="edge34" class="edge">
<title>5&#45;&gt;3</title>
<path fill="none" stroke="black" stroke-width="0.02" d="M244.71,-260.96C242.6,-239.64 241.45,-202.48 254,-174 262.82,-153.99 280.19,-136.32 294.75,-124"/>
<polygon fill="black" stroke="black" stroke-width="0.02" points="296.27,-125.47 299.57,-120.04 293.6,-122.23 296.27,-125.47"/>
<text text-anchor="middle" x="266.5" y="-188.3" font-family="Times,serif" font-size="14.00">0.01</text>
</g>
<!-- 5&#45;&gt;4 -->
<g id="edge35" class="edge">
<title>5&#45;&gt;4</title>
<path fill="none" stroke="black" stroke-width="2.24" d="M258.83,-262C267.7,-251.04 280.71,-236.92 295,-228 301.49,-223.95 339.64,-212.1 368.99,-203.3"/>
<polygon fill="black" stroke="black" stroke-width="2.24" points="369.96,-205.2 375.11,-201.48 368.76,-201.18 369.96,-205.2"/>
<text text-anchor="middle" x="307.5" y="-231.8" font-family="Times,serif" font-size="14.00">0.75</text>
</g>
<!-- 5&#45;&gt;5 -->
<g id="edge36" class="edge">
<title>5&#45;&gt;5</title>
<path fill="none" stroke="black" stroke-width="0.06" d="M277.58,-286.85C289.19,-287.15 298.8,-284.54 298.8,-279 298.8,-274.46 292.34,-271.88 283.6,-271.27"/>
<polygon fill="black" stroke="black" stroke-width="0.06" points="283.62,-269.17 277.58,-271.15 283.54,-273.37 283.62,-269.17"/>
<text text-anchor="middle" x="311.3" y="-275.3" font-family="Times,serif" font-size="14.00">0.02</text>
</g>
</g>
</svg>
