<?xml version="1.0" encoding="UTF-8" standalone="no"?>
<!DOCTYPE svg PUBLIC "-//W3C//DTD SVG 1.1//EN"
 "http://www.w3.org/Graphics/SVG/1.1/DTD/svg11.dtd">
<!-- Generated by graphviz version 2.43.0 (0)
 -->
<!-- Pages: 1 -->
<svg width="520pt" height="392pt"
 viewBox="0.00 0.00 520.00 392.00" xmlns="http://www.w3.org/2000/svg" xmlns:xlink="http://www.w3.org/1999/xlink">
<g id="graph0" class="graph" transform="scale(1 1) rotate(0) translate(4 388)">
<polygon fill="white" stroke="transparent" points="-4,4 -4,-388 516,-388 516,4 -4,4"/>
<!-- 0 -->
<g id="node1" class="node">
<title>0</title>
<ellipse fill="lightblue" stroke="black" cx="185" cy="-366" rx="34" ry="18"/>
<text text-anchor="middle" x="185" y="-362.3" font-family="Times,serif" font-size="14.00">state 1</text>
</g>
<!-- 0&#45;&gt;0 -->
<g id="edge1" class="edge">
<title>0&#45;&gt;0</title>
<path fill="none" stroke="black" stroke-width="0.08" d="M215.58,-373.85C227.19,-374.15 236.8,-371.54 236.8,-366 236.8,-361.46 230.34,-358.88 221.6,-358.27"/>
<polygon fill="black" stroke="black" stroke-width="0.08" points="221.62,-356.17 215.58,-358.15 221.54,-360.37 221.62,-356.17"/>
<text text-anchor="middle" x="249.3" y="-362.3" font-family="Times,serif" font-size="14.00">0.04</text>
</g>
<!-- 1 -->
<g id="node2" class="node">
<title>1</title>
<ellipse fill="orange" stroke="black" cx="251" cy="-279" rx="34" ry="18"/>
<text text-anchor="middle" x="251" y="-275.3" font-family="Times,serif" font-size="14.00">state 2</text>
</g>
<!-- 0&#45;&gt;1 -->
<g id="edge2" class="edge">
<title>0&#45;&gt;1</title>
<path fill="none" stroke="black" stroke-width="0.02" d="M188.44,-348.03C191.14,-337.73 195.7,-324.75 203,-315 208.43,-307.76 215.77,-301.37 223.09,-296.1"/>
<polygon fill="black" stroke="black" stroke-width="0.02" points="224.37,-297.77 228.12,-292.63 221.99,-294.31 224.37,-297.77"/>
<text text-anchor="middle" x="215.5" y="-318.8" font-family="Times,serif" font-size="14.00">0.01</text>
</g>
<!-- 2 -->
<g id="node3" class="node">
<title>2</title>
<ellipse fill="lightgreen" stroke="black" cx="184" cy="-18" rx="34" ry="18"/>
<text text-anchor="middle" x="184" y="-14.3" font-family="Times,serif" font-size="14.00">state 3</text>
</g>
<!-- 0&#45;&gt;2 -->
<g id="edge3" class="edge">
<title>0&#45;&gt;2</title>
<path fill="none" stroke="black" stroke-width="0.01" d="M151.07,-364.16C97.66,-360.82 0,-345.74 0,-280 0,-280 0,-280 0,-104 0,-40.98 90.06,-24.53 144.16,-20.34"/>
<polygon fill="black" stroke="black" stroke-width="0.01" points="144.41,-22.43 150.25,-19.91 144.12,-18.24 144.41,-22.43"/>
<text text-anchor="middle" x="12.5" y="-188.3" font-family="Times,serif" font-size="14.00">0.01</text>
</g>
<!-- 3 -->
<g id="node4" class="node">
<title>3</title>
<ellipse fill="red" stroke="black" cx="255" cy="-105" rx="34" ry="18"/>
<text text-anchor="middle" x="255" y="-101.3" font-family="Times,serif" font-size="14.00">state 4</text>
</g>
<!-- 0&#45;&gt;3 -->
<g id="edge4" class="edge">
<title>0&#45;&gt;3</title>
<path fill="none" stroke="black" stroke-width="0.01" d="M218.96,-365.68C283.71,-366.19 421.12,-363.21 452,-330 509.19,-268.48 508.81,-202.87 452,-141 431.34,-118.5 346.11,-110.4 294.76,-107.53"/>
<polygon fill="black" stroke="black" stroke-width="0.01" points="294.79,-105.43 288.68,-107.2 294.56,-109.62 294.79,-105.43"/>
<text text-anchor="middle" x="503" y="-231.8" font-family="Times,serif" font-size="14.00">0.0</text>
</g>
<!-- 4 -->
<g id="node5" class="node">
<title>4</title>
<ellipse fill="purple" stroke="black" cx="138" cy="-192" rx="34" ry="18"/>
<text text-anchor="middle" x="138" y="-188.3" font-family="Times,serif" font-size="14.00">state 5</text>
</g>
<!-- 0&#45;&gt;4 -->
<g id="edge5" class="edge">
<title>0&#45;&gt;4</title>
<path fill="none" stroke="black" stroke-width="1.87" d="M165.47,-351.06C150.12,-338.81 129.9,-319.45 121,-297 109.69,-268.48 115.92,-257.85 123,-228 123.98,-223.85 125.42,-219.57 127.03,-215.49"/>
<polygon fill="black" stroke="black" stroke-width="1.87" points="129.08,-216.04 129.46,-209.69 125.2,-214.41 129.08,-216.04"/>
<text text-anchor="middle" x="133.5" y="-275.3" font-family="Times,serif" font-size="14.00">0.94</text>
</g>
<!-- 1&#45;&gt;0 -->
<g id="edge6" class="edge">
<title>1&#45;&gt;0</title>
<path fill="none" stroke="black" stroke-width="0.37" d="M245.48,-296.81C241.6,-307.05 235.73,-320.03 228,-330 223.02,-336.43 216.64,-342.42 210.34,-347.57"/>
<polygon fill="black" stroke="black" stroke-width="0.37" points="208.97,-345.98 205.55,-351.34 211.56,-349.28 208.97,-345.98"/>
<text text-anchor="middle" x="248.5" y="-318.8" font-family="Times,serif" font-size="14.00">0.18</text>
</g>
<!-- 1&#45;&gt;1 -->
<g id="edge7" class="edge">
<title>1&#45;&gt;1</title>
<path fill="none" stroke="black" stroke-width="1.05" d="M281.58,-286.85C293.19,-287.15 302.8,-284.54 302.8,-279 302.8,-274.46 296.34,-271.88 287.6,-271.27"/>
<polygon fill="black" stroke="black" stroke-width="1.05" points="287.62,-269.17 281.58,-271.15 287.54,-273.37 287.62,-269.17"/>
<text text-anchor="middle" x="315.3" y="-275.3" font-family="Times,serif" font-size="14.00">0.53</text>
</g>
<!-- 1&#45;&gt;2 -->
<g id="edge8" class="edge">
<title>1&#45;&gt;2</title>
<path fill="none" stroke="black" stroke-width="0.19" d="M284.91,-278.71C314.51,-277.33 356.2,-270.19 379,-243 432.97,-178.63 435.79,-115.89 379,-54 358.61,-31.78 274.65,-23.58 223.78,-20.62"/>
<polygon fill="black" stroke="black" stroke-width="0.19" points="223.85,-18.52 217.74,-20.28 223.61,-22.71 223.85,-18.52"/>
<text text-anchor="middle" x="432.5" y="-144.8" font-family="Times,serif" font-size="14.00">0.09</text>
</g>
<!-- 1&#45;&gt;3 -->
<g id="edge9" class="edge">
<title>1&#45;&gt;3</title>
<path fill="none" stroke="black" stroke-width="0.12" d="M251.4,-260.88C252.12,-229.84 253.65,-164.26 254.46,-129.22"/>
<polygon fill="black" stroke="black" stroke-width="0.12" points="256.56,-129.1 254.6,-123.05 252.36,-129 256.56,-129.1"/>
<text text-anchor="middle" x="265.5" y="-188.3" font-family="Times,serif" font-size="14.00">0.06</text>
</g>
<!-- 1&#45;&gt;4 -->
<g id="edge10" class="edge">
<title>1&#45;&gt;4</title>
<path fill="none" stroke="black" stroke-width="0.27" d="M233.65,-263.41C221.37,-253.23 204.42,-239.48 189,-228 180.87,-221.95 171.8,-215.6 163.59,-209.99"/>
<polygon fill="black" stroke="black" stroke-width="0.27" points="164.75,-208.24 158.6,-206.61 162.39,-211.71 164.75,-208.24"/>
<text text-anchor="middle" x="220.5" y="-231.8" font-family="Times,serif" font-size="14.00">0.14</text>
</g>
<!-- 2&#45;&gt;0 -->
<g id="edge11" class="edge">
<title>2&#45;&gt;0</title>
<path fill="none" stroke="black" stroke-width="0.06" d="M153.28,-25.94C116.85,-36.2 61,-59.22 61,-104 61,-280 61,-280 61,-280 61,-322.68 111.6,-345.52 148.16,-356.45"/>
<polygon fill="black" stroke="black" stroke-width="0.06" points="148,-358.59 154.35,-358.23 149.16,-354.55 148,-358.59"/>
<text text-anchor="middle" x="73.5" y="-188.3" font-family="Times,serif" font-size="14.00">0.03</text>
</g>
<!-- 2&#45;&gt;1 -->
<g id="edge12" class="edge">
<title>2&#45;&gt;1</title>
<path fill="none" stroke="black" stroke-width="0" d="M216.97,-22.66C254.43,-28.79 313.86,-44.95 341,-87 378.95,-145.8 310.23,-223.14 272.85,-258.65"/>
<polygon fill="black" stroke="black" stroke-width="0" points="270.96,-257.54 268.01,-263.17 273.83,-260.61 270.96,-257.54"/>
<text text-anchor="middle" x="359" y="-144.8" font-family="Times,serif" font-size="14.00">0.0</text>
</g>
<!-- 2&#45;&gt;2 -->
<g id="edge13" class="edge">
<title>2&#45;&gt;2</title>
<path fill="none" stroke="black" stroke-width="0.05" d="M214.58,-25.85C226.19,-26.15 235.8,-23.54 235.8,-18 235.8,-13.46 229.34,-10.88 220.6,-10.27"/>
<polygon fill="black" stroke="black" stroke-width="0.05" points="220.62,-8.17 214.58,-10.15 220.54,-12.37 220.62,-8.17"/>
<text text-anchor="middle" x="248.3" y="-14.3" font-family="Times,serif" font-size="14.00">0.02</text>
</g>
<!-- 2&#45;&gt;3 -->
<g id="edge14" class="edge">
<title>2&#45;&gt;3</title>
<path fill="none" stroke="black" stroke-width="1.89" d="M188.52,-36.02C191.86,-46.34 197.2,-59.33 205,-69 210.95,-76.37 218.83,-82.86 226.58,-88.19"/>
<polygon fill="black" stroke="black" stroke-width="1.89" points="225.73,-90.14 231.9,-91.69 228.04,-86.63 225.73,-90.14"/>
<text text-anchor="middle" x="217.5" y="-57.8" font-family="Times,serif" font-size="14.00">0.94</text>
</g>
<!-- 2&#45;&gt;4 -->
<g id="edge15" class="edge">
<title>2&#45;&gt;4</title>
<path fill="none" stroke="black" stroke-width="0.01" d="M179.08,-35.92C172.28,-59.43 159.77,-103.33 150,-141 147.75,-149.68 145.42,-159.24 143.42,-167.66"/>
<polygon fill="black" stroke="black" stroke-width="0.01" points="141.3,-167.52 141.96,-173.84 145.38,-168.48 141.3,-167.52"/>
<text text-anchor="middle" x="174" y="-101.3" font-family="Times,serif" font-size="14.00">0.0</text>
</g>
<!-- 3&#45;&gt;0 -->
<g id="edge16" class="edge">
<title>3&#45;&gt;0</title>
<path fill="none" stroke="black" stroke-width="0" d="M288.8,-105.91C316.1,-107.86 353.01,-115.49 372,-141 375.98,-146.35 372.81,-149.38 372,-156 364.16,-220.09 378.21,-247.29 337,-297 308.05,-331.92 257.48,-349.58 222.67,-358.02"/>
<polygon fill="black" stroke="black" stroke-width="0" points="222.16,-355.98 216.79,-359.39 223.11,-360.07 222.16,-355.98"/>
<text text-anchor="middle" x="376" y="-231.8" font-family="Times,serif" font-size="14.00">0.0</text>
</g>
<!-- 3&#45;&gt;1 -->
<g id="edge17" class="edge">
<title>3&#45;&gt;1</title>
<path fill="none" stroke="black" stroke-width="0.76" d="M264.19,-122.47C274.45,-142.9 288.77,-178.83 282,-210 278.46,-226.31 270.65,-243.39 263.76,-256.36"/>
<polygon fill="black" stroke="black" stroke-width="0.76" points="261.9,-255.38 260.87,-261.65 265.59,-257.39 261.9,-255.38"/>
<text text-anchor="middle" x="295.5" y="-188.3" font-family="Times,serif" font-size="14.00">0.38</text>
</g>
<!-- 3&#45;&gt;2 -->
<g id="edge18" class="edge">
<title>3&#45;&gt;2</title>
<path fill="none" stroke="black" stroke-width="1.1" d="M248.84,-87.11C244.57,-76.85 238.17,-63.86 230,-54 224.49,-47.35 217.48,-41.22 210.61,-36"/>
<polygon fill="black" stroke="black" stroke-width="1.1" points="211.49,-34.05 205.41,-32.2 209.01,-37.44 211.49,-34.05"/>
<text text-anchor="middle" x="251.5" y="-57.8" font-family="Times,serif" font-size="14.00">0.55</text>
</g>
<!-- 3&#45;&gt;3 -->
<g id="edge19" class="edge">
<title>3&#45;&gt;3</title>
<path fill="none" stroke="black" stroke-width="0.12" d="M285.58,-112.85C297.19,-113.15 306.8,-110.54 306.8,-105 306.8,-100.46 300.34,-97.88 291.6,-97.27"/>
<polygon fill="black" stroke="black" stroke-width="0.12" points="291.62,-95.17 285.58,-97.15 291.54,-99.37 291.62,-95.17"/>
<text text-anchor="middle" x="319.3" y="-101.3" font-family="Times,serif" font-size="14.00">0.06</text>
</g>
<!-- 3&#45;&gt;4 -->
<g id="edge20" class="edge">
<title>3&#45;&gt;4</title>
<path fill="none" stroke="black" stroke-width="0.02" d="M238.11,-120.83C226.12,-131.11 209.46,-144.9 194,-156 184.89,-162.54 174.57,-169.19 165.29,-174.91"/>
<polygon fill="black" stroke="black" stroke-width="0.02" points="163.98,-173.25 159.96,-178.17 166.17,-176.83 163.98,-173.25"/>
<text text-anchor="middle" x="224.5" y="-144.8" font-family="Times,serif" font-size="14.00">0.01</text>
</g>
<!-- 4&#45;&gt;0 -->
<g id="edge21" class="edge">
<title>4&#45;&gt;0</title>
<path fill="none" stroke="black" stroke-width="1.56" d="M142.38,-210.14C144.87,-219.8 148.06,-232.09 151,-243 160.33,-277.64 171.58,-317.69 178.51,-342.17"/>
<polygon fill="black" stroke="black" stroke-width="1.56" points="176.52,-342.85 180.18,-348.05 180.56,-341.7 176.52,-342.85"/>
<text text-anchor="middle" x="178.5" y="-275.3" font-family="Times,serif" font-size="14.00">0.78</text>
</g>
<!-- 4&#45;&gt;1 -->
<g id="edge22" class="edge">
<title>4&#45;&gt;1</title>
<path fill="none" stroke="black" stroke-width="0" d="M144.38,-209.73C149.2,-220.45 156.74,-234 167,-243 174.95,-249.97 197.53,-259.21 217.28,-266.45"/>
<polygon fill="black" stroke="black" stroke-width="0" points="216.67,-268.46 223.03,-268.53 218.1,-264.51 216.67,-268.46"/>
<text text-anchor="middle" x="176" y="-231.8" font-family="Times,serif" font-size="14.00">0.0</text>
</g>
<!-- 4&#45;&gt;2 -->
<g id="edge23" class="edge">
<title>4&#45;&gt;2</title>
<path fill="none" stroke="black" stroke-width="0.17" d="M131.48,-174.23C124.32,-153.2 115.19,-116.33 126,-87 133.12,-67.68 148.44,-50.12 161.55,-37.68"/>
<polygon fill="black" stroke="black" stroke-width="0.17" points="163.27,-38.95 166.26,-33.34 160.43,-35.86 163.27,-38.95"/>
<text text-anchor="middle" x="138.5" y="-101.3" font-family="Times,serif" font-size="14.00">0.09</text>
</g>
<!-- 4&#45;&gt;3 -->
<g id="edge24" class="edge">
<title>4&#45;&gt;3</title>
<path fill="none" stroke="black" stroke-width="0.16" d="M143.61,-174.19C147.95,-163.44 154.94,-149.88 165,-141 179.9,-127.84 200.31,-119.36 217.93,-114.05"/>
<polygon fill="black" stroke="black" stroke-width="0.16" points="218.6,-116.04 223.79,-112.37 217.44,-112 218.6,-116.04"/>
<text text-anchor="middle" x="177.5" y="-144.8" font-family="Times,serif" font-size="14.00">0.08</text>
</g>
<!-- 4&#45;&gt;4 -->
<g id="edge25" class="edge">
<title>4&#45;&gt;4</title>
<path fill="none" stroke="black" stroke-width="0.1" d="M168.58,-199.85C180.19,-200.15 189.8,-197.54 189.8,-192 189.8,-187.46 183.34,-184.88 174.6,-184.27"/>
<polygon fill="black" stroke="black" stroke-width="0.1" points="174.62,-182.17 168.58,-184.15 174.54,-186.37 174.62,-182.17"/>
<text text-anchor="middle" x="202.3" y="-188.3" font-family="Times,serif" font-size="14.00">0.05</text>
</g>
</g>
</svg>
