<?xml version="1.0" encoding="UTF-8" standalone="no"?>
<!DOCTYPE svg PUBLIC "-//W3C//DTD SVG 1.1//EN"
 "http://www.w3.org/Graphics/SVG/1.1/DTD/svg11.dtd">
<!-- Generated by graphviz version 2.43.0 (0)
 -->
<!-- Pages: 1 -->
<svg width="708pt" height="479pt"
 viewBox="0.00 0.00 708.00 479.00" xmlns="http://www.w3.org/2000/svg" xmlns:xlink="http://www.w3.org/1999/xlink">
<g id="graph0" class="graph" transform="scale(1 1) rotate(0) translate(4 475)">
<polygon fill="white" stroke="transparent" points="-4,4 -4,-475 704,-475 704,4 -4,4"/>
<!-- 0 -->
<g id="node1" class="node">
<title>0</title>
<ellipse fill="lightblue" stroke="black" cx="224" cy="-453" rx="34" ry="18"/>
<text text-anchor="middle" x="224" y="-449.3" font-family="Times,serif" font-size="14.00">state 1</text>
</g>
<!-- 0&#45;&gt;0 -->
<g id="edge1" class="edge">
<title>0&#45;&gt;0</title>
<path fill="none" stroke="black" stroke-width="2.79" d="M254.58,-460.85C266.19,-461.15 275.8,-458.54 275.8,-453 275.8,-448.46 269.34,-445.88 260.6,-445.27"/>
<polygon fill="black" stroke="black" stroke-width="2.79" points="260.62,-443.17 254.58,-445.15 260.54,-447.37 260.62,-443.17"/>
<text text-anchor="middle" x="288.3" y="-449.3" font-family="Times,serif" font-size="14.00">0.93</text>
</g>
<!-- 1 -->
<g id="node2" class="node">
<title>1</title>
<ellipse fill="orange" stroke="black" cx="477" cy="-366" rx="34" ry="18"/>
<text text-anchor="middle" x="477" y="-362.3" font-family="Times,serif" font-size="14.00">state 2</text>
</g>
<!-- 0&#45;&gt;1 -->
<g id="edge2" class="edge">
<title>0&#45;&gt;1</title>
<path fill="none" stroke="black" stroke-width="0" d="M257.52,-449.57C310.09,-445.27 409.02,-435.02 439,-417 450.14,-410.3 459.15,-399 465.59,-388.83"/>
<polygon fill="black" stroke="black" stroke-width="0" points="467.41,-389.87 468.72,-383.65 463.82,-387.7 467.41,-389.87"/>
<text text-anchor="middle" x="464" y="-405.8" font-family="Times,serif" font-size="14.00">0.0</text>
</g>
<!-- 2 -->
<g id="node3" class="node">
<title>2</title>
<ellipse fill="lightgreen" stroke="black" cx="319" cy="-18" rx="34" ry="18"/>
<text text-anchor="middle" x="319" y="-14.3" font-family="Times,serif" font-size="14.00">state 3</text>
</g>
<!-- 0&#45;&gt;2 -->
<g id="edge3" class="edge">
<title>0&#45;&gt;2</title>
<path fill="none" stroke="black" stroke-width="0.16" d="M190.79,-448.98C143.41,-444.15 59.35,-433.54 34,-417 11.49,-402.32 0,-393.87 0,-367 0,-367 0,-367 0,-104 0,-77.13 11.06,-68 34,-54 74.27,-29.42 210.8,-22.06 279.23,-19.89"/>
<polygon fill="black" stroke="black" stroke-width="0.16" points="279.3,-21.98 285.23,-19.7 279.17,-17.79 279.3,-21.98"/>
<text text-anchor="middle" x="12.5" y="-231.8" font-family="Times,serif" font-size="14.00">0.05</text>
</g>
<!-- 3 -->
<g id="node4" class="node">
<title>3</title>
<ellipse fill="red" stroke="black" cx="319" cy="-105" rx="34" ry="18"/>
<text text-anchor="middle" x="319" y="-101.3" font-family="Times,serif" font-size="14.00">state 4</text>
</g>
<!-- 0&#45;&gt;3 -->
<g id="edge4" class="edge">
<title>0&#45;&gt;3</title>
<path fill="none" stroke="black" stroke-width="0" d="M192.86,-445.95C154.4,-436.45 94,-414.06 94,-367 94,-367 94,-367 94,-191 94,-166.35 98.34,-155.88 118,-141 142.83,-122.21 228.39,-112.72 279.53,-108.62"/>
<polygon fill="black" stroke="black" stroke-width="0" points="279.77,-110.71 285.59,-108.14 279.44,-106.52 279.77,-110.71"/>
<text text-anchor="middle" x="103" y="-275.3" font-family="Times,serif" font-size="14.00">0.0</text>
</g>
<!-- 4 -->
<g id="node5" class="node">
<title>4</title>
<ellipse fill="purple" stroke="black" cx="407" cy="-192" rx="34" ry="18"/>
<text text-anchor="middle" x="407" y="-188.3" font-family="Times,serif" font-size="14.00">state 5</text>
</g>
<!-- 0&#45;&gt;4 -->
<g id="edge5" class="edge">
<title>0&#45;&gt;4</title>
<path fill="none" stroke="black" stroke-width="0" d="M236.1,-435.94C253.54,-412.72 286.64,-368.35 314,-330 341.28,-291.76 347.73,-281.94 374,-243 380.26,-233.72 387.09,-223.4 392.91,-214.56"/>
<polygon fill="black" stroke="black" stroke-width="0" points="394.84,-215.44 396.38,-209.27 391.33,-213.14 394.84,-215.44"/>
<text text-anchor="middle" x="334" y="-318.8" font-family="Times,serif" font-size="14.00">0.0</text>
</g>
<!-- 5 -->
<g id="node6" class="node">
<title>5</title>
<ellipse fill="grey" stroke="black" cx="249" cy="-279" rx="34" ry="18"/>
<text text-anchor="middle" x="249" y="-275.3" font-family="Times,serif" font-size="14.00">state 6</text>
</g>
<!-- 0&#45;&gt;5 -->
<g id="edge6" class="edge">
<title>0&#45;&gt;5</title>
<path fill="none" stroke="black" stroke-width="0.05" d="M217.11,-435.17C209.58,-414.39 199.63,-378.1 208,-348 212.79,-330.76 223.26,-313.53 232.42,-300.72"/>
<polygon fill="black" stroke="black" stroke-width="0.05" points="234.12,-301.95 235.98,-295.87 230.74,-299.46 234.12,-301.95"/>
<text text-anchor="middle" x="220.5" y="-362.3" font-family="Times,serif" font-size="14.00">0.02</text>
</g>
<!-- 1&#45;&gt;0 -->
<g id="edge7" class="edge">
<title>1&#45;&gt;0</title>
<path fill="none" stroke="black" stroke-width="0" d="M455.14,-379.77C429.94,-394.47 391.86,-416.67 391,-417 348.82,-433.19 297.63,-442.51 263.13,-447.4"/>
<polygon fill="black" stroke="black" stroke-width="0" points="262.54,-445.36 256.89,-448.27 263.12,-449.52 262.54,-445.36"/>
<text text-anchor="middle" x="426" y="-405.8" font-family="Times,serif" font-size="14.00">0.0</text>
</g>
<!-- 1&#45;&gt;1 -->
<g id="edge8" class="edge">
<title>1&#45;&gt;1</title>
<path fill="none" stroke="black" stroke-width="2.66" d="M507.58,-373.85C519.19,-374.15 528.8,-371.54 528.8,-366 528.8,-361.46 522.34,-358.88 513.6,-358.27"/>
<polygon fill="black" stroke="black" stroke-width="2.66" points="513.62,-356.17 507.58,-358.15 513.54,-360.37 513.62,-356.17"/>
<text text-anchor="middle" x="541.3" y="-362.3" font-family="Times,serif" font-size="14.00">0.89</text>
</g>
<!-- 1&#45;&gt;2 -->
<g id="edge9" class="edge">
<title>1&#45;&gt;2</title>
<path fill="none" stroke="black" stroke-width="0" d="M510.85,-365.56C569.08,-364.57 682,-353.2 682,-280 682,-280 682,-280 682,-104 682,-75.54 666.95,-67.69 642,-54 594.21,-27.77 434.41,-21.2 359.02,-19.55"/>
<polygon fill="black" stroke="black" stroke-width="0" points="358.9,-17.45 352.86,-19.42 358.82,-21.65 358.9,-17.45"/>
<text text-anchor="middle" x="691" y="-188.3" font-family="Times,serif" font-size="14.00">0.0</text>
</g>
<!-- 1&#45;&gt;3 -->
<g id="edge10" class="edge">
<title>1&#45;&gt;3</title>
<path fill="none" stroke="black" stroke-width="0.17" d="M468.42,-348.32C459.06,-329.98 445.23,-302.37 444,-297 440.42,-281.41 438.03,-275.84 444,-261 455.74,-231.84 481.26,-239.16 493,-210 498.97,-195.16 501.84,-187.34 493,-174 477.27,-150.26 401.24,-127.09 355.04,-114.88"/>
<polygon fill="black" stroke="black" stroke-width="0.17" points="355.35,-112.79 349.01,-113.3 354.28,-116.85 355.35,-112.79"/>
<text text-anchor="middle" x="491.5" y="-231.8" font-family="Times,serif" font-size="14.00">0.06</text>
</g>
<!-- 1&#45;&gt;4 -->
<g id="edge11" class="edge">
<title>1&#45;&gt;4</title>
<path fill="none" stroke="black" stroke-width="0.13" d="M471.88,-348.19C463.67,-321.98 446.51,-270.03 427,-228 424.97,-223.63 422.58,-219.07 420.18,-214.75"/>
<polygon fill="black" stroke="black" stroke-width="0.13" points="421.94,-213.6 417.15,-209.43 418.29,-215.68 421.94,-213.6"/>
<text text-anchor="middle" x="466.5" y="-275.3" font-family="Times,serif" font-size="14.00">0.04</text>
</g>
<!-- 1&#45;&gt;5 -->
<g id="edge12" class="edge">
<title>1&#45;&gt;5</title>
<path fill="none" stroke="black" stroke-width="0.04" d="M442.94,-365.61C403.25,-364.83 336.98,-358.76 289,-330 277.63,-323.19 268.18,-311.87 261.32,-301.73"/>
<polygon fill="black" stroke="black" stroke-width="0.04" points="263,-300.46 257.97,-296.57 259.48,-302.75 263,-300.46"/>
<text text-anchor="middle" x="301.5" y="-318.8" font-family="Times,serif" font-size="14.00">0.01</text>
</g>
<!-- 2&#45;&gt;0 -->
<g id="edge13" class="edge">
<title>2&#45;&gt;0</title>
<path fill="none" stroke="black" stroke-width="0.35" d="M286.04,-22.31C213.82,-30.49 48,-54.63 48,-104 48,-367 48,-367 48,-367 48,-427.16 132.41,-444.76 184.32,-449.9"/>
<polygon fill="black" stroke="black" stroke-width="0.35" points="184.31,-452.01 190.48,-450.46 184.69,-447.83 184.31,-452.01"/>
<text text-anchor="middle" x="60.5" y="-231.8" font-family="Times,serif" font-size="14.00">0.12</text>
</g>
<!-- 2&#45;&gt;1 -->
<g id="edge14" class="edge">
<title>2&#45;&gt;1</title>
<path fill="none" stroke="black" stroke-width="0.01" d="M352.36,-21.09C432.26,-27.02 628,-47.32 628,-104 628,-280 628,-280 628,-280 628,-331.43 560.66,-352.08 515.92,-360.12"/>
<polygon fill="black" stroke="black" stroke-width="0.01" points="515.32,-358.09 509.76,-361.17 516.03,-362.23 515.32,-358.09"/>
<text text-anchor="middle" x="637" y="-188.3" font-family="Times,serif" font-size="14.00">0.0</text>
</g>
<!-- 2&#45;&gt;2 -->
<g id="edge15" class="edge">
<title>2&#45;&gt;2</title>
<path fill="none" stroke="black" stroke-width="0.01" d="M349.58,-25.85C361.19,-26.15 370.8,-23.54 370.8,-18 370.8,-13.46 364.34,-10.88 355.6,-10.27"/>
<polygon fill="black" stroke="black" stroke-width="0.01" points="355.62,-8.17 349.58,-10.15 355.54,-12.37 355.62,-8.17"/>
<text text-anchor="middle" x="379.8" y="-14.3" font-family="Times,serif" font-size="14.00">0.0</text>
</g>
<!-- 2&#45;&gt;3 -->
<g id="edge16" class="edge">
<title>2&#45;&gt;3</title>
<path fill="none" stroke="black" stroke-width="0.12" d="M305.86,-34.74C301.89,-40.44 298.04,-47.17 296,-54 293.05,-63.85 296.65,-74.26 301.81,-83.02"/>
<polygon fill="black" stroke="black" stroke-width="0.12" points="300.16,-84.33 305.18,-88.23 303.69,-82.05 300.16,-84.33"/>
<text text-anchor="middle" x="308.5" y="-57.8" font-family="Times,serif" font-size="14.00">0.04</text>
</g>
<!-- 2&#45;&gt;4 -->
<g id="edge17" class="edge">
<title>2&#45;&gt;4</title>
<path fill="none" stroke="black" stroke-width="2.51" d="M342.65,-31.28C362.55,-42.9 390.06,-62.22 405,-87 421,-113.54 418.47,-125.21 415,-156 414.56,-159.9 413.85,-164 413.03,-167.97"/>
<polygon fill="black" stroke="black" stroke-width="2.51" points="410.93,-167.73 411.68,-174.04 415.03,-168.64 410.93,-167.73"/>
<text text-anchor="middle" x="430.5" y="-101.3" font-family="Times,serif" font-size="14.00">0.84</text>
</g>
<!-- 2&#45;&gt;5 -->
<g id="edge18" class="edge">
<title>2&#45;&gt;5</title>
<path fill="none" stroke="black" stroke-width="0" d="M305.09,-34.51C286.53,-56.39 254.66,-98.4 243,-141 231.03,-184.73 235.92,-197.94 241,-243 241.44,-246.9 242.15,-251 242.97,-254.97"/>
<polygon fill="black" stroke="black" stroke-width="0" points="240.97,-255.64 244.32,-261.04 245.07,-254.73 240.97,-255.64"/>
<text text-anchor="middle" x="252" y="-144.8" font-family="Times,serif" font-size="14.00">0.0</text>
</g>
<!-- 3&#45;&gt;0 -->
<g id="edge19" class="edge">
<title>3&#45;&gt;0</title>
<path fill="none" stroke="black" stroke-width="0.07" d="M285.54,-108.6C261.84,-112.21 230.99,-120.76 212,-141 128.02,-230.48 161.43,-301.9 204,-417 205.67,-421.52 207.89,-426.15 210.25,-430.49"/>
<polygon fill="black" stroke="black" stroke-width="0.07" points="208.48,-431.63 213.27,-435.81 212.13,-429.56 208.48,-431.63"/>
<text text-anchor="middle" x="177.5" y="-275.3" font-family="Times,serif" font-size="14.00">0.02</text>
</g>
<!-- 3&#45;&gt;1 -->
<g id="edge20" class="edge">
<title>3&#45;&gt;1</title>
<path fill="none" stroke="black" stroke-width="0.08" d="M349.79,-112.47C390.25,-121.08 457.43,-135.84 468,-141 489.02,-151.26 497.71,-153.51 509,-174 511.86,-179.2 526.41,-266.44 519,-297 514.76,-314.5 504.02,-331.73 494.47,-344.47"/>
<polygon fill="black" stroke="black" stroke-width="0.08" points="492.75,-343.27 490.74,-349.3 496.07,-345.83 492.75,-343.27"/>
<text text-anchor="middle" x="531.5" y="-231.8" font-family="Times,serif" font-size="14.00">0.03</text>
</g>
<!-- 3&#45;&gt;2 -->
<g id="edge21" class="edge">
<title>3&#45;&gt;2</title>
<path fill="none" stroke="black" stroke-width="0.01" d="M320.27,-86.88C320.83,-77.22 321.31,-64.94 321,-54 320.89,-50.17 320.71,-46.1 320.51,-42.15"/>
<polygon fill="black" stroke="black" stroke-width="0.01" points="322.6,-41.95 320.17,-36.08 318.41,-42.19 322.6,-41.95"/>
<text text-anchor="middle" x="331" y="-57.8" font-family="Times,serif" font-size="14.00">0.0</text>
</g>
<!-- 3&#45;&gt;3 -->
<g id="edge22" class="edge">
<title>3&#45;&gt;3</title>
<path fill="none" stroke="black" stroke-width="2.57" d="M349.58,-112.85C361.19,-113.15 370.8,-110.54 370.8,-105 370.8,-100.46 364.34,-97.88 355.6,-97.27"/>
<polygon fill="black" stroke="black" stroke-width="2.57" points="355.62,-95.17 349.58,-97.15 355.54,-99.37 355.62,-95.17"/>
<text text-anchor="middle" x="383.3" y="-101.3" font-family="Times,serif" font-size="14.00">0.86</text>
</g>
<!-- 3&#45;&gt;4 -->
<g id="edge23" class="edge">
<title>3&#45;&gt;4</title>
<path fill="none" stroke="black" stroke-width="0.25" d="M342.5,-118.01C352.89,-124.02 364.8,-131.95 374,-141 382.31,-149.17 389.66,-159.76 395.31,-169.09"/>
<polygon fill="black" stroke="black" stroke-width="0.25" points="393.58,-170.3 398.43,-174.41 397.21,-168.17 393.58,-170.3"/>
<text text-anchor="middle" x="398.5" y="-144.8" font-family="Times,serif" font-size="14.00">0.08</text>
</g>
<!-- 3&#45;&gt;5 -->
<g id="edge24" class="edge">
<title>3&#45;&gt;5</title>
<path fill="none" stroke="black" stroke-width="0.02" d="M313.92,-122.82C307.48,-143.6 295.68,-179.89 283,-210 276.37,-225.75 267.75,-242.97 260.84,-256.14"/>
<polygon fill="black" stroke="black" stroke-width="0.02" points="258.94,-255.23 258,-261.52 262.66,-257.19 258.94,-255.23"/>
<text text-anchor="middle" x="309.5" y="-188.3" font-family="Times,serif" font-size="14.00">0.01</text>
</g>
<!-- 4&#45;&gt;0 -->
<g id="edge25" class="edge">
<title>4&#45;&gt;0</title>
<path fill="none" stroke="black" stroke-width="0.07" d="M403.21,-209.96C400.78,-219.78 397.28,-232.28 393,-243 365.45,-312.05 352.83,-328.83 303,-384 289.1,-399.39 285.62,-403.36 270,-417 263.24,-422.9 255.6,-428.95 248.51,-434.32"/>
<polygon fill="black" stroke="black" stroke-width="0.07" points="247.25,-432.64 243.71,-437.92 249.77,-436 247.25,-432.64"/>
<text text-anchor="middle" x="371.5" y="-318.8" font-family="Times,serif" font-size="14.00">0.02</text>
</g>
<!-- 4&#45;&gt;1 -->
<g id="edge26" class="edge">
<title>4&#45;&gt;1</title>
<path fill="none" stroke="black" stroke-width="0.26" d="M429.36,-205.62C447.61,-217.32 472.09,-236.59 483,-261 494.61,-286.96 489.69,-320.26 484.17,-342.09"/>
<polygon fill="black" stroke="black" stroke-width="0.26" points="482.13,-341.59 482.62,-347.93 486.19,-342.67 482.13,-341.59"/>
<text text-anchor="middle" x="502.5" y="-275.3" font-family="Times,serif" font-size="14.00">0.09</text>
</g>
<!-- 4&#45;&gt;2 -->
<g id="edge27" class="edge">
<title>4&#45;&gt;2</title>
<path fill="none" stroke="black" stroke-width="1.18" d="M421.26,-175.33C438.37,-154.51 462.9,-116.89 447,-87 428.99,-53.16 387.09,-35.51 356.1,-26.77"/>
<polygon fill="black" stroke="black" stroke-width="1.18" points="356.4,-24.68 350.06,-25.14 355.3,-28.73 356.4,-24.68"/>
<text text-anchor="middle" x="464.5" y="-101.3" font-family="Times,serif" font-size="14.00">0.39</text>
</g>
<!-- 4&#45;&gt;3 -->
<g id="edge28" class="edge">
<title>4&#45;&gt;3</title>
<path fill="none" stroke="black" stroke-width="0.18" d="M380.9,-180.45C368.86,-174.6 355.05,-166.4 345,-156 337.46,-148.19 331.57,-137.76 327.32,-128.44"/>
<polygon fill="black" stroke="black" stroke-width="0.18" points="329.2,-127.49 324.88,-122.82 325.34,-129.16 329.2,-127.49"/>
<text text-anchor="middle" x="357.5" y="-144.8" font-family="Times,serif" font-size="14.00">0.06</text>
</g>
<!-- 4&#45;&gt;4 -->
<g id="edge29" class="edge">
<title>4&#45;&gt;4</title>
<path fill="none" stroke="black" stroke-width="1.3" d="M437.58,-199.85C449.19,-200.15 458.8,-197.54 458.8,-192 458.8,-187.46 452.34,-184.88 443.6,-184.27"/>
<polygon fill="black" stroke="black" stroke-width="1.3" points="443.62,-182.17 437.58,-184.15 443.54,-186.37 443.62,-182.17"/>
<text text-anchor="middle" x="471.3" y="-188.3" font-family="Times,serif" font-size="14.00">0.43</text>
</g>
<!-- 4&#45;&gt;5 -->
<g id="edge30" class="edge">
<title>4&#45;&gt;5</title>
<path fill="none" stroke="black" stroke-width="0.02" d="M385.13,-205.95C374.22,-212.47 360.85,-220.56 349,-228 338.66,-234.49 336.7,-237.12 326,-243 311.58,-250.92 295.04,-258.61 281,-264.75"/>
<polygon fill="black" stroke="black" stroke-width="0.02" points="279.81,-262.98 275.14,-267.29 281.48,-266.83 279.81,-262.98"/>
<text text-anchor="middle" x="361.5" y="-231.8" font-family="Times,serif" font-size="14.00">0.01</text>
</g>
<!-- 5&#45;&gt;0 -->
<g id="edge31" class="edge">
<title>5&#45;&gt;0</title>
<path fill="none" stroke="black" stroke-width="0.01" d="M246.52,-297.05C242.02,-328.04 232.49,-393.61 227.39,-428.7"/>
<polygon fill="black" stroke="black" stroke-width="0.01" points="225.28,-428.64 226.49,-434.88 229.43,-429.25 225.28,-428.64"/>
<text text-anchor="middle" x="248" y="-362.3" font-family="Times,serif" font-size="14.00">0.0</text>
</g>
<!-- 5&#45;&gt;1 -->
<g id="edge32" class="edge">
<title>5&#45;&gt;1</title>
<path fill="none" stroke="black" stroke-width="0.25" d="M281.65,-283.85C313.59,-288.42 363.12,-297.72 403,-315 405.72,-316.18 431.63,-333.82 452.04,-347.81"/>
<polygon fill="black" stroke="black" stroke-width="0.25" points="450.96,-349.61 457.09,-351.28 453.33,-346.15 450.96,-349.61"/>
<text text-anchor="middle" x="436.5" y="-318.8" font-family="Times,serif" font-size="14.00">0.08</text>
</g>
<!-- 5&#45;&gt;2 -->
<g id="edge33" class="edge">
<title>5&#45;&gt;2</title>
<path fill="none" stroke="black" stroke-width="0" d="M240.3,-261.51C227.81,-235.73 207.43,-184.36 218,-141 228.92,-96.23 268.82,-57.8 295.08,-36.59"/>
<polygon fill="black" stroke="black" stroke-width="0" points="296.42,-38.21 299.81,-32.83 293.81,-34.92 296.42,-38.21"/>
<text text-anchor="middle" x="227" y="-144.8" font-family="Times,serif" font-size="14.00">0.0</text>
</g>
<!-- 5&#45;&gt;3 -->
<g id="edge34" class="edge">
<title>5&#45;&gt;3</title>
<path fill="none" stroke="black" stroke-width="0.07" d="M246.3,-260.98C243.7,-239.7 241.74,-202.57 254,-174 262.62,-153.91 280,-136.24 294.62,-123.95"/>
<polygon fill="black" stroke="black" stroke-width="0.07" points="296.15,-125.41 299.46,-119.99 293.49,-122.16 296.15,-125.41"/>
<text text-anchor="middle" x="266.5" y="-188.3" font-family="Times,serif" font-size="14.00">0.02</text>
</g>
<!-- 5&#45;&gt;4 -->
<g id="edge35" class="edge">
<title>5&#45;&gt;4</title>
<path fill="none" stroke="black" stroke-width="0" d="M264.42,-262.67C277.51,-249.89 295.5,-233.01 304,-228 315.75,-221.07 347.02,-210.82 372.05,-203.2"/>
<polygon fill="black" stroke="black" stroke-width="0" points="372.8,-205.17 377.94,-201.42 371.59,-201.15 372.8,-205.17"/>
<text text-anchor="middle" x="313" y="-231.8" font-family="Times,serif" font-size="14.00">0.0</text>
</g>
<!-- 5&#45;&gt;5 -->
<g id="edge36" class="edge">
<title>5&#45;&gt;5</title>
<path fill="none" stroke="black" stroke-width="2.67" d="M279.58,-286.85C291.19,-287.15 300.8,-284.54 300.8,-279 300.8,-274.46 294.34,-271.88 285.6,-271.27"/>
<polygon fill="black" stroke="black" stroke-width="2.67" points="285.62,-269.17 279.58,-271.15 285.54,-273.37 285.62,-269.17"/>
<text text-anchor="middle" x="313.3" y="-275.3" font-family="Times,serif" font-size="14.00">0.89</text>
</g>
</g>
</svg>
