<?xml version="1.0" encoding="UTF-8" standalone="no"?>
<!DOCTYPE svg PUBLIC "-//W3C//DTD SVG 1.1//EN" "http://www.w3.org/Graphics/SVG/1.1/DTD/svg11.dtd">
<svg width="100%" height="100%" viewBox="0 0 555 535" version="1.1" xmlns="http://www.w3.org/2000/svg" xmlns:xlink="http://www.w3.org/1999/xlink" xml:space="preserve" xmlns:serif="http://www.serif.com/" style="fill-rule:evenodd;clip-rule:evenodd;">
    <g id="Artboard1" transform="matrix(1.04915,0,0,1.06574,-83.9319,27.7092)">
        <rect x="80" y="-26" width="529" height="502" style="fill:none;"/>
        <clipPath id="_clip1">
            <rect x="80" y="-26" width="529" height="502"/>
        </clipPath>
        <g clip-path="url(#_clip1)">
            <g id="graph0" transform="matrix(0.953153,0,0,0.938318,32.3423,475.062)">
                <g transform="matrix(0.723703,0,0,1.119,51.8948,-3.47599)">
                    <rect x="-4" y="-475" width="713" height="479" style="fill:white;fill-rule:nonzero;"/>
                </g>
                <g id="node1">
                    <ellipse cx="228" cy="-453" rx="34" ry="18" style="fill:rgb(173,216,230);stroke:black;stroke-width:1px;"/>
                    <g transform="matrix(1,0,0,1,228,-449.3)">
                        <text x="-18.078px" y="0px" style="font-family:'TimesNewRomanPSMT', 'Times New Roman', serif;font-size:14px;">state 1</text>
                    </g>
                </g>
                <g id="edge1">
                    <path d="M258.58,-460.85C270.19,-461.15 279.8,-458.54 279.8,-453C279.8,-448.46 273.34,-445.88 264.6,-445.27" style="fill:none;fill-rule:nonzero;stroke:black;stroke-width:2.58px;"/>
                    <path d="M264.62,-443.17L258.58,-445.15L264.54,-447.37L264.62,-443.17Z" style="fill-rule:nonzero;stroke:black;stroke-width:2.58px;"/>
                    <g transform="matrix(1,0,0,1,292.3,-449.3)">
                        <text x="-12.25px" y="0px" style="font-family:'TimesNewRomanPSMT', 'Times New Roman', serif;font-size:14px;">0.86</text>
                    </g>
                </g>
                <g id="node2">
                    <ellipse cx="484" cy="-366" rx="34" ry="18" style="fill:rgb(255,165,0);stroke:black;stroke-width:1px;"/>
                    <g transform="matrix(1,0,0,1,484,-362.3)">
                        <text x="-18.078px" y="0px" style="font-family:'TimesNewRomanPSMT', 'Times New Roman', serif;font-size:14px;">state 2</text>
                    </g>
                </g>
                <g id="edge2">
                </g>
                <g id="node3">
                    <ellipse cx="319" cy="-18" rx="34" ry="18" style="fill:rgb(144,238,144);stroke:black;stroke-width:1px;"/>
                    <g transform="matrix(1,0,0,1,319,-14.3)">
                        <text x="-18.078px" y="0px" style="font-family:'TimesNewRomanPSMT', 'Times New Roman', serif;font-size:14px;">state 3</text>
                    </g>
                </g>
                <g id="edge3">
                    <path d="M192.89,-457.13C-26.294,-430.458 15.455,3.056 279.23,-19.89" style="fill:none;fill-rule:nonzero;stroke:black;stroke-width:0.06px;"/>
                    <path d="M279.3,-21.98L285.23,-19.7L279.17,-17.79L279.3,-21.98Z" style="fill-rule:nonzero;stroke:black;stroke-width:0.06px;"/>
                    <g transform="matrix(1,0,0,1,89.5,-152.8)">
                        <text x="-12.25px" y="0px" style="font-family:'TimesNewRomanPSMT', 'Times New Roman', serif;font-size:14px;">0.02</text>
                    </g>
                </g>
                <g id="node4">
                    <ellipse cx="319" cy="-105" rx="34" ry="18" style="fill:rgb(255,0,0);stroke:black;stroke-width:1px;"/>
                    <g transform="matrix(1,0,0,1,319,-101.3)">
                        <text x="-18.078px" y="0px" style="font-family:'TimesNewRomanPSMT', 'Times New Roman', serif;font-size:14px;">state 4</text>
                    </g>
                </g>
                <g id="edge4">
                    <path d="M196.24,-446.34C66.431,-370.927 127.572,-38.602 279.53,-108.62" style="fill:none;fill-rule:nonzero;stroke:black;stroke-width:0.02px;"/>
                    <path d="M279.77,-110.71L285.59,-108.14L279.44,-106.52L279.77,-110.71Z" style="fill-rule:nonzero;stroke:black;stroke-width:0.02px;"/>
                    <g transform="matrix(1,0,0,1,139.5,-271.3)">
                        <text x="-12.25px" y="0px" style="font-family:'TimesNewRomanPSMT', 'Times New Roman', serif;font-size:14px;">0.01</text>
                    </g>
                </g>
                <g id="node5">
                    <ellipse cx="404" cy="-192" rx="34" ry="18" style="fill:rgb(128,0,128);stroke:black;stroke-width:1px;"/>
                    <g transform="matrix(1,0,0,1,404,-188.3)">
                        <text x="-18.078px" y="0px" style="font-family:'TimesNewRomanPSMT', 'Times New Roman', serif;font-size:14px;">state 5</text>
                    </g>
                </g>
                <g id="edge5">
                    <path d="M239.54,-435.91C256.17,-412.66 287.77,-368.26 314,-330C340.28,-291.67 346.58,-281.91 372,-243C378.07,-233.71 384.69,-223.39 390.33,-214.55" style="fill:none;fill-rule:nonzero;stroke:black;stroke-width:0.04px;"/>
                    <path d="M392.25,-215.45L393.7,-209.26L388.71,-213.19L392.25,-215.45Z" style="fill-rule:nonzero;stroke:black;stroke-width:0.04px;"/>
                    <g transform="matrix(1,0,0,1,336.5,-318.8)">
                        <text x="-12.25px" y="0px" style="font-family:'TimesNewRomanPSMT', 'Times New Roman', serif;font-size:14px;">0.01</text>
                    </g>
                </g>
                <g id="node6">
                    <ellipse cx="247" cy="-279" rx="34" ry="18" style="fill:rgb(128,128,0);stroke:black;stroke-width:1px;"/>
                    <g transform="matrix(1,0,0,1,247,-275.3)">
                        <text x="-18.078px" y="0px" style="font-family:'TimesNewRomanPSMT', 'Times New Roman', serif;font-size:14px;">state 6</text>
                    </g>
                </g>
                <g id="edge6">
                    <path d="M222.3,-434.9C216.2,-414.14 208.25,-378.19 215,-348C218.66,-331.62 226.72,-314.54 233.84,-301.59" style="fill:none;fill-rule:nonzero;stroke:black;stroke-width:0.3px;"/>
                    <path d="M235.7,-302.57L236.81,-296.31L232.04,-300.51L235.7,-302.57Z" style="fill-rule:nonzero;stroke:black;stroke-width:0.3px;"/>
                    <g transform="matrix(1,0,0,1,224,-362.3)">
                        <text x="-8.75px" y="0px" style="font-family:'TimesNewRomanPSMT', 'Times New Roman', serif;font-size:14px;">0.1</text>
                    </g>
                </g>
                <g id="edge7">
                    <path d="M462.14,-379.77C436.94,-394.47 398.86,-416.67 398,-417C354.8,-433.5 302.31,-442.79 267.19,-447.59" style="fill:none;fill-rule:nonzero;"/>
                    <path d="M266.51,-445.56L260.84,-448.44L267.07,-449.73L266.51,-445.56Z" style="fill-rule:nonzero;"/>
                </g>
                <g id="edge8">
                    <path d="M514.58,-373.85C526.19,-374.15 535.8,-371.54 535.8,-366C535.8,-361.46 529.34,-358.88 520.6,-358.27" style="fill:none;fill-rule:nonzero;stroke:black;stroke-width:2.72px;"/>
                    <path d="M520.62,-356.17L514.58,-358.15L520.54,-360.37L520.62,-356.17Z" style="fill-rule:nonzero;stroke:black;stroke-width:2.72px;"/>
                    <g transform="matrix(1,0,0,1,548.3,-362.3)">
                        <text x="-12.25px" y="0px" style="font-family:'TimesNewRomanPSMT', 'Times New Roman', serif;font-size:14px;">0.91</text>
                    </g>
                </g>
                <g id="edge9">
                    <path d="M513.14,-356.95C524.026,-340.847 533.4,-333.272 540.488,-316.496C595.892,-185.374 533.941,-48.827 444.156,-20.04C416.215,-11.082 390.998,-1.647 358.84,-20.04" style="fill:none;fill-rule:nonzero;stroke:black;stroke-width:0.23px;"/>
                    <path d="M358.91,-17.94L352.84,-19.84L358.77,-22.14L358.91,-17.94Z" style="fill-rule:nonzero;stroke:black;stroke-width:0.23px;"/>
                    <g transform="matrix(1,0,0,1,489.5,-59.3)">
                        <text x="-12.25px" y="0px" style="font-family:'TimesNewRomanPSMT', 'Times New Roman', serif;font-size:14px;">0.08</text>
                    </g>
                </g>
                <g id="edge10">
                    <path d="M476.55,-348.2C471.81,-338.21 465.21,-325.48 458,-315C451.93,-306.18 445.8,-307 442,-297C436.31,-282.04 436.1,-275.87 442,-261C453.47,-232.07 478.53,-238.93 490,-210C495.9,-195.13 498.74,-187.4 490,-174C474.71,-150.57 400.31,-127.37 354.83,-115.05" style="fill:none;fill-rule:nonzero;stroke:black;stroke-width:0.02px;"/>
                    <path d="M355.23,-112.98L348.89,-113.46L354.14,-117.04L355.23,-112.98Z" style="fill-rule:nonzero;stroke:black;stroke-width:0.02px;"/>
                    <g transform="matrix(1,0,0,1,488.5,-231.8)">
                        <text x="-12.25px" y="0px" style="font-family:'TimesNewRomanPSMT', 'Times New Roman', serif;font-size:14px;">0.01</text>
                    </g>
                </g>
                <g id="edge11">
                </g>
                <g id="edge12">
                    <path d="M449.9,-365.72C408.99,-365.12 339.6,-359.3 289,-330C277.3,-323.23 267.39,-311.92 260.14,-301.77" style="fill:none;fill-rule:nonzero;stroke:black;stroke-width:0.02px;"/>
                    <path d="M261.72,-300.36L256.6,-296.6L258.26,-302.74L261.72,-300.36Z" style="fill-rule:nonzero;stroke:black;stroke-width:0.02px;"/>
                    <g transform="matrix(1,0,0,1,301.5,-318.8)">
                        <text x="-12.25px" y="0px" style="font-family:'TimesNewRomanPSMT', 'Times New Roman', serif;font-size:14px;">0.01</text>
                    </g>
                </g>
                <g id="edge13">
                    <path d="M286.04,-22.31C98.572,-9.737 22.411,-425.301 187.85,-450.25" style="fill:none;fill-rule:nonzero;stroke:black;stroke-width:0.08px;"/>
                    <path d="M187.99,-452.37L194.14,-450.77L188.33,-448.18L187.99,-452.37Z" style="fill-rule:nonzero;stroke:black;stroke-width:0.08px;"/>
                    <g transform="matrix(1,0,0,1,84.5,-252.8)">
                        <text x="-12.25px" y="0px" style="font-family:'TimesNewRomanPSMT', 'Times New Roman', serif;font-size:14px;">0.03</text>
                    </g>
                </g>
                <g id="edge14">
                    <path d="M353.25,-22.36C499.593,-17.993 595.286,-276.468 510.9,-354.02" style="fill:none;fill-rule:nonzero;stroke:black;stroke-width:0.09px;"/>
                    <g transform="matrix(0.895518,0.621843,-0.684915,0.986347,-198.072,-322.008)">
                        <path d="M521.01,-356.07L515.65,-359.49L521.97,-360.16L521.01,-356.07Z" style="fill-rule:nonzero;stroke:black;stroke-width:0.09px;"/>
                    </g>
                    <g transform="matrix(1,0,0,1,524.5,-302.3)">
                        <text x="-12.25px" y="0px" style="font-family:'TimesNewRomanPSMT', 'Times New Roman', serif;font-size:14px;">0.03</text>
                    </g>
                </g>
                <g id="edge15">
                    <path d="M349.58,-25.85C361.19,-26.15 370.8,-23.54 370.8,-18C370.8,-13.46 364.34,-10.88 355.6,-10.27" style="fill:none;fill-rule:nonzero;stroke:black;stroke-width:0.58px;"/>
                    <path d="M355.62,-8.17L349.58,-10.15L355.54,-12.37L355.62,-8.17Z" style="fill-rule:nonzero;stroke:black;stroke-width:0.58px;"/>
                    <g transform="matrix(1,0,0,1,370.3,-0.3)">
                        <text x="-12.25px" y="0px" style="font-family:'TimesNewRomanPSMT', 'Times New Roman', serif;font-size:14px;">0.19</text>
                    </g>
                </g>
                <g id="edge16">
                    <path d="M305.18,-34.77C298.43,-44.39 292.44,-57.1 296,-69C297.47,-73.91 299.87,-78.76 302.58,-83.22" style="fill:none;fill-rule:nonzero;stroke:black;stroke-width:1.57px;"/>
                    <path d="M300.83,-84.38L305.86,-88.26L304.35,-82.09L300.83,-84.38Z" style="fill-rule:nonzero;stroke:black;stroke-width:1.57px;"/>
                    <g transform="matrix(1,0,0,1,308.5,-57.8)">
                        <text x="-12.25px" y="0px" style="font-family:'TimesNewRomanPSMT', 'Times New Roman', serif;font-size:14px;">0.52</text>
                    </g>
                </g>
                <g id="edge17">
                    <path d="M342.65,-31.28C362.55,-42.9 390.06,-62.22 405,-87C421,-113.54 419.7,-125.37 415,-156C414.38,-160.06 413.37,-164.3 412.21,-168.36" style="fill:none;fill-rule:nonzero;stroke:black;stroke-width:0.39px;"/>
                    <path d="M410.18,-167.81L410.43,-174.16L414.2,-169.04L410.18,-167.81Z" style="fill-rule:nonzero;stroke:black;stroke-width:0.39px;"/>
                    <g transform="matrix(1,0,0,1,430.5,-101.3)">
                        <text x="-12.25px" y="0px" style="font-family:'TimesNewRomanPSMT', 'Times New Roman', serif;font-size:14px;">0.13</text>
                    </g>
                </g>
                <g id="edge18">
                    <path d="M305.27,-34.56C286.93,-56.5 255.31,-98.58 243,-141C230.36,-184.56 235.53,-197.87 240,-243C240.38,-246.88 241,-250.98 241.72,-254.94" style="fill:none;fill-rule:nonzero;stroke:black;stroke-width:0.29px;"/>
                    <path d="M239.69,-255.52L242.9,-261.01L243.82,-254.72L239.69,-255.52Z" style="fill-rule:nonzero;stroke:black;stroke-width:0.29px;"/>
                    <g transform="matrix(1,0,0,1,252,-144.8)">
                        <text x="-8.75px" y="0px" style="font-family:'TimesNewRomanPSMT', 'Times New Roman', serif;font-size:14px;">0.1</text>
                    </g>
                </g>
                <g id="edge19">
                    <path d="M285.27,-107.5C259.65,-110.49 225.45,-118.74 205,-141C129.74,-222.9 190.09,-373.64 216.86,-429.99" style="fill:none;fill-rule:nonzero;stroke:black;stroke-width:0.27px;"/>
                    <path d="M214.99,-430.96L219.49,-435.45L218.78,-429.13L214.99,-430.96Z" style="fill-rule:nonzero;stroke:black;stroke-width:0.27px;"/>
                    <g transform="matrix(1,0,0,1,185.5,-275.3)">
                        <text x="-12.25px" y="0px" style="font-family:'TimesNewRomanPSMT', 'Times New Roman', serif;font-size:14px;">0.09</text>
                    </g>
                </g>
                <g id="edge20">
                </g>
                <g id="edge21">
                    <path d="M320.27,-86.88C327.086,-84.927 331.995,-78.425 332.682,-71.846C334.068,-58.554 324.382,-41.864 321.51,-40.15" style="fill:none;fill-rule:nonzero;stroke:black;stroke-width:0.34px;"/>
                    <path d="M323.6,-40.19L320.17,-36.08L320.17,-41.19L323.6,-40.19Z" style="fill-rule:nonzero;stroke:black;stroke-width:0.34px;"/>
                    <g transform="matrix(1,0,0,1,348.5,-60.8)">
                        <text x="-11.99px" y="0px" style="font-family:'TimesNewRomanPSMT', 'Times New Roman', serif;font-size:14px;">0.1<tspan x="4.99px " y="0px ">1</tspan></text>
                    </g>
                </g>
                <g id="edge22">
                    <path d="M349.58,-112.85C361.19,-113.15 370.8,-110.54 370.8,-105C370.8,-100.46 364.34,-97.88 355.6,-97.27" style="fill:none;fill-rule:nonzero;stroke:black;stroke-width:2.03px;"/>
                    <path d="M355.62,-95.17L349.58,-97.15L355.54,-99.37L355.62,-95.17Z" style="fill-rule:nonzero;stroke:black;stroke-width:2.03px;"/>
                    <g transform="matrix(1,0,0,1,383.3,-101.3)">
                        <text x="-12.25px" y="0px" style="font-family:'TimesNewRomanPSMT', 'Times New Roman', serif;font-size:14px;">0.68</text>
                    </g>
                </g>
                <g id="edge23">
                    <path d="M342.96,-117.99C353.31,-123.95 365.08,-131.84 374,-141C381.91,-149.12 388.64,-159.71 393.71,-169.05" style="fill:none;fill-rule:nonzero;stroke:black;stroke-width:0.24px;"/>
                    <path d="M391.86,-170.04L396.5,-174.38L395.58,-168.09L391.86,-170.04Z" style="fill-rule:nonzero;stroke:black;stroke-width:0.24px;"/>
                    <g transform="matrix(1,0,0,1,398.5,-144.8)">
                        <text x="-12.25px" y="0px" style="font-family:'TimesNewRomanPSMT', 'Times New Roman', serif;font-size:14px;">0.08</text>
                    </g>
                </g>
                <g id="edge24">
                    <path d="M314.04,-122.87C307.71,-143.7 296.03,-180.04 283,-210C276.1,-225.86 266.97,-243.08 259.63,-256.22" style="fill:none;fill-rule:nonzero;stroke:black;stroke-width:0.1px;"/>
                    <path d="M257.73,-255.32L256.61,-261.58L261.38,-257.38L257.73,-255.32Z" style="fill-rule:nonzero;stroke:black;stroke-width:0.1px;"/>
                    <g transform="matrix(1,0,0,1,310.5,-188.3)">
                        <text x="-12.25px" y="0px" style="font-family:'TimesNewRomanPSMT', 'Times New Roman', serif;font-size:14px;">0.03</text>
                    </g>
                </g>
                <g id="edge25">
                    <path d="M400.19,-210.11C393.62,-237.17 378.37,-290.79 353,-330C351.99,-331.56 286.93,-404.31 273,-417C266.59,-422.84 259.29,-428.79 252.47,-434.08" style="fill:none;fill-rule:nonzero;stroke:black;stroke-width:0.76px;"/>
                    <path d="M250.85,-432.68L247.36,-437.99L253.4,-436.01L250.85,-432.68Z" style="fill-rule:nonzero;stroke:black;stroke-width:0.76px;"/>
                    <g transform="matrix(1,0,0,1,374.5,-318.8)">
                        <text x="-12.25px" y="0px" style="font-family:'TimesNewRomanPSMT', 'Times New Roman', serif;font-size:14px;">0.25</text>
                    </g>
                </g>
                <g id="edge26">
                    <path d="M425.52,-205.88C443.12,-217.75 466.87,-237.12 478,-261C489.96,-286.66 489.54,-319.83 487.4,-341.73" style="fill:none;fill-rule:nonzero;stroke:black;stroke-width:0.09px;"/>
                    <path d="M485.29,-341.67L486.73,-347.86L489.47,-342.12L485.29,-341.67Z" style="fill-rule:nonzero;stroke:black;stroke-width:0.09px;"/>
                    <g transform="matrix(1,0,0,1,499.5,-275.3)">
                        <text x="-12.25px" y="0px" style="font-family:'TimesNewRomanPSMT', 'Times New Roman', serif;font-size:14px;">0.03</text>
                    </g>
                </g>
                <g id="edge27">
                    <path d="M418.71,-175.77C436.77,-155.13 463.15,-117.36 447,-87C428.99,-53.16 387.09,-35.51 356.1,-26.77" style="fill:none;fill-rule:nonzero;stroke:black;stroke-width:0.63px;"/>
                    <path d="M356.4,-24.68L350.06,-25.14L355.3,-28.73L356.4,-24.68Z" style="fill-rule:nonzero;stroke:black;stroke-width:0.63px;"/>
                    <g transform="matrix(1,0,0,1,464.5,-101.3)">
                        <text x="-12.25px" y="0px" style="font-family:'TimesNewRomanPSMT', 'Times New Roman', serif;font-size:14px;">0.21</text>
                    </g>
                </g>
                <g id="edge28">
                    <path d="M378.59,-179.9C367.27,-174.03 354.41,-165.95 345,-156C337.54,-148.11 331.66,-137.67 327.4,-128.36" style="fill:none;fill-rule:nonzero;stroke:black;stroke-width:0.03px;"/>
                    <path d="M329.28,-127.41L324.95,-122.75L325.43,-129.09L329.28,-127.41Z" style="fill-rule:nonzero;stroke:black;stroke-width:0.03px;"/>
                    <g transform="matrix(1,0,0,1,357.5,-144.8)">
                        <text x="-12.25px" y="0px" style="font-family:'TimesNewRomanPSMT', 'Times New Roman', serif;font-size:14px;">0.01</text>
                    </g>
                </g>
                <g id="edge29">
                    <path d="M434.58,-199.85C446.19,-200.15 455.8,-197.54 455.8,-192C455.8,-187.46 449.34,-184.88 440.6,-184.27" style="fill:none;fill-rule:nonzero;stroke:black;stroke-width:0.44px;"/>
                    <path d="M440.62,-182.17L434.58,-184.15L440.54,-186.37L440.62,-182.17Z" style="fill-rule:nonzero;stroke:black;stroke-width:0.44px;"/>
                    <g transform="matrix(1,0,0,1,468.3,-188.3)">
                        <text x="-12.25px" y="0px" style="font-family:'TimesNewRomanPSMT', 'Times New Roman', serif;font-size:14px;">0.15</text>
                    </g>
                </g>
                <g id="edge30">
                    <path d="M382.53,-205.99C371.81,-212.53 358.68,-220.61 347,-228C336.69,-234.53 334.7,-237.12 324,-243C309.58,-250.92 293.04,-258.61 279,-264.75" style="fill:none;fill-rule:nonzero;stroke:black;stroke-width:1.04px;"/>
                    <path d="M277.81,-262.98L273.14,-267.29L279.48,-266.83L277.81,-262.98Z" style="fill-rule:nonzero;stroke:black;stroke-width:1.04px;"/>
                    <g transform="matrix(1,0,0,1,359.5,-231.8)">
                        <text x="-12.25px" y="0px" style="font-family:'TimesNewRomanPSMT', 'Times New Roman', serif;font-size:14px;">0.35</text>
                    </g>
                </g>
                <g id="edge31">
                </g>
                <g id="edge32">
                    <path d="M279.97,-283.33C313.71,-287.6 367.13,-296.73 410,-315C412.73,-316.16 438.64,-333.8 459.04,-347.8" style="fill:none;fill-rule:nonzero;stroke:black;stroke-width:0.45px;"/>
                    <path d="M457.96,-349.6L464.09,-351.27L460.33,-346.14L457.96,-349.6Z" style="fill-rule:nonzero;stroke:black;stroke-width:0.45px;"/>
                    <g transform="matrix(1,0,0,1,444.5,-318.8)">
                        <text x="-12.25px" y="0px" style="font-family:'TimesNewRomanPSMT', 'Times New Roman', serif;font-size:14px;">0.15</text>
                    </g>
                </g>
                <g id="edge33">
                    <path d="M236.77,-261.46C222.12,-235.62 198.24,-184.16 211,-141C224.44,-95.55 266.56,-57.32 294.05,-36.34" style="fill:none;fill-rule:nonzero;stroke:black;stroke-width:0.22px;"/>
                    <path d="M295.47,-37.91L299.01,-32.63L292.95,-34.54L295.47,-37.91Z" style="fill-rule:nonzero;stroke:black;stroke-width:0.22px;"/>
                    <g transform="matrix(1,0,0,1,223.5,-144.8)">
                        <text x="-12.25px" y="0px" style="font-family:'TimesNewRomanPSMT', 'Times New Roman', serif;font-size:14px;">0.07</text>
                    </g>
                </g>
                <g id="edge34">
                    <path d="M244.71,-260.96C242.6,-239.64 241.45,-202.48 254,-174C262.82,-153.99 280.19,-136.32 294.75,-124" style="fill:none;fill-rule:nonzero;stroke:black;stroke-width:0.02px;"/>
                    <path d="M296.27,-125.47L299.57,-120.04L293.6,-122.23L296.27,-125.47Z" style="fill-rule:nonzero;stroke:black;stroke-width:0.02px;"/>
                    <g transform="matrix(1,0,0,1,266.5,-188.3)">
                        <text x="-12.25px" y="0px" style="font-family:'TimesNewRomanPSMT', 'Times New Roman', serif;font-size:14px;">0.01</text>
                    </g>
                </g>
                <g id="edge35">
                    <path d="M258.83,-262C267.7,-251.04 280.71,-236.92 295,-228C301.49,-223.95 339.64,-212.1 368.99,-203.3" style="fill:none;fill-rule:nonzero;stroke:black;stroke-width:2.24px;"/>
                    <path d="M369.96,-205.2L375.11,-201.48L368.76,-201.18L369.96,-205.2Z" style="fill-rule:nonzero;stroke:black;stroke-width:2.24px;"/>
                    <g transform="matrix(1,0,0,1,307.5,-231.8)">
                        <text x="-12.25px" y="0px" style="font-family:'TimesNewRomanPSMT', 'Times New Roman', serif;font-size:14px;">0.75</text>
                    </g>
                </g>
                <g id="edge36">
                    <path d="M277.58,-286.85C289.19,-287.15 298.8,-284.54 298.8,-279C298.8,-274.46 292.34,-271.88 283.6,-271.27" style="fill:none;fill-rule:nonzero;stroke:black;stroke-width:0.06px;"/>
                    <path d="M283.62,-269.17L277.58,-271.15L283.54,-273.37L283.62,-269.17Z" style="fill-rule:nonzero;stroke:black;stroke-width:0.06px;"/>
                    <g transform="matrix(1,0,0,1,311.3,-275.3)">
                        <text x="-12.25px" y="0px" style="font-family:'TimesNewRomanPSMT', 'Times New Roman', serif;font-size:14px;">0.02</text>
                    </g>
                </g>
                <g transform="matrix(1.45588,0,0,1.45588,-20.4853,-534.191)">
                    <text x="159px" y="15.596px" style="font-family:'ArialMT', 'Arial', sans-serif;font-size:12px;">State transition diagram</text>
                </g>
            </g>
        </g>
    </g>
</svg>
