<?xml version="1.0" encoding="UTF-8" standalone="no"?>
<!DOCTYPE svg PUBLIC "-//W3C//DTD SVG 1.1//EN"
 "http://www.w3.org/Graphics/SVG/1.1/DTD/svg11.dtd">
<!-- Generated by graphviz version 2.43.0 (0)
 -->
<!-- Pages: 1 -->
<svg width="309pt" height="305pt"
 viewBox="0.00 0.00 309.24 305.00" xmlns="http://www.w3.org/2000/svg" xmlns:xlink="http://www.w3.org/1999/xlink">
<g id="graph0" class="graph" transform="scale(1 1) rotate(0) translate(4 301)">
<polygon fill="white" stroke="transparent" points="-4,4 -4,-301 305.24,-301 305.24,4 -4,4"/>
<!-- 0 -->
<g id="node1" class="node">
<title>0</title>
<ellipse fill="lightblue" stroke="black" cx="201.24" cy="-279" rx="34" ry="18"/>
<text text-anchor="middle" x="201.24" y="-275.3" font-family="Times,serif" font-size="14.00">state 1</text>
</g>
<!-- 0&#45;&gt;0 -->
<g id="edge1" class="edge">
<title>0&#45;&gt;0</title>
<path fill="none" stroke="black" stroke-width="0" d="M231.83,-286.85C243.44,-287.15 253.04,-284.54 253.04,-279 253.04,-274.46 246.58,-271.88 237.85,-271.27"/>
<polygon fill="black" stroke="black" stroke-width="0" points="237.87,-269.17 231.83,-271.15 237.79,-273.37 237.87,-269.17"/>
<text text-anchor="middle" x="262.04" y="-275.3" font-family="Times,serif" font-size="14.00">0.0</text>
</g>
<!-- 1 -->
<g id="node2" class="node">
<title>1</title>
<ellipse fill="orange" stroke="black" cx="61.24" cy="-192" rx="34" ry="18"/>
<text text-anchor="middle" x="61.24" y="-188.3" font-family="Times,serif" font-size="14.00">state 2</text>
</g>
<!-- 0&#45;&gt;1 -->
<g id="edge2" class="edge">
<title>0&#45;&gt;1</title>
<path fill="none" stroke="black" stroke-width="0.24" d="M168.17,-274.98C143.18,-271.16 109.36,-262.52 86.24,-243 77.89,-235.95 72.05,-225.42 68.12,-215.85"/>
<polygon fill="black" stroke="black" stroke-width="0.24" points="70.02,-214.91 65.92,-210.05 66.09,-216.4 70.02,-214.91"/>
<text text-anchor="middle" x="98.74" y="-231.8" font-family="Times,serif" font-size="14.00">0.08</text>
</g>
<!-- 2 -->
<g id="node3" class="node">
<title>2</title>
<ellipse fill="lightgreen" stroke="black" cx="158.24" cy="-18" rx="34" ry="18"/>
<text text-anchor="middle" x="158.24" y="-14.3" font-family="Times,serif" font-size="14.00">state 3</text>
</g>
<!-- 0&#45;&gt;2 -->
<g id="edge3" class="edge">
<title>0&#45;&gt;2</title>
<path fill="none" stroke="black" stroke-width="0.34" d="M211.69,-261.84C232.23,-227.89 273.42,-147.27 244.24,-87 232.72,-63.2 208.37,-45.2 188.51,-33.72"/>
<polygon fill="black" stroke="black" stroke-width="0.34" points="189.31,-31.76 183.05,-30.66 187.25,-35.42 189.31,-31.76"/>
<text text-anchor="middle" x="265.74" y="-144.8" font-family="Times,serif" font-size="14.00">0.11</text>
</g>
<!-- 3 -->
<g id="node4" class="node">
<title>3</title>
<ellipse fill="red" stroke="black" cx="158.24" cy="-105" rx="34" ry="18"/>
<text text-anchor="middle" x="158.24" y="-101.3" font-family="Times,serif" font-size="14.00">state 4</text>
</g>
<!-- 0&#45;&gt;3 -->
<g id="edge4" class="edge">
<title>0&#45;&gt;3</title>
<path fill="none" stroke="black" stroke-width="2.43" d="M203.49,-260.87C206.23,-233.78 208.28,-180.13 188.24,-141 185.56,-135.77 181.95,-130.66 178.16,-126.03"/>
<polygon fill="black" stroke="black" stroke-width="2.43" points="179.52,-124.39 174.02,-121.21 176.34,-127.13 179.52,-124.39"/>
<text text-anchor="middle" x="216.74" y="-188.3" font-family="Times,serif" font-size="14.00">0.81</text>
</g>
<!-- 1&#45;&gt;0 -->
<g id="edge5" class="edge">
<title>1&#45;&gt;0</title>
<path fill="none" stroke="black" stroke-width="0" d="M82.5,-206.26C98.8,-216.4 121.88,-230.68 142.24,-243 152.56,-249.24 163.94,-256.02 173.94,-261.94"/>
<polygon fill="black" stroke="black" stroke-width="0" points="173.1,-263.88 179.33,-265.13 175.24,-260.27 173.1,-263.88"/>
<text text-anchor="middle" x="151.24" y="-231.8" font-family="Times,serif" font-size="14.00">0.0</text>
</g>
<!-- 1&#45;&gt;1 -->
<g id="edge6" class="edge">
<title>1&#45;&gt;1</title>
<path fill="none" stroke="black" stroke-width="2.95" d="M91.83,-199.85C103.44,-200.15 113.04,-197.54 113.04,-192 113.04,-187.46 106.58,-184.88 97.85,-184.27"/>
<polygon fill="black" stroke="black" stroke-width="2.95" points="97.87,-182.17 91.83,-184.15 97.78,-186.37 97.87,-182.17"/>
<text text-anchor="middle" x="125.54" y="-188.3" font-family="Times,serif" font-size="14.00">0.98</text>
</g>
<!-- 1&#45;&gt;2 -->
<g id="edge7" class="edge">
<title>1&#45;&gt;2</title>
<path fill="none" stroke="black" stroke-width="0.05" d="M45.55,-175.66C26.93,-155.52 0,-118.97 13.24,-87 30.19,-46.08 82.18,-29.76 119.05,-23.26"/>
<polygon fill="black" stroke="black" stroke-width="0.05" points="119.71,-25.28 125.29,-22.23 119.03,-21.14 119.71,-25.28"/>
<text text-anchor="middle" x="25.74" y="-101.3" font-family="Times,serif" font-size="14.00">0.02</text>
</g>
<!-- 1&#45;&gt;3 -->
<g id="edge8" class="edge">
<title>1&#45;&gt;3</title>
<path fill="none" stroke="black" stroke-width="0" d="M85.15,-179.17C96.17,-173.09 109.04,-165.05 119.24,-156 128.55,-147.74 137.25,-137.02 144.05,-127.63"/>
<polygon fill="black" stroke="black" stroke-width="0" points="145.88,-128.68 147.63,-122.57 142.45,-126.26 145.88,-128.68"/>
<text text-anchor="middle" x="141.24" y="-144.8" font-family="Times,serif" font-size="14.00">0.0</text>
</g>
<!-- 2&#45;&gt;0 -->
<g id="edge9" class="edge">
<title>2&#45;&gt;0</title>
<path fill="none" stroke="black" stroke-width="0" d="M187.28,-27.52C203.43,-33.23 223.24,-41.94 238.24,-54 272.01,-81.15 274.6,-98.35 282.24,-141 290.72,-188.31 250.28,-234.57 223.49,-259.38"/>
<polygon fill="black" stroke="black" stroke-width="0" points="222.02,-257.87 218.99,-263.46 224.85,-260.99 222.02,-257.87"/>
<text text-anchor="middle" x="292.24" y="-144.8" font-family="Times,serif" font-size="14.00">0.0</text>
</g>
<!-- 2&#45;&gt;1 -->
<g id="edge10" class="edge">
<title>2&#45;&gt;1</title>
<path fill="none" stroke="black" stroke-width="0" d="M143.28,-34.52C137.56,-40.54 131.03,-47.53 125.24,-54 112.42,-68.34 107.22,-70.55 97.24,-87 83.8,-109.16 83.64,-116.48 75.24,-141 72.31,-149.56 69.52,-159.1 67.22,-167.53"/>
<polygon fill="black" stroke="black" stroke-width="0" points="65.08,-167.39 65.56,-173.73 69.14,-168.48 65.08,-167.39"/>
<text text-anchor="middle" x="106.24" y="-101.3" font-family="Times,serif" font-size="14.00">0.0</text>
</g>
<!-- 2&#45;&gt;2 -->
<g id="edge11" class="edge">
<title>2&#45;&gt;2</title>
<path fill="none" stroke="black" stroke-width="2.99" d="M188.83,-25.85C200.44,-26.15 210.04,-23.54 210.04,-18 210.04,-13.46 203.58,-10.88 194.85,-10.27"/>
<polygon fill="black" stroke="black" stroke-width="2.99" points="194.87,-8.17 188.83,-10.15 194.79,-12.37 194.87,-8.17"/>
<text text-anchor="middle" x="219.04" y="-14.3" font-family="Times,serif" font-size="14.00">1.0</text>
</g>
<!-- 2&#45;&gt;3 -->
<g id="edge12" class="edge">
<title>2&#45;&gt;3</title>
<path fill="none" stroke="black" stroke-width="0" d="M159.41,-36.08C159.75,-41.78 160.07,-48.16 160.24,-54 160.49,-62.72 160.24,-72.29 159.84,-80.7"/>
<polygon fill="black" stroke="black" stroke-width="0" points="157.73,-80.78 159.51,-86.88 161.93,-81 157.73,-80.78"/>
<text text-anchor="middle" x="169.24" y="-57.8" font-family="Times,serif" font-size="14.00">0.0</text>
</g>
<!-- 3&#45;&gt;0 -->
<g id="edge13" class="edge">
<title>3&#45;&gt;0</title>
<path fill="none" stroke="black" stroke-width="0" d="M160.52,-123.12C163.47,-143.88 169.22,-179.85 177.24,-210 181.34,-225.42 187.31,-242.35 192.27,-255.45"/>
<polygon fill="black" stroke="black" stroke-width="0" points="190.36,-256.34 194.47,-261.19 194.28,-254.84 190.36,-256.34"/>
<text text-anchor="middle" x="186.24" y="-188.3" font-family="Times,serif" font-size="14.00">0.0</text>
</g>
<!-- 3&#45;&gt;1 -->
<g id="edge14" class="edge">
<title>3&#45;&gt;1</title>
<path fill="none" stroke="black" stroke-width="0.45" d="M130.83,-115.84C117.45,-121.64 101.79,-130.02 90.24,-141 82.17,-148.67 75.65,-159.09 70.85,-168.43"/>
<polygon fill="black" stroke="black" stroke-width="0.45" points="68.84,-167.76 68.08,-174.07 72.61,-169.61 68.84,-167.76"/>
<text text-anchor="middle" x="102.74" y="-144.8" font-family="Times,serif" font-size="14.00">0.15</text>
</g>
<!-- 3&#45;&gt;2 -->
<g id="edge15" class="edge">
<title>3&#45;&gt;2</title>
<path fill="none" stroke="black" stroke-width="0.32" d="M142.86,-88.59C138.19,-82.92 133.67,-76.12 131.24,-69 127.76,-58.79 132.18,-48.19 138.38,-39.38"/>
<polygon fill="black" stroke="black" stroke-width="0.32" points="140.41,-40.18 142.42,-34.15 137.09,-37.62 140.41,-40.18"/>
<text text-anchor="middle" x="143.74" y="-57.8" font-family="Times,serif" font-size="14.00">0.11</text>
</g>
<!-- 3&#45;&gt;3 -->
<g id="edge16" class="edge">
<title>3&#45;&gt;3</title>
<path fill="none" stroke="black" stroke-width="2.22" d="M188.83,-112.85C200.44,-113.15 210.04,-110.54 210.04,-105 210.04,-100.46 203.58,-97.88 194.85,-97.27"/>
<polygon fill="black" stroke="black" stroke-width="2.22" points="194.87,-95.17 188.83,-97.15 194.79,-99.37 194.87,-95.17"/>
<text text-anchor="middle" x="222.54" y="-101.3" font-family="Times,serif" font-size="14.00">0.74</text>
</g>
</g>
</svg>
