<?xml version="1.0" encoding="UTF-8" standalone="no"?>
<!DOCTYPE svg PUBLIC "-//W3C//DTD SVG 1.1//EN"
 "http://www.w3.org/Graphics/SVG/1.1/DTD/svg11.dtd">
<!-- Generated by graphviz version 2.43.0 (0)
 -->
<!-- Pages: 1 -->
<svg width="138pt" height="188pt"
 viewBox="0.00 0.00 137.79 188.00" xmlns="http://www.w3.org/2000/svg" xmlns:xlink="http://www.w3.org/1999/xlink">
<g id="graph0" class="graph" transform="scale(1 1) rotate(0) translate(4 184)">
<polygon fill="white" stroke="transparent" points="-4,4 -4,-184 133.79,-184 133.79,4 -4,4"/>
<!-- 0 -->
<g id="node1" class="node">
<title>0</title>
<ellipse fill="#000000" stroke="black" cx="78" cy="-162" rx="34" ry="18"/>
<text text-anchor="middle" x="78" y="-158.3" font-family="Times,serif" font-size="14.00">state 1</text>
</g>
<!-- 0&#45;&gt;0 -->
<g id="edge1" class="edge">
<title>0&#45;&gt;0</title>
<path fill="none" stroke="black" d="M102.24,-174.71C116.47,-177.42 129.79,-173.18 129.79,-162 129.79,-152.48 120.13,-147.99 108.48,-148.55"/>
<polygon fill="black" stroke="black" points="107.95,-146.5 102.24,-149.29 108.45,-150.67 107.95,-146.5"/>
</g>
<!-- 1 -->
<g id="node2" class="node">
<title>1</title>
<ellipse fill="orange" stroke="black" cx="34" cy="-90" rx="34" ry="18"/>
<text text-anchor="middle" x="34" y="-86.3" font-family="Times,serif" font-size="14.00">state 2</text>
</g>
<!-- 0&#45;&gt;1 -->
<g id="edge2" class="edge">
<title>0&#45;&gt;1</title>
<path fill="none" stroke="black" d="M62.77,-145.81C55.68,-136.36 47.71,-124.04 41.77,-113.47"/>
<polygon fill="black" stroke="black" points="43.58,-112.4 38.87,-108.13 39.89,-114.4 43.58,-112.4"/>
</g>
<!-- 2 -->
<g id="node3" class="node">
<title>2</title>
<ellipse fill="lightgreen" stroke="black" cx="78" cy="-18" rx="34" ry="18"/>
<text text-anchor="middle" x="78" y="-14.3" font-family="Times,serif" font-size="14.00">state 3</text>
</g>
<!-- 0&#45;&gt;2 -->
<g id="edge3" class="edge">
<title>0&#45;&gt;2</title>
<path fill="none" stroke="black" d="M77.19,-143.67C79.84,-133.47 84.09,-120.22 86,-108 88.47,-92.19 88.47,-87.81 86,-72 84.45,-62.07 81.35,-51.46 78.82,-42.37"/>
<polygon fill="black" stroke="black" points="80.79,-41.58 77.19,-36.34 76.73,-42.68 80.79,-41.58"/>
</g>
<!-- 1&#45;&gt;0 -->
<g id="edge4" class="edge">
<title>1&#45;&gt;0</title>
<path fill="none" stroke="black" d="M49.35,-106.36C56.46,-115.84 64.42,-128.18 70.34,-138.73"/>
<polygon fill="black" stroke="black" points="68.52,-139.78 73.23,-144.05 72.21,-137.78 68.52,-139.78"/>
</g>
<!-- 1&#45;&gt;1 -->
<g id="edge5" class="edge">
<title>1&#45;&gt;1</title>
<path fill="none" stroke="black" d="M58.25,-102.71C72.48,-105.42 85.8,-101.18 85.8,-90 85.8,-80.48 76.14,-76 64.48,-76.55"/>
<polygon fill="black" stroke="black" points="63.95,-74.49 58.25,-77.29 64.45,-78.66 63.95,-74.49"/>
</g>
<!-- 1&#45;&gt;2 -->
<g id="edge6" class="edge">
<title>1&#45;&gt;2</title>
<path fill="none" stroke="black" d="M38.77,-72.06C43.93,-62.18 51.7,-49.66 59.07,-39.27"/>
<polygon fill="black" stroke="black" points="60.81,-40.44 62.65,-34.36 57.42,-37.97 60.81,-40.44"/>
</g>
<!-- 2&#45;&gt;0 -->
<g id="edge7" class="edge">
<title>2&#45;&gt;0</title>
<path fill="none" stroke="black" d="M92.02,-34.46C97.3,-44.87 101.97,-59.02 104,-72 106.47,-87.81 106.47,-92.19 104,-108 102.31,-118.75 98.83,-130.3 94.67,-139.87"/>
<polygon fill="black" stroke="black" points="92.66,-139.22 92.02,-145.54 96.46,-141 92.66,-139.22"/>
</g>
<!-- 2&#45;&gt;1 -->
<g id="edge8" class="edge">
<title>2&#45;&gt;1</title>
<path fill="none" stroke="black" d="M73.13,-36.13C67.94,-46.03 60.17,-58.55 52.8,-68.92"/>
<polygon fill="black" stroke="black" points="51.07,-67.73 49.23,-73.81 54.46,-70.2 51.07,-67.73"/>
</g>
<!-- 2&#45;&gt;2 -->
<g id="edge9" class="edge">
<title>2&#45;&gt;2</title>
<path fill="none" stroke="black" d="M102.24,-30.71C116.47,-33.42 129.79,-29.18 129.79,-18 129.79,-8.48 120.13,-3.99 108.48,-4.55"/>
<polygon fill="black" stroke="black" points="107.95,-2.49 102.24,-5.29 108.45,-6.66 107.95,-2.49"/>
</g>
</g>
</svg>
