<?xml version="1.0" encoding="UTF-8" standalone="no"?>
<!DOCTYPE svg PUBLIC "-//W3C//DTD SVG 1.1//EN"
 "http://www.w3.org/Graphics/SVG/1.1/DTD/svg11.dtd">
<!-- Generated by graphviz version 2.43.0 (0)
 -->
<!-- Pages: 1 -->
<svg width="206pt" height="218pt"
 viewBox="0.00 0.00 205.79 218.00" xmlns="http://www.w3.org/2000/svg" xmlns:xlink="http://www.w3.org/1999/xlink">
<g id="graph0" class="graph" transform="scale(1 1) rotate(0) translate(4 214)">
<polygon fill="white" stroke="transparent" points="-4,4 -4,-214 201.79,-214 201.79,4 -4,4"/>
<!-- 0 -->
<g id="node1" class="node">
<title>0</title>
<ellipse fill="lightblue" stroke="black" cx="121" cy="-192" rx="34" ry="18"/>
<text text-anchor="middle" x="121" y="-188.3" font-family="Times,serif" font-size="14.00">state 1</text>
</g>
<!-- 0&#45;&gt;0 -->
<g id="edge1" class="edge">
<title>0&#45;&gt;0</title>
<path fill="none" stroke="black" stroke-width="1.56" d="M151.58,-199.85C163.19,-200.15 172.79,-197.54 172.79,-192 172.79,-187.46 166.33,-184.88 157.6,-184.27"/>
<polygon fill="black" stroke="black" stroke-width="1.56" points="157.62,-182.17 151.58,-184.15 157.54,-186.37 157.62,-182.17"/>
<text text-anchor="middle" x="185.29" y="-188.3" font-family="Times,serif" font-size="14.00">0.78</text>
</g>
<!-- 1 -->
<g id="node2" class="node">
<title>1</title>
<ellipse fill="orange" stroke="black" cx="34" cy="-105" rx="34" ry="18"/>
<text text-anchor="middle" x="34" y="-101.3" font-family="Times,serif" font-size="14.00">state 2</text>
</g>
<!-- 0&#45;&gt;1 -->
<g id="edge2" class="edge">
<title>0&#45;&gt;1</title>
<path fill="none" stroke="black" stroke-width="0.18" d="M92.97,-181.61C79.69,-175.96 64.47,-167.59 54,-156 47.11,-148.38 42.45,-138.08 39.37,-128.81"/>
<polygon fill="black" stroke="black" stroke-width="0.18" points="41.33,-128.04 37.57,-122.91 37.32,-129.26 41.33,-128.04"/>
<text text-anchor="middle" x="66.5" y="-144.8" font-family="Times,serif" font-size="14.00">0.09</text>
</g>
<!-- 2 -->
<g id="node3" class="node">
<title>2</title>
<ellipse fill="lightgreen" stroke="black" cx="119" cy="-18" rx="34" ry="18"/>
<text text-anchor="middle" x="119" y="-14.3" font-family="Times,serif" font-size="14.00">state 3</text>
</g>
<!-- 0&#45;&gt;2 -->
<g id="edge3" class="edge">
<title>0&#45;&gt;2</title>
<path fill="none" stroke="black" stroke-width="0.27" d="M121.58,-173.91C121.75,-168.22 121.91,-161.84 122,-156 122.57,-116.14 121.11,-69.76 120.03,-42.48"/>
<polygon fill="black" stroke="black" stroke-width="0.27" points="122.12,-42.21 119.78,-36.3 117.93,-42.38 122.12,-42.21"/>
<text text-anchor="middle" x="135.5" y="-101.3" font-family="Times,serif" font-size="14.00">0.13</text>
</g>
<!-- 1&#45;&gt;0 -->
<g id="edge4" class="edge">
<title>1&#45;&gt;0</title>
<path fill="none" stroke="black" stroke-width="0.36" d="M53.56,-119.8C61.75,-125.92 71.16,-133.45 79,-141 88.32,-149.97 97.67,-160.88 105.18,-170.22"/>
<polygon fill="black" stroke="black" stroke-width="0.36" points="103.56,-171.55 108.93,-174.94 106.84,-168.94 103.56,-171.55"/>
<text text-anchor="middle" x="105.5" y="-144.8" font-family="Times,serif" font-size="14.00">0.18</text>
</g>
<!-- 1&#45;&gt;1 -->
<g id="edge5" class="edge">
<title>1&#45;&gt;1</title>
<path fill="none" stroke="black" stroke-width="1.05" d="M64.58,-112.85C76.19,-113.15 85.8,-110.54 85.8,-105 85.8,-100.46 79.34,-97.88 70.6,-97.27"/>
<polygon fill="black" stroke="black" stroke-width="1.05" points="70.62,-95.17 64.58,-97.15 70.54,-99.37 70.62,-95.17"/>
<text text-anchor="middle" x="98.3" y="-101.3" font-family="Times,serif" font-size="14.00">0.52</text>
</g>
<!-- 1&#45;&gt;2 -->
<g id="edge6" class="edge">
<title>1&#45;&gt;2</title>
<path fill="none" stroke="black" stroke-width="0.6" d="M39.56,-87.22C43.67,-76.74 50.11,-63.49 59,-54 67.07,-45.39 77.74,-38.25 87.84,-32.71"/>
<polygon fill="black" stroke="black" stroke-width="0.6" points="89.05,-34.45 93.38,-29.8 87.09,-30.73 89.05,-34.45"/>
<text text-anchor="middle" x="68" y="-57.8" font-family="Times,serif" font-size="14.00">0.3</text>
</g>
<!-- 2&#45;&gt;0 -->
<g id="edge7" class="edge">
<title>2&#45;&gt;0</title>
<path fill="none" stroke="black" stroke-width="0.21" d="M129.5,-35.26C137.44,-48.57 147.68,-68.2 152,-87 155.58,-102.59 155.38,-107.36 152,-123 148.59,-138.75 143.68,-141.34 137,-156 135.13,-160.1 133.14,-164.46 131.21,-168.67"/>
<polygon fill="black" stroke="black" stroke-width="0.21" points="129.24,-167.94 128.65,-174.27 133.06,-169.69 129.24,-167.94"/>
<text text-anchor="middle" x="166.5" y="-101.3" font-family="Times,serif" font-size="14.00">0.11</text>
</g>
<!-- 2&#45;&gt;1 -->
<g id="edge8" class="edge">
<title>2&#45;&gt;1</title>
<path fill="none" stroke="black" stroke-width="0.58" d="M106.85,-34.98C98.83,-45.14 87.83,-58.34 77,-69 71.1,-74.81 64.3,-80.67 57.89,-85.89"/>
<polygon fill="black" stroke="black" stroke-width="0.58" points="56.44,-84.36 53.07,-89.75 59.07,-87.63 56.44,-84.36"/>
<text text-anchor="middle" x="103.5" y="-57.8" font-family="Times,serif" font-size="14.00">0.29</text>
</g>
<!-- 2&#45;&gt;2 -->
<g id="edge9" class="edge">
<title>2&#45;&gt;2</title>
<path fill="none" stroke="black" stroke-width="1.21" d="M149.58,-25.85C161.19,-26.15 170.79,-23.54 170.79,-18 170.79,-13.46 164.33,-10.88 155.6,-10.27"/>
<polygon fill="black" stroke="black" stroke-width="1.21" points="155.62,-8.17 149.58,-10.15 155.54,-12.37 155.62,-8.17"/>
<text text-anchor="middle" x="179.79" y="-14.3" font-family="Times,serif" font-size="14.00">0.6</text>
</g>
</g>
</svg>
