<?xml version="1.0" encoding="UTF-8" standalone="no"?>
<!DOCTYPE svg PUBLIC "-//W3C//DTD SVG 1.1//EN" "http://www.w3.org/Graphics/SVG/1.1/DTD/svg11.dtd">
<svg width="100%" height="100%" viewBox="0 0 291 305" version="1.1" xmlns="http://www.w3.org/2000/svg" xmlns:xlink="http://www.w3.org/1999/xlink" xml:space="preserve" xmlns:serif="http://www.serif.com/" style="fill-rule:evenodd;clip-rule:evenodd;">
    <g id="graph0" transform="matrix(1,0,0,1,3.9967,300.752)">
        <rect x="-3.997" y="-300.626" width="291" height="304.749" style="fill:white;fill-rule:nonzero;"/>
        <g id="node1">
            <ellipse cx="189.084" cy="-278.644" rx="33.972" ry="17.985" style="fill:rgb(173,216,230);stroke:black;stroke-width:1px;"/>
            <g transform="matrix(1,0,0,1,189.084,-274.947)">
                <text x="-18.063px" y="0px" style="font-family:'TimesNewRomanPSMT', 'Times New Roman', serif;font-size:13.988px;">state 1</text>
            </g>
        </g>
        <g id="node2">
            <ellipse cx="53.196" cy="-191.716" rx="33.972" ry="17.985" style="fill:rgb(255,165,0);stroke:black;stroke-width:1px;"/>
            <g transform="matrix(1,0,0,1,53.1961,-188.019)">
                <text x="-18.063px" y="0px" style="font-family:'TimesNewRomanPSMT', 'Times New Roman', serif;font-size:13.988px;">state 2</text>
            </g>
        </g>
        <g id="edge2">
            <path d="M155.502,-276.426C128.484,-273.669 91.315,-265.585 68.184,-242.674C61.11,-235.67 57.353,-225.468 55.354,-216.106" style="fill:none;fill-rule:nonzero;stroke:black;stroke-width:0.83px;"/>
            <path d="M57.413,-215.656L54.285,-210.121L53.276,-216.396L57.413,-215.656Z" style="fill-rule:nonzero;stroke:black;stroke-width:0.83px;"/>
            <g transform="matrix(1,0,0,1,80.6735,-231.483)">
                <text x="-12.24px" y="0px" style="font-family:'TimesNewRomanPSMT', 'Times New Roman', serif;font-size:13.988px;">0.28</text>
            </g>
        </g>
        <g id="node3">
            <ellipse cx="138.126" cy="-17.859" rx="33.972" ry="17.985" style="fill:rgb(144,238,144);stroke:black;stroke-width:1px;"/>
            <g transform="matrix(1,0,0,1,138.126,-14.1625)">
                <text x="-18.063px" y="0px" style="font-family:'TimesNewRomanPSMT', 'Times New Roman', serif;font-size:13.988px;">state 3</text>
            </g>
        </g>
        <g id="edge3">
            <path d="M198.716,-261.159C217.361,-226.927 254.09,-146.354 225.054,-86.803C213.264,-62.623 188.245,-44.528 168.061,-33.107" style="fill:none;fill-rule:nonzero;stroke:black;stroke-width:2.16px;"/>
            <path d="M169.041,-31.258L162.776,-30.209L167.022,-34.935L169.041,-31.258Z" style="fill-rule:nonzero;stroke:black;stroke-width:2.16px;"/>
            <g transform="matrix(1,0,0,1,247.536,-144.555)">
                <text x="-12.24px" y="0px" style="font-family:'TimesNewRomanPSMT', 'Times New Roman', serif;font-size:13.988px;">0.72</text>
            </g>
        </g>
        <g id="node4">
            <ellipse cx="139.125" cy="-104.788" rx="33.972" ry="17.985" style="fill:rgb(255,0,0);stroke:black;stroke-width:1px;"/>
            <g transform="matrix(1,0,0,1,139.125,-101.091)">
                <text x="-18.063px" y="0px" style="font-family:'TimesNewRomanPSMT', 'Times New Roman', serif;font-size:13.988px;">state 4</text>
            </g>
        </g>
        <g id="edge5">
            <path d="M70.792,-207.153C83.961,-217.635 102.645,-231.823 120.141,-242.674C132.401,-250.278 146.529,-257.672 158.789,-263.677" style="fill:none;fill-rule:nonzero;stroke:black;stroke-width:0.77px;"/>
            <path d="M157.96,-265.605L164.275,-266.335L159.798,-261.828L157.96,-265.605Z" style="fill-rule:nonzero;stroke:black;stroke-width:0.77px;"/>
            <g transform="matrix(1,0,0,1,132.631,-231.483)">
                <text x="-12.24px" y="0px" style="font-family:'TimesNewRomanPSMT', 'Times New Roman', serif;font-size:13.988px;">0.26</text>
            </g>
        </g>
        <g id="edge8">
            <path d="M72.28,-176.868C80.274,-170.743 89.476,-163.23 97.16,-155.746C106.422,-146.733 115.765,-135.822 123.278,-126.51" style="fill:none;fill-rule:nonzero;stroke:black;stroke-width:2.22px;"/>
            <path d="M124.937,-127.789L127.025,-121.794L121.65,-125.181L124.937,-127.789Z" style="fill-rule:nonzero;stroke:black;stroke-width:2.22px;"/>
            <g transform="matrix(1,0,0,1,122.639,-144.555)">
                <text x="-12.24px" y="0px" style="font-family:'TimesNewRomanPSMT', 'Times New Roman', serif;font-size:13.988px;">0.74</text>
            </g>
        </g>
        <g id="edge10">
            <path d="M121.5,-33.846C108.121,-46.726 89.696,-66.389 78.176,-86.803C63.897,-112.092 57.742,-145.314 55.115,-167.306" style="fill:none;fill-rule:nonzero;stroke:black;stroke-width:2.99px;"/>
            <path d="M53.006,-167.286L54.435,-173.471L57.173,-167.746L53.006,-167.286Z" style="fill-rule:nonzero;stroke:black;stroke-width:2.99px;"/>
            <g transform="matrix(1,0,0,1,87.1681,-101.091)">
                <text x="-8.743px" y="0px" style="font-family:'TimesNewRomanPSMT', 'Times New Roman', serif;font-size:13.988px;">1.0</text>
            </g>
        </g>
        <g id="edge13">
            <path d="M141.224,-122.993C144.041,-143.846 149.796,-179.886 159.109,-209.701C164.005,-225.388 171.459,-242.304 177.713,-255.324" style="fill:none;fill-rule:nonzero;stroke:black;stroke-width:2.76px;"/>
            <path d="M175.975,-256.543L180.481,-261.019L179.752,-254.714L175.975,-256.543Z" style="fill-rule:nonzero;stroke:black;stroke-width:2.76px;"/>
            <g transform="matrix(1,0,0,1,171.598,-188.019)">
                <text x="-12.24px" y="0px" style="font-family:'TimesNewRomanPSMT', 'Times New Roman', serif;font-size:13.988px;">0.92</text>
            </g>
        </g>
        <g id="edge16">
            <path d="M169.68,-112.631C181.28,-112.931 190.883,-110.323 190.883,-104.788C190.883,-100.252 184.428,-97.674 175.695,-97.064" style="fill:none;fill-rule:nonzero;stroke:black;stroke-width:0.23px;"/>
            <path d="M175.715,-94.966L169.68,-96.944L175.635,-99.162L175.715,-94.966Z" style="fill-rule:nonzero;stroke:black;stroke-width:0.23px;"/>
            <g transform="matrix(1,0,0,1,203.372,-101.091)">
                <text x="-12.24px" y="0px" style="font-family:'TimesNewRomanPSMT', 'Times New Roman', serif;font-size:13.988px;">0.08</text>
            </g>
        </g>
    </g>
</svg>
