<?xml version="1.0" encoding="UTF-8" standalone="no"?>
<!DOCTYPE svg PUBLIC "-//W3C//DTD SVG 1.1//EN" "http://www.w3.org/Graphics/SVG/1.1/DTD/svg11.dtd">
<svg width="100%" height="100%" viewBox="0 0 117 21" version="1.1" xmlns="http://www.w3.org/2000/svg" xmlns:xlink="http://www.w3.org/1999/xlink" xml:space="preserve" xmlns:serif="http://www.serif.com/" style="fill-rule:evenodd;clip-rule:evenodd;stroke-linejoin:round;stroke-miterlimit:1.5;">
    <rect id="Artboard1" x="0" y="0" width="117" height="21" style="fill:none;"/>
    <g>
        <path d="M111.25,0.125L115,2L111.25,3.875C112.187,2.938 112.187,1.063 111.25,0.125Z" style="fill-opacity:0.79;"/>
        <path d="M3,2L112,2" style="fill:none;stroke:black;stroke-opacity:0.79;stroke-width:0.83px;"/>
        <g transform="matrix(1,0,0,1,4,0)">
            <path d="M22,2L22,4" style="fill:none;stroke:black;stroke-width:0.42px;"/>
        </g>
        <g transform="matrix(1,0,0,1,20,0)">
            <path d="M60.595,2L60.595,4" style="fill:none;stroke:black;stroke-width:0.42px;"/>
        </g>
        <path d="M104.645,2L104.645,4" style="fill:none;stroke:black;stroke-width:0.42px;"/>
        <g transform="matrix(1,0,0,1,13,0)">
            <path d="M41,2L41,4" style="fill:none;stroke:black;stroke-width:0.42px;"/>
        </g>
    </g>
    <g transform="matrix(1,0,0,1,101,10.474)">
        <text x="0px" y="0px" style="font-family:'MicrosoftSansSerif', 'Microsoft Sans Serif', sans-serif;font-size:6.25px;">96</text>
    </g>
    <g transform="matrix(1,0,0,1,76,11.474)">
        <text x="0px" y="0px" style="font-family:'MicrosoftSansSerif', 'Microsoft Sans Serif', sans-serif;font-size:6.25px;">72</text>
    </g>
    <g transform="matrix(1,0,0,1,49,10.474)">
        <text x="0px" y="0px" style="font-family:'MicrosoftSansSerif', 'Microsoft Sans Serif', sans-serif;font-size:6.25px;">48</text>
    </g>
    <g transform="matrix(1,0,0,1,2,9.474)">
        <text x="0px" y="0px" style="font-family:'MicrosoftSansSerif', 'Microsoft Sans Serif', sans-serif;font-size:6.25px;">0</text>
    </g>
    <g transform="matrix(1,0,0,1,22,10.474)">
        <text x="0px" y="0px" style="font-family:'MicrosoftSansSerif', 'Microsoft Sans Serif', sans-serif;font-size:6.25px;">24</text>
    </g>
    <g transform="matrix(1,0,0,1,32.836,18.445)">
        <text x="0px" y="0px" style="font-family:'MicrosoftSansSerif', 'Microsoft Sans Serif', sans-serif;font-size:6.25px;">Time [Hours]</text>
    </g>
</svg>
