<?xml version="1.0" encoding="UTF-8" standalone="no"?><!DOCTYPE svg PUBLIC "-//W3C//DTD SVG 1.1//EN" "http://www.w3.org/Graphics/SVG/1.1/DTD/svg11.dtd"><svg width="100%" height="100%" viewBox="0 0 34 156" version="1.1" xmlns="http://www.w3.org/2000/svg" xmlns:xlink="http://www.w3.org/1999/xlink" xml:space="preserve" xmlns:serif="http://www.serif.com/" style="fill-rule:evenodd;clip-rule:evenodd;stroke-linejoin:round;stroke-miterlimit:1.5;"><rect id="Artboard1" x="0" y="0" width="33.333" height="156" style="fill:none;"/><g><path d="M31.833,147l-2.5,5l-2.5,-5c1.25,1.25 3.75,1.25 5,0Z" style="fill-opacity:0.79;"/><path d="M29.333,2.667l0,145.333" style="fill:none;stroke:#000;stroke-opacity:0.79;stroke-width:1.11px;"/><path d="M29.333,28l-2.666,0" style="fill:none;stroke:#000;stroke-width:0.56px;"/><path d="M29.333,79.46l-2.666,0" style="fill:none;stroke:#000;stroke-width:0.56px;"/><path d="M29.333,138.193l-2.666,0" style="fill:none;stroke:#000;stroke-width:0.56px;"/><path d="M29.333,109.636l-2.666,0" style="fill:none;stroke:#000;stroke-width:0.56px;"/><path d="M29.333,53.333l-2.666,0" style="fill:none;stroke:#000;stroke-width:0.56px;"/></g><text x="12px" y="140.632px" style="font-family:'MicrosoftSansSerif', 'Microsoft Sans Serif', sans-serif;font-size:8.333px;">192</text><text x="12px" y="112.632px" style="font-family:'MicrosoftSansSerif', 'Microsoft Sans Serif', sans-serif;font-size:8.333px;">160</text><text x="12px" y="81.965px" style="font-family:'MicrosoftSansSerif', 'Microsoft Sans Serif', sans-serif;font-size:8.333px;">120</text><text x="16px" y="55.299px" style="font-family:'MicrosoftSansSerif', 'Microsoft Sans Serif', sans-serif;font-size:8.333px;">80</text><text x="18.667px" y="8.632px" style="font-family:'MicrosoftSansSerif', 'Microsoft Sans Serif', sans-serif;font-size:8.333px;">0</text><text x="16px" y="31.299px" style="font-family:'MicrosoftSansSerif', 'Microsoft Sans Serif', sans-serif;font-size:8.333px;">40</text><g transform="matrix(6.21962e-17,-1,1,6.245e-17,-154.847,125.077)"><text x="27.782px" y="163.26px" style="font-family:'MicrosoftSansSerif', 'Microsoft Sans Serif', sans-serif;font-size:8.333px;">Time [Hours]</text></g></svg>